{
  "header": {
    "PPQ": 480,
    "timeSignature": [
      4,
      4
    ],
    "bpm": 180.00018000018,
    "name": "FREEDOM OF PRESS MIDI FILE IMPORT FIRST"
  },
  "tempo": [
    {
      "absoluteTime": 0,
      "seconds": 0,
      "bpm": 180.00018000018
    },
    {
      "absoluteTime": 7680,
      "seconds": 5.333328,
      "bpm": 180.00072000288
    },
    {
      "absoluteTime": 17280,
      "seconds": 11.999988,
      "bpm": 180.00018000018
    }
  ],
  "timeSignature": [
    {
      "absoluteTime": 0,
      "seconds": 0,
      "numerator": 4,
      "denominator": 2,
      "click": 24,
      "notesQ": 8
    },
    {
      "absoluteTime": 7680,
      "seconds": 5.333328,
      "numerator": 4,
      "denominator": 2,
      "click": 24,
      "notesQ": 8
    },
    {
      "absoluteTime": 17280,
      "seconds": 11.999988,
      "numerator": 4,
      "denominator": 2,
      "click": 24,
      "notesQ": 8
    }
  ],
  "startTime": 0,
  "duration": 365.80171753125177,
  "tracks": [
    {
      "startTime": 0,
      "duration": 0,
      "length": 0,
      "notes": [],
      "controlChanges": {},
      "id": 0,
      "name": "FREEDOM OF PRESS MIDI FILE IMPORT FIRST"
    },
    {
      "startTime": 2.999997,
      "duration": 365.80171753125177,
      "length": 1621,
      "notes": [
        {
          "name": "D3",
          "midi": 50,
          "time": 2.999997,
          "velocity": 0.7874015748031497,
          "duration": 0.1354165312500002
        },
        {
          "name": "B3",
          "midi": 59,
          "time": 3.13541353125,
          "velocity": 0.7874015748031497,
          "duration": 0.16666649999999983
        },
        {
          "name": "B3",
          "midi": 59,
          "time": 3.13541353125,
          "velocity": 0.7874015748031497,
          "duration": 0.16666649999999983
        },
        {
          "name": "E3",
          "midi": 52,
          "time": 3.30208003125,
          "velocity": 0.7874015748031497,
          "duration": 0.16666649999999983
        },
        {
          "name": "E3",
          "midi": 52,
          "time": 3.46874653125,
          "velocity": 0.7874015748031497,
          "duration": 0.16666649999999983
        },
        {
          "name": "A3",
          "midi": 57,
          "time": 3.6354130312499997,
          "velocity": 0.7874015748031497,
          "duration": 0.16666649999999983
        },
        {
          "name": "E3",
          "midi": 52,
          "time": 3.8020795312499995,
          "velocity": 0.7874015748031497,
          "duration": 0.16666649999999983
        },
        {
          "name": "E3",
          "midi": 52,
          "time": 3.9687460312499994,
          "velocity": 0.7874015748031497,
          "duration": 0.16666649999999983
        },
        {
          "name": "B3",
          "midi": 59,
          "time": 4.135412531249999,
          "velocity": 0.7874015748031497,
          "duration": 0.16666649999999983
        },
        {
          "name": "E3",
          "midi": 52,
          "time": 4.302079031249999,
          "velocity": 0.7874015748031497,
          "duration": 0.16666649999999983
        },
        {
          "name": "C4",
          "midi": 60,
          "time": 4.468745531249999,
          "velocity": 0.7874015748031497,
          "duration": 0.16666649999999983
        },
        {
          "name": "E3",
          "midi": 52,
          "time": 4.635412031249999,
          "velocity": 0.7874015748031497,
          "duration": 0.16666649999999983
        },
        {
          "name": "B3",
          "midi": 59,
          "time": 4.8020785312499985,
          "velocity": 0.7874015748031497,
          "duration": 0.16666649999999983
        },
        {
          "name": "E3",
          "midi": 52,
          "time": 4.968745031249998,
          "velocity": 0.7874015748031497,
          "duration": 0.16666649999999983
        },
        {
          "name": "A3",
          "midi": 57,
          "time": 5.135411531249998,
          "velocity": 0.7874015748031497,
          "duration": 0.16666649999999983
        },
        {
          "name": "E3",
          "midi": 52,
          "time": 5.302078031249998,
          "velocity": 0.7874015748031497,
          "duration": 0.16666649999999983
        },
        {
          "name": "G3",
          "midi": 55,
          "time": 5.468744531249998,
          "velocity": 0.7874015748031497,
          "duration": 0.16666649999999983
        },
        {
          "name": "E3",
          "midi": 52,
          "time": 5.635411031249998,
          "velocity": 0.7874015748031497,
          "duration": 0.16666649999999983
        },
        {
          "name": "B3",
          "midi": 59,
          "time": 5.8020775312499975,
          "velocity": 0.7874015748031497,
          "duration": 0.16666649999999983
        },
        {
          "name": "E3",
          "midi": 52,
          "time": 5.968744031249997,
          "velocity": 0.7874015748031497,
          "duration": 0.16666649999999983
        },
        {
          "name": "E3",
          "midi": 52,
          "time": 6.135410531249997,
          "velocity": 0.7874015748031497,
          "duration": 0.16666649999999983
        },
        {
          "name": "A3",
          "midi": 57,
          "time": 6.302077031249997,
          "velocity": 0.7874015748031497,
          "duration": 0.16666649999999983
        },
        {
          "name": "E3",
          "midi": 52,
          "time": 6.468743531249997,
          "velocity": 0.7874015748031497,
          "duration": 0.16666649999999983
        },
        {
          "name": "E3",
          "midi": 52,
          "time": 6.635410031249997,
          "velocity": 0.7874015748031497,
          "duration": 0.16666649999999983
        },
        {
          "name": "B3",
          "midi": 59,
          "time": 6.8020765312499964,
          "velocity": 0.7874015748031497,
          "duration": 0.16666649999999983
        },
        {
          "name": "E3",
          "midi": 52,
          "time": 6.968743031249996,
          "velocity": 0.7874015748031497,
          "duration": 0.16666649999999983
        },
        {
          "name": "C4",
          "midi": 60,
          "time": 7.135409531249996,
          "velocity": 0.7874015748031497,
          "duration": 0.11111100000000018
        },
        {
          "name": "D4",
          "midi": 62,
          "time": 7.246520531249996,
          "velocity": 0.7874015748031497,
          "duration": 0.11111100000000018
        },
        {
          "name": "C4",
          "midi": 60,
          "time": 7.3576315312499965,
          "velocity": 0.7874015748031497,
          "duration": 0.11111100000000018
        },
        {
          "name": "B3",
          "midi": 59,
          "time": 7.468742531249997,
          "velocity": 0.7874015748031497,
          "duration": 0.11111100000000018
        },
        {
          "name": "C4",
          "midi": 60,
          "time": 7.579853531249997,
          "velocity": 0.7874015748031497,
          "duration": 0.11111100000000018
        },
        {
          "name": "B3",
          "midi": 59,
          "time": 7.690964531249997,
          "velocity": 0.7874015748031497,
          "duration": 0.11111100000000018
        },
        {
          "name": "A3",
          "midi": 57,
          "time": 7.802075531249997,
          "velocity": 0.7874015748031497,
          "duration": 0.11111100000000018
        },
        {
          "name": "B3",
          "midi": 59,
          "time": 7.913186531249997,
          "velocity": 0.7874015748031497,
          "duration": 0.11111100000000018
        },
        {
          "name": "A3",
          "midi": 57,
          "time": 8.024297531249998,
          "velocity": 0.7874015748031497,
          "duration": 0.1111109999999993
        },
        {
          "name": "G3",
          "midi": 55,
          "time": 8.135408531249997,
          "velocity": 0.7874015748031497,
          "duration": 0.33333299999999966
        },
        {
          "name": "B3",
          "midi": 59,
          "time": 8.468741531249997,
          "velocity": 0.7874015748031497,
          "duration": 0.16666649999999983
        },
        {
          "name": "B3",
          "midi": 59,
          "time": 8.468741531249997,
          "velocity": 0.7874015748031497,
          "duration": 0.16666649999999983
        },
        {
          "name": "E3",
          "midi": 52,
          "time": 8.635408031249996,
          "velocity": 0.7874015748031497,
          "duration": 0.16666649999999983
        },
        {
          "name": "E3",
          "midi": 52,
          "time": 8.802074531249996,
          "velocity": 0.7874015748031497,
          "duration": 0.16666649999999983
        },
        {
          "name": "A3",
          "midi": 57,
          "time": 8.968741031249996,
          "velocity": 0.7874015748031497,
          "duration": 0.16666649999999983
        },
        {
          "name": "E3",
          "midi": 52,
          "time": 9.135407531249996,
          "velocity": 0.7874015748031497,
          "duration": 0.16666649999999983
        },
        {
          "name": "E3",
          "midi": 52,
          "time": 9.302074031249996,
          "velocity": 0.7874015748031497,
          "duration": 0.16666649999999983
        },
        {
          "name": "B3",
          "midi": 59,
          "time": 9.468740531249995,
          "velocity": 0.7874015748031497,
          "duration": 0.16666649999999983
        },
        {
          "name": "E3",
          "midi": 52,
          "time": 9.635407031249995,
          "velocity": 0.7874015748031497,
          "duration": 0.16666649999999983
        },
        {
          "name": "C4",
          "midi": 60,
          "time": 9.802073531249995,
          "velocity": 0.7874015748031497,
          "duration": 0.16666649999999983
        },
        {
          "name": "E3",
          "midi": 52,
          "time": 9.968740031249995,
          "velocity": 0.7874015748031497,
          "duration": 0.16666649999999983
        },
        {
          "name": "B3",
          "midi": 59,
          "time": 10.135406531249995,
          "velocity": 0.7874015748031497,
          "duration": 0.16666649999999983
        },
        {
          "name": "E3",
          "midi": 52,
          "time": 10.302073031249995,
          "velocity": 0.7874015748031497,
          "duration": 0.16666649999999983
        },
        {
          "name": "A3",
          "midi": 57,
          "time": 10.468739531249994,
          "velocity": 0.7874015748031497,
          "duration": 0.16666649999999983
        },
        {
          "name": "E3",
          "midi": 52,
          "time": 10.635406031249994,
          "velocity": 0.7874015748031497,
          "duration": 0.16666649999999983
        },
        {
          "name": "G3",
          "midi": 55,
          "time": 10.802072531249994,
          "velocity": 0.7874015748031497,
          "duration": 0.16666649999999983
        },
        {
          "name": "E3",
          "midi": 52,
          "time": 10.968739031249994,
          "velocity": 0.7874015748031497,
          "duration": 0.16666649999999983
        },
        {
          "name": "F#3",
          "midi": 54,
          "time": 11.135405531249994,
          "velocity": 0.7874015748031497,
          "duration": 0.5833327500000003
        },
        {
          "name": "G3",
          "midi": 55,
          "time": 11.718738281249994,
          "velocity": 0.7874015748031497,
          "duration": 0.41666625000000046
        },
        {
          "name": "E3",
          "midi": 52,
          "time": 12.135404531249995,
          "velocity": 0.7874015748031497,
          "duration": 0.9999990000000007
        },
        {
          "name": "A3",
          "midi": 57,
          "time": 13.135403531249995,
          "velocity": 0.7874015748031497,
          "duration": 0.33333299999999966
        },
        {
          "name": "G3",
          "midi": 55,
          "time": 13.468736531249995,
          "velocity": 0.7874015748031497,
          "duration": 0.33333299999999966
        },
        {
          "name": "F#3",
          "midi": 54,
          "time": 13.802069531249995,
          "velocity": 0.7874015748031497,
          "duration": 0.6666659999999993
        },
        {
          "name": "G3",
          "midi": 55,
          "time": 14.468735531249994,
          "velocity": 0.7874015748031497,
          "duration": 0.33333299999999966
        },
        {
          "name": "E3",
          "midi": 52,
          "time": 14.802068531249994,
          "velocity": 0.7874015748031497,
          "duration": 0.9999990000000007
        },
        {
          "name": "D3",
          "midi": 50,
          "time": 15.802067531249994,
          "velocity": 0.7874015748031497,
          "duration": 0.5833327499999985
        },
        {
          "name": "B3",
          "midi": 59,
          "time": 16.468733531249992,
          "velocity": 0.7874015748031497,
          "duration": 0.1666665000000016
        },
        {
          "name": "B3",
          "midi": 59,
          "time": 16.468733531249992,
          "velocity": 0.7874015748031497,
          "duration": 0.1666665000000016
        },
        {
          "name": "E3",
          "midi": 52,
          "time": 16.635400031249993,
          "velocity": 0.7874015748031497,
          "duration": 0.1666665000000016
        },
        {
          "name": "E3",
          "midi": 52,
          "time": 16.802066531249995,
          "velocity": 0.7874015748031497,
          "duration": 0.1666665000000016
        },
        {
          "name": "A3",
          "midi": 57,
          "time": 16.968733031249997,
          "velocity": 0.7874015748031497,
          "duration": 0.1666665000000016
        },
        {
          "name": "E3",
          "midi": 52,
          "time": 17.13539953125,
          "velocity": 0.7874015748031497,
          "duration": 0.1666665000000016
        },
        {
          "name": "E3",
          "midi": 52,
          "time": 17.30206603125,
          "velocity": 0.7874015748031497,
          "duration": 0.1666665000000016
        },
        {
          "name": "B3",
          "midi": 59,
          "time": 17.46873253125,
          "velocity": 0.7874015748031497,
          "duration": 0.1666665000000016
        },
        {
          "name": "E3",
          "midi": 52,
          "time": 17.635399031250003,
          "velocity": 0.7874015748031497,
          "duration": 0.1666665000000016
        },
        {
          "name": "C4",
          "midi": 60,
          "time": 17.802065531250005,
          "velocity": 0.7874015748031497,
          "duration": 0.1666665000000016
        },
        {
          "name": "E3",
          "midi": 52,
          "time": 17.968732031250006,
          "velocity": 0.7874015748031497,
          "duration": 0.1666665000000016
        },
        {
          "name": "B3",
          "midi": 59,
          "time": 18.135398531250008,
          "velocity": 0.7874015748031497,
          "duration": 0.1666665000000016
        },
        {
          "name": "E3",
          "midi": 52,
          "time": 18.30206503125001,
          "velocity": 0.7874015748031497,
          "duration": 0.1666665000000016
        },
        {
          "name": "A3",
          "midi": 57,
          "time": 18.46873153125001,
          "velocity": 0.7874015748031497,
          "duration": 0.1666665000000016
        },
        {
          "name": "E3",
          "midi": 52,
          "time": 18.635398031250013,
          "velocity": 0.7874015748031497,
          "duration": 0.1666665000000016
        },
        {
          "name": "G3",
          "midi": 55,
          "time": 18.802064531250014,
          "velocity": 0.7874015748031497,
          "duration": 0.1666665000000016
        },
        {
          "name": "E3",
          "midi": 52,
          "time": 18.968731031250016,
          "velocity": 0.7874015748031497,
          "duration": 0.1666665000000016
        },
        {
          "name": "B3",
          "midi": 59,
          "time": 19.135397531250018,
          "velocity": 0.7874015748031497,
          "duration": 0.1666665000000016
        },
        {
          "name": "E3",
          "midi": 52,
          "time": 19.30206403125002,
          "velocity": 0.7874015748031497,
          "duration": 0.1666665000000016
        },
        {
          "name": "E3",
          "midi": 52,
          "time": 19.46873053125002,
          "velocity": 0.7874015748031497,
          "duration": 0.1666665000000016
        },
        {
          "name": "A3",
          "midi": 57,
          "time": 19.635397031250022,
          "velocity": 0.7874015748031497,
          "duration": 0.1666665000000016
        },
        {
          "name": "E3",
          "midi": 52,
          "time": 19.802063531250024,
          "velocity": 0.7874015748031497,
          "duration": 0.1666665000000016
        },
        {
          "name": "E3",
          "midi": 52,
          "time": 19.968730031250026,
          "velocity": 0.7874015748031497,
          "duration": 0.1666665000000016
        },
        {
          "name": "B3",
          "midi": 59,
          "time": 20.135396531250027,
          "velocity": 0.7874015748031497,
          "duration": 0.1666665000000016
        },
        {
          "name": "E3",
          "midi": 52,
          "time": 20.30206303125003,
          "velocity": 0.7874015748031497,
          "duration": 0.1666665000000016
        },
        {
          "name": "C4",
          "midi": 60,
          "time": 20.46872953125003,
          "velocity": 0.7874015748031497,
          "duration": 0.11111100000000107
        },
        {
          "name": "D4",
          "midi": 62,
          "time": 20.57984053125003,
          "velocity": 0.7874015748031497,
          "duration": 0.11111100000000107
        },
        {
          "name": "C4",
          "midi": 60,
          "time": 20.690951531250033,
          "velocity": 0.7874015748031497,
          "duration": 0.11111100000000107
        },
        {
          "name": "B3",
          "midi": 59,
          "time": 20.802062531250034,
          "velocity": 0.7874015748031497,
          "duration": 0.11111100000000107
        },
        {
          "name": "C4",
          "midi": 60,
          "time": 20.913173531250035,
          "velocity": 0.7874015748031497,
          "duration": 0.11111100000000107
        },
        {
          "name": "B3",
          "midi": 59,
          "time": 21.024284531250036,
          "velocity": 0.7874015748031497,
          "duration": 0.11111100000000107
        },
        {
          "name": "A3",
          "midi": 57,
          "time": 21.135395531250037,
          "velocity": 0.7874015748031497,
          "duration": 0.11111100000000107
        },
        {
          "name": "B3",
          "midi": 59,
          "time": 21.246506531250038,
          "velocity": 0.7874015748031497,
          "duration": 0.11111100000000107
        },
        {
          "name": "A3",
          "midi": 57,
          "time": 21.35761753125004,
          "velocity": 0.7874015748031497,
          "duration": 0.11111100000000107
        },
        {
          "name": "G3",
          "midi": 55,
          "time": 21.46872853125004,
          "velocity": 0.7874015748031497,
          "duration": 0.33333299999999966
        },
        {
          "name": "B3",
          "midi": 59,
          "time": 21.80206153125004,
          "velocity": 0.7874015748031497,
          "duration": 0.1666665000000016
        },
        {
          "name": "B3",
          "midi": 59,
          "time": 21.80206153125004,
          "velocity": 0.7874015748031497,
          "duration": 0.1666665000000016
        },
        {
          "name": "E3",
          "midi": 52,
          "time": 21.96872803125004,
          "velocity": 0.7874015748031497,
          "duration": 0.1666665000000016
        },
        {
          "name": "E3",
          "midi": 52,
          "time": 22.135394531250043,
          "velocity": 0.7874015748031497,
          "duration": 0.1666665000000016
        },
        {
          "name": "A3",
          "midi": 57,
          "time": 22.302061031250044,
          "velocity": 0.7874015748031497,
          "duration": 0.1666665000000016
        },
        {
          "name": "E3",
          "midi": 52,
          "time": 22.468727531250046,
          "velocity": 0.7874015748031497,
          "duration": 0.1666665000000016
        },
        {
          "name": "E3",
          "midi": 52,
          "time": 22.635394031250048,
          "velocity": 0.7874015748031497,
          "duration": 0.1666665000000016
        },
        {
          "name": "B3",
          "midi": 59,
          "time": 22.80206053125005,
          "velocity": 0.7874015748031497,
          "duration": 0.1666665000000016
        },
        {
          "name": "E3",
          "midi": 52,
          "time": 22.96872703125005,
          "velocity": 0.7874015748031497,
          "duration": 0.1666665000000016
        },
        {
          "name": "C4",
          "midi": 60,
          "time": 23.135393531250052,
          "velocity": 0.7874015748031497,
          "duration": 0.1666665000000016
        },
        {
          "name": "E3",
          "midi": 52,
          "time": 23.302060031250054,
          "velocity": 0.7874015748031497,
          "duration": 0.1666665000000016
        },
        {
          "name": "B3",
          "midi": 59,
          "time": 23.468726531250056,
          "velocity": 0.7874015748031497,
          "duration": 0.1666665000000016
        },
        {
          "name": "E3",
          "midi": 52,
          "time": 23.635393031250057,
          "velocity": 0.7874015748031497,
          "duration": 0.1666665000000016
        },
        {
          "name": "A3",
          "midi": 57,
          "time": 23.80205953125006,
          "velocity": 0.7874015748031497,
          "duration": 0.1666665000000016
        },
        {
          "name": "E3",
          "midi": 52,
          "time": 23.96872603125006,
          "velocity": 0.7874015748031497,
          "duration": 0.1666665000000016
        },
        {
          "name": "G3",
          "midi": 55,
          "time": 24.135392531250062,
          "velocity": 0.7874015748031497,
          "duration": 0.1666665000000016
        },
        {
          "name": "E3",
          "midi": 52,
          "time": 24.302059031250064,
          "velocity": 0.7874015748031497,
          "duration": 0.1666665000000016
        },
        {
          "name": "F#3",
          "midi": 54,
          "time": 24.468725531250065,
          "velocity": 0.7874015748031497,
          "duration": 0.5833327500000003
        },
        {
          "name": "G3",
          "midi": 55,
          "time": 25.052058281250066,
          "velocity": 0.7874015748031497,
          "duration": 0.4166662499999987
        },
        {
          "name": "E3",
          "midi": 52,
          "time": 25.468724531250064,
          "velocity": 0.7874015748031497,
          "duration": 0.999998999999999
        },
        {
          "name": "A3",
          "midi": 57,
          "time": 26.468723531250063,
          "velocity": 0.7874015748031497,
          "duration": 0.33333299999999966
        },
        {
          "name": "G3",
          "midi": 55,
          "time": 26.802056531250063,
          "velocity": 0.7874015748031497,
          "duration": 0.33333299999999966
        },
        {
          "name": "F#3",
          "midi": 54,
          "time": 27.135389531250063,
          "velocity": 0.7874015748031497,
          "duration": 0.6666659999999993
        },
        {
          "name": "G3",
          "midi": 55,
          "time": 27.802055531250062,
          "velocity": 0.7874015748031497,
          "duration": 0.33333299999999966
        },
        {
          "name": "D3",
          "midi": 50,
          "time": 28.13538853125006,
          "velocity": 0.7874015748031497,
          "duration": 0.999998999999999
        },
        {
          "name": "B2",
          "midi": 47,
          "time": 29.13538753125006,
          "velocity": 0.7874015748031497,
          "duration": 0.6666659999999993
        },
        {
          "name": "F#3",
          "midi": 54,
          "time": 29.13538753125006,
          "velocity": 0.7874015748031497,
          "duration": 0.6666659999999993
        },
        {
          "name": "E2",
          "midi": 40,
          "time": 29.80205353125006,
          "velocity": 0.7874015748031497,
          "duration": 2.6666639999999973
        },
        {
          "name": "B2",
          "midi": 47,
          "time": 29.80205353125006,
          "velocity": 0.7874015748031497,
          "duration": 2.6666639999999973
        },
        {
          "name": "E3",
          "midi": 52,
          "time": 32.46871753125006,
          "velocity": 0.7874015748031497,
          "duration": 0.24999975000000063
        },
        {
          "name": "B3",
          "midi": 59,
          "time": 32.46871753125006,
          "velocity": 0.7874015748031497,
          "duration": 0.16666649999999805
        },
        {
          "name": "E3",
          "midi": 52,
          "time": 32.635384031250055,
          "velocity": 0.7874015748031497,
          "duration": 0.08333325000000258
        },
        {
          "name": "E3",
          "midi": 52,
          "time": 32.71871728125006,
          "velocity": 0.7874015748031497,
          "duration": 0.08333325000000258
        },
        {
          "name": "E3",
          "midi": 52,
          "time": 32.80205053125006,
          "velocity": 0.7874015748031497,
          "duration": 0.16666649999999805
        },
        {
          "name": "E3",
          "midi": 52,
          "time": 32.96871703125006,
          "velocity": 0.7874015748031497,
          "duration": 0.08333325000000258
        },
        {
          "name": "E3",
          "midi": 52,
          "time": 33.05205028125006,
          "velocity": 0.7874015748031497,
          "duration": 0.08333325000000258
        },
        {
          "name": "E3",
          "midi": 52,
          "time": 33.13538353125006,
          "velocity": 0.7874015748031497,
          "duration": 0.16666649999999805
        },
        {
          "name": "E3",
          "midi": 52,
          "time": 33.30205003125006,
          "velocity": 0.7874015748031497,
          "duration": 0.08333325000000258
        },
        {
          "name": "E3",
          "midi": 52,
          "time": 33.385383281250064,
          "velocity": 0.7874015748031497,
          "duration": 0.08333325000000258
        },
        {
          "name": "E3",
          "midi": 52,
          "time": 33.46871653125007,
          "velocity": 0.7874015748031497,
          "duration": 0.16666649999999805
        },
        {
          "name": "E3",
          "midi": 52,
          "time": 33.635383031250065,
          "velocity": 0.7874015748031497,
          "duration": 0.08333325000000258
        },
        {
          "name": "E3",
          "midi": 52,
          "time": 33.71871628125007,
          "velocity": 0.7874015748031497,
          "duration": 0.08333325000000258
        },
        {
          "name": "C3",
          "midi": 48,
          "time": 33.80204953125007,
          "velocity": 0.7874015748031497,
          "duration": 0.24999975000000063
        },
        {
          "name": "G3",
          "midi": 55,
          "time": 33.80204953125007,
          "velocity": 0.7874015748031497,
          "duration": 0.16666649999999805
        },
        {
          "name": "C3",
          "midi": 48,
          "time": 33.96871603125007,
          "velocity": 0.7874015748031497,
          "duration": 0.08333325000000258
        },
        {
          "name": "C3",
          "midi": 48,
          "time": 34.05204928125007,
          "velocity": 0.7874015748031497,
          "duration": 0.08333325000000258
        },
        {
          "name": "C3",
          "midi": 48,
          "time": 34.13538253125007,
          "velocity": 0.7874015748031497,
          "duration": 0.16666649999999805
        },
        {
          "name": "C3",
          "midi": 48,
          "time": 34.30204903125007,
          "velocity": 0.7874015748031497,
          "duration": 0.08333325000000258
        },
        {
          "name": "C3",
          "midi": 48,
          "time": 34.385382281250074,
          "velocity": 0.7874015748031497,
          "duration": 0.08333325000000258
        },
        {
          "name": "C3",
          "midi": 48,
          "time": 34.468715531250076,
          "velocity": 0.7874015748031497,
          "duration": 0.16666649999999805
        },
        {
          "name": "C3",
          "midi": 48,
          "time": 34.635382031250074,
          "velocity": 0.7874015748031497,
          "duration": 0.08333325000000258
        },
        {
          "name": "C3",
          "midi": 48,
          "time": 34.71871528125008,
          "velocity": 0.7874015748031497,
          "duration": 0.08333325000000258
        },
        {
          "name": "C3",
          "midi": 48,
          "time": 34.80204853125008,
          "velocity": 0.7874015748031497,
          "duration": 0.16666649999999805
        },
        {
          "name": "C3",
          "midi": 48,
          "time": 34.96871503125008,
          "velocity": 0.7874015748031497,
          "duration": 0.08333325000000258
        },
        {
          "name": "C3",
          "midi": 48,
          "time": 35.05204828125008,
          "velocity": 0.7874015748031497,
          "duration": 0.08333325000000258
        },
        {
          "name": "E3",
          "midi": 52,
          "time": 35.13538153125008,
          "velocity": 0.7874015748031497,
          "duration": 0.24999975000000063
        },
        {
          "name": "B3",
          "midi": 59,
          "time": 35.13538153125008,
          "velocity": 0.7874015748031497,
          "duration": 0.16666649999999805
        },
        {
          "name": "E3",
          "midi": 52,
          "time": 35.30204803125008,
          "velocity": 0.7874015748031497,
          "duration": 0.08333325000000258
        },
        {
          "name": "E3",
          "midi": 52,
          "time": 35.38538128125008,
          "velocity": 0.7874015748031497,
          "duration": 0.08333325000000258
        },
        {
          "name": "E3",
          "midi": 52,
          "time": 35.468714531250086,
          "velocity": 0.7874015748031497,
          "duration": 0.16666649999999805
        },
        {
          "name": "E3",
          "midi": 52,
          "time": 35.635381031250084,
          "velocity": 0.7874015748031497,
          "duration": 0.08333325000000258
        },
        {
          "name": "E3",
          "midi": 52,
          "time": 35.71871428125009,
          "velocity": 0.7874015748031497,
          "duration": 0.08333325000000258
        },
        {
          "name": "E3",
          "midi": 52,
          "time": 35.80204753125009,
          "velocity": 0.7874015748031497,
          "duration": 0.16666649999999805
        },
        {
          "name": "E3",
          "midi": 52,
          "time": 35.96871403125009,
          "velocity": 0.7874015748031497,
          "duration": 0.08333325000000258
        },
        {
          "name": "E3",
          "midi": 52,
          "time": 36.05204728125009,
          "velocity": 0.7874015748031497,
          "duration": 0.08333325000000258
        },
        {
          "name": "E3",
          "midi": 52,
          "time": 36.13538053125009,
          "velocity": 0.7874015748031497,
          "duration": 0.16666649999999805
        },
        {
          "name": "E3",
          "midi": 52,
          "time": 36.30204703125009,
          "velocity": 0.7874015748031497,
          "duration": 0.08333325000000258
        },
        {
          "name": "E3",
          "midi": 52,
          "time": 36.38538028125009,
          "velocity": 0.7874015748031497,
          "duration": 0.08333325000000258
        },
        {
          "name": "C3",
          "midi": 48,
          "time": 36.468713531250096,
          "velocity": 0.7874015748031497,
          "duration": 0.6666659999999993
        },
        {
          "name": "G3",
          "midi": 55,
          "time": 36.468713531250096,
          "velocity": 0.7874015748031497,
          "duration": 0.6666659999999993
        },
        {
          "name": "A2",
          "midi": 45,
          "time": 37.135379531250095,
          "velocity": 0.7874015748031497,
          "duration": 0.3333330000000032
        },
        {
          "name": "E3",
          "midi": 52,
          "time": 37.135379531250095,
          "velocity": 0.7874015748031497,
          "duration": 0.3333330000000032
        },
        {
          "name": "D3",
          "midi": 50,
          "time": 37.4687125312501,
          "velocity": 0.7874015748031497,
          "duration": 0.3333330000000032
        },
        {
          "name": "A3",
          "midi": 57,
          "time": 37.4687125312501,
          "velocity": 0.7874015748031497,
          "duration": 0.3333330000000032
        },
        {
          "name": "E3",
          "midi": 52,
          "time": 37.8020455312501,
          "velocity": 0.7874015748031497,
          "duration": 0.24999975000000063
        },
        {
          "name": "B3",
          "midi": 59,
          "time": 37.8020455312501,
          "velocity": 0.7874015748031497,
          "duration": 0.16666649999999805
        },
        {
          "name": "E3",
          "midi": 52,
          "time": 37.9687120312501,
          "velocity": 0.7874015748031497,
          "duration": 0.08333325000000258
        },
        {
          "name": "E3",
          "midi": 52,
          "time": 38.0520452812501,
          "velocity": 0.7874015748031497,
          "duration": 0.08333325000000258
        },
        {
          "name": "E3",
          "midi": 52,
          "time": 38.135378531250105,
          "velocity": 0.7874015748031497,
          "duration": 0.16666649999999805
        },
        {
          "name": "E3",
          "midi": 52,
          "time": 38.3020450312501,
          "velocity": 0.7874015748031497,
          "duration": 0.08333325000000258
        },
        {
          "name": "E3",
          "midi": 52,
          "time": 38.385378281250105,
          "velocity": 0.7874015748031497,
          "duration": 0.08333325000000258
        },
        {
          "name": "E3",
          "midi": 52,
          "time": 38.46871153125011,
          "velocity": 0.7874015748031497,
          "duration": 0.16666649999999805
        },
        {
          "name": "E3",
          "midi": 52,
          "time": 38.635378031250106,
          "velocity": 0.7874015748031497,
          "duration": 0.08333325000000258
        },
        {
          "name": "E3",
          "midi": 52,
          "time": 38.71871128125011,
          "velocity": 0.7874015748031497,
          "duration": 0.08333325000000258
        },
        {
          "name": "E3",
          "midi": 52,
          "time": 38.80204453125011,
          "velocity": 0.7874015748031497,
          "duration": 0.16666649999999805
        },
        {
          "name": "E3",
          "midi": 52,
          "time": 38.96871103125011,
          "velocity": 0.7874015748031497,
          "duration": 0.08333325000000258
        },
        {
          "name": "E3",
          "midi": 52,
          "time": 39.05204428125011,
          "velocity": 0.7874015748031497,
          "duration": 0.08333325000000258
        },
        {
          "name": "C3",
          "midi": 48,
          "time": 39.135377531250114,
          "velocity": 0.7874015748031497,
          "duration": 0.24999975000000063
        },
        {
          "name": "G3",
          "midi": 55,
          "time": 39.135377531250114,
          "velocity": 0.7874015748031497,
          "duration": 0.16666649999999805
        },
        {
          "name": "C3",
          "midi": 48,
          "time": 39.30204403125011,
          "velocity": 0.7874015748031497,
          "duration": 0.08333325000000258
        },
        {
          "name": "C3",
          "midi": 48,
          "time": 39.385377281250115,
          "velocity": 0.7874015748031497,
          "duration": 0.08333325000000258
        },
        {
          "name": "C3",
          "midi": 48,
          "time": 39.46871053125012,
          "velocity": 0.7874015748031497,
          "duration": 0.16666649999999805
        },
        {
          "name": "C3",
          "midi": 48,
          "time": 39.635377031250115,
          "velocity": 0.7874015748031497,
          "duration": 0.08333325000000258
        },
        {
          "name": "C3",
          "midi": 48,
          "time": 39.71871028125012,
          "velocity": 0.7874015748031497,
          "duration": 0.08333325000000258
        },
        {
          "name": "C3",
          "midi": 48,
          "time": 39.80204353125012,
          "velocity": 0.7874015748031497,
          "duration": 0.16666649999999805
        },
        {
          "name": "C3",
          "midi": 48,
          "time": 39.96871003125012,
          "velocity": 0.7874015748031497,
          "duration": 0.08333325000000258
        },
        {
          "name": "C3",
          "midi": 48,
          "time": 40.05204328125012,
          "velocity": 0.7874015748031497,
          "duration": 0.08333325000000258
        },
        {
          "name": "C3",
          "midi": 48,
          "time": 40.135376531250124,
          "velocity": 0.7874015748031497,
          "duration": 0.16666649999999805
        },
        {
          "name": "C3",
          "midi": 48,
          "time": 40.30204303125012,
          "velocity": 0.7874015748031497,
          "duration": 0.08333325000000258
        },
        {
          "name": "C3",
          "midi": 48,
          "time": 40.385376281250124,
          "velocity": 0.7874015748031497,
          "duration": 0.08333325000000258
        },
        {
          "name": "E3",
          "midi": 52,
          "time": 40.46870953125013,
          "velocity": 0.7874015748031497,
          "duration": 0.24999975000000063
        },
        {
          "name": "B3",
          "midi": 59,
          "time": 40.46870953125013,
          "velocity": 0.7874015748031497,
          "duration": 0.16666649999999805
        },
        {
          "name": "E3",
          "midi": 52,
          "time": 40.635376031250125,
          "velocity": 0.7874015748031497,
          "duration": 0.08333325000000258
        },
        {
          "name": "E3",
          "midi": 52,
          "time": 40.71870928125013,
          "velocity": 0.7874015748031497,
          "duration": 0.08333325000000258
        },
        {
          "name": "E3",
          "midi": 52,
          "time": 40.80204253125013,
          "velocity": 0.7874015748031497,
          "duration": 0.16666649999999805
        },
        {
          "name": "E3",
          "midi": 52,
          "time": 40.96870903125013,
          "velocity": 0.7874015748031497,
          "duration": 0.08333325000000258
        },
        {
          "name": "E3",
          "midi": 52,
          "time": 41.05204228125013,
          "velocity": 0.7874015748031497,
          "duration": 0.08333325000000258
        },
        {
          "name": "E3",
          "midi": 52,
          "time": 41.13537553125013,
          "velocity": 0.7874015748031497,
          "duration": 0.16666649999999805
        },
        {
          "name": "E3",
          "midi": 52,
          "time": 41.30204203125013,
          "velocity": 0.7874015748031497,
          "duration": 0.08333325000000258
        },
        {
          "name": "E3",
          "midi": 52,
          "time": 41.385375281250134,
          "velocity": 0.7874015748031497,
          "duration": 0.08333325000000258
        },
        {
          "name": "E3",
          "midi": 52,
          "time": 41.46870853125014,
          "velocity": 0.7874015748031497,
          "duration": 0.16666649999999805
        },
        {
          "name": "E3",
          "midi": 52,
          "time": 41.635375031250135,
          "velocity": 0.7874015748031497,
          "duration": 0.08333325000000258
        },
        {
          "name": "E3",
          "midi": 52,
          "time": 41.71870828125014,
          "velocity": 0.7874015748031497,
          "duration": 0.08333325000000258
        },
        {
          "name": "C3",
          "midi": 48,
          "time": 41.80204153125014,
          "velocity": 0.7874015748031497,
          "duration": 0.6666659999999993
        },
        {
          "name": "G3",
          "midi": 55,
          "time": 41.80204153125014,
          "velocity": 0.7874015748031497,
          "duration": 0.6666659999999993
        },
        {
          "name": "C3",
          "midi": 48,
          "time": 42.46870753125014,
          "velocity": 0.7874015748031497,
          "duration": 0.3333330000000032
        },
        {
          "name": "G3",
          "midi": 55,
          "time": 42.46870753125014,
          "velocity": 0.7874015748031497,
          "duration": 0.3333330000000032
        },
        {
          "name": "D3",
          "midi": 50,
          "time": 42.80204053125014,
          "velocity": 0.7874015748031497,
          "duration": 0.3333330000000032
        },
        {
          "name": "A3",
          "midi": 57,
          "time": 42.80204053125014,
          "velocity": 0.7874015748031497,
          "duration": 0.3333330000000032
        },
        {
          "name": "E3",
          "midi": 52,
          "time": 43.135373531250146,
          "velocity": 0.7874015748031497,
          "duration": 0.24999975000000063
        },
        {
          "name": "B3",
          "midi": 59,
          "time": 43.135373531250146,
          "velocity": 0.7874015748031497,
          "duration": 0.16666649999999805
        },
        {
          "name": "E3",
          "midi": 52,
          "time": 43.302040031250144,
          "velocity": 0.7874015748031497,
          "duration": 0.08333325000000258
        },
        {
          "name": "E3",
          "midi": 52,
          "time": 43.385373281250146,
          "velocity": 0.7874015748031497,
          "duration": 0.08333325000000258
        },
        {
          "name": "E3",
          "midi": 52,
          "time": 43.46870653125015,
          "velocity": 0.7874015748031497,
          "duration": 0.16666649999999805
        },
        {
          "name": "E3",
          "midi": 52,
          "time": 43.63537303125015,
          "velocity": 0.7874015748031497,
          "duration": 0.08333325000000258
        },
        {
          "name": "E3",
          "midi": 52,
          "time": 43.71870628125015,
          "velocity": 0.7874015748031497,
          "duration": 0.08333325000000258
        },
        {
          "name": "E3",
          "midi": 52,
          "time": 43.80203953125015,
          "velocity": 0.7874015748031497,
          "duration": 0.16666649999999805
        },
        {
          "name": "E3",
          "midi": 52,
          "time": 43.96870603125015,
          "velocity": 0.7874015748031497,
          "duration": 0.08333325000000258
        },
        {
          "name": "E3",
          "midi": 52,
          "time": 44.05203928125015,
          "velocity": 0.7874015748031497,
          "duration": 0.08333325000000258
        },
        {
          "name": "E3",
          "midi": 52,
          "time": 44.135372531250155,
          "velocity": 0.7874015748031497,
          "duration": 0.16666649999999805
        },
        {
          "name": "E3",
          "midi": 52,
          "time": 44.30203903125015,
          "velocity": 0.7874015748031497,
          "duration": 0.08333325000000258
        },
        {
          "name": "E3",
          "midi": 52,
          "time": 44.385372281250156,
          "velocity": 0.7874015748031497,
          "duration": 0.08333325000000258
        },
        {
          "name": "C3",
          "midi": 48,
          "time": 44.46870553125016,
          "velocity": 0.7874015748031497,
          "duration": 0.24999975000000063
        },
        {
          "name": "G3",
          "midi": 55,
          "time": 44.46870553125016,
          "velocity": 0.7874015748031497,
          "duration": 0.16666649999999805
        },
        {
          "name": "C3",
          "midi": 48,
          "time": 44.63537203125016,
          "velocity": 0.7874015748031497,
          "duration": 0.08333325000000258
        },
        {
          "name": "C3",
          "midi": 48,
          "time": 44.71870528125016,
          "velocity": 0.7874015748031497,
          "duration": 0.08333325000000258
        },
        {
          "name": "C3",
          "midi": 48,
          "time": 44.80203853125016,
          "velocity": 0.7874015748031497,
          "duration": 0.16666649999999805
        },
        {
          "name": "C3",
          "midi": 48,
          "time": 44.96870503125016,
          "velocity": 0.7874015748031497,
          "duration": 0.08333325000000258
        },
        {
          "name": "C3",
          "midi": 48,
          "time": 45.05203828125016,
          "velocity": 0.7874015748031497,
          "duration": 0.08333325000000258
        },
        {
          "name": "C3",
          "midi": 48,
          "time": 45.135371531250165,
          "velocity": 0.7874015748031497,
          "duration": 0.16666649999999805
        },
        {
          "name": "C3",
          "midi": 48,
          "time": 45.30203803125016,
          "velocity": 0.7874015748031497,
          "duration": 0.08333325000000258
        },
        {
          "name": "C3",
          "midi": 48,
          "time": 45.385371281250166,
          "velocity": 0.7874015748031497,
          "duration": 0.08333325000000258
        },
        {
          "name": "C3",
          "midi": 48,
          "time": 45.46870453125017,
          "velocity": 0.7874015748031497,
          "duration": 0.16666649999999805
        },
        {
          "name": "C3",
          "midi": 48,
          "time": 45.635371031250166,
          "velocity": 0.7874015748031497,
          "duration": 0.08333325000000258
        },
        {
          "name": "C3",
          "midi": 48,
          "time": 45.71870428125017,
          "velocity": 0.7874015748031497,
          "duration": 0.08333325000000258
        },
        {
          "name": "E3",
          "midi": 52,
          "time": 45.80203753125017,
          "velocity": 0.7874015748031497,
          "duration": 0.24999975000000063
        },
        {
          "name": "B3",
          "midi": 59,
          "time": 45.80203753125017,
          "velocity": 0.7874015748031497,
          "duration": 0.16666649999999805
        },
        {
          "name": "E3",
          "midi": 52,
          "time": 45.96870403125017,
          "velocity": 0.7874015748031497,
          "duration": 0.08333325000000258
        },
        {
          "name": "E3",
          "midi": 52,
          "time": 46.05203728125017,
          "velocity": 0.7874015748031497,
          "duration": 0.08333325000000258
        },
        {
          "name": "E3",
          "midi": 52,
          "time": 46.135370531250175,
          "velocity": 0.7874015748031497,
          "duration": 0.16666649999999805
        },
        {
          "name": "E3",
          "midi": 52,
          "time": 46.30203703125017,
          "velocity": 0.7874015748031497,
          "duration": 0.08333325000000258
        },
        {
          "name": "E3",
          "midi": 52,
          "time": 46.385370281250175,
          "velocity": 0.7874015748031497,
          "duration": 0.08333325000000258
        },
        {
          "name": "E3",
          "midi": 52,
          "time": 46.46870353125018,
          "velocity": 0.7874015748031497,
          "duration": 0.16666649999999805
        },
        {
          "name": "E3",
          "midi": 52,
          "time": 46.635370031250176,
          "velocity": 0.7874015748031497,
          "duration": 0.08333325000000258
        },
        {
          "name": "E3",
          "midi": 52,
          "time": 46.71870328125018,
          "velocity": 0.7874015748031497,
          "duration": 0.08333325000000258
        },
        {
          "name": "E3",
          "midi": 52,
          "time": 46.80203653125018,
          "velocity": 0.7874015748031497,
          "duration": 0.16666649999999805
        },
        {
          "name": "E3",
          "midi": 52,
          "time": 46.96870303125018,
          "velocity": 0.7874015748031497,
          "duration": 0.08333325000000258
        },
        {
          "name": "E3",
          "midi": 52,
          "time": 47.05203628125018,
          "velocity": 0.7874015748031497,
          "duration": 0.08333325000000258
        },
        {
          "name": "C3",
          "midi": 48,
          "time": 47.135369531250184,
          "velocity": 0.7874015748031497,
          "duration": 0.6666659999999993
        },
        {
          "name": "G3",
          "midi": 55,
          "time": 47.135369531250184,
          "velocity": 0.7874015748031497,
          "duration": 0.6666659999999993
        },
        {
          "name": "A2",
          "midi": 45,
          "time": 47.80203553125018,
          "velocity": 0.7874015748031497,
          "duration": 0.3333330000000032
        },
        {
          "name": "E3",
          "midi": 52,
          "time": 47.80203553125018,
          "velocity": 0.7874015748031497,
          "duration": 0.3333330000000032
        },
        {
          "name": "D3",
          "midi": 50,
          "time": 48.13536853125019,
          "velocity": 0.7874015748031497,
          "duration": 0.3333330000000032
        },
        {
          "name": "A3",
          "midi": 57,
          "time": 48.13536853125019,
          "velocity": 0.7874015748031497,
          "duration": 0.3333330000000032
        },
        {
          "name": "E3",
          "midi": 52,
          "time": 48.46870153125019,
          "velocity": 0.7874015748031497,
          "duration": 0.24999975000000063
        },
        {
          "name": "B3",
          "midi": 59,
          "time": 48.46870153125019,
          "velocity": 0.7874015748031497,
          "duration": 0.16666649999999805
        },
        {
          "name": "E3",
          "midi": 52,
          "time": 48.63536803125019,
          "velocity": 0.7874015748031497,
          "duration": 0.08333325000000258
        },
        {
          "name": "E3",
          "midi": 52,
          "time": 48.71870128125019,
          "velocity": 0.7874015748031497,
          "duration": 0.08333325000000258
        },
        {
          "name": "E3",
          "midi": 52,
          "time": 48.80203453125019,
          "velocity": 0.7874015748031497,
          "duration": 0.16666649999999805
        },
        {
          "name": "E3",
          "midi": 52,
          "time": 48.96870103125019,
          "velocity": 0.7874015748031497,
          "duration": 0.08333325000000258
        },
        {
          "name": "E3",
          "midi": 52,
          "time": 49.052034281250194,
          "velocity": 0.7874015748031497,
          "duration": 0.08333325000000258
        },
        {
          "name": "E3",
          "midi": 52,
          "time": 49.135367531250196,
          "velocity": 0.7874015748031497,
          "duration": 0.16666649999999805
        },
        {
          "name": "E3",
          "midi": 52,
          "time": 49.302034031250194,
          "velocity": 0.7874015748031497,
          "duration": 0.08333325000000258
        },
        {
          "name": "E3",
          "midi": 52,
          "time": 49.3853672812502,
          "velocity": 0.7874015748031497,
          "duration": 0.08333325000000258
        },
        {
          "name": "E3",
          "midi": 52,
          "time": 49.4687005312502,
          "velocity": 0.7874015748031497,
          "duration": 0.16666649999999805
        },
        {
          "name": "E3",
          "midi": 52,
          "time": 49.6353670312502,
          "velocity": 0.7874015748031497,
          "duration": 0.08333325000000258
        },
        {
          "name": "E3",
          "midi": 52,
          "time": 49.7187002812502,
          "velocity": 0.7874015748031497,
          "duration": 0.08333325000000258
        },
        {
          "name": "C3",
          "midi": 48,
          "time": 49.8020335312502,
          "velocity": 0.7874015748031497,
          "duration": 0.24999975000000063
        },
        {
          "name": "G3",
          "midi": 55,
          "time": 49.8020335312502,
          "velocity": 0.7874015748031497,
          "duration": 0.16666649999999805
        },
        {
          "name": "C3",
          "midi": 48,
          "time": 49.9687000312502,
          "velocity": 0.7874015748031497,
          "duration": 0.08333325000000258
        },
        {
          "name": "C3",
          "midi": 48,
          "time": 50.0520332812502,
          "velocity": 0.7874015748031497,
          "duration": 0.08333325000000258
        },
        {
          "name": "C3",
          "midi": 48,
          "time": 50.135366531250206,
          "velocity": 0.7874015748031497,
          "duration": 0.16666649999999805
        },
        {
          "name": "C3",
          "midi": 48,
          "time": 50.302033031250204,
          "velocity": 0.7874015748031497,
          "duration": 0.08333325000000258
        },
        {
          "name": "C3",
          "midi": 48,
          "time": 50.38536628125021,
          "velocity": 0.7874015748031497,
          "duration": 0.08333325000000258
        },
        {
          "name": "C3",
          "midi": 48,
          "time": 50.46869953125021,
          "velocity": 0.7874015748031497,
          "duration": 0.16666649999999805
        },
        {
          "name": "C3",
          "midi": 48,
          "time": 50.63536603125021,
          "velocity": 0.7874015748031497,
          "duration": 0.08333325000000258
        },
        {
          "name": "C3",
          "midi": 48,
          "time": 50.71869928125021,
          "velocity": 0.7874015748031497,
          "duration": 0.08333325000000258
        },
        {
          "name": "C3",
          "midi": 48,
          "time": 50.80203253125021,
          "velocity": 0.7874015748031497,
          "duration": 0.16666649999999805
        },
        {
          "name": "C3",
          "midi": 48,
          "time": 50.96869903125021,
          "velocity": 0.7874015748031497,
          "duration": 0.08333325000000258
        },
        {
          "name": "C3",
          "midi": 48,
          "time": 51.05203228125021,
          "velocity": 0.7874015748031497,
          "duration": 0.08333325000000258
        },
        {
          "name": "E3",
          "midi": 52,
          "time": 51.135365531250216,
          "velocity": 0.7874015748031497,
          "duration": 0.24999975000000063
        },
        {
          "name": "B3",
          "midi": 59,
          "time": 51.135365531250216,
          "velocity": 0.7874015748031497,
          "duration": 0.16666649999999805
        },
        {
          "name": "E3",
          "midi": 52,
          "time": 51.302032031250214,
          "velocity": 0.7874015748031497,
          "duration": 0.08333325000000258
        },
        {
          "name": "E3",
          "midi": 52,
          "time": 51.385365281250216,
          "velocity": 0.7874015748031497,
          "duration": 0.08333325000000258
        },
        {
          "name": "E3",
          "midi": 52,
          "time": 51.46869853125022,
          "velocity": 0.7874015748031497,
          "duration": 0.16666649999999805
        },
        {
          "name": "E3",
          "midi": 52,
          "time": 51.63536503125022,
          "velocity": 0.7874015748031497,
          "duration": 0.08333325000000258
        },
        {
          "name": "E3",
          "midi": 52,
          "time": 51.71869828125022,
          "velocity": 0.7874015748031497,
          "duration": 0.08333325000000258
        },
        {
          "name": "E3",
          "midi": 52,
          "time": 51.80203153125022,
          "velocity": 0.7874015748031497,
          "duration": 0.16666649999999805
        },
        {
          "name": "E3",
          "midi": 52,
          "time": 51.96869803125022,
          "velocity": 0.7874015748031497,
          "duration": 0.08333325000000258
        },
        {
          "name": "E3",
          "midi": 52,
          "time": 52.05203128125022,
          "velocity": 0.7874015748031497,
          "duration": 0.08333325000000258
        },
        {
          "name": "E3",
          "midi": 52,
          "time": 52.135364531250225,
          "velocity": 0.7874015748031497,
          "duration": 0.16666649999999805
        },
        {
          "name": "E3",
          "midi": 52,
          "time": 52.30203103125022,
          "velocity": 0.7874015748031497,
          "duration": 0.08333325000000258
        },
        {
          "name": "E3",
          "midi": 52,
          "time": 52.385364281250226,
          "velocity": 0.7874015748031497,
          "duration": 0.08333325000000258
        },
        {
          "name": "C3",
          "midi": 48,
          "time": 52.46869753125023,
          "velocity": 0.7874015748031497,
          "duration": 0.6666659999999993
        },
        {
          "name": "G3",
          "midi": 55,
          "time": 52.46869753125023,
          "velocity": 0.7874015748031497,
          "duration": 0.6666659999999993
        },
        {
          "name": "C3",
          "midi": 48,
          "time": 53.13536353125023,
          "velocity": 0.7874015748031497,
          "duration": 0.3333330000000032
        },
        {
          "name": "G3",
          "midi": 55,
          "time": 53.13536353125023,
          "velocity": 0.7874015748031497,
          "duration": 0.3333330000000032
        },
        {
          "name": "D3",
          "midi": 50,
          "time": 53.46869653125023,
          "velocity": 0.7874015748031497,
          "duration": 0.3333330000000032
        },
        {
          "name": "A3",
          "midi": 57,
          "time": 53.46869653125023,
          "velocity": 0.7874015748031497,
          "duration": 0.3333330000000032
        },
        {
          "name": "E3",
          "midi": 52,
          "time": 53.802029531250234,
          "velocity": 0.7874015748031497,
          "duration": 0.16666649999999805
        },
        {
          "name": "E3",
          "midi": 52,
          "time": 53.96869603125023,
          "velocity": 0.7874015748031497,
          "duration": 0.16666649999999805
        },
        {
          "name": "D3",
          "midi": 50,
          "time": 54.13536253125023,
          "velocity": 0.7874015748031497,
          "duration": 0.16666649999999805
        },
        {
          "name": "G3",
          "midi": 55,
          "time": 54.30202903125023,
          "velocity": 0.7874015748031497,
          "duration": 0.16666649999999805
        },
        {
          "name": "F#3",
          "midi": 54,
          "time": 54.468695531250226,
          "velocity": 0.7874015748031497,
          "duration": 0.16666649999999805
        },
        {
          "name": "F#3",
          "midi": 54,
          "time": 54.635362031250224,
          "velocity": 0.7874015748031497,
          "duration": 0.16666649999999805
        },
        {
          "name": "E3",
          "midi": 52,
          "time": 54.80202853125022,
          "velocity": 0.7874015748031497,
          "duration": 0.16666649999999805
        },
        {
          "name": "D3",
          "midi": 50,
          "time": 54.96869503125022,
          "velocity": 0.7874015748031497,
          "duration": 0.16666649999999805
        },
        {
          "name": "E3",
          "midi": 52,
          "time": 55.13536153125022,
          "velocity": 0.7874015748031497,
          "duration": 0.16666649999999805
        },
        {
          "name": "E3",
          "midi": 52,
          "time": 55.30202803125022,
          "velocity": 0.7874015748031497,
          "duration": 0.16666649999999805
        },
        {
          "name": "D3",
          "midi": 50,
          "time": 55.468694531250215,
          "velocity": 0.7874015748031497,
          "duration": 0.16666649999999805
        },
        {
          "name": "G3",
          "midi": 55,
          "time": 55.63536103125021,
          "velocity": 0.7874015748031497,
          "duration": 0.16666649999999805
        },
        {
          "name": "F#3",
          "midi": 54,
          "time": 55.80202753125021,
          "velocity": 0.7874015748031497,
          "duration": 0.16666649999999805
        },
        {
          "name": "F#3",
          "midi": 54,
          "time": 55.96869403125021,
          "velocity": 0.7874015748031497,
          "duration": 0.16666649999999805
        },
        {
          "name": "E3",
          "midi": 52,
          "time": 56.13536053125021,
          "velocity": 0.7874015748031497,
          "duration": 0.3333330000000032
        },
        {
          "name": "A3",
          "midi": 57,
          "time": 56.46869353125021,
          "velocity": 0.7874015748031497,
          "duration": 0.16666649999999805
        },
        {
          "name": "A3",
          "midi": 57,
          "time": 56.63536003125021,
          "velocity": 0.7874015748031497,
          "duration": 0.16666649999999805
        },
        {
          "name": "G3",
          "midi": 55,
          "time": 56.802026531250206,
          "velocity": 0.7874015748031497,
          "duration": 0.16666649999999805
        },
        {
          "name": "C4",
          "midi": 60,
          "time": 56.968693031250204,
          "velocity": 0.7874015748031497,
          "duration": 0.16666649999999805
        },
        {
          "name": "B3",
          "midi": 59,
          "time": 57.1353595312502,
          "velocity": 0.7874015748031497,
          "duration": 0.16666649999999805
        },
        {
          "name": "B3",
          "midi": 59,
          "time": 57.3020260312502,
          "velocity": 0.7874015748031497,
          "duration": 0.16666649999999805
        },
        {
          "name": "A3",
          "midi": 57,
          "time": 57.4686925312502,
          "velocity": 0.7874015748031497,
          "duration": 0.16666649999999805
        },
        {
          "name": "G3",
          "midi": 55,
          "time": 57.635359031250196,
          "velocity": 0.7874015748031497,
          "duration": 0.16666649999999805
        },
        {
          "name": "A3",
          "midi": 57,
          "time": 57.802025531250194,
          "velocity": 0.7874015748031497,
          "duration": 0.16666649999999805
        },
        {
          "name": "A3",
          "midi": 57,
          "time": 57.96869203125019,
          "velocity": 0.7874015748031497,
          "duration": 0.16666649999999805
        },
        {
          "name": "G3",
          "midi": 55,
          "time": 58.13535853125019,
          "velocity": 0.7874015748031497,
          "duration": 0.16666649999999805
        },
        {
          "name": "C4",
          "midi": 60,
          "time": 58.30202503125019,
          "velocity": 0.7874015748031497,
          "duration": 0.16666649999999805
        },
        {
          "name": "B3",
          "midi": 59,
          "time": 58.46869153125019,
          "velocity": 0.7874015748031497,
          "duration": 0.16666649999999805
        },
        {
          "name": "B3",
          "midi": 59,
          "time": 58.635358031250185,
          "velocity": 0.7874015748031497,
          "duration": 0.16666649999999805
        },
        {
          "name": "A3",
          "midi": 57,
          "time": 58.80202453125018,
          "velocity": 0.7874015748031497,
          "duration": 0.3333330000000032
        },
        {
          "name": "F3",
          "midi": 53,
          "time": 59.135357531250186,
          "velocity": 0.7874015748031497,
          "duration": 0.16666649999999805
        },
        {
          "name": "F3",
          "midi": 53,
          "time": 59.302024031250184,
          "velocity": 0.7874015748031497,
          "duration": 0.16666649999999805
        },
        {
          "name": "E3",
          "midi": 52,
          "time": 59.46869053125018,
          "velocity": 0.7874015748031497,
          "duration": 0.16666649999999805
        },
        {
          "name": "A3",
          "midi": 57,
          "time": 59.63535703125018,
          "velocity": 0.7874015748031497,
          "duration": 0.16666649999999805
        },
        {
          "name": "G3",
          "midi": 55,
          "time": 59.80202353125018,
          "velocity": 0.7874015748031497,
          "duration": 0.16666649999999805
        },
        {
          "name": "G3",
          "midi": 55,
          "time": 59.968690031250176,
          "velocity": 0.7874015748031497,
          "duration": 0.16666649999999805
        },
        {
          "name": "F3",
          "midi": 53,
          "time": 60.135356531250174,
          "velocity": 0.7874015748031497,
          "duration": 0.16666649999999805
        },
        {
          "name": "E3",
          "midi": 52,
          "time": 60.30202303125017,
          "velocity": 0.7874015748031497,
          "duration": 0.16666649999999805
        },
        {
          "name": "F3",
          "midi": 53,
          "time": 60.46868953125017,
          "velocity": 0.7874015748031497,
          "duration": 0.16666649999999805
        },
        {
          "name": "F3",
          "midi": 53,
          "time": 60.63535603125017,
          "velocity": 0.7874015748031497,
          "duration": 0.16666649999999805
        },
        {
          "name": "E3",
          "midi": 52,
          "time": 60.80202253125017,
          "velocity": 0.7874015748031497,
          "duration": 0.16666649999999805
        },
        {
          "name": "A3",
          "midi": 57,
          "time": 60.968689031250165,
          "velocity": 0.7874015748031497,
          "duration": 0.16666649999999805
        },
        {
          "name": "G3",
          "midi": 55,
          "time": 61.13535553125016,
          "velocity": 0.7874015748031497,
          "duration": 0.16666649999999805
        },
        {
          "name": "G3",
          "midi": 55,
          "time": 61.30202203125016,
          "velocity": 0.7874015748031497,
          "duration": 0.16666649999999805
        },
        {
          "name": "F3",
          "midi": 53,
          "time": 61.46868853125016,
          "velocity": 0.7874015748031497,
          "duration": 0.3333330000000032
        },
        {
          "name": "A3",
          "midi": 57,
          "time": 61.80202153125016,
          "velocity": 0.7874015748031497,
          "duration": 0.49999950000000126
        },
        {
          "name": "A3",
          "midi": 57,
          "time": 62.30202103125016,
          "velocity": 0.7874015748031497,
          "duration": 0.49999950000000126
        },
        {
          "name": "E3",
          "midi": 52,
          "time": 62.802020531250164,
          "velocity": 0.7874015748031497,
          "duration": 0.3333330000000032
        },
        {
          "name": "G3",
          "midi": 55,
          "time": 63.13535353125017,
          "velocity": 0.7874015748031497,
          "duration": 1.3333320000000057
        },
        {
          "name": "E3",
          "midi": 52,
          "time": 64.46868553125017,
          "velocity": 0.7874015748031497,
          "duration": 1.3333319999999986
        },
        {
          "name": "B3",
          "midi": 59,
          "time": 64.46868553125017,
          "velocity": 0.7874015748031497,
          "duration": 1.3333319999999986
        },
        {
          "name": "C3",
          "midi": 48,
          "time": 65.80201753125017,
          "velocity": 0.7874015748031497,
          "duration": 1.3333319999999986
        },
        {
          "name": "G3",
          "midi": 55,
          "time": 65.80201753125017,
          "velocity": 0.7874015748031497,
          "duration": 1.3333319999999986
        },
        {
          "name": "G2",
          "midi": 43,
          "time": 67.13534953125017,
          "velocity": 0.7874015748031497,
          "duration": 0.49999950000000126
        },
        {
          "name": "D3",
          "midi": 50,
          "time": 67.13534953125017,
          "velocity": 0.7874015748031497,
          "duration": 0.49999950000000126
        },
        {
          "name": "G2",
          "midi": 43,
          "time": 67.63534903125017,
          "velocity": 0.7874015748031497,
          "duration": 0.49999950000000126
        },
        {
          "name": "D3",
          "midi": 50,
          "time": 67.63534903125017,
          "velocity": 0.7874015748031497,
          "duration": 0.49999950000000126
        },
        {
          "name": "G2",
          "midi": 43,
          "time": 68.13534853125017,
          "velocity": 0.7874015748031497,
          "duration": 0.3333329999999961
        },
        {
          "name": "D3",
          "midi": 50,
          "time": 68.13534853125017,
          "velocity": 0.7874015748031497,
          "duration": 0.3333329999999961
        },
        {
          "name": "D3",
          "midi": 50,
          "time": 68.46868153125017,
          "velocity": 0.7874015748031497,
          "duration": 0.49999950000000126
        },
        {
          "name": "A3",
          "midi": 57,
          "time": 68.46868153125017,
          "velocity": 0.7874015748031497,
          "duration": 0.49999950000000126
        },
        {
          "name": "D3",
          "midi": 50,
          "time": 68.96868103125017,
          "velocity": 0.7874015748031497,
          "duration": 0.8333324999999974
        },
        {
          "name": "A3",
          "midi": 57,
          "time": 68.96868103125017,
          "velocity": 0.7874015748031497,
          "duration": 0.49999950000000126
        },
        {
          "name": "A3",
          "midi": 57,
          "time": 69.46868053125017,
          "velocity": 0.7874015748031497,
          "duration": 0.3333329999999961
        },
        {
          "name": "E3",
          "midi": 52,
          "time": 69.80201353125017,
          "velocity": 0.7874015748031497,
          "duration": 1.3333319999999986
        },
        {
          "name": "B3",
          "midi": 59,
          "time": 69.80201353125017,
          "velocity": 0.7874015748031497,
          "duration": 1.3333319999999986
        },
        {
          "name": "C3",
          "midi": 48,
          "time": 71.13534553125017,
          "velocity": 0.7874015748031497,
          "duration": 1.3333319999999986
        },
        {
          "name": "G3",
          "midi": 55,
          "time": 71.13534553125017,
          "velocity": 0.7874015748031497,
          "duration": 1.3333319999999986
        },
        {
          "name": "G2",
          "midi": 43,
          "time": 72.46867753125017,
          "velocity": 0.7874015748031497,
          "duration": 0.49999950000000126
        },
        {
          "name": "D3",
          "midi": 50,
          "time": 72.46867753125017,
          "velocity": 0.7874015748031497,
          "duration": 0.49999950000000126
        },
        {
          "name": "G2",
          "midi": 43,
          "time": 72.96867703125017,
          "velocity": 0.7874015748031497,
          "duration": 0.49999950000000126
        },
        {
          "name": "D3",
          "midi": 50,
          "time": 72.96867703125017,
          "velocity": 0.7874015748031497,
          "duration": 0.49999950000000126
        },
        {
          "name": "G2",
          "midi": 43,
          "time": 73.46867653125017,
          "velocity": 0.7874015748031497,
          "duration": 0.3333329999999961
        },
        {
          "name": "D3",
          "midi": 50,
          "time": 73.46867653125017,
          "velocity": 0.7874015748031497,
          "duration": 0.3333329999999961
        },
        {
          "name": "D3",
          "midi": 50,
          "time": 73.80200953125016,
          "velocity": 0.7874015748031497,
          "duration": 0.16666650000000516
        },
        {
          "name": "A3",
          "midi": 57,
          "time": 73.80200953125016,
          "velocity": 0.7874015748031497,
          "duration": 0.16666650000000516
        },
        {
          "name": "D3",
          "midi": 50,
          "time": 73.96867603125017,
          "velocity": 0.7874015748031497,
          "duration": 0.16666650000000516
        },
        {
          "name": "D3",
          "midi": 50,
          "time": 74.13534253125017,
          "velocity": 0.7874015748031497,
          "duration": 0.16666650000000516
        },
        {
          "name": "D3",
          "midi": 50,
          "time": 74.30200903125018,
          "velocity": 0.7874015748031497,
          "duration": 0.16666650000000516
        },
        {
          "name": "A3",
          "midi": 57,
          "time": 74.30200903125018,
          "velocity": 0.7874015748031497,
          "duration": 0.16666650000000516
        },
        {
          "name": "D3",
          "midi": 50,
          "time": 74.46867553125018,
          "velocity": 0.7874015748031497,
          "duration": 0.16666650000000516
        },
        {
          "name": "D3",
          "midi": 50,
          "time": 74.63534203125019,
          "velocity": 0.7874015748031497,
          "duration": 0.16666650000000516
        },
        {
          "name": "D3",
          "midi": 50,
          "time": 74.8020085312502,
          "velocity": 0.7874015748031497,
          "duration": 0.3333329999999961
        },
        {
          "name": "A3",
          "midi": 57,
          "time": 74.8020085312502,
          "velocity": 0.7874015748031497,
          "duration": 0.3333329999999961
        },
        {
          "name": "E3",
          "midi": 52,
          "time": 75.13534153125019,
          "velocity": 0.7874015748031497,
          "duration": 1.3333319999999986
        },
        {
          "name": "B3",
          "midi": 59,
          "time": 75.13534153125019,
          "velocity": 0.7874015748031497,
          "duration": 1.3333319999999986
        },
        {
          "name": "C3",
          "midi": 48,
          "time": 76.46867353125019,
          "velocity": 0.7874015748031497,
          "duration": 1.3333319999999986
        },
        {
          "name": "G3",
          "midi": 55,
          "time": 76.46867353125019,
          "velocity": 0.7874015748031497,
          "duration": 1.3333319999999986
        },
        {
          "name": "G2",
          "midi": 43,
          "time": 77.80200553125019,
          "velocity": 0.7874015748031497,
          "duration": 0.49999950000000126
        },
        {
          "name": "D3",
          "midi": 50,
          "time": 77.80200553125019,
          "velocity": 0.7874015748031497,
          "duration": 0.49999950000000126
        },
        {
          "name": "G2",
          "midi": 43,
          "time": 78.30200503125019,
          "velocity": 0.7874015748031497,
          "duration": 0.49999950000000126
        },
        {
          "name": "D3",
          "midi": 50,
          "time": 78.30200503125019,
          "velocity": 0.7874015748031497,
          "duration": 0.49999950000000126
        },
        {
          "name": "G2",
          "midi": 43,
          "time": 78.80200453125019,
          "velocity": 0.7874015748031497,
          "duration": 0.3333329999999961
        },
        {
          "name": "D3",
          "midi": 50,
          "time": 78.80200453125019,
          "velocity": 0.7874015748031497,
          "duration": 0.3333329999999961
        },
        {
          "name": "D3",
          "midi": 50,
          "time": 79.13533753125019,
          "velocity": 0.7874015748031497,
          "duration": 0.49999950000000126
        },
        {
          "name": "A3",
          "midi": 57,
          "time": 79.13533753125019,
          "velocity": 0.7874015748031497,
          "duration": 0.49999950000000126
        },
        {
          "name": "D3",
          "midi": 50,
          "time": 79.63533703125019,
          "velocity": 0.7874015748031497,
          "duration": 0.49999950000000126
        },
        {
          "name": "A3",
          "midi": 57,
          "time": 79.63533703125019,
          "velocity": 0.7874015748031497,
          "duration": 0.49999950000000126
        },
        {
          "name": "D3",
          "midi": 50,
          "time": 80.13533653125019,
          "velocity": 0.7874015748031497,
          "duration": 0.3333329999999961
        },
        {
          "name": "A3",
          "midi": 57,
          "time": 80.13533653125019,
          "velocity": 0.7874015748031497,
          "duration": 0.3333329999999961
        },
        {
          "name": "C3",
          "midi": 48,
          "time": 80.46866953125019,
          "velocity": 0.7874015748031497,
          "duration": 1.3333319999999986
        },
        {
          "name": "G3",
          "midi": 55,
          "time": 80.46866953125019,
          "velocity": 0.7874015748031497,
          "duration": 1.3333319999999986
        },
        {
          "name": "C3",
          "midi": 48,
          "time": 81.80200153125018,
          "velocity": 0.7874015748031497,
          "duration": 1.3333319999999986
        },
        {
          "name": "G3",
          "midi": 55,
          "time": 81.80200153125018,
          "velocity": 0.7874015748031497,
          "duration": 1.3333319999999986
        },
        {
          "name": "D3",
          "midi": 50,
          "time": 83.13533353125018,
          "velocity": 0.7874015748031497,
          "duration": 1.999998000000005
        },
        {
          "name": "A3",
          "midi": 57,
          "time": 83.13533353125018,
          "velocity": 0.7874015748031497,
          "duration": 1.999998000000005
        },
        {
          "name": "B2",
          "midi": 47,
          "time": 85.13533153125019,
          "velocity": 0.7874015748031497,
          "duration": 0.6666660000000064
        },
        {
          "name": "F#3",
          "midi": 54,
          "time": 85.13533153125019,
          "velocity": 0.7874015748031497,
          "duration": 0.6666660000000064
        },
        {
          "name": "E4",
          "midi": 64,
          "time": 85.8019975312502,
          "velocity": 0.7874015748031497,
          "duration": 0.3333329999999961
        },
        {
          "name": "D4",
          "midi": 62,
          "time": 86.13533053125019,
          "velocity": 0.7874015748031497,
          "duration": 0.16666650000000516
        },
        {
          "name": "E4",
          "midi": 64,
          "time": 86.3019970312502,
          "velocity": 0.7874015748031497,
          "duration": 0.49999950000000126
        },
        {
          "name": "F#4",
          "midi": 66,
          "time": 86.8019965312502,
          "velocity": 0.7874015748031497,
          "duration": 0.3333329999999961
        },
        {
          "name": "G4",
          "midi": 67,
          "time": 87.13532953125019,
          "velocity": 0.7874015748031497,
          "duration": 0.3333329999999961
        },
        {
          "name": "F#4",
          "midi": 66,
          "time": 87.46866253125019,
          "velocity": 0.7874015748031497,
          "duration": 0.3333329999999961
        },
        {
          "name": "E4",
          "midi": 64,
          "time": 87.80199553125018,
          "velocity": 0.7874015748031497,
          "duration": 0.3333329999999961
        },
        {
          "name": "D4",
          "midi": 62,
          "time": 88.13532853125018,
          "velocity": 0.7874015748031497,
          "duration": 0.3333329999999961
        },
        {
          "name": "E4",
          "midi": 64,
          "time": 88.46866153125018,
          "velocity": 0.7874015748031497,
          "duration": 0.3333329999999961
        },
        {
          "name": "D4",
          "midi": 62,
          "time": 88.80199453125017,
          "velocity": 0.7874015748031497,
          "duration": 0.16666650000000516
        },
        {
          "name": "E4",
          "midi": 64,
          "time": 88.96866103125018,
          "velocity": 0.7874015748031497,
          "duration": 0.49999950000000126
        },
        {
          "name": "F#4",
          "midi": 66,
          "time": 89.46866053125018,
          "velocity": 0.7874015748031497,
          "duration": 0.3333329999999961
        },
        {
          "name": "G4",
          "midi": 67,
          "time": 89.80199353125018,
          "velocity": 0.7874015748031497,
          "duration": 0.3333329999999961
        },
        {
          "name": "F#4",
          "midi": 66,
          "time": 90.13532653125017,
          "velocity": 0.7874015748031497,
          "duration": 0.3333329999999961
        },
        {
          "name": "E4",
          "midi": 64,
          "time": 90.46865953125017,
          "velocity": 0.7874015748031497,
          "duration": 0.3333329999999961
        },
        {
          "name": "D4",
          "midi": 62,
          "time": 90.80199253125016,
          "velocity": 0.7874015748031497,
          "duration": 0.3333329999999961
        },
        {
          "name": "E4",
          "midi": 64,
          "time": 91.13532553125016,
          "velocity": 0.7874015748031497,
          "duration": 0.3333329999999961
        },
        {
          "name": "D4",
          "midi": 62,
          "time": 91.46865853125016,
          "velocity": 0.7874015748031497,
          "duration": 0.16666650000000516
        },
        {
          "name": "E4",
          "midi": 64,
          "time": 91.63532503125016,
          "velocity": 0.7874015748031497,
          "duration": 0.49999950000000126
        },
        {
          "name": "F#4",
          "midi": 66,
          "time": 92.13532453125016,
          "velocity": 0.7874015748031497,
          "duration": 0.3333329999999961
        },
        {
          "name": "G4",
          "midi": 67,
          "time": 92.46865753125016,
          "velocity": 0.7874015748031497,
          "duration": 0.3333329999999961
        },
        {
          "name": "F#4",
          "midi": 66,
          "time": 92.80199053125015,
          "velocity": 0.7874015748031497,
          "duration": 0.3333329999999961
        },
        {
          "name": "E4",
          "midi": 64,
          "time": 93.13532353125015,
          "velocity": 0.7874015748031497,
          "duration": 0.3333329999999961
        },
        {
          "name": "D4",
          "midi": 62,
          "time": 93.46865653125015,
          "velocity": 0.7874015748031497,
          "duration": 0.3333329999999961
        },
        {
          "name": "E4",
          "midi": 64,
          "time": 93.80198953125014,
          "velocity": 0.7874015748031497,
          "duration": 0.49999950000000126
        },
        {
          "name": "B3",
          "midi": 59,
          "time": 94.30198903125014,
          "velocity": 0.7874015748031497,
          "duration": 2.166664499999996
        },
        {
          "name": "E4",
          "midi": 64,
          "time": 96.46865353125014,
          "velocity": 0.7874015748031497,
          "duration": 0.3333329999999961
        },
        {
          "name": "D4",
          "midi": 62,
          "time": 96.80198653125014,
          "velocity": 0.7874015748031497,
          "duration": 0.16666650000000516
        },
        {
          "name": "E4",
          "midi": 64,
          "time": 96.96865303125014,
          "velocity": 0.7874015748031497,
          "duration": 0.49999950000000126
        },
        {
          "name": "F#4",
          "midi": 66,
          "time": 97.46865253125014,
          "velocity": 0.7874015748031497,
          "duration": 0.3333329999999961
        },
        {
          "name": "G4",
          "midi": 67,
          "time": 97.80198553125014,
          "velocity": 0.7874015748031497,
          "duration": 0.3333329999999961
        },
        {
          "name": "F#4",
          "midi": 66,
          "time": 98.13531853125014,
          "velocity": 0.7874015748031497,
          "duration": 0.3333329999999961
        },
        {
          "name": "E4",
          "midi": 64,
          "time": 98.46865153125013,
          "velocity": 0.7874015748031497,
          "duration": 0.3333329999999961
        },
        {
          "name": "D4",
          "midi": 62,
          "time": 98.80198453125013,
          "velocity": 0.7874015748031497,
          "duration": 0.3333329999999961
        },
        {
          "name": "E4",
          "midi": 64,
          "time": 99.13531753125012,
          "velocity": 0.7874015748031497,
          "duration": 0.3333329999999961
        },
        {
          "name": "D4",
          "midi": 62,
          "time": 99.46865053125012,
          "velocity": 0.7874015748031497,
          "duration": 0.16666650000000516
        },
        {
          "name": "E4",
          "midi": 64,
          "time": 99.63531703125012,
          "velocity": 0.7874015748031497,
          "duration": 0.49999950000000126
        },
        {
          "name": "F#4",
          "midi": 66,
          "time": 100.13531653125013,
          "velocity": 0.7874015748031497,
          "duration": 0.3333329999999961
        },
        {
          "name": "G4",
          "midi": 67,
          "time": 100.46864953125012,
          "velocity": 0.7874015748031497,
          "duration": 0.3333329999999961
        },
        {
          "name": "F#4",
          "midi": 66,
          "time": 100.80198253125012,
          "velocity": 0.7874015748031497,
          "duration": 0.3333329999999961
        },
        {
          "name": "E4",
          "midi": 64,
          "time": 101.13531553125011,
          "velocity": 0.7874015748031497,
          "duration": 0.3333329999999961
        },
        {
          "name": "D4",
          "midi": 62,
          "time": 101.46864853125011,
          "velocity": 0.7874015748031497,
          "duration": 0.3333329999999961
        },
        {
          "name": "E4",
          "midi": 64,
          "time": 101.8019815312501,
          "velocity": 0.7874015748031497,
          "duration": 0.3333329999999961
        },
        {
          "name": "D4",
          "midi": 62,
          "time": 102.1353145312501,
          "velocity": 0.7874015748031497,
          "duration": 0.16666650000000516
        },
        {
          "name": "E4",
          "midi": 64,
          "time": 102.30198103125011,
          "velocity": 0.7874015748031497,
          "duration": 0.49999950000000126
        },
        {
          "name": "F#4",
          "midi": 66,
          "time": 102.80198053125011,
          "velocity": 0.7874015748031497,
          "duration": 0.3333329999999961
        },
        {
          "name": "G4",
          "midi": 67,
          "time": 103.1353135312501,
          "velocity": 0.7874015748031497,
          "duration": 0.3333329999999961
        },
        {
          "name": "F#4",
          "midi": 66,
          "time": 103.4686465312501,
          "velocity": 0.7874015748031497,
          "duration": 0.3333329999999961
        },
        {
          "name": "E4",
          "midi": 64,
          "time": 103.8019795312501,
          "velocity": 0.7874015748031497,
          "duration": 0.3333329999999961
        },
        {
          "name": "D4",
          "midi": 62,
          "time": 104.1353125312501,
          "velocity": 0.7874015748031497,
          "duration": 0.3333329999999961
        },
        {
          "name": "G4",
          "midi": 67,
          "time": 104.46864553125009,
          "velocity": 0.7874015748031497,
          "duration": 0.16666650000000516
        },
        {
          "name": "F#4",
          "midi": 66,
          "time": 104.6353120312501,
          "velocity": 0.7874015748031497,
          "duration": 0.16666650000000516
        },
        {
          "name": "G4",
          "midi": 67,
          "time": 104.8019785312501,
          "velocity": 0.7874015748031497,
          "duration": 0.16666650000000516
        },
        {
          "name": "A4",
          "midi": 69,
          "time": 104.9686450312501,
          "velocity": 0.7874015748031497,
          "duration": 0.16666650000000516
        },
        {
          "name": "B4",
          "midi": 71,
          "time": 105.13531153125011,
          "velocity": 0.7874015748031497,
          "duration": 0.16666650000000516
        },
        {
          "name": "A4",
          "midi": 69,
          "time": 105.30197803125012,
          "velocity": 0.7874015748031497,
          "duration": 0.16666650000000516
        },
        {
          "name": "G4",
          "midi": 67,
          "time": 105.46864453125012,
          "velocity": 0.7874015748031497,
          "duration": 0.16666650000000516
        },
        {
          "name": "F#4",
          "midi": 66,
          "time": 105.63531103125013,
          "velocity": 0.7874015748031497,
          "duration": 0.16666650000000516
        },
        {
          "name": "B4",
          "midi": 71,
          "time": 105.80197753125013,
          "velocity": 0.7874015748031497,
          "duration": 0.16666650000000516
        },
        {
          "name": "A4",
          "midi": 69,
          "time": 105.96864403125014,
          "velocity": 0.7874015748031497,
          "duration": 0.16666650000000516
        },
        {
          "name": "B4",
          "midi": 71,
          "time": 106.13531053125014,
          "velocity": 0.7874015748031497,
          "duration": 0.16666650000000516
        },
        {
          "name": "C5",
          "midi": 72,
          "time": 106.30197703125015,
          "velocity": 0.7874015748031497,
          "duration": 0.16666650000000516
        },
        {
          "name": "D5",
          "midi": 74,
          "time": 106.46864353125015,
          "velocity": 0.7874015748031497,
          "duration": 0.16666650000000516
        },
        {
          "name": "C5",
          "midi": 72,
          "time": 106.63531003125016,
          "velocity": 0.7874015748031497,
          "duration": 0.16666650000000516
        },
        {
          "name": "B4",
          "midi": 71,
          "time": 106.80197653125016,
          "velocity": 0.7874015748031497,
          "duration": 0.16666650000000516
        },
        {
          "name": "A4",
          "midi": 69,
          "time": 106.96864303125017,
          "velocity": 0.7874015748031497,
          "duration": 0.16666650000000516
        },
        {
          "name": "E3",
          "midi": 52,
          "time": 107.13530953125017,
          "velocity": 0.7874015748031497,
          "duration": 0.24999975000000063
        },
        {
          "name": "B3",
          "midi": 59,
          "time": 107.13530953125017,
          "velocity": 0.7874015748031497,
          "duration": 0.16666650000000516
        },
        {
          "name": "E3",
          "midi": 52,
          "time": 107.30197603125018,
          "velocity": 0.7874015748031497,
          "duration": 0.08333324999999547
        },
        {
          "name": "E3",
          "midi": 52,
          "time": 107.38530928125017,
          "velocity": 0.7874015748031497,
          "duration": 0.08333324999999547
        },
        {
          "name": "E3",
          "midi": 52,
          "time": 107.46864253125017,
          "velocity": 0.7874015748031497,
          "duration": 0.16666650000000516
        },
        {
          "name": "E3",
          "midi": 52,
          "time": 107.63530903125017,
          "velocity": 0.7874015748031497,
          "duration": 0.08333324999999547
        },
        {
          "name": "E3",
          "midi": 52,
          "time": 107.71864228125017,
          "velocity": 0.7874015748031497,
          "duration": 0.08333324999999547
        },
        {
          "name": "E3",
          "midi": 52,
          "time": 107.80197553125016,
          "velocity": 0.7874015748031497,
          "duration": 0.16666650000000516
        },
        {
          "name": "E3",
          "midi": 52,
          "time": 107.96864203125017,
          "velocity": 0.7874015748031497,
          "duration": 0.08333324999999547
        },
        {
          "name": "E3",
          "midi": 52,
          "time": 108.05197528125017,
          "velocity": 0.7874015748031497,
          "duration": 0.08333324999999547
        },
        {
          "name": "E3",
          "midi": 52,
          "time": 108.13530853125016,
          "velocity": 0.7874015748031497,
          "duration": 0.16666650000000516
        },
        {
          "name": "E3",
          "midi": 52,
          "time": 108.30197503125017,
          "velocity": 0.7874015748031497,
          "duration": 0.08333324999999547
        },
        {
          "name": "E3",
          "midi": 52,
          "time": 108.38530828125016,
          "velocity": 0.7874015748031497,
          "duration": 0.08333324999999547
        },
        {
          "name": "C3",
          "midi": 48,
          "time": 108.46864153125016,
          "velocity": 0.7874015748031497,
          "duration": 0.24999975000000063
        },
        {
          "name": "G3",
          "midi": 55,
          "time": 108.46864153125016,
          "velocity": 0.7874015748031497,
          "duration": 0.16666650000000516
        },
        {
          "name": "C3",
          "midi": 48,
          "time": 108.63530803125016,
          "velocity": 0.7874015748031497,
          "duration": 0.08333324999999547
        },
        {
          "name": "C3",
          "midi": 48,
          "time": 108.71864128125016,
          "velocity": 0.7874015748031497,
          "duration": 0.08333324999999547
        },
        {
          "name": "C3",
          "midi": 48,
          "time": 108.80197453125015,
          "velocity": 0.7874015748031497,
          "duration": 0.16666650000000516
        },
        {
          "name": "C3",
          "midi": 48,
          "time": 108.96864103125016,
          "velocity": 0.7874015748031497,
          "duration": 0.08333324999999547
        },
        {
          "name": "C3",
          "midi": 48,
          "time": 109.05197428125015,
          "velocity": 0.7874015748031497,
          "duration": 0.08333324999999547
        },
        {
          "name": "C3",
          "midi": 48,
          "time": 109.13530753125015,
          "velocity": 0.7874015748031497,
          "duration": 0.16666650000000516
        },
        {
          "name": "C3",
          "midi": 48,
          "time": 109.30197403125015,
          "velocity": 0.7874015748031497,
          "duration": 0.08333324999999547
        },
        {
          "name": "C3",
          "midi": 48,
          "time": 109.38530728125015,
          "velocity": 0.7874015748031497,
          "duration": 0.08333324999999547
        },
        {
          "name": "C3",
          "midi": 48,
          "time": 109.46864053125014,
          "velocity": 0.7874015748031497,
          "duration": 0.16666650000000516
        },
        {
          "name": "C3",
          "midi": 48,
          "time": 109.63530703125015,
          "velocity": 0.7874015748031497,
          "duration": 0.08333324999999547
        },
        {
          "name": "C3",
          "midi": 48,
          "time": 109.71864028125015,
          "velocity": 0.7874015748031497,
          "duration": 0.08333324999999547
        },
        {
          "name": "E3",
          "midi": 52,
          "time": 109.80197353125014,
          "velocity": 0.7874015748031497,
          "duration": 0.24999975000000063
        },
        {
          "name": "B3",
          "midi": 59,
          "time": 109.80197353125014,
          "velocity": 0.7874015748031497,
          "duration": 0.16666650000000516
        },
        {
          "name": "E3",
          "midi": 52,
          "time": 109.96864003125015,
          "velocity": 0.7874015748031497,
          "duration": 0.08333324999999547
        },
        {
          "name": "E3",
          "midi": 52,
          "time": 110.05197328125014,
          "velocity": 0.7874015748031497,
          "duration": 0.08333324999999547
        },
        {
          "name": "E3",
          "midi": 52,
          "time": 110.13530653125014,
          "velocity": 0.7874015748031497,
          "duration": 0.16666650000000516
        },
        {
          "name": "E3",
          "midi": 52,
          "time": 110.30197303125014,
          "velocity": 0.7874015748031497,
          "duration": 0.08333324999999547
        },
        {
          "name": "E3",
          "midi": 52,
          "time": 110.38530628125014,
          "velocity": 0.7874015748031497,
          "duration": 0.08333324999999547
        },
        {
          "name": "E3",
          "midi": 52,
          "time": 110.46863953125013,
          "velocity": 0.7874015748031497,
          "duration": 0.16666650000000516
        },
        {
          "name": "E3",
          "midi": 52,
          "time": 110.63530603125014,
          "velocity": 0.7874015748031497,
          "duration": 0.08333324999999547
        },
        {
          "name": "E3",
          "midi": 52,
          "time": 110.71863928125013,
          "velocity": 0.7874015748031497,
          "duration": 0.08333324999999547
        },
        {
          "name": "E3",
          "midi": 52,
          "time": 110.80197253125013,
          "velocity": 0.7874015748031497,
          "duration": 0.16666650000000516
        },
        {
          "name": "E3",
          "midi": 52,
          "time": 110.96863903125013,
          "velocity": 0.7874015748031497,
          "duration": 0.08333324999999547
        },
        {
          "name": "E3",
          "midi": 52,
          "time": 111.05197228125013,
          "velocity": 0.7874015748031497,
          "duration": 0.08333324999999547
        },
        {
          "name": "C3",
          "midi": 48,
          "time": 111.13530553125013,
          "velocity": 0.7874015748031497,
          "duration": 0.6666660000000064
        },
        {
          "name": "G3",
          "midi": 55,
          "time": 111.13530553125013,
          "velocity": 0.7874015748031497,
          "duration": 0.6666660000000064
        },
        {
          "name": "A2",
          "midi": 45,
          "time": 111.80197153125013,
          "velocity": 0.7874015748031497,
          "duration": 0.3333329999999961
        },
        {
          "name": "E3",
          "midi": 52,
          "time": 111.80197153125013,
          "velocity": 0.7874015748031497,
          "duration": 0.3333329999999961
        },
        {
          "name": "D3",
          "midi": 50,
          "time": 112.13530453125013,
          "velocity": 0.7874015748031497,
          "duration": 0.3333329999999961
        },
        {
          "name": "A3",
          "midi": 57,
          "time": 112.13530453125013,
          "velocity": 0.7874015748031497,
          "duration": 0.3333329999999961
        },
        {
          "name": "E3",
          "midi": 52,
          "time": 112.46863753125012,
          "velocity": 0.7874015748031497,
          "duration": 0.24999975000000063
        },
        {
          "name": "B3",
          "midi": 59,
          "time": 112.46863753125012,
          "velocity": 0.7874015748031497,
          "duration": 0.16666650000000516
        },
        {
          "name": "E3",
          "midi": 52,
          "time": 112.63530403125013,
          "velocity": 0.7874015748031497,
          "duration": 0.08333324999999547
        },
        {
          "name": "E3",
          "midi": 52,
          "time": 112.71863728125012,
          "velocity": 0.7874015748031497,
          "duration": 0.08333324999999547
        },
        {
          "name": "E3",
          "midi": 52,
          "time": 112.80197053125012,
          "velocity": 0.7874015748031497,
          "duration": 0.16666650000000516
        },
        {
          "name": "E3",
          "midi": 52,
          "time": 112.96863703125013,
          "velocity": 0.7874015748031497,
          "duration": 0.08333324999999547
        },
        {
          "name": "E3",
          "midi": 52,
          "time": 113.05197028125012,
          "velocity": 0.7874015748031497,
          "duration": 0.08333324999999547
        },
        {
          "name": "E3",
          "midi": 52,
          "time": 113.13530353125012,
          "velocity": 0.7874015748031497,
          "duration": 0.16666650000000516
        },
        {
          "name": "E3",
          "midi": 52,
          "time": 113.30197003125012,
          "velocity": 0.7874015748031497,
          "duration": 0.08333324999999547
        },
        {
          "name": "E3",
          "midi": 52,
          "time": 113.38530328125012,
          "velocity": 0.7874015748031497,
          "duration": 0.08333324999999547
        },
        {
          "name": "E3",
          "midi": 52,
          "time": 113.46863653125011,
          "velocity": 0.7874015748031497,
          "duration": 0.16666650000000516
        },
        {
          "name": "E3",
          "midi": 52,
          "time": 113.63530303125012,
          "velocity": 0.7874015748031497,
          "duration": 0.08333324999999547
        },
        {
          "name": "E3",
          "midi": 52,
          "time": 113.71863628125011,
          "velocity": 0.7874015748031497,
          "duration": 0.08333324999999547
        },
        {
          "name": "C3",
          "midi": 48,
          "time": 113.80196953125011,
          "velocity": 0.7874015748031497,
          "duration": 0.24999975000000063
        },
        {
          "name": "G3",
          "midi": 55,
          "time": 113.80196953125011,
          "velocity": 0.7874015748031497,
          "duration": 0.16666650000000516
        },
        {
          "name": "C3",
          "midi": 48,
          "time": 113.96863603125011,
          "velocity": 0.7874015748031497,
          "duration": 0.08333324999999547
        },
        {
          "name": "C3",
          "midi": 48,
          "time": 114.05196928125011,
          "velocity": 0.7874015748031497,
          "duration": 0.08333324999999547
        },
        {
          "name": "C3",
          "midi": 48,
          "time": 114.1353025312501,
          "velocity": 0.7874015748031497,
          "duration": 0.16666650000000516
        },
        {
          "name": "C3",
          "midi": 48,
          "time": 114.30196903125011,
          "velocity": 0.7874015748031497,
          "duration": 0.08333324999999547
        },
        {
          "name": "C3",
          "midi": 48,
          "time": 114.3853022812501,
          "velocity": 0.7874015748031497,
          "duration": 0.08333324999999547
        },
        {
          "name": "C3",
          "midi": 48,
          "time": 114.4686355312501,
          "velocity": 0.7874015748031497,
          "duration": 0.16666650000000516
        },
        {
          "name": "C3",
          "midi": 48,
          "time": 114.6353020312501,
          "velocity": 0.7874015748031497,
          "duration": 0.08333324999999547
        },
        {
          "name": "C3",
          "midi": 48,
          "time": 114.7186352812501,
          "velocity": 0.7874015748031497,
          "duration": 0.08333324999999547
        },
        {
          "name": "C3",
          "midi": 48,
          "time": 114.8019685312501,
          "velocity": 0.7874015748031497,
          "duration": 0.16666650000000516
        },
        {
          "name": "C3",
          "midi": 48,
          "time": 114.9686350312501,
          "velocity": 0.7874015748031497,
          "duration": 0.08333324999999547
        },
        {
          "name": "C3",
          "midi": 48,
          "time": 115.0519682812501,
          "velocity": 0.7874015748031497,
          "duration": 0.08333324999999547
        },
        {
          "name": "E3",
          "midi": 52,
          "time": 115.1353015312501,
          "velocity": 0.7874015748031497,
          "duration": 0.24999975000000063
        },
        {
          "name": "B3",
          "midi": 59,
          "time": 115.1353015312501,
          "velocity": 0.7874015748031497,
          "duration": 0.16666650000000516
        },
        {
          "name": "E3",
          "midi": 52,
          "time": 115.3019680312501,
          "velocity": 0.7874015748031497,
          "duration": 0.08333324999999547
        },
        {
          "name": "E3",
          "midi": 52,
          "time": 115.3853012812501,
          "velocity": 0.7874015748031497,
          "duration": 0.08333324999999547
        },
        {
          "name": "E3",
          "midi": 52,
          "time": 115.46863453125009,
          "velocity": 0.7874015748031497,
          "duration": 0.16666650000000516
        },
        {
          "name": "E3",
          "midi": 52,
          "time": 115.6353010312501,
          "velocity": 0.7874015748031497,
          "duration": 0.08333324999999547
        },
        {
          "name": "E3",
          "midi": 52,
          "time": 115.71863428125009,
          "velocity": 0.7874015748031497,
          "duration": 0.08333324999999547
        },
        {
          "name": "E3",
          "midi": 52,
          "time": 115.80196753125009,
          "velocity": 0.7874015748031497,
          "duration": 0.16666650000000516
        },
        {
          "name": "E3",
          "midi": 52,
          "time": 115.96863403125009,
          "velocity": 0.7874015748031497,
          "duration": 0.08333324999999547
        },
        {
          "name": "E3",
          "midi": 52,
          "time": 116.05196728125009,
          "velocity": 0.7874015748031497,
          "duration": 0.08333324999999547
        },
        {
          "name": "E3",
          "midi": 52,
          "time": 116.13530053125008,
          "velocity": 0.7874015748031497,
          "duration": 0.16666650000000516
        },
        {
          "name": "E3",
          "midi": 52,
          "time": 116.30196703125009,
          "velocity": 0.7874015748031497,
          "duration": 0.08333324999999547
        },
        {
          "name": "E3",
          "midi": 52,
          "time": 116.38530028125008,
          "velocity": 0.7874015748031497,
          "duration": 0.08333324999999547
        },
        {
          "name": "C3",
          "midi": 48,
          "time": 116.46863353125008,
          "velocity": 0.7874015748031497,
          "duration": 0.6666660000000064
        },
        {
          "name": "G3",
          "midi": 55,
          "time": 116.46863353125008,
          "velocity": 0.7874015748031497,
          "duration": 0.6666660000000064
        },
        {
          "name": "C3",
          "midi": 48,
          "time": 117.13529953125008,
          "velocity": 0.7874015748031497,
          "duration": 0.3333329999999961
        },
        {
          "name": "G3",
          "midi": 55,
          "time": 117.13529953125008,
          "velocity": 0.7874015748031497,
          "duration": 0.3333329999999961
        },
        {
          "name": "D3",
          "midi": 50,
          "time": 117.46863253125008,
          "velocity": 0.7874015748031497,
          "duration": 0.3333329999999961
        },
        {
          "name": "A3",
          "midi": 57,
          "time": 117.46863253125008,
          "velocity": 0.7874015748031497,
          "duration": 0.3333329999999961
        },
        {
          "name": "E3",
          "midi": 52,
          "time": 117.80196553125008,
          "velocity": 0.7874015748031497,
          "duration": 0.24999975000000063
        },
        {
          "name": "B3",
          "midi": 59,
          "time": 117.80196553125008,
          "velocity": 0.7874015748031497,
          "duration": 0.16666650000000516
        },
        {
          "name": "E3",
          "midi": 52,
          "time": 117.96863203125008,
          "velocity": 0.7874015748031497,
          "duration": 0.08333324999999547
        },
        {
          "name": "E3",
          "midi": 52,
          "time": 118.05196528125008,
          "velocity": 0.7874015748031497,
          "duration": 0.08333324999999547
        },
        {
          "name": "E3",
          "midi": 52,
          "time": 118.13529853125007,
          "velocity": 0.7874015748031497,
          "duration": 0.16666650000000516
        },
        {
          "name": "E3",
          "midi": 52,
          "time": 118.30196503125008,
          "velocity": 0.7874015748031497,
          "duration": 0.08333324999999547
        },
        {
          "name": "E3",
          "midi": 52,
          "time": 118.38529828125007,
          "velocity": 0.7874015748031497,
          "duration": 0.08333324999999547
        },
        {
          "name": "E3",
          "midi": 52,
          "time": 118.46863153125007,
          "velocity": 0.7874015748031497,
          "duration": 0.16666650000000516
        },
        {
          "name": "E3",
          "midi": 52,
          "time": 118.63529803125007,
          "velocity": 0.7874015748031497,
          "duration": 0.08333324999999547
        },
        {
          "name": "E3",
          "midi": 52,
          "time": 118.71863128125007,
          "velocity": 0.7874015748031497,
          "duration": 0.08333324999999547
        },
        {
          "name": "E3",
          "midi": 52,
          "time": 118.80196453125006,
          "velocity": 0.7874015748031497,
          "duration": 0.16666650000000516
        },
        {
          "name": "E3",
          "midi": 52,
          "time": 118.96863103125007,
          "velocity": 0.7874015748031497,
          "duration": 0.08333324999999547
        },
        {
          "name": "E3",
          "midi": 52,
          "time": 119.05196428125006,
          "velocity": 0.7874015748031497,
          "duration": 0.08333324999999547
        },
        {
          "name": "C3",
          "midi": 48,
          "time": 119.13529753125006,
          "velocity": 0.7874015748031497,
          "duration": 0.24999975000000063
        },
        {
          "name": "G3",
          "midi": 55,
          "time": 119.13529753125006,
          "velocity": 0.7874015748031497,
          "duration": 0.16666650000000516
        },
        {
          "name": "C3",
          "midi": 48,
          "time": 119.30196403125007,
          "velocity": 0.7874015748031497,
          "duration": 0.08333324999999547
        },
        {
          "name": "C3",
          "midi": 48,
          "time": 119.38529728125006,
          "velocity": 0.7874015748031497,
          "duration": 0.08333324999999547
        },
        {
          "name": "C3",
          "midi": 48,
          "time": 119.46863053125006,
          "velocity": 0.7874015748031497,
          "duration": 0.16666650000000516
        },
        {
          "name": "C3",
          "midi": 48,
          "time": 119.63529703125006,
          "velocity": 0.7874015748031497,
          "duration": 0.08333324999999547
        },
        {
          "name": "C3",
          "midi": 48,
          "time": 119.71863028125006,
          "velocity": 0.7874015748031497,
          "duration": 0.08333324999999547
        },
        {
          "name": "C3",
          "midi": 48,
          "time": 119.80196353125005,
          "velocity": 0.7874015748031497,
          "duration": 0.16666650000000516
        },
        {
          "name": "C3",
          "midi": 48,
          "time": 119.96863003125006,
          "velocity": 0.7874015748031497,
          "duration": 0.08333324999999547
        },
        {
          "name": "C3",
          "midi": 48,
          "time": 120.05196328125005,
          "velocity": 0.7874015748031497,
          "duration": 0.08333324999999547
        },
        {
          "name": "C3",
          "midi": 48,
          "time": 120.13529653125005,
          "velocity": 0.7874015748031497,
          "duration": 0.16666650000000516
        },
        {
          "name": "C3",
          "midi": 48,
          "time": 120.30196303125005,
          "velocity": 0.7874015748031497,
          "duration": 0.08333324999999547
        },
        {
          "name": "C3",
          "midi": 48,
          "time": 120.38529628125005,
          "velocity": 0.7874015748031497,
          "duration": 0.08333324999999547
        },
        {
          "name": "E3",
          "midi": 52,
          "time": 120.46862953125004,
          "velocity": 0.7874015748031497,
          "duration": 0.24999975000000063
        },
        {
          "name": "B3",
          "midi": 59,
          "time": 120.46862953125004,
          "velocity": 0.7874015748031497,
          "duration": 0.16666650000000516
        },
        {
          "name": "E3",
          "midi": 52,
          "time": 120.63529603125005,
          "velocity": 0.7874015748031497,
          "duration": 0.08333324999999547
        },
        {
          "name": "E3",
          "midi": 52,
          "time": 120.71862928125005,
          "velocity": 0.7874015748031497,
          "duration": 0.08333324999999547
        },
        {
          "name": "E3",
          "midi": 52,
          "time": 120.80196253125004,
          "velocity": 0.7874015748031497,
          "duration": 0.16666650000000516
        },
        {
          "name": "E3",
          "midi": 52,
          "time": 120.96862903125005,
          "velocity": 0.7874015748031497,
          "duration": 0.08333324999999547
        },
        {
          "name": "E3",
          "midi": 52,
          "time": 121.05196228125004,
          "velocity": 0.7874015748031497,
          "duration": 0.08333324999999547
        },
        {
          "name": "E3",
          "midi": 52,
          "time": 121.13529553125004,
          "velocity": 0.7874015748031497,
          "duration": 0.16666650000000516
        },
        {
          "name": "E3",
          "midi": 52,
          "time": 121.30196203125004,
          "velocity": 0.7874015748031497,
          "duration": 0.08333324999999547
        },
        {
          "name": "E3",
          "midi": 52,
          "time": 121.38529528125004,
          "velocity": 0.7874015748031497,
          "duration": 0.08333324999999547
        },
        {
          "name": "E3",
          "midi": 52,
          "time": 121.46862853125003,
          "velocity": 0.7874015748031497,
          "duration": 0.16666650000000516
        },
        {
          "name": "E3",
          "midi": 52,
          "time": 121.63529503125004,
          "velocity": 0.7874015748031497,
          "duration": 0.08333324999999547
        },
        {
          "name": "E3",
          "midi": 52,
          "time": 121.71862828125003,
          "velocity": 0.7874015748031497,
          "duration": 0.08333324999999547
        },
        {
          "name": "C3",
          "midi": 48,
          "time": 121.80196153125003,
          "velocity": 0.7874015748031497,
          "duration": 0.6666660000000064
        },
        {
          "name": "G3",
          "midi": 55,
          "time": 121.80196153125003,
          "velocity": 0.7874015748031497,
          "duration": 0.6666660000000064
        },
        {
          "name": "A2",
          "midi": 45,
          "time": 122.46862753125004,
          "velocity": 0.7874015748031497,
          "duration": 0.3333329999999961
        },
        {
          "name": "E3",
          "midi": 52,
          "time": 122.46862753125004,
          "velocity": 0.7874015748031497,
          "duration": 0.3333329999999961
        },
        {
          "name": "D3",
          "midi": 50,
          "time": 122.80196053125003,
          "velocity": 0.7874015748031497,
          "duration": 0.3333329999999961
        },
        {
          "name": "A3",
          "midi": 57,
          "time": 122.80196053125003,
          "velocity": 0.7874015748031497,
          "duration": 0.3333329999999961
        },
        {
          "name": "E3",
          "midi": 52,
          "time": 123.13529353125003,
          "velocity": 0.7874015748031497,
          "duration": 0.24999975000000063
        },
        {
          "name": "B3",
          "midi": 59,
          "time": 123.13529353125003,
          "velocity": 0.7874015748031497,
          "duration": 0.16666650000000516
        },
        {
          "name": "E3",
          "midi": 52,
          "time": 123.30196003125003,
          "velocity": 0.7874015748031497,
          "duration": 0.08333324999999547
        },
        {
          "name": "E3",
          "midi": 52,
          "time": 123.38529328125003,
          "velocity": 0.7874015748031497,
          "duration": 0.08333324999999547
        },
        {
          "name": "E3",
          "midi": 52,
          "time": 123.46862653125002,
          "velocity": 0.7874015748031497,
          "duration": 0.16666650000000516
        },
        {
          "name": "E3",
          "midi": 52,
          "time": 123.63529303125003,
          "velocity": 0.7874015748031497,
          "duration": 0.08333324999999547
        },
        {
          "name": "E3",
          "midi": 52,
          "time": 123.71862628125002,
          "velocity": 0.7874015748031497,
          "duration": 0.08333324999999547
        },
        {
          "name": "E3",
          "midi": 52,
          "time": 123.80195953125002,
          "velocity": 0.7874015748031497,
          "duration": 0.16666650000000516
        },
        {
          "name": "E3",
          "midi": 52,
          "time": 123.96862603125003,
          "velocity": 0.7874015748031497,
          "duration": 0.08333324999999547
        },
        {
          "name": "E3",
          "midi": 52,
          "time": 124.05195928125002,
          "velocity": 0.7874015748031497,
          "duration": 0.08333324999999547
        },
        {
          "name": "E3",
          "midi": 52,
          "time": 124.13529253125002,
          "velocity": 0.7874015748031497,
          "duration": 0.16666650000000516
        },
        {
          "name": "E3",
          "midi": 52,
          "time": 124.30195903125002,
          "velocity": 0.7874015748031497,
          "duration": 0.08333324999999547
        },
        {
          "name": "E3",
          "midi": 52,
          "time": 124.38529228125002,
          "velocity": 0.7874015748031497,
          "duration": 0.08333324999999547
        },
        {
          "name": "C3",
          "midi": 48,
          "time": 124.46862553125001,
          "velocity": 0.7874015748031497,
          "duration": 0.24999975000000063
        },
        {
          "name": "G3",
          "midi": 55,
          "time": 124.46862553125001,
          "velocity": 0.7874015748031497,
          "duration": 0.16666650000000516
        },
        {
          "name": "C3",
          "midi": 48,
          "time": 124.63529203125002,
          "velocity": 0.7874015748031497,
          "duration": 0.08333324999999547
        },
        {
          "name": "C3",
          "midi": 48,
          "time": 124.71862528125001,
          "velocity": 0.7874015748031497,
          "duration": 0.08333324999999547
        },
        {
          "name": "C3",
          "midi": 48,
          "time": 124.80195853125001,
          "velocity": 0.7874015748031497,
          "duration": 0.16666650000000516
        },
        {
          "name": "C3",
          "midi": 48,
          "time": 124.96862503125001,
          "velocity": 0.7874015748031497,
          "duration": 0.08333324999999547
        },
        {
          "name": "C3",
          "midi": 48,
          "time": 125.05195828125001,
          "velocity": 0.7874015748031497,
          "duration": 0.08333324999999547
        },
        {
          "name": "C3",
          "midi": 48,
          "time": 125.13529153125,
          "velocity": 0.7874015748031497,
          "duration": 0.16666650000000516
        },
        {
          "name": "C3",
          "midi": 48,
          "time": 125.30195803125001,
          "velocity": 0.7874015748031497,
          "duration": 0.08333324999999547
        },
        {
          "name": "C3",
          "midi": 48,
          "time": 125.38529128125,
          "velocity": 0.7874015748031497,
          "duration": 0.08333324999999547
        },
        {
          "name": "C3",
          "midi": 48,
          "time": 125.46862453125,
          "velocity": 0.7874015748031497,
          "duration": 0.16666650000000516
        },
        {
          "name": "C3",
          "midi": 48,
          "time": 125.63529103125,
          "velocity": 0.7874015748031497,
          "duration": 0.08333324999999547
        },
        {
          "name": "C3",
          "midi": 48,
          "time": 125.71862428125,
          "velocity": 0.7874015748031497,
          "duration": 0.08333324999999547
        },
        {
          "name": "E3",
          "midi": 52,
          "time": 125.80195753125,
          "velocity": 0.7874015748031497,
          "duration": 0.24999975000000063
        },
        {
          "name": "B3",
          "midi": 59,
          "time": 125.80195753125,
          "velocity": 0.7874015748031497,
          "duration": 0.16666650000000516
        },
        {
          "name": "E3",
          "midi": 52,
          "time": 125.96862403125,
          "velocity": 0.7874015748031497,
          "duration": 0.08333324999999547
        },
        {
          "name": "E3",
          "midi": 52,
          "time": 126.05195728125,
          "velocity": 0.7874015748031497,
          "duration": 0.08333324999999547
        },
        {
          "name": "E3",
          "midi": 52,
          "time": 126.13529053124999,
          "velocity": 0.7874015748031497,
          "duration": 0.16666650000000516
        },
        {
          "name": "E3",
          "midi": 52,
          "time": 126.30195703125,
          "velocity": 0.7874015748031497,
          "duration": 0.08333324999999547
        },
        {
          "name": "E3",
          "midi": 52,
          "time": 126.38529028125,
          "velocity": 0.7874015748031497,
          "duration": 0.08333324999999547
        },
        {
          "name": "E3",
          "midi": 52,
          "time": 126.46862353124999,
          "velocity": 0.7874015748031497,
          "duration": 0.16666650000000516
        },
        {
          "name": "E3",
          "midi": 52,
          "time": 126.63529003125,
          "velocity": 0.7874015748031497,
          "duration": 0.08333324999999547
        },
        {
          "name": "E3",
          "midi": 52,
          "time": 126.71862328124999,
          "velocity": 0.7874015748031497,
          "duration": 0.08333324999999547
        },
        {
          "name": "E3",
          "midi": 52,
          "time": 126.80195653124999,
          "velocity": 0.7874015748031497,
          "duration": 0.16666650000000516
        },
        {
          "name": "E3",
          "midi": 52,
          "time": 126.96862303124999,
          "velocity": 0.7874015748031497,
          "duration": 0.08333324999999547
        },
        {
          "name": "E3",
          "midi": 52,
          "time": 127.05195628124999,
          "velocity": 0.7874015748031497,
          "duration": 0.08333324999999547
        },
        {
          "name": "C3",
          "midi": 48,
          "time": 127.13528953124998,
          "velocity": 0.7874015748031497,
          "duration": 0.6666660000000064
        },
        {
          "name": "G3",
          "midi": 55,
          "time": 127.13528953124998,
          "velocity": 0.7874015748031497,
          "duration": 0.6666660000000064
        },
        {
          "name": "C3",
          "midi": 48,
          "time": 127.80195553124999,
          "velocity": 0.7874015748031497,
          "duration": 0.3333329999999961
        },
        {
          "name": "G3",
          "midi": 55,
          "time": 127.80195553124999,
          "velocity": 0.7874015748031497,
          "duration": 0.3333329999999961
        },
        {
          "name": "D3",
          "midi": 50,
          "time": 128.13528853124998,
          "velocity": 0.7874015748031497,
          "duration": 0.3333330000000103
        },
        {
          "name": "A3",
          "midi": 57,
          "time": 128.13528853124998,
          "velocity": 0.7874015748031497,
          "duration": 0.3333330000000103
        },
        {
          "name": "E3",
          "midi": 52,
          "time": 128.46862153125,
          "velocity": 0.7874015748031497,
          "duration": 0.16666649999999095
        },
        {
          "name": "E3",
          "midi": 52,
          "time": 128.63528803124998,
          "velocity": 0.7874015748031497,
          "duration": 0.16666649999999095
        },
        {
          "name": "D3",
          "midi": 50,
          "time": 128.80195453124998,
          "velocity": 0.7874015748031497,
          "duration": 0.16666649999999095
        },
        {
          "name": "G3",
          "midi": 55,
          "time": 128.96862103124997,
          "velocity": 0.7874015748031497,
          "duration": 0.16666649999999095
        },
        {
          "name": "F#3",
          "midi": 54,
          "time": 129.13528753124996,
          "velocity": 0.7874015748031497,
          "duration": 0.16666649999999095
        },
        {
          "name": "F#3",
          "midi": 54,
          "time": 129.30195403124995,
          "velocity": 0.7874015748031497,
          "duration": 0.16666649999999095
        },
        {
          "name": "E3",
          "midi": 52,
          "time": 129.46862053124994,
          "velocity": 0.7874015748031497,
          "duration": 0.16666649999999095
        },
        {
          "name": "D3",
          "midi": 50,
          "time": 129.63528703124993,
          "velocity": 0.7874015748031497,
          "duration": 0.16666649999999095
        },
        {
          "name": "E3",
          "midi": 52,
          "time": 129.80195353124992,
          "velocity": 0.7874015748031497,
          "duration": 0.16666649999999095
        },
        {
          "name": "E3",
          "midi": 52,
          "time": 129.9686200312499,
          "velocity": 0.7874015748031497,
          "duration": 0.16666649999999095
        },
        {
          "name": "D3",
          "midi": 50,
          "time": 130.1352865312499,
          "velocity": 0.7874015748031497,
          "duration": 0.16666649999999095
        },
        {
          "name": "G3",
          "midi": 55,
          "time": 130.3019530312499,
          "velocity": 0.7874015748031497,
          "duration": 0.16666649999999095
        },
        {
          "name": "F#3",
          "midi": 54,
          "time": 130.46861953124989,
          "velocity": 0.7874015748031497,
          "duration": 0.16666649999999095
        },
        {
          "name": "F#3",
          "midi": 54,
          "time": 130.63528603124988,
          "velocity": 0.7874015748031497,
          "duration": 0.16666649999999095
        },
        {
          "name": "E3",
          "midi": 52,
          "time": 130.80195253124987,
          "velocity": 0.7874015748031497,
          "duration": 0.3333330000000103
        },
        {
          "name": "A3",
          "midi": 57,
          "time": 131.13528553124988,
          "velocity": 0.7874015748031497,
          "duration": 0.16666649999999095
        },
        {
          "name": "A3",
          "midi": 57,
          "time": 131.30195203124987,
          "velocity": 0.7874015748031497,
          "duration": 0.16666649999999095
        },
        {
          "name": "G3",
          "midi": 55,
          "time": 131.46861853124986,
          "velocity": 0.7874015748031497,
          "duration": 0.16666649999999095
        },
        {
          "name": "C4",
          "midi": 60,
          "time": 131.63528503124985,
          "velocity": 0.7874015748031497,
          "duration": 0.16666649999999095
        },
        {
          "name": "B3",
          "midi": 59,
          "time": 131.80195153124984,
          "velocity": 0.7874015748031497,
          "duration": 0.16666649999999095
        },
        {
          "name": "B3",
          "midi": 59,
          "time": 131.96861803124983,
          "velocity": 0.7874015748031497,
          "duration": 0.16666649999999095
        },
        {
          "name": "A3",
          "midi": 57,
          "time": 132.13528453124982,
          "velocity": 0.7874015748031497,
          "duration": 0.16666649999999095
        },
        {
          "name": "G3",
          "midi": 55,
          "time": 132.3019510312498,
          "velocity": 0.7874015748031497,
          "duration": 0.16666649999999095
        },
        {
          "name": "A3",
          "midi": 57,
          "time": 132.4686175312498,
          "velocity": 0.7874015748031497,
          "duration": 0.16666649999999095
        },
        {
          "name": "A3",
          "midi": 57,
          "time": 132.6352840312498,
          "velocity": 0.7874015748031497,
          "duration": 0.16666649999999095
        },
        {
          "name": "G3",
          "midi": 55,
          "time": 132.8019505312498,
          "velocity": 0.7874015748031497,
          "duration": 0.16666649999999095
        },
        {
          "name": "C4",
          "midi": 60,
          "time": 132.96861703124978,
          "velocity": 0.7874015748031497,
          "duration": 0.16666649999999095
        },
        {
          "name": "B3",
          "midi": 59,
          "time": 133.13528353124977,
          "velocity": 0.7874015748031497,
          "duration": 0.16666649999999095
        },
        {
          "name": "B3",
          "midi": 59,
          "time": 133.30195003124976,
          "velocity": 0.7874015748031497,
          "duration": 0.16666649999999095
        },
        {
          "name": "A3",
          "midi": 57,
          "time": 133.46861653124975,
          "velocity": 0.7874015748031497,
          "duration": 0.3333330000000103
        },
        {
          "name": "F3",
          "midi": 53,
          "time": 133.80194953124976,
          "velocity": 0.7874015748031497,
          "duration": 0.16666649999999095
        },
        {
          "name": "F3",
          "midi": 53,
          "time": 133.96861603124975,
          "velocity": 0.7874015748031497,
          "duration": 0.16666649999999095
        },
        {
          "name": "E3",
          "midi": 52,
          "time": 134.13528253124974,
          "velocity": 0.7874015748031497,
          "duration": 0.16666649999999095
        },
        {
          "name": "A3",
          "midi": 57,
          "time": 134.30194903124973,
          "velocity": 0.7874015748031497,
          "duration": 0.16666649999999095
        },
        {
          "name": "G3",
          "midi": 55,
          "time": 134.46861553124972,
          "velocity": 0.7874015748031497,
          "duration": 0.16666649999999095
        },
        {
          "name": "G3",
          "midi": 55,
          "time": 134.63528203124972,
          "velocity": 0.7874015748031497,
          "duration": 0.16666649999999095
        },
        {
          "name": "F3",
          "midi": 53,
          "time": 134.8019485312497,
          "velocity": 0.7874015748031497,
          "duration": 0.16666649999999095
        },
        {
          "name": "E3",
          "midi": 52,
          "time": 134.9686150312497,
          "velocity": 0.7874015748031497,
          "duration": 0.16666649999999095
        },
        {
          "name": "F3",
          "midi": 53,
          "time": 135.1352815312497,
          "velocity": 0.7874015748031497,
          "duration": 0.16666649999999095
        },
        {
          "name": "F3",
          "midi": 53,
          "time": 135.30194803124968,
          "velocity": 0.7874015748031497,
          "duration": 0.16666649999999095
        },
        {
          "name": "E3",
          "midi": 52,
          "time": 135.46861453124967,
          "velocity": 0.7874015748031497,
          "duration": 0.16666649999999095
        },
        {
          "name": "A3",
          "midi": 57,
          "time": 135.63528103124966,
          "velocity": 0.7874015748031497,
          "duration": 0.16666649999999095
        },
        {
          "name": "G3",
          "midi": 55,
          "time": 135.80194753124965,
          "velocity": 0.7874015748031497,
          "duration": 0.16666649999999095
        },
        {
          "name": "G3",
          "midi": 55,
          "time": 135.96861403124964,
          "velocity": 0.7874015748031497,
          "duration": 0.16666649999999095
        },
        {
          "name": "F3",
          "midi": 53,
          "time": 136.13528053124963,
          "velocity": 0.7874015748031497,
          "duration": 0.3333330000000103
        },
        {
          "name": "A3",
          "midi": 57,
          "time": 136.46861353124964,
          "velocity": 0.7874015748031497,
          "duration": 0.49999950000000126
        },
        {
          "name": "A3",
          "midi": 57,
          "time": 136.96861303124965,
          "velocity": 0.7874015748031497,
          "duration": 0.49999950000000126
        },
        {
          "name": "E3",
          "midi": 52,
          "time": 137.46861253124965,
          "velocity": 0.7874015748031497,
          "duration": 0.3333330000000103
        },
        {
          "name": "G3",
          "midi": 55,
          "time": 137.80194553124966,
          "velocity": 0.7874015748031497,
          "duration": 1.3333320000000128
        },
        {
          "name": "E3",
          "midi": 52,
          "time": 139.13527753124967,
          "velocity": 0.7874015748031497,
          "duration": 1.3333320000000128
        },
        {
          "name": "B3",
          "midi": 59,
          "time": 139.13527753124967,
          "velocity": 0.7874015748031497,
          "duration": 1.3333320000000128
        },
        {
          "name": "C3",
          "midi": 48,
          "time": 140.46860953124968,
          "velocity": 0.7874015748031497,
          "duration": 1.3333320000000128
        },
        {
          "name": "G3",
          "midi": 55,
          "time": 140.46860953124968,
          "velocity": 0.7874015748031497,
          "duration": 1.3333320000000128
        },
        {
          "name": "G2",
          "midi": 43,
          "time": 141.8019415312497,
          "velocity": 0.7874015748031497,
          "duration": 0.49999950000000126
        },
        {
          "name": "D3",
          "midi": 50,
          "time": 141.8019415312497,
          "velocity": 0.7874015748031497,
          "duration": 0.49999950000000126
        },
        {
          "name": "G2",
          "midi": 43,
          "time": 142.3019410312497,
          "velocity": 0.7874015748031497,
          "duration": 0.49999950000000126
        },
        {
          "name": "D3",
          "midi": 50,
          "time": 142.3019410312497,
          "velocity": 0.7874015748031497,
          "duration": 0.49999950000000126
        },
        {
          "name": "G2",
          "midi": 43,
          "time": 142.8019405312497,
          "velocity": 0.7874015748031497,
          "duration": 0.3333330000000103
        },
        {
          "name": "D3",
          "midi": 50,
          "time": 142.8019405312497,
          "velocity": 0.7874015748031497,
          "duration": 0.3333330000000103
        },
        {
          "name": "D3",
          "midi": 50,
          "time": 143.1352735312497,
          "velocity": 0.7874015748031497,
          "duration": 0.49999950000000126
        },
        {
          "name": "A3",
          "midi": 57,
          "time": 143.1352735312497,
          "velocity": 0.7874015748031497,
          "duration": 0.49999950000000126
        },
        {
          "name": "D3",
          "midi": 50,
          "time": 143.6352730312497,
          "velocity": 0.7874015748031497,
          "duration": 0.49999950000000126
        },
        {
          "name": "A3",
          "midi": 57,
          "time": 143.6352730312497,
          "velocity": 0.7874015748031497,
          "duration": 0.49999950000000126
        },
        {
          "name": "D3",
          "midi": 50,
          "time": 144.1352725312497,
          "velocity": 0.7874015748031497,
          "duration": 0.3333330000000103
        },
        {
          "name": "A3",
          "midi": 57,
          "time": 144.1352725312497,
          "velocity": 0.7874015748031497,
          "duration": 0.3333330000000103
        },
        {
          "name": "E3",
          "midi": 52,
          "time": 144.46860553124972,
          "velocity": 0.7874015748031497,
          "duration": 1.3333320000000128
        },
        {
          "name": "B3",
          "midi": 59,
          "time": 144.46860553124972,
          "velocity": 0.7874015748031497,
          "duration": 1.3333320000000128
        },
        {
          "name": "C3",
          "midi": 48,
          "time": 145.80193753124973,
          "velocity": 0.7874015748031497,
          "duration": 1.3333320000000128
        },
        {
          "name": "G3",
          "midi": 55,
          "time": 145.80193753124973,
          "velocity": 0.7874015748031497,
          "duration": 1.3333320000000128
        },
        {
          "name": "G2",
          "midi": 43,
          "time": 147.13526953124975,
          "velocity": 0.7874015748031497,
          "duration": 1.3333320000000128
        },
        {
          "name": "D3",
          "midi": 50,
          "time": 147.13526953124975,
          "velocity": 0.7874015748031497,
          "duration": 1.3333320000000128
        },
        {
          "name": "D3",
          "midi": 50,
          "time": 148.46860153124976,
          "velocity": 0.7874015748031497,
          "duration": 1.3333320000000128
        },
        {
          "name": "A3",
          "midi": 57,
          "time": 148.46860153124976,
          "velocity": 0.7874015748031497,
          "duration": 1.3333320000000128
        },
        {
          "name": "E3",
          "midi": 52,
          "time": 149.80193353124977,
          "velocity": 0.7874015748031497,
          "duration": 1.3333320000000128
        },
        {
          "name": "B3",
          "midi": 59,
          "time": 149.80193353124977,
          "velocity": 0.7874015748031497,
          "duration": 1.3333320000000128
        },
        {
          "name": "C3",
          "midi": 48,
          "time": 151.1352655312498,
          "velocity": 0.7874015748031497,
          "duration": 1.3333320000000128
        },
        {
          "name": "G3",
          "midi": 55,
          "time": 151.1352655312498,
          "velocity": 0.7874015748031497,
          "duration": 1.3333320000000128
        },
        {
          "name": "G2",
          "midi": 43,
          "time": 152.4685975312498,
          "velocity": 0.7874015748031497,
          "duration": 0.49999950000000126
        },
        {
          "name": "D3",
          "midi": 50,
          "time": 152.4685975312498,
          "velocity": 0.7874015748031497,
          "duration": 0.49999950000000126
        },
        {
          "name": "G2",
          "midi": 43,
          "time": 152.9685970312498,
          "velocity": 0.7874015748031497,
          "duration": 0.49999950000000126
        },
        {
          "name": "D3",
          "midi": 50,
          "time": 152.9685970312498,
          "velocity": 0.7874015748031497,
          "duration": 0.49999950000000126
        },
        {
          "name": "G2",
          "midi": 43,
          "time": 153.4685965312498,
          "velocity": 0.7874015748031497,
          "duration": 0.3333330000000103
        },
        {
          "name": "D3",
          "midi": 50,
          "time": 153.4685965312498,
          "velocity": 0.7874015748031497,
          "duration": 0.3333330000000103
        },
        {
          "name": "D3",
          "midi": 50,
          "time": 153.8019295312498,
          "velocity": 0.7874015748031497,
          "duration": 0.49999950000000126
        },
        {
          "name": "A3",
          "midi": 57,
          "time": 153.8019295312498,
          "velocity": 0.7874015748031497,
          "duration": 0.49999950000000126
        },
        {
          "name": "D3",
          "midi": 50,
          "time": 154.3019290312498,
          "velocity": 0.7874015748031497,
          "duration": 0.49999950000000126
        },
        {
          "name": "A3",
          "midi": 57,
          "time": 154.3019290312498,
          "velocity": 0.7874015748031497,
          "duration": 0.49999950000000126
        },
        {
          "name": "D3",
          "midi": 50,
          "time": 154.8019285312498,
          "velocity": 0.7874015748031497,
          "duration": 0.3333330000000103
        },
        {
          "name": "A3",
          "midi": 57,
          "time": 154.8019285312498,
          "velocity": 0.7874015748031497,
          "duration": 0.3333330000000103
        },
        {
          "name": "C3",
          "midi": 48,
          "time": 155.13526153124982,
          "velocity": 0.7874015748031497,
          "duration": 1.3333320000000128
        },
        {
          "name": "G3",
          "midi": 55,
          "time": 155.13526153124982,
          "velocity": 0.7874015748031497,
          "duration": 1.3333320000000128
        },
        {
          "name": "C3",
          "midi": 48,
          "time": 156.46859353124984,
          "velocity": 0.7874015748031497,
          "duration": 1.3333320000000128
        },
        {
          "name": "G3",
          "midi": 55,
          "time": 156.46859353124984,
          "velocity": 0.7874015748031497,
          "duration": 1.3333320000000128
        },
        {
          "name": "D3",
          "midi": 50,
          "time": 157.80192553124985,
          "velocity": 0.7874015748031497,
          "duration": 1.999998000000005
        },
        {
          "name": "A3",
          "midi": 57,
          "time": 157.80192553124985,
          "velocity": 0.7874015748031497,
          "duration": 1.999998000000005
        },
        {
          "name": "B2",
          "midi": 47,
          "time": 159.80192353124986,
          "velocity": 0.7874015748031497,
          "duration": 0.6666659999999922
        },
        {
          "name": "F#3",
          "midi": 54,
          "time": 159.80192353124986,
          "velocity": 0.7874015748031497,
          "duration": 0.6666659999999922
        },
        {
          "name": "E4",
          "midi": 64,
          "time": 160.46858953124985,
          "velocity": 0.7874015748031497,
          "duration": 0.3333330000000103
        },
        {
          "name": "D4",
          "midi": 62,
          "time": 160.80192253124986,
          "velocity": 0.7874015748031497,
          "duration": 0.16666649999999095
        },
        {
          "name": "E4",
          "midi": 64,
          "time": 160.96858903124985,
          "velocity": 0.7874015748031497,
          "duration": 0.49999950000000126
        },
        {
          "name": "F#4",
          "midi": 66,
          "time": 161.46858853124985,
          "velocity": 0.7874015748031497,
          "duration": 0.3333330000000103
        },
        {
          "name": "G4",
          "midi": 67,
          "time": 161.80192153124986,
          "velocity": 0.7874015748031497,
          "duration": 0.3333330000000103
        },
        {
          "name": "F#4",
          "midi": 66,
          "time": 162.13525453124987,
          "velocity": 0.7874015748031497,
          "duration": 0.3333330000000103
        },
        {
          "name": "E4",
          "midi": 64,
          "time": 162.46858753124988,
          "velocity": 0.7874015748031497,
          "duration": 0.3333330000000103
        },
        {
          "name": "D4",
          "midi": 62,
          "time": 162.8019205312499,
          "velocity": 0.7874015748031497,
          "duration": 0.3333330000000103
        },
        {
          "name": "E4",
          "midi": 64,
          "time": 163.1352535312499,
          "velocity": 0.7874015748031497,
          "duration": 0.3333330000000103
        },
        {
          "name": "D4",
          "midi": 62,
          "time": 163.4685865312499,
          "velocity": 0.7874015748031497,
          "duration": 0.16666649999999095
        },
        {
          "name": "E4",
          "midi": 64,
          "time": 163.6352530312499,
          "velocity": 0.7874015748031497,
          "duration": 0.49999950000000126
        },
        {
          "name": "F#4",
          "midi": 66,
          "time": 164.1352525312499,
          "velocity": 0.7874015748031497,
          "duration": 0.3333330000000103
        },
        {
          "name": "G4",
          "midi": 67,
          "time": 164.46858553124991,
          "velocity": 0.7874015748031497,
          "duration": 0.3333330000000103
        },
        {
          "name": "F#4",
          "midi": 66,
          "time": 164.80191853124992,
          "velocity": 0.7874015748031497,
          "duration": 0.3333330000000103
        },
        {
          "name": "E4",
          "midi": 64,
          "time": 165.13525153124993,
          "velocity": 0.7874015748031497,
          "duration": 0.3333330000000103
        },
        {
          "name": "D4",
          "midi": 62,
          "time": 165.46858453124995,
          "velocity": 0.7874015748031497,
          "duration": 0.3333330000000103
        },
        {
          "name": "E4",
          "midi": 64,
          "time": 165.80191753124996,
          "velocity": 0.7874015748031497,
          "duration": 0.3333330000000103
        },
        {
          "name": "D4",
          "midi": 62,
          "time": 166.13525053124997,
          "velocity": 0.7874015748031497,
          "duration": 0.16666649999999095
        },
        {
          "name": "E4",
          "midi": 64,
          "time": 166.30191703124996,
          "velocity": 0.7874015748031497,
          "duration": 0.49999950000000126
        },
        {
          "name": "F#4",
          "midi": 66,
          "time": 166.80191653124996,
          "velocity": 0.7874015748031497,
          "duration": 0.3333330000000103
        },
        {
          "name": "G4",
          "midi": 67,
          "time": 167.13524953124997,
          "velocity": 0.7874015748031497,
          "duration": 0.3333330000000103
        },
        {
          "name": "F#4",
          "midi": 66,
          "time": 167.46858253124998,
          "velocity": 0.7874015748031497,
          "duration": 0.3333330000000103
        },
        {
          "name": "E4",
          "midi": 64,
          "time": 167.80191553125,
          "velocity": 0.7874015748031497,
          "duration": 0.3333330000000103
        },
        {
          "name": "D4",
          "midi": 62,
          "time": 168.13524853125,
          "velocity": 0.7874015748031497,
          "duration": 0.3333330000000103
        },
        {
          "name": "E4",
          "midi": 64,
          "time": 168.46858153125,
          "velocity": 0.7874015748031497,
          "duration": 0.49999950000000126
        },
        {
          "name": "B3",
          "midi": 59,
          "time": 168.96858103125,
          "velocity": 0.7874015748031497,
          "duration": 2.166664499999996
        },
        {
          "name": "E4",
          "midi": 64,
          "time": 171.13524553125,
          "velocity": 0.7874015748031497,
          "duration": 0.3333330000000103
        },
        {
          "name": "D4",
          "midi": 62,
          "time": 171.46857853125002,
          "velocity": 0.7874015748031497,
          "duration": 0.16666649999999095
        },
        {
          "name": "E4",
          "midi": 64,
          "time": 171.63524503125,
          "velocity": 0.7874015748031497,
          "duration": 0.49999950000000126
        },
        {
          "name": "F#4",
          "midi": 66,
          "time": 172.13524453125,
          "velocity": 0.7874015748031497,
          "duration": 0.3333330000000103
        },
        {
          "name": "G4",
          "midi": 67,
          "time": 172.46857753125002,
          "velocity": 0.7874015748031497,
          "duration": 0.3333330000000103
        },
        {
          "name": "F#4",
          "midi": 66,
          "time": 172.80191053125003,
          "velocity": 0.7874015748031497,
          "duration": 0.3333330000000103
        },
        {
          "name": "E4",
          "midi": 64,
          "time": 173.13524353125004,
          "velocity": 0.7874015748031497,
          "duration": 0.3333330000000103
        },
        {
          "name": "D4",
          "midi": 62,
          "time": 173.46857653125005,
          "velocity": 0.7874015748031497,
          "duration": 0.3333330000000103
        },
        {
          "name": "B4",
          "midi": 71,
          "time": 173.80190953125006,
          "velocity": 0.7874015748031497,
          "duration": 0.3333330000000103
        },
        {
          "name": "A4",
          "midi": 69,
          "time": 174.13524253125007,
          "velocity": 0.7874015748031497,
          "duration": 0.16666649999999095
        },
        {
          "name": "B4",
          "midi": 71,
          "time": 174.30190903125006,
          "velocity": 0.7874015748031497,
          "duration": 0.49999950000000126
        },
        {
          "name": "C5",
          "midi": 72,
          "time": 174.80190853125006,
          "velocity": 0.7874015748031497,
          "duration": 0.3333330000000103
        },
        {
          "name": "D5",
          "midi": 74,
          "time": 175.13524153125007,
          "velocity": 0.7874015748031497,
          "duration": 0.3333330000000103
        },
        {
          "name": "C5",
          "midi": 72,
          "time": 175.46857453125008,
          "velocity": 0.7874015748031497,
          "duration": 0.3333330000000103
        },
        {
          "name": "B4",
          "midi": 71,
          "time": 175.8019075312501,
          "velocity": 0.7874015748031497,
          "duration": 0.3333330000000103
        },
        {
          "name": "A4",
          "midi": 69,
          "time": 176.1352405312501,
          "velocity": 0.7874015748031497,
          "duration": 0.3333330000000103
        },
        {
          "name": "E5",
          "midi": 76,
          "time": 176.46857353125012,
          "velocity": 0.7874015748031497,
          "duration": 0.3333330000000103
        },
        {
          "name": "D5",
          "midi": 74,
          "time": 176.80190653125013,
          "velocity": 0.7874015748031497,
          "duration": 0.16666649999999095
        },
        {
          "name": "E5",
          "midi": 76,
          "time": 176.96857303125012,
          "velocity": 0.7874015748031497,
          "duration": 0.49999950000000126
        },
        {
          "name": "F#5",
          "midi": 78,
          "time": 177.46857253125012,
          "velocity": 0.7874015748031497,
          "duration": 0.3333330000000103
        },
        {
          "name": "G5",
          "midi": 79,
          "time": 177.80190553125013,
          "velocity": 0.7874015748031497,
          "duration": 0.3333330000000103
        },
        {
          "name": "F#5",
          "midi": 78,
          "time": 178.13523853125014,
          "velocity": 0.7874015748031497,
          "duration": 0.3333330000000103
        },
        {
          "name": "E5",
          "midi": 76,
          "time": 178.46857153125015,
          "velocity": 0.7874015748031497,
          "duration": 0.3333330000000103
        },
        {
          "name": "F#5",
          "midi": 78,
          "time": 178.80190453125016,
          "velocity": 0.7874015748031497,
          "duration": 0.3333330000000103
        },
        {
          "name": "G5",
          "midi": 79,
          "time": 179.13523753125017,
          "velocity": 0.7874015748031497,
          "duration": 0.49999950000000126
        },
        {
          "name": "E5",
          "midi": 76,
          "time": 179.63523703125017,
          "velocity": 0.7874015748031497,
          "duration": 2.0833312499999863
        },
        {
          "name": "E5",
          "midi": 76,
          "time": 181.80190153125017,
          "velocity": 0.7874015748031497,
          "duration": 0.11111099999999396
        },
        {
          "name": "A4",
          "midi": 69,
          "time": 181.91301253125016,
          "velocity": 0.7874015748031497,
          "duration": 0.11111099999999396
        },
        {
          "name": "C5",
          "midi": 72,
          "time": 182.02412353125015,
          "velocity": 0.7874015748031497,
          "duration": 0.11111099999999396
        },
        {
          "name": "F5",
          "midi": 77,
          "time": 182.13523453125015,
          "velocity": 0.7874015748031497,
          "duration": 0.11111099999999396
        },
        {
          "name": "A4",
          "midi": 69,
          "time": 182.24634553125014,
          "velocity": 0.7874015748031497,
          "duration": 0.11111099999999396
        },
        {
          "name": "C5",
          "midi": 72,
          "time": 182.35745653125014,
          "velocity": 0.7874015748031497,
          "duration": 0.11111099999999396
        },
        {
          "name": "E5",
          "midi": 76,
          "time": 182.46856753125013,
          "velocity": 0.7874015748031497,
          "duration": 0.11111099999999396
        },
        {
          "name": "A4",
          "midi": 69,
          "time": 182.57967853125012,
          "velocity": 0.7874015748031497,
          "duration": 0.11111099999999396
        },
        {
          "name": "C5",
          "midi": 72,
          "time": 182.69078953125012,
          "velocity": 0.7874015748031497,
          "duration": 0.11111099999999396
        },
        {
          "name": "F5",
          "midi": 77,
          "time": 182.8019005312501,
          "velocity": 0.7874015748031497,
          "duration": 0.11111099999999396
        },
        {
          "name": "A4",
          "midi": 69,
          "time": 182.9130115312501,
          "velocity": 0.7874015748031497,
          "duration": 0.11111099999999396
        },
        {
          "name": "C5",
          "midi": 72,
          "time": 183.0241225312501,
          "velocity": 0.7874015748031497,
          "duration": 0.11111099999999396
        },
        {
          "name": "E5",
          "midi": 76,
          "time": 183.1352335312501,
          "velocity": 0.7874015748031497,
          "duration": 0.11111099999999396
        },
        {
          "name": "A4",
          "midi": 69,
          "time": 183.2463445312501,
          "velocity": 0.7874015748031497,
          "duration": 0.11111099999999396
        },
        {
          "name": "C5",
          "midi": 72,
          "time": 183.35745553125008,
          "velocity": 0.7874015748031497,
          "duration": 0.11111099999999396
        },
        {
          "name": "F5",
          "midi": 77,
          "time": 183.46856653125008,
          "velocity": 0.7874015748031497,
          "duration": 0.11111099999999396
        },
        {
          "name": "A4",
          "midi": 69,
          "time": 183.57967753125007,
          "velocity": 0.7874015748031497,
          "duration": 0.11111099999999396
        },
        {
          "name": "C5",
          "midi": 72,
          "time": 183.69078853125006,
          "velocity": 0.7874015748031497,
          "duration": 0.11111099999999396
        },
        {
          "name": "E5",
          "midi": 76,
          "time": 183.80120508750005,
          "velocity": 0.7874015748031497,
          "duration": 0.11111099999999396
        },
        {
          "name": "A4",
          "midi": 69,
          "time": 183.91231608750005,
          "velocity": 0.7874015748031497,
          "duration": 0.11111099999999396
        },
        {
          "name": "C5",
          "midi": 72,
          "time": 184.02342708750004,
          "velocity": 0.7874015748031497,
          "duration": 0.11111099999999396
        },
        {
          "name": "D5",
          "midi": 74,
          "time": 184.13523253125004,
          "velocity": 0.7874015748031497,
          "duration": 0.11111099999999396
        },
        {
          "name": "A4",
          "midi": 69,
          "time": 184.24564908750003,
          "velocity": 0.7874015748031497,
          "duration": 0.11111099999999396
        },
        {
          "name": "C5",
          "midi": 72,
          "time": 184.35676008750002,
          "velocity": 0.7874015748031497,
          "duration": 0.11111099999999396
        },
        {
          "name": "E5",
          "midi": 76,
          "time": 184.46787108750001,
          "velocity": 0.7874015748031497,
          "duration": 0.11111099999999396
        },
        {
          "name": "A4",
          "midi": 69,
          "time": 184.5789820875,
          "velocity": 0.7874015748031497,
          "duration": 0.11111099999999396
        },
        {
          "name": "C5",
          "midi": 72,
          "time": 184.6900930875,
          "velocity": 0.7874015748031497,
          "duration": 0.11111099999999396
        },
        {
          "name": "F5",
          "midi": 77,
          "time": 184.8012040875,
          "velocity": 0.7874015748031497,
          "duration": 0.11111099999999396
        },
        {
          "name": "A4",
          "midi": 69,
          "time": 184.9123150875,
          "velocity": 0.7874015748031497,
          "duration": 0.11111099999999396
        },
        {
          "name": "C5",
          "midi": 72,
          "time": 185.02342608749998,
          "velocity": 0.7874015748031497,
          "duration": 0.11111099999999396
        },
        {
          "name": "E5",
          "midi": 76,
          "time": 185.13453708749998,
          "velocity": 0.7874015748031497,
          "duration": 0.11111099999999396
        },
        {
          "name": "A4",
          "midi": 69,
          "time": 185.24564808749997,
          "velocity": 0.7874015748031497,
          "duration": 0.11111099999999396
        },
        {
          "name": "C5",
          "midi": 72,
          "time": 185.35675908749997,
          "velocity": 0.7874015748031497,
          "duration": 0.11111099999999396
        },
        {
          "name": "F5",
          "midi": 77,
          "time": 185.46787008749996,
          "velocity": 0.7874015748031497,
          "duration": 0.11111099999999396
        },
        {
          "name": "A4",
          "midi": 69,
          "time": 185.57898108749995,
          "velocity": 0.7874015748031497,
          "duration": 0.11111099999999396
        },
        {
          "name": "C5",
          "midi": 72,
          "time": 185.69009208749995,
          "velocity": 0.7874015748031497,
          "duration": 0.11111099999999396
        },
        {
          "name": "G5",
          "midi": 79,
          "time": 185.80189753124995,
          "velocity": 0.7874015748031497,
          "duration": 0.11111099999999396
        },
        {
          "name": "A4",
          "midi": 69,
          "time": 185.91231408749994,
          "velocity": 0.7874015748031497,
          "duration": 0.11111099999999396
        },
        {
          "name": "C5",
          "midi": 72,
          "time": 186.02342508749993,
          "velocity": 0.7874015748031497,
          "duration": 0.11111099999999396
        },
        {
          "name": "F5",
          "midi": 77,
          "time": 186.13453608749992,
          "velocity": 0.7874015748031497,
          "duration": 0.11111099999999396
        },
        {
          "name": "A4",
          "midi": 69,
          "time": 186.24564708749992,
          "velocity": 0.7874015748031497,
          "duration": 0.11111099999999396
        },
        {
          "name": "C5",
          "midi": 72,
          "time": 186.3567580874999,
          "velocity": 0.7874015748031497,
          "duration": 0.11111099999999396
        },
        {
          "name": "E5",
          "midi": 76,
          "time": 186.4671746437499,
          "velocity": 0.7874015748031497,
          "duration": 0.11111099999999396
        },
        {
          "name": "A4",
          "midi": 69,
          "time": 186.5782856437499,
          "velocity": 0.7874015748031497,
          "duration": 0.11111099999999396
        },
        {
          "name": "C5",
          "midi": 72,
          "time": 186.6893966437499,
          "velocity": 0.7874015748031497,
          "duration": 0.11111099999999396
        },
        {
          "name": "D5",
          "midi": 74,
          "time": 186.8012020874999,
          "velocity": 0.7874015748031497,
          "duration": 0.11111099999999396
        },
        {
          "name": "A4",
          "midi": 69,
          "time": 186.91161864374988,
          "velocity": 0.7874015748031497,
          "duration": 0.11111099999999396
        },
        {
          "name": "C5",
          "midi": 72,
          "time": 187.02272964374987,
          "velocity": 0.7874015748031497,
          "duration": 0.11111099999999396
        },
        {
          "name": "E5",
          "midi": 76,
          "time": 187.13522953124988,
          "velocity": 0.7874015748031497,
          "duration": 0.11111099999999396
        },
        {
          "name": "A4",
          "midi": 69,
          "time": 187.24634053124987,
          "velocity": 0.7874015748031497,
          "duration": 0.11111099999999396
        },
        {
          "name": "C5",
          "midi": 72,
          "time": 187.35745153124986,
          "velocity": 0.7874015748031497,
          "duration": 0.11111099999999396
        },
        {
          "name": "F5",
          "midi": 77,
          "time": 187.46856253124986,
          "velocity": 0.7874015748031497,
          "duration": 0.11111099999999396
        },
        {
          "name": "A4",
          "midi": 69,
          "time": 187.57967353124985,
          "velocity": 0.7874015748031497,
          "duration": 0.11111099999999396
        },
        {
          "name": "C5",
          "midi": 72,
          "time": 187.69078453124985,
          "velocity": 0.7874015748031497,
          "duration": 0.11111099999999396
        },
        {
          "name": "E5",
          "midi": 76,
          "time": 187.80189553124984,
          "velocity": 0.7874015748031497,
          "duration": 0.11111099999999396
        },
        {
          "name": "A4",
          "midi": 69,
          "time": 187.91300653124983,
          "velocity": 0.7874015748031497,
          "duration": 0.11111099999999396
        },
        {
          "name": "C5",
          "midi": 72,
          "time": 188.02411753124983,
          "velocity": 0.7874015748031497,
          "duration": 0.11111099999999396
        },
        {
          "name": "F5",
          "midi": 77,
          "time": 188.13522853124982,
          "velocity": 0.7874015748031497,
          "duration": 0.11111099999999396
        },
        {
          "name": "A4",
          "midi": 69,
          "time": 188.24633953124982,
          "velocity": 0.7874015748031497,
          "duration": 0.11111099999999396
        },
        {
          "name": "C5",
          "midi": 72,
          "time": 188.3574505312498,
          "velocity": 0.7874015748031497,
          "duration": 0.11111099999999396
        },
        {
          "name": "E5",
          "midi": 76,
          "time": 188.4685615312498,
          "velocity": 0.7874015748031497,
          "duration": 0.11111099999999396
        },
        {
          "name": "A4",
          "midi": 69,
          "time": 188.5796725312498,
          "velocity": 0.7874015748031497,
          "duration": 0.11111099999999396
        },
        {
          "name": "C5",
          "midi": 72,
          "time": 188.6907835312498,
          "velocity": 0.7874015748031497,
          "duration": 0.11111099999999396
        },
        {
          "name": "F5",
          "midi": 77,
          "time": 188.8018945312498,
          "velocity": 0.7874015748031497,
          "duration": 0.11111099999999396
        },
        {
          "name": "A4",
          "midi": 69,
          "time": 188.91300553124978,
          "velocity": 0.7874015748031497,
          "duration": 0.11111099999999396
        },
        {
          "name": "C5",
          "midi": 72,
          "time": 189.02411653124977,
          "velocity": 0.7874015748031497,
          "duration": 0.11111099999999396
        },
        {
          "name": "E5",
          "midi": 76,
          "time": 189.13453308749976,
          "velocity": 0.7874015748031497,
          "duration": 0.11111099999999396
        },
        {
          "name": "A4",
          "midi": 69,
          "time": 189.24564408749976,
          "velocity": 0.7874015748031497,
          "duration": 0.11111099999999396
        },
        {
          "name": "C5",
          "midi": 72,
          "time": 189.35675508749975,
          "velocity": 0.7874015748031497,
          "duration": 0.11111099999999396
        },
        {
          "name": "D5",
          "midi": 74,
          "time": 189.46856053124975,
          "velocity": 0.7874015748031497,
          "duration": 0.11111099999999396
        },
        {
          "name": "A4",
          "midi": 69,
          "time": 189.57897708749974,
          "velocity": 0.7874015748031497,
          "duration": 0.11111099999999396
        },
        {
          "name": "C5",
          "midi": 72,
          "time": 189.69008808749973,
          "velocity": 0.7874015748031497,
          "duration": 0.11111099999999396
        },
        {
          "name": "C5",
          "midi": 72,
          "time": 189.80189353124973,
          "velocity": 0.7874015748031497,
          "duration": 0.16666649999999095
        },
        {
          "name": "C5",
          "midi": 72,
          "time": 189.96856003124972,
          "velocity": 0.7874015748031497,
          "duration": 0.16666649999999095
        },
        {
          "name": "B4",
          "midi": 71,
          "time": 190.1352265312497,
          "velocity": 0.7874015748031497,
          "duration": 0.16666649999999095
        },
        {
          "name": "A4",
          "midi": 69,
          "time": 190.3018930312497,
          "velocity": 0.7874015748031497,
          "duration": 0.16666649999999095
        },
        {
          "name": "B4",
          "midi": 71,
          "time": 190.4685595312497,
          "velocity": 0.7874015748031497,
          "duration": 0.0006944437500067124
        },
        {
          "name": "B4",
          "midi": 71,
          "time": 190.4685595312497,
          "velocity": 0.7874015748031497,
          "duration": 0.16666650000001937
        },
        {
          "name": "D5",
          "midi": 74,
          "time": 190.63522603124972,
          "velocity": 0.7874015748031497,
          "duration": 0.16666649999999095
        },
        {
          "name": "C5",
          "midi": 72,
          "time": 190.8018925312497,
          "velocity": 0.7874015748031497,
          "duration": 0.16666649999999095
        },
        {
          "name": "B4",
          "midi": 71,
          "time": 190.9685590312497,
          "velocity": 0.7874015748031497,
          "duration": 0.16666649999999095
        },
        {
          "name": "E5",
          "midi": 76,
          "time": 191.1352255312497,
          "velocity": 0.7874015748031497,
          "duration": 0.16666649999999095
        },
        {
          "name": "E5",
          "midi": 76,
          "time": 191.30189203124968,
          "velocity": 0.7874015748031497,
          "duration": 0.16666649999999095
        },
        {
          "name": "D5",
          "midi": 74,
          "time": 191.46855853124967,
          "velocity": 0.7874015748031497,
          "duration": 0.16666649999999095
        },
        {
          "name": "C5",
          "midi": 72,
          "time": 191.63522503124966,
          "velocity": 0.7874015748031497,
          "duration": 0.16666649999999095
        },
        {
          "name": "D5",
          "midi": 74,
          "time": 191.80189153124965,
          "velocity": 0.7874015748031497,
          "duration": 0.16666649999999095
        },
        {
          "name": "E5",
          "midi": 76,
          "time": 191.96855803124964,
          "velocity": 0.7874015748031497,
          "duration": 0.16666649999999095
        },
        {
          "name": "E5",
          "midi": 76,
          "time": 192.13522453124963,
          "velocity": 0.7874015748031497,
          "duration": 0.24999975000000063
        },
        {
          "name": "E5",
          "midi": 76,
          "time": 192.46855753124964,
          "velocity": 0.7874015748031497,
          "duration": 0.11111099999999396
        },
        {
          "name": "A4",
          "midi": 69,
          "time": 192.57966853124964,
          "velocity": 0.7874015748031497,
          "duration": 0.11111099999999396
        },
        {
          "name": "C5",
          "midi": 72,
          "time": 192.69077953124963,
          "velocity": 0.7874015748031497,
          "duration": 0.11111099999999396
        },
        {
          "name": "F5",
          "midi": 77,
          "time": 192.80189053124963,
          "velocity": 0.7874015748031497,
          "duration": 0.11111099999999396
        },
        {
          "name": "A4",
          "midi": 69,
          "time": 192.91300153124962,
          "velocity": 0.7874015748031497,
          "duration": 0.11111099999999396
        },
        {
          "name": "C5",
          "midi": 72,
          "time": 193.0241125312496,
          "velocity": 0.7874015748031497,
          "duration": 0.11111099999999396
        },
        {
          "name": "E5",
          "midi": 76,
          "time": 193.1352235312496,
          "velocity": 0.7874015748031497,
          "duration": 0.11111099999999396
        },
        {
          "name": "A4",
          "midi": 69,
          "time": 193.2463345312496,
          "velocity": 0.7874015748031497,
          "duration": 0.11111099999999396
        },
        {
          "name": "C5",
          "midi": 72,
          "time": 193.3574455312496,
          "velocity": 0.7874015748031497,
          "duration": 0.11111099999999396
        },
        {
          "name": "F5",
          "midi": 77,
          "time": 193.4685565312496,
          "velocity": 0.7874015748031497,
          "duration": 0.11111099999999396
        },
        {
          "name": "A4",
          "midi": 69,
          "time": 193.57966753124958,
          "velocity": 0.7874015748031497,
          "duration": 0.11111099999999396
        },
        {
          "name": "C5",
          "midi": 72,
          "time": 193.69077853124958,
          "velocity": 0.7874015748031497,
          "duration": 0.11111099999999396
        },
        {
          "name": "E5",
          "midi": 76,
          "time": 193.80188953124957,
          "velocity": 0.7874015748031497,
          "duration": 0.11111099999999396
        },
        {
          "name": "A4",
          "midi": 69,
          "time": 193.91300053124957,
          "velocity": 0.7874015748031497,
          "duration": 0.11111099999999396
        },
        {
          "name": "C5",
          "midi": 72,
          "time": 194.02411153124956,
          "velocity": 0.7874015748031497,
          "duration": 0.11111099999999396
        },
        {
          "name": "F5",
          "midi": 77,
          "time": 194.13522253124955,
          "velocity": 0.7874015748031497,
          "duration": 0.11111099999999396
        },
        {
          "name": "A4",
          "midi": 69,
          "time": 194.24633353124955,
          "velocity": 0.7874015748031497,
          "duration": 0.11111099999999396
        },
        {
          "name": "C5",
          "midi": 72,
          "time": 194.35744453124954,
          "velocity": 0.7874015748031497,
          "duration": 0.11111099999999396
        },
        {
          "name": "E5",
          "midi": 76,
          "time": 194.46786108749953,
          "velocity": 0.7874015748031497,
          "duration": 0.11111099999999396
        },
        {
          "name": "A4",
          "midi": 69,
          "time": 194.57897208749952,
          "velocity": 0.7874015748031497,
          "duration": 0.11111099999999396
        },
        {
          "name": "C5",
          "midi": 72,
          "time": 194.69008308749952,
          "velocity": 0.7874015748031497,
          "duration": 0.11111099999999396
        },
        {
          "name": "D5",
          "midi": 74,
          "time": 194.80188853124952,
          "velocity": 0.7874015748031497,
          "duration": 0.11111099999999396
        },
        {
          "name": "A4",
          "midi": 69,
          "time": 194.9123050874995,
          "velocity": 0.7874015748031497,
          "duration": 0.11111099999999396
        },
        {
          "name": "C5",
          "midi": 72,
          "time": 195.0234160874995,
          "velocity": 0.7874015748031497,
          "duration": 0.11111099999999396
        },
        {
          "name": "E5",
          "midi": 76,
          "time": 195.1345270874995,
          "velocity": 0.7874015748031497,
          "duration": 0.11111099999999396
        },
        {
          "name": "A4",
          "midi": 69,
          "time": 195.2456380874995,
          "velocity": 0.7874015748031497,
          "duration": 0.11111099999999396
        },
        {
          "name": "C5",
          "midi": 72,
          "time": 195.35674908749948,
          "velocity": 0.7874015748031497,
          "duration": 0.11111099999999396
        },
        {
          "name": "F5",
          "midi": 77,
          "time": 195.46786008749947,
          "velocity": 0.7874015748031497,
          "duration": 0.11111099999999396
        },
        {
          "name": "A4",
          "midi": 69,
          "time": 195.57897108749947,
          "velocity": 0.7874015748031497,
          "duration": 0.11111099999999396
        },
        {
          "name": "C5",
          "midi": 72,
          "time": 195.69008208749946,
          "velocity": 0.7874015748031497,
          "duration": 0.11111099999999396
        },
        {
          "name": "E5",
          "midi": 76,
          "time": 195.80119308749946,
          "velocity": 0.7874015748031497,
          "duration": 0.11111099999999396
        },
        {
          "name": "A4",
          "midi": 69,
          "time": 195.91230408749945,
          "velocity": 0.7874015748031497,
          "duration": 0.11111099999999396
        },
        {
          "name": "C5",
          "midi": 72,
          "time": 196.02341508749944,
          "velocity": 0.7874015748031497,
          "duration": 0.11111099999999396
        },
        {
          "name": "F5",
          "midi": 77,
          "time": 196.13452608749944,
          "velocity": 0.7874015748031497,
          "duration": 0.11111099999999396
        },
        {
          "name": "A4",
          "midi": 69,
          "time": 196.24563708749943,
          "velocity": 0.7874015748031497,
          "duration": 0.11111099999999396
        },
        {
          "name": "C5",
          "midi": 72,
          "time": 196.35674808749943,
          "velocity": 0.7874015748031497,
          "duration": 0.11111099999999396
        },
        {
          "name": "G5",
          "midi": 79,
          "time": 196.46855353124943,
          "velocity": 0.7874015748031497,
          "duration": 0.11111099999999396
        },
        {
          "name": "A4",
          "midi": 69,
          "time": 196.5789700874994,
          "velocity": 0.7874015748031497,
          "duration": 0.11111099999999396
        },
        {
          "name": "C5",
          "midi": 72,
          "time": 196.6900810874994,
          "velocity": 0.7874015748031497,
          "duration": 0.11111099999999396
        },
        {
          "name": "F5",
          "midi": 77,
          "time": 196.8011920874994,
          "velocity": 0.7874015748031497,
          "duration": 0.11111099999999396
        },
        {
          "name": "A4",
          "midi": 69,
          "time": 196.9123030874994,
          "velocity": 0.7874015748031497,
          "duration": 0.11111099999999396
        },
        {
          "name": "C5",
          "midi": 72,
          "time": 197.0234140874994,
          "velocity": 0.7874015748031497,
          "duration": 0.11111099999999396
        },
        {
          "name": "E5",
          "midi": 76,
          "time": 197.13383064374938,
          "velocity": 0.7874015748031497,
          "duration": 0.11111099999999396
        },
        {
          "name": "A4",
          "midi": 69,
          "time": 197.24494164374937,
          "velocity": 0.7874015748031497,
          "duration": 0.11111099999999396
        },
        {
          "name": "C5",
          "midi": 72,
          "time": 197.35605264374936,
          "velocity": 0.7874015748031497,
          "duration": 0.11111099999999396
        },
        {
          "name": "D5",
          "midi": 74,
          "time": 197.46785808749937,
          "velocity": 0.7874015748031497,
          "duration": 0.11111099999999396
        },
        {
          "name": "A4",
          "midi": 69,
          "time": 197.57827464374935,
          "velocity": 0.7874015748031497,
          "duration": 0.11111099999999396
        },
        {
          "name": "C5",
          "midi": 72,
          "time": 197.68938564374935,
          "velocity": 0.7874015748031497,
          "duration": 0.11111099999999396
        },
        {
          "name": "E5",
          "midi": 76,
          "time": 197.80188553124935,
          "velocity": 0.7874015748031497,
          "duration": 0.11111099999999396
        },
        {
          "name": "A4",
          "midi": 69,
          "time": 197.91299653124935,
          "velocity": 0.7874015748031497,
          "duration": 0.11111099999999396
        },
        {
          "name": "C5",
          "midi": 72,
          "time": 198.02410753124934,
          "velocity": 0.7874015748031497,
          "duration": 0.11111099999999396
        },
        {
          "name": "F5",
          "midi": 77,
          "time": 198.13521853124934,
          "velocity": 0.7874015748031497,
          "duration": 0.11111099999999396
        },
        {
          "name": "A4",
          "midi": 69,
          "time": 198.24632953124933,
          "velocity": 0.7874015748031497,
          "duration": 0.11111099999999396
        },
        {
          "name": "C5",
          "midi": 72,
          "time": 198.35744053124932,
          "velocity": 0.7874015748031497,
          "duration": 0.11111099999999396
        },
        {
          "name": "E5",
          "midi": 76,
          "time": 198.46855153124932,
          "velocity": 0.7874015748031497,
          "duration": 0.11111099999999396
        },
        {
          "name": "A4",
          "midi": 69,
          "time": 198.5796625312493,
          "velocity": 0.7874015748031497,
          "duration": 0.11111099999999396
        },
        {
          "name": "C5",
          "midi": 72,
          "time": 198.6907735312493,
          "velocity": 0.7874015748031497,
          "duration": 0.11111099999999396
        },
        {
          "name": "F5",
          "midi": 77,
          "time": 198.8018845312493,
          "velocity": 0.7874015748031497,
          "duration": 0.11111099999999396
        },
        {
          "name": "A4",
          "midi": 69,
          "time": 198.9129955312493,
          "velocity": 0.7874015748031497,
          "duration": 0.11111099999999396
        },
        {
          "name": "C5",
          "midi": 72,
          "time": 199.0241065312493,
          "velocity": 0.7874015748031497,
          "duration": 0.11111099999999396
        },
        {
          "name": "E5",
          "midi": 76,
          "time": 199.13521753124928,
          "velocity": 0.7874015748031497,
          "duration": 0.11111099999999396
        },
        {
          "name": "A4",
          "midi": 69,
          "time": 199.24632853124928,
          "velocity": 0.7874015748031497,
          "duration": 0.11111099999999396
        },
        {
          "name": "C5",
          "midi": 72,
          "time": 199.35743953124927,
          "velocity": 0.7874015748031497,
          "duration": 0.11111099999999396
        },
        {
          "name": "F5",
          "midi": 77,
          "time": 199.46855053124926,
          "velocity": 0.7874015748031497,
          "duration": 0.11111099999999396
        },
        {
          "name": "A4",
          "midi": 69,
          "time": 199.57966153124926,
          "velocity": 0.7874015748031497,
          "duration": 0.11111099999999396
        },
        {
          "name": "C5",
          "midi": 72,
          "time": 199.69077253124925,
          "velocity": 0.7874015748031497,
          "duration": 0.11111099999999396
        },
        {
          "name": "E5",
          "midi": 76,
          "time": 199.80118908749924,
          "velocity": 0.7874015748031497,
          "duration": 0.11111099999999396
        },
        {
          "name": "A4",
          "midi": 69,
          "time": 199.91230008749923,
          "velocity": 0.7874015748031497,
          "duration": 0.11111099999999396
        },
        {
          "name": "C5",
          "midi": 72,
          "time": 200.02341108749923,
          "velocity": 0.7874015748031497,
          "duration": 0.11111099999999396
        },
        {
          "name": "D5",
          "midi": 74,
          "time": 200.13521653124923,
          "velocity": 0.7874015748031497,
          "duration": 0.11111099999999396
        },
        {
          "name": "A4",
          "midi": 69,
          "time": 200.24563308749921,
          "velocity": 0.7874015748031497,
          "duration": 0.11111099999999396
        },
        {
          "name": "C5",
          "midi": 72,
          "time": 200.3567440874992,
          "velocity": 0.7874015748031497,
          "duration": 0.11111099999999396
        },
        {
          "name": "C5",
          "midi": 72,
          "time": 200.4685495312492,
          "velocity": 0.7874015748031497,
          "duration": 0.16666649999999095
        },
        {
          "name": "C5",
          "midi": 72,
          "time": 200.6352160312492,
          "velocity": 0.7874015748031497,
          "duration": 0.16666649999999095
        },
        {
          "name": "B4",
          "midi": 71,
          "time": 200.8018825312492,
          "velocity": 0.7874015748031497,
          "duration": 0.16666649999999095
        },
        {
          "name": "A4",
          "midi": 69,
          "time": 200.96854903124918,
          "velocity": 0.7874015748031497,
          "duration": 0.16666649999999095
        },
        {
          "name": "B4",
          "midi": 71,
          "time": 201.13521553124917,
          "velocity": 0.7874015748031497,
          "duration": 0.0006944437500067124
        },
        {
          "name": "B4",
          "midi": 71,
          "time": 201.13521553124917,
          "velocity": 0.7874015748031497,
          "duration": 0.16666650000001937
        },
        {
          "name": "D5",
          "midi": 74,
          "time": 201.3018820312492,
          "velocity": 0.7874015748031497,
          "duration": 0.16666649999999095
        },
        {
          "name": "C5",
          "midi": 72,
          "time": 201.46854853124918,
          "velocity": 0.7874015748031497,
          "duration": 0.16666649999999095
        },
        {
          "name": "B4",
          "midi": 71,
          "time": 201.63521503124917,
          "velocity": 0.7874015748031497,
          "duration": 0.16666649999999095
        },
        {
          "name": "E5",
          "midi": 76,
          "time": 201.80188153124917,
          "velocity": 0.7874015748031497,
          "duration": 0.16666649999999095
        },
        {
          "name": "E5",
          "midi": 76,
          "time": 201.96854803124916,
          "velocity": 0.7874015748031497,
          "duration": 0.16666649999999095
        },
        {
          "name": "D5",
          "midi": 74,
          "time": 202.13521453124915,
          "velocity": 0.7874015748031497,
          "duration": 0.16666649999999095
        },
        {
          "name": "C5",
          "midi": 72,
          "time": 202.30188103124914,
          "velocity": 0.7874015748031497,
          "duration": 0.16666649999999095
        },
        {
          "name": "E5",
          "midi": 76,
          "time": 202.46854753124913,
          "velocity": 0.7874015748031497,
          "duration": 0.16666649999999095
        },
        {
          "name": "G5",
          "midi": 79,
          "time": 202.63521403124912,
          "velocity": 0.7874015748031497,
          "duration": 0.16666649999999095
        },
        {
          "name": "A5",
          "midi": 81,
          "time": 202.8018805312491,
          "velocity": 0.7874015748031497,
          "duration": 0.24999975000000063
        },
        {
          "name": "D4",
          "midi": 62,
          "time": 203.13521353124912,
          "velocity": 0.7874015748031497,
          "duration": 0.4166662499999916
        },
        {
          "name": "F4",
          "midi": 65,
          "time": 203.13521353124912,
          "velocity": 0.7874015748031497,
          "duration": 0.4166662499999916
        },
        {
          "name": "D4",
          "midi": 62,
          "time": 203.63521303124912,
          "velocity": 0.7874015748031497,
          "duration": 1.1249988749999886
        },
        {
          "name": "F4",
          "midi": 65,
          "time": 203.63521303124912,
          "velocity": 0.7874015748031497,
          "duration": 0.874999124999988
        },
        {
          "name": "F4",
          "midi": 65,
          "time": 204.80187853124912,
          "velocity": 0.7874015748031497,
          "duration": 0.3333330000000103
        },
        {
          "name": "E4",
          "midi": 64,
          "time": 205.13521153124913,
          "velocity": 0.7874015748031497,
          "duration": 0.3333330000000103
        },
        {
          "name": "C4",
          "midi": 60,
          "time": 205.46854453124914,
          "velocity": 0.7874015748031497,
          "duration": 0.3333330000000103
        },
        {
          "name": "D4",
          "midi": 62,
          "time": 205.80187753124915,
          "velocity": 0.7874015748031497,
          "duration": 0.3333330000000103
        },
        {
          "name": "F4",
          "midi": 65,
          "time": 206.13521053124916,
          "velocity": 0.7874015748031497,
          "duration": 0.16666649999999095
        },
        {
          "name": "D4",
          "midi": 62,
          "time": 206.30187703124915,
          "velocity": 0.7874015748031497,
          "duration": 1.8333314999999857
        },
        {
          "name": "D4",
          "midi": 62,
          "time": 208.30187503124912,
          "velocity": 0.7874015748031497,
          "duration": 0.08333325000000968
        },
        {
          "name": "D4",
          "midi": 62,
          "time": 208.46854153124914,
          "velocity": 0.7874015748031497,
          "duration": 0.11111099999999396
        },
        {
          "name": "E4",
          "midi": 64,
          "time": 208.57965253124914,
          "velocity": 0.7874015748031497,
          "duration": 0.11111099999999396
        },
        {
          "name": "D4",
          "midi": 62,
          "time": 208.69076353124913,
          "velocity": 0.7874015748031497,
          "duration": 0.11111099999999396
        },
        {
          "name": "E4",
          "midi": 64,
          "time": 208.80187453124913,
          "velocity": 0.7874015748031497,
          "duration": 0.11111099999999396
        },
        {
          "name": "D4",
          "midi": 62,
          "time": 208.91298553124912,
          "velocity": 0.7874015748031497,
          "duration": 0.11111099999999396
        },
        {
          "name": "E4",
          "midi": 64,
          "time": 209.0240965312491,
          "velocity": 0.7874015748031497,
          "duration": 0.11111099999999396
        },
        {
          "name": "E4",
          "midi": 64,
          "time": 209.1352075312491,
          "velocity": 0.7874015748031497,
          "duration": 0.11111099999999396
        },
        {
          "name": "F4",
          "midi": 65,
          "time": 209.2463185312491,
          "velocity": 0.7874015748031497,
          "duration": 0.11111099999999396
        },
        {
          "name": "E4",
          "midi": 64,
          "time": 209.3574295312491,
          "velocity": 0.7874015748031497,
          "duration": 0.11111099999999396
        },
        {
          "name": "F4",
          "midi": 65,
          "time": 209.4685405312491,
          "velocity": 0.7874015748031497,
          "duration": 0.11111099999999396
        },
        {
          "name": "F4",
          "midi": 65,
          "time": 209.57965153124908,
          "velocity": 0.7874015748031497,
          "duration": 0.11111099999999396
        },
        {
          "name": "G4",
          "midi": 67,
          "time": 209.69076253124908,
          "velocity": 0.7874015748031497,
          "duration": 0.11111099999999396
        },
        {
          "name": "F4",
          "midi": 65,
          "time": 209.80187353124907,
          "velocity": 0.7874015748031497,
          "duration": 0.11111099999999396
        },
        {
          "name": "G4",
          "midi": 67,
          "time": 209.91298453124907,
          "velocity": 0.7874015748031497,
          "duration": 0.11111099999999396
        },
        {
          "name": "G4",
          "midi": 67,
          "time": 210.02409553124906,
          "velocity": 0.7874015748031497,
          "duration": 0.11111099999999396
        },
        {
          "name": "A4",
          "midi": 69,
          "time": 210.13520653124905,
          "velocity": 0.7874015748031497,
          "duration": 0.11111099999999396
        },
        {
          "name": "G4",
          "midi": 67,
          "time": 210.24631753124905,
          "velocity": 0.7874015748031497,
          "duration": 0.11111099999999396
        },
        {
          "name": "A4",
          "midi": 69,
          "time": 210.35742853124904,
          "velocity": 0.7874015748031497,
          "duration": 0.11111099999999396
        },
        {
          "name": "A4",
          "midi": 69,
          "time": 210.46853953124904,
          "velocity": 0.7874015748031497,
          "duration": 0.11111099999999396
        },
        {
          "name": "A#4",
          "midi": 70,
          "time": 210.57965053124903,
          "velocity": 0.7874015748031497,
          "duration": 0.11111099999999396
        },
        {
          "name": "A4",
          "midi": 69,
          "time": 210.69076153124902,
          "velocity": 0.7874015748031497,
          "duration": 0.11111099999999396
        },
        {
          "name": "A#4",
          "midi": 70,
          "time": 210.80187253124902,
          "velocity": 0.7874015748031497,
          "duration": 0.11111099999999396
        },
        {
          "name": "A4",
          "midi": 69,
          "time": 210.912983531249,
          "velocity": 0.7874015748031497,
          "duration": 0.11111099999999396
        },
        {
          "name": "A#4",
          "midi": 70,
          "time": 211.024094531249,
          "velocity": 0.7874015748031497,
          "duration": 0.11111099999999396
        },
        {
          "name": "E5",
          "midi": 76,
          "time": 211.135205531249,
          "velocity": 0.7874015748031497,
          "duration": 0.9583323749999977
        },
        {
          "name": "D5",
          "midi": 74,
          "time": 212.135204531249,
          "velocity": 0.7874015748031497,
          "duration": 0.16666649999999095
        },
        {
          "name": "C5",
          "midi": 72,
          "time": 212.301871031249,
          "velocity": 0.7874015748031497,
          "duration": 0.16666649999999095
        },
        {
          "name": "D5",
          "midi": 74,
          "time": 212.46853753124898,
          "velocity": 0.7874015748031497,
          "duration": 0.9999990000000025
        },
        {
          "name": "D5",
          "midi": 74,
          "time": 213.63520303124898,
          "velocity": 0.7874015748031497,
          "duration": 0.24999975000000063
        },
        {
          "name": "E5",
          "midi": 76,
          "time": 213.968536031249,
          "velocity": 0.7874015748031497,
          "duration": 0.1249998749999861
        },
        {
          "name": "F5",
          "midi": 77,
          "time": 214.13520253124898,
          "velocity": 0.7874015748031497,
          "duration": 0.11111099999999396
        },
        {
          "name": "E5",
          "midi": 76,
          "time": 214.24631353124897,
          "velocity": 0.7874015748031497,
          "duration": 0.05555549999999698
        },
        {
          "name": "D5",
          "midi": 74,
          "time": 214.30186903124897,
          "velocity": 0.7874015748031497,
          "duration": 0.11111099999999396
        },
        {
          "name": "C5",
          "midi": 72,
          "time": 214.46853553124896,
          "velocity": 0.7874015748031497,
          "duration": 0.1249998749999861
        },
        {
          "name": "D5",
          "midi": 74,
          "time": 214.63520203124895,
          "velocity": 0.7874015748031497,
          "duration": 0.3333330000000103
        },
        {
          "name": "D5",
          "midi": 74,
          "time": 214.96853503124896,
          "velocity": 0.7874015748031497,
          "duration": 0.24999975000000063
        },
        {
          "name": "E5",
          "midi": 76,
          "time": 215.30186803124897,
          "velocity": 0.7874015748031497,
          "duration": 0.1249998749999861
        },
        {
          "name": "F5",
          "midi": 77,
          "time": 215.46853453124896,
          "velocity": 0.7874015748031497,
          "duration": 0.11111099999999396
        },
        {
          "name": "E5",
          "midi": 76,
          "time": 215.57964553124896,
          "velocity": 0.7874015748031497,
          "duration": 0.05555549999999698
        },
        {
          "name": "D5",
          "midi": 74,
          "time": 215.63520103124895,
          "velocity": 0.7874015748031497,
          "duration": 0.11111099999999396
        },
        {
          "name": "C5",
          "midi": 72,
          "time": 215.80186753124894,
          "velocity": 0.7874015748031497,
          "duration": 0.1249998749999861
        },
        {
          "name": "D5",
          "midi": 74,
          "time": 215.96853403124894,
          "velocity": 0.7874015748031497,
          "duration": 0.3333330000000103
        },
        {
          "name": "D5",
          "midi": 74,
          "time": 216.30186703124895,
          "velocity": 0.7874015748031497,
          "duration": 0.24999975000000063
        },
        {
          "name": "E5",
          "midi": 76,
          "time": 216.63520003124896,
          "velocity": 0.7874015748031497,
          "duration": 0.1249998749999861
        },
        {
          "name": "F5",
          "midi": 77,
          "time": 216.80186653124895,
          "velocity": 0.7874015748031497,
          "duration": 0.11111099999999396
        },
        {
          "name": "E5",
          "midi": 76,
          "time": 216.91297753124894,
          "velocity": 0.7874015748031497,
          "duration": 0.05555549999999698
        },
        {
          "name": "D5",
          "midi": 74,
          "time": 216.96853303124894,
          "velocity": 0.7874015748031497,
          "duration": 0.11111099999999396
        },
        {
          "name": "C5",
          "midi": 72,
          "time": 217.13519953124893,
          "velocity": 0.7874015748031497,
          "duration": 0.1249998749999861
        },
        {
          "name": "C5",
          "midi": 72,
          "time": 217.13519953124893,
          "velocity": 0.7874015748031497,
          "duration": 0.16666649999999095
        },
        {
          "name": "D5",
          "midi": 74,
          "time": 217.30186603124892,
          "velocity": 0.7874015748031497,
          "duration": 0.16666649999999095
        },
        {
          "name": "A#4",
          "midi": 70,
          "time": 217.4685325312489,
          "velocity": 0.7874015748031497,
          "duration": 0.16666649999999095
        },
        {
          "name": "D5",
          "midi": 74,
          "time": 217.6351990312489,
          "velocity": 0.7874015748031497,
          "duration": 0.16666649999999095
        },
        {
          "name": "A4",
          "midi": 69,
          "time": 217.8018655312489,
          "velocity": 0.7874015748031497,
          "duration": 0.16666649999999095
        },
        {
          "name": "D5",
          "midi": 74,
          "time": 217.96853203124888,
          "velocity": 0.7874015748031497,
          "duration": 0.16666649999999095
        },
        {
          "name": "G4",
          "midi": 67,
          "time": 218.13519853124888,
          "velocity": 0.7874015748031497,
          "duration": 0.16666649999999095
        },
        {
          "name": "D5",
          "midi": 74,
          "time": 218.30186503124887,
          "velocity": 0.7874015748031497,
          "duration": 0.16666649999999095
        },
        {
          "name": "F4",
          "midi": 65,
          "time": 218.46853153124886,
          "velocity": 0.7874015748031497,
          "duration": 0.16666649999999095
        },
        {
          "name": "D5",
          "midi": 74,
          "time": 218.63519803124885,
          "velocity": 0.7874015748031497,
          "duration": 0.16666649999999095
        },
        {
          "name": "E4",
          "midi": 64,
          "time": 218.80186453124884,
          "velocity": 0.7874015748031497,
          "duration": 0.16666649999999095
        },
        {
          "name": "D5",
          "midi": 74,
          "time": 218.96853103124883,
          "velocity": 0.7874015748031497,
          "duration": 0.16666649999999095
        },
        {
          "name": "D5",
          "midi": 74,
          "time": 219.13519753124882,
          "velocity": 0.7874015748031497,
          "duration": 0.08333325000000968
        },
        {
          "name": "E5",
          "midi": 76,
          "time": 219.30186403124884,
          "velocity": 0.7874015748031497,
          "duration": 0.1249998749999861
        },
        {
          "name": "F5",
          "midi": 77,
          "time": 219.46853053124883,
          "velocity": 0.7874015748031497,
          "duration": 0.11111099999999396
        },
        {
          "name": "E5",
          "midi": 76,
          "time": 219.57964153124883,
          "velocity": 0.7874015748031497,
          "duration": 0.05555549999999698
        },
        {
          "name": "D5",
          "midi": 74,
          "time": 219.63519703124882,
          "velocity": 0.7874015748031497,
          "duration": 0.11111099999999396
        },
        {
          "name": "C5",
          "midi": 72,
          "time": 219.8018635312488,
          "velocity": 0.7874015748031497,
          "duration": 0.1249998749999861
        },
        {
          "name": "C5",
          "midi": 72,
          "time": 219.8018635312488,
          "velocity": 0.7874015748031497,
          "duration": 0.16666649999999095
        },
        {
          "name": "D5",
          "midi": 74,
          "time": 219.9685300312488,
          "velocity": 0.7874015748031497,
          "duration": 0.16666649999999095
        },
        {
          "name": "C5",
          "midi": 72,
          "time": 220.1351965312488,
          "velocity": 0.7874015748031497,
          "duration": 0.16666649999999095
        },
        {
          "name": "D5",
          "midi": 74,
          "time": 220.30186303124879,
          "velocity": 0.7874015748031497,
          "duration": 0.16666649999999095
        },
        {
          "name": "A#4",
          "midi": 70,
          "time": 220.46852953124878,
          "velocity": 0.7874015748031497,
          "duration": 0.16666649999999095
        },
        {
          "name": "D5",
          "midi": 74,
          "time": 220.63519603124877,
          "velocity": 0.7874015748031497,
          "duration": 0.16666649999999095
        },
        {
          "name": "A4",
          "midi": 69,
          "time": 220.80186253124876,
          "velocity": 0.7874015748031497,
          "duration": 0.16666649999999095
        },
        {
          "name": "D5",
          "midi": 74,
          "time": 220.96852903124875,
          "velocity": 0.7874015748031497,
          "duration": 0.16666649999999095
        },
        {
          "name": "G4",
          "midi": 67,
          "time": 221.13519553124874,
          "velocity": 0.7874015748031497,
          "duration": 0.16666649999999095
        },
        {
          "name": "D5",
          "midi": 74,
          "time": 221.30186203124873,
          "velocity": 0.7874015748031497,
          "duration": 0.16666649999999095
        },
        {
          "name": "F4",
          "midi": 65,
          "time": 221.46852853124872,
          "velocity": 0.7874015748031497,
          "duration": 0.16666649999999095
        },
        {
          "name": "D5",
          "midi": 74,
          "time": 221.6351950312487,
          "velocity": 0.7874015748031497,
          "duration": 0.16666649999999095
        },
        {
          "name": "D4",
          "midi": 62,
          "time": 221.8018615312487,
          "velocity": 0.7874015748031497,
          "duration": 0.05555549999999698
        },
        {
          "name": "D4",
          "midi": 62,
          "time": 221.8574170312487,
          "velocity": 0.7874015748031497,
          "duration": 0.05555549999999698
        },
        {
          "name": "D4",
          "midi": 62,
          "time": 221.9129725312487,
          "velocity": 0.7874015748031497,
          "duration": 0.05555549999999698
        },
        {
          "name": "D4",
          "midi": 62,
          "time": 221.9685280312487,
          "velocity": 0.7874015748031497,
          "duration": 0.05555549999999698
        },
        {
          "name": "D4",
          "midi": 62,
          "time": 222.0240835312487,
          "velocity": 0.7874015748031497,
          "duration": 0.05555549999999698
        },
        {
          "name": "D4",
          "midi": 62,
          "time": 222.0796390312487,
          "velocity": 0.7874015748031497,
          "duration": 0.05555549999999698
        },
        {
          "name": "E4",
          "midi": 64,
          "time": 222.1351945312487,
          "velocity": 0.7874015748031497,
          "duration": 0.05555549999999698
        },
        {
          "name": "E4",
          "midi": 64,
          "time": 222.19075003124868,
          "velocity": 0.7874015748031497,
          "duration": 0.05555549999999698
        },
        {
          "name": "E4",
          "midi": 64,
          "time": 222.24630553124868,
          "velocity": 0.7874015748031497,
          "duration": 0.05555549999999698
        },
        {
          "name": "E4",
          "midi": 64,
          "time": 222.30186103124868,
          "velocity": 0.7874015748031497,
          "duration": 0.05555549999999698
        },
        {
          "name": "E4",
          "midi": 64,
          "time": 222.35741653124867,
          "velocity": 0.7874015748031497,
          "duration": 0.05555549999999698
        },
        {
          "name": "E4",
          "midi": 64,
          "time": 222.41297203124867,
          "velocity": 0.7874015748031497,
          "duration": 0.05555549999999698
        },
        {
          "name": "F4",
          "midi": 65,
          "time": 222.46852753124867,
          "velocity": 0.7874015748031497,
          "duration": 0.05555549999999698
        },
        {
          "name": "F4",
          "midi": 65,
          "time": 222.52408303124867,
          "velocity": 0.7874015748031497,
          "duration": 0.05555549999999698
        },
        {
          "name": "F4",
          "midi": 65,
          "time": 222.57963853124866,
          "velocity": 0.7874015748031497,
          "duration": 0.05555549999999698
        },
        {
          "name": "F4",
          "midi": 65,
          "time": 222.63519403124866,
          "velocity": 0.7874015748031497,
          "duration": 0.05555549999999698
        },
        {
          "name": "F4",
          "midi": 65,
          "time": 222.69074953124866,
          "velocity": 0.7874015748031497,
          "duration": 0.05555549999999698
        },
        {
          "name": "F4",
          "midi": 65,
          "time": 222.74630503124865,
          "velocity": 0.7874015748031497,
          "duration": 0.05555549999999698
        },
        {
          "name": "G4",
          "midi": 67,
          "time": 222.80186053124865,
          "velocity": 0.7874015748031497,
          "duration": 0.05555549999999698
        },
        {
          "name": "G4",
          "midi": 67,
          "time": 222.85741603124865,
          "velocity": 0.7874015748031497,
          "duration": 0.05555549999999698
        },
        {
          "name": "G4",
          "midi": 67,
          "time": 222.91297153124864,
          "velocity": 0.7874015748031497,
          "duration": 0.05555549999999698
        },
        {
          "name": "G4",
          "midi": 67,
          "time": 222.96852703124864,
          "velocity": 0.7874015748031497,
          "duration": 0.05555549999999698
        },
        {
          "name": "G4",
          "midi": 67,
          "time": 223.02408253124864,
          "velocity": 0.7874015748031497,
          "duration": 0.05555549999999698
        },
        {
          "name": "G4",
          "midi": 67,
          "time": 223.07963803124863,
          "velocity": 0.7874015748031497,
          "duration": 0.05555549999999698
        },
        {
          "name": "A4",
          "midi": 69,
          "time": 223.13519353124863,
          "velocity": 0.7874015748031497,
          "duration": 0.05555549999999698
        },
        {
          "name": "A4",
          "midi": 69,
          "time": 223.19074903124863,
          "velocity": 0.7874015748031497,
          "duration": 0.05555549999999698
        },
        {
          "name": "A4",
          "midi": 69,
          "time": 223.24630453124863,
          "velocity": 0.7874015748031497,
          "duration": 0.05555549999999698
        },
        {
          "name": "A4",
          "midi": 69,
          "time": 223.30186003124862,
          "velocity": 0.7874015748031497,
          "duration": 0.05555549999999698
        },
        {
          "name": "A4",
          "midi": 69,
          "time": 223.35741553124862,
          "velocity": 0.7874015748031497,
          "duration": 0.05555549999999698
        },
        {
          "name": "A4",
          "midi": 69,
          "time": 223.41297103124862,
          "velocity": 0.7874015748031497,
          "duration": 0.05555549999999698
        },
        {
          "name": "A#4",
          "midi": 70,
          "time": 223.4685265312486,
          "velocity": 0.7874015748031497,
          "duration": 0.05555549999999698
        },
        {
          "name": "A#4",
          "midi": 70,
          "time": 223.5240820312486,
          "velocity": 0.7874015748031497,
          "duration": 0.11111099999999396
        },
        {
          "name": "A#4",
          "midi": 70,
          "time": 223.5796375312486,
          "velocity": 0.7874015748031497,
          "duration": 0.05555549999999698
        },
        {
          "name": "A#4",
          "midi": 70,
          "time": 223.6351930312486,
          "velocity": 0.7874015748031497,
          "duration": 0.05555549999999698
        },
        {
          "name": "A#4",
          "midi": 70,
          "time": 223.6907485312486,
          "velocity": 0.7874015748031497,
          "duration": 0.05555549999999698
        },
        {
          "name": "A#4",
          "midi": 70,
          "time": 223.7463040312486,
          "velocity": 0.7874015748031497,
          "duration": 0.05555549999999698
        },
        {
          "name": "C5",
          "midi": 72,
          "time": 223.8018595312486,
          "velocity": 0.7874015748031497,
          "duration": 0.05555549999999698
        },
        {
          "name": "C5",
          "midi": 72,
          "time": 223.8574150312486,
          "velocity": 0.7874015748031497,
          "duration": 0.05555549999999698
        },
        {
          "name": "C5",
          "midi": 72,
          "time": 223.9129705312486,
          "velocity": 0.7874015748031497,
          "duration": 0.05555549999999698
        },
        {
          "name": "C5",
          "midi": 72,
          "time": 223.9685260312486,
          "velocity": 0.7874015748031497,
          "duration": 0.05555549999999698
        },
        {
          "name": "C5",
          "midi": 72,
          "time": 224.02408153124858,
          "velocity": 0.7874015748031497,
          "duration": 0.05555549999999698
        },
        {
          "name": "C5",
          "midi": 72,
          "time": 224.07963703124858,
          "velocity": 0.7874015748031497,
          "duration": 0.05555549999999698
        },
        {
          "name": "D5",
          "midi": 74,
          "time": 224.13519253124858,
          "velocity": 0.7874015748031497,
          "duration": 0.3333330000000103
        },
        {
          "name": "G4",
          "midi": 67,
          "time": 224.4685255312486,
          "velocity": 0.7874015748031497,
          "duration": 0.16666649999999095
        },
        {
          "name": "E4",
          "midi": 64,
          "time": 224.63519203124858,
          "velocity": 0.7874015748031497,
          "duration": 0.08333325000000968
        },
        {
          "name": "E4",
          "midi": 64,
          "time": 224.8018585312486,
          "velocity": 0.7874015748031497,
          "duration": 0.08333325000000968
        },
        {
          "name": "F#4",
          "midi": 66,
          "time": 224.96852503124862,
          "velocity": 0.7874015748031497,
          "duration": 0.16666649999999095
        },
        {
          "name": "E4",
          "midi": 64,
          "time": 225.1351915312486,
          "velocity": 0.7874015748031497,
          "duration": 0.08333325000000968
        },
        {
          "name": "E4",
          "midi": 64,
          "time": 225.30185803124863,
          "velocity": 0.7874015748031497,
          "duration": 0.08333325000000968
        },
        {
          "name": "G4",
          "midi": 67,
          "time": 225.46852453124865,
          "velocity": 0.7874015748031497,
          "duration": 0.16666649999999095
        },
        {
          "name": "E4",
          "midi": 64,
          "time": 225.63519103124864,
          "velocity": 0.7874015748031497,
          "duration": 0.08333325000000968
        },
        {
          "name": "G4",
          "midi": 67,
          "time": 225.80185753124866,
          "velocity": 0.7874015748031497,
          "duration": 0.16666649999999095
        },
        {
          "name": "E4",
          "midi": 64,
          "time": 225.96852403124865,
          "velocity": 0.7874015748031497,
          "duration": 0.08333325000000968
        },
        {
          "name": "E4",
          "midi": 64,
          "time": 226.13519053124867,
          "velocity": 0.7874015748031497,
          "duration": 0.08333325000000968
        },
        {
          "name": "F#4",
          "midi": 66,
          "time": 226.3018570312487,
          "velocity": 0.7874015748031497,
          "duration": 0.16666649999999095
        },
        {
          "name": "E4",
          "midi": 64,
          "time": 226.47199574999868,
          "velocity": 0.7874015748031497,
          "duration": 0.08333325000000968
        },
        {
          "name": "E4",
          "midi": 64,
          "time": 226.6386622499987,
          "velocity": 0.7874015748031497,
          "duration": 0.08333325000000968
        },
        {
          "name": "G4",
          "midi": 67,
          "time": 226.80185653124872,
          "velocity": 0.7874015748031497,
          "duration": 0.16666649999999095
        },
        {
          "name": "E4",
          "midi": 64,
          "time": 226.9685230312487,
          "velocity": 0.7874015748031497,
          "duration": 0.08333325000000968
        },
        {
          "name": "A4",
          "midi": 69,
          "time": 227.13518953124873,
          "velocity": 0.7874015748031497,
          "duration": 0.49999950000000126
        },
        {
          "name": "G4",
          "midi": 67,
          "time": 227.63518903124873,
          "velocity": 0.7874015748031497,
          "duration": 0.3333330000000103
        },
        {
          "name": "E4",
          "midi": 64,
          "time": 228.13518853124873,
          "velocity": 0.7874015748031497,
          "duration": 1.5833317500000135
        },
        {
          "name": "G4",
          "midi": 67,
          "time": 229.80185353124875,
          "velocity": 0.7874015748031497,
          "duration": 0.16666649999999095
        },
        {
          "name": "E4",
          "midi": 64,
          "time": 229.96852003124874,
          "velocity": 0.7874015748031497,
          "duration": 0.08333325000000968
        },
        {
          "name": "E4",
          "midi": 64,
          "time": 230.13518653124876,
          "velocity": 0.7874015748031497,
          "duration": 0.08333325000000968
        },
        {
          "name": "F#4",
          "midi": 66,
          "time": 230.30185303124878,
          "velocity": 0.7874015748031497,
          "duration": 0.16666649999999095
        },
        {
          "name": "E4",
          "midi": 64,
          "time": 230.46851953124877,
          "velocity": 0.7874015748031497,
          "duration": 0.08333325000000968
        },
        {
          "name": "E4",
          "midi": 64,
          "time": 230.6351860312488,
          "velocity": 0.7874015748031497,
          "duration": 0.08333325000000968
        },
        {
          "name": "G4",
          "midi": 67,
          "time": 230.8018525312488,
          "velocity": 0.7874015748031497,
          "duration": 0.16666649999999095
        },
        {
          "name": "E4",
          "midi": 64,
          "time": 230.9685190312488,
          "velocity": 0.7874015748031497,
          "duration": 0.08333325000000968
        },
        {
          "name": "A4",
          "midi": 69,
          "time": 231.13518553124882,
          "velocity": 0.7874015748031497,
          "duration": 0.16666649999999095
        },
        {
          "name": "E4",
          "midi": 64,
          "time": 231.3018520312488,
          "velocity": 0.7874015748031497,
          "duration": 0.08333325000000968
        },
        {
          "name": "E4",
          "midi": 64,
          "time": 231.46851853124883,
          "velocity": 0.7874015748031497,
          "duration": 0.08333325000000968
        },
        {
          "name": "G4",
          "midi": 67,
          "time": 231.63518503124885,
          "velocity": 0.7874015748031497,
          "duration": 0.16666649999999095
        },
        {
          "name": "E4",
          "midi": 64,
          "time": 231.80185153124884,
          "velocity": 0.7874015748031497,
          "duration": 0.08333325000000968
        },
        {
          "name": "E4",
          "midi": 64,
          "time": 231.96851803124886,
          "velocity": 0.7874015748031497,
          "duration": 0.08333325000000968
        },
        {
          "name": "D4",
          "midi": 62,
          "time": 232.13518453124888,
          "velocity": 0.7874015748031497,
          "duration": 0.3333330000000103
        },
        {
          "name": "E4",
          "midi": 64,
          "time": 232.4685175312489,
          "velocity": 0.7874015748031497,
          "duration": 2.6666639999999973
        },
        {
          "name": "B4",
          "midi": 71,
          "time": 235.1351815312489,
          "velocity": 0.7874015748031497,
          "duration": 0.16666649999999095
        },
        {
          "name": "G4",
          "midi": 67,
          "time": 235.30184803124888,
          "velocity": 0.7874015748031497,
          "duration": 0.08333325000000968
        },
        {
          "name": "G4",
          "midi": 67,
          "time": 235.4685145312489,
          "velocity": 0.7874015748031497,
          "duration": 0.08333325000000968
        },
        {
          "name": "A4",
          "midi": 69,
          "time": 235.63518103124892,
          "velocity": 0.7874015748031497,
          "duration": 0.16666649999999095
        },
        {
          "name": "G4",
          "midi": 67,
          "time": 235.8018475312489,
          "velocity": 0.7874015748031497,
          "duration": 0.08333325000000968
        },
        {
          "name": "G4",
          "midi": 67,
          "time": 235.96851403124893,
          "velocity": 0.7874015748031497,
          "duration": 0.08333325000000968
        },
        {
          "name": "B4",
          "midi": 71,
          "time": 236.13518053124895,
          "velocity": 0.7874015748031497,
          "duration": 0.16666649999999095
        },
        {
          "name": "G4",
          "midi": 67,
          "time": 236.30184703124894,
          "velocity": 0.7874015748031497,
          "duration": 0.08333325000000968
        },
        {
          "name": "B4",
          "midi": 71,
          "time": 236.46851353124896,
          "velocity": 0.7874015748031497,
          "duration": 0.16666649999999095
        },
        {
          "name": "G4",
          "midi": 67,
          "time": 236.63518003124895,
          "velocity": 0.7874015748031497,
          "duration": 0.08333325000000968
        },
        {
          "name": "G4",
          "midi": 67,
          "time": 236.80184653124897,
          "velocity": 0.7874015748031497,
          "duration": 0.08333325000000968
        },
        {
          "name": "A4",
          "midi": 69,
          "time": 236.968513031249,
          "velocity": 0.7874015748031497,
          "duration": 0.16666649999999095
        },
        {
          "name": "G4",
          "midi": 67,
          "time": 237.13517953124898,
          "velocity": 0.7874015748031497,
          "duration": 0.08333325000000968
        },
        {
          "name": "G4",
          "midi": 67,
          "time": 237.301846031249,
          "velocity": 0.7874015748031497,
          "duration": 0.08333325000000968
        },
        {
          "name": "B4",
          "midi": 71,
          "time": 237.46851253124902,
          "velocity": 0.7874015748031497,
          "duration": 0.16666649999999095
        },
        {
          "name": "G4",
          "midi": 67,
          "time": 237.635179031249,
          "velocity": 0.7874015748031497,
          "duration": 0.08333325000000968
        },
        {
          "name": "C5",
          "midi": 72,
          "time": 237.80184553124903,
          "velocity": 0.7874015748031497,
          "duration": 0.49999950000000126
        },
        {
          "name": "B4",
          "midi": 71,
          "time": 238.30184503124903,
          "velocity": 0.7874015748031497,
          "duration": 0.3333330000000103
        },
        {
          "name": "G4",
          "midi": 67,
          "time": 238.80184453124903,
          "velocity": 0.7874015748031497,
          "duration": 1.5833317500000135
        },
        {
          "name": "B4",
          "midi": 71,
          "time": 240.46850953124905,
          "velocity": 0.7874015748031497,
          "duration": 0.16666649999999095
        },
        {
          "name": "G4",
          "midi": 67,
          "time": 240.63517603124905,
          "velocity": 0.7874015748031497,
          "duration": 0.08333325000000968
        },
        {
          "name": "G4",
          "midi": 67,
          "time": 240.80184253124906,
          "velocity": 0.7874015748031497,
          "duration": 0.08333325000000968
        },
        {
          "name": "A4",
          "midi": 69,
          "time": 240.96850903124908,
          "velocity": 0.7874015748031497,
          "duration": 0.16666649999999095
        },
        {
          "name": "G4",
          "midi": 67,
          "time": 241.13517553124908,
          "velocity": 0.7874015748031497,
          "duration": 0.08333325000000968
        },
        {
          "name": "G4",
          "midi": 67,
          "time": 241.3018420312491,
          "velocity": 0.7874015748031497,
          "duration": 0.08333325000000968
        },
        {
          "name": "B4",
          "midi": 71,
          "time": 241.4685085312491,
          "velocity": 0.7874015748031497,
          "duration": 0.16666649999999095
        },
        {
          "name": "G4",
          "midi": 67,
          "time": 241.6351750312491,
          "velocity": 0.7874015748031497,
          "duration": 0.08333325000000968
        },
        {
          "name": "C5",
          "midi": 72,
          "time": 241.80184153124912,
          "velocity": 0.7874015748031497,
          "duration": 0.16666649999999095
        },
        {
          "name": "G4",
          "midi": 67,
          "time": 241.96850803124912,
          "velocity": 0.7874015748031497,
          "duration": 0.08333325000000968
        },
        {
          "name": "G4",
          "midi": 67,
          "time": 242.13517453124913,
          "velocity": 0.7874015748031497,
          "duration": 0.08333325000000968
        },
        {
          "name": "B4",
          "midi": 71,
          "time": 242.30184103124915,
          "velocity": 0.7874015748031497,
          "duration": 0.16666649999999095
        },
        {
          "name": "G4",
          "midi": 67,
          "time": 242.46850753124914,
          "velocity": 0.7874015748031497,
          "duration": 0.08333325000000968
        },
        {
          "name": "G4",
          "midi": 67,
          "time": 242.63517403124916,
          "velocity": 0.7874015748031497,
          "duration": 0.08333325000000968
        },
        {
          "name": "F#4",
          "midi": 66,
          "time": 242.80184053124918,
          "velocity": 0.7874015748031497,
          "duration": 0.3333330000000103
        },
        {
          "name": "G4",
          "midi": 67,
          "time": 243.1351735312492,
          "velocity": 0.7874015748031497,
          "duration": 2.6666639999999973
        },
        {
          "name": "E2",
          "midi": 40,
          "time": 245.8018375312492,
          "velocity": 0.7874015748031497,
          "duration": 2.6666639999999973
        },
        {
          "name": "B2",
          "midi": 47,
          "time": 245.8018375312492,
          "velocity": 0.7874015748031497,
          "duration": 2.6666639999999973
        },
        {
          "name": "C3",
          "midi": 48,
          "time": 248.4685015312492,
          "velocity": 0.7874015748031497,
          "duration": 2.6666639999999973
        },
        {
          "name": "G3",
          "midi": 55,
          "time": 248.4685015312492,
          "velocity": 0.7874015748031497,
          "duration": 2.6666639999999973
        },
        {
          "name": "G2",
          "midi": 43,
          "time": 251.13516553124919,
          "velocity": 0.7874015748031497,
          "duration": 2.6666639999999973
        },
        {
          "name": "D3",
          "midi": 50,
          "time": 251.13516553124919,
          "velocity": 0.7874015748031497,
          "duration": 2.6666639999999973
        },
        {
          "name": "A2",
          "midi": 45,
          "time": 253.80182953124918,
          "velocity": 0.7874015748031497,
          "duration": 0.49999950000000126
        },
        {
          "name": "E3",
          "midi": 52,
          "time": 253.80182953124918,
          "velocity": 0.7874015748031497,
          "duration": 0.49999950000000126
        },
        {
          "name": "A2",
          "midi": 45,
          "time": 254.30182903124918,
          "velocity": 0.7874015748031497,
          "duration": 0.49999950000000126
        },
        {
          "name": "E3",
          "midi": 52,
          "time": 254.30182903124918,
          "velocity": 0.7874015748031497,
          "duration": 0.49999950000000126
        },
        {
          "name": "A2",
          "midi": 45,
          "time": 254.80182853124919,
          "velocity": 0.7874015748031497,
          "duration": 0.3333330000000103
        },
        {
          "name": "E3",
          "midi": 52,
          "time": 254.80182853124919,
          "velocity": 0.7874015748031497,
          "duration": 0.3333330000000103
        },
        {
          "name": "B2",
          "midi": 47,
          "time": 255.1351615312492,
          "velocity": 0.7874015748031497,
          "duration": 1.3333319999999844
        },
        {
          "name": "F#3",
          "midi": 54,
          "time": 255.1351615312492,
          "velocity": 0.7874015748031497,
          "duration": 1.3333319999999844
        },
        {
          "name": "E2",
          "midi": 40,
          "time": 256.4684935312492,
          "velocity": 0.7874015748031497,
          "duration": 2.6666640000000257
        },
        {
          "name": "B2",
          "midi": 47,
          "time": 256.4684935312492,
          "velocity": 0.7874015748031497,
          "duration": 2.6666640000000257
        },
        {
          "name": "C3",
          "midi": 48,
          "time": 259.1351575312492,
          "velocity": 0.7874015748031497,
          "duration": 2.6666640000000257
        },
        {
          "name": "G3",
          "midi": 55,
          "time": 259.1351575312492,
          "velocity": 0.7874015748031497,
          "duration": 2.6666640000000257
        },
        {
          "name": "G2",
          "midi": 43,
          "time": 261.80182153124923,
          "velocity": 0.7874015748031497,
          "duration": 2.6666640000000257
        },
        {
          "name": "D3",
          "midi": 50,
          "time": 261.80182153124923,
          "velocity": 0.7874015748031497,
          "duration": 2.6666640000000257
        },
        {
          "name": "A2",
          "midi": 45,
          "time": 264.46848553124926,
          "velocity": 0.7874015748031497,
          "duration": 0.49999950000000126
        },
        {
          "name": "E3",
          "midi": 52,
          "time": 264.46848553124926,
          "velocity": 0.7874015748031497,
          "duration": 0.49999950000000126
        },
        {
          "name": "A2",
          "midi": 45,
          "time": 264.96848503124926,
          "velocity": 0.7874015748031497,
          "duration": 0.49999950000000126
        },
        {
          "name": "E3",
          "midi": 52,
          "time": 264.96848503124926,
          "velocity": 0.7874015748031497,
          "duration": 0.49999950000000126
        },
        {
          "name": "A2",
          "midi": 45,
          "time": 265.46848453124926,
          "velocity": 0.7874015748031497,
          "duration": 0.3333329999999819
        },
        {
          "name": "E3",
          "midi": 52,
          "time": 265.46848453124926,
          "velocity": 0.7874015748031497,
          "duration": 0.3333329999999819
        },
        {
          "name": "B2",
          "midi": 47,
          "time": 265.80181753124924,
          "velocity": 0.7874015748031497,
          "duration": 1.3333319999999844
        },
        {
          "name": "F#3",
          "midi": 54,
          "time": 265.80181753124924,
          "velocity": 0.7874015748031497,
          "duration": 1.3333319999999844
        },
        {
          "name": "E3",
          "midi": 52,
          "time": 267.1351495312492,
          "velocity": 0.7874015748031497,
          "duration": 0.24999975000002905
        },
        {
          "name": "B3",
          "midi": 59,
          "time": 267.1351495312492,
          "velocity": 0.7874015748031497,
          "duration": 0.16666650000001937
        },
        {
          "name": "E3",
          "midi": 52,
          "time": 267.30181603124925,
          "velocity": 0.7874015748031497,
          "duration": 0.08333325000000968
        },
        {
          "name": "E3",
          "midi": 52,
          "time": 267.38514928124926,
          "velocity": 0.7874015748031497,
          "duration": 0.08333325000000968
        },
        {
          "name": "E3",
          "midi": 52,
          "time": 267.46848253124926,
          "velocity": 0.7874015748031497,
          "duration": 0.16666650000001937
        },
        {
          "name": "E3",
          "midi": 52,
          "time": 267.6351490312493,
          "velocity": 0.7874015748031497,
          "duration": 0.08333325000000968
        },
        {
          "name": "E3",
          "midi": 52,
          "time": 267.7184822812493,
          "velocity": 0.7874015748031497,
          "duration": 0.08333325000000968
        },
        {
          "name": "E3",
          "midi": 52,
          "time": 267.8018155312493,
          "velocity": 0.7874015748031497,
          "duration": 0.16666650000001937
        },
        {
          "name": "E3",
          "midi": 52,
          "time": 267.9684820312493,
          "velocity": 0.7874015748031497,
          "duration": 0.08333325000000968
        },
        {
          "name": "E3",
          "midi": 52,
          "time": 268.05181528124933,
          "velocity": 0.7874015748031497,
          "duration": 0.08333325000000968
        },
        {
          "name": "E3",
          "midi": 52,
          "time": 268.13514853124934,
          "velocity": 0.7874015748031497,
          "duration": 0.16666650000001937
        },
        {
          "name": "E3",
          "midi": 52,
          "time": 268.30181503124936,
          "velocity": 0.7874015748031497,
          "duration": 0.08333325000000968
        },
        {
          "name": "E3",
          "midi": 52,
          "time": 268.38514828124937,
          "velocity": 0.7874015748031497,
          "duration": 0.08333325000000968
        },
        {
          "name": "C3",
          "midi": 48,
          "time": 268.4684815312494,
          "velocity": 0.7874015748031497,
          "duration": 0.24999975000002905
        },
        {
          "name": "G3",
          "midi": 55,
          "time": 268.4684815312494,
          "velocity": 0.7874015748031497,
          "duration": 0.16666650000001937
        },
        {
          "name": "C3",
          "midi": 48,
          "time": 268.6351480312494,
          "velocity": 0.7874015748031497,
          "duration": 0.08333325000000968
        },
        {
          "name": "C3",
          "midi": 48,
          "time": 268.7184812812494,
          "velocity": 0.7874015748031497,
          "duration": 0.08333325000000968
        },
        {
          "name": "C3",
          "midi": 48,
          "time": 268.8018145312494,
          "velocity": 0.7874015748031497,
          "duration": 0.16666650000001937
        },
        {
          "name": "C3",
          "midi": 48,
          "time": 268.96848103124944,
          "velocity": 0.7874015748031497,
          "duration": 0.08333325000000968
        },
        {
          "name": "C3",
          "midi": 48,
          "time": 269.05181428124945,
          "velocity": 0.7874015748031497,
          "duration": 0.08333325000000968
        },
        {
          "name": "C3",
          "midi": 48,
          "time": 269.13514753124946,
          "velocity": 0.7874015748031497,
          "duration": 0.16666650000001937
        },
        {
          "name": "C3",
          "midi": 48,
          "time": 269.3018140312495,
          "velocity": 0.7874015748031497,
          "duration": 0.08333325000000968
        },
        {
          "name": "C3",
          "midi": 48,
          "time": 269.3851472812495,
          "velocity": 0.7874015748031497,
          "duration": 0.08333325000000968
        },
        {
          "name": "C3",
          "midi": 48,
          "time": 269.4684805312495,
          "velocity": 0.7874015748031497,
          "duration": 0.16666650000001937
        },
        {
          "name": "C3",
          "midi": 48,
          "time": 269.6351470312495,
          "velocity": 0.7874015748031497,
          "duration": 0.08333325000000968
        },
        {
          "name": "C3",
          "midi": 48,
          "time": 269.7184802812495,
          "velocity": 0.7874015748031497,
          "duration": 0.08333325000000968
        },
        {
          "name": "E3",
          "midi": 52,
          "time": 269.80181353124954,
          "velocity": 0.7874015748031497,
          "duration": 0.24999975000002905
        },
        {
          "name": "B3",
          "midi": 59,
          "time": 269.80181353124954,
          "velocity": 0.7874015748031497,
          "duration": 0.16666650000001937
        },
        {
          "name": "E3",
          "midi": 52,
          "time": 269.96848003124956,
          "velocity": 0.7874015748031497,
          "duration": 0.08333325000000968
        },
        {
          "name": "E3",
          "midi": 52,
          "time": 270.05181328124957,
          "velocity": 0.7874015748031497,
          "duration": 0.08333325000000968
        },
        {
          "name": "E3",
          "midi": 52,
          "time": 270.1351465312496,
          "velocity": 0.7874015748031497,
          "duration": 0.16666650000001937
        },
        {
          "name": "E3",
          "midi": 52,
          "time": 270.3018130312496,
          "velocity": 0.7874015748031497,
          "duration": 0.08333325000000968
        },
        {
          "name": "E3",
          "midi": 52,
          "time": 270.3851462812496,
          "velocity": 0.7874015748031497,
          "duration": 0.08333325000000968
        },
        {
          "name": "E3",
          "midi": 52,
          "time": 270.4684795312496,
          "velocity": 0.7874015748031497,
          "duration": 0.16666650000001937
        },
        {
          "name": "E3",
          "midi": 52,
          "time": 270.63514603124963,
          "velocity": 0.7874015748031497,
          "duration": 0.08333325000000968
        },
        {
          "name": "E3",
          "midi": 52,
          "time": 270.71847928124964,
          "velocity": 0.7874015748031497,
          "duration": 0.08333325000000968
        },
        {
          "name": "E3",
          "midi": 52,
          "time": 270.80181253124965,
          "velocity": 0.7874015748031497,
          "duration": 0.16666650000001937
        },
        {
          "name": "E3",
          "midi": 52,
          "time": 270.9684790312497,
          "velocity": 0.7874015748031497,
          "duration": 0.08333325000000968
        },
        {
          "name": "E3",
          "midi": 52,
          "time": 271.0518122812497,
          "velocity": 0.7874015748031497,
          "duration": 0.08333325000000968
        },
        {
          "name": "C3",
          "midi": 48,
          "time": 271.1351455312497,
          "velocity": 0.7874015748031497,
          "duration": 0.6666660000000206
        },
        {
          "name": "G3",
          "midi": 55,
          "time": 271.1351455312497,
          "velocity": 0.7874015748031497,
          "duration": 0.6666660000000206
        },
        {
          "name": "A2",
          "midi": 45,
          "time": 271.8018115312497,
          "velocity": 0.7874015748031497,
          "duration": 0.3333329999999819
        },
        {
          "name": "E3",
          "midi": 52,
          "time": 271.8018115312497,
          "velocity": 0.7874015748031497,
          "duration": 0.3333329999999819
        },
        {
          "name": "D3",
          "midi": 50,
          "time": 272.1351445312497,
          "velocity": 0.7874015748031497,
          "duration": 0.3333329999999819
        },
        {
          "name": "A3",
          "midi": 57,
          "time": 272.1351445312497,
          "velocity": 0.7874015748031497,
          "duration": 0.3333329999999819
        },
        {
          "name": "E3",
          "midi": 52,
          "time": 272.4684775312497,
          "velocity": 0.7874015748031497,
          "duration": 0.24999975000002905
        },
        {
          "name": "B3",
          "midi": 59,
          "time": 272.4684775312497,
          "velocity": 0.7874015748031497,
          "duration": 0.16666650000001937
        },
        {
          "name": "E3",
          "midi": 52,
          "time": 272.6351440312497,
          "velocity": 0.7874015748031497,
          "duration": 0.08333325000000968
        },
        {
          "name": "E3",
          "midi": 52,
          "time": 272.7184772812497,
          "velocity": 0.7874015748031497,
          "duration": 0.08333325000000968
        },
        {
          "name": "E3",
          "midi": 52,
          "time": 272.8018105312497,
          "velocity": 0.7874015748031497,
          "duration": 0.16666650000001937
        },
        {
          "name": "E3",
          "midi": 52,
          "time": 272.96847703124973,
          "velocity": 0.7874015748031497,
          "duration": 0.08333325000000968
        },
        {
          "name": "E3",
          "midi": 52,
          "time": 273.05181028124974,
          "velocity": 0.7874015748031497,
          "duration": 0.08333325000000968
        },
        {
          "name": "E3",
          "midi": 52,
          "time": 273.13514353124975,
          "velocity": 0.7874015748031497,
          "duration": 0.16666650000001937
        },
        {
          "name": "E3",
          "midi": 52,
          "time": 273.3018100312498,
          "velocity": 0.7874015748031497,
          "duration": 0.08333325000000968
        },
        {
          "name": "E3",
          "midi": 52,
          "time": 273.3851432812498,
          "velocity": 0.7874015748031497,
          "duration": 0.08333325000000968
        },
        {
          "name": "E3",
          "midi": 52,
          "time": 273.4684765312498,
          "velocity": 0.7874015748031497,
          "duration": 0.16666650000001937
        },
        {
          "name": "E3",
          "midi": 52,
          "time": 273.6351430312498,
          "velocity": 0.7874015748031497,
          "duration": 0.08333325000000968
        },
        {
          "name": "E3",
          "midi": 52,
          "time": 273.7184762812498,
          "velocity": 0.7874015748031497,
          "duration": 0.08333325000000968
        },
        {
          "name": "C3",
          "midi": 48,
          "time": 273.80180953124983,
          "velocity": 0.7874015748031497,
          "duration": 0.24999975000002905
        },
        {
          "name": "G3",
          "midi": 55,
          "time": 273.80180953124983,
          "velocity": 0.7874015748031497,
          "duration": 0.16666650000001937
        },
        {
          "name": "C3",
          "midi": 48,
          "time": 273.96847603124985,
          "velocity": 0.7874015748031497,
          "duration": 0.08333325000000968
        },
        {
          "name": "C3",
          "midi": 48,
          "time": 274.05180928124986,
          "velocity": 0.7874015748031497,
          "duration": 0.08333325000000968
        },
        {
          "name": "C3",
          "midi": 48,
          "time": 274.13514253124987,
          "velocity": 0.7874015748031497,
          "duration": 0.16666650000001937
        },
        {
          "name": "C3",
          "midi": 48,
          "time": 274.3018090312499,
          "velocity": 0.7874015748031497,
          "duration": 0.08333325000000968
        },
        {
          "name": "C3",
          "midi": 48,
          "time": 274.3851422812499,
          "velocity": 0.7874015748031497,
          "duration": 0.08333325000000968
        },
        {
          "name": "C3",
          "midi": 48,
          "time": 274.4684755312499,
          "velocity": 0.7874015748031497,
          "duration": 0.16666650000001937
        },
        {
          "name": "C3",
          "midi": 48,
          "time": 274.6351420312499,
          "velocity": 0.7874015748031497,
          "duration": 0.08333325000000968
        },
        {
          "name": "C3",
          "midi": 48,
          "time": 274.71847528124994,
          "velocity": 0.7874015748031497,
          "duration": 0.08333325000000968
        },
        {
          "name": "C3",
          "midi": 48,
          "time": 274.80180853124995,
          "velocity": 0.7874015748031497,
          "duration": 0.16666650000001937
        },
        {
          "name": "C3",
          "midi": 48,
          "time": 274.96847503124997,
          "velocity": 0.7874015748031497,
          "duration": 0.08333325000000968
        },
        {
          "name": "C3",
          "midi": 48,
          "time": 275.05180828125,
          "velocity": 0.7874015748031497,
          "duration": 0.08333325000000968
        },
        {
          "name": "E3",
          "midi": 52,
          "time": 275.13514153125,
          "velocity": 0.7874015748031497,
          "duration": 0.24999975000002905
        },
        {
          "name": "B3",
          "midi": 59,
          "time": 275.13514153125,
          "velocity": 0.7874015748031497,
          "duration": 0.16666650000001937
        },
        {
          "name": "E3",
          "midi": 52,
          "time": 275.30180803125,
          "velocity": 0.7874015748031497,
          "duration": 0.08333325000000968
        },
        {
          "name": "E3",
          "midi": 52,
          "time": 275.38514128125,
          "velocity": 0.7874015748031497,
          "duration": 0.08333325000000968
        },
        {
          "name": "E3",
          "midi": 52,
          "time": 275.46847453125,
          "velocity": 0.7874015748031497,
          "duration": 0.16666650000001937
        },
        {
          "name": "E3",
          "midi": 52,
          "time": 275.63514103125004,
          "velocity": 0.7874015748031497,
          "duration": 0.08333325000000968
        },
        {
          "name": "E3",
          "midi": 52,
          "time": 275.71847428125005,
          "velocity": 0.7874015748031497,
          "duration": 0.08333325000000968
        },
        {
          "name": "E3",
          "midi": 52,
          "time": 275.80180753125006,
          "velocity": 0.7874015748031497,
          "duration": 0.16666650000001937
        },
        {
          "name": "E3",
          "midi": 52,
          "time": 275.9684740312501,
          "velocity": 0.7874015748031497,
          "duration": 0.08333325000000968
        },
        {
          "name": "E3",
          "midi": 52,
          "time": 276.0518072812501,
          "velocity": 0.7874015748031497,
          "duration": 0.08333325000000968
        },
        {
          "name": "E3",
          "midi": 52,
          "time": 276.1351405312501,
          "velocity": 0.7874015748031497,
          "duration": 0.16666650000001937
        },
        {
          "name": "E3",
          "midi": 52,
          "time": 276.3018070312501,
          "velocity": 0.7874015748031497,
          "duration": 0.08333325000000968
        },
        {
          "name": "E3",
          "midi": 52,
          "time": 276.38514028125013,
          "velocity": 0.7874015748031497,
          "duration": 0.08333325000000968
        },
        {
          "name": "C3",
          "midi": 48,
          "time": 276.46847353125014,
          "velocity": 0.7874015748031497,
          "duration": 0.6666660000000206
        },
        {
          "name": "G3",
          "midi": 55,
          "time": 276.46847353125014,
          "velocity": 0.7874015748031497,
          "duration": 0.6666660000000206
        },
        {
          "name": "C3",
          "midi": 48,
          "time": 277.13513953125016,
          "velocity": 0.7874015748031497,
          "duration": 0.3333329999999819
        },
        {
          "name": "G3",
          "midi": 55,
          "time": 277.13513953125016,
          "velocity": 0.7874015748031497,
          "duration": 0.3333329999999819
        },
        {
          "name": "D3",
          "midi": 50,
          "time": 277.46847253125014,
          "velocity": 0.7874015748031497,
          "duration": 0.3333329999999819
        },
        {
          "name": "A3",
          "midi": 57,
          "time": 277.46847253125014,
          "velocity": 0.7874015748031497,
          "duration": 0.3333329999999819
        },
        {
          "name": "E3",
          "midi": 52,
          "time": 277.8018055312501,
          "velocity": 0.7874015748031497,
          "duration": 1.3333319999999844
        },
        {
          "name": "B3",
          "midi": 59,
          "time": 277.8018055312501,
          "velocity": 0.7874015748031497,
          "duration": 1.3333319999999844
        },
        {
          "name": "C3",
          "midi": 48,
          "time": 279.1351375312501,
          "velocity": 0.7874015748031497,
          "duration": 1.3333319999999844
        },
        {
          "name": "G3",
          "midi": 55,
          "time": 279.1351375312501,
          "velocity": 0.7874015748031497,
          "duration": 1.3333319999999844
        },
        {
          "name": "E3",
          "midi": 52,
          "time": 280.4684695312501,
          "velocity": 0.7874015748031497,
          "duration": 1.3333319999999844
        },
        {
          "name": "B3",
          "midi": 59,
          "time": 280.4684695312501,
          "velocity": 0.7874015748031497,
          "duration": 1.3333319999999844
        },
        {
          "name": "C3",
          "midi": 48,
          "time": 281.8018015312501,
          "velocity": 0.7874015748031497,
          "duration": 0.6666660000000206
        },
        {
          "name": "G3",
          "midi": 55,
          "time": 281.8018015312501,
          "velocity": 0.7874015748031497,
          "duration": 0.6666660000000206
        },
        {
          "name": "A2",
          "midi": 45,
          "time": 282.4684675312501,
          "velocity": 0.7874015748031497,
          "duration": 0.3333329999999819
        },
        {
          "name": "E3",
          "midi": 52,
          "time": 282.4684675312501,
          "velocity": 0.7874015748031497,
          "duration": 0.3333329999999819
        },
        {
          "name": "D3",
          "midi": 50,
          "time": 282.8018005312501,
          "velocity": 0.7874015748031497,
          "duration": 0.3333329999999819
        },
        {
          "name": "A3",
          "midi": 57,
          "time": 282.8018005312501,
          "velocity": 0.7874015748031497,
          "duration": 0.3333329999999819
        },
        {
          "name": "E3",
          "midi": 52,
          "time": 283.13513353125006,
          "velocity": 0.7874015748031497,
          "duration": 1.3333319999999844
        },
        {
          "name": "B3",
          "midi": 59,
          "time": 283.13513353125006,
          "velocity": 0.7874015748031497,
          "duration": 1.3333319999999844
        },
        {
          "name": "C3",
          "midi": 48,
          "time": 284.46846553125005,
          "velocity": 0.7874015748031497,
          "duration": 1.3333319999999844
        },
        {
          "name": "G3",
          "midi": 55,
          "time": 284.46846553125005,
          "velocity": 0.7874015748031497,
          "duration": 1.3333319999999844
        },
        {
          "name": "E3",
          "midi": 52,
          "time": 285.80179753125003,
          "velocity": 0.7874015748031497,
          "duration": 1.3333319999999844
        },
        {
          "name": "B3",
          "midi": 59,
          "time": 285.80179753125003,
          "velocity": 0.7874015748031497,
          "duration": 1.3333319999999844
        },
        {
          "name": "C3",
          "midi": 48,
          "time": 287.13512953125,
          "velocity": 0.7874015748031497,
          "duration": 0.6666660000000206
        },
        {
          "name": "G3",
          "midi": 55,
          "time": 287.13512953125,
          "velocity": 0.7874015748031497,
          "duration": 0.6666660000000206
        },
        {
          "name": "C3",
          "midi": 48,
          "time": 287.80179553125004,
          "velocity": 0.7874015748031497,
          "duration": 0.3333329999999819
        },
        {
          "name": "G3",
          "midi": 55,
          "time": 287.80179553125004,
          "velocity": 0.7874015748031497,
          "duration": 0.3333329999999819
        },
        {
          "name": "D3",
          "midi": 50,
          "time": 288.13512853125,
          "velocity": 0.7874015748031497,
          "duration": 0.3333329999999819
        },
        {
          "name": "A3",
          "midi": 57,
          "time": 288.13512853125,
          "velocity": 0.7874015748031497,
          "duration": 0.3333329999999819
        },
        {
          "name": "E3",
          "midi": 52,
          "time": 288.46846153125,
          "velocity": 0.7874015748031497,
          "duration": 0.16666650000001937
        },
        {
          "name": "E3",
          "midi": 52,
          "time": 288.63512803125,
          "velocity": 0.7874015748031497,
          "duration": 0.16666650000001937
        },
        {
          "name": "D3",
          "midi": 50,
          "time": 288.80179453125004,
          "velocity": 0.7874015748031497,
          "duration": 0.16666650000001937
        },
        {
          "name": "G3",
          "midi": 55,
          "time": 288.96846103125006,
          "velocity": 0.7874015748031497,
          "duration": 0.16666650000001937
        },
        {
          "name": "F#3",
          "midi": 54,
          "time": 289.1351275312501,
          "velocity": 0.7874015748031497,
          "duration": 0.16666650000001937
        },
        {
          "name": "F#3",
          "midi": 54,
          "time": 289.3017940312501,
          "velocity": 0.7874015748031497,
          "duration": 0.16666650000001937
        },
        {
          "name": "E3",
          "midi": 52,
          "time": 289.4684605312501,
          "velocity": 0.7874015748031497,
          "duration": 0.16666650000001937
        },
        {
          "name": "D3",
          "midi": 50,
          "time": 289.63512703125014,
          "velocity": 0.7874015748031497,
          "duration": 0.16666650000001937
        },
        {
          "name": "E3",
          "midi": 52,
          "time": 289.80179353125015,
          "velocity": 0.7874015748031497,
          "duration": 0.16666650000001937
        },
        {
          "name": "E3",
          "midi": 52,
          "time": 289.9684600312502,
          "velocity": 0.7874015748031497,
          "duration": 0.16666650000001937
        },
        {
          "name": "D3",
          "midi": 50,
          "time": 290.1351265312502,
          "velocity": 0.7874015748031497,
          "duration": 0.16666650000001937
        },
        {
          "name": "G3",
          "midi": 55,
          "time": 290.3017930312502,
          "velocity": 0.7874015748031497,
          "duration": 0.16666650000001937
        },
        {
          "name": "F#3",
          "midi": 54,
          "time": 290.46845953125023,
          "velocity": 0.7874015748031497,
          "duration": 0.16666650000001937
        },
        {
          "name": "F#3",
          "midi": 54,
          "time": 290.63512603125025,
          "velocity": 0.7874015748031497,
          "duration": 0.16666650000001937
        },
        {
          "name": "E3",
          "midi": 52,
          "time": 290.80179253125027,
          "velocity": 0.7874015748031497,
          "duration": 0.3333329999999819
        },
        {
          "name": "A3",
          "midi": 57,
          "time": 291.13512553125025,
          "velocity": 0.7874015748031497,
          "duration": 0.16666650000001937
        },
        {
          "name": "A3",
          "midi": 57,
          "time": 291.3017920312503,
          "velocity": 0.7874015748031497,
          "duration": 0.16666650000001937
        },
        {
          "name": "G3",
          "midi": 55,
          "time": 291.4684585312503,
          "velocity": 0.7874015748031497,
          "duration": 0.16666650000001937
        },
        {
          "name": "C4",
          "midi": 60,
          "time": 291.6351250312503,
          "velocity": 0.7874015748031497,
          "duration": 0.16666650000001937
        },
        {
          "name": "B3",
          "midi": 59,
          "time": 291.80179153125033,
          "velocity": 0.7874015748031497,
          "duration": 0.16666650000001937
        },
        {
          "name": "B3",
          "midi": 59,
          "time": 291.96845803125035,
          "velocity": 0.7874015748031497,
          "duration": 0.16666650000001937
        },
        {
          "name": "A3",
          "midi": 57,
          "time": 292.13512453125037,
          "velocity": 0.7874015748031497,
          "duration": 0.16666650000001937
        },
        {
          "name": "G3",
          "midi": 55,
          "time": 292.3017910312504,
          "velocity": 0.7874015748031497,
          "duration": 0.16666650000001937
        },
        {
          "name": "A3",
          "midi": 57,
          "time": 292.4684575312504,
          "velocity": 0.7874015748031497,
          "duration": 0.16666650000001937
        },
        {
          "name": "A3",
          "midi": 57,
          "time": 292.6351240312504,
          "velocity": 0.7874015748031497,
          "duration": 0.16666650000001937
        },
        {
          "name": "G3",
          "midi": 55,
          "time": 292.80179053125045,
          "velocity": 0.7874015748031497,
          "duration": 0.16666650000001937
        },
        {
          "name": "C4",
          "midi": 60,
          "time": 292.96845703125047,
          "velocity": 0.7874015748031497,
          "duration": 0.16666650000001937
        },
        {
          "name": "B3",
          "midi": 59,
          "time": 293.1351235312505,
          "velocity": 0.7874015748031497,
          "duration": 0.16666650000001937
        },
        {
          "name": "B3",
          "midi": 59,
          "time": 293.3017900312505,
          "velocity": 0.7874015748031497,
          "duration": 0.16666650000001937
        },
        {
          "name": "A3",
          "midi": 57,
          "time": 293.4684565312505,
          "velocity": 0.7874015748031497,
          "duration": 0.3333329999999819
        },
        {
          "name": "F3",
          "midi": 53,
          "time": 293.8017895312505,
          "velocity": 0.7874015748031497,
          "duration": 0.16666650000001937
        },
        {
          "name": "F3",
          "midi": 53,
          "time": 293.9684560312505,
          "velocity": 0.7874015748031497,
          "duration": 0.16666650000001937
        },
        {
          "name": "E3",
          "midi": 52,
          "time": 294.13512253125054,
          "velocity": 0.7874015748031497,
          "duration": 0.16666650000001937
        },
        {
          "name": "A3",
          "midi": 57,
          "time": 294.30178903125056,
          "velocity": 0.7874015748031497,
          "duration": 0.16666650000001937
        },
        {
          "name": "G3",
          "midi": 55,
          "time": 294.4684555312506,
          "velocity": 0.7874015748031497,
          "duration": 0.16666650000001937
        },
        {
          "name": "G3",
          "midi": 55,
          "time": 294.6351220312506,
          "velocity": 0.7874015748031497,
          "duration": 0.16666650000001937
        },
        {
          "name": "F3",
          "midi": 53,
          "time": 294.8017885312506,
          "velocity": 0.7874015748031497,
          "duration": 0.16666650000001937
        },
        {
          "name": "E3",
          "midi": 52,
          "time": 294.96845503125064,
          "velocity": 0.7874015748031497,
          "duration": 0.16666650000001937
        },
        {
          "name": "F3",
          "midi": 53,
          "time": 295.13512153125066,
          "velocity": 0.7874015748031497,
          "duration": 0.16666650000001937
        },
        {
          "name": "F3",
          "midi": 53,
          "time": 295.3017880312507,
          "velocity": 0.7874015748031497,
          "duration": 0.16666650000001937
        },
        {
          "name": "E3",
          "midi": 52,
          "time": 295.4684545312507,
          "velocity": 0.7874015748031497,
          "duration": 0.16666650000001937
        },
        {
          "name": "A3",
          "midi": 57,
          "time": 295.6351210312507,
          "velocity": 0.7874015748031497,
          "duration": 0.16666650000001937
        },
        {
          "name": "G3",
          "midi": 55,
          "time": 295.80178753125074,
          "velocity": 0.7874015748031497,
          "duration": 0.16666650000001937
        },
        {
          "name": "G3",
          "midi": 55,
          "time": 295.96845403125076,
          "velocity": 0.7874015748031497,
          "duration": 0.16666650000001937
        },
        {
          "name": "F3",
          "midi": 53,
          "time": 296.1351205312508,
          "velocity": 0.7874015748031497,
          "duration": 0.3333329999999819
        },
        {
          "name": "A3",
          "midi": 57,
          "time": 296.46845353125076,
          "velocity": 0.7874015748031497,
          "duration": 0.49999950000000126
        },
        {
          "name": "A3",
          "midi": 57,
          "time": 296.96845303125076,
          "velocity": 0.7874015748031497,
          "duration": 0.49999950000000126
        },
        {
          "name": "E3",
          "midi": 52,
          "time": 297.46845253125076,
          "velocity": 0.7874015748031497,
          "duration": 0.3333329999999819
        },
        {
          "name": "G3",
          "midi": 55,
          "time": 297.80178553125074,
          "velocity": 0.7874015748031497,
          "duration": 1.3333319999999844
        },
        {
          "name": "E3",
          "midi": 52,
          "time": 299.1351175312507,
          "velocity": 0.7874015748031497,
          "duration": 1.3333319999999844
        },
        {
          "name": "B3",
          "midi": 59,
          "time": 299.1351175312507,
          "velocity": 0.7874015748031497,
          "duration": 1.3333319999999844
        },
        {
          "name": "C3",
          "midi": 48,
          "time": 300.4684495312507,
          "velocity": 0.7874015748031497,
          "duration": 1.3333319999999844
        },
        {
          "name": "G3",
          "midi": 55,
          "time": 300.4684495312507,
          "velocity": 0.7874015748031497,
          "duration": 1.3333319999999844
        },
        {
          "name": "G2",
          "midi": 43,
          "time": 301.8017815312507,
          "velocity": 0.7874015748031497,
          "duration": 0.49999950000000126
        },
        {
          "name": "D3",
          "midi": 50,
          "time": 301.8017815312507,
          "velocity": 0.7874015748031497,
          "duration": 0.49999950000000126
        },
        {
          "name": "G2",
          "midi": 43,
          "time": 302.3017810312507,
          "velocity": 0.7874015748031497,
          "duration": 0.49999950000000126
        },
        {
          "name": "D3",
          "midi": 50,
          "time": 302.3017810312507,
          "velocity": 0.7874015748031497,
          "duration": 0.49999950000000126
        },
        {
          "name": "G2",
          "midi": 43,
          "time": 302.8017805312507,
          "velocity": 0.7874015748031497,
          "duration": 0.3333329999999819
        },
        {
          "name": "D3",
          "midi": 50,
          "time": 302.8017805312507,
          "velocity": 0.7874015748031497,
          "duration": 0.3333329999999819
        },
        {
          "name": "D3",
          "midi": 50,
          "time": 303.1351135312507,
          "velocity": 0.7874015748031497,
          "duration": 1.3333319999999844
        },
        {
          "name": "A3",
          "midi": 57,
          "time": 303.1351135312507,
          "velocity": 0.7874015748031497,
          "duration": 1.3333319999999844
        },
        {
          "name": "E3",
          "midi": 52,
          "time": 304.46844553125067,
          "velocity": 0.7874015748031497,
          "duration": 1.3333319999999844
        },
        {
          "name": "B3",
          "midi": 59,
          "time": 304.46844553125067,
          "velocity": 0.7874015748031497,
          "duration": 1.3333319999999844
        },
        {
          "name": "C3",
          "midi": 48,
          "time": 305.80177753125065,
          "velocity": 0.7874015748031497,
          "duration": 1.3333319999999844
        },
        {
          "name": "G3",
          "midi": 55,
          "time": 305.80177753125065,
          "velocity": 0.7874015748031497,
          "duration": 1.3333319999999844
        },
        {
          "name": "G2",
          "midi": 43,
          "time": 307.13510953125063,
          "velocity": 0.7874015748031497,
          "duration": 1.3333319999999844
        },
        {
          "name": "D3",
          "midi": 50,
          "time": 307.13510953125063,
          "velocity": 0.7874015748031497,
          "duration": 1.3333319999999844
        },
        {
          "name": "D3",
          "midi": 50,
          "time": 308.4684415312506,
          "velocity": 0.7874015748031497,
          "duration": 1.3333319999999844
        },
        {
          "name": "A3",
          "midi": 57,
          "time": 308.4684415312506,
          "velocity": 0.7874015748031497,
          "duration": 1.3333319999999844
        },
        {
          "name": "G3",
          "midi": 55,
          "time": 309.8017735312506,
          "velocity": 0.7874015748031497,
          "duration": 1.3333319999999844
        },
        {
          "name": "D4",
          "midi": 62,
          "time": 309.8017735312506,
          "velocity": 0.7874015748031497,
          "duration": 1.3333319999999844
        },
        {
          "name": "D#3",
          "midi": 51,
          "time": 311.1351055312506,
          "velocity": 0.7874015748031497,
          "duration": 1.3333319999999844
        },
        {
          "name": "A#3",
          "midi": 58,
          "time": 311.1351055312506,
          "velocity": 0.7874015748031497,
          "duration": 1.3333319999999844
        },
        {
          "name": "A#2",
          "midi": 46,
          "time": 312.4684375312506,
          "velocity": 0.7874015748031497,
          "duration": 0.49999950000000126
        },
        {
          "name": "F3",
          "midi": 53,
          "time": 312.4684375312506,
          "velocity": 0.7874015748031497,
          "duration": 0.49999950000000126
        },
        {
          "name": "A#2",
          "midi": 46,
          "time": 312.9684370312506,
          "velocity": 0.7874015748031497,
          "duration": 0.49999950000000126
        },
        {
          "name": "F3",
          "midi": 53,
          "time": 312.9684370312506,
          "velocity": 0.7874015748031497,
          "duration": 0.49999950000000126
        },
        {
          "name": "A#2",
          "midi": 46,
          "time": 313.4684365312506,
          "velocity": 0.7874015748031497,
          "duration": 0.3333329999999819
        },
        {
          "name": "F3",
          "midi": 53,
          "time": 313.4684365312506,
          "velocity": 0.7874015748031497,
          "duration": 0.3333329999999819
        },
        {
          "name": "F3",
          "midi": 53,
          "time": 313.80176953125056,
          "velocity": 0.7874015748031497,
          "duration": 0.49999950000000126
        },
        {
          "name": "C4",
          "midi": 60,
          "time": 313.80176953125056,
          "velocity": 0.7874015748031497,
          "duration": 0.49999950000000126
        },
        {
          "name": "F3",
          "midi": 53,
          "time": 314.30176903125056,
          "velocity": 0.7874015748031497,
          "duration": 0.8333324999999832
        },
        {
          "name": "C4",
          "midi": 60,
          "time": 314.30176903125056,
          "velocity": 0.7874015748031497,
          "duration": 0.8333324999999832
        },
        {
          "name": "G3",
          "midi": 55,
          "time": 315.13510153125054,
          "velocity": 0.7874015748031497,
          "duration": 1.3333319999999844
        },
        {
          "name": "D4",
          "midi": 62,
          "time": 315.13510153125054,
          "velocity": 0.7874015748031497,
          "duration": 1.3333319999999844
        },
        {
          "name": "D#3",
          "midi": 51,
          "time": 316.4684335312505,
          "velocity": 0.7874015748031497,
          "duration": 1.3333319999999844
        },
        {
          "name": "A#3",
          "midi": 58,
          "time": 316.4684335312505,
          "velocity": 0.7874015748031497,
          "duration": 1.3333319999999844
        },
        {
          "name": "A#2",
          "midi": 46,
          "time": 317.8017655312505,
          "velocity": 0.7874015748031497,
          "duration": 0.49999950000000126
        },
        {
          "name": "F3",
          "midi": 53,
          "time": 317.8017655312505,
          "velocity": 0.7874015748031497,
          "duration": 0.49999950000000126
        },
        {
          "name": "A#2",
          "midi": 46,
          "time": 318.3017650312505,
          "velocity": 0.7874015748031497,
          "duration": 0.49999950000000126
        },
        {
          "name": "F3",
          "midi": 53,
          "time": 318.3017650312505,
          "velocity": 0.7874015748031497,
          "duration": 0.49999950000000126
        },
        {
          "name": "A#2",
          "midi": 46,
          "time": 318.8017645312505,
          "velocity": 0.7874015748031497,
          "duration": 0.3333329999999819
        },
        {
          "name": "F3",
          "midi": 53,
          "time": 318.8017645312505,
          "velocity": 0.7874015748031497,
          "duration": 0.3333329999999819
        },
        {
          "name": "F3",
          "midi": 53,
          "time": 319.1350975312505,
          "velocity": 0.7874015748031497,
          "duration": 1.3333319999999844
        },
        {
          "name": "C4",
          "midi": 60,
          "time": 319.1350975312505,
          "velocity": 0.7874015748031497,
          "duration": 1.3333319999999844
        },
        {
          "name": "A#2",
          "midi": 46,
          "time": 320.4684295312505,
          "velocity": 0.7874015748031497,
          "duration": 1.3333319999999844
        },
        {
          "name": "F3",
          "midi": 53,
          "time": 320.4684295312505,
          "velocity": 0.7874015748031497,
          "duration": 1.3333319999999844
        },
        {
          "name": "F#2",
          "midi": 42,
          "time": 321.80176153125046,
          "velocity": 0.7874015748031497,
          "duration": 1.3333319999999844
        },
        {
          "name": "C#3",
          "midi": 49,
          "time": 321.80176153125046,
          "velocity": 0.7874015748031497,
          "duration": 1.3333319999999844
        },
        {
          "name": "C#3",
          "midi": 49,
          "time": 323.13509353125045,
          "velocity": 0.7874015748031497,
          "duration": 1.3333319999999844
        },
        {
          "name": "G#3",
          "midi": 56,
          "time": 323.13509353125045,
          "velocity": 0.7874015748031497,
          "duration": 1.3333319999999844
        },
        {
          "name": "G#2",
          "midi": 44,
          "time": 324.46842553125043,
          "velocity": 0.7874015748031497,
          "duration": 1.3333319999999844
        },
        {
          "name": "D#3",
          "midi": 51,
          "time": 324.46842553125043,
          "velocity": 0.7874015748031497,
          "duration": 1.3333319999999844
        },
        {
          "name": "C#3",
          "midi": 49,
          "time": 325.8017575312504,
          "velocity": 0.7874015748031497,
          "duration": 1.3333319999999844
        },
        {
          "name": "G#3",
          "midi": 56,
          "time": 325.8017575312504,
          "velocity": 0.7874015748031497,
          "duration": 1.3333319999999844
        },
        {
          "name": "A2",
          "midi": 45,
          "time": 327.1350895312504,
          "velocity": 0.7874015748031497,
          "duration": 1.3333319999999844
        },
        {
          "name": "E3",
          "midi": 52,
          "time": 327.1350895312504,
          "velocity": 0.7874015748031497,
          "duration": 1.3333319999999844
        },
        {
          "name": "E3",
          "midi": 52,
          "time": 328.4684215312504,
          "velocity": 0.7874015748031497,
          "duration": 0.16666650000001937
        },
        {
          "name": "B3",
          "midi": 59,
          "time": 328.4684215312504,
          "velocity": 0.7874015748031497,
          "duration": 0.16666650000001937
        },
        {
          "name": "E3",
          "midi": 52,
          "time": 328.6350880312504,
          "velocity": 0.7874015748031497,
          "duration": 0.16666650000001937
        },
        {
          "name": "E3",
          "midi": 52,
          "time": 328.8017545312504,
          "velocity": 0.7874015748031497,
          "duration": 0.16666650000001937
        },
        {
          "name": "E3",
          "midi": 52,
          "time": 328.96842103125044,
          "velocity": 0.7874015748031497,
          "duration": 0.16666650000001937
        },
        {
          "name": "B3",
          "midi": 59,
          "time": 328.96842103125044,
          "velocity": 0.7874015748031497,
          "duration": 0.16666650000001937
        },
        {
          "name": "E3",
          "midi": 52,
          "time": 329.13508753125046,
          "velocity": 0.7874015748031497,
          "duration": 0.16666650000001937
        },
        {
          "name": "E3",
          "midi": 52,
          "time": 329.3017540312505,
          "velocity": 0.7874015748031497,
          "duration": 0.16666650000001937
        },
        {
          "name": "E3",
          "midi": 52,
          "time": 329.4684205312505,
          "velocity": 0.7874015748031497,
          "duration": 0.3333329999999819
        },
        {
          "name": "B3",
          "midi": 59,
          "time": 329.4684205312505,
          "velocity": 0.7874015748031497,
          "duration": 0.3333329999999819
        },
        {
          "name": "B2",
          "midi": 47,
          "time": 329.8017535312505,
          "velocity": 0.7874015748031497,
          "duration": 0.16666650000001937
        },
        {
          "name": "F#3",
          "midi": 54,
          "time": 329.8017535312505,
          "velocity": 0.7874015748031497,
          "duration": 0.16666650000001937
        },
        {
          "name": "B2",
          "midi": 47,
          "time": 329.9684200312505,
          "velocity": 0.7874015748031497,
          "duration": 0.16666650000001937
        },
        {
          "name": "B2",
          "midi": 47,
          "time": 330.1350865312505,
          "velocity": 0.7874015748031497,
          "duration": 0.16666650000001937
        },
        {
          "name": "B2",
          "midi": 47,
          "time": 330.30175303125054,
          "velocity": 0.7874015748031497,
          "duration": 0.16666650000001937
        },
        {
          "name": "F#3",
          "midi": 54,
          "time": 330.30175303125054,
          "velocity": 0.7874015748031497,
          "duration": 0.16666650000001937
        },
        {
          "name": "B2",
          "midi": 47,
          "time": 330.46841953125056,
          "velocity": 0.7874015748031497,
          "duration": 0.16666650000001937
        },
        {
          "name": "B2",
          "midi": 47,
          "time": 330.6350860312506,
          "velocity": 0.7874015748031497,
          "duration": 0.16666650000001937
        },
        {
          "name": "B2",
          "midi": 47,
          "time": 330.8017525312506,
          "velocity": 0.7874015748031497,
          "duration": 0.3333329999999819
        },
        {
          "name": "F#3",
          "midi": 54,
          "time": 330.8017525312506,
          "velocity": 0.7874015748031497,
          "duration": 0.3333329999999819
        },
        {
          "name": "E3",
          "midi": 52,
          "time": 331.1350855312506,
          "velocity": 0.7874015748031497,
          "duration": 0.9999990000000025
        },
        {
          "name": "B3",
          "midi": 59,
          "time": 331.1350855312506,
          "velocity": 0.7874015748031497,
          "duration": 0.9999990000000025
        },
        {
          "name": "E3",
          "midi": 52,
          "time": 332.1350845312506,
          "velocity": 0.7874015748031497,
          "duration": 0.11111099999999396
        },
        {
          "name": "E3",
          "midi": 52,
          "time": 332.2461955312506,
          "velocity": 0.7874015748031497,
          "duration": 0.11111099999999396
        },
        {
          "name": "E3",
          "midi": 52,
          "time": 332.3573065312506,
          "velocity": 0.7874015748031497,
          "duration": 0.11111099999999396
        },
        {
          "name": "C3",
          "midi": 48,
          "time": 332.46841753125057,
          "velocity": 0.7874015748031497,
          "duration": 0.11111099999999396
        },
        {
          "name": "C3",
          "midi": 48,
          "time": 332.57952853125056,
          "velocity": 0.7874015748031497,
          "duration": 0.11111099999999396
        },
        {
          "name": "C3",
          "midi": 48,
          "time": 332.69063953125055,
          "velocity": 0.7874015748031497,
          "duration": 0.11111099999999396
        },
        {
          "name": "C3",
          "midi": 48,
          "time": 332.80175053125055,
          "velocity": 0.7874015748031497,
          "duration": 0.11111099999999396
        },
        {
          "name": "C3",
          "midi": 48,
          "time": 332.91286153125054,
          "velocity": 0.7874015748031497,
          "duration": 0.11111099999999396
        },
        {
          "name": "C3",
          "midi": 48,
          "time": 333.02397253125054,
          "velocity": 0.7874015748031497,
          "duration": 0.11111099999999396
        },
        {
          "name": "C3",
          "midi": 48,
          "time": 333.13508353125053,
          "velocity": 0.7874015748031497,
          "duration": 0.11111099999999396
        },
        {
          "name": "C3",
          "midi": 48,
          "time": 333.2461945312505,
          "velocity": 0.7874015748031497,
          "duration": 0.11111099999999396
        },
        {
          "name": "C3",
          "midi": 48,
          "time": 333.3573055312505,
          "velocity": 0.7874015748031497,
          "duration": 0.11111099999999396
        },
        {
          "name": "C3",
          "midi": 48,
          "time": 333.4684165312505,
          "velocity": 0.7874015748031497,
          "duration": 0.11111099999999396
        },
        {
          "name": "C3",
          "midi": 48,
          "time": 333.5795275312505,
          "velocity": 0.7874015748031497,
          "duration": 0.11111099999999396
        },
        {
          "name": "C3",
          "midi": 48,
          "time": 333.6906385312505,
          "velocity": 0.7874015748031497,
          "duration": 0.11111099999999396
        },
        {
          "name": "G2",
          "midi": 43,
          "time": 333.8017495312505,
          "velocity": 0.7874015748031497,
          "duration": 0.49999950000000126
        },
        {
          "name": "D3",
          "midi": 50,
          "time": 333.8017495312505,
          "velocity": 0.7874015748031497,
          "duration": 0.49999950000000126
        },
        {
          "name": "G2",
          "midi": 43,
          "time": 334.3017490312505,
          "velocity": 0.7874015748031497,
          "duration": 0.49999950000000126
        },
        {
          "name": "D3",
          "midi": 50,
          "time": 334.3017490312505,
          "velocity": 0.7874015748031497,
          "duration": 0.49999950000000126
        },
        {
          "name": "G2",
          "midi": 43,
          "time": 334.8017485312505,
          "velocity": 0.7874015748031497,
          "duration": 0.3333329999999819
        },
        {
          "name": "D3",
          "midi": 50,
          "time": 334.8017485312505,
          "velocity": 0.7874015748031497,
          "duration": 0.3333329999999819
        },
        {
          "name": "D3",
          "midi": 50,
          "time": 335.1350815312505,
          "velocity": 0.7874015748031497,
          "duration": 1.3333319999999844
        },
        {
          "name": "A3",
          "midi": 57,
          "time": 335.1350815312505,
          "velocity": 0.7874015748031497,
          "duration": 1.3333319999999844
        },
        {
          "name": "B3",
          "midi": 59,
          "time": 336.46841353125046,
          "velocity": 0.7874015748031497,
          "duration": 0.16666650000001937
        },
        {
          "name": "B3",
          "midi": 59,
          "time": 336.46841353125046,
          "velocity": 0.7874015748031497,
          "duration": 0.16666650000001937
        },
        {
          "name": "E3",
          "midi": 52,
          "time": 336.6350800312505,
          "velocity": 0.7874015748031497,
          "duration": 0.16666650000001937
        },
        {
          "name": "E3",
          "midi": 52,
          "time": 336.8017465312505,
          "velocity": 0.7874015748031497,
          "duration": 0.16666650000001937
        },
        {
          "name": "A3",
          "midi": 57,
          "time": 336.9684130312505,
          "velocity": 0.7874015748031497,
          "duration": 0.16666650000001937
        },
        {
          "name": "E3",
          "midi": 52,
          "time": 337.13507953125054,
          "velocity": 0.7874015748031497,
          "duration": 0.16666650000001937
        },
        {
          "name": "E3",
          "midi": 52,
          "time": 337.30174603125056,
          "velocity": 0.7874015748031497,
          "duration": 0.16666650000001937
        },
        {
          "name": "B3",
          "midi": 59,
          "time": 337.4684125312506,
          "velocity": 0.7874015748031497,
          "duration": 0.16666650000001937
        },
        {
          "name": "E3",
          "midi": 52,
          "time": 337.6350790312506,
          "velocity": 0.7874015748031497,
          "duration": 0.16666650000001937
        },
        {
          "name": "C4",
          "midi": 60,
          "time": 337.8017455312506,
          "velocity": 0.7874015748031497,
          "duration": 0.16666650000001937
        },
        {
          "name": "E3",
          "midi": 52,
          "time": 337.96841203125064,
          "velocity": 0.7874015748031497,
          "duration": 0.16666650000001937
        },
        {
          "name": "B3",
          "midi": 59,
          "time": 338.13507853125066,
          "velocity": 0.7874015748031497,
          "duration": 0.16666650000001937
        },
        {
          "name": "E3",
          "midi": 52,
          "time": 338.3017450312507,
          "velocity": 0.7874015748031497,
          "duration": 0.16666650000001937
        },
        {
          "name": "A3",
          "midi": 57,
          "time": 338.4684115312507,
          "velocity": 0.7874015748031497,
          "duration": 0.16666650000001937
        },
        {
          "name": "E3",
          "midi": 52,
          "time": 338.6350780312507,
          "velocity": 0.7874015748031497,
          "duration": 0.16666650000001937
        },
        {
          "name": "G3",
          "midi": 55,
          "time": 338.80174453125073,
          "velocity": 0.7874015748031497,
          "duration": 0.16666650000001937
        },
        {
          "name": "E3",
          "midi": 52,
          "time": 338.96841103125075,
          "velocity": 0.7874015748031497,
          "duration": 0.16666650000001937
        },
        {
          "name": "B3",
          "midi": 59,
          "time": 339.1350775312508,
          "velocity": 0.7874015748031497,
          "duration": 0.16666650000001937
        },
        {
          "name": "E3",
          "midi": 52,
          "time": 339.3017440312508,
          "velocity": 0.7874015748031497,
          "duration": 0.16666650000001937
        },
        {
          "name": "E3",
          "midi": 52,
          "time": 339.4684105312508,
          "velocity": 0.7874015748031497,
          "duration": 0.16666650000001937
        },
        {
          "name": "A3",
          "midi": 57,
          "time": 339.63507703125083,
          "velocity": 0.7874015748031497,
          "duration": 0.16666650000001937
        },
        {
          "name": "E3",
          "midi": 52,
          "time": 339.80174353125085,
          "velocity": 0.7874015748031497,
          "duration": 0.16666650000001937
        },
        {
          "name": "E3",
          "midi": 52,
          "time": 339.96841003125087,
          "velocity": 0.7874015748031497,
          "duration": 0.16666650000001937
        },
        {
          "name": "B3",
          "midi": 59,
          "time": 340.1350765312509,
          "velocity": 0.7874015748031497,
          "duration": 0.16666650000001937
        },
        {
          "name": "E3",
          "midi": 52,
          "time": 340.3017430312509,
          "velocity": 0.7874015748031497,
          "duration": 0.16666650000001937
        },
        {
          "name": "C4",
          "midi": 60,
          "time": 340.4684095312509,
          "velocity": 0.7874015748031497,
          "duration": 0.11111099999999396
        },
        {
          "name": "D4",
          "midi": 62,
          "time": 340.5795205312509,
          "velocity": 0.7874015748031497,
          "duration": 0.11111099999999396
        },
        {
          "name": "C4",
          "midi": 60,
          "time": 340.6906315312509,
          "velocity": 0.7874015748031497,
          "duration": 0.11111099999999396
        },
        {
          "name": "B3",
          "midi": 59,
          "time": 340.8017425312509,
          "velocity": 0.7874015748031497,
          "duration": 0.11111099999999396
        },
        {
          "name": "C4",
          "midi": 60,
          "time": 340.9128535312509,
          "velocity": 0.7874015748031497,
          "duration": 0.11111099999999396
        },
        {
          "name": "B3",
          "midi": 59,
          "time": 341.0239645312509,
          "velocity": 0.7874015748031497,
          "duration": 0.11111099999999396
        },
        {
          "name": "A3",
          "midi": 57,
          "time": 341.1350755312509,
          "velocity": 0.7874015748031497,
          "duration": 0.11111099999999396
        },
        {
          "name": "B3",
          "midi": 59,
          "time": 341.2461865312509,
          "velocity": 0.7874015748031497,
          "duration": 0.11111099999999396
        },
        {
          "name": "A3",
          "midi": 57,
          "time": 341.3572975312509,
          "velocity": 0.7874015748031497,
          "duration": 0.11111099999999396
        },
        {
          "name": "G3",
          "midi": 55,
          "time": 341.4684085312509,
          "velocity": 0.7874015748031497,
          "duration": 0.3333329999999819
        },
        {
          "name": "B3",
          "midi": 59,
          "time": 341.80174153125085,
          "velocity": 0.7874015748031497,
          "duration": 0.16666650000001937
        },
        {
          "name": "B3",
          "midi": 59,
          "time": 341.80174153125085,
          "velocity": 0.7874015748031497,
          "duration": 0.16666650000001937
        },
        {
          "name": "E3",
          "midi": 52,
          "time": 341.9684080312509,
          "velocity": 0.7874015748031497,
          "duration": 0.16666650000001937
        },
        {
          "name": "E3",
          "midi": 52,
          "time": 342.1350745312509,
          "velocity": 0.7874015748031497,
          "duration": 0.16666650000001937
        },
        {
          "name": "A3",
          "midi": 57,
          "time": 342.3017410312509,
          "velocity": 0.7874015748031497,
          "duration": 0.16666650000001937
        },
        {
          "name": "E3",
          "midi": 52,
          "time": 342.46840753125093,
          "velocity": 0.7874015748031497,
          "duration": 0.16666650000001937
        },
        {
          "name": "E3",
          "midi": 52,
          "time": 342.63507403125095,
          "velocity": 0.7874015748031497,
          "duration": 0.16666650000001937
        },
        {
          "name": "B3",
          "midi": 59,
          "time": 342.80174053125097,
          "velocity": 0.7874015748031497,
          "duration": 0.16666650000001937
        },
        {
          "name": "E3",
          "midi": 52,
          "time": 342.968407031251,
          "velocity": 0.7874015748031497,
          "duration": 0.16666650000001937
        },
        {
          "name": "C4",
          "midi": 60,
          "time": 343.135073531251,
          "velocity": 0.7874015748031497,
          "duration": 0.16666650000001937
        },
        {
          "name": "E3",
          "midi": 52,
          "time": 343.30174003125103,
          "velocity": 0.7874015748031497,
          "duration": 0.16666650000001937
        },
        {
          "name": "B3",
          "midi": 59,
          "time": 343.46840653125105,
          "velocity": 0.7874015748031497,
          "duration": 0.16666650000001937
        },
        {
          "name": "E3",
          "midi": 52,
          "time": 343.63507303125107,
          "velocity": 0.7874015748031497,
          "duration": 0.16666650000001937
        },
        {
          "name": "A3",
          "midi": 57,
          "time": 343.8017395312511,
          "velocity": 0.7874015748031497,
          "duration": 0.16666650000001937
        },
        {
          "name": "E3",
          "midi": 52,
          "time": 343.9684060312511,
          "velocity": 0.7874015748031497,
          "duration": 0.16666650000001937
        },
        {
          "name": "G3",
          "midi": 55,
          "time": 344.1350725312511,
          "velocity": 0.7874015748031497,
          "duration": 0.16666650000001937
        },
        {
          "name": "E3",
          "midi": 52,
          "time": 344.30173903125115,
          "velocity": 0.7874015748031497,
          "duration": 0.16666650000001937
        },
        {
          "name": "F#3",
          "midi": 54,
          "time": 344.46840553125116,
          "velocity": 0.7874015748031497,
          "duration": 0.49999950000000126
        },
        {
          "name": "G3",
          "midi": 55,
          "time": 344.96840503125117,
          "velocity": 0.7874015748031497,
          "duration": 0.49999950000000126
        },
        {
          "name": "E3",
          "midi": 52,
          "time": 345.46840453125117,
          "velocity": 0.7874015748031497,
          "duration": 0.9999990000000025
        },
        {
          "name": "A3",
          "midi": 57,
          "time": 346.46840353125117,
          "velocity": 0.7874015748031497,
          "duration": 0.3333329999999819
        },
        {
          "name": "G3",
          "midi": 55,
          "time": 346.80173653125115,
          "velocity": 0.7874015748031497,
          "duration": 0.3333329999999819
        },
        {
          "name": "F#3",
          "midi": 54,
          "time": 347.13506953125113,
          "velocity": 0.7874015748031497,
          "duration": 0.6666660000000206
        },
        {
          "name": "G3",
          "midi": 55,
          "time": 347.80173553125115,
          "velocity": 0.7874015748031497,
          "duration": 0.3333329999999819
        },
        {
          "name": "E3",
          "midi": 52,
          "time": 348.13506853125114,
          "velocity": 0.7874015748031497,
          "duration": 0.9999990000000025
        },
        {
          "name": "D3",
          "midi": 50,
          "time": 349.13506753125114,
          "velocity": 0.7874015748031497,
          "duration": 0.583332750000011
        },
        {
          "name": "B3",
          "midi": 59,
          "time": 349.80173353125116,
          "velocity": 0.7874015748031497,
          "duration": 0.16666650000001937
        },
        {
          "name": "B3",
          "midi": 59,
          "time": 349.80173353125116,
          "velocity": 0.7874015748031497,
          "duration": 0.16666650000001937
        },
        {
          "name": "E3",
          "midi": 52,
          "time": 349.9684000312512,
          "velocity": 0.7874015748031497,
          "duration": 0.16666650000001937
        },
        {
          "name": "E3",
          "midi": 52,
          "time": 350.1350665312512,
          "velocity": 0.7874015748031497,
          "duration": 0.16666650000001937
        },
        {
          "name": "A3",
          "midi": 57,
          "time": 350.3017330312512,
          "velocity": 0.7874015748031497,
          "duration": 0.16666650000001937
        },
        {
          "name": "E3",
          "midi": 52,
          "time": 350.46839953125124,
          "velocity": 0.7874015748031497,
          "duration": 0.16666650000001937
        },
        {
          "name": "E3",
          "midi": 52,
          "time": 350.63506603125126,
          "velocity": 0.7874015748031497,
          "duration": 0.16666650000001937
        },
        {
          "name": "B3",
          "midi": 59,
          "time": 350.8017325312513,
          "velocity": 0.7874015748031497,
          "duration": 0.16666650000001937
        },
        {
          "name": "E3",
          "midi": 52,
          "time": 350.9683990312513,
          "velocity": 0.7874015748031497,
          "duration": 0.16666650000001937
        },
        {
          "name": "C4",
          "midi": 60,
          "time": 351.1350655312513,
          "velocity": 0.7874015748031497,
          "duration": 0.16666650000001937
        },
        {
          "name": "E3",
          "midi": 52,
          "time": 351.30173203125133,
          "velocity": 0.7874015748031497,
          "duration": 0.16666650000001937
        },
        {
          "name": "B3",
          "midi": 59,
          "time": 351.46839853125135,
          "velocity": 0.7874015748031497,
          "duration": 0.16666650000001937
        },
        {
          "name": "E3",
          "midi": 52,
          "time": 351.6350650312514,
          "velocity": 0.7874015748031497,
          "duration": 0.16666650000001937
        },
        {
          "name": "A3",
          "midi": 57,
          "time": 351.8017315312514,
          "velocity": 0.7874015748031497,
          "duration": 0.16666650000001937
        },
        {
          "name": "E3",
          "midi": 52,
          "time": 351.9683980312514,
          "velocity": 0.7874015748031497,
          "duration": 0.16666650000001937
        },
        {
          "name": "G3",
          "midi": 55,
          "time": 352.13506453125143,
          "velocity": 0.7874015748031497,
          "duration": 0.16666650000001937
        },
        {
          "name": "E3",
          "midi": 52,
          "time": 352.30173103125145,
          "velocity": 0.7874015748031497,
          "duration": 0.16666650000001937
        },
        {
          "name": "B3",
          "midi": 59,
          "time": 352.46839753125147,
          "velocity": 0.7874015748031497,
          "duration": 0.16666650000001937
        },
        {
          "name": "E3",
          "midi": 52,
          "time": 352.6350640312515,
          "velocity": 0.7874015748031497,
          "duration": 0.16666650000001937
        },
        {
          "name": "E3",
          "midi": 52,
          "time": 352.8017305312515,
          "velocity": 0.7874015748031497,
          "duration": 0.16666650000001937
        },
        {
          "name": "A3",
          "midi": 57,
          "time": 352.9683970312515,
          "velocity": 0.7874015748031497,
          "duration": 0.16666650000001937
        },
        {
          "name": "E3",
          "midi": 52,
          "time": 353.13506353125155,
          "velocity": 0.7874015748031497,
          "duration": 0.16666650000001937
        },
        {
          "name": "E3",
          "midi": 52,
          "time": 353.30173003125157,
          "velocity": 0.7874015748031497,
          "duration": 0.16666650000001937
        },
        {
          "name": "B3",
          "midi": 59,
          "time": 353.4683965312516,
          "velocity": 0.7874015748031497,
          "duration": 0.16666650000001937
        },
        {
          "name": "E3",
          "midi": 52,
          "time": 353.6350630312516,
          "velocity": 0.7874015748031497,
          "duration": 0.16666650000001937
        },
        {
          "name": "C4",
          "midi": 60,
          "time": 353.8017295312516,
          "velocity": 0.7874015748031497,
          "duration": 0.11111099999999396
        },
        {
          "name": "D4",
          "midi": 62,
          "time": 353.9128405312516,
          "velocity": 0.7874015748031497,
          "duration": 0.11111099999999396
        },
        {
          "name": "C4",
          "midi": 60,
          "time": 354.0239515312516,
          "velocity": 0.7874015748031497,
          "duration": 0.11111099999999396
        },
        {
          "name": "B3",
          "midi": 59,
          "time": 354.1350625312516,
          "velocity": 0.7874015748031497,
          "duration": 0.11111099999999396
        },
        {
          "name": "C4",
          "midi": 60,
          "time": 354.2461735312516,
          "velocity": 0.7874015748031497,
          "duration": 0.11111099999999396
        },
        {
          "name": "B3",
          "midi": 59,
          "time": 354.3572845312516,
          "velocity": 0.7874015748031497,
          "duration": 0.11111099999999396
        },
        {
          "name": "A3",
          "midi": 57,
          "time": 354.4683955312516,
          "velocity": 0.7874015748031497,
          "duration": 0.11111099999999396
        },
        {
          "name": "B3",
          "midi": 59,
          "time": 354.5795065312516,
          "velocity": 0.7874015748031497,
          "duration": 0.11111099999999396
        },
        {
          "name": "A3",
          "midi": 57,
          "time": 354.6906175312516,
          "velocity": 0.7874015748031497,
          "duration": 0.11111099999999396
        },
        {
          "name": "G3",
          "midi": 55,
          "time": 354.80172853125157,
          "velocity": 0.7874015748031497,
          "duration": 0.3333329999999819
        },
        {
          "name": "B3",
          "midi": 59,
          "time": 355.13506153125155,
          "velocity": 0.7874015748031497,
          "duration": 0.16666650000001937
        },
        {
          "name": "B3",
          "midi": 59,
          "time": 355.13506153125155,
          "velocity": 0.7874015748031497,
          "duration": 0.16666650000001937
        },
        {
          "name": "E3",
          "midi": 52,
          "time": 355.30172803125157,
          "velocity": 0.7874015748031497,
          "duration": 0.16666650000001937
        },
        {
          "name": "E3",
          "midi": 52,
          "time": 355.4683945312516,
          "velocity": 0.7874015748031497,
          "duration": 0.16666650000001937
        },
        {
          "name": "A3",
          "midi": 57,
          "time": 355.6350610312516,
          "velocity": 0.7874015748031497,
          "duration": 0.16666650000001937
        },
        {
          "name": "E3",
          "midi": 52,
          "time": 355.80172753125163,
          "velocity": 0.7874015748031497,
          "duration": 0.16666650000001937
        },
        {
          "name": "E3",
          "midi": 52,
          "time": 355.96839403125165,
          "velocity": 0.7874015748031497,
          "duration": 0.16666650000001937
        },
        {
          "name": "B3",
          "midi": 59,
          "time": 356.13506053125167,
          "velocity": 0.7874015748031497,
          "duration": 0.16666650000001937
        },
        {
          "name": "E3",
          "midi": 52,
          "time": 356.3017270312517,
          "velocity": 0.7874015748031497,
          "duration": 0.16666650000001937
        },
        {
          "name": "C4",
          "midi": 60,
          "time": 356.4683935312517,
          "velocity": 0.7874015748031497,
          "duration": 0.16666650000001937
        },
        {
          "name": "E3",
          "midi": 52,
          "time": 356.6350600312517,
          "velocity": 0.7874015748031497,
          "duration": 0.16666650000001937
        },
        {
          "name": "B3",
          "midi": 59,
          "time": 356.80172653125175,
          "velocity": 0.7874015748031497,
          "duration": 0.16666650000001937
        },
        {
          "name": "E3",
          "midi": 52,
          "time": 356.96839303125176,
          "velocity": 0.7874015748031497,
          "duration": 0.16666650000001937
        },
        {
          "name": "A3",
          "midi": 57,
          "time": 357.1350595312518,
          "velocity": 0.7874015748031497,
          "duration": 0.16666650000001937
        },
        {
          "name": "E3",
          "midi": 52,
          "time": 357.3017260312518,
          "velocity": 0.7874015748031497,
          "duration": 0.16666650000001937
        },
        {
          "name": "G3",
          "midi": 55,
          "time": 357.4683925312518,
          "velocity": 0.7874015748031497,
          "duration": 0.16666650000001937
        },
        {
          "name": "E3",
          "midi": 52,
          "time": 357.63505903125184,
          "velocity": 0.7874015748031497,
          "duration": 0.16666650000001937
        },
        {
          "name": "C4",
          "midi": 60,
          "time": 357.80172553125186,
          "velocity": 0.7874015748031497,
          "duration": 0.11111099999999396
        },
        {
          "name": "D4",
          "midi": 62,
          "time": 357.91144764375184,
          "velocity": 0.7874015748031497,
          "duration": 0.11111099999999396
        },
        {
          "name": "E4",
          "midi": 64,
          "time": 358.02394753125185,
          "velocity": 0.7874015748031497,
          "duration": 0.11111099999999396
        },
        {
          "name": "F#4",
          "midi": 66,
          "time": 358.13505853125184,
          "velocity": 0.7874015748031497,
          "duration": 0.11111099999999396
        },
        {
          "name": "G4",
          "midi": 67,
          "time": 358.24616953125184,
          "velocity": 0.7874015748031497,
          "duration": 0.11111099999999396
        },
        {
          "name": "A4",
          "midi": 69,
          "time": 358.35728053125183,
          "velocity": 0.7874015748031497,
          "duration": 0.11111099999999396
        },
        {
          "name": "B4",
          "midi": 71,
          "time": 358.4683915312518,
          "velocity": 0.7874015748031497,
          "duration": 0.11111099999999396
        },
        {
          "name": "C5",
          "midi": 72,
          "time": 358.5795025312518,
          "velocity": 0.7874015748031497,
          "duration": 0.11111099999999396
        },
        {
          "name": "D5",
          "midi": 74,
          "time": 358.6906135312518,
          "velocity": 0.7874015748031497,
          "duration": 0.11111099999999396
        },
        {
          "name": "D5",
          "midi": 74,
          "time": 358.8017245312518,
          "velocity": 0.7874015748031497,
          "duration": 0.11111099999999396
        },
        {
          "name": "E5",
          "midi": 76,
          "time": 358.9128355312518,
          "velocity": 0.7874015748031497,
          "duration": 0.11111099999999396
        },
        {
          "name": "F#5",
          "midi": 78,
          "time": 359.0239465312518,
          "velocity": 0.7874015748031497,
          "duration": 0.11111099999999396
        },
        {
          "name": "G5",
          "midi": 79,
          "time": 359.1350575312518,
          "velocity": 0.7874015748031497,
          "duration": 1.3333319999999844
        },
        {
          "name": "D4",
          "midi": 62,
          "time": 360.4683895312518,
          "velocity": 0.7874015748031497,
          "duration": 0.11111099999999396
        },
        {
          "name": "E4",
          "midi": 64,
          "time": 360.57950053125177,
          "velocity": 0.7874015748031497,
          "duration": 0.11111099999999396
        },
        {
          "name": "F#4",
          "midi": 66,
          "time": 360.69061153125176,
          "velocity": 0.7874015748031497,
          "duration": 0.11111099999999396
        },
        {
          "name": "G4",
          "midi": 67,
          "time": 360.80172253125176,
          "velocity": 0.7874015748031497,
          "duration": 0.11111099999999396
        },
        {
          "name": "A4",
          "midi": 69,
          "time": 360.91283353125175,
          "velocity": 0.7874015748031497,
          "duration": 0.11111099999999396
        },
        {
          "name": "B4",
          "midi": 71,
          "time": 361.02394453125174,
          "velocity": 0.7874015748031497,
          "duration": 0.11111099999999396
        },
        {
          "name": "C5",
          "midi": 72,
          "time": 361.13505553125174,
          "velocity": 0.7874015748031497,
          "duration": 0.11111099999999396
        },
        {
          "name": "D5",
          "midi": 74,
          "time": 361.24616653125173,
          "velocity": 0.7874015748031497,
          "duration": 0.11111099999999396
        },
        {
          "name": "E5",
          "midi": 76,
          "time": 361.3572775312517,
          "velocity": 0.7874015748031497,
          "duration": 0.11111099999999396
        },
        {
          "name": "F#5",
          "midi": 78,
          "time": 361.4683885312517,
          "velocity": 0.7874015748031497,
          "duration": 0.11111099999999396
        },
        {
          "name": "G5",
          "midi": 79,
          "time": 361.5794995312517,
          "velocity": 0.7874015748031497,
          "duration": 0.11111099999999396
        },
        {
          "name": "A5",
          "midi": 81,
          "time": 361.6906105312517,
          "velocity": 0.7874015748031497,
          "duration": 0.7777770000000146
        },
        {
          "name": "B5",
          "midi": 83,
          "time": 362.4683875312517,
          "velocity": 0.7874015748031497,
          "duration": 0.6666660000000206
        },
        {
          "name": "G5",
          "midi": 79,
          "time": 363.13505353125174,
          "velocity": 0.7874015748031497,
          "duration": 2.6666640000000257
        }
      ],
      "controlChanges": {},
      "id": 1,
      "name": "MIDI Guitar Advanced",
      "channelNumber": 0,
      "isPercussion": false
    }
  ]
}