{
  "header": {
    "PPQ": 480,
    "timeSignature": [
      4,
      4
    ],
    "bpm": 180.00018000018,
    "name": "FREEDOM OF PRESS MIDI FILE IMPORT FIRST"
  },
  "tempo": [
    {
      "absoluteTime": 0,
      "seconds": 0,
      "bpm": 180.00018000018
    },
    {
      "absoluteTime": 7680,
      "seconds": 5.333328,
      "bpm": 180.00072000288
    },
    {
      "absoluteTime": 17280,
      "seconds": 11.999988,
      "bpm": 180.00018000018
    }
  ],
  "timeSignature": [
    {
      "absoluteTime": 0,
      "seconds": 0,
      "numerator": 4,
      "denominator": 2,
      "click": 24,
      "notesQ": 8
    },
    {
      "absoluteTime": 7680,
      "seconds": 5.333328,
      "numerator": 4,
      "denominator": 2,
      "click": 24,
      "notesQ": 8
    },
    {
      "absoluteTime": 17280,
      "seconds": 11.999988,
      "numerator": 4,
      "denominator": 2,
      "click": 24,
      "notesQ": 8
    }
  ],
  "startTime": 0,
  "duration": 365.8017175312511,
  "tracks": [
    {
      "startTime": 0,
      "duration": 0,
      "length": 0,
      "notes": [],
      "controlChanges": {},
      "id": 0,
      "name": "FREEDOM OF PRESS MIDI FILE IMPORT FIRST"
    },
    {
      "startTime": 2.999997,
      "duration": 365.8017175312511,
      "length": 515,
      "notes": [
        {
          "name": "D3",
          "midi": 50,
          "time": 2.999997,
          "velocity": 0.7874015748031497,
          "duration": 0.1354165312500002
        },
        {
          "name": "B3",
          "midi": 59,
          "time": 3.13541353125,
          "velocity": 0.7874015748031497,
          "duration": 0.16666649999999983
        },
        {
          "name": "B3",
          "midi": 59,
          "time": 3.13541353125,
          "velocity": 0.7874015748031497,
          "duration": 0.16666649999999983
        },
        {
          "name": "A3",
          "midi": 57,
          "time": 3.63541303125,
          "velocity": 0.7874015748031497,
          "duration": 0.16666649999999983
        },
        {
          "name": "B3",
          "midi": 59,
          "time": 4.13541253125,
          "velocity": 0.7874015748031497,
          "duration": 0.16666649999999983
        },
        {
          "name": "C4",
          "midi": 60,
          "time": 4.46874553125,
          "velocity": 0.7874015748031497,
          "duration": 0.16666649999999983
        },
        {
          "name": "B3",
          "midi": 59,
          "time": 4.802078531249999,
          "velocity": 0.7874015748031497,
          "duration": 0.16666649999999983
        },
        {
          "name": "A3",
          "midi": 57,
          "time": 5.135411531249999,
          "velocity": 0.7874015748031497,
          "duration": 0.16666649999999983
        },
        {
          "name": "G3",
          "midi": 55,
          "time": 5.468744531249999,
          "velocity": 0.7874015748031497,
          "duration": 0.16666649999999983
        },
        {
          "name": "B3",
          "midi": 59,
          "time": 5.802077531249998,
          "velocity": 0.7874015748031497,
          "duration": 0.16666649999999983
        },
        {
          "name": "A3",
          "midi": 57,
          "time": 6.302077031249998,
          "velocity": 0.7874015748031497,
          "duration": 0.16666649999999983
        },
        {
          "name": "B3",
          "midi": 59,
          "time": 6.802076531249997,
          "velocity": 0.7874015748031497,
          "duration": 0.16666649999999983
        },
        {
          "name": "C4",
          "midi": 60,
          "time": 7.135409531249997,
          "velocity": 0.7874015748031497,
          "duration": 0.11111100000000018
        },
        {
          "name": "B3",
          "midi": 59,
          "time": 8.468741531249997,
          "velocity": 0.7874015748031497,
          "duration": 0.16666649999999983
        },
        {
          "name": "B3",
          "midi": 59,
          "time": 8.468741531249997,
          "velocity": 0.7874015748031497,
          "duration": 0.16666649999999983
        },
        {
          "name": "A3",
          "midi": 57,
          "time": 8.968741031249996,
          "velocity": 0.7874015748031497,
          "duration": 0.16666649999999983
        },
        {
          "name": "B3",
          "midi": 59,
          "time": 9.468740531249995,
          "velocity": 0.7874015748031497,
          "duration": 0.16666649999999983
        },
        {
          "name": "C4",
          "midi": 60,
          "time": 9.802073531249995,
          "velocity": 0.7874015748031497,
          "duration": 0.16666649999999983
        },
        {
          "name": "B3",
          "midi": 59,
          "time": 10.135406531249995,
          "velocity": 0.7874015748031497,
          "duration": 0.16666649999999983
        },
        {
          "name": "A3",
          "midi": 57,
          "time": 10.468739531249994,
          "velocity": 0.7874015748031497,
          "duration": 0.16666649999999983
        },
        {
          "name": "G3",
          "midi": 55,
          "time": 10.802072531249994,
          "velocity": 0.7874015748031497,
          "duration": 0.16666649999999983
        },
        {
          "name": "F#3",
          "midi": 54,
          "time": 11.135405531249994,
          "velocity": 0.7874015748031497,
          "duration": 0.5833327500000003
        },
        {
          "name": "G3",
          "midi": 55,
          "time": 11.718738281249994,
          "velocity": 0.7874015748031497,
          "duration": 0.41666625000000046
        },
        {
          "name": "E3",
          "midi": 52,
          "time": 12.135404531249995,
          "velocity": 0.7874015748031497,
          "duration": 0.9999990000000007
        },
        {
          "name": "A3",
          "midi": 57,
          "time": 13.135403531249995,
          "velocity": 0.7874015748031497,
          "duration": 0.33333299999999966
        },
        {
          "name": "G3",
          "midi": 55,
          "time": 13.468736531249995,
          "velocity": 0.7874015748031497,
          "duration": 0.33333299999999966
        },
        {
          "name": "F#3",
          "midi": 54,
          "time": 13.802069531249995,
          "velocity": 0.7874015748031497,
          "duration": 0.6666659999999993
        },
        {
          "name": "G3",
          "midi": 55,
          "time": 14.468735531249994,
          "velocity": 0.7874015748031497,
          "duration": 0.33333299999999966
        },
        {
          "name": "E3",
          "midi": 52,
          "time": 14.802068531249994,
          "velocity": 0.7874015748031497,
          "duration": 0.9999990000000007
        },
        {
          "name": "D3",
          "midi": 50,
          "time": 15.802067531249994,
          "velocity": 0.7874015748031497,
          "duration": 0.5833327499999985
        },
        {
          "name": "B3",
          "midi": 59,
          "time": 16.468733531249992,
          "velocity": 0.7874015748031497,
          "duration": 0.1666665000000016
        },
        {
          "name": "B3",
          "midi": 59,
          "time": 16.468733531249992,
          "velocity": 0.7874015748031497,
          "duration": 0.1666665000000016
        },
        {
          "name": "A3",
          "midi": 57,
          "time": 16.968733031249993,
          "velocity": 0.7874015748031497,
          "duration": 0.1666665000000016
        },
        {
          "name": "B3",
          "midi": 59,
          "time": 17.468732531249994,
          "velocity": 0.7874015748031497,
          "duration": 0.1666665000000016
        },
        {
          "name": "C4",
          "midi": 60,
          "time": 17.802065531249998,
          "velocity": 0.7874015748031497,
          "duration": 0.1666665000000016
        },
        {
          "name": "B3",
          "midi": 59,
          "time": 18.13539853125,
          "velocity": 0.7874015748031497,
          "duration": 0.1666665000000016
        },
        {
          "name": "A3",
          "midi": 57,
          "time": 18.468731531250004,
          "velocity": 0.7874015748031497,
          "duration": 0.1666665000000016
        },
        {
          "name": "G3",
          "midi": 55,
          "time": 18.802064531250007,
          "velocity": 0.7874015748031497,
          "duration": 0.1666665000000016
        },
        {
          "name": "B3",
          "midi": 59,
          "time": 19.13539753125001,
          "velocity": 0.7874015748031497,
          "duration": 0.1666665000000016
        },
        {
          "name": "A3",
          "midi": 57,
          "time": 19.63539703125001,
          "velocity": 0.7874015748031497,
          "duration": 0.1666665000000016
        },
        {
          "name": "B3",
          "midi": 59,
          "time": 20.135396531250013,
          "velocity": 0.7874015748031497,
          "duration": 0.1666665000000016
        },
        {
          "name": "C4",
          "midi": 60,
          "time": 20.468729531250016,
          "velocity": 0.7874015748031497,
          "duration": 0.11111100000000107
        },
        {
          "name": "B3",
          "midi": 59,
          "time": 21.80206153125002,
          "velocity": 0.7874015748031497,
          "duration": 0.1666665000000016
        },
        {
          "name": "B3",
          "midi": 59,
          "time": 21.80206153125002,
          "velocity": 0.7874015748031497,
          "duration": 0.1666665000000016
        },
        {
          "name": "A3",
          "midi": 57,
          "time": 22.30206103125002,
          "velocity": 0.7874015748031497,
          "duration": 0.1666665000000016
        },
        {
          "name": "B3",
          "midi": 59,
          "time": 22.80206053125002,
          "velocity": 0.7874015748031497,
          "duration": 0.1666665000000016
        },
        {
          "name": "C4",
          "midi": 60,
          "time": 23.135393531250024,
          "velocity": 0.7874015748031497,
          "duration": 0.1666665000000016
        },
        {
          "name": "B3",
          "midi": 59,
          "time": 23.468726531250027,
          "velocity": 0.7874015748031497,
          "duration": 0.1666665000000016
        },
        {
          "name": "A3",
          "midi": 57,
          "time": 23.80205953125003,
          "velocity": 0.7874015748031497,
          "duration": 0.1666665000000016
        },
        {
          "name": "G3",
          "midi": 55,
          "time": 24.135392531250034,
          "velocity": 0.7874015748031497,
          "duration": 0.1666665000000016
        },
        {
          "name": "F#3",
          "midi": 54,
          "time": 24.468725531250037,
          "velocity": 0.7874015748031497,
          "duration": 0.5833327500000003
        },
        {
          "name": "G3",
          "midi": 55,
          "time": 25.052058281250037,
          "velocity": 0.7874015748031497,
          "duration": 0.4166662499999987
        },
        {
          "name": "E3",
          "midi": 52,
          "time": 25.468724531250036,
          "velocity": 0.7874015748031497,
          "duration": 0.999998999999999
        },
        {
          "name": "A3",
          "midi": 57,
          "time": 26.468723531250035,
          "velocity": 0.7874015748031497,
          "duration": 0.33333299999999966
        },
        {
          "name": "G3",
          "midi": 55,
          "time": 26.802056531250035,
          "velocity": 0.7874015748031497,
          "duration": 0.33333299999999966
        },
        {
          "name": "F#3",
          "midi": 54,
          "time": 27.135389531250034,
          "velocity": 0.7874015748031497,
          "duration": 0.6666659999999993
        },
        {
          "name": "G3",
          "midi": 55,
          "time": 27.802055531250033,
          "velocity": 0.7874015748031497,
          "duration": 0.33333299999999966
        },
        {
          "name": "D3",
          "midi": 50,
          "time": 28.135388531250033,
          "velocity": 0.7874015748031497,
          "duration": 0.999998999999999
        },
        {
          "name": "B2",
          "midi": 47,
          "time": 29.135387531250032,
          "velocity": 0.7874015748031497,
          "duration": 0.6666659999999993
        },
        {
          "name": "E2",
          "midi": 40,
          "time": 29.80205353125003,
          "velocity": 0.7874015748031497,
          "duration": 2.6666639999999973
        },
        {
          "name": "E3",
          "midi": 52,
          "time": 32.46871753125003,
          "velocity": 0.7874015748031497,
          "duration": 0.24999975000000063
        },
        {
          "name": "B3",
          "midi": 59,
          "time": 32.46871753125003,
          "velocity": 0.7874015748031497,
          "duration": 0.16666649999999805
        },
        {
          "name": "C3",
          "midi": 48,
          "time": 33.80204953125003,
          "velocity": 0.7874015748031497,
          "duration": 0.24999975000000063
        },
        {
          "name": "G3",
          "midi": 55,
          "time": 33.80204953125003,
          "velocity": 0.7874015748031497,
          "duration": 0.16666649999999805
        },
        {
          "name": "E3",
          "midi": 52,
          "time": 35.135381531250026,
          "velocity": 0.7874015748031497,
          "duration": 0.24999975000000063
        },
        {
          "name": "B3",
          "midi": 59,
          "time": 35.135381531250026,
          "velocity": 0.7874015748031497,
          "duration": 0.16666649999999805
        },
        {
          "name": "C3",
          "midi": 48,
          "time": 36.468713531250025,
          "velocity": 0.7874015748031497,
          "duration": 0.6666659999999993
        },
        {
          "name": "A2",
          "midi": 45,
          "time": 37.135379531250024,
          "velocity": 0.7874015748031497,
          "duration": 0.3333330000000032
        },
        {
          "name": "D3",
          "midi": 50,
          "time": 37.46871253125003,
          "velocity": 0.7874015748031497,
          "duration": 0.3333330000000032
        },
        {
          "name": "E3",
          "midi": 52,
          "time": 37.80204553125003,
          "velocity": 0.7874015748031497,
          "duration": 0.24999975000000063
        },
        {
          "name": "B3",
          "midi": 59,
          "time": 37.80204553125003,
          "velocity": 0.7874015748031497,
          "duration": 0.16666649999999805
        },
        {
          "name": "C3",
          "midi": 48,
          "time": 39.13537753125003,
          "velocity": 0.7874015748031497,
          "duration": 0.24999975000000063
        },
        {
          "name": "G3",
          "midi": 55,
          "time": 39.13537753125003,
          "velocity": 0.7874015748031497,
          "duration": 0.16666649999999805
        },
        {
          "name": "E3",
          "midi": 52,
          "time": 40.46870953125003,
          "velocity": 0.7874015748031497,
          "duration": 0.24999975000000063
        },
        {
          "name": "B3",
          "midi": 59,
          "time": 40.46870953125003,
          "velocity": 0.7874015748031497,
          "duration": 0.16666649999999805
        },
        {
          "name": "C3",
          "midi": 48,
          "time": 41.802041531250026,
          "velocity": 0.7874015748031497,
          "duration": 0.6666659999999993
        },
        {
          "name": "C3",
          "midi": 48,
          "time": 42.468707531250026,
          "velocity": 0.7874015748031497,
          "duration": 0.3333330000000032
        },
        {
          "name": "D3",
          "midi": 50,
          "time": 42.80204053125003,
          "velocity": 0.7874015748031497,
          "duration": 0.3333330000000032
        },
        {
          "name": "E3",
          "midi": 52,
          "time": 43.13537353125003,
          "velocity": 0.7874015748031497,
          "duration": 0.24999975000000063
        },
        {
          "name": "B3",
          "midi": 59,
          "time": 43.13537353125003,
          "velocity": 0.7874015748031497,
          "duration": 0.16666649999999805
        },
        {
          "name": "C3",
          "midi": 48,
          "time": 44.46870553125003,
          "velocity": 0.7874015748031497,
          "duration": 0.24999975000000063
        },
        {
          "name": "G3",
          "midi": 55,
          "time": 44.46870553125003,
          "velocity": 0.7874015748031497,
          "duration": 0.16666649999999805
        },
        {
          "name": "E3",
          "midi": 52,
          "time": 45.80203753125003,
          "velocity": 0.7874015748031497,
          "duration": 0.24999975000000063
        },
        {
          "name": "B3",
          "midi": 59,
          "time": 45.80203753125003,
          "velocity": 0.7874015748031497,
          "duration": 0.16666649999999805
        },
        {
          "name": "C3",
          "midi": 48,
          "time": 47.13536953125003,
          "velocity": 0.7874015748031497,
          "duration": 0.6666659999999993
        },
        {
          "name": "A2",
          "midi": 45,
          "time": 47.80203553125003,
          "velocity": 0.7874015748031497,
          "duration": 0.3333330000000032
        },
        {
          "name": "D3",
          "midi": 50,
          "time": 48.13536853125003,
          "velocity": 0.7874015748031497,
          "duration": 0.3333330000000032
        },
        {
          "name": "E3",
          "midi": 52,
          "time": 48.468701531250034,
          "velocity": 0.7874015748031497,
          "duration": 0.24999975000000063
        },
        {
          "name": "B3",
          "midi": 59,
          "time": 48.468701531250034,
          "velocity": 0.7874015748031497,
          "duration": 0.16666649999999805
        },
        {
          "name": "C3",
          "midi": 48,
          "time": 49.80203353125003,
          "velocity": 0.7874015748031497,
          "duration": 0.24999975000000063
        },
        {
          "name": "G3",
          "midi": 55,
          "time": 49.80203353125003,
          "velocity": 0.7874015748031497,
          "duration": 0.16666649999999805
        },
        {
          "name": "E3",
          "midi": 52,
          "time": 51.13536553125003,
          "velocity": 0.7874015748031497,
          "duration": 0.24999975000000063
        },
        {
          "name": "B3",
          "midi": 59,
          "time": 51.13536553125003,
          "velocity": 0.7874015748031497,
          "duration": 0.16666649999999805
        },
        {
          "name": "C3",
          "midi": 48,
          "time": 52.46869753125003,
          "velocity": 0.7874015748031497,
          "duration": 0.6666659999999993
        },
        {
          "name": "C3",
          "midi": 48,
          "time": 53.13536353125003,
          "velocity": 0.7874015748031497,
          "duration": 0.3333330000000032
        },
        {
          "name": "D3",
          "midi": 50,
          "time": 53.46869653125003,
          "velocity": 0.7874015748031497,
          "duration": 0.3333330000000032
        },
        {
          "name": "E3",
          "midi": 52,
          "time": 53.802029531250035,
          "velocity": 0.7874015748031497,
          "duration": 0.16666649999999805
        },
        {
          "name": "E3",
          "midi": 52,
          "time": 55.135361531250034,
          "velocity": 0.7874015748031497,
          "duration": 0.16666649999999805
        },
        {
          "name": "A3",
          "midi": 57,
          "time": 56.46869353125003,
          "velocity": 0.7874015748031497,
          "duration": 0.16666649999999805
        },
        {
          "name": "A3",
          "midi": 57,
          "time": 57.80202553125003,
          "velocity": 0.7874015748031497,
          "duration": 0.16666649999999805
        },
        {
          "name": "F3",
          "midi": 53,
          "time": 59.13535753125003,
          "velocity": 0.7874015748031497,
          "duration": 0.16666649999999805
        },
        {
          "name": "F3",
          "midi": 53,
          "time": 60.46868953125003,
          "velocity": 0.7874015748031497,
          "duration": 0.16666649999999805
        },
        {
          "name": "A3",
          "midi": 57,
          "time": 61.80202153125003,
          "velocity": 0.7874015748031497,
          "duration": 0.49999950000000126
        },
        {
          "name": "A3",
          "midi": 57,
          "time": 62.30202103125003,
          "velocity": 0.7874015748031497,
          "duration": 0.49999950000000126
        },
        {
          "name": "E3",
          "midi": 52,
          "time": 62.80202053125003,
          "velocity": 0.7874015748031497,
          "duration": 0.3333330000000032
        },
        {
          "name": "G3",
          "midi": 55,
          "time": 63.13535353125003,
          "velocity": 0.7874015748031497,
          "duration": 1.3333319999999986
        },
        {
          "name": "E3",
          "midi": 52,
          "time": 64.46868553125003,
          "velocity": 0.7874015748031497,
          "duration": 1.3333319999999986
        },
        {
          "name": "C3",
          "midi": 48,
          "time": 65.80201753125003,
          "velocity": 0.7874015748031497,
          "duration": 1.3333319999999986
        },
        {
          "name": "G2",
          "midi": 43,
          "time": 67.13534953125003,
          "velocity": 0.7874015748031497,
          "duration": 0.49999950000000126
        },
        {
          "name": "G2",
          "midi": 43,
          "time": 67.63534903125003,
          "velocity": 0.7874015748031497,
          "duration": 0.49999950000000126
        },
        {
          "name": "G2",
          "midi": 43,
          "time": 68.13534853125003,
          "velocity": 0.7874015748031497,
          "duration": 0.3333329999999961
        },
        {
          "name": "D3",
          "midi": 50,
          "time": 68.46868153125003,
          "velocity": 0.7874015748031497,
          "duration": 0.49999950000000126
        },
        {
          "name": "D3",
          "midi": 50,
          "time": 68.96868103125003,
          "velocity": 0.7874015748031497,
          "duration": 0.49999950000000126
        },
        {
          "name": "D3",
          "midi": 50,
          "time": 69.46868053125003,
          "velocity": 0.7874015748031497,
          "duration": 0.3333329999999961
        },
        {
          "name": "E3",
          "midi": 52,
          "time": 69.80201353125003,
          "velocity": 0.7874015748031497,
          "duration": 1.3333319999999986
        },
        {
          "name": "C3",
          "midi": 48,
          "time": 71.13534553125002,
          "velocity": 0.7874015748031497,
          "duration": 1.3333319999999986
        },
        {
          "name": "G2",
          "midi": 43,
          "time": 72.46867753125002,
          "velocity": 0.7874015748031497,
          "duration": 0.49999950000000126
        },
        {
          "name": "G2",
          "midi": 43,
          "time": 72.96867703125002,
          "velocity": 0.7874015748031497,
          "duration": 0.49999950000000126
        },
        {
          "name": "G2",
          "midi": 43,
          "time": 73.46867653125003,
          "velocity": 0.7874015748031497,
          "duration": 0.3333329999999961
        },
        {
          "name": "D3",
          "midi": 50,
          "time": 73.80200953125002,
          "velocity": 0.7874015748031497,
          "duration": 0.16666650000000516
        },
        {
          "name": "D3",
          "midi": 50,
          "time": 74.30200903125002,
          "velocity": 0.7874015748031497,
          "duration": 0.16666650000000516
        },
        {
          "name": "D3",
          "midi": 50,
          "time": 74.80200853125002,
          "velocity": 0.7874015748031497,
          "duration": 0.3333329999999961
        },
        {
          "name": "E3",
          "midi": 52,
          "time": 75.13534153125002,
          "velocity": 0.7874015748031497,
          "duration": 1.3333319999999986
        },
        {
          "name": "C3",
          "midi": 48,
          "time": 76.46867353125002,
          "velocity": 0.7874015748031497,
          "duration": 1.3333319999999986
        },
        {
          "name": "G2",
          "midi": 43,
          "time": 77.80200553125002,
          "velocity": 0.7874015748031497,
          "duration": 0.49999950000000126
        },
        {
          "name": "G2",
          "midi": 43,
          "time": 78.30200503125002,
          "velocity": 0.7874015748031497,
          "duration": 0.49999950000000126
        },
        {
          "name": "G2",
          "midi": 43,
          "time": 78.80200453125002,
          "velocity": 0.7874015748031497,
          "duration": 0.3333329999999961
        },
        {
          "name": "D3",
          "midi": 50,
          "time": 79.13533753125002,
          "velocity": 0.7874015748031497,
          "duration": 0.49999950000000126
        },
        {
          "name": "D3",
          "midi": 50,
          "time": 79.63533703125002,
          "velocity": 0.7874015748031497,
          "duration": 0.49999950000000126
        },
        {
          "name": "D3",
          "midi": 50,
          "time": 80.13533653125002,
          "velocity": 0.7874015748031497,
          "duration": 0.3333329999999961
        },
        {
          "name": "C3",
          "midi": 48,
          "time": 80.46866953125001,
          "velocity": 0.7874015748031497,
          "duration": 1.3333319999999986
        },
        {
          "name": "C3",
          "midi": 48,
          "time": 81.80200153125001,
          "velocity": 0.7874015748031497,
          "duration": 1.3333319999999986
        },
        {
          "name": "D3",
          "midi": 50,
          "time": 83.13533353125001,
          "velocity": 0.7874015748031497,
          "duration": 1.999998000000005
        },
        {
          "name": "B2",
          "midi": 47,
          "time": 85.13533153125002,
          "velocity": 0.7874015748031497,
          "duration": 0.6666660000000064
        },
        {
          "name": "E4",
          "midi": 64,
          "time": 85.80199753125002,
          "velocity": 0.7874015748031497,
          "duration": 0.3333329999999961
        },
        {
          "name": "E4",
          "midi": 64,
          "time": 86.30199703125002,
          "velocity": 0.7874015748031497,
          "duration": 0.49999950000000126
        },
        {
          "name": "F#4",
          "midi": 66,
          "time": 86.80199653125003,
          "velocity": 0.7874015748031497,
          "duration": 0.3333329999999961
        },
        {
          "name": "G4",
          "midi": 67,
          "time": 87.13532953125002,
          "velocity": 0.7874015748031497,
          "duration": 0.3333329999999961
        },
        {
          "name": "F#4",
          "midi": 66,
          "time": 87.46866253125002,
          "velocity": 0.7874015748031497,
          "duration": 0.3333329999999961
        },
        {
          "name": "E4",
          "midi": 64,
          "time": 87.80199553125001,
          "velocity": 0.7874015748031497,
          "duration": 0.3333329999999961
        },
        {
          "name": "D4",
          "midi": 62,
          "time": 88.13532853125001,
          "velocity": 0.7874015748031497,
          "duration": 0.3333329999999961
        },
        {
          "name": "E4",
          "midi": 64,
          "time": 88.46866153125,
          "velocity": 0.7874015748031497,
          "duration": 0.3333329999999961
        },
        {
          "name": "E4",
          "midi": 64,
          "time": 88.96866103125001,
          "velocity": 0.7874015748031497,
          "duration": 0.49999950000000126
        },
        {
          "name": "F#4",
          "midi": 66,
          "time": 89.46866053125001,
          "velocity": 0.7874015748031497,
          "duration": 0.3333329999999961
        },
        {
          "name": "G4",
          "midi": 67,
          "time": 89.80199353125,
          "velocity": 0.7874015748031497,
          "duration": 0.3333329999999961
        },
        {
          "name": "F#4",
          "midi": 66,
          "time": 90.13532653125,
          "velocity": 0.7874015748031497,
          "duration": 0.3333329999999961
        },
        {
          "name": "E4",
          "midi": 64,
          "time": 90.46865953125,
          "velocity": 0.7874015748031497,
          "duration": 0.3333329999999961
        },
        {
          "name": "D4",
          "midi": 62,
          "time": 90.80199253125,
          "velocity": 0.7874015748031497,
          "duration": 0.3333329999999961
        },
        {
          "name": "E4",
          "midi": 64,
          "time": 91.13532553124999,
          "velocity": 0.7874015748031497,
          "duration": 0.3333329999999961
        },
        {
          "name": "E4",
          "midi": 64,
          "time": 91.63532503124999,
          "velocity": 0.7874015748031497,
          "duration": 0.49999950000000126
        },
        {
          "name": "F#4",
          "midi": 66,
          "time": 92.13532453124999,
          "velocity": 0.7874015748031497,
          "duration": 0.3333329999999961
        },
        {
          "name": "G4",
          "midi": 67,
          "time": 92.46865753124999,
          "velocity": 0.7874015748031497,
          "duration": 0.3333329999999961
        },
        {
          "name": "F#4",
          "midi": 66,
          "time": 92.80199053124998,
          "velocity": 0.7874015748031497,
          "duration": 0.3333329999999961
        },
        {
          "name": "E4",
          "midi": 64,
          "time": 93.13532353124998,
          "velocity": 0.7874015748031497,
          "duration": 0.3333329999999961
        },
        {
          "name": "D4",
          "midi": 62,
          "time": 93.46865653124998,
          "velocity": 0.7874015748031497,
          "duration": 0.3333329999999961
        },
        {
          "name": "E4",
          "midi": 64,
          "time": 93.80198953124997,
          "velocity": 0.7874015748031497,
          "duration": 0.49999950000000126
        },
        {
          "name": "B3",
          "midi": 59,
          "time": 94.30198903124997,
          "velocity": 0.7874015748031497,
          "duration": 2.166664499999996
        },
        {
          "name": "E4",
          "midi": 64,
          "time": 96.46865353124997,
          "velocity": 0.7874015748031497,
          "duration": 0.3333329999999961
        },
        {
          "name": "E4",
          "midi": 64,
          "time": 96.96865303124997,
          "velocity": 0.7874015748031497,
          "duration": 0.49999950000000126
        },
        {
          "name": "F#4",
          "midi": 66,
          "time": 97.46865253124997,
          "velocity": 0.7874015748031497,
          "duration": 0.3333329999999961
        },
        {
          "name": "G4",
          "midi": 67,
          "time": 97.80198553124997,
          "velocity": 0.7874015748031497,
          "duration": 0.3333329999999961
        },
        {
          "name": "F#4",
          "midi": 66,
          "time": 98.13531853124996,
          "velocity": 0.7874015748031497,
          "duration": 0.3333329999999961
        },
        {
          "name": "E4",
          "midi": 64,
          "time": 98.46865153124996,
          "velocity": 0.7874015748031497,
          "duration": 0.3333329999999961
        },
        {
          "name": "D4",
          "midi": 62,
          "time": 98.80198453124996,
          "velocity": 0.7874015748031497,
          "duration": 0.3333329999999961
        },
        {
          "name": "E4",
          "midi": 64,
          "time": 99.13531753124995,
          "velocity": 0.7874015748031497,
          "duration": 0.3333329999999961
        },
        {
          "name": "E4",
          "midi": 64,
          "time": 99.63531703124995,
          "velocity": 0.7874015748031497,
          "duration": 0.49999950000000126
        },
        {
          "name": "F#4",
          "midi": 66,
          "time": 100.13531653124996,
          "velocity": 0.7874015748031497,
          "duration": 0.3333329999999961
        },
        {
          "name": "G4",
          "midi": 67,
          "time": 100.46864953124995,
          "velocity": 0.7874015748031497,
          "duration": 0.3333329999999961
        },
        {
          "name": "F#4",
          "midi": 66,
          "time": 100.80198253124995,
          "velocity": 0.7874015748031497,
          "duration": 0.3333329999999961
        },
        {
          "name": "E4",
          "midi": 64,
          "time": 101.13531553124994,
          "velocity": 0.7874015748031497,
          "duration": 0.3333329999999961
        },
        {
          "name": "D4",
          "midi": 62,
          "time": 101.46864853124994,
          "velocity": 0.7874015748031497,
          "duration": 0.3333329999999961
        },
        {
          "name": "E4",
          "midi": 64,
          "time": 101.80198153124994,
          "velocity": 0.7874015748031497,
          "duration": 0.3333329999999961
        },
        {
          "name": "E4",
          "midi": 64,
          "time": 102.30198103124994,
          "velocity": 0.7874015748031497,
          "duration": 0.49999950000000126
        },
        {
          "name": "F#4",
          "midi": 66,
          "time": 102.80198053124994,
          "velocity": 0.7874015748031497,
          "duration": 0.3333329999999961
        },
        {
          "name": "G4",
          "midi": 67,
          "time": 103.13531353124993,
          "velocity": 0.7874015748031497,
          "duration": 0.3333329999999961
        },
        {
          "name": "F#4",
          "midi": 66,
          "time": 103.46864653124993,
          "velocity": 0.7874015748031497,
          "duration": 0.3333329999999961
        },
        {
          "name": "E4",
          "midi": 64,
          "time": 103.80197953124993,
          "velocity": 0.7874015748031497,
          "duration": 0.3333329999999961
        },
        {
          "name": "D4",
          "midi": 62,
          "time": 104.13531253124992,
          "velocity": 0.7874015748031497,
          "duration": 0.3333329999999961
        },
        {
          "name": "G4",
          "midi": 67,
          "time": 104.46864553124992,
          "velocity": 0.7874015748031497,
          "duration": 0.16666650000000516
        },
        {
          "name": "B4",
          "midi": 71,
          "time": 105.13531153124993,
          "velocity": 0.7874015748031497,
          "duration": 0.16666650000000516
        },
        {
          "name": "B4",
          "midi": 71,
          "time": 105.80197753124993,
          "velocity": 0.7874015748031497,
          "duration": 0.16666650000000516
        },
        {
          "name": "D5",
          "midi": 74,
          "time": 106.46864353124994,
          "velocity": 0.7874015748031497,
          "duration": 0.16666650000000516
        },
        {
          "name": "E3",
          "midi": 52,
          "time": 107.13530953124994,
          "velocity": 0.7874015748031497,
          "duration": 0.24999975000000063
        },
        {
          "name": "B3",
          "midi": 59,
          "time": 107.13530953124994,
          "velocity": 0.7874015748031497,
          "duration": 0.16666650000000516
        },
        {
          "name": "C3",
          "midi": 48,
          "time": 108.46864153124994,
          "velocity": 0.7874015748031497,
          "duration": 0.24999975000000063
        },
        {
          "name": "G3",
          "midi": 55,
          "time": 108.46864153124994,
          "velocity": 0.7874015748031497,
          "duration": 0.16666650000000516
        },
        {
          "name": "E3",
          "midi": 52,
          "time": 109.80197353124994,
          "velocity": 0.7874015748031497,
          "duration": 0.24999975000000063
        },
        {
          "name": "B3",
          "midi": 59,
          "time": 109.80197353124994,
          "velocity": 0.7874015748031497,
          "duration": 0.16666650000000516
        },
        {
          "name": "C3",
          "midi": 48,
          "time": 111.13530553124994,
          "velocity": 0.7874015748031497,
          "duration": 0.6666660000000064
        },
        {
          "name": "A2",
          "midi": 45,
          "time": 111.80197153124995,
          "velocity": 0.7874015748031497,
          "duration": 0.3333329999999961
        },
        {
          "name": "D3",
          "midi": 50,
          "time": 112.13530453124994,
          "velocity": 0.7874015748031497,
          "duration": 0.3333329999999961
        },
        {
          "name": "E3",
          "midi": 52,
          "time": 112.46863753124994,
          "velocity": 0.7874015748031497,
          "duration": 0.24999975000000063
        },
        {
          "name": "B3",
          "midi": 59,
          "time": 112.46863753124994,
          "velocity": 0.7874015748031497,
          "duration": 0.16666650000000516
        },
        {
          "name": "C3",
          "midi": 48,
          "time": 113.80196953124994,
          "velocity": 0.7874015748031497,
          "duration": 0.24999975000000063
        },
        {
          "name": "G3",
          "midi": 55,
          "time": 113.80196953124994,
          "velocity": 0.7874015748031497,
          "duration": 0.16666650000000516
        },
        {
          "name": "E3",
          "midi": 52,
          "time": 115.13530153124994,
          "velocity": 0.7874015748031497,
          "duration": 0.24999975000000063
        },
        {
          "name": "B3",
          "midi": 59,
          "time": 115.13530153124994,
          "velocity": 0.7874015748031497,
          "duration": 0.16666650000000516
        },
        {
          "name": "C3",
          "midi": 48,
          "time": 116.46863353124994,
          "velocity": 0.7874015748031497,
          "duration": 0.6666660000000064
        },
        {
          "name": "C3",
          "midi": 48,
          "time": 117.13529953124994,
          "velocity": 0.7874015748031497,
          "duration": 0.3333329999999961
        },
        {
          "name": "D3",
          "midi": 50,
          "time": 117.46863253124994,
          "velocity": 0.7874015748031497,
          "duration": 0.3333329999999961
        },
        {
          "name": "E3",
          "midi": 52,
          "time": 117.80196553124993,
          "velocity": 0.7874015748031497,
          "duration": 0.24999975000000063
        },
        {
          "name": "B3",
          "midi": 59,
          "time": 117.80196553124993,
          "velocity": 0.7874015748031497,
          "duration": 0.16666650000000516
        },
        {
          "name": "C3",
          "midi": 48,
          "time": 119.13529753124993,
          "velocity": 0.7874015748031497,
          "duration": 0.24999975000000063
        },
        {
          "name": "G3",
          "midi": 55,
          "time": 119.13529753124993,
          "velocity": 0.7874015748031497,
          "duration": 0.16666650000000516
        },
        {
          "name": "E3",
          "midi": 52,
          "time": 120.46862953124993,
          "velocity": 0.7874015748031497,
          "duration": 0.24999975000000063
        },
        {
          "name": "B3",
          "midi": 59,
          "time": 120.46862953124993,
          "velocity": 0.7874015748031497,
          "duration": 0.16666650000000516
        },
        {
          "name": "C3",
          "midi": 48,
          "time": 121.80196153124993,
          "velocity": 0.7874015748031497,
          "duration": 0.6666660000000064
        },
        {
          "name": "A2",
          "midi": 45,
          "time": 122.46862753124994,
          "velocity": 0.7874015748031497,
          "duration": 0.3333329999999961
        },
        {
          "name": "D3",
          "midi": 50,
          "time": 122.80196053124993,
          "velocity": 0.7874015748031497,
          "duration": 0.3333329999999961
        },
        {
          "name": "E3",
          "midi": 52,
          "time": 123.13529353124993,
          "velocity": 0.7874015748031497,
          "duration": 0.24999975000000063
        },
        {
          "name": "B3",
          "midi": 59,
          "time": 123.13529353124993,
          "velocity": 0.7874015748031497,
          "duration": 0.16666650000000516
        },
        {
          "name": "C3",
          "midi": 48,
          "time": 124.46862553124993,
          "velocity": 0.7874015748031497,
          "duration": 0.24999975000000063
        },
        {
          "name": "G3",
          "midi": 55,
          "time": 124.46862553124993,
          "velocity": 0.7874015748031497,
          "duration": 0.16666650000000516
        },
        {
          "name": "E3",
          "midi": 52,
          "time": 125.80195753124993,
          "velocity": 0.7874015748031497,
          "duration": 0.24999975000000063
        },
        {
          "name": "B3",
          "midi": 59,
          "time": 125.80195753124993,
          "velocity": 0.7874015748031497,
          "duration": 0.16666650000000516
        },
        {
          "name": "C3",
          "midi": 48,
          "time": 127.13528953124992,
          "velocity": 0.7874015748031497,
          "duration": 0.6666660000000064
        },
        {
          "name": "C3",
          "midi": 48,
          "time": 127.80195553124993,
          "velocity": 0.7874015748031497,
          "duration": 0.3333329999999961
        },
        {
          "name": "D3",
          "midi": 50,
          "time": 128.13528853124993,
          "velocity": 0.7874015748031497,
          "duration": 0.3333330000000103
        },
        {
          "name": "E3",
          "midi": 52,
          "time": 128.46862153124994,
          "velocity": 0.7874015748031497,
          "duration": 0.16666649999999095
        },
        {
          "name": "E3",
          "midi": 52,
          "time": 129.80195353124992,
          "velocity": 0.7874015748031497,
          "duration": 0.16666649999999095
        },
        {
          "name": "A3",
          "midi": 57,
          "time": 131.1352855312499,
          "velocity": 0.7874015748031497,
          "duration": 0.16666649999999095
        },
        {
          "name": "A3",
          "midi": 57,
          "time": 132.4686175312499,
          "velocity": 0.7874015748031497,
          "duration": 0.16666649999999095
        },
        {
          "name": "F3",
          "midi": 53,
          "time": 133.80194953124987,
          "velocity": 0.7874015748031497,
          "duration": 0.16666649999999095
        },
        {
          "name": "F3",
          "midi": 53,
          "time": 135.13528153124986,
          "velocity": 0.7874015748031497,
          "duration": 0.16666649999999095
        },
        {
          "name": "A3",
          "midi": 57,
          "time": 136.46861353124984,
          "velocity": 0.7874015748031497,
          "duration": 0.49999950000000126
        },
        {
          "name": "A3",
          "midi": 57,
          "time": 136.96861303124984,
          "velocity": 0.7874015748031497,
          "duration": 0.49999950000000126
        },
        {
          "name": "E3",
          "midi": 52,
          "time": 137.46861253124985,
          "velocity": 0.7874015748031497,
          "duration": 0.3333330000000103
        },
        {
          "name": "G3",
          "midi": 55,
          "time": 137.80194553124986,
          "velocity": 0.7874015748031497,
          "duration": 1.3333320000000128
        },
        {
          "name": "E3",
          "midi": 52,
          "time": 139.13527753124987,
          "velocity": 0.7874015748031497,
          "duration": 1.3333320000000128
        },
        {
          "name": "C3",
          "midi": 48,
          "time": 140.46860953124988,
          "velocity": 0.7874015748031497,
          "duration": 1.3333320000000128
        },
        {
          "name": "G2",
          "midi": 43,
          "time": 141.8019415312499,
          "velocity": 0.7874015748031497,
          "duration": 0.49999950000000126
        },
        {
          "name": "G2",
          "midi": 43,
          "time": 142.3019410312499,
          "velocity": 0.7874015748031497,
          "duration": 0.49999950000000126
        },
        {
          "name": "G2",
          "midi": 43,
          "time": 142.8019405312499,
          "velocity": 0.7874015748031497,
          "duration": 0.3333330000000103
        },
        {
          "name": "D3",
          "midi": 50,
          "time": 143.1352735312499,
          "velocity": 0.7874015748031497,
          "duration": 0.49999950000000126
        },
        {
          "name": "D3",
          "midi": 50,
          "time": 143.6352730312499,
          "velocity": 0.7874015748031497,
          "duration": 0.49999950000000126
        },
        {
          "name": "D3",
          "midi": 50,
          "time": 144.1352725312499,
          "velocity": 0.7874015748031497,
          "duration": 0.3333330000000103
        },
        {
          "name": "E3",
          "midi": 52,
          "time": 144.46860553124992,
          "velocity": 0.7874015748031497,
          "duration": 1.3333320000000128
        },
        {
          "name": "C3",
          "midi": 48,
          "time": 145.80193753124993,
          "velocity": 0.7874015748031497,
          "duration": 1.3333320000000128
        },
        {
          "name": "G2",
          "midi": 43,
          "time": 147.13526953124995,
          "velocity": 0.7874015748031497,
          "duration": 1.3333320000000128
        },
        {
          "name": "D3",
          "midi": 50,
          "time": 148.46860153124996,
          "velocity": 0.7874015748031497,
          "duration": 1.3333320000000128
        },
        {
          "name": "E3",
          "midi": 52,
          "time": 149.80193353124997,
          "velocity": 0.7874015748031497,
          "duration": 1.3333320000000128
        },
        {
          "name": "C3",
          "midi": 48,
          "time": 151.13526553124998,
          "velocity": 0.7874015748031497,
          "duration": 1.3333320000000128
        },
        {
          "name": "G2",
          "midi": 43,
          "time": 152.46859753125,
          "velocity": 0.7874015748031497,
          "duration": 0.49999950000000126
        },
        {
          "name": "G2",
          "midi": 43,
          "time": 152.96859703125,
          "velocity": 0.7874015748031497,
          "duration": 0.49999950000000126
        },
        {
          "name": "G2",
          "midi": 43,
          "time": 153.46859653125,
          "velocity": 0.7874015748031497,
          "duration": 0.3333330000000103
        },
        {
          "name": "D3",
          "midi": 50,
          "time": 153.80192953125,
          "velocity": 0.7874015748031497,
          "duration": 0.49999950000000126
        },
        {
          "name": "D3",
          "midi": 50,
          "time": 154.30192903125,
          "velocity": 0.7874015748031497,
          "duration": 0.49999950000000126
        },
        {
          "name": "D3",
          "midi": 50,
          "time": 154.80192853125,
          "velocity": 0.7874015748031497,
          "duration": 0.3333330000000103
        },
        {
          "name": "A3",
          "midi": 57,
          "time": 154.80192853125,
          "velocity": 0.7874015748031497,
          "duration": 0.3333330000000103
        },
        {
          "name": "C3",
          "midi": 48,
          "time": 155.13526153125002,
          "velocity": 0.7874015748031497,
          "duration": 1.3333320000000128
        },
        {
          "name": "C3",
          "midi": 48,
          "time": 156.46859353125004,
          "velocity": 0.7874015748031497,
          "duration": 1.3333320000000128
        },
        {
          "name": "D3",
          "midi": 50,
          "time": 157.80192553125005,
          "velocity": 0.7874015748031497,
          "duration": 1.999998000000005
        },
        {
          "name": "B2",
          "midi": 47,
          "time": 159.80192353125005,
          "velocity": 0.7874015748031497,
          "duration": 0.6666659999999922
        },
        {
          "name": "E4",
          "midi": 64,
          "time": 160.46858953125005,
          "velocity": 0.7874015748031497,
          "duration": 0.3333330000000103
        },
        {
          "name": "E4",
          "midi": 64,
          "time": 160.96858903125005,
          "velocity": 0.7874015748031497,
          "duration": 0.49999950000000126
        },
        {
          "name": "F#4",
          "midi": 66,
          "time": 161.46858853125005,
          "velocity": 0.7874015748031497,
          "duration": 0.3333330000000103
        },
        {
          "name": "G4",
          "midi": 67,
          "time": 161.80192153125006,
          "velocity": 0.7874015748031497,
          "duration": 0.3333330000000103
        },
        {
          "name": "F#4",
          "midi": 66,
          "time": 162.13525453125007,
          "velocity": 0.7874015748031497,
          "duration": 0.3333330000000103
        },
        {
          "name": "E4",
          "midi": 64,
          "time": 162.46858753125008,
          "velocity": 0.7874015748031497,
          "duration": 0.3333330000000103
        },
        {
          "name": "D4",
          "midi": 62,
          "time": 162.8019205312501,
          "velocity": 0.7874015748031497,
          "duration": 0.3333330000000103
        },
        {
          "name": "E4",
          "midi": 64,
          "time": 163.1352535312501,
          "velocity": 0.7874015748031497,
          "duration": 0.3333330000000103
        },
        {
          "name": "E4",
          "midi": 64,
          "time": 163.6352530312501,
          "velocity": 0.7874015748031497,
          "duration": 0.49999950000000126
        },
        {
          "name": "F#4",
          "midi": 66,
          "time": 164.1352525312501,
          "velocity": 0.7874015748031497,
          "duration": 0.3333330000000103
        },
        {
          "name": "G4",
          "midi": 67,
          "time": 164.4685855312501,
          "velocity": 0.7874015748031497,
          "duration": 0.3333330000000103
        },
        {
          "name": "F#4",
          "midi": 66,
          "time": 164.80191853125012,
          "velocity": 0.7874015748031497,
          "duration": 0.3333330000000103
        },
        {
          "name": "E4",
          "midi": 64,
          "time": 165.13525153125013,
          "velocity": 0.7874015748031497,
          "duration": 0.3333330000000103
        },
        {
          "name": "D4",
          "midi": 62,
          "time": 165.46858453125014,
          "velocity": 0.7874015748031497,
          "duration": 0.3333330000000103
        },
        {
          "name": "E4",
          "midi": 64,
          "time": 165.80191753125015,
          "velocity": 0.7874015748031497,
          "duration": 0.3333330000000103
        },
        {
          "name": "E4",
          "midi": 64,
          "time": 166.30191703125016,
          "velocity": 0.7874015748031497,
          "duration": 0.49999950000000126
        },
        {
          "name": "F#4",
          "midi": 66,
          "time": 166.80191653125016,
          "velocity": 0.7874015748031497,
          "duration": 0.3333330000000103
        },
        {
          "name": "G4",
          "midi": 67,
          "time": 167.13524953125017,
          "velocity": 0.7874015748031497,
          "duration": 0.3333330000000103
        },
        {
          "name": "F#4",
          "midi": 66,
          "time": 167.46858253125018,
          "velocity": 0.7874015748031497,
          "duration": 0.3333330000000103
        },
        {
          "name": "E4",
          "midi": 64,
          "time": 167.8019155312502,
          "velocity": 0.7874015748031497,
          "duration": 0.3333330000000103
        },
        {
          "name": "D4",
          "midi": 62,
          "time": 168.1352485312502,
          "velocity": 0.7874015748031497,
          "duration": 0.3333330000000103
        },
        {
          "name": "E4",
          "midi": 64,
          "time": 168.4685815312502,
          "velocity": 0.7874015748031497,
          "duration": 0.49999950000000126
        },
        {
          "name": "B3",
          "midi": 59,
          "time": 168.9685810312502,
          "velocity": 0.7874015748031497,
          "duration": 2.166664499999996
        },
        {
          "name": "E4",
          "midi": 64,
          "time": 171.1352455312502,
          "velocity": 0.7874015748031497,
          "duration": 0.3333330000000103
        },
        {
          "name": "E4",
          "midi": 64,
          "time": 171.6352450312502,
          "velocity": 0.7874015748031497,
          "duration": 0.49999950000000126
        },
        {
          "name": "F#4",
          "midi": 66,
          "time": 172.1352445312502,
          "velocity": 0.7874015748031497,
          "duration": 0.3333330000000103
        },
        {
          "name": "G4",
          "midi": 67,
          "time": 172.46857753125022,
          "velocity": 0.7874015748031497,
          "duration": 0.3333330000000103
        },
        {
          "name": "F#4",
          "midi": 66,
          "time": 172.80191053125023,
          "velocity": 0.7874015748031497,
          "duration": 0.3333330000000103
        },
        {
          "name": "E4",
          "midi": 64,
          "time": 173.13524353125024,
          "velocity": 0.7874015748031497,
          "duration": 0.3333330000000103
        },
        {
          "name": "D4",
          "midi": 62,
          "time": 173.46857653125025,
          "velocity": 0.7874015748031497,
          "duration": 0.3333330000000103
        },
        {
          "name": "B4",
          "midi": 71,
          "time": 173.80190953125026,
          "velocity": 0.7874015748031497,
          "duration": 0.3333330000000103
        },
        {
          "name": "B4",
          "midi": 71,
          "time": 174.30190903125026,
          "velocity": 0.7874015748031497,
          "duration": 0.49999950000000126
        },
        {
          "name": "C5",
          "midi": 72,
          "time": 174.80190853125026,
          "velocity": 0.7874015748031497,
          "duration": 0.3333330000000103
        },
        {
          "name": "D5",
          "midi": 74,
          "time": 175.13524153125027,
          "velocity": 0.7874015748031497,
          "duration": 0.3333330000000103
        },
        {
          "name": "C5",
          "midi": 72,
          "time": 175.46857453125028,
          "velocity": 0.7874015748031497,
          "duration": 0.3333330000000103
        },
        {
          "name": "B4",
          "midi": 71,
          "time": 175.8019075312503,
          "velocity": 0.7874015748031497,
          "duration": 0.3333330000000103
        },
        {
          "name": "A4",
          "midi": 69,
          "time": 176.1352405312503,
          "velocity": 0.7874015748031497,
          "duration": 0.3333330000000103
        },
        {
          "name": "E5",
          "midi": 76,
          "time": 176.4685735312503,
          "velocity": 0.7874015748031497,
          "duration": 0.3333330000000103
        },
        {
          "name": "E5",
          "midi": 76,
          "time": 176.96857303125032,
          "velocity": 0.7874015748031497,
          "duration": 0.49999950000000126
        },
        {
          "name": "F#5",
          "midi": 78,
          "time": 177.46857253125032,
          "velocity": 0.7874015748031497,
          "duration": 0.3333330000000103
        },
        {
          "name": "G5",
          "midi": 79,
          "time": 177.80190553125033,
          "velocity": 0.7874015748031497,
          "duration": 0.3333330000000103
        },
        {
          "name": "F#5",
          "midi": 78,
          "time": 178.13523853125034,
          "velocity": 0.7874015748031497,
          "duration": 0.3333330000000103
        },
        {
          "name": "E5",
          "midi": 76,
          "time": 178.46857153125035,
          "velocity": 0.7874015748031497,
          "duration": 0.3333330000000103
        },
        {
          "name": "F#5",
          "midi": 78,
          "time": 178.80190453125036,
          "velocity": 0.7874015748031497,
          "duration": 0.3333330000000103
        },
        {
          "name": "G5",
          "midi": 79,
          "time": 179.13523753125037,
          "velocity": 0.7874015748031497,
          "duration": 0.49999950000000126
        },
        {
          "name": "E5",
          "midi": 76,
          "time": 179.63523703125037,
          "velocity": 0.7874015748031497,
          "duration": 2.0833312499999863
        },
        {
          "name": "E5",
          "midi": 76,
          "time": 181.80190153125037,
          "velocity": 0.7874015748031497,
          "duration": 0.11111099999999396
        },
        {
          "name": "E5",
          "midi": 76,
          "time": 183.13523353125035,
          "velocity": 0.7874015748031497,
          "duration": 0.11111099999999396
        },
        {
          "name": "E5",
          "midi": 76,
          "time": 184.46787108750036,
          "velocity": 0.7874015748031497,
          "duration": 0.11111099999999396
        },
        {
          "name": "G5",
          "midi": 79,
          "time": 185.80189753125035,
          "velocity": 0.7874015748031497,
          "duration": 0.11111099999999396
        },
        {
          "name": "E5",
          "midi": 76,
          "time": 187.13522953125033,
          "velocity": 0.7874015748031497,
          "duration": 0.11111099999999396
        },
        {
          "name": "E5",
          "midi": 76,
          "time": 188.46856153125032,
          "velocity": 0.7874015748031497,
          "duration": 0.11111099999999396
        },
        {
          "name": "C5",
          "midi": 72,
          "time": 189.8018935312503,
          "velocity": 0.7874015748031497,
          "duration": 0.16666649999999095
        },
        {
          "name": "E5",
          "midi": 76,
          "time": 191.13522553125028,
          "velocity": 0.7874015748031497,
          "duration": 0.16666649999999095
        },
        {
          "name": "E5",
          "midi": 76,
          "time": 192.1352245312503,
          "velocity": 0.7874015748031497,
          "duration": 0.24999975000000063
        },
        {
          "name": "E5",
          "midi": 76,
          "time": 192.4685575312503,
          "velocity": 0.7874015748031497,
          "duration": 0.11111099999999396
        },
        {
          "name": "E5",
          "midi": 76,
          "time": 193.80188953125028,
          "velocity": 0.7874015748031497,
          "duration": 0.11111099999999396
        },
        {
          "name": "E5",
          "midi": 76,
          "time": 195.1345270875003,
          "velocity": 0.7874015748031497,
          "duration": 0.11111099999999396
        },
        {
          "name": "G5",
          "midi": 79,
          "time": 196.46855353125028,
          "velocity": 0.7874015748031497,
          "duration": 0.11111099999999396
        },
        {
          "name": "E5",
          "midi": 76,
          "time": 197.80188553125026,
          "velocity": 0.7874015748031497,
          "duration": 0.11111099999999396
        },
        {
          "name": "E5",
          "midi": 76,
          "time": 199.13521753125025,
          "velocity": 0.7874015748031497,
          "duration": 0.11111099999999396
        },
        {
          "name": "C5",
          "midi": 72,
          "time": 200.46854953125023,
          "velocity": 0.7874015748031497,
          "duration": 0.16666649999999095
        },
        {
          "name": "E5",
          "midi": 76,
          "time": 201.80188153125022,
          "velocity": 0.7874015748031497,
          "duration": 0.16666649999999095
        },
        {
          "name": "A5",
          "midi": 81,
          "time": 202.80188053125022,
          "velocity": 0.7874015748031497,
          "duration": 0.24999975000000063
        },
        {
          "name": "D4",
          "midi": 62,
          "time": 203.13521353125023,
          "velocity": 0.7874015748031497,
          "duration": 0.4166662499999916
        },
        {
          "name": "D4",
          "midi": 62,
          "time": 203.63521303125023,
          "velocity": 0.7874015748031497,
          "duration": 1.1249988749999886
        },
        {
          "name": "F4",
          "midi": 65,
          "time": 204.80187853125022,
          "velocity": 0.7874015748031497,
          "duration": 0.3333330000000103
        },
        {
          "name": "E4",
          "midi": 64,
          "time": 205.13521153125023,
          "velocity": 0.7874015748031497,
          "duration": 0.3333330000000103
        },
        {
          "name": "C4",
          "midi": 60,
          "time": 205.46854453125025,
          "velocity": 0.7874015748031497,
          "duration": 0.3333330000000103
        },
        {
          "name": "D4",
          "midi": 62,
          "time": 205.80187753125026,
          "velocity": 0.7874015748031497,
          "duration": 0.3333330000000103
        },
        {
          "name": "D4",
          "midi": 62,
          "time": 206.30187703125026,
          "velocity": 0.7874015748031497,
          "duration": 1.833331500000014
        },
        {
          "name": "D4",
          "midi": 62,
          "time": 208.46854153125028,
          "velocity": 0.7874015748031497,
          "duration": 0.11111099999999396
        },
        {
          "name": "F4",
          "midi": 65,
          "time": 209.80187353125027,
          "velocity": 0.7874015748031497,
          "duration": 0.11111099999999396
        },
        {
          "name": "E5",
          "midi": 76,
          "time": 211.13520553125025,
          "velocity": 0.7874015748031497,
          "duration": 0.9583323749999977
        },
        {
          "name": "D5",
          "midi": 74,
          "time": 212.46853753125023,
          "velocity": 0.7874015748031497,
          "duration": 0.9999990000000025
        },
        {
          "name": "D5",
          "midi": 74,
          "time": 213.63520303125023,
          "velocity": 0.7874015748031497,
          "duration": 0.24999975000000063
        },
        {
          "name": "D5",
          "midi": 74,
          "time": 214.96853503125024,
          "velocity": 0.7874015748031497,
          "duration": 0.24999975000000063
        },
        {
          "name": "D5",
          "midi": 74,
          "time": 216.30186703125025,
          "velocity": 0.7874015748031497,
          "duration": 0.24999975000000063
        },
        {
          "name": "A#4",
          "midi": 70,
          "time": 217.46853253125025,
          "velocity": 0.7874015748031497,
          "duration": 0.16666649999999095
        },
        {
          "name": "D5",
          "midi": 74,
          "time": 217.63519903125024,
          "velocity": 0.7874015748031497,
          "duration": 0.16666649999999095
        },
        {
          "name": "D5",
          "midi": 74,
          "time": 219.13519753125024,
          "velocity": 0.7874015748031497,
          "duration": 0.08333325000000968
        },
        {
          "name": "C5",
          "midi": 72,
          "time": 220.13519653125024,
          "velocity": 0.7874015748031497,
          "duration": 0.16666649999999095
        },
        {
          "name": "D5",
          "midi": 74,
          "time": 220.30186303125024,
          "velocity": 0.7874015748031497,
          "duration": 0.16666649999999095
        },
        {
          "name": "D4",
          "midi": 62,
          "time": 221.80186153125024,
          "velocity": 0.7874015748031497,
          "duration": 0.05555549999999698
        },
        {
          "name": "E4",
          "midi": 64,
          "time": 222.13519453125025,
          "velocity": 0.7874015748031497,
          "duration": 0.05555549999999698
        },
        {
          "name": "F4",
          "midi": 65,
          "time": 222.46852753125026,
          "velocity": 0.7874015748031497,
          "duration": 0.05555549999999698
        },
        {
          "name": "G4",
          "midi": 67,
          "time": 222.80186053125027,
          "velocity": 0.7874015748031497,
          "duration": 0.05555549999999698
        },
        {
          "name": "A4",
          "midi": 69,
          "time": 223.13519353125028,
          "velocity": 0.7874015748031497,
          "duration": 0.05555549999999698
        },
        {
          "name": "A#4",
          "midi": 70,
          "time": 223.4685265312503,
          "velocity": 0.7874015748031497,
          "duration": 0.05555549999999698
        },
        {
          "name": "C5",
          "midi": 72,
          "time": 223.8018595312503,
          "velocity": 0.7874015748031497,
          "duration": 0.05555549999999698
        },
        {
          "name": "D5",
          "midi": 74,
          "time": 224.1351925312503,
          "velocity": 0.7874015748031497,
          "duration": 0.3333330000000103
        },
        {
          "name": "G4",
          "midi": 67,
          "time": 224.46852553125032,
          "velocity": 0.7874015748031497,
          "duration": 0.16666649999999095
        },
        {
          "name": "G4",
          "midi": 67,
          "time": 225.8018575312503,
          "velocity": 0.7874015748031497,
          "duration": 0.16666649999999095
        },
        {
          "name": "A4",
          "midi": 69,
          "time": 227.1351895312503,
          "velocity": 0.7874015748031497,
          "duration": 0.49999950000000126
        },
        {
          "name": "G4",
          "midi": 67,
          "time": 227.6351890312503,
          "velocity": 0.7874015748031497,
          "duration": 0.3333330000000103
        },
        {
          "name": "E4",
          "midi": 64,
          "time": 228.1351885312503,
          "velocity": 0.7874015748031497,
          "duration": 1.5833317500000135
        },
        {
          "name": "G4",
          "midi": 67,
          "time": 229.80185353125032,
          "velocity": 0.7874015748031497,
          "duration": 0.16666649999999095
        },
        {
          "name": "A4",
          "midi": 69,
          "time": 231.1351855312503,
          "velocity": 0.7874015748031497,
          "duration": 0.16666649999999095
        },
        {
          "name": "D4",
          "midi": 62,
          "time": 232.1351845312503,
          "velocity": 0.7874015748031497,
          "duration": 0.3333330000000103
        },
        {
          "name": "E4",
          "midi": 64,
          "time": 232.4685175312503,
          "velocity": 0.7874015748031497,
          "duration": 2.6666639999999973
        },
        {
          "name": "B4",
          "midi": 71,
          "time": 235.1351815312503,
          "velocity": 0.7874015748031497,
          "duration": 0.16666649999999095
        },
        {
          "name": "B4",
          "midi": 71,
          "time": 236.4685135312503,
          "velocity": 0.7874015748031497,
          "duration": 0.16666649999999095
        },
        {
          "name": "C5",
          "midi": 72,
          "time": 237.80184553125028,
          "velocity": 0.7874015748031497,
          "duration": 0.49999950000000126
        },
        {
          "name": "B4",
          "midi": 71,
          "time": 238.30184503125028,
          "velocity": 0.7874015748031497,
          "duration": 0.3333330000000103
        },
        {
          "name": "G4",
          "midi": 67,
          "time": 238.80184453125028,
          "velocity": 0.7874015748031497,
          "duration": 1.5833317500000135
        },
        {
          "name": "B4",
          "midi": 71,
          "time": 240.4685095312503,
          "velocity": 0.7874015748031497,
          "duration": 0.16666649999999095
        },
        {
          "name": "C5",
          "midi": 72,
          "time": 241.8018415312503,
          "velocity": 0.7874015748031497,
          "duration": 0.16666649999999095
        },
        {
          "name": "F#4",
          "midi": 66,
          "time": 242.8018405312503,
          "velocity": 0.7874015748031497,
          "duration": 0.3333330000000103
        },
        {
          "name": "G4",
          "midi": 67,
          "time": 243.1351735312503,
          "velocity": 0.7874015748031497,
          "duration": 2.6666639999999973
        },
        {
          "name": "E2",
          "midi": 40,
          "time": 245.8018375312503,
          "velocity": 0.7874015748031497,
          "duration": 2.6666639999999973
        },
        {
          "name": "C3",
          "midi": 48,
          "time": 248.4685015312503,
          "velocity": 0.7874015748031497,
          "duration": 2.6666639999999973
        },
        {
          "name": "G2",
          "midi": 43,
          "time": 251.1351655312503,
          "velocity": 0.7874015748031497,
          "duration": 2.6666639999999973
        },
        {
          "name": "A2",
          "midi": 45,
          "time": 253.8018295312503,
          "velocity": 0.7874015748031497,
          "duration": 0.49999950000000126
        },
        {
          "name": "A2",
          "midi": 45,
          "time": 254.3018290312503,
          "velocity": 0.7874015748031497,
          "duration": 0.49999950000000126
        },
        {
          "name": "A2",
          "midi": 45,
          "time": 254.8018285312503,
          "velocity": 0.7874015748031497,
          "duration": 0.3333330000000103
        },
        {
          "name": "B2",
          "midi": 47,
          "time": 255.1351615312503,
          "velocity": 0.7874015748031497,
          "duration": 1.3333320000000128
        },
        {
          "name": "E2",
          "midi": 40,
          "time": 256.4684935312503,
          "velocity": 0.7874015748031497,
          "duration": 2.6666640000000257
        },
        {
          "name": "C3",
          "midi": 48,
          "time": 259.13515753125034,
          "velocity": 0.7874015748031497,
          "duration": 2.6666640000000257
        },
        {
          "name": "G2",
          "midi": 43,
          "time": 261.80182153125037,
          "velocity": 0.7874015748031497,
          "duration": 2.6666640000000257
        },
        {
          "name": "A2",
          "midi": 45,
          "time": 264.4684855312504,
          "velocity": 0.7874015748031497,
          "duration": 0.49999950000000126
        },
        {
          "name": "A2",
          "midi": 45,
          "time": 264.9684850312504,
          "velocity": 0.7874015748031497,
          "duration": 0.49999950000000126
        },
        {
          "name": "A2",
          "midi": 45,
          "time": 265.4684845312504,
          "velocity": 0.7874015748031497,
          "duration": 0.3333329999999819
        },
        {
          "name": "B2",
          "midi": 47,
          "time": 265.8018175312504,
          "velocity": 0.7874015748031497,
          "duration": 1.3333319999999844
        },
        {
          "name": "E3",
          "midi": 52,
          "time": 267.13514953125036,
          "velocity": 0.7874015748031497,
          "duration": 0.24999975000002905
        },
        {
          "name": "B3",
          "midi": 59,
          "time": 267.13514953125036,
          "velocity": 0.7874015748031497,
          "duration": 0.16666650000001937
        },
        {
          "name": "C3",
          "midi": 48,
          "time": 268.4684815312504,
          "velocity": 0.7874015748031497,
          "duration": 0.24999975000002905
        },
        {
          "name": "G3",
          "midi": 55,
          "time": 268.4684815312504,
          "velocity": 0.7874015748031497,
          "duration": 0.16666650000001937
        },
        {
          "name": "E3",
          "midi": 52,
          "time": 269.80181353125045,
          "velocity": 0.7874015748031497,
          "duration": 0.24999975000002905
        },
        {
          "name": "B3",
          "midi": 59,
          "time": 269.80181353125045,
          "velocity": 0.7874015748031497,
          "duration": 0.16666650000001937
        },
        {
          "name": "C3",
          "midi": 48,
          "time": 271.1351455312505,
          "velocity": 0.7874015748031497,
          "duration": 0.6666660000000206
        },
        {
          "name": "A2",
          "midi": 45,
          "time": 271.8018115312505,
          "velocity": 0.7874015748031497,
          "duration": 0.3333329999999819
        },
        {
          "name": "D3",
          "midi": 50,
          "time": 272.1351445312505,
          "velocity": 0.7874015748031497,
          "duration": 0.3333329999999819
        },
        {
          "name": "E3",
          "midi": 52,
          "time": 272.46847753125047,
          "velocity": 0.7874015748031497,
          "duration": 0.24999975000002905
        },
        {
          "name": "B3",
          "midi": 59,
          "time": 272.46847753125047,
          "velocity": 0.7874015748031497,
          "duration": 0.16666650000001937
        },
        {
          "name": "C3",
          "midi": 48,
          "time": 273.8018095312505,
          "velocity": 0.7874015748031497,
          "duration": 0.24999975000002905
        },
        {
          "name": "G3",
          "midi": 55,
          "time": 273.8018095312505,
          "velocity": 0.7874015748031497,
          "duration": 0.16666650000001937
        },
        {
          "name": "E3",
          "midi": 52,
          "time": 275.13514153125055,
          "velocity": 0.7874015748031497,
          "duration": 0.24999975000002905
        },
        {
          "name": "B3",
          "midi": 59,
          "time": 275.13514153125055,
          "velocity": 0.7874015748031497,
          "duration": 0.16666650000001937
        },
        {
          "name": "C3",
          "midi": 48,
          "time": 276.4684735312506,
          "velocity": 0.7874015748031497,
          "duration": 0.6666660000000206
        },
        {
          "name": "C3",
          "midi": 48,
          "time": 277.1351395312506,
          "velocity": 0.7874015748031497,
          "duration": 0.3333329999999819
        },
        {
          "name": "D3",
          "midi": 50,
          "time": 277.4684725312506,
          "velocity": 0.7874015748031497,
          "duration": 0.3333329999999819
        },
        {
          "name": "E3",
          "midi": 52,
          "time": 277.8018055312506,
          "velocity": 0.7874015748031497,
          "duration": 1.3333319999999844
        },
        {
          "name": "C3",
          "midi": 48,
          "time": 279.13513753125056,
          "velocity": 0.7874015748031497,
          "duration": 1.3333319999999844
        },
        {
          "name": "E3",
          "midi": 52,
          "time": 280.46846953125055,
          "velocity": 0.7874015748031497,
          "duration": 1.3333319999999844
        },
        {
          "name": "C3",
          "midi": 48,
          "time": 281.80180153125053,
          "velocity": 0.7874015748031497,
          "duration": 0.6666660000000206
        },
        {
          "name": "A2",
          "midi": 45,
          "time": 282.46846753125055,
          "velocity": 0.7874015748031497,
          "duration": 0.3333329999999819
        },
        {
          "name": "D3",
          "midi": 50,
          "time": 282.80180053125054,
          "velocity": 0.7874015748031497,
          "duration": 0.3333329999999819
        },
        {
          "name": "E3",
          "midi": 52,
          "time": 283.1351335312505,
          "velocity": 0.7874015748031497,
          "duration": 1.3333319999999844
        },
        {
          "name": "C3",
          "midi": 48,
          "time": 284.4684655312505,
          "velocity": 0.7874015748031497,
          "duration": 1.3333319999999844
        },
        {
          "name": "E3",
          "midi": 52,
          "time": 285.8017975312505,
          "velocity": 0.7874015748031497,
          "duration": 1.3333319999999844
        },
        {
          "name": "C3",
          "midi": 48,
          "time": 287.13512953125047,
          "velocity": 0.7874015748031497,
          "duration": 0.6666660000000206
        },
        {
          "name": "C3",
          "midi": 48,
          "time": 287.8017955312505,
          "velocity": 0.7874015748031497,
          "duration": 0.3333329999999819
        },
        {
          "name": "D3",
          "midi": 50,
          "time": 288.1351285312505,
          "velocity": 0.7874015748031497,
          "duration": 0.3333329999999819
        },
        {
          "name": "E3",
          "midi": 52,
          "time": 288.46846153125045,
          "velocity": 0.7874015748031497,
          "duration": 0.16666650000001937
        },
        {
          "name": "E3",
          "midi": 52,
          "time": 289.8017935312505,
          "velocity": 0.7874015748031497,
          "duration": 0.16666650000001937
        },
        {
          "name": "A3",
          "midi": 57,
          "time": 291.13512553125054,
          "velocity": 0.7874015748031497,
          "duration": 0.16666650000001937
        },
        {
          "name": "A3",
          "midi": 57,
          "time": 292.4684575312506,
          "velocity": 0.7874015748031497,
          "duration": 0.16666650000001937
        },
        {
          "name": "F3",
          "midi": 53,
          "time": 293.8017895312506,
          "velocity": 0.7874015748031497,
          "duration": 0.16666650000001937
        },
        {
          "name": "F3",
          "midi": 53,
          "time": 295.13512153125066,
          "velocity": 0.7874015748031497,
          "duration": 0.16666650000001937
        },
        {
          "name": "A3",
          "midi": 57,
          "time": 296.4684535312507,
          "velocity": 0.7874015748031497,
          "duration": 0.49999950000000126
        },
        {
          "name": "A3",
          "midi": 57,
          "time": 296.9684530312507,
          "velocity": 0.7874015748031497,
          "duration": 0.49999950000000126
        },
        {
          "name": "E3",
          "midi": 52,
          "time": 297.4684525312507,
          "velocity": 0.7874015748031497,
          "duration": 0.3333329999999819
        },
        {
          "name": "G3",
          "midi": 55,
          "time": 297.8017855312507,
          "velocity": 0.7874015748031497,
          "duration": 1.3333319999999844
        },
        {
          "name": "E3",
          "midi": 52,
          "time": 299.13511753125067,
          "velocity": 0.7874015748031497,
          "duration": 1.3333319999999844
        },
        {
          "name": "C3",
          "midi": 48,
          "time": 300.46844953125066,
          "velocity": 0.7874015748031497,
          "duration": 1.3333319999999844
        },
        {
          "name": "G2",
          "midi": 43,
          "time": 301.80178153125064,
          "velocity": 0.7874015748031497,
          "duration": 0.49999950000000126
        },
        {
          "name": "G2",
          "midi": 43,
          "time": 302.30178103125064,
          "velocity": 0.7874015748031497,
          "duration": 0.49999950000000126
        },
        {
          "name": "G2",
          "midi": 43,
          "time": 302.80178053125064,
          "velocity": 0.7874015748031497,
          "duration": 0.3333329999999819
        },
        {
          "name": "D3",
          "midi": 50,
          "time": 303.1351135312506,
          "velocity": 0.7874015748031497,
          "duration": 1.3333319999999844
        },
        {
          "name": "E3",
          "midi": 52,
          "time": 304.4684455312506,
          "velocity": 0.7874015748031497,
          "duration": 1.3333319999999844
        },
        {
          "name": "C3",
          "midi": 48,
          "time": 305.8017775312506,
          "velocity": 0.7874015748031497,
          "duration": 1.3333319999999844
        },
        {
          "name": "G2",
          "midi": 43,
          "time": 307.1351095312506,
          "velocity": 0.7874015748031497,
          "duration": 1.3333319999999844
        },
        {
          "name": "D3",
          "midi": 50,
          "time": 308.46844153125056,
          "velocity": 0.7874015748031497,
          "duration": 1.3333319999999844
        },
        {
          "name": "G3",
          "midi": 55,
          "time": 309.80177353125055,
          "velocity": 0.7874015748031497,
          "duration": 1.3333319999999844
        },
        {
          "name": "D#3",
          "midi": 51,
          "time": 311.13510553125053,
          "velocity": 0.7874015748031497,
          "duration": 1.3333319999999844
        },
        {
          "name": "A#2",
          "midi": 46,
          "time": 312.4684375312505,
          "velocity": 0.7874015748031497,
          "duration": 0.49999950000000126
        },
        {
          "name": "A#2",
          "midi": 46,
          "time": 312.9684370312505,
          "velocity": 0.7874015748031497,
          "duration": 0.49999950000000126
        },
        {
          "name": "A#2",
          "midi": 46,
          "time": 313.4684365312505,
          "velocity": 0.7874015748031497,
          "duration": 0.3333329999999819
        },
        {
          "name": "F3",
          "midi": 53,
          "time": 313.8017695312505,
          "velocity": 0.7874015748031497,
          "duration": 0.49999950000000126
        },
        {
          "name": "F3",
          "midi": 53,
          "time": 314.3017690312505,
          "velocity": 0.7874015748031497,
          "duration": 0.8333324999999832
        },
        {
          "name": "G3",
          "midi": 55,
          "time": 315.1351015312505,
          "velocity": 0.7874015748031497,
          "duration": 1.3333319999999844
        },
        {
          "name": "D#3",
          "midi": 51,
          "time": 316.46843353125047,
          "velocity": 0.7874015748031497,
          "duration": 1.3333319999999844
        },
        {
          "name": "A#2",
          "midi": 46,
          "time": 317.80176553125045,
          "velocity": 0.7874015748031497,
          "duration": 0.49999950000000126
        },
        {
          "name": "A#2",
          "midi": 46,
          "time": 318.30176503125045,
          "velocity": 0.7874015748031497,
          "duration": 0.49999950000000126
        },
        {
          "name": "A#2",
          "midi": 46,
          "time": 318.80176453125046,
          "velocity": 0.7874015748031497,
          "duration": 0.3333329999999819
        },
        {
          "name": "F3",
          "midi": 53,
          "time": 319.13509753125044,
          "velocity": 0.7874015748031497,
          "duration": 1.3333319999999844
        },
        {
          "name": "A#2",
          "midi": 46,
          "time": 320.4684295312504,
          "velocity": 0.7874015748031497,
          "duration": 1.3333319999999844
        },
        {
          "name": "F#2",
          "midi": 42,
          "time": 321.8017615312504,
          "velocity": 0.7874015748031497,
          "duration": 1.3333319999999844
        },
        {
          "name": "C#3",
          "midi": 49,
          "time": 323.1350935312504,
          "velocity": 0.7874015748031497,
          "duration": 1.3333319999999844
        },
        {
          "name": "G#2",
          "midi": 44,
          "time": 324.4684255312504,
          "velocity": 0.7874015748031497,
          "duration": 1.3333319999999844
        },
        {
          "name": "C#3",
          "midi": 49,
          "time": 325.80175753125036,
          "velocity": 0.7874015748031497,
          "duration": 1.3333319999999844
        },
        {
          "name": "A2",
          "midi": 45,
          "time": 327.13508953125034,
          "velocity": 0.7874015748031497,
          "duration": 1.3333319999999844
        },
        {
          "name": "E3",
          "midi": 52,
          "time": 328.4684215312503,
          "velocity": 0.7874015748031497,
          "duration": 0.16666650000001937
        },
        {
          "name": "E3",
          "midi": 52,
          "time": 328.96842103125033,
          "velocity": 0.7874015748031497,
          "duration": 0.16666650000001937
        },
        {
          "name": "E3",
          "midi": 52,
          "time": 329.46842053125033,
          "velocity": 0.7874015748031497,
          "duration": 0.3333329999999819
        },
        {
          "name": "B2",
          "midi": 47,
          "time": 329.8017535312503,
          "velocity": 0.7874015748031497,
          "duration": 0.16666650000001937
        },
        {
          "name": "B2",
          "midi": 47,
          "time": 330.3017530312503,
          "velocity": 0.7874015748031497,
          "duration": 0.16666650000001937
        },
        {
          "name": "B2",
          "midi": 47,
          "time": 330.8017525312503,
          "velocity": 0.7874015748031497,
          "duration": 0.3333329999999819
        },
        {
          "name": "E3",
          "midi": 52,
          "time": 331.1350855312503,
          "velocity": 0.7874015748031497,
          "duration": 0.9999990000000025
        },
        {
          "name": "C3",
          "midi": 48,
          "time": 332.4684175312503,
          "velocity": 0.7874015748031497,
          "duration": 0.11111099999999396
        },
        {
          "name": "G2",
          "midi": 43,
          "time": 333.80174953125027,
          "velocity": 0.7874015748031497,
          "duration": 0.49999950000000126
        },
        {
          "name": "D3",
          "midi": 50,
          "time": 333.80174953125027,
          "velocity": 0.7874015748031497,
          "duration": 0.49999950000000126
        },
        {
          "name": "G2",
          "midi": 43,
          "time": 334.30174903125027,
          "velocity": 0.7874015748031497,
          "duration": 0.49999950000000126
        },
        {
          "name": "D3",
          "midi": 50,
          "time": 334.30174903125027,
          "velocity": 0.7874015748031497,
          "duration": 0.49999950000000126
        },
        {
          "name": "G2",
          "midi": 43,
          "time": 334.80174853125027,
          "velocity": 0.7874015748031497,
          "duration": 0.3333329999999819
        },
        {
          "name": "D3",
          "midi": 50,
          "time": 334.80174853125027,
          "velocity": 0.7874015748031497,
          "duration": 0.3333329999999819
        },
        {
          "name": "D3",
          "midi": 50,
          "time": 335.13508153125025,
          "velocity": 0.7874015748031497,
          "duration": 1.3333319999999844
        },
        {
          "name": "B3",
          "midi": 59,
          "time": 336.46841353125023,
          "velocity": 0.7874015748031497,
          "duration": 0.16666650000001937
        },
        {
          "name": "B3",
          "midi": 59,
          "time": 336.46841353125023,
          "velocity": 0.7874015748031497,
          "duration": 0.16666650000001937
        },
        {
          "name": "A3",
          "midi": 57,
          "time": 336.96841303125024,
          "velocity": 0.7874015748031497,
          "duration": 0.16666650000001937
        },
        {
          "name": "B3",
          "midi": 59,
          "time": 337.46841253125024,
          "velocity": 0.7874015748031497,
          "duration": 0.16666650000001937
        },
        {
          "name": "C4",
          "midi": 60,
          "time": 337.8017455312503,
          "velocity": 0.7874015748031497,
          "duration": 0.16666650000001937
        },
        {
          "name": "B3",
          "midi": 59,
          "time": 338.1350785312503,
          "velocity": 0.7874015748031497,
          "duration": 0.16666650000001937
        },
        {
          "name": "A3",
          "midi": 57,
          "time": 338.46841153125035,
          "velocity": 0.7874015748031497,
          "duration": 0.16666650000001937
        },
        {
          "name": "G3",
          "midi": 55,
          "time": 338.8017445312504,
          "velocity": 0.7874015748031497,
          "duration": 0.16666650000001937
        },
        {
          "name": "B3",
          "midi": 59,
          "time": 339.13507753125043,
          "velocity": 0.7874015748031497,
          "duration": 0.16666650000001937
        },
        {
          "name": "A3",
          "midi": 57,
          "time": 339.63507703125043,
          "velocity": 0.7874015748031497,
          "duration": 0.16666650000001937
        },
        {
          "name": "B3",
          "midi": 59,
          "time": 340.13507653125043,
          "velocity": 0.7874015748031497,
          "duration": 0.16666650000001937
        },
        {
          "name": "C4",
          "midi": 60,
          "time": 340.4684095312505,
          "velocity": 0.7874015748031497,
          "duration": 0.11111099999999396
        },
        {
          "name": "B3",
          "midi": 59,
          "time": 341.80174153125046,
          "velocity": 0.7874015748031497,
          "duration": 0.16666650000001937
        },
        {
          "name": "B3",
          "midi": 59,
          "time": 341.80174153125046,
          "velocity": 0.7874015748031497,
          "duration": 0.16666650000001937
        },
        {
          "name": "A3",
          "midi": 57,
          "time": 342.30174103125046,
          "velocity": 0.7874015748031497,
          "duration": 0.16666650000001937
        },
        {
          "name": "B3",
          "midi": 59,
          "time": 342.80174053125046,
          "velocity": 0.7874015748031497,
          "duration": 0.16666650000001937
        },
        {
          "name": "C4",
          "midi": 60,
          "time": 343.1350735312505,
          "velocity": 0.7874015748031497,
          "duration": 0.16666650000001937
        },
        {
          "name": "B3",
          "midi": 59,
          "time": 343.46840653125054,
          "velocity": 0.7874015748031497,
          "duration": 0.16666650000001937
        },
        {
          "name": "A3",
          "midi": 57,
          "time": 343.8017395312506,
          "velocity": 0.7874015748031497,
          "duration": 0.16666650000001937
        },
        {
          "name": "G3",
          "midi": 55,
          "time": 344.1350725312506,
          "velocity": 0.7874015748031497,
          "duration": 0.16666650000001937
        },
        {
          "name": "F#3",
          "midi": 54,
          "time": 344.46840553125065,
          "velocity": 0.7874015748031497,
          "duration": 0.49999950000000126
        },
        {
          "name": "G3",
          "midi": 55,
          "time": 344.96840503125065,
          "velocity": 0.7874015748031497,
          "duration": 0.49999950000000126
        },
        {
          "name": "E3",
          "midi": 52,
          "time": 345.46840453125066,
          "velocity": 0.7874015748031497,
          "duration": 0.9999990000000025
        },
        {
          "name": "A3",
          "midi": 57,
          "time": 346.46840353125066,
          "velocity": 0.7874015748031497,
          "duration": 0.3333329999999819
        },
        {
          "name": "G3",
          "midi": 55,
          "time": 346.80173653125064,
          "velocity": 0.7874015748031497,
          "duration": 0.3333329999999819
        },
        {
          "name": "F#3",
          "midi": 54,
          "time": 347.1350695312506,
          "velocity": 0.7874015748031497,
          "duration": 0.6666660000000206
        },
        {
          "name": "G3",
          "midi": 55,
          "time": 347.80173553125064,
          "velocity": 0.7874015748031497,
          "duration": 0.3333329999999819
        },
        {
          "name": "E3",
          "midi": 52,
          "time": 348.1350685312506,
          "velocity": 0.7874015748031497,
          "duration": 0.9999990000000025
        },
        {
          "name": "D3",
          "midi": 50,
          "time": 349.1350675312506,
          "velocity": 0.7874015748031497,
          "duration": 0.583332750000011
        },
        {
          "name": "B3",
          "midi": 59,
          "time": 349.80173353125065,
          "velocity": 0.7874015748031497,
          "duration": 0.16666650000001937
        },
        {
          "name": "B3",
          "midi": 59,
          "time": 349.80173353125065,
          "velocity": 0.7874015748031497,
          "duration": 0.16666650000001937
        },
        {
          "name": "A3",
          "midi": 57,
          "time": 350.30173303125065,
          "velocity": 0.7874015748031497,
          "duration": 0.16666650000001937
        },
        {
          "name": "B3",
          "midi": 59,
          "time": 350.80173253125065,
          "velocity": 0.7874015748031497,
          "duration": 0.16666650000001937
        },
        {
          "name": "C4",
          "midi": 60,
          "time": 351.1350655312507,
          "velocity": 0.7874015748031497,
          "duration": 0.16666650000001937
        },
        {
          "name": "B3",
          "midi": 59,
          "time": 351.4683985312507,
          "velocity": 0.7874015748031497,
          "duration": 0.16666650000001937
        },
        {
          "name": "A3",
          "midi": 57,
          "time": 351.80173153125077,
          "velocity": 0.7874015748031497,
          "duration": 0.16666650000001937
        },
        {
          "name": "G3",
          "midi": 55,
          "time": 352.1350645312508,
          "velocity": 0.7874015748031497,
          "duration": 0.16666650000001937
        },
        {
          "name": "B3",
          "midi": 59,
          "time": 352.46839753125084,
          "velocity": 0.7874015748031497,
          "duration": 0.16666650000001937
        },
        {
          "name": "A3",
          "midi": 57,
          "time": 352.96839703125084,
          "velocity": 0.7874015748031497,
          "duration": 0.16666650000001937
        },
        {
          "name": "B3",
          "midi": 59,
          "time": 353.46839653125085,
          "velocity": 0.7874015748031497,
          "duration": 0.16666650000001937
        },
        {
          "name": "C4",
          "midi": 60,
          "time": 353.8017295312509,
          "velocity": 0.7874015748031497,
          "duration": 0.11111099999999396
        },
        {
          "name": "B3",
          "midi": 59,
          "time": 355.13506153125087,
          "velocity": 0.7874015748031497,
          "duration": 0.16666650000001937
        },
        {
          "name": "B3",
          "midi": 59,
          "time": 355.13506153125087,
          "velocity": 0.7874015748031497,
          "duration": 0.16666650000001937
        },
        {
          "name": "A3",
          "midi": 57,
          "time": 355.63506103125087,
          "velocity": 0.7874015748031497,
          "duration": 0.16666650000001937
        },
        {
          "name": "B3",
          "midi": 59,
          "time": 356.1350605312509,
          "velocity": 0.7874015748031497,
          "duration": 0.16666650000001937
        },
        {
          "name": "C4",
          "midi": 60,
          "time": 356.4683935312509,
          "velocity": 0.7874015748031497,
          "duration": 0.16666650000001937
        },
        {
          "name": "B3",
          "midi": 59,
          "time": 356.80172653125095,
          "velocity": 0.7874015748031497,
          "duration": 0.16666650000001937
        },
        {
          "name": "A3",
          "midi": 57,
          "time": 357.135059531251,
          "velocity": 0.7874015748031497,
          "duration": 0.16666650000001937
        },
        {
          "name": "G3",
          "midi": 55,
          "time": 357.468392531251,
          "velocity": 0.7874015748031497,
          "duration": 0.16666650000001937
        },
        {
          "name": "C4",
          "midi": 60,
          "time": 357.80172553125107,
          "velocity": 0.7874015748031497,
          "duration": 0.11111099999999396
        },
        {
          "name": "G5",
          "midi": 79,
          "time": 359.13505753125105,
          "velocity": 0.7874015748031497,
          "duration": 1.3333319999999844
        },
        {
          "name": "D4",
          "midi": 62,
          "time": 360.46838953125103,
          "velocity": 0.7874015748031497,
          "duration": 0.11111099999999396
        },
        {
          "name": "A5",
          "midi": 81,
          "time": 361.690610531251,
          "velocity": 0.7874015748031497,
          "duration": 0.7777770000000146
        },
        {
          "name": "B5",
          "midi": 83,
          "time": 362.46838753125104,
          "velocity": 0.7874015748031497,
          "duration": 0.6666660000000206
        },
        {
          "name": "G5",
          "midi": 79,
          "time": 363.13505353125106,
          "velocity": 0.7874015748031497,
          "duration": 2.6666640000000257
        }
      ],
      "controlChanges": {},
      "id": 1,
      "name": "MIDI Guitar Beginner",
      "channelNumber": 0,
      "isPercussion": false
    }
  ]
}