{
  "header": {
    "PPQ": 480,
    "timeSignature": [
      4,
      4
    ],
    "bpm": 180.00018000018,
    "name": "FREEDOM OF PRESS MIDI FILE IMPORT FIRST"
  },
  "tempo": [
    {
      "absoluteTime": 0,
      "seconds": 0,
      "bpm": 180.00018000018
    },
    {
      "absoluteTime": 7680,
      "seconds": 5.333328,
      "bpm": 180.00072000288
    },
    {
      "absoluteTime": 17280,
      "seconds": 11.999988,
      "bpm": 180.00018000018
    }
  ],
  "timeSignature": [
    {
      "absoluteTime": 0,
      "seconds": 0,
      "numerator": 4,
      "denominator": 2,
      "click": 24,
      "notesQ": 8
    },
    {
      "absoluteTime": 7680,
      "seconds": 5.333328,
      "numerator": 4,
      "denominator": 2,
      "click": 24,
      "notesQ": 8
    },
    {
      "absoluteTime": 17280,
      "seconds": 11.999988,
      "numerator": 4,
      "denominator": 2,
      "click": 24,
      "notesQ": 8
    }
  ],
  "startTime": 0,
  "duration": 365.80171753125063,
  "tracks": [
    {
      "startTime": 0,
      "duration": 0,
      "length": 0,
      "notes": [],
      "controlChanges": {},
      "id": 0,
      "name": "FREEDOM OF PRESS MIDI FILE IMPORT FIRST"
    },
    {
      "startTime": 2.999997,
      "duration": 365.80171753125063,
      "length": 908,
      "notes": [
        {
          "name": "D3",
          "midi": 50,
          "time": 2.999997,
          "velocity": 0.7874015748031497,
          "duration": 0.1354165312500002
        },
        {
          "name": "B3",
          "midi": 59,
          "time": 3.13541353125,
          "velocity": 0.7874015748031497,
          "duration": 0.16666649999999983
        },
        {
          "name": "B3",
          "midi": 59,
          "time": 3.13541353125,
          "velocity": 0.7874015748031497,
          "duration": 0.16666649999999983
        },
        {
          "name": "E3",
          "midi": 52,
          "time": 3.30208003125,
          "velocity": 0.7874015748031497,
          "duration": 0.16666649999999983
        },
        {
          "name": "E3",
          "midi": 52,
          "time": 3.46874653125,
          "velocity": 0.7874015748031497,
          "duration": 0.16666649999999983
        },
        {
          "name": "A3",
          "midi": 57,
          "time": 3.6354130312499997,
          "velocity": 0.7874015748031497,
          "duration": 0.16666649999999983
        },
        {
          "name": "E3",
          "midi": 52,
          "time": 3.8020795312499995,
          "velocity": 0.7874015748031497,
          "duration": 0.16666649999999983
        },
        {
          "name": "E3",
          "midi": 52,
          "time": 3.9687460312499994,
          "velocity": 0.7874015748031497,
          "duration": 0.16666649999999983
        },
        {
          "name": "B3",
          "midi": 59,
          "time": 4.135412531249999,
          "velocity": 0.7874015748031497,
          "duration": 0.16666649999999983
        },
        {
          "name": "C4",
          "midi": 60,
          "time": 4.468745531249999,
          "velocity": 0.7874015748031497,
          "duration": 0.16666649999999983
        },
        {
          "name": "B3",
          "midi": 59,
          "time": 4.8020785312499985,
          "velocity": 0.7874015748031497,
          "duration": 0.16666649999999983
        },
        {
          "name": "A3",
          "midi": 57,
          "time": 5.135411531249998,
          "velocity": 0.7874015748031497,
          "duration": 0.16666649999999983
        },
        {
          "name": "G3",
          "midi": 55,
          "time": 5.468744531249998,
          "velocity": 0.7874015748031497,
          "duration": 0.16666649999999983
        },
        {
          "name": "B3",
          "midi": 59,
          "time": 5.8020775312499975,
          "velocity": 0.7874015748031497,
          "duration": 0.16666649999999983
        },
        {
          "name": "E3",
          "midi": 52,
          "time": 5.968744031249997,
          "velocity": 0.7874015748031497,
          "duration": 0.16666649999999983
        },
        {
          "name": "E3",
          "midi": 52,
          "time": 6.135410531249997,
          "velocity": 0.7874015748031497,
          "duration": 0.16666649999999983
        },
        {
          "name": "A3",
          "midi": 57,
          "time": 6.302077031249997,
          "velocity": 0.7874015748031497,
          "duration": 0.16666649999999983
        },
        {
          "name": "E3",
          "midi": 52,
          "time": 6.468743531249997,
          "velocity": 0.7874015748031497,
          "duration": 0.16666649999999983
        },
        {
          "name": "E3",
          "midi": 52,
          "time": 6.635410031249997,
          "velocity": 0.7874015748031497,
          "duration": 0.16666649999999983
        },
        {
          "name": "B3",
          "midi": 59,
          "time": 6.8020765312499964,
          "velocity": 0.7874015748031497,
          "duration": 0.16666649999999983
        },
        {
          "name": "C4",
          "midi": 60,
          "time": 7.135409531249996,
          "velocity": 0.7874015748031497,
          "duration": 0.11111100000000018
        },
        {
          "name": "B3",
          "midi": 59,
          "time": 7.468742531249997,
          "velocity": 0.7874015748031497,
          "duration": 0.11111100000000018
        },
        {
          "name": "A3",
          "midi": 57,
          "time": 7.802075531249997,
          "velocity": 0.7874015748031497,
          "duration": 0.11111100000000018
        },
        {
          "name": "G3",
          "midi": 55,
          "time": 8.135408531249997,
          "velocity": 0.7874015748031497,
          "duration": 0.33333299999999966
        },
        {
          "name": "B3",
          "midi": 59,
          "time": 8.468741531249997,
          "velocity": 0.7874015748031497,
          "duration": 0.16666649999999983
        },
        {
          "name": "B3",
          "midi": 59,
          "time": 8.468741531249997,
          "velocity": 0.7874015748031497,
          "duration": 0.16666649999999983
        },
        {
          "name": "E3",
          "midi": 52,
          "time": 8.635408031249996,
          "velocity": 0.7874015748031497,
          "duration": 0.16666649999999983
        },
        {
          "name": "E3",
          "midi": 52,
          "time": 8.802074531249996,
          "velocity": 0.7874015748031497,
          "duration": 0.16666649999999983
        },
        {
          "name": "A3",
          "midi": 57,
          "time": 8.968741031249996,
          "velocity": 0.7874015748031497,
          "duration": 0.16666649999999983
        },
        {
          "name": "E3",
          "midi": 52,
          "time": 9.135407531249996,
          "velocity": 0.7874015748031497,
          "duration": 0.16666649999999983
        },
        {
          "name": "E3",
          "midi": 52,
          "time": 9.302074031249996,
          "velocity": 0.7874015748031497,
          "duration": 0.16666649999999983
        },
        {
          "name": "B3",
          "midi": 59,
          "time": 9.468740531249995,
          "velocity": 0.7874015748031497,
          "duration": 0.16666649999999983
        },
        {
          "name": "C4",
          "midi": 60,
          "time": 9.802073531249995,
          "velocity": 0.7874015748031497,
          "duration": 0.16666649999999983
        },
        {
          "name": "B3",
          "midi": 59,
          "time": 10.135406531249995,
          "velocity": 0.7874015748031497,
          "duration": 0.16666649999999983
        },
        {
          "name": "A3",
          "midi": 57,
          "time": 10.468739531249994,
          "velocity": 0.7874015748031497,
          "duration": 0.16666649999999983
        },
        {
          "name": "G3",
          "midi": 55,
          "time": 10.802072531249994,
          "velocity": 0.7874015748031497,
          "duration": 0.16666649999999983
        },
        {
          "name": "F#3",
          "midi": 54,
          "time": 11.135405531249994,
          "velocity": 0.7874015748031497,
          "duration": 0.5833327500000003
        },
        {
          "name": "G3",
          "midi": 55,
          "time": 11.718738281249994,
          "velocity": 0.7874015748031497,
          "duration": 0.41666625000000046
        },
        {
          "name": "E3",
          "midi": 52,
          "time": 12.135404531249995,
          "velocity": 0.7874015748031497,
          "duration": 0.9999990000000007
        },
        {
          "name": "A3",
          "midi": 57,
          "time": 13.135403531249995,
          "velocity": 0.7874015748031497,
          "duration": 0.33333299999999966
        },
        {
          "name": "G3",
          "midi": 55,
          "time": 13.468736531249995,
          "velocity": 0.7874015748031497,
          "duration": 0.33333299999999966
        },
        {
          "name": "F#3",
          "midi": 54,
          "time": 13.802069531249995,
          "velocity": 0.7874015748031497,
          "duration": 0.6666659999999993
        },
        {
          "name": "G3",
          "midi": 55,
          "time": 14.468735531249994,
          "velocity": 0.7874015748031497,
          "duration": 0.33333299999999966
        },
        {
          "name": "E3",
          "midi": 52,
          "time": 14.802068531249994,
          "velocity": 0.7874015748031497,
          "duration": 0.9999990000000007
        },
        {
          "name": "D3",
          "midi": 50,
          "time": 15.802067531249994,
          "velocity": 0.7874015748031497,
          "duration": 0.5833327499999985
        },
        {
          "name": "B3",
          "midi": 59,
          "time": 16.468733531249992,
          "velocity": 0.7874015748031497,
          "duration": 0.1666665000000016
        },
        {
          "name": "B3",
          "midi": 59,
          "time": 16.468733531249992,
          "velocity": 0.7874015748031497,
          "duration": 0.1666665000000016
        },
        {
          "name": "E3",
          "midi": 52,
          "time": 16.635400031249993,
          "velocity": 0.7874015748031497,
          "duration": 0.1666665000000016
        },
        {
          "name": "E3",
          "midi": 52,
          "time": 16.802066531249995,
          "velocity": 0.7874015748031497,
          "duration": 0.1666665000000016
        },
        {
          "name": "A3",
          "midi": 57,
          "time": 16.968733031249997,
          "velocity": 0.7874015748031497,
          "duration": 0.1666665000000016
        },
        {
          "name": "E3",
          "midi": 52,
          "time": 17.13539953125,
          "velocity": 0.7874015748031497,
          "duration": 0.1666665000000016
        },
        {
          "name": "E3",
          "midi": 52,
          "time": 17.30206603125,
          "velocity": 0.7874015748031497,
          "duration": 0.1666665000000016
        },
        {
          "name": "B3",
          "midi": 59,
          "time": 17.46873253125,
          "velocity": 0.7874015748031497,
          "duration": 0.1666665000000016
        },
        {
          "name": "C4",
          "midi": 60,
          "time": 17.802065531250005,
          "velocity": 0.7874015748031497,
          "duration": 0.1666665000000016
        },
        {
          "name": "B3",
          "midi": 59,
          "time": 18.135398531250008,
          "velocity": 0.7874015748031497,
          "duration": 0.1666665000000016
        },
        {
          "name": "A3",
          "midi": 57,
          "time": 18.46873153125001,
          "velocity": 0.7874015748031497,
          "duration": 0.1666665000000016
        },
        {
          "name": "G3",
          "midi": 55,
          "time": 18.802064531250014,
          "velocity": 0.7874015748031497,
          "duration": 0.1666665000000016
        },
        {
          "name": "B3",
          "midi": 59,
          "time": 19.135397531250018,
          "velocity": 0.7874015748031497,
          "duration": 0.1666665000000016
        },
        {
          "name": "E3",
          "midi": 52,
          "time": 19.30206403125002,
          "velocity": 0.7874015748031497,
          "duration": 0.1666665000000016
        },
        {
          "name": "E3",
          "midi": 52,
          "time": 19.46873053125002,
          "velocity": 0.7874015748031497,
          "duration": 0.1666665000000016
        },
        {
          "name": "A3",
          "midi": 57,
          "time": 19.635397031250022,
          "velocity": 0.7874015748031497,
          "duration": 0.1666665000000016
        },
        {
          "name": "E3",
          "midi": 52,
          "time": 19.802063531250024,
          "velocity": 0.7874015748031497,
          "duration": 0.1666665000000016
        },
        {
          "name": "E3",
          "midi": 52,
          "time": 19.968730031250026,
          "velocity": 0.7874015748031497,
          "duration": 0.1666665000000016
        },
        {
          "name": "B3",
          "midi": 59,
          "time": 20.135396531250027,
          "velocity": 0.7874015748031497,
          "duration": 0.1666665000000016
        },
        {
          "name": "C4",
          "midi": 60,
          "time": 20.46872953125003,
          "velocity": 0.7874015748031497,
          "duration": 0.11111100000000107
        },
        {
          "name": "B3",
          "midi": 59,
          "time": 20.80206253125003,
          "velocity": 0.7874015748031497,
          "duration": 0.11111100000000107
        },
        {
          "name": "A3",
          "midi": 57,
          "time": 21.13539553125003,
          "velocity": 0.7874015748031497,
          "duration": 0.11111100000000107
        },
        {
          "name": "G3",
          "midi": 55,
          "time": 21.46872853125003,
          "velocity": 0.7874015748031497,
          "duration": 0.33333299999999966
        },
        {
          "name": "B3",
          "midi": 59,
          "time": 21.80206153125003,
          "velocity": 0.7874015748031497,
          "duration": 0.1666665000000016
        },
        {
          "name": "B3",
          "midi": 59,
          "time": 21.80206153125003,
          "velocity": 0.7874015748031497,
          "duration": 0.1666665000000016
        },
        {
          "name": "E3",
          "midi": 52,
          "time": 21.96872803125003,
          "velocity": 0.7874015748031497,
          "duration": 0.1666665000000016
        },
        {
          "name": "E3",
          "midi": 52,
          "time": 22.135394531250032,
          "velocity": 0.7874015748031497,
          "duration": 0.1666665000000016
        },
        {
          "name": "A3",
          "midi": 57,
          "time": 22.302061031250034,
          "velocity": 0.7874015748031497,
          "duration": 0.1666665000000016
        },
        {
          "name": "E3",
          "midi": 52,
          "time": 22.468727531250035,
          "velocity": 0.7874015748031497,
          "duration": 0.1666665000000016
        },
        {
          "name": "E3",
          "midi": 52,
          "time": 22.635394031250037,
          "velocity": 0.7874015748031497,
          "duration": 0.1666665000000016
        },
        {
          "name": "B3",
          "midi": 59,
          "time": 22.80206053125004,
          "velocity": 0.7874015748031497,
          "duration": 0.1666665000000016
        },
        {
          "name": "C4",
          "midi": 60,
          "time": 23.135393531250042,
          "velocity": 0.7874015748031497,
          "duration": 0.1666665000000016
        },
        {
          "name": "B3",
          "midi": 59,
          "time": 23.468726531250045,
          "velocity": 0.7874015748031497,
          "duration": 0.1666665000000016
        },
        {
          "name": "A3",
          "midi": 57,
          "time": 23.80205953125005,
          "velocity": 0.7874015748031497,
          "duration": 0.1666665000000016
        },
        {
          "name": "G3",
          "midi": 55,
          "time": 24.13539253125005,
          "velocity": 0.7874015748031497,
          "duration": 0.1666665000000016
        },
        {
          "name": "F#3",
          "midi": 54,
          "time": 24.468725531250055,
          "velocity": 0.7874015748031497,
          "duration": 0.5833327500000003
        },
        {
          "name": "G3",
          "midi": 55,
          "time": 25.052058281250055,
          "velocity": 0.7874015748031497,
          "duration": 0.4166662499999987
        },
        {
          "name": "E3",
          "midi": 52,
          "time": 25.468724531250054,
          "velocity": 0.7874015748031497,
          "duration": 0.999998999999999
        },
        {
          "name": "A3",
          "midi": 57,
          "time": 26.468723531250053,
          "velocity": 0.7874015748031497,
          "duration": 0.33333299999999966
        },
        {
          "name": "G3",
          "midi": 55,
          "time": 26.802056531250052,
          "velocity": 0.7874015748031497,
          "duration": 0.33333299999999966
        },
        {
          "name": "F#3",
          "midi": 54,
          "time": 27.135389531250052,
          "velocity": 0.7874015748031497,
          "duration": 0.6666659999999993
        },
        {
          "name": "G3",
          "midi": 55,
          "time": 27.80205553125005,
          "velocity": 0.7874015748031497,
          "duration": 0.33333299999999966
        },
        {
          "name": "D3",
          "midi": 50,
          "time": 28.13538853125005,
          "velocity": 0.7874015748031497,
          "duration": 0.999998999999999
        },
        {
          "name": "B2",
          "midi": 47,
          "time": 29.13538753125005,
          "velocity": 0.7874015748031497,
          "duration": 0.6666659999999993
        },
        {
          "name": "F#3",
          "midi": 54,
          "time": 29.13538753125005,
          "velocity": 0.7874015748031497,
          "duration": 0.6666659999999993
        },
        {
          "name": "E2",
          "midi": 40,
          "time": 29.80205353125005,
          "velocity": 0.7874015748031497,
          "duration": 2.666664000000001
        },
        {
          "name": "B2",
          "midi": 47,
          "time": 29.80205353125005,
          "velocity": 0.7874015748031497,
          "duration": 2.666664000000001
        },
        {
          "name": "E3",
          "midi": 52,
          "time": 32.46871753125005,
          "velocity": 0.7874015748031497,
          "duration": 0.24999975000000063
        },
        {
          "name": "B3",
          "midi": 59,
          "time": 32.46871753125005,
          "velocity": 0.7874015748031497,
          "duration": 0.16666649999999805
        },
        {
          "name": "E3",
          "midi": 52,
          "time": 33.46871653125005,
          "velocity": 0.7874015748031497,
          "duration": 0.16666649999999805
        },
        {
          "name": "C3",
          "midi": 48,
          "time": 33.80204953125005,
          "velocity": 0.7874015748031497,
          "duration": 0.24999975000000063
        },
        {
          "name": "G3",
          "midi": 55,
          "time": 33.80204953125005,
          "velocity": 0.7874015748031497,
          "duration": 0.16666649999999805
        },
        {
          "name": "C3",
          "midi": 48,
          "time": 34.80204853125005,
          "velocity": 0.7874015748031497,
          "duration": 0.16666649999999805
        },
        {
          "name": "E3",
          "midi": 52,
          "time": 35.13538153125005,
          "velocity": 0.7874015748031497,
          "duration": 0.24999975000000063
        },
        {
          "name": "B3",
          "midi": 59,
          "time": 35.13538153125005,
          "velocity": 0.7874015748031497,
          "duration": 0.16666649999999805
        },
        {
          "name": "E3",
          "midi": 52,
          "time": 36.13538053125005,
          "velocity": 0.7874015748031497,
          "duration": 0.16666649999999805
        },
        {
          "name": "C3",
          "midi": 48,
          "time": 36.468713531250046,
          "velocity": 0.7874015748031497,
          "duration": 0.6666659999999993
        },
        {
          "name": "G3",
          "midi": 55,
          "time": 36.468713531250046,
          "velocity": 0.7874015748031497,
          "duration": 0.6666659999999993
        },
        {
          "name": "A2",
          "midi": 45,
          "time": 37.135379531250045,
          "velocity": 0.7874015748031497,
          "duration": 0.3333330000000032
        },
        {
          "name": "E3",
          "midi": 52,
          "time": 37.135379531250045,
          "velocity": 0.7874015748031497,
          "duration": 0.3333330000000032
        },
        {
          "name": "D3",
          "midi": 50,
          "time": 37.46871253125005,
          "velocity": 0.7874015748031497,
          "duration": 0.3333330000000032
        },
        {
          "name": "A3",
          "midi": 57,
          "time": 37.46871253125005,
          "velocity": 0.7874015748031497,
          "duration": 0.3333330000000032
        },
        {
          "name": "E3",
          "midi": 52,
          "time": 37.80204553125005,
          "velocity": 0.7874015748031497,
          "duration": 0.24999975000000063
        },
        {
          "name": "B3",
          "midi": 59,
          "time": 37.80204553125005,
          "velocity": 0.7874015748031497,
          "duration": 0.16666649999999805
        },
        {
          "name": "E3",
          "midi": 52,
          "time": 38.802044531250054,
          "velocity": 0.7874015748031497,
          "duration": 0.16666649999999805
        },
        {
          "name": "C3",
          "midi": 48,
          "time": 39.13537753125005,
          "velocity": 0.7874015748031497,
          "duration": 0.24999975000000063
        },
        {
          "name": "G3",
          "midi": 55,
          "time": 39.13537753125005,
          "velocity": 0.7874015748031497,
          "duration": 0.16666649999999805
        },
        {
          "name": "C3",
          "midi": 48,
          "time": 40.13537653125005,
          "velocity": 0.7874015748031497,
          "duration": 0.16666649999999805
        },
        {
          "name": "E3",
          "midi": 52,
          "time": 40.46870953125005,
          "velocity": 0.7874015748031497,
          "duration": 0.24999975000000063
        },
        {
          "name": "B3",
          "midi": 59,
          "time": 40.46870953125005,
          "velocity": 0.7874015748031497,
          "duration": 0.16666649999999805
        },
        {
          "name": "E3",
          "midi": 52,
          "time": 41.46870853125005,
          "velocity": 0.7874015748031497,
          "duration": 0.16666649999999805
        },
        {
          "name": "C3",
          "midi": 48,
          "time": 41.80204153125005,
          "velocity": 0.7874015748031497,
          "duration": 0.6666659999999993
        },
        {
          "name": "G3",
          "midi": 55,
          "time": 41.80204153125005,
          "velocity": 0.7874015748031497,
          "duration": 0.6666659999999993
        },
        {
          "name": "C3",
          "midi": 48,
          "time": 42.46870753125005,
          "velocity": 0.7874015748031497,
          "duration": 0.3333330000000032
        },
        {
          "name": "G3",
          "midi": 55,
          "time": 42.46870753125005,
          "velocity": 0.7874015748031497,
          "duration": 0.3333330000000032
        },
        {
          "name": "D3",
          "midi": 50,
          "time": 42.80204053125005,
          "velocity": 0.7874015748031497,
          "duration": 0.3333330000000032
        },
        {
          "name": "A3",
          "midi": 57,
          "time": 42.80204053125005,
          "velocity": 0.7874015748031497,
          "duration": 0.3333330000000032
        },
        {
          "name": "E3",
          "midi": 52,
          "time": 43.13537353125005,
          "velocity": 0.7874015748031497,
          "duration": 0.24999975000000063
        },
        {
          "name": "B3",
          "midi": 59,
          "time": 43.13537353125005,
          "velocity": 0.7874015748031497,
          "duration": 0.16666649999999805
        },
        {
          "name": "E3",
          "midi": 52,
          "time": 44.135372531250056,
          "velocity": 0.7874015748031497,
          "duration": 0.16666649999999805
        },
        {
          "name": "C3",
          "midi": 48,
          "time": 44.46870553125005,
          "velocity": 0.7874015748031497,
          "duration": 0.24999975000000063
        },
        {
          "name": "G3",
          "midi": 55,
          "time": 44.46870553125005,
          "velocity": 0.7874015748031497,
          "duration": 0.16666649999999805
        },
        {
          "name": "C3",
          "midi": 48,
          "time": 45.468704531250054,
          "velocity": 0.7874015748031497,
          "duration": 0.16666649999999805
        },
        {
          "name": "E3",
          "midi": 52,
          "time": 45.80203753125005,
          "velocity": 0.7874015748031497,
          "duration": 0.24999975000000063
        },
        {
          "name": "B3",
          "midi": 59,
          "time": 45.80203753125005,
          "velocity": 0.7874015748031497,
          "duration": 0.16666649999999805
        },
        {
          "name": "E3",
          "midi": 52,
          "time": 46.80203653125005,
          "velocity": 0.7874015748031497,
          "duration": 0.16666649999999805
        },
        {
          "name": "C3",
          "midi": 48,
          "time": 47.13536953125005,
          "velocity": 0.7874015748031497,
          "duration": 0.6666659999999993
        },
        {
          "name": "G3",
          "midi": 55,
          "time": 47.13536953125005,
          "velocity": 0.7874015748031497,
          "duration": 0.6666659999999993
        },
        {
          "name": "A2",
          "midi": 45,
          "time": 47.80203553125005,
          "velocity": 0.7874015748031497,
          "duration": 0.3333330000000032
        },
        {
          "name": "E3",
          "midi": 52,
          "time": 47.80203553125005,
          "velocity": 0.7874015748031497,
          "duration": 0.3333330000000032
        },
        {
          "name": "D3",
          "midi": 50,
          "time": 48.13536853125005,
          "velocity": 0.7874015748031497,
          "duration": 0.3333330000000032
        },
        {
          "name": "A3",
          "midi": 57,
          "time": 48.13536853125005,
          "velocity": 0.7874015748031497,
          "duration": 0.3333330000000032
        },
        {
          "name": "E3",
          "midi": 52,
          "time": 48.468701531250055,
          "velocity": 0.7874015748031497,
          "duration": 0.24999975000000063
        },
        {
          "name": "B3",
          "midi": 59,
          "time": 48.468701531250055,
          "velocity": 0.7874015748031497,
          "duration": 0.16666649999999805
        },
        {
          "name": "E3",
          "midi": 52,
          "time": 49.46870053125006,
          "velocity": 0.7874015748031497,
          "duration": 0.16666649999999805
        },
        {
          "name": "C3",
          "midi": 48,
          "time": 49.80203353125005,
          "velocity": 0.7874015748031497,
          "duration": 0.24999975000000063
        },
        {
          "name": "G3",
          "midi": 55,
          "time": 49.80203353125005,
          "velocity": 0.7874015748031497,
          "duration": 0.16666649999999805
        },
        {
          "name": "C3",
          "midi": 48,
          "time": 50.802032531250056,
          "velocity": 0.7874015748031497,
          "duration": 0.16666649999999805
        },
        {
          "name": "E3",
          "midi": 52,
          "time": 51.13536553125005,
          "velocity": 0.7874015748031497,
          "duration": 0.24999975000000063
        },
        {
          "name": "B3",
          "midi": 59,
          "time": 51.13536553125005,
          "velocity": 0.7874015748031497,
          "duration": 0.16666649999999805
        },
        {
          "name": "E3",
          "midi": 52,
          "time": 52.135364531250055,
          "velocity": 0.7874015748031497,
          "duration": 0.16666649999999805
        },
        {
          "name": "C3",
          "midi": 48,
          "time": 52.46869753125005,
          "velocity": 0.7874015748031497,
          "duration": 0.6666659999999993
        },
        {
          "name": "G3",
          "midi": 55,
          "time": 52.46869753125005,
          "velocity": 0.7874015748031497,
          "duration": 0.6666659999999993
        },
        {
          "name": "C3",
          "midi": 48,
          "time": 53.13536353125005,
          "velocity": 0.7874015748031497,
          "duration": 0.3333330000000032
        },
        {
          "name": "G3",
          "midi": 55,
          "time": 53.13536353125005,
          "velocity": 0.7874015748031497,
          "duration": 0.3333330000000032
        },
        {
          "name": "D3",
          "midi": 50,
          "time": 53.46869653125005,
          "velocity": 0.7874015748031497,
          "duration": 0.3333330000000032
        },
        {
          "name": "A3",
          "midi": 57,
          "time": 53.46869653125005,
          "velocity": 0.7874015748031497,
          "duration": 0.3333330000000032
        },
        {
          "name": "E3",
          "midi": 52,
          "time": 53.80202953125006,
          "velocity": 0.7874015748031497,
          "duration": 0.16666649999999805
        },
        {
          "name": "F#3",
          "midi": 54,
          "time": 54.468695531250056,
          "velocity": 0.7874015748031497,
          "duration": 0.16666649999999805
        },
        {
          "name": "D3",
          "midi": 50,
          "time": 54.96869503125006,
          "velocity": 0.7874015748031497,
          "duration": 0.16666649999999805
        },
        {
          "name": "E3",
          "midi": 52,
          "time": 55.135361531250055,
          "velocity": 0.7874015748031497,
          "duration": 0.16666649999999805
        },
        {
          "name": "F#3",
          "midi": 54,
          "time": 55.802027531250054,
          "velocity": 0.7874015748031497,
          "duration": 0.16666649999999805
        },
        {
          "name": "E3",
          "midi": 52,
          "time": 56.13536053125005,
          "velocity": 0.7874015748031497,
          "duration": 0.3333330000000032
        },
        {
          "name": "A3",
          "midi": 57,
          "time": 56.468693531250054,
          "velocity": 0.7874015748031497,
          "duration": 0.16666649999999805
        },
        {
          "name": "B3",
          "midi": 59,
          "time": 57.13535953125005,
          "velocity": 0.7874015748031497,
          "duration": 0.16666649999999805
        },
        {
          "name": "G3",
          "midi": 55,
          "time": 57.635359031250054,
          "velocity": 0.7874015748031497,
          "duration": 0.16666649999999805
        },
        {
          "name": "A3",
          "midi": 57,
          "time": 57.80202553125005,
          "velocity": 0.7874015748031497,
          "duration": 0.16666649999999805
        },
        {
          "name": "B3",
          "midi": 59,
          "time": 58.46869153125005,
          "velocity": 0.7874015748031497,
          "duration": 0.16666649999999805
        },
        {
          "name": "A3",
          "midi": 57,
          "time": 58.80202453125005,
          "velocity": 0.7874015748031497,
          "duration": 0.3333330000000032
        },
        {
          "name": "F3",
          "midi": 53,
          "time": 59.13535753125005,
          "velocity": 0.7874015748031497,
          "duration": 0.16666649999999805
        },
        {
          "name": "G3",
          "midi": 55,
          "time": 59.80202353125005,
          "velocity": 0.7874015748031497,
          "duration": 0.16666649999999805
        },
        {
          "name": "E3",
          "midi": 52,
          "time": 60.30202303125005,
          "velocity": 0.7874015748031497,
          "duration": 0.16666649999999805
        },
        {
          "name": "F3",
          "midi": 53,
          "time": 60.46868953125005,
          "velocity": 0.7874015748031497,
          "duration": 0.16666649999999805
        },
        {
          "name": "G3",
          "midi": 55,
          "time": 61.13535553125005,
          "velocity": 0.7874015748031497,
          "duration": 0.16666649999999805
        },
        {
          "name": "F3",
          "midi": 53,
          "time": 61.468688531250045,
          "velocity": 0.7874015748031497,
          "duration": 0.3333330000000032
        },
        {
          "name": "A3",
          "midi": 57,
          "time": 61.80202153125005,
          "velocity": 0.7874015748031497,
          "duration": 0.49999950000000126
        },
        {
          "name": "A3",
          "midi": 57,
          "time": 62.30202103125005,
          "velocity": 0.7874015748031497,
          "duration": 0.49999950000000126
        },
        {
          "name": "E3",
          "midi": 52,
          "time": 62.80202053125005,
          "velocity": 0.7874015748031497,
          "duration": 0.3333330000000032
        },
        {
          "name": "G3",
          "midi": 55,
          "time": 63.135353531250054,
          "velocity": 0.7874015748031497,
          "duration": 1.3333320000000057
        },
        {
          "name": "E3",
          "midi": 52,
          "time": 64.46868553125006,
          "velocity": 0.7874015748031497,
          "duration": 1.3333319999999986
        },
        {
          "name": "B3",
          "midi": 59,
          "time": 64.46868553125006,
          "velocity": 0.7874015748031497,
          "duration": 1.3333319999999986
        },
        {
          "name": "C3",
          "midi": 48,
          "time": 65.80201753125006,
          "velocity": 0.7874015748031497,
          "duration": 1.3333319999999986
        },
        {
          "name": "G3",
          "midi": 55,
          "time": 65.80201753125006,
          "velocity": 0.7874015748031497,
          "duration": 1.3333319999999986
        },
        {
          "name": "G2",
          "midi": 43,
          "time": 67.13534953125006,
          "velocity": 0.7874015748031497,
          "duration": 0.49999950000000126
        },
        {
          "name": "D3",
          "midi": 50,
          "time": 67.13534953125006,
          "velocity": 0.7874015748031497,
          "duration": 0.49999950000000126
        },
        {
          "name": "G2",
          "midi": 43,
          "time": 67.63534903125006,
          "velocity": 0.7874015748031497,
          "duration": 0.49999950000000126
        },
        {
          "name": "D3",
          "midi": 50,
          "time": 67.63534903125006,
          "velocity": 0.7874015748031497,
          "duration": 0.49999950000000126
        },
        {
          "name": "G2",
          "midi": 43,
          "time": 68.13534853125006,
          "velocity": 0.7874015748031497,
          "duration": 0.3333329999999961
        },
        {
          "name": "D3",
          "midi": 50,
          "time": 68.13534853125006,
          "velocity": 0.7874015748031497,
          "duration": 0.3333329999999961
        },
        {
          "name": "D3",
          "midi": 50,
          "time": 68.46868153125006,
          "velocity": 0.7874015748031497,
          "duration": 0.49999950000000126
        },
        {
          "name": "A3",
          "midi": 57,
          "time": 68.46868153125006,
          "velocity": 0.7874015748031497,
          "duration": 0.49999950000000126
        },
        {
          "name": "D3",
          "midi": 50,
          "time": 68.96868103125006,
          "velocity": 0.7874015748031497,
          "duration": 0.49999950000000126
        },
        {
          "name": "A3",
          "midi": 57,
          "time": 68.96868103125006,
          "velocity": 0.7874015748031497,
          "duration": 0.49999950000000126
        },
        {
          "name": "D3",
          "midi": 50,
          "time": 69.46868053125006,
          "velocity": 0.7874015748031497,
          "duration": 0.3333329999999961
        },
        {
          "name": "A3",
          "midi": 57,
          "time": 69.46868053125006,
          "velocity": 0.7874015748031497,
          "duration": 0.3333329999999961
        },
        {
          "name": "E3",
          "midi": 52,
          "time": 69.80201353125005,
          "velocity": 0.7874015748031497,
          "duration": 1.3333319999999986
        },
        {
          "name": "B3",
          "midi": 59,
          "time": 69.80201353125005,
          "velocity": 0.7874015748031497,
          "duration": 1.3333319999999986
        },
        {
          "name": "C3",
          "midi": 48,
          "time": 71.13534553125005,
          "velocity": 0.7874015748031497,
          "duration": 1.3333319999999986
        },
        {
          "name": "G3",
          "midi": 55,
          "time": 71.13534553125005,
          "velocity": 0.7874015748031497,
          "duration": 1.3333319999999986
        },
        {
          "name": "G2",
          "midi": 43,
          "time": 72.46867753125005,
          "velocity": 0.7874015748031497,
          "duration": 0.49999950000000126
        },
        {
          "name": "D3",
          "midi": 50,
          "time": 72.46867753125005,
          "velocity": 0.7874015748031497,
          "duration": 0.49999950000000126
        },
        {
          "name": "G2",
          "midi": 43,
          "time": 72.96867703125005,
          "velocity": 0.7874015748031497,
          "duration": 0.49999950000000126
        },
        {
          "name": "D3",
          "midi": 50,
          "time": 72.96867703125005,
          "velocity": 0.7874015748031497,
          "duration": 0.49999950000000126
        },
        {
          "name": "G2",
          "midi": 43,
          "time": 73.46867653125005,
          "velocity": 0.7874015748031497,
          "duration": 0.3333329999999961
        },
        {
          "name": "D3",
          "midi": 50,
          "time": 73.46867653125005,
          "velocity": 0.7874015748031497,
          "duration": 0.3333329999999961
        },
        {
          "name": "D3",
          "midi": 50,
          "time": 73.80200953125005,
          "velocity": 0.7874015748031497,
          "duration": 0.16666650000000516
        },
        {
          "name": "A3",
          "midi": 57,
          "time": 73.80200953125005,
          "velocity": 0.7874015748031497,
          "duration": 0.16666650000000516
        },
        {
          "name": "D3",
          "midi": 50,
          "time": 74.30200903125005,
          "velocity": 0.7874015748031497,
          "duration": 0.16666650000000516
        },
        {
          "name": "A3",
          "midi": 57,
          "time": 74.30200903125005,
          "velocity": 0.7874015748031497,
          "duration": 0.16666650000000516
        },
        {
          "name": "D3",
          "midi": 50,
          "time": 74.80200853125005,
          "velocity": 0.7874015748031497,
          "duration": 0.3333329999999961
        },
        {
          "name": "A3",
          "midi": 57,
          "time": 74.80200853125005,
          "velocity": 0.7874015748031497,
          "duration": 0.3333329999999961
        },
        {
          "name": "E3",
          "midi": 52,
          "time": 75.13534153125005,
          "velocity": 0.7874015748031497,
          "duration": 1.3333319999999986
        },
        {
          "name": "B3",
          "midi": 59,
          "time": 75.13534153125005,
          "velocity": 0.7874015748031497,
          "duration": 1.3333319999999986
        },
        {
          "name": "C3",
          "midi": 48,
          "time": 76.46867353125005,
          "velocity": 0.7874015748031497,
          "duration": 1.3333319999999986
        },
        {
          "name": "G3",
          "midi": 55,
          "time": 76.46867353125005,
          "velocity": 0.7874015748031497,
          "duration": 1.3333319999999986
        },
        {
          "name": "G2",
          "midi": 43,
          "time": 77.80200553125005,
          "velocity": 0.7874015748031497,
          "duration": 0.49999950000000126
        },
        {
          "name": "D3",
          "midi": 50,
          "time": 77.80200553125005,
          "velocity": 0.7874015748031497,
          "duration": 0.49999950000000126
        },
        {
          "name": "G2",
          "midi": 43,
          "time": 78.30200503125005,
          "velocity": 0.7874015748031497,
          "duration": 0.49999950000000126
        },
        {
          "name": "D3",
          "midi": 50,
          "time": 78.30200503125005,
          "velocity": 0.7874015748031497,
          "duration": 0.49999950000000126
        },
        {
          "name": "G2",
          "midi": 43,
          "time": 78.80200453125005,
          "velocity": 0.7874015748031497,
          "duration": 0.3333329999999961
        },
        {
          "name": "D3",
          "midi": 50,
          "time": 78.80200453125005,
          "velocity": 0.7874015748031497,
          "duration": 0.3333329999999961
        },
        {
          "name": "D3",
          "midi": 50,
          "time": 79.13533753125004,
          "velocity": 0.7874015748031497,
          "duration": 0.49999950000000126
        },
        {
          "name": "A3",
          "midi": 57,
          "time": 79.13533753125004,
          "velocity": 0.7874015748031497,
          "duration": 0.49999950000000126
        },
        {
          "name": "D3",
          "midi": 50,
          "time": 79.63533703125005,
          "velocity": 0.7874015748031497,
          "duration": 0.49999950000000126
        },
        {
          "name": "A3",
          "midi": 57,
          "time": 79.63533703125005,
          "velocity": 0.7874015748031497,
          "duration": 0.49999950000000126
        },
        {
          "name": "D3",
          "midi": 50,
          "time": 80.13533653125005,
          "velocity": 0.7874015748031497,
          "duration": 0.3333329999999961
        },
        {
          "name": "A3",
          "midi": 57,
          "time": 80.13533653125005,
          "velocity": 0.7874015748031497,
          "duration": 0.3333329999999961
        },
        {
          "name": "C3",
          "midi": 48,
          "time": 80.46866953125004,
          "velocity": 0.7874015748031497,
          "duration": 1.3333319999999986
        },
        {
          "name": "G3",
          "midi": 55,
          "time": 80.46866953125004,
          "velocity": 0.7874015748031497,
          "duration": 1.3333319999999986
        },
        {
          "name": "C3",
          "midi": 48,
          "time": 81.80200153125004,
          "velocity": 0.7874015748031497,
          "duration": 1.3333319999999986
        },
        {
          "name": "G3",
          "midi": 55,
          "time": 81.80200153125004,
          "velocity": 0.7874015748031497,
          "duration": 1.3333319999999986
        },
        {
          "name": "D3",
          "midi": 50,
          "time": 83.13533353125004,
          "velocity": 0.7874015748031497,
          "duration": 1.999998000000005
        },
        {
          "name": "A3",
          "midi": 57,
          "time": 83.13533353125004,
          "velocity": 0.7874015748031497,
          "duration": 1.999998000000005
        },
        {
          "name": "B2",
          "midi": 47,
          "time": 85.13533153125005,
          "velocity": 0.7874015748031497,
          "duration": 0.6666660000000064
        },
        {
          "name": "F#3",
          "midi": 54,
          "time": 85.13533153125005,
          "velocity": 0.7874015748031497,
          "duration": 0.6666660000000064
        },
        {
          "name": "E4",
          "midi": 64,
          "time": 85.80199753125005,
          "velocity": 0.7874015748031497,
          "duration": 0.3333329999999961
        },
        {
          "name": "D4",
          "midi": 62,
          "time": 86.13533053125005,
          "velocity": 0.7874015748031497,
          "duration": 0.16666650000000516
        },
        {
          "name": "E4",
          "midi": 64,
          "time": 86.30199703125005,
          "velocity": 0.7874015748031497,
          "duration": 0.49999950000000126
        },
        {
          "name": "F#4",
          "midi": 66,
          "time": 86.80199653125005,
          "velocity": 0.7874015748031497,
          "duration": 0.3333329999999961
        },
        {
          "name": "G4",
          "midi": 67,
          "time": 87.13532953125005,
          "velocity": 0.7874015748031497,
          "duration": 0.3333329999999961
        },
        {
          "name": "F#4",
          "midi": 66,
          "time": 87.46866253125005,
          "velocity": 0.7874015748031497,
          "duration": 0.3333329999999961
        },
        {
          "name": "E4",
          "midi": 64,
          "time": 87.80199553125004,
          "velocity": 0.7874015748031497,
          "duration": 0.3333329999999961
        },
        {
          "name": "D4",
          "midi": 62,
          "time": 88.13532853125004,
          "velocity": 0.7874015748031497,
          "duration": 0.3333329999999961
        },
        {
          "name": "E4",
          "midi": 64,
          "time": 88.46866153125004,
          "velocity": 0.7874015748031497,
          "duration": 0.3333329999999961
        },
        {
          "name": "D4",
          "midi": 62,
          "time": 88.80199453125003,
          "velocity": 0.7874015748031497,
          "duration": 0.16666650000000516
        },
        {
          "name": "E4",
          "midi": 64,
          "time": 88.96866103125004,
          "velocity": 0.7874015748031497,
          "duration": 0.49999950000000126
        },
        {
          "name": "F#4",
          "midi": 66,
          "time": 89.46866053125004,
          "velocity": 0.7874015748031497,
          "duration": 0.3333329999999961
        },
        {
          "name": "G4",
          "midi": 67,
          "time": 89.80199353125003,
          "velocity": 0.7874015748031497,
          "duration": 0.3333329999999961
        },
        {
          "name": "F#4",
          "midi": 66,
          "time": 90.13532653125003,
          "velocity": 0.7874015748031497,
          "duration": 0.3333329999999961
        },
        {
          "name": "E4",
          "midi": 64,
          "time": 90.46865953125003,
          "velocity": 0.7874015748031497,
          "duration": 0.3333329999999961
        },
        {
          "name": "D4",
          "midi": 62,
          "time": 90.80199253125002,
          "velocity": 0.7874015748031497,
          "duration": 0.3333329999999961
        },
        {
          "name": "E4",
          "midi": 64,
          "time": 91.13532553125002,
          "velocity": 0.7874015748031497,
          "duration": 0.3333329999999961
        },
        {
          "name": "D4",
          "midi": 62,
          "time": 91.46865853125001,
          "velocity": 0.7874015748031497,
          "duration": 0.16666650000000516
        },
        {
          "name": "E4",
          "midi": 64,
          "time": 91.63532503125002,
          "velocity": 0.7874015748031497,
          "duration": 0.49999950000000126
        },
        {
          "name": "F#4",
          "midi": 66,
          "time": 92.13532453125002,
          "velocity": 0.7874015748031497,
          "duration": 0.3333329999999961
        },
        {
          "name": "G4",
          "midi": 67,
          "time": 92.46865753125002,
          "velocity": 0.7874015748031497,
          "duration": 0.3333329999999961
        },
        {
          "name": "F#4",
          "midi": 66,
          "time": 92.80199053125001,
          "velocity": 0.7874015748031497,
          "duration": 0.3333329999999961
        },
        {
          "name": "E4",
          "midi": 64,
          "time": 93.13532353125001,
          "velocity": 0.7874015748031497,
          "duration": 0.3333329999999961
        },
        {
          "name": "D4",
          "midi": 62,
          "time": 93.46865653125,
          "velocity": 0.7874015748031497,
          "duration": 0.3333329999999961
        },
        {
          "name": "E4",
          "midi": 64,
          "time": 93.80198953125,
          "velocity": 0.7874015748031497,
          "duration": 0.49999950000000126
        },
        {
          "name": "B3",
          "midi": 59,
          "time": 94.30198903125,
          "velocity": 0.7874015748031497,
          "duration": 2.166664499999996
        },
        {
          "name": "E4",
          "midi": 64,
          "time": 96.46865353125,
          "velocity": 0.7874015748031497,
          "duration": 0.3333329999999961
        },
        {
          "name": "D4",
          "midi": 62,
          "time": 96.80198653125,
          "velocity": 0.7874015748031497,
          "duration": 0.16666650000000516
        },
        {
          "name": "E4",
          "midi": 64,
          "time": 96.96865303125,
          "velocity": 0.7874015748031497,
          "duration": 0.49999950000000126
        },
        {
          "name": "F#4",
          "midi": 66,
          "time": 97.46865253125,
          "velocity": 0.7874015748031497,
          "duration": 0.3333329999999961
        },
        {
          "name": "G4",
          "midi": 67,
          "time": 97.80198553125,
          "velocity": 0.7874015748031497,
          "duration": 0.3333329999999961
        },
        {
          "name": "F#4",
          "midi": 66,
          "time": 98.13531853125,
          "velocity": 0.7874015748031497,
          "duration": 0.3333329999999961
        },
        {
          "name": "E4",
          "midi": 64,
          "time": 98.46865153124999,
          "velocity": 0.7874015748031497,
          "duration": 0.3333329999999961
        },
        {
          "name": "D4",
          "midi": 62,
          "time": 98.80198453124999,
          "velocity": 0.7874015748031497,
          "duration": 0.3333329999999961
        },
        {
          "name": "E4",
          "midi": 64,
          "time": 99.13531753124998,
          "velocity": 0.7874015748031497,
          "duration": 0.3333329999999961
        },
        {
          "name": "D4",
          "midi": 62,
          "time": 99.46865053124998,
          "velocity": 0.7874015748031497,
          "duration": 0.16666650000000516
        },
        {
          "name": "E4",
          "midi": 64,
          "time": 99.63531703124998,
          "velocity": 0.7874015748031497,
          "duration": 0.49999950000000126
        },
        {
          "name": "F#4",
          "midi": 66,
          "time": 100.13531653124998,
          "velocity": 0.7874015748031497,
          "duration": 0.3333329999999961
        },
        {
          "name": "G4",
          "midi": 67,
          "time": 100.46864953124998,
          "velocity": 0.7874015748031497,
          "duration": 0.3333329999999961
        },
        {
          "name": "F#4",
          "midi": 66,
          "time": 100.80198253124998,
          "velocity": 0.7874015748031497,
          "duration": 0.3333329999999961
        },
        {
          "name": "E4",
          "midi": 64,
          "time": 101.13531553124997,
          "velocity": 0.7874015748031497,
          "duration": 0.3333329999999961
        },
        {
          "name": "D4",
          "midi": 62,
          "time": 101.46864853124997,
          "velocity": 0.7874015748031497,
          "duration": 0.3333329999999961
        },
        {
          "name": "E4",
          "midi": 64,
          "time": 101.80198153124996,
          "velocity": 0.7874015748031497,
          "duration": 0.3333329999999961
        },
        {
          "name": "D4",
          "midi": 62,
          "time": 102.13531453124996,
          "velocity": 0.7874015748031497,
          "duration": 0.16666650000000516
        },
        {
          "name": "E4",
          "midi": 64,
          "time": 102.30198103124997,
          "velocity": 0.7874015748031497,
          "duration": 0.49999950000000126
        },
        {
          "name": "F#4",
          "midi": 66,
          "time": 102.80198053124997,
          "velocity": 0.7874015748031497,
          "duration": 0.3333329999999961
        },
        {
          "name": "G4",
          "midi": 67,
          "time": 103.13531353124996,
          "velocity": 0.7874015748031497,
          "duration": 0.3333329999999961
        },
        {
          "name": "F#4",
          "midi": 66,
          "time": 103.46864653124996,
          "velocity": 0.7874015748031497,
          "duration": 0.3333329999999961
        },
        {
          "name": "E4",
          "midi": 64,
          "time": 103.80197953124996,
          "velocity": 0.7874015748031497,
          "duration": 0.3333329999999961
        },
        {
          "name": "D4",
          "midi": 62,
          "time": 104.13531253124995,
          "velocity": 0.7874015748031497,
          "duration": 0.3333329999999961
        },
        {
          "name": "G4",
          "midi": 67,
          "time": 104.46864553124995,
          "velocity": 0.7874015748031497,
          "duration": 0.16666650000000516
        },
        {
          "name": "G4",
          "midi": 67,
          "time": 104.80197853124996,
          "velocity": 0.7874015748031497,
          "duration": 0.16666650000000516
        },
        {
          "name": "B4",
          "midi": 71,
          "time": 105.13531153124997,
          "velocity": 0.7874015748031497,
          "duration": 0.16666650000000516
        },
        {
          "name": "G4",
          "midi": 67,
          "time": 105.46864453124998,
          "velocity": 0.7874015748031497,
          "duration": 0.16666650000000516
        },
        {
          "name": "B4",
          "midi": 71,
          "time": 105.80197753124999,
          "velocity": 0.7874015748031497,
          "duration": 0.16666650000000516
        },
        {
          "name": "B4",
          "midi": 71,
          "time": 106.13531053125,
          "velocity": 0.7874015748031497,
          "duration": 0.16666650000000516
        },
        {
          "name": "D5",
          "midi": 74,
          "time": 106.46864353125001,
          "velocity": 0.7874015748031497,
          "duration": 0.16666650000000516
        },
        {
          "name": "B4",
          "midi": 71,
          "time": 106.80197653125002,
          "velocity": 0.7874015748031497,
          "duration": 0.16666650000000516
        },
        {
          "name": "E3",
          "midi": 52,
          "time": 107.13530953125003,
          "velocity": 0.7874015748031497,
          "duration": 0.24999975000000063
        },
        {
          "name": "B3",
          "midi": 59,
          "time": 107.13530953125003,
          "velocity": 0.7874015748031497,
          "duration": 0.16666650000000516
        },
        {
          "name": "E3",
          "midi": 52,
          "time": 108.13530853125003,
          "velocity": 0.7874015748031497,
          "duration": 0.16666650000000516
        },
        {
          "name": "C3",
          "midi": 48,
          "time": 108.46864153125004,
          "velocity": 0.7874015748031497,
          "duration": 0.24999975000000063
        },
        {
          "name": "G3",
          "midi": 55,
          "time": 108.46864153125004,
          "velocity": 0.7874015748031497,
          "duration": 0.16666650000000516
        },
        {
          "name": "C3",
          "midi": 48,
          "time": 109.46864053125005,
          "velocity": 0.7874015748031497,
          "duration": 0.16666650000000516
        },
        {
          "name": "E3",
          "midi": 52,
          "time": 109.80197353125006,
          "velocity": 0.7874015748031497,
          "duration": 0.24999975000000063
        },
        {
          "name": "B3",
          "midi": 59,
          "time": 109.80197353125006,
          "velocity": 0.7874015748031497,
          "duration": 0.16666650000000516
        },
        {
          "name": "E3",
          "midi": 52,
          "time": 110.80197253125006,
          "velocity": 0.7874015748031497,
          "duration": 0.16666650000000516
        },
        {
          "name": "C3",
          "midi": 48,
          "time": 111.13530553125007,
          "velocity": 0.7874015748031497,
          "duration": 0.6666660000000064
        },
        {
          "name": "G3",
          "midi": 55,
          "time": 111.13530553125007,
          "velocity": 0.7874015748031497,
          "duration": 0.6666660000000064
        },
        {
          "name": "A2",
          "midi": 45,
          "time": 111.80197153125008,
          "velocity": 0.7874015748031497,
          "duration": 0.3333329999999961
        },
        {
          "name": "E3",
          "midi": 52,
          "time": 111.80197153125008,
          "velocity": 0.7874015748031497,
          "duration": 0.3333329999999961
        },
        {
          "name": "D3",
          "midi": 50,
          "time": 112.13530453125007,
          "velocity": 0.7874015748031497,
          "duration": 0.3333329999999961
        },
        {
          "name": "A3",
          "midi": 57,
          "time": 112.13530453125007,
          "velocity": 0.7874015748031497,
          "duration": 0.3333329999999961
        },
        {
          "name": "E3",
          "midi": 52,
          "time": 112.46863753125007,
          "velocity": 0.7874015748031497,
          "duration": 0.24999975000000063
        },
        {
          "name": "B3",
          "midi": 59,
          "time": 112.46863753125007,
          "velocity": 0.7874015748031497,
          "duration": 0.16666650000000516
        },
        {
          "name": "E3",
          "midi": 52,
          "time": 113.46863653125007,
          "velocity": 0.7874015748031497,
          "duration": 0.16666650000000516
        },
        {
          "name": "C3",
          "midi": 48,
          "time": 113.80196953125008,
          "velocity": 0.7874015748031497,
          "duration": 0.24999975000000063
        },
        {
          "name": "G3",
          "midi": 55,
          "time": 113.80196953125008,
          "velocity": 0.7874015748031497,
          "duration": 0.16666650000000516
        },
        {
          "name": "C3",
          "midi": 48,
          "time": 114.80196853125008,
          "velocity": 0.7874015748031497,
          "duration": 0.16666650000000516
        },
        {
          "name": "E3",
          "midi": 52,
          "time": 115.1353015312501,
          "velocity": 0.7874015748031497,
          "duration": 0.24999975000000063
        },
        {
          "name": "B3",
          "midi": 59,
          "time": 115.1353015312501,
          "velocity": 0.7874015748031497,
          "duration": 0.16666650000000516
        },
        {
          "name": "E3",
          "midi": 52,
          "time": 116.1353005312501,
          "velocity": 0.7874015748031497,
          "duration": 0.16666650000000516
        },
        {
          "name": "C3",
          "midi": 48,
          "time": 116.4686335312501,
          "velocity": 0.7874015748031497,
          "duration": 0.6666660000000064
        },
        {
          "name": "G3",
          "midi": 55,
          "time": 116.4686335312501,
          "velocity": 0.7874015748031497,
          "duration": 0.6666660000000064
        },
        {
          "name": "C3",
          "midi": 48,
          "time": 117.13529953125011,
          "velocity": 0.7874015748031497,
          "duration": 0.3333329999999961
        },
        {
          "name": "G3",
          "midi": 55,
          "time": 117.13529953125011,
          "velocity": 0.7874015748031497,
          "duration": 0.3333329999999961
        },
        {
          "name": "D3",
          "midi": 50,
          "time": 117.46863253125011,
          "velocity": 0.7874015748031497,
          "duration": 0.3333329999999961
        },
        {
          "name": "A3",
          "midi": 57,
          "time": 117.46863253125011,
          "velocity": 0.7874015748031497,
          "duration": 0.3333329999999961
        },
        {
          "name": "E3",
          "midi": 52,
          "time": 117.8019655312501,
          "velocity": 0.7874015748031497,
          "duration": 0.24999975000000063
        },
        {
          "name": "B3",
          "midi": 59,
          "time": 117.8019655312501,
          "velocity": 0.7874015748031497,
          "duration": 0.16666650000000516
        },
        {
          "name": "E3",
          "midi": 52,
          "time": 118.8019645312501,
          "velocity": 0.7874015748031497,
          "duration": 0.16666650000000516
        },
        {
          "name": "C3",
          "midi": 48,
          "time": 119.13529753125012,
          "velocity": 0.7874015748031497,
          "duration": 0.24999975000000063
        },
        {
          "name": "G3",
          "midi": 55,
          "time": 119.13529753125012,
          "velocity": 0.7874015748031497,
          "duration": 0.16666650000000516
        },
        {
          "name": "C3",
          "midi": 48,
          "time": 120.13529653125012,
          "velocity": 0.7874015748031497,
          "duration": 0.16666650000000516
        },
        {
          "name": "E3",
          "midi": 52,
          "time": 120.46862953125013,
          "velocity": 0.7874015748031497,
          "duration": 0.24999975000000063
        },
        {
          "name": "B3",
          "midi": 59,
          "time": 120.46862953125013,
          "velocity": 0.7874015748031497,
          "duration": 0.16666650000000516
        },
        {
          "name": "E3",
          "midi": 52,
          "time": 121.46862853125013,
          "velocity": 0.7874015748031497,
          "duration": 0.16666650000000516
        },
        {
          "name": "C3",
          "midi": 48,
          "time": 121.80196153125014,
          "velocity": 0.7874015748031497,
          "duration": 0.6666660000000064
        },
        {
          "name": "G3",
          "midi": 55,
          "time": 121.80196153125014,
          "velocity": 0.7874015748031497,
          "duration": 0.6666660000000064
        },
        {
          "name": "A2",
          "midi": 45,
          "time": 122.46862753125015,
          "velocity": 0.7874015748031497,
          "duration": 0.3333329999999961
        },
        {
          "name": "E3",
          "midi": 52,
          "time": 122.46862753125015,
          "velocity": 0.7874015748031497,
          "duration": 0.3333329999999961
        },
        {
          "name": "D3",
          "midi": 50,
          "time": 122.80196053125015,
          "velocity": 0.7874015748031497,
          "duration": 0.3333329999999961
        },
        {
          "name": "A3",
          "midi": 57,
          "time": 122.80196053125015,
          "velocity": 0.7874015748031497,
          "duration": 0.3333329999999961
        },
        {
          "name": "E3",
          "midi": 52,
          "time": 123.13529353125014,
          "velocity": 0.7874015748031497,
          "duration": 0.24999975000000063
        },
        {
          "name": "B3",
          "midi": 59,
          "time": 123.13529353125014,
          "velocity": 0.7874015748031497,
          "duration": 0.16666650000000516
        },
        {
          "name": "E3",
          "midi": 52,
          "time": 124.13529253125014,
          "velocity": 0.7874015748031497,
          "duration": 0.16666650000000516
        },
        {
          "name": "C3",
          "midi": 48,
          "time": 124.46862553125015,
          "velocity": 0.7874015748031497,
          "duration": 0.24999975000000063
        },
        {
          "name": "G3",
          "midi": 55,
          "time": 124.46862553125015,
          "velocity": 0.7874015748031497,
          "duration": 0.16666650000000516
        },
        {
          "name": "C3",
          "midi": 48,
          "time": 125.46862453125016,
          "velocity": 0.7874015748031497,
          "duration": 0.16666650000000516
        },
        {
          "name": "E3",
          "midi": 52,
          "time": 125.80195753125017,
          "velocity": 0.7874015748031497,
          "duration": 0.24999975000000063
        },
        {
          "name": "B3",
          "midi": 59,
          "time": 125.80195753125017,
          "velocity": 0.7874015748031497,
          "duration": 0.16666650000000516
        },
        {
          "name": "E3",
          "midi": 52,
          "time": 126.80195653125017,
          "velocity": 0.7874015748031497,
          "duration": 0.16666650000000516
        },
        {
          "name": "C3",
          "midi": 48,
          "time": 127.13528953125018,
          "velocity": 0.7874015748031497,
          "duration": 0.6666660000000064
        },
        {
          "name": "G3",
          "midi": 55,
          "time": 127.13528953125018,
          "velocity": 0.7874015748031497,
          "duration": 0.6666660000000064
        },
        {
          "name": "C3",
          "midi": 48,
          "time": 127.80195553125019,
          "velocity": 0.7874015748031497,
          "duration": 0.3333329999999961
        },
        {
          "name": "G3",
          "midi": 55,
          "time": 127.80195553125019,
          "velocity": 0.7874015748031497,
          "duration": 0.3333329999999961
        },
        {
          "name": "D3",
          "midi": 50,
          "time": 128.13528853125018,
          "velocity": 0.7874015748031497,
          "duration": 0.3333330000000103
        },
        {
          "name": "A3",
          "midi": 57,
          "time": 128.13528853125018,
          "velocity": 0.7874015748031497,
          "duration": 0.3333330000000103
        },
        {
          "name": "E3",
          "midi": 52,
          "time": 128.4686215312502,
          "velocity": 0.7874015748031497,
          "duration": 0.16666649999999095
        },
        {
          "name": "F#3",
          "midi": 54,
          "time": 129.13528753125019,
          "velocity": 0.7874015748031497,
          "duration": 0.16666649999999095
        },
        {
          "name": "D3",
          "midi": 50,
          "time": 129.6352870312502,
          "velocity": 0.7874015748031497,
          "duration": 0.16666649999999095
        },
        {
          "name": "E3",
          "midi": 52,
          "time": 129.80195353125018,
          "velocity": 0.7874015748031497,
          "duration": 0.16666649999999095
        },
        {
          "name": "F#3",
          "midi": 54,
          "time": 130.46861953125017,
          "velocity": 0.7874015748031497,
          "duration": 0.16666649999999095
        },
        {
          "name": "E3",
          "midi": 52,
          "time": 130.80195253125015,
          "velocity": 0.7874015748031497,
          "duration": 0.3333330000000103
        },
        {
          "name": "A3",
          "midi": 57,
          "time": 131.13528553125016,
          "velocity": 0.7874015748031497,
          "duration": 0.16666649999999095
        },
        {
          "name": "B3",
          "midi": 59,
          "time": 131.80195153125015,
          "velocity": 0.7874015748031497,
          "duration": 0.16666649999999095
        },
        {
          "name": "G3",
          "midi": 55,
          "time": 132.30195103125016,
          "velocity": 0.7874015748031497,
          "duration": 0.16666649999999095
        },
        {
          "name": "A3",
          "midi": 57,
          "time": 132.46861753125015,
          "velocity": 0.7874015748031497,
          "duration": 0.16666649999999095
        },
        {
          "name": "B3",
          "midi": 59,
          "time": 133.13528353125014,
          "velocity": 0.7874015748031497,
          "duration": 0.16666649999999095
        },
        {
          "name": "A3",
          "midi": 57,
          "time": 133.46861653125012,
          "velocity": 0.7874015748031497,
          "duration": 0.3333330000000103
        },
        {
          "name": "F3",
          "midi": 53,
          "time": 133.80194953125013,
          "velocity": 0.7874015748031497,
          "duration": 0.16666649999999095
        },
        {
          "name": "G3",
          "midi": 55,
          "time": 134.46861553125012,
          "velocity": 0.7874015748031497,
          "duration": 0.16666649999999095
        },
        {
          "name": "E3",
          "midi": 52,
          "time": 134.96861503125012,
          "velocity": 0.7874015748031497,
          "duration": 0.16666649999999095
        },
        {
          "name": "F3",
          "midi": 53,
          "time": 135.13528153125011,
          "velocity": 0.7874015748031497,
          "duration": 0.16666649999999095
        },
        {
          "name": "G3",
          "midi": 55,
          "time": 135.8019475312501,
          "velocity": 0.7874015748031497,
          "duration": 0.16666649999999095
        },
        {
          "name": "F3",
          "midi": 53,
          "time": 136.1352805312501,
          "velocity": 0.7874015748031497,
          "duration": 0.3333330000000103
        },
        {
          "name": "A3",
          "midi": 57,
          "time": 136.4686135312501,
          "velocity": 0.7874015748031497,
          "duration": 0.49999950000000126
        },
        {
          "name": "A3",
          "midi": 57,
          "time": 136.9686130312501,
          "velocity": 0.7874015748031497,
          "duration": 0.49999950000000126
        },
        {
          "name": "E3",
          "midi": 52,
          "time": 137.4686125312501,
          "velocity": 0.7874015748031497,
          "duration": 0.3333330000000103
        },
        {
          "name": "G3",
          "midi": 55,
          "time": 137.8019455312501,
          "velocity": 0.7874015748031497,
          "duration": 1.3333320000000128
        },
        {
          "name": "E3",
          "midi": 52,
          "time": 139.13527753125013,
          "velocity": 0.7874015748031497,
          "duration": 1.3333320000000128
        },
        {
          "name": "B3",
          "midi": 59,
          "time": 139.13527753125013,
          "velocity": 0.7874015748031497,
          "duration": 1.3333320000000128
        },
        {
          "name": "C3",
          "midi": 48,
          "time": 140.46860953125014,
          "velocity": 0.7874015748031497,
          "duration": 1.3333320000000128
        },
        {
          "name": "G3",
          "midi": 55,
          "time": 140.46860953125014,
          "velocity": 0.7874015748031497,
          "duration": 1.3333320000000128
        },
        {
          "name": "G2",
          "midi": 43,
          "time": 141.80194153125015,
          "velocity": 0.7874015748031497,
          "duration": 0.49999950000000126
        },
        {
          "name": "D3",
          "midi": 50,
          "time": 141.80194153125015,
          "velocity": 0.7874015748031497,
          "duration": 0.49999950000000126
        },
        {
          "name": "G2",
          "midi": 43,
          "time": 142.30194103125015,
          "velocity": 0.7874015748031497,
          "duration": 0.49999950000000126
        },
        {
          "name": "D3",
          "midi": 50,
          "time": 142.30194103125015,
          "velocity": 0.7874015748031497,
          "duration": 0.49999950000000126
        },
        {
          "name": "G2",
          "midi": 43,
          "time": 142.80194053125015,
          "velocity": 0.7874015748031497,
          "duration": 0.3333330000000103
        },
        {
          "name": "D3",
          "midi": 50,
          "time": 142.80194053125015,
          "velocity": 0.7874015748031497,
          "duration": 0.3333330000000103
        },
        {
          "name": "D3",
          "midi": 50,
          "time": 143.13527353125016,
          "velocity": 0.7874015748031497,
          "duration": 0.49999950000000126
        },
        {
          "name": "A3",
          "midi": 57,
          "time": 143.13527353125016,
          "velocity": 0.7874015748031497,
          "duration": 0.49999950000000126
        },
        {
          "name": "D3",
          "midi": 50,
          "time": 143.63527303125016,
          "velocity": 0.7874015748031497,
          "duration": 0.49999950000000126
        },
        {
          "name": "A3",
          "midi": 57,
          "time": 143.63527303125016,
          "velocity": 0.7874015748031497,
          "duration": 0.49999950000000126
        },
        {
          "name": "D3",
          "midi": 50,
          "time": 144.13527253125017,
          "velocity": 0.7874015748031497,
          "duration": 0.3333330000000103
        },
        {
          "name": "A3",
          "midi": 57,
          "time": 144.13527253125017,
          "velocity": 0.7874015748031497,
          "duration": 0.3333330000000103
        },
        {
          "name": "E3",
          "midi": 52,
          "time": 144.46860553125018,
          "velocity": 0.7874015748031497,
          "duration": 1.3333320000000128
        },
        {
          "name": "B3",
          "midi": 59,
          "time": 144.46860553125018,
          "velocity": 0.7874015748031497,
          "duration": 1.3333320000000128
        },
        {
          "name": "C3",
          "midi": 48,
          "time": 145.8019375312502,
          "velocity": 0.7874015748031497,
          "duration": 1.3333320000000128
        },
        {
          "name": "G3",
          "midi": 55,
          "time": 145.8019375312502,
          "velocity": 0.7874015748031497,
          "duration": 1.3333320000000128
        },
        {
          "name": "G2",
          "midi": 43,
          "time": 147.1352695312502,
          "velocity": 0.7874015748031497,
          "duration": 1.3333320000000128
        },
        {
          "name": "D3",
          "midi": 50,
          "time": 147.1352695312502,
          "velocity": 0.7874015748031497,
          "duration": 1.3333320000000128
        },
        {
          "name": "D3",
          "midi": 50,
          "time": 148.46860153125021,
          "velocity": 0.7874015748031497,
          "duration": 1.3333320000000128
        },
        {
          "name": "A3",
          "midi": 57,
          "time": 148.46860153125021,
          "velocity": 0.7874015748031497,
          "duration": 1.3333320000000128
        },
        {
          "name": "E3",
          "midi": 52,
          "time": 149.80193353125023,
          "velocity": 0.7874015748031497,
          "duration": 1.3333320000000128
        },
        {
          "name": "B3",
          "midi": 59,
          "time": 149.80193353125023,
          "velocity": 0.7874015748031497,
          "duration": 1.3333320000000128
        },
        {
          "name": "C3",
          "midi": 48,
          "time": 151.13526553125024,
          "velocity": 0.7874015748031497,
          "duration": 1.3333320000000128
        },
        {
          "name": "G3",
          "midi": 55,
          "time": 151.13526553125024,
          "velocity": 0.7874015748031497,
          "duration": 1.3333320000000128
        },
        {
          "name": "G2",
          "midi": 43,
          "time": 152.46859753125025,
          "velocity": 0.7874015748031497,
          "duration": 0.49999950000000126
        },
        {
          "name": "D3",
          "midi": 50,
          "time": 152.46859753125025,
          "velocity": 0.7874015748031497,
          "duration": 0.49999950000000126
        },
        {
          "name": "G2",
          "midi": 43,
          "time": 152.96859703125025,
          "velocity": 0.7874015748031497,
          "duration": 0.49999950000000126
        },
        {
          "name": "D3",
          "midi": 50,
          "time": 152.96859703125025,
          "velocity": 0.7874015748031497,
          "duration": 0.49999950000000126
        },
        {
          "name": "G2",
          "midi": 43,
          "time": 153.46859653125026,
          "velocity": 0.7874015748031497,
          "duration": 0.3333330000000103
        },
        {
          "name": "D3",
          "midi": 50,
          "time": 153.46859653125026,
          "velocity": 0.7874015748031497,
          "duration": 0.3333330000000103
        },
        {
          "name": "D3",
          "midi": 50,
          "time": 153.80192953125027,
          "velocity": 0.7874015748031497,
          "duration": 0.49999950000000126
        },
        {
          "name": "A3",
          "midi": 57,
          "time": 153.80192953125027,
          "velocity": 0.7874015748031497,
          "duration": 0.49999950000000126
        },
        {
          "name": "D3",
          "midi": 50,
          "time": 154.30192903125027,
          "velocity": 0.7874015748031497,
          "duration": 0.49999950000000126
        },
        {
          "name": "A3",
          "midi": 57,
          "time": 154.30192903125027,
          "velocity": 0.7874015748031497,
          "duration": 0.49999950000000126
        },
        {
          "name": "D3",
          "midi": 50,
          "time": 154.80192853125027,
          "velocity": 0.7874015748031497,
          "duration": 0.3333330000000103
        },
        {
          "name": "A3",
          "midi": 57,
          "time": 154.80192853125027,
          "velocity": 0.7874015748031497,
          "duration": 0.3333330000000103
        },
        {
          "name": "C3",
          "midi": 48,
          "time": 155.13526153125028,
          "velocity": 0.7874015748031497,
          "duration": 1.3333320000000128
        },
        {
          "name": "G3",
          "midi": 55,
          "time": 155.13526153125028,
          "velocity": 0.7874015748031497,
          "duration": 1.3333320000000128
        },
        {
          "name": "C3",
          "midi": 48,
          "time": 156.4685935312503,
          "velocity": 0.7874015748031497,
          "duration": 1.3333320000000128
        },
        {
          "name": "G3",
          "midi": 55,
          "time": 156.4685935312503,
          "velocity": 0.7874015748031497,
          "duration": 1.3333320000000128
        },
        {
          "name": "D3",
          "midi": 50,
          "time": 157.8019255312503,
          "velocity": 0.7874015748031497,
          "duration": 1.999998000000005
        },
        {
          "name": "A3",
          "midi": 57,
          "time": 157.8019255312503,
          "velocity": 0.7874015748031497,
          "duration": 1.999998000000005
        },
        {
          "name": "B2",
          "midi": 47,
          "time": 159.8019235312503,
          "velocity": 0.7874015748031497,
          "duration": 0.6666659999999922
        },
        {
          "name": "F#3",
          "midi": 54,
          "time": 159.8019235312503,
          "velocity": 0.7874015748031497,
          "duration": 0.6666659999999922
        },
        {
          "name": "E4",
          "midi": 64,
          "time": 160.4685895312503,
          "velocity": 0.7874015748031497,
          "duration": 0.3333330000000103
        },
        {
          "name": "D4",
          "midi": 62,
          "time": 160.8019225312503,
          "velocity": 0.7874015748031497,
          "duration": 0.16666649999999095
        },
        {
          "name": "E4",
          "midi": 64,
          "time": 160.9685890312503,
          "velocity": 0.7874015748031497,
          "duration": 0.49999950000000126
        },
        {
          "name": "F#4",
          "midi": 66,
          "time": 161.4685885312503,
          "velocity": 0.7874015748031497,
          "duration": 0.3333330000000103
        },
        {
          "name": "G4",
          "midi": 67,
          "time": 161.80192153125031,
          "velocity": 0.7874015748031497,
          "duration": 0.3333330000000103
        },
        {
          "name": "F#4",
          "midi": 66,
          "time": 162.13525453125033,
          "velocity": 0.7874015748031497,
          "duration": 0.3333330000000103
        },
        {
          "name": "E4",
          "midi": 64,
          "time": 162.46858753125034,
          "velocity": 0.7874015748031497,
          "duration": 0.3333330000000103
        },
        {
          "name": "D4",
          "midi": 62,
          "time": 162.80192053125035,
          "velocity": 0.7874015748031497,
          "duration": 0.3333330000000103
        },
        {
          "name": "E4",
          "midi": 64,
          "time": 163.13525353125036,
          "velocity": 0.7874015748031497,
          "duration": 0.3333330000000103
        },
        {
          "name": "D4",
          "midi": 62,
          "time": 163.46858653125037,
          "velocity": 0.7874015748031497,
          "duration": 0.16666649999999095
        },
        {
          "name": "E4",
          "midi": 64,
          "time": 163.63525303125036,
          "velocity": 0.7874015748031497,
          "duration": 0.49999950000000126
        },
        {
          "name": "F#4",
          "midi": 66,
          "time": 164.13525253125036,
          "velocity": 0.7874015748031497,
          "duration": 0.3333330000000103
        },
        {
          "name": "G4",
          "midi": 67,
          "time": 164.46858553125037,
          "velocity": 0.7874015748031497,
          "duration": 0.3333330000000103
        },
        {
          "name": "F#4",
          "midi": 66,
          "time": 164.80191853125038,
          "velocity": 0.7874015748031497,
          "duration": 0.3333330000000103
        },
        {
          "name": "E4",
          "midi": 64,
          "time": 165.1352515312504,
          "velocity": 0.7874015748031497,
          "duration": 0.3333330000000103
        },
        {
          "name": "D4",
          "midi": 62,
          "time": 165.4685845312504,
          "velocity": 0.7874015748031497,
          "duration": 0.3333330000000103
        },
        {
          "name": "E4",
          "midi": 64,
          "time": 165.8019175312504,
          "velocity": 0.7874015748031497,
          "duration": 0.3333330000000103
        },
        {
          "name": "D4",
          "midi": 62,
          "time": 166.13525053125042,
          "velocity": 0.7874015748031497,
          "duration": 0.16666649999999095
        },
        {
          "name": "E4",
          "midi": 64,
          "time": 166.3019170312504,
          "velocity": 0.7874015748031497,
          "duration": 0.49999950000000126
        },
        {
          "name": "F#4",
          "midi": 66,
          "time": 166.8019165312504,
          "velocity": 0.7874015748031497,
          "duration": 0.3333330000000103
        },
        {
          "name": "G4",
          "midi": 67,
          "time": 167.13524953125042,
          "velocity": 0.7874015748031497,
          "duration": 0.3333330000000103
        },
        {
          "name": "F#4",
          "midi": 66,
          "time": 167.46858253125043,
          "velocity": 0.7874015748031497,
          "duration": 0.3333330000000103
        },
        {
          "name": "E4",
          "midi": 64,
          "time": 167.80191553125044,
          "velocity": 0.7874015748031497,
          "duration": 0.3333330000000103
        },
        {
          "name": "D4",
          "midi": 62,
          "time": 168.13524853125045,
          "velocity": 0.7874015748031497,
          "duration": 0.3333330000000103
        },
        {
          "name": "E4",
          "midi": 64,
          "time": 168.46858153125046,
          "velocity": 0.7874015748031497,
          "duration": 0.49999950000000126
        },
        {
          "name": "B3",
          "midi": 59,
          "time": 168.96858103125047,
          "velocity": 0.7874015748031497,
          "duration": 2.166664499999996
        },
        {
          "name": "E4",
          "midi": 64,
          "time": 171.13524553125046,
          "velocity": 0.7874015748031497,
          "duration": 0.3333330000000103
        },
        {
          "name": "D4",
          "midi": 62,
          "time": 171.46857853125047,
          "velocity": 0.7874015748031497,
          "duration": 0.16666649999999095
        },
        {
          "name": "E4",
          "midi": 64,
          "time": 171.63524503125046,
          "velocity": 0.7874015748031497,
          "duration": 0.49999950000000126
        },
        {
          "name": "F#4",
          "midi": 66,
          "time": 172.13524453125046,
          "velocity": 0.7874015748031497,
          "duration": 0.3333330000000103
        },
        {
          "name": "G4",
          "midi": 67,
          "time": 172.46857753125047,
          "velocity": 0.7874015748031497,
          "duration": 0.3333330000000103
        },
        {
          "name": "F#4",
          "midi": 66,
          "time": 172.80191053125048,
          "velocity": 0.7874015748031497,
          "duration": 0.3333330000000103
        },
        {
          "name": "E4",
          "midi": 64,
          "time": 173.1352435312505,
          "velocity": 0.7874015748031497,
          "duration": 0.3333330000000103
        },
        {
          "name": "D4",
          "midi": 62,
          "time": 173.4685765312505,
          "velocity": 0.7874015748031497,
          "duration": 0.3333330000000103
        },
        {
          "name": "B4",
          "midi": 71,
          "time": 173.80190953125052,
          "velocity": 0.7874015748031497,
          "duration": 0.3333330000000103
        },
        {
          "name": "A4",
          "midi": 69,
          "time": 174.13524253125053,
          "velocity": 0.7874015748031497,
          "duration": 0.16666649999999095
        },
        {
          "name": "B4",
          "midi": 71,
          "time": 174.30190903125052,
          "velocity": 0.7874015748031497,
          "duration": 0.49999950000000126
        },
        {
          "name": "C5",
          "midi": 72,
          "time": 174.80190853125052,
          "velocity": 0.7874015748031497,
          "duration": 0.3333330000000103
        },
        {
          "name": "D5",
          "midi": 74,
          "time": 175.13524153125053,
          "velocity": 0.7874015748031497,
          "duration": 0.3333330000000103
        },
        {
          "name": "C5",
          "midi": 72,
          "time": 175.46857453125054,
          "velocity": 0.7874015748031497,
          "duration": 0.3333330000000103
        },
        {
          "name": "B4",
          "midi": 71,
          "time": 175.80190753125055,
          "velocity": 0.7874015748031497,
          "duration": 0.3333330000000103
        },
        {
          "name": "A4",
          "midi": 69,
          "time": 176.13524053125056,
          "velocity": 0.7874015748031497,
          "duration": 0.3333330000000103
        },
        {
          "name": "E5",
          "midi": 76,
          "time": 176.46857353125057,
          "velocity": 0.7874015748031497,
          "duration": 0.3333330000000103
        },
        {
          "name": "D5",
          "midi": 74,
          "time": 176.80190653125058,
          "velocity": 0.7874015748031497,
          "duration": 0.16666649999999095
        },
        {
          "name": "E5",
          "midi": 76,
          "time": 176.96857303125057,
          "velocity": 0.7874015748031497,
          "duration": 0.49999950000000126
        },
        {
          "name": "F#5",
          "midi": 78,
          "time": 177.46857253125057,
          "velocity": 0.7874015748031497,
          "duration": 0.3333330000000103
        },
        {
          "name": "G5",
          "midi": 79,
          "time": 177.80190553125058,
          "velocity": 0.7874015748031497,
          "duration": 0.3333330000000103
        },
        {
          "name": "F#5",
          "midi": 78,
          "time": 178.1352385312506,
          "velocity": 0.7874015748031497,
          "duration": 0.3333330000000103
        },
        {
          "name": "E5",
          "midi": 76,
          "time": 178.4685715312506,
          "velocity": 0.7874015748031497,
          "duration": 0.3333330000000103
        },
        {
          "name": "F#5",
          "midi": 78,
          "time": 178.8019045312506,
          "velocity": 0.7874015748031497,
          "duration": 0.3333330000000103
        },
        {
          "name": "G5",
          "midi": 79,
          "time": 179.13523753125062,
          "velocity": 0.7874015748031497,
          "duration": 0.49999950000000126
        },
        {
          "name": "E5",
          "midi": 76,
          "time": 179.63523703125063,
          "velocity": 0.7874015748031497,
          "duration": 2.0833312499999863
        },
        {
          "name": "E5",
          "midi": 76,
          "time": 181.80190153125062,
          "velocity": 0.7874015748031497,
          "duration": 0.11111099999999396
        },
        {
          "name": "F5",
          "midi": 77,
          "time": 182.1352345312506,
          "velocity": 0.7874015748031497,
          "duration": 0.11111099999999396
        },
        {
          "name": "E5",
          "midi": 76,
          "time": 182.46856753125059,
          "velocity": 0.7874015748031497,
          "duration": 0.11111099999999396
        },
        {
          "name": "F5",
          "midi": 77,
          "time": 182.80190053125057,
          "velocity": 0.7874015748031497,
          "duration": 0.11111099999999396
        },
        {
          "name": "E5",
          "midi": 76,
          "time": 183.13523353125055,
          "velocity": 0.7874015748031497,
          "duration": 0.11111099999999396
        },
        {
          "name": "F5",
          "midi": 77,
          "time": 183.46856653125053,
          "velocity": 0.7874015748031497,
          "duration": 0.11111099999999396
        },
        {
          "name": "E5",
          "midi": 76,
          "time": 183.80120508750053,
          "velocity": 0.7874015748031497,
          "duration": 0.11111099999999396
        },
        {
          "name": "D5",
          "midi": 74,
          "time": 184.13523253125052,
          "velocity": 0.7874015748031497,
          "duration": 0.11111099999999396
        },
        {
          "name": "E5",
          "midi": 76,
          "time": 184.46787108750053,
          "velocity": 0.7874015748031497,
          "duration": 0.11111099999999396
        },
        {
          "name": "F5",
          "midi": 77,
          "time": 184.8012040875005,
          "velocity": 0.7874015748031497,
          "duration": 0.11111099999999396
        },
        {
          "name": "E5",
          "midi": 76,
          "time": 185.1345370875005,
          "velocity": 0.7874015748031497,
          "duration": 0.11111099999999396
        },
        {
          "name": "F5",
          "midi": 77,
          "time": 185.46787008750047,
          "velocity": 0.7874015748031497,
          "duration": 0.11111099999999396
        },
        {
          "name": "G5",
          "midi": 79,
          "time": 185.80189753125046,
          "velocity": 0.7874015748031497,
          "duration": 0.11111099999999396
        },
        {
          "name": "F5",
          "midi": 77,
          "time": 186.13453608750046,
          "velocity": 0.7874015748031497,
          "duration": 0.11111099999999396
        },
        {
          "name": "E5",
          "midi": 76,
          "time": 186.46717464375047,
          "velocity": 0.7874015748031497,
          "duration": 0.11111099999999396
        },
        {
          "name": "D5",
          "midi": 74,
          "time": 186.80120208750046,
          "velocity": 0.7874015748031497,
          "duration": 0.11111099999999396
        },
        {
          "name": "E5",
          "midi": 76,
          "time": 187.13522953125045,
          "velocity": 0.7874015748031497,
          "duration": 0.11111099999999396
        },
        {
          "name": "F5",
          "midi": 77,
          "time": 187.46856253125043,
          "velocity": 0.7874015748031497,
          "duration": 0.11111099999999396
        },
        {
          "name": "E5",
          "midi": 76,
          "time": 187.8018955312504,
          "velocity": 0.7874015748031497,
          "duration": 0.11111099999999396
        },
        {
          "name": "F5",
          "midi": 77,
          "time": 188.1352285312504,
          "velocity": 0.7874015748031497,
          "duration": 0.11111099999999396
        },
        {
          "name": "E5",
          "midi": 76,
          "time": 188.46856153125037,
          "velocity": 0.7874015748031497,
          "duration": 0.11111099999999396
        },
        {
          "name": "F5",
          "midi": 77,
          "time": 188.80189453125035,
          "velocity": 0.7874015748031497,
          "duration": 0.11111099999999396
        },
        {
          "name": "E5",
          "midi": 76,
          "time": 189.13453308750036,
          "velocity": 0.7874015748031497,
          "duration": 0.11111099999999396
        },
        {
          "name": "D5",
          "midi": 74,
          "time": 189.46856053125035,
          "velocity": 0.7874015748031497,
          "duration": 0.11111099999999396
        },
        {
          "name": "C5",
          "midi": 72,
          "time": 189.80189353125033,
          "velocity": 0.7874015748031497,
          "duration": 0.16666649999999095
        },
        {
          "name": "B4",
          "midi": 71,
          "time": 190.1352265312503,
          "velocity": 0.7874015748031497,
          "duration": 0.16666649999999095
        },
        {
          "name": "B4",
          "midi": 71,
          "time": 190.4685595312503,
          "velocity": 0.7874015748031497,
          "duration": 0.16666649999999095
        },
        {
          "name": "C5",
          "midi": 72,
          "time": 190.80189253125027,
          "velocity": 0.7874015748031497,
          "duration": 0.16666649999999095
        },
        {
          "name": "E5",
          "midi": 76,
          "time": 191.13522553125026,
          "velocity": 0.7874015748031497,
          "duration": 0.16666649999999095
        },
        {
          "name": "D5",
          "midi": 74,
          "time": 191.46855853125024,
          "velocity": 0.7874015748031497,
          "duration": 0.16666649999999095
        },
        {
          "name": "D5",
          "midi": 74,
          "time": 191.80189153125022,
          "velocity": 0.7874015748031497,
          "duration": 0.16666649999999095
        },
        {
          "name": "E5",
          "midi": 76,
          "time": 192.1352245312502,
          "velocity": 0.7874015748031497,
          "duration": 0.24999975000000063
        },
        {
          "name": "E5",
          "midi": 76,
          "time": 192.4685575312502,
          "velocity": 0.7874015748031497,
          "duration": 0.11111099999999396
        },
        {
          "name": "F5",
          "midi": 77,
          "time": 192.8018905312502,
          "velocity": 0.7874015748031497,
          "duration": 0.11111099999999396
        },
        {
          "name": "E5",
          "midi": 76,
          "time": 193.13522353125018,
          "velocity": 0.7874015748031497,
          "duration": 0.11111099999999396
        },
        {
          "name": "F5",
          "midi": 77,
          "time": 193.46855653125016,
          "velocity": 0.7874015748031497,
          "duration": 0.11111099999999396
        },
        {
          "name": "E5",
          "midi": 76,
          "time": 193.80188953125014,
          "velocity": 0.7874015748031497,
          "duration": 0.11111099999999396
        },
        {
          "name": "F5",
          "midi": 77,
          "time": 194.13522253125012,
          "velocity": 0.7874015748031497,
          "duration": 0.11111099999999396
        },
        {
          "name": "E5",
          "midi": 76,
          "time": 194.46786108750013,
          "velocity": 0.7874015748031497,
          "duration": 0.11111099999999396
        },
        {
          "name": "D5",
          "midi": 74,
          "time": 194.8018885312501,
          "velocity": 0.7874015748031497,
          "duration": 0.11111099999999396
        },
        {
          "name": "E5",
          "midi": 76,
          "time": 195.13452708750012,
          "velocity": 0.7874015748031497,
          "duration": 0.11111099999999396
        },
        {
          "name": "F5",
          "midi": 77,
          "time": 195.4678600875001,
          "velocity": 0.7874015748031497,
          "duration": 0.11111099999999396
        },
        {
          "name": "E5",
          "midi": 76,
          "time": 195.80119308750008,
          "velocity": 0.7874015748031497,
          "duration": 0.11111099999999396
        },
        {
          "name": "F5",
          "midi": 77,
          "time": 196.13452608750006,
          "velocity": 0.7874015748031497,
          "duration": 0.11111099999999396
        },
        {
          "name": "G5",
          "midi": 79,
          "time": 196.46855353125005,
          "velocity": 0.7874015748031497,
          "duration": 0.11111099999999396
        },
        {
          "name": "F5",
          "midi": 77,
          "time": 196.80119208750006,
          "velocity": 0.7874015748031497,
          "duration": 0.11111099999999396
        },
        {
          "name": "E5",
          "midi": 76,
          "time": 197.13383064375006,
          "velocity": 0.7874015748031497,
          "duration": 0.11111099999999396
        },
        {
          "name": "D5",
          "midi": 74,
          "time": 197.46785808750005,
          "velocity": 0.7874015748031497,
          "duration": 0.11111099999999396
        },
        {
          "name": "E5",
          "midi": 76,
          "time": 197.80188553125004,
          "velocity": 0.7874015748031497,
          "duration": 0.11111099999999396
        },
        {
          "name": "F5",
          "midi": 77,
          "time": 198.13521853125002,
          "velocity": 0.7874015748031497,
          "duration": 0.11111099999999396
        },
        {
          "name": "E5",
          "midi": 76,
          "time": 198.46855153125,
          "velocity": 0.7874015748031497,
          "duration": 0.11111099999999396
        },
        {
          "name": "F5",
          "midi": 77,
          "time": 198.80188453124998,
          "velocity": 0.7874015748031497,
          "duration": 0.11111099999999396
        },
        {
          "name": "E5",
          "midi": 76,
          "time": 199.13521753124996,
          "velocity": 0.7874015748031497,
          "duration": 0.11111099999999396
        },
        {
          "name": "F5",
          "midi": 77,
          "time": 199.46855053124995,
          "velocity": 0.7874015748031497,
          "duration": 0.11111099999999396
        },
        {
          "name": "E5",
          "midi": 76,
          "time": 199.80118908749995,
          "velocity": 0.7874015748031497,
          "duration": 0.11111099999999396
        },
        {
          "name": "D5",
          "midi": 74,
          "time": 200.13521653124994,
          "velocity": 0.7874015748031497,
          "duration": 0.11111099999999396
        },
        {
          "name": "C5",
          "midi": 72,
          "time": 200.46854953124992,
          "velocity": 0.7874015748031497,
          "duration": 0.16666649999999095
        },
        {
          "name": "B4",
          "midi": 71,
          "time": 200.8018825312499,
          "velocity": 0.7874015748031497,
          "duration": 0.16666649999999095
        },
        {
          "name": "B4",
          "midi": 71,
          "time": 201.13521553124988,
          "velocity": 0.7874015748031497,
          "duration": 0.16666649999999095
        },
        {
          "name": "C5",
          "midi": 72,
          "time": 201.46854853124987,
          "velocity": 0.7874015748031497,
          "duration": 0.16666649999999095
        },
        {
          "name": "E5",
          "midi": 76,
          "time": 201.80188153124985,
          "velocity": 0.7874015748031497,
          "duration": 0.16666649999999095
        },
        {
          "name": "D5",
          "midi": 74,
          "time": 202.13521453124983,
          "velocity": 0.7874015748031497,
          "duration": 0.16666649999999095
        },
        {
          "name": "E5",
          "midi": 76,
          "time": 202.4685475312498,
          "velocity": 0.7874015748031497,
          "duration": 0.16666649999999095
        },
        {
          "name": "A5",
          "midi": 81,
          "time": 202.8018805312498,
          "velocity": 0.7874015748031497,
          "duration": 0.24999975000000063
        },
        {
          "name": "D4",
          "midi": 62,
          "time": 203.1352135312498,
          "velocity": 0.7874015748031497,
          "duration": 0.4166662499999916
        },
        {
          "name": "D4",
          "midi": 62,
          "time": 203.6352130312498,
          "velocity": 0.7874015748031497,
          "duration": 1.1249988749999886
        },
        {
          "name": "F4",
          "midi": 65,
          "time": 204.8018785312498,
          "velocity": 0.7874015748031497,
          "duration": 0.3333330000000103
        },
        {
          "name": "E4",
          "midi": 64,
          "time": 205.1352115312498,
          "velocity": 0.7874015748031497,
          "duration": 0.3333330000000103
        },
        {
          "name": "C4",
          "midi": 60,
          "time": 205.46854453124982,
          "velocity": 0.7874015748031497,
          "duration": 0.3333330000000103
        },
        {
          "name": "D4",
          "midi": 62,
          "time": 205.80187753124983,
          "velocity": 0.7874015748031497,
          "duration": 0.3333330000000103
        },
        {
          "name": "D4",
          "midi": 62,
          "time": 206.30187703124983,
          "velocity": 0.7874015748031497,
          "duration": 1.8333314999999857
        },
        {
          "name": "D4",
          "midi": 62,
          "time": 208.46854153124983,
          "velocity": 0.7874015748031497,
          "duration": 0.11111099999999396
        },
        {
          "name": "D4",
          "midi": 62,
          "time": 208.69076353124981,
          "velocity": 0.7874015748031497,
          "duration": 0.11111099999999396
        },
        {
          "name": "D4",
          "midi": 62,
          "time": 208.9129855312498,
          "velocity": 0.7874015748031497,
          "duration": 0.11111099999999396
        },
        {
          "name": "E4",
          "midi": 64,
          "time": 209.1352075312498,
          "velocity": 0.7874015748031497,
          "duration": 0.11111099999999396
        },
        {
          "name": "E4",
          "midi": 64,
          "time": 209.35742953124978,
          "velocity": 0.7874015748031497,
          "duration": 0.11111099999999396
        },
        {
          "name": "F4",
          "midi": 65,
          "time": 209.57965153124977,
          "velocity": 0.7874015748031497,
          "duration": 0.11111099999999396
        },
        {
          "name": "G4",
          "midi": 67,
          "time": 209.91298453124975,
          "velocity": 0.7874015748031497,
          "duration": 0.11111099999999396
        },
        {
          "name": "A4",
          "midi": 69,
          "time": 210.13520653124974,
          "velocity": 0.7874015748031497,
          "duration": 0.11111099999999396
        },
        {
          "name": "A4",
          "midi": 69,
          "time": 210.46853953124972,
          "velocity": 0.7874015748031497,
          "duration": 0.11111099999999396
        },
        {
          "name": "A4",
          "midi": 69,
          "time": 210.6907615312497,
          "velocity": 0.7874015748031497,
          "duration": 0.11111099999999396
        },
        {
          "name": "A4",
          "midi": 69,
          "time": 210.9129835312497,
          "velocity": 0.7874015748031497,
          "duration": 0.11111099999999396
        },
        {
          "name": "E5",
          "midi": 76,
          "time": 211.13520553124968,
          "velocity": 0.7874015748031497,
          "duration": 0.9583323749999977
        },
        {
          "name": "D5",
          "midi": 74,
          "time": 212.13520453124968,
          "velocity": 0.7874015748031497,
          "duration": 0.16666649999999095
        },
        {
          "name": "D5",
          "midi": 74,
          "time": 212.46853753124967,
          "velocity": 0.7874015748031497,
          "duration": 0.9999990000000025
        },
        {
          "name": "D5",
          "midi": 74,
          "time": 213.63520303124966,
          "velocity": 0.7874015748031497,
          "duration": 0.24999975000000063
        },
        {
          "name": "E5",
          "midi": 76,
          "time": 213.96853603124967,
          "velocity": 0.7874015748031497,
          "duration": 0.1249998749999861
        },
        {
          "name": "F5",
          "midi": 77,
          "time": 214.13520253124966,
          "velocity": 0.7874015748031497,
          "duration": 0.11111099999999396
        },
        {
          "name": "C5",
          "midi": 72,
          "time": 214.46853553124964,
          "velocity": 0.7874015748031497,
          "duration": 0.1249998749999861
        },
        {
          "name": "D5",
          "midi": 74,
          "time": 214.63520203124963,
          "velocity": 0.7874015748031497,
          "duration": 0.3333330000000103
        },
        {
          "name": "D5",
          "midi": 74,
          "time": 214.96853503124964,
          "velocity": 0.7874015748031497,
          "duration": 0.24999975000000063
        },
        {
          "name": "E5",
          "midi": 76,
          "time": 215.30186803124965,
          "velocity": 0.7874015748031497,
          "duration": 0.1249998749999861
        },
        {
          "name": "F5",
          "midi": 77,
          "time": 215.46853453124965,
          "velocity": 0.7874015748031497,
          "duration": 0.11111099999999396
        },
        {
          "name": "C5",
          "midi": 72,
          "time": 215.80186753124963,
          "velocity": 0.7874015748031497,
          "duration": 0.1249998749999861
        },
        {
          "name": "D5",
          "midi": 74,
          "time": 215.96853403124962,
          "velocity": 0.7874015748031497,
          "duration": 0.3333330000000103
        },
        {
          "name": "D5",
          "midi": 74,
          "time": 216.30186703124963,
          "velocity": 0.7874015748031497,
          "duration": 0.24999975000000063
        },
        {
          "name": "E5",
          "midi": 76,
          "time": 216.63520003124964,
          "velocity": 0.7874015748031497,
          "duration": 0.1249998749999861
        },
        {
          "name": "F5",
          "midi": 77,
          "time": 216.80186653124963,
          "velocity": 0.7874015748031497,
          "duration": 0.11111099999999396
        },
        {
          "name": "C5",
          "midi": 72,
          "time": 217.1351995312496,
          "velocity": 0.7874015748031497,
          "duration": 0.1249998749999861
        },
        {
          "name": "D5",
          "midi": 74,
          "time": 217.3018660312496,
          "velocity": 0.7874015748031497,
          "duration": 0.16666649999999095
        },
        {
          "name": "A#4",
          "midi": 70,
          "time": 217.4685325312496,
          "velocity": 0.7874015748031497,
          "duration": 0.16666649999999095
        },
        {
          "name": "D5",
          "midi": 74,
          "time": 217.63519903124958,
          "velocity": 0.7874015748031497,
          "duration": 0.16666649999999095
        },
        {
          "name": "A4",
          "midi": 69,
          "time": 217.80186553124958,
          "velocity": 0.7874015748031497,
          "duration": 0.16666649999999095
        },
        {
          "name": "G4",
          "midi": 67,
          "time": 218.13519853124956,
          "velocity": 0.7874015748031497,
          "duration": 0.16666649999999095
        },
        {
          "name": "F4",
          "midi": 65,
          "time": 218.46853153124954,
          "velocity": 0.7874015748031497,
          "duration": 0.16666649999999095
        },
        {
          "name": "E4",
          "midi": 64,
          "time": 218.80186453124952,
          "velocity": 0.7874015748031497,
          "duration": 0.16666649999999095
        },
        {
          "name": "D5",
          "midi": 74,
          "time": 219.1351975312495,
          "velocity": 0.7874015748031497,
          "duration": 0.08333325000000968
        },
        {
          "name": "E5",
          "midi": 76,
          "time": 219.30186403124952,
          "velocity": 0.7874015748031497,
          "duration": 0.1249998749999861
        },
        {
          "name": "F5",
          "midi": 77,
          "time": 219.4685305312495,
          "velocity": 0.7874015748031497,
          "duration": 0.11111099999999396
        },
        {
          "name": "C5",
          "midi": 72,
          "time": 219.8018635312495,
          "velocity": 0.7874015748031497,
          "duration": 0.1249998749999861
        },
        {
          "name": "D5",
          "midi": 74,
          "time": 219.9685300312495,
          "velocity": 0.7874015748031497,
          "duration": 0.16666649999999095
        },
        {
          "name": "C5",
          "midi": 72,
          "time": 220.13519653124948,
          "velocity": 0.7874015748031497,
          "duration": 0.16666649999999095
        },
        {
          "name": "D5",
          "midi": 74,
          "time": 220.30186303124947,
          "velocity": 0.7874015748031497,
          "duration": 0.16666649999999095
        },
        {
          "name": "A#4",
          "midi": 70,
          "time": 220.46852953124946,
          "velocity": 0.7874015748031497,
          "duration": 0.16666649999999095
        },
        {
          "name": "A4",
          "midi": 69,
          "time": 220.80186253124944,
          "velocity": 0.7874015748031497,
          "duration": 0.16666649999999095
        },
        {
          "name": "G4",
          "midi": 67,
          "time": 221.13519553124942,
          "velocity": 0.7874015748031497,
          "duration": 0.16666649999999095
        },
        {
          "name": "F4",
          "midi": 65,
          "time": 221.4685285312494,
          "velocity": 0.7874015748031497,
          "duration": 0.16666649999999095
        },
        {
          "name": "D4",
          "midi": 62,
          "time": 221.8018615312494,
          "velocity": 0.7874015748031497,
          "duration": 0.05555549999999698
        },
        {
          "name": "E4",
          "midi": 64,
          "time": 222.1351945312494,
          "velocity": 0.7874015748031497,
          "duration": 0.05555549999999698
        },
        {
          "name": "F4",
          "midi": 65,
          "time": 222.4685275312494,
          "velocity": 0.7874015748031497,
          "duration": 0.05555549999999698
        },
        {
          "name": "G4",
          "midi": 67,
          "time": 222.80186053124942,
          "velocity": 0.7874015748031497,
          "duration": 0.05555549999999698
        },
        {
          "name": "A4",
          "midi": 69,
          "time": 223.13519353124943,
          "velocity": 0.7874015748031497,
          "duration": 0.05555549999999698
        },
        {
          "name": "A#4",
          "midi": 70,
          "time": 223.46852653124944,
          "velocity": 0.7874015748031497,
          "duration": 0.05555549999999698
        },
        {
          "name": "C5",
          "midi": 72,
          "time": 223.80185953124945,
          "velocity": 0.7874015748031497,
          "duration": 0.05555549999999698
        },
        {
          "name": "D5",
          "midi": 74,
          "time": 224.13519253124946,
          "velocity": 0.7874015748031497,
          "duration": 0.3333330000000103
        },
        {
          "name": "G4",
          "midi": 67,
          "time": 224.46852553124947,
          "velocity": 0.7874015748031497,
          "duration": 0.16666649999999095
        },
        {
          "name": "F#4",
          "midi": 66,
          "time": 224.96852503124947,
          "velocity": 0.7874015748031497,
          "duration": 0.16666649999999095
        },
        {
          "name": "G4",
          "midi": 67,
          "time": 225.46852453124947,
          "velocity": 0.7874015748031497,
          "duration": 0.16666649999999095
        },
        {
          "name": "G4",
          "midi": 67,
          "time": 225.80185753124945,
          "velocity": 0.7874015748031497,
          "duration": 0.16666649999999095
        },
        {
          "name": "F#4",
          "midi": 66,
          "time": 226.30185703124945,
          "velocity": 0.7874015748031497,
          "duration": 0.16666649999999095
        },
        {
          "name": "G4",
          "midi": 67,
          "time": 226.80185653124946,
          "velocity": 0.7874015748031497,
          "duration": 0.16666649999999095
        },
        {
          "name": "A4",
          "midi": 69,
          "time": 227.13518953124944,
          "velocity": 0.7874015748031497,
          "duration": 0.49999950000000126
        },
        {
          "name": "G4",
          "midi": 67,
          "time": 227.63518903124944,
          "velocity": 0.7874015748031497,
          "duration": 0.3333330000000103
        },
        {
          "name": "E4",
          "midi": 64,
          "time": 228.13518853124944,
          "velocity": 0.7874015748031497,
          "duration": 1.5833317500000135
        },
        {
          "name": "G4",
          "midi": 67,
          "time": 229.80185353124946,
          "velocity": 0.7874015748031497,
          "duration": 0.16666649999999095
        },
        {
          "name": "F#4",
          "midi": 66,
          "time": 230.30185303124946,
          "velocity": 0.7874015748031497,
          "duration": 0.16666649999999095
        },
        {
          "name": "G4",
          "midi": 67,
          "time": 230.80185253124947,
          "velocity": 0.7874015748031497,
          "duration": 0.16666649999999095
        },
        {
          "name": "A4",
          "midi": 69,
          "time": 231.13518553124945,
          "velocity": 0.7874015748031497,
          "duration": 0.16666649999999095
        },
        {
          "name": "G4",
          "midi": 67,
          "time": 231.63518503124945,
          "velocity": 0.7874015748031497,
          "duration": 0.16666649999999095
        },
        {
          "name": "D4",
          "midi": 62,
          "time": 232.13518453124945,
          "velocity": 0.7874015748031497,
          "duration": 0.3333330000000103
        },
        {
          "name": "E4",
          "midi": 64,
          "time": 232.46851753124946,
          "velocity": 0.7874015748031497,
          "duration": 2.6666639999999973
        },
        {
          "name": "B4",
          "midi": 71,
          "time": 235.13518153124946,
          "velocity": 0.7874015748031497,
          "duration": 0.16666649999999095
        },
        {
          "name": "A4",
          "midi": 69,
          "time": 235.63518103124946,
          "velocity": 0.7874015748031497,
          "duration": 0.16666649999999095
        },
        {
          "name": "B4",
          "midi": 71,
          "time": 236.13518053124946,
          "velocity": 0.7874015748031497,
          "duration": 0.16666649999999095
        },
        {
          "name": "B4",
          "midi": 71,
          "time": 236.46851353124944,
          "velocity": 0.7874015748031497,
          "duration": 0.16666649999999095
        },
        {
          "name": "A4",
          "midi": 69,
          "time": 236.96851303124944,
          "velocity": 0.7874015748031497,
          "duration": 0.16666649999999095
        },
        {
          "name": "B4",
          "midi": 71,
          "time": 237.46851253124944,
          "velocity": 0.7874015748031497,
          "duration": 0.16666649999999095
        },
        {
          "name": "C5",
          "midi": 72,
          "time": 237.80184553124943,
          "velocity": 0.7874015748031497,
          "duration": 0.49999950000000126
        },
        {
          "name": "B4",
          "midi": 71,
          "time": 238.30184503124943,
          "velocity": 0.7874015748031497,
          "duration": 0.3333330000000103
        },
        {
          "name": "G4",
          "midi": 67,
          "time": 238.80184453124943,
          "velocity": 0.7874015748031497,
          "duration": 1.5833317500000135
        },
        {
          "name": "B4",
          "midi": 71,
          "time": 240.46850953124945,
          "velocity": 0.7874015748031497,
          "duration": 0.16666649999999095
        },
        {
          "name": "A4",
          "midi": 69,
          "time": 240.96850903124945,
          "velocity": 0.7874015748031497,
          "duration": 0.16666649999999095
        },
        {
          "name": "B4",
          "midi": 71,
          "time": 241.46850853124946,
          "velocity": 0.7874015748031497,
          "duration": 0.16666649999999095
        },
        {
          "name": "C5",
          "midi": 72,
          "time": 241.80184153124944,
          "velocity": 0.7874015748031497,
          "duration": 0.16666649999999095
        },
        {
          "name": "B4",
          "midi": 71,
          "time": 242.30184103124944,
          "velocity": 0.7874015748031497,
          "duration": 0.16666649999999095
        },
        {
          "name": "F#4",
          "midi": 66,
          "time": 242.80184053124944,
          "velocity": 0.7874015748031497,
          "duration": 0.3333330000000103
        },
        {
          "name": "G4",
          "midi": 67,
          "time": 243.13517353124945,
          "velocity": 0.7874015748031497,
          "duration": 2.6666639999999973
        },
        {
          "name": "E2",
          "midi": 40,
          "time": 245.80183753124945,
          "velocity": 0.7874015748031497,
          "duration": 2.6666639999999973
        },
        {
          "name": "B2",
          "midi": 47,
          "time": 245.80183753124945,
          "velocity": 0.7874015748031497,
          "duration": 2.6666639999999973
        },
        {
          "name": "C3",
          "midi": 48,
          "time": 248.46850153124944,
          "velocity": 0.7874015748031497,
          "duration": 2.6666639999999973
        },
        {
          "name": "G3",
          "midi": 55,
          "time": 248.46850153124944,
          "velocity": 0.7874015748031497,
          "duration": 2.6666639999999973
        },
        {
          "name": "G2",
          "midi": 43,
          "time": 251.13516553124944,
          "velocity": 0.7874015748031497,
          "duration": 2.6666639999999973
        },
        {
          "name": "D3",
          "midi": 50,
          "time": 251.13516553124944,
          "velocity": 0.7874015748031497,
          "duration": 2.6666639999999973
        },
        {
          "name": "A2",
          "midi": 45,
          "time": 253.80182953124944,
          "velocity": 0.7874015748031497,
          "duration": 0.49999950000000126
        },
        {
          "name": "E3",
          "midi": 52,
          "time": 253.80182953124944,
          "velocity": 0.7874015748031497,
          "duration": 0.49999950000000126
        },
        {
          "name": "A2",
          "midi": 45,
          "time": 254.30182903124944,
          "velocity": 0.7874015748031497,
          "duration": 0.49999950000000126
        },
        {
          "name": "E3",
          "midi": 52,
          "time": 254.30182903124944,
          "velocity": 0.7874015748031497,
          "duration": 0.49999950000000126
        },
        {
          "name": "A2",
          "midi": 45,
          "time": 254.80182853124944,
          "velocity": 0.7874015748031497,
          "duration": 0.3333330000000103
        },
        {
          "name": "E3",
          "midi": 52,
          "time": 254.80182853124944,
          "velocity": 0.7874015748031497,
          "duration": 0.3333330000000103
        },
        {
          "name": "B2",
          "midi": 47,
          "time": 255.13516153124945,
          "velocity": 0.7874015748031497,
          "duration": 1.3333320000000128
        },
        {
          "name": "F#3",
          "midi": 54,
          "time": 255.13516153124945,
          "velocity": 0.7874015748031497,
          "duration": 1.3333320000000128
        },
        {
          "name": "E2",
          "midi": 40,
          "time": 256.46849353124946,
          "velocity": 0.7874015748031497,
          "duration": 2.6666640000000257
        },
        {
          "name": "B2",
          "midi": 47,
          "time": 256.46849353124946,
          "velocity": 0.7874015748031497,
          "duration": 2.6666640000000257
        },
        {
          "name": "C3",
          "midi": 48,
          "time": 259.1351575312495,
          "velocity": 0.7874015748031497,
          "duration": 2.6666640000000257
        },
        {
          "name": "G3",
          "midi": 55,
          "time": 259.1351575312495,
          "velocity": 0.7874015748031497,
          "duration": 2.6666640000000257
        },
        {
          "name": "G2",
          "midi": 43,
          "time": 261.8018215312495,
          "velocity": 0.7874015748031497,
          "duration": 2.6666640000000257
        },
        {
          "name": "D3",
          "midi": 50,
          "time": 261.8018215312495,
          "velocity": 0.7874015748031497,
          "duration": 2.6666640000000257
        },
        {
          "name": "A2",
          "midi": 45,
          "time": 264.46848553124954,
          "velocity": 0.7874015748031497,
          "duration": 0.49999950000000126
        },
        {
          "name": "E3",
          "midi": 52,
          "time": 264.46848553124954,
          "velocity": 0.7874015748031497,
          "duration": 0.49999950000000126
        },
        {
          "name": "A2",
          "midi": 45,
          "time": 264.96848503124954,
          "velocity": 0.7874015748031497,
          "duration": 0.49999950000000126
        },
        {
          "name": "E3",
          "midi": 52,
          "time": 264.96848503124954,
          "velocity": 0.7874015748031497,
          "duration": 0.49999950000000126
        },
        {
          "name": "A2",
          "midi": 45,
          "time": 265.46848453124954,
          "velocity": 0.7874015748031497,
          "duration": 0.3333329999999819
        },
        {
          "name": "E3",
          "midi": 52,
          "time": 265.46848453124954,
          "velocity": 0.7874015748031497,
          "duration": 0.3333329999999819
        },
        {
          "name": "B2",
          "midi": 47,
          "time": 265.8018175312495,
          "velocity": 0.7874015748031497,
          "duration": 1.3333319999999844
        },
        {
          "name": "F#3",
          "midi": 54,
          "time": 265.8018175312495,
          "velocity": 0.7874015748031497,
          "duration": 1.3333319999999844
        },
        {
          "name": "E3",
          "midi": 52,
          "time": 267.1351495312495,
          "velocity": 0.7874015748031497,
          "duration": 0.24999975000002905
        },
        {
          "name": "B3",
          "midi": 59,
          "time": 267.1351495312495,
          "velocity": 0.7874015748031497,
          "duration": 0.16666650000001937
        },
        {
          "name": "E3",
          "midi": 52,
          "time": 268.1351485312495,
          "velocity": 0.7874015748031497,
          "duration": 0.16666650000001937
        },
        {
          "name": "C3",
          "midi": 48,
          "time": 268.46848153124955,
          "velocity": 0.7874015748031497,
          "duration": 0.24999975000002905
        },
        {
          "name": "G3",
          "midi": 55,
          "time": 268.46848153124955,
          "velocity": 0.7874015748031497,
          "duration": 0.16666650000001937
        },
        {
          "name": "C3",
          "midi": 48,
          "time": 269.46848053124955,
          "velocity": 0.7874015748031497,
          "duration": 0.16666650000001937
        },
        {
          "name": "E3",
          "midi": 52,
          "time": 269.8018135312496,
          "velocity": 0.7874015748031497,
          "duration": 0.24999975000002905
        },
        {
          "name": "B3",
          "midi": 59,
          "time": 269.8018135312496,
          "velocity": 0.7874015748031497,
          "duration": 0.16666650000001937
        },
        {
          "name": "E3",
          "midi": 52,
          "time": 270.8018125312496,
          "velocity": 0.7874015748031497,
          "duration": 0.16666650000001937
        },
        {
          "name": "C3",
          "midi": 48,
          "time": 271.13514553124963,
          "velocity": 0.7874015748031497,
          "duration": 0.6666660000000206
        },
        {
          "name": "G3",
          "midi": 55,
          "time": 271.13514553124963,
          "velocity": 0.7874015748031497,
          "duration": 0.6666660000000206
        },
        {
          "name": "A2",
          "midi": 45,
          "time": 271.80181153124965,
          "velocity": 0.7874015748031497,
          "duration": 0.3333329999999819
        },
        {
          "name": "E3",
          "midi": 52,
          "time": 271.80181153124965,
          "velocity": 0.7874015748031497,
          "duration": 0.3333329999999819
        },
        {
          "name": "D3",
          "midi": 50,
          "time": 272.13514453124964,
          "velocity": 0.7874015748031497,
          "duration": 0.3333329999999819
        },
        {
          "name": "A3",
          "midi": 57,
          "time": 272.13514453124964,
          "velocity": 0.7874015748031497,
          "duration": 0.3333329999999819
        },
        {
          "name": "E3",
          "midi": 52,
          "time": 272.4684775312496,
          "velocity": 0.7874015748031497,
          "duration": 0.24999975000002905
        },
        {
          "name": "B3",
          "midi": 59,
          "time": 272.4684775312496,
          "velocity": 0.7874015748031497,
          "duration": 0.16666650000001937
        },
        {
          "name": "E3",
          "midi": 52,
          "time": 273.4684765312496,
          "velocity": 0.7874015748031497,
          "duration": 0.16666650000001937
        },
        {
          "name": "C3",
          "midi": 48,
          "time": 273.80180953124966,
          "velocity": 0.7874015748031497,
          "duration": 0.24999975000002905
        },
        {
          "name": "G3",
          "midi": 55,
          "time": 273.80180953124966,
          "velocity": 0.7874015748031497,
          "duration": 0.16666650000001937
        },
        {
          "name": "C3",
          "midi": 48,
          "time": 274.80180853124966,
          "velocity": 0.7874015748031497,
          "duration": 0.16666650000001937
        },
        {
          "name": "E3",
          "midi": 52,
          "time": 275.1351415312497,
          "velocity": 0.7874015748031497,
          "duration": 0.24999975000002905
        },
        {
          "name": "B3",
          "midi": 59,
          "time": 275.1351415312497,
          "velocity": 0.7874015748031497,
          "duration": 0.16666650000001937
        },
        {
          "name": "E3",
          "midi": 52,
          "time": 276.1351405312497,
          "velocity": 0.7874015748031497,
          "duration": 0.16666650000001937
        },
        {
          "name": "C3",
          "midi": 48,
          "time": 276.46847353124974,
          "velocity": 0.7874015748031497,
          "duration": 0.6666660000000206
        },
        {
          "name": "G3",
          "midi": 55,
          "time": 276.46847353124974,
          "velocity": 0.7874015748031497,
          "duration": 0.6666660000000206
        },
        {
          "name": "C3",
          "midi": 48,
          "time": 277.13513953124976,
          "velocity": 0.7874015748031497,
          "duration": 0.3333329999999819
        },
        {
          "name": "G3",
          "midi": 55,
          "time": 277.13513953124976,
          "velocity": 0.7874015748031497,
          "duration": 0.3333329999999819
        },
        {
          "name": "D3",
          "midi": 50,
          "time": 277.46847253124974,
          "velocity": 0.7874015748031497,
          "duration": 0.3333329999999819
        },
        {
          "name": "A3",
          "midi": 57,
          "time": 277.46847253124974,
          "velocity": 0.7874015748031497,
          "duration": 0.3333329999999819
        },
        {
          "name": "E3",
          "midi": 52,
          "time": 277.8018055312497,
          "velocity": 0.7874015748031497,
          "duration": 1.3333319999999844
        },
        {
          "name": "B3",
          "midi": 59,
          "time": 277.8018055312497,
          "velocity": 0.7874015748031497,
          "duration": 1.3333319999999844
        },
        {
          "name": "C3",
          "midi": 48,
          "time": 279.1351375312497,
          "velocity": 0.7874015748031497,
          "duration": 1.3333319999999844
        },
        {
          "name": "G3",
          "midi": 55,
          "time": 279.1351375312497,
          "velocity": 0.7874015748031497,
          "duration": 1.3333319999999844
        },
        {
          "name": "E3",
          "midi": 52,
          "time": 280.4684695312497,
          "velocity": 0.7874015748031497,
          "duration": 1.3333319999999844
        },
        {
          "name": "B3",
          "midi": 59,
          "time": 280.4684695312497,
          "velocity": 0.7874015748031497,
          "duration": 1.3333319999999844
        },
        {
          "name": "C3",
          "midi": 48,
          "time": 281.8018015312497,
          "velocity": 0.7874015748031497,
          "duration": 0.6666660000000206
        },
        {
          "name": "G3",
          "midi": 55,
          "time": 281.8018015312497,
          "velocity": 0.7874015748031497,
          "duration": 0.6666660000000206
        },
        {
          "name": "A2",
          "midi": 45,
          "time": 282.4684675312497,
          "velocity": 0.7874015748031497,
          "duration": 0.3333329999999819
        },
        {
          "name": "E3",
          "midi": 52,
          "time": 282.4684675312497,
          "velocity": 0.7874015748031497,
          "duration": 0.3333329999999819
        },
        {
          "name": "D3",
          "midi": 50,
          "time": 282.8018005312497,
          "velocity": 0.7874015748031497,
          "duration": 0.3333329999999819
        },
        {
          "name": "A3",
          "midi": 57,
          "time": 282.8018005312497,
          "velocity": 0.7874015748031497,
          "duration": 0.3333329999999819
        },
        {
          "name": "E3",
          "midi": 52,
          "time": 283.13513353124966,
          "velocity": 0.7874015748031497,
          "duration": 1.3333319999999844
        },
        {
          "name": "B3",
          "midi": 59,
          "time": 283.13513353124966,
          "velocity": 0.7874015748031497,
          "duration": 1.3333319999999844
        },
        {
          "name": "C3",
          "midi": 48,
          "time": 284.46846553124965,
          "velocity": 0.7874015748031497,
          "duration": 1.3333319999999844
        },
        {
          "name": "G3",
          "midi": 55,
          "time": 284.46846553124965,
          "velocity": 0.7874015748031497,
          "duration": 1.3333319999999844
        },
        {
          "name": "E3",
          "midi": 52,
          "time": 285.80179753124963,
          "velocity": 0.7874015748031497,
          "duration": 1.3333319999999844
        },
        {
          "name": "B3",
          "midi": 59,
          "time": 285.80179753124963,
          "velocity": 0.7874015748031497,
          "duration": 1.3333319999999844
        },
        {
          "name": "C3",
          "midi": 48,
          "time": 287.1351295312496,
          "velocity": 0.7874015748031497,
          "duration": 0.6666660000000206
        },
        {
          "name": "G3",
          "midi": 55,
          "time": 287.1351295312496,
          "velocity": 0.7874015748031497,
          "duration": 0.6666660000000206
        },
        {
          "name": "C3",
          "midi": 48,
          "time": 287.80179553124964,
          "velocity": 0.7874015748031497,
          "duration": 0.3333329999999819
        },
        {
          "name": "G3",
          "midi": 55,
          "time": 287.80179553124964,
          "velocity": 0.7874015748031497,
          "duration": 0.3333329999999819
        },
        {
          "name": "D3",
          "midi": 50,
          "time": 288.1351285312496,
          "velocity": 0.7874015748031497,
          "duration": 0.3333329999999819
        },
        {
          "name": "A3",
          "midi": 57,
          "time": 288.1351285312496,
          "velocity": 0.7874015748031497,
          "duration": 0.3333329999999819
        },
        {
          "name": "E3",
          "midi": 52,
          "time": 288.4684615312496,
          "velocity": 0.7874015748031497,
          "duration": 0.16666650000001937
        },
        {
          "name": "F#3",
          "midi": 54,
          "time": 289.1351275312496,
          "velocity": 0.7874015748031497,
          "duration": 0.16666650000001937
        },
        {
          "name": "D3",
          "midi": 50,
          "time": 289.6351270312496,
          "velocity": 0.7874015748031497,
          "duration": 0.16666650000001937
        },
        {
          "name": "E3",
          "midi": 52,
          "time": 289.80179353124964,
          "velocity": 0.7874015748031497,
          "duration": 0.16666650000001937
        },
        {
          "name": "F#3",
          "midi": 54,
          "time": 290.46845953124966,
          "velocity": 0.7874015748031497,
          "duration": 0.16666650000001937
        },
        {
          "name": "E3",
          "midi": 52,
          "time": 290.8017925312497,
          "velocity": 0.7874015748031497,
          "duration": 0.3333329999999819
        },
        {
          "name": "A3",
          "midi": 57,
          "time": 291.1351255312497,
          "velocity": 0.7874015748031497,
          "duration": 0.16666650000001937
        },
        {
          "name": "B3",
          "midi": 59,
          "time": 291.8017915312497,
          "velocity": 0.7874015748031497,
          "duration": 0.16666650000001937
        },
        {
          "name": "G3",
          "midi": 55,
          "time": 292.3017910312497,
          "velocity": 0.7874015748031497,
          "duration": 0.16666650000001937
        },
        {
          "name": "A3",
          "midi": 57,
          "time": 292.4684575312497,
          "velocity": 0.7874015748031497,
          "duration": 0.16666650000001937
        },
        {
          "name": "B3",
          "midi": 59,
          "time": 293.13512353124975,
          "velocity": 0.7874015748031497,
          "duration": 0.16666650000001937
        },
        {
          "name": "A3",
          "midi": 57,
          "time": 293.4684565312498,
          "velocity": 0.7874015748031497,
          "duration": 0.3333329999999819
        },
        {
          "name": "F3",
          "midi": 53,
          "time": 293.80178953124977,
          "velocity": 0.7874015748031497,
          "duration": 0.16666650000001937
        },
        {
          "name": "G3",
          "midi": 55,
          "time": 294.4684555312498,
          "velocity": 0.7874015748031497,
          "duration": 0.16666650000001937
        },
        {
          "name": "E3",
          "midi": 52,
          "time": 294.9684550312498,
          "velocity": 0.7874015748031497,
          "duration": 0.16666650000001937
        },
        {
          "name": "F3",
          "midi": 53,
          "time": 295.1351215312498,
          "velocity": 0.7874015748031497,
          "duration": 0.16666650000001937
        },
        {
          "name": "G3",
          "midi": 55,
          "time": 295.80178753124983,
          "velocity": 0.7874015748031497,
          "duration": 0.16666650000001937
        },
        {
          "name": "F3",
          "midi": 53,
          "time": 296.13512053124987,
          "velocity": 0.7874015748031497,
          "duration": 0.3333329999999819
        },
        {
          "name": "A3",
          "midi": 57,
          "time": 296.46845353124985,
          "velocity": 0.7874015748031497,
          "duration": 0.49999950000000126
        },
        {
          "name": "A3",
          "midi": 57,
          "time": 296.96845303124985,
          "velocity": 0.7874015748031497,
          "duration": 0.49999950000000126
        },
        {
          "name": "E3",
          "midi": 52,
          "time": 297.46845253124985,
          "velocity": 0.7874015748031497,
          "duration": 0.3333329999999819
        },
        {
          "name": "G3",
          "midi": 55,
          "time": 297.80178553124983,
          "velocity": 0.7874015748031497,
          "duration": 1.3333319999999844
        },
        {
          "name": "E3",
          "midi": 52,
          "time": 299.1351175312498,
          "velocity": 0.7874015748031497,
          "duration": 1.3333319999999844
        },
        {
          "name": "B3",
          "midi": 59,
          "time": 299.1351175312498,
          "velocity": 0.7874015748031497,
          "duration": 1.3333319999999844
        },
        {
          "name": "C3",
          "midi": 48,
          "time": 300.4684495312498,
          "velocity": 0.7874015748031497,
          "duration": 1.3333319999999844
        },
        {
          "name": "G3",
          "midi": 55,
          "time": 300.4684495312498,
          "velocity": 0.7874015748031497,
          "duration": 1.3333319999999844
        },
        {
          "name": "G2",
          "midi": 43,
          "time": 301.8017815312498,
          "velocity": 0.7874015748031497,
          "duration": 0.49999950000000126
        },
        {
          "name": "D3",
          "midi": 50,
          "time": 301.8017815312498,
          "velocity": 0.7874015748031497,
          "duration": 0.49999950000000126
        },
        {
          "name": "G2",
          "midi": 43,
          "time": 302.3017810312498,
          "velocity": 0.7874015748031497,
          "duration": 0.49999950000000126
        },
        {
          "name": "D3",
          "midi": 50,
          "time": 302.3017810312498,
          "velocity": 0.7874015748031497,
          "duration": 0.49999950000000126
        },
        {
          "name": "G2",
          "midi": 43,
          "time": 302.8017805312498,
          "velocity": 0.7874015748031497,
          "duration": 0.3333329999999819
        },
        {
          "name": "D3",
          "midi": 50,
          "time": 302.8017805312498,
          "velocity": 0.7874015748031497,
          "duration": 0.3333329999999819
        },
        {
          "name": "D3",
          "midi": 50,
          "time": 303.1351135312498,
          "velocity": 0.7874015748031497,
          "duration": 1.3333319999999844
        },
        {
          "name": "A3",
          "midi": 57,
          "time": 303.1351135312498,
          "velocity": 0.7874015748031497,
          "duration": 1.3333319999999844
        },
        {
          "name": "E3",
          "midi": 52,
          "time": 304.46844553124976,
          "velocity": 0.7874015748031497,
          "duration": 1.3333319999999844
        },
        {
          "name": "B3",
          "midi": 59,
          "time": 304.46844553124976,
          "velocity": 0.7874015748031497,
          "duration": 1.3333319999999844
        },
        {
          "name": "C3",
          "midi": 48,
          "time": 305.80177753124974,
          "velocity": 0.7874015748031497,
          "duration": 1.3333319999999844
        },
        {
          "name": "G3",
          "midi": 55,
          "time": 305.80177753124974,
          "velocity": 0.7874015748031497,
          "duration": 1.3333319999999844
        },
        {
          "name": "G2",
          "midi": 43,
          "time": 307.1351095312497,
          "velocity": 0.7874015748031497,
          "duration": 1.3333319999999844
        },
        {
          "name": "D3",
          "midi": 50,
          "time": 307.1351095312497,
          "velocity": 0.7874015748031497,
          "duration": 1.3333319999999844
        },
        {
          "name": "D3",
          "midi": 50,
          "time": 308.4684415312497,
          "velocity": 0.7874015748031497,
          "duration": 1.3333319999999844
        },
        {
          "name": "A3",
          "midi": 57,
          "time": 308.4684415312497,
          "velocity": 0.7874015748031497,
          "duration": 1.3333319999999844
        },
        {
          "name": "G3",
          "midi": 55,
          "time": 309.8017735312497,
          "velocity": 0.7874015748031497,
          "duration": 1.3333319999999844
        },
        {
          "name": "D4",
          "midi": 62,
          "time": 309.8017735312497,
          "velocity": 0.7874015748031497,
          "duration": 1.3333319999999844
        },
        {
          "name": "D#3",
          "midi": 51,
          "time": 311.1351055312497,
          "velocity": 0.7874015748031497,
          "duration": 1.3333319999999844
        },
        {
          "name": "A#3",
          "midi": 58,
          "time": 311.1351055312497,
          "velocity": 0.7874015748031497,
          "duration": 1.3333319999999844
        },
        {
          "name": "A#2",
          "midi": 46,
          "time": 312.46843753124966,
          "velocity": 0.7874015748031497,
          "duration": 0.49999950000000126
        },
        {
          "name": "F3",
          "midi": 53,
          "time": 312.46843753124966,
          "velocity": 0.7874015748031497,
          "duration": 0.49999950000000126
        },
        {
          "name": "A#2",
          "midi": 46,
          "time": 312.96843703124966,
          "velocity": 0.7874015748031497,
          "duration": 0.49999950000000126
        },
        {
          "name": "F3",
          "midi": 53,
          "time": 312.96843703124966,
          "velocity": 0.7874015748031497,
          "duration": 0.49999950000000126
        },
        {
          "name": "A#2",
          "midi": 46,
          "time": 313.46843653124967,
          "velocity": 0.7874015748031497,
          "duration": 0.3333329999999819
        },
        {
          "name": "F3",
          "midi": 53,
          "time": 313.46843653124967,
          "velocity": 0.7874015748031497,
          "duration": 0.3333329999999819
        },
        {
          "name": "F3",
          "midi": 53,
          "time": 313.80176953124965,
          "velocity": 0.7874015748031497,
          "duration": 0.49999950000000126
        },
        {
          "name": "C4",
          "midi": 60,
          "time": 313.80176953124965,
          "velocity": 0.7874015748031497,
          "duration": 0.49999950000000126
        },
        {
          "name": "F3",
          "midi": 53,
          "time": 314.30176903124965,
          "velocity": 0.7874015748031497,
          "duration": 0.8333324999999832
        },
        {
          "name": "C4",
          "midi": 60,
          "time": 314.30176903124965,
          "velocity": 0.7874015748031497,
          "duration": 0.8333324999999832
        },
        {
          "name": "G3",
          "midi": 55,
          "time": 315.13510153124963,
          "velocity": 0.7874015748031497,
          "duration": 1.3333319999999844
        },
        {
          "name": "D4",
          "midi": 62,
          "time": 315.13510153124963,
          "velocity": 0.7874015748031497,
          "duration": 1.3333319999999844
        },
        {
          "name": "D#3",
          "midi": 51,
          "time": 316.4684335312496,
          "velocity": 0.7874015748031497,
          "duration": 1.3333319999999844
        },
        {
          "name": "A#3",
          "midi": 58,
          "time": 316.4684335312496,
          "velocity": 0.7874015748031497,
          "duration": 1.3333319999999844
        },
        {
          "name": "A#2",
          "midi": 46,
          "time": 317.8017655312496,
          "velocity": 0.7874015748031497,
          "duration": 0.49999950000000126
        },
        {
          "name": "F3",
          "midi": 53,
          "time": 317.8017655312496,
          "velocity": 0.7874015748031497,
          "duration": 0.49999950000000126
        },
        {
          "name": "A#2",
          "midi": 46,
          "time": 318.3017650312496,
          "velocity": 0.7874015748031497,
          "duration": 0.49999950000000126
        },
        {
          "name": "F3",
          "midi": 53,
          "time": 318.3017650312496,
          "velocity": 0.7874015748031497,
          "duration": 0.49999950000000126
        },
        {
          "name": "A#2",
          "midi": 46,
          "time": 318.8017645312496,
          "velocity": 0.7874015748031497,
          "duration": 0.3333329999999819
        },
        {
          "name": "F3",
          "midi": 53,
          "time": 318.8017645312496,
          "velocity": 0.7874015748031497,
          "duration": 0.3333329999999819
        },
        {
          "name": "F3",
          "midi": 53,
          "time": 319.1350975312496,
          "velocity": 0.7874015748031497,
          "duration": 1.3333319999999844
        },
        {
          "name": "C4",
          "midi": 60,
          "time": 319.1350975312496,
          "velocity": 0.7874015748031497,
          "duration": 1.3333319999999844
        },
        {
          "name": "A#2",
          "midi": 46,
          "time": 320.46842953124957,
          "velocity": 0.7874015748031497,
          "duration": 1.3333319999999844
        },
        {
          "name": "F3",
          "midi": 53,
          "time": 320.46842953124957,
          "velocity": 0.7874015748031497,
          "duration": 1.3333319999999844
        },
        {
          "name": "F#2",
          "midi": 42,
          "time": 321.80176153124955,
          "velocity": 0.7874015748031497,
          "duration": 1.3333319999999844
        },
        {
          "name": "C#3",
          "midi": 49,
          "time": 321.80176153124955,
          "velocity": 0.7874015748031497,
          "duration": 1.3333319999999844
        },
        {
          "name": "C#3",
          "midi": 49,
          "time": 323.13509353124954,
          "velocity": 0.7874015748031497,
          "duration": 1.3333319999999844
        },
        {
          "name": "G#3",
          "midi": 56,
          "time": 323.13509353124954,
          "velocity": 0.7874015748031497,
          "duration": 1.3333319999999844
        },
        {
          "name": "G#2",
          "midi": 44,
          "time": 324.4684255312495,
          "velocity": 0.7874015748031497,
          "duration": 1.3333319999999844
        },
        {
          "name": "D#3",
          "midi": 51,
          "time": 324.4684255312495,
          "velocity": 0.7874015748031497,
          "duration": 1.3333319999999844
        },
        {
          "name": "C#3",
          "midi": 49,
          "time": 325.8017575312495,
          "velocity": 0.7874015748031497,
          "duration": 1.3333319999999844
        },
        {
          "name": "G#3",
          "midi": 56,
          "time": 325.8017575312495,
          "velocity": 0.7874015748031497,
          "duration": 1.3333319999999844
        },
        {
          "name": "A2",
          "midi": 45,
          "time": 327.1350895312495,
          "velocity": 0.7874015748031497,
          "duration": 1.3333319999999844
        },
        {
          "name": "E3",
          "midi": 52,
          "time": 327.1350895312495,
          "velocity": 0.7874015748031497,
          "duration": 1.3333319999999844
        },
        {
          "name": "E3",
          "midi": 52,
          "time": 328.4684215312495,
          "velocity": 0.7874015748031497,
          "duration": 0.16666650000001937
        },
        {
          "name": "B3",
          "midi": 59,
          "time": 328.4684215312495,
          "velocity": 0.7874015748031497,
          "duration": 0.16666650000001937
        },
        {
          "name": "E3",
          "midi": 52,
          "time": 328.9684210312495,
          "velocity": 0.7874015748031497,
          "duration": 0.16666650000001937
        },
        {
          "name": "B3",
          "midi": 59,
          "time": 328.9684210312495,
          "velocity": 0.7874015748031497,
          "duration": 0.16666650000001937
        },
        {
          "name": "E3",
          "midi": 52,
          "time": 329.4684205312495,
          "velocity": 0.7874015748031497,
          "duration": 0.3333329999999819
        },
        {
          "name": "B3",
          "midi": 59,
          "time": 329.4684205312495,
          "velocity": 0.7874015748031497,
          "duration": 0.3333329999999819
        },
        {
          "name": "B2",
          "midi": 47,
          "time": 329.80175353124946,
          "velocity": 0.7874015748031497,
          "duration": 0.16666650000001937
        },
        {
          "name": "F#3",
          "midi": 54,
          "time": 329.80175353124946,
          "velocity": 0.7874015748031497,
          "duration": 0.16666650000001937
        },
        {
          "name": "B2",
          "midi": 47,
          "time": 330.30175303124946,
          "velocity": 0.7874015748031497,
          "duration": 0.16666650000001937
        },
        {
          "name": "F#3",
          "midi": 54,
          "time": 330.30175303124946,
          "velocity": 0.7874015748031497,
          "duration": 0.16666650000001937
        },
        {
          "name": "B2",
          "midi": 47,
          "time": 330.80175253124946,
          "velocity": 0.7874015748031497,
          "duration": 0.3333329999999819
        },
        {
          "name": "F#3",
          "midi": 54,
          "time": 330.80175253124946,
          "velocity": 0.7874015748031497,
          "duration": 0.3333329999999819
        },
        {
          "name": "E3",
          "midi": 52,
          "time": 331.13508553124944,
          "velocity": 0.7874015748031497,
          "duration": 0.9999990000000025
        },
        {
          "name": "B3",
          "midi": 59,
          "time": 331.13508553124944,
          "velocity": 0.7874015748031497,
          "duration": 0.9999990000000025
        },
        {
          "name": "C3",
          "midi": 48,
          "time": 332.46841753124943,
          "velocity": 0.7874015748031497,
          "duration": 0.11111099999999396
        },
        {
          "name": "C3",
          "midi": 48,
          "time": 332.6906395312494,
          "velocity": 0.7874015748031497,
          "duration": 0.11111099999999396
        },
        {
          "name": "C3",
          "midi": 48,
          "time": 332.9128615312494,
          "velocity": 0.7874015748031497,
          "duration": 0.11111099999999396
        },
        {
          "name": "C3",
          "midi": 48,
          "time": 333.1350835312494,
          "velocity": 0.7874015748031497,
          "duration": 0.11111099999999396
        },
        {
          "name": "C3",
          "midi": 48,
          "time": 333.3573055312494,
          "velocity": 0.7874015748031497,
          "duration": 0.11111099999999396
        },
        {
          "name": "C3",
          "midi": 48,
          "time": 333.57952753124937,
          "velocity": 0.7874015748031497,
          "duration": 0.11111099999999396
        },
        {
          "name": "G2",
          "midi": 43,
          "time": 333.80174953124936,
          "velocity": 0.7874015748031497,
          "duration": 0.49999950000000126
        },
        {
          "name": "D3",
          "midi": 50,
          "time": 333.80174953124936,
          "velocity": 0.7874015748031497,
          "duration": 0.49999950000000126
        },
        {
          "name": "G2",
          "midi": 43,
          "time": 334.30174903124936,
          "velocity": 0.7874015748031497,
          "duration": 0.49999950000000126
        },
        {
          "name": "D3",
          "midi": 50,
          "time": 334.30174903124936,
          "velocity": 0.7874015748031497,
          "duration": 0.49999950000000126
        },
        {
          "name": "G2",
          "midi": 43,
          "time": 334.80174853124936,
          "velocity": 0.7874015748031497,
          "duration": 0.3333329999999819
        },
        {
          "name": "D3",
          "midi": 50,
          "time": 334.80174853124936,
          "velocity": 0.7874015748031497,
          "duration": 0.3333329999999819
        },
        {
          "name": "D3",
          "midi": 50,
          "time": 335.13508153124934,
          "velocity": 0.7874015748031497,
          "duration": 1.3333319999999844
        },
        {
          "name": "A3",
          "midi": 57,
          "time": 335.13508153124934,
          "velocity": 0.7874015748031497,
          "duration": 1.3333319999999844
        },
        {
          "name": "B3",
          "midi": 59,
          "time": 336.4684135312493,
          "velocity": 0.7874015748031497,
          "duration": 0.16666650000001937
        },
        {
          "name": "B3",
          "midi": 59,
          "time": 336.4684135312493,
          "velocity": 0.7874015748031497,
          "duration": 0.16666650000001937
        },
        {
          "name": "E3",
          "midi": 52,
          "time": 336.63508003124934,
          "velocity": 0.7874015748031497,
          "duration": 0.16666650000001937
        },
        {
          "name": "E3",
          "midi": 52,
          "time": 336.80174653124936,
          "velocity": 0.7874015748031497,
          "duration": 0.16666650000001937
        },
        {
          "name": "A3",
          "midi": 57,
          "time": 336.9684130312494,
          "velocity": 0.7874015748031497,
          "duration": 0.16666650000001937
        },
        {
          "name": "E3",
          "midi": 52,
          "time": 337.1350795312494,
          "velocity": 0.7874015748031497,
          "duration": 0.16666650000001937
        },
        {
          "name": "E3",
          "midi": 52,
          "time": 337.3017460312494,
          "velocity": 0.7874015748031497,
          "duration": 0.16666650000001937
        },
        {
          "name": "B3",
          "midi": 59,
          "time": 337.46841253124944,
          "velocity": 0.7874015748031497,
          "duration": 0.16666650000001937
        },
        {
          "name": "C4",
          "midi": 60,
          "time": 337.8017455312495,
          "velocity": 0.7874015748031497,
          "duration": 0.16666650000001937
        },
        {
          "name": "B3",
          "midi": 59,
          "time": 338.1350785312495,
          "velocity": 0.7874015748031497,
          "duration": 0.16666650000001937
        },
        {
          "name": "A3",
          "midi": 57,
          "time": 338.46841153124956,
          "velocity": 0.7874015748031497,
          "duration": 0.16666650000001937
        },
        {
          "name": "G3",
          "midi": 55,
          "time": 338.8017445312496,
          "velocity": 0.7874015748031497,
          "duration": 0.16666650000001937
        },
        {
          "name": "B3",
          "midi": 59,
          "time": 339.13507753124964,
          "velocity": 0.7874015748031497,
          "duration": 0.16666650000001937
        },
        {
          "name": "E3",
          "midi": 52,
          "time": 339.30174403124965,
          "velocity": 0.7874015748031497,
          "duration": 0.16666650000001937
        },
        {
          "name": "E3",
          "midi": 52,
          "time": 339.4684105312497,
          "velocity": 0.7874015748031497,
          "duration": 0.16666650000001937
        },
        {
          "name": "A3",
          "midi": 57,
          "time": 339.6350770312497,
          "velocity": 0.7874015748031497,
          "duration": 0.16666650000001937
        },
        {
          "name": "E3",
          "midi": 52,
          "time": 339.8017435312497,
          "velocity": 0.7874015748031497,
          "duration": 0.16666650000001937
        },
        {
          "name": "E3",
          "midi": 52,
          "time": 339.96841003124973,
          "velocity": 0.7874015748031497,
          "duration": 0.16666650000001937
        },
        {
          "name": "B3",
          "midi": 59,
          "time": 340.13507653124975,
          "velocity": 0.7874015748031497,
          "duration": 0.16666650000001937
        },
        {
          "name": "C4",
          "midi": 60,
          "time": 340.4684095312498,
          "velocity": 0.7874015748031497,
          "duration": 0.11111099999999396
        },
        {
          "name": "B3",
          "midi": 59,
          "time": 340.8017425312498,
          "velocity": 0.7874015748031497,
          "duration": 0.11111099999999396
        },
        {
          "name": "A3",
          "midi": 57,
          "time": 341.13507553124975,
          "velocity": 0.7874015748031497,
          "duration": 0.11111099999999396
        },
        {
          "name": "G3",
          "midi": 55,
          "time": 341.46840853124974,
          "velocity": 0.7874015748031497,
          "duration": 0.3333329999999819
        },
        {
          "name": "B3",
          "midi": 59,
          "time": 341.8017415312497,
          "velocity": 0.7874015748031497,
          "duration": 0.16666650000001937
        },
        {
          "name": "B3",
          "midi": 59,
          "time": 341.8017415312497,
          "velocity": 0.7874015748031497,
          "duration": 0.16666650000001937
        },
        {
          "name": "E3",
          "midi": 52,
          "time": 341.96840803124974,
          "velocity": 0.7874015748031497,
          "duration": 0.16666650000001937
        },
        {
          "name": "E3",
          "midi": 52,
          "time": 342.13507453124976,
          "velocity": 0.7874015748031497,
          "duration": 0.16666650000001937
        },
        {
          "name": "A3",
          "midi": 57,
          "time": 342.3017410312498,
          "velocity": 0.7874015748031497,
          "duration": 0.16666650000001937
        },
        {
          "name": "E3",
          "midi": 52,
          "time": 342.4684075312498,
          "velocity": 0.7874015748031497,
          "duration": 0.16666650000001937
        },
        {
          "name": "E3",
          "midi": 52,
          "time": 342.6350740312498,
          "velocity": 0.7874015748031497,
          "duration": 0.16666650000001937
        },
        {
          "name": "B3",
          "midi": 59,
          "time": 342.80174053124983,
          "velocity": 0.7874015748031497,
          "duration": 0.16666650000001937
        },
        {
          "name": "C4",
          "midi": 60,
          "time": 343.1350735312499,
          "velocity": 0.7874015748031497,
          "duration": 0.16666650000001937
        },
        {
          "name": "B3",
          "midi": 59,
          "time": 343.4684065312499,
          "velocity": 0.7874015748031497,
          "duration": 0.16666650000001937
        },
        {
          "name": "A3",
          "midi": 57,
          "time": 343.80173953124995,
          "velocity": 0.7874015748031497,
          "duration": 0.16666650000001937
        },
        {
          "name": "G3",
          "midi": 55,
          "time": 344.13507253125,
          "velocity": 0.7874015748031497,
          "duration": 0.16666650000001937
        },
        {
          "name": "F#3",
          "midi": 54,
          "time": 344.46840553125,
          "velocity": 0.7874015748031497,
          "duration": 0.49999950000000126
        },
        {
          "name": "G3",
          "midi": 55,
          "time": 344.96840503125003,
          "velocity": 0.7874015748031497,
          "duration": 0.49999950000000126
        },
        {
          "name": "E3",
          "midi": 52,
          "time": 345.46840453125003,
          "velocity": 0.7874015748031497,
          "duration": 0.9999990000000025
        },
        {
          "name": "A3",
          "midi": 57,
          "time": 346.46840353125003,
          "velocity": 0.7874015748031497,
          "duration": 0.3333329999999819
        },
        {
          "name": "G3",
          "midi": 55,
          "time": 346.80173653125,
          "velocity": 0.7874015748031497,
          "duration": 0.3333329999999819
        },
        {
          "name": "F#3",
          "midi": 54,
          "time": 347.13506953125,
          "velocity": 0.7874015748031497,
          "duration": 0.6666660000000206
        },
        {
          "name": "G3",
          "midi": 55,
          "time": 347.80173553125,
          "velocity": 0.7874015748031497,
          "duration": 0.3333329999999819
        },
        {
          "name": "E3",
          "midi": 52,
          "time": 348.13506853125,
          "velocity": 0.7874015748031497,
          "duration": 0.9999990000000025
        },
        {
          "name": "D3",
          "midi": 50,
          "time": 349.13506753125,
          "velocity": 0.7874015748031497,
          "duration": 0.583332750000011
        },
        {
          "name": "B3",
          "midi": 59,
          "time": 349.80173353125,
          "velocity": 0.7874015748031497,
          "duration": 0.16666650000001937
        },
        {
          "name": "B3",
          "midi": 59,
          "time": 349.80173353125,
          "velocity": 0.7874015748031497,
          "duration": 0.16666650000001937
        },
        {
          "name": "E3",
          "midi": 52,
          "time": 349.96840003125004,
          "velocity": 0.7874015748031497,
          "duration": 0.16666650000001937
        },
        {
          "name": "E3",
          "midi": 52,
          "time": 350.13506653125006,
          "velocity": 0.7874015748031497,
          "duration": 0.16666650000001937
        },
        {
          "name": "A3",
          "midi": 57,
          "time": 350.3017330312501,
          "velocity": 0.7874015748031497,
          "duration": 0.16666650000001937
        },
        {
          "name": "E3",
          "midi": 52,
          "time": 350.4683995312501,
          "velocity": 0.7874015748031497,
          "duration": 0.16666650000001937
        },
        {
          "name": "E3",
          "midi": 52,
          "time": 350.6350660312501,
          "velocity": 0.7874015748031497,
          "duration": 0.16666650000001937
        },
        {
          "name": "B3",
          "midi": 59,
          "time": 350.80173253125014,
          "velocity": 0.7874015748031497,
          "duration": 0.16666650000001937
        },
        {
          "name": "C4",
          "midi": 60,
          "time": 351.1350655312502,
          "velocity": 0.7874015748031497,
          "duration": 0.16666650000001937
        },
        {
          "name": "B3",
          "midi": 59,
          "time": 351.4683985312502,
          "velocity": 0.7874015748031497,
          "duration": 0.16666650000001937
        },
        {
          "name": "A3",
          "midi": 57,
          "time": 351.80173153125025,
          "velocity": 0.7874015748031497,
          "duration": 0.16666650000001937
        },
        {
          "name": "G3",
          "midi": 55,
          "time": 352.1350645312503,
          "velocity": 0.7874015748031497,
          "duration": 0.16666650000001937
        },
        {
          "name": "B3",
          "midi": 59,
          "time": 352.46839753125033,
          "velocity": 0.7874015748031497,
          "duration": 0.16666650000001937
        },
        {
          "name": "E3",
          "midi": 52,
          "time": 352.63506403125035,
          "velocity": 0.7874015748031497,
          "duration": 0.16666650000001937
        },
        {
          "name": "E3",
          "midi": 52,
          "time": 352.80173053125037,
          "velocity": 0.7874015748031497,
          "duration": 0.16666650000001937
        },
        {
          "name": "A3",
          "midi": 57,
          "time": 352.9683970312504,
          "velocity": 0.7874015748031497,
          "duration": 0.16666650000001937
        },
        {
          "name": "E3",
          "midi": 52,
          "time": 353.1350635312504,
          "velocity": 0.7874015748031497,
          "duration": 0.16666650000001937
        },
        {
          "name": "E3",
          "midi": 52,
          "time": 353.30173003125043,
          "velocity": 0.7874015748031497,
          "duration": 0.16666650000001937
        },
        {
          "name": "B3",
          "midi": 59,
          "time": 353.46839653125045,
          "velocity": 0.7874015748031497,
          "duration": 0.16666650000001937
        },
        {
          "name": "C4",
          "midi": 60,
          "time": 353.8017295312505,
          "velocity": 0.7874015748031497,
          "duration": 0.11111099999999396
        },
        {
          "name": "B3",
          "midi": 59,
          "time": 354.13506253125047,
          "velocity": 0.7874015748031497,
          "duration": 0.11111099999999396
        },
        {
          "name": "A3",
          "midi": 57,
          "time": 354.46839553125045,
          "velocity": 0.7874015748031497,
          "duration": 0.11111099999999396
        },
        {
          "name": "G3",
          "midi": 55,
          "time": 354.80172853125043,
          "velocity": 0.7874015748031497,
          "duration": 0.3333329999999819
        },
        {
          "name": "B3",
          "midi": 59,
          "time": 355.1350615312504,
          "velocity": 0.7874015748031497,
          "duration": 0.16666650000001937
        },
        {
          "name": "B3",
          "midi": 59,
          "time": 355.1350615312504,
          "velocity": 0.7874015748031497,
          "duration": 0.16666650000001937
        },
        {
          "name": "E3",
          "midi": 52,
          "time": 355.30172803125043,
          "velocity": 0.7874015748031497,
          "duration": 0.16666650000001937
        },
        {
          "name": "E3",
          "midi": 52,
          "time": 355.46839453125045,
          "velocity": 0.7874015748031497,
          "duration": 0.16666650000001937
        },
        {
          "name": "A3",
          "midi": 57,
          "time": 355.6350610312505,
          "velocity": 0.7874015748031497,
          "duration": 0.16666650000001937
        },
        {
          "name": "E3",
          "midi": 52,
          "time": 355.8017275312505,
          "velocity": 0.7874015748031497,
          "duration": 0.16666650000001937
        },
        {
          "name": "E3",
          "midi": 52,
          "time": 355.9683940312505,
          "velocity": 0.7874015748031497,
          "duration": 0.16666650000001937
        },
        {
          "name": "B3",
          "midi": 59,
          "time": 356.13506053125053,
          "velocity": 0.7874015748031497,
          "duration": 0.16666650000001937
        },
        {
          "name": "C4",
          "midi": 60,
          "time": 356.46839353125057,
          "velocity": 0.7874015748031497,
          "duration": 0.16666650000001937
        },
        {
          "name": "B3",
          "midi": 59,
          "time": 356.8017265312506,
          "velocity": 0.7874015748031497,
          "duration": 0.16666650000001937
        },
        {
          "name": "A3",
          "midi": 57,
          "time": 357.13505953125065,
          "velocity": 0.7874015748031497,
          "duration": 0.16666650000001937
        },
        {
          "name": "G3",
          "midi": 55,
          "time": 357.4683925312507,
          "velocity": 0.7874015748031497,
          "duration": 0.16666650000001937
        },
        {
          "name": "C4",
          "midi": 60,
          "time": 357.8017255312507,
          "velocity": 0.7874015748031497,
          "duration": 0.11111099999999396
        },
        {
          "name": "F#4",
          "midi": 66,
          "time": 358.1350585312507,
          "velocity": 0.7874015748031497,
          "duration": 0.11111099999999396
        },
        {
          "name": "B4",
          "midi": 71,
          "time": 358.4683915312507,
          "velocity": 0.7874015748031497,
          "duration": 0.11111099999999396
        },
        {
          "name": "D5",
          "midi": 74,
          "time": 358.80172453125067,
          "velocity": 0.7874015748031497,
          "duration": 0.11111099999999396
        },
        {
          "name": "G5",
          "midi": 79,
          "time": 359.13505753125065,
          "velocity": 0.7874015748031497,
          "duration": 1.3333319999999844
        },
        {
          "name": "D4",
          "midi": 62,
          "time": 360.46838953125064,
          "velocity": 0.7874015748031497,
          "duration": 0.11111099999999396
        },
        {
          "name": "G4",
          "midi": 67,
          "time": 360.8017225312506,
          "velocity": 0.7874015748031497,
          "duration": 0.11111099999999396
        },
        {
          "name": "C5",
          "midi": 72,
          "time": 361.1350555312506,
          "velocity": 0.7874015748031497,
          "duration": 0.11111099999999396
        },
        {
          "name": "F#5",
          "midi": 78,
          "time": 361.4683885312506,
          "velocity": 0.7874015748031497,
          "duration": 0.11111099999999396
        },
        {
          "name": "A5",
          "midi": 81,
          "time": 361.69061053125057,
          "velocity": 0.7874015748031497,
          "duration": 0.7777770000000146
        },
        {
          "name": "B5",
          "midi": 83,
          "time": 362.4683875312506,
          "velocity": 0.7874015748031497,
          "duration": 0.6666660000000206
        },
        {
          "name": "G5",
          "midi": 79,
          "time": 363.1350535312506,
          "velocity": 0.7874015748031497,
          "duration": 2.6666640000000257
        }
      ],
      "controlChanges": {},
      "id": 1,
      "name": "MIDI Guitar Intermediate",
      "channelNumber": 0,
      "isPercussion": false
    }
  ]
}