<svg xmlns="http://www.w3.org/2000/svg" fill-rule="evenodd" stroke-linejoin="round" stroke-miterlimit="2" clip-rule="evenodd" viewBox="0 0 96 96"><path fill="none" d="M0 0h96v96H0z"/><path fill="#f32525" d="M43.965 23.489a2.857 2.857 0 0 1 1.812 2.508c-.376 6.043-10.38 14.891-1.848 23.424 7.178 7.178 10.51 6.871 13.578 5.627a3.939 3.939 0 0 1 4.442 6.245 30.953 30.953 0 0 1-1.475 1.553c-3.12 3.091-6.862 5.148-10.764 6.157-4.732 1.192-6.329 6.968-7.278 11.738-.593 3.122-2.046 5.995-4.361 8.289-7.071 7.007-17.023 2.788-26.93-7.119C-.406 70.365-.097 59.243 6.974 52.236c2.315-2.294 5.208-3.728 8.341-4.328 4.787-.922 11.579-.572 13.805-9.175 1.005-3.886 3.141-7.589 6.26-10.68 5.306-5.257 6.945-5.277 8.585-4.564Z"/><path fill="#fff" fill-opacity=".5" d="M13.762 52.456S3.28 58.992 7.34 68.915c.278.68 1.137 1.035 1.917.793.78-.243 1.187-.992.909-1.672C6.843 59.914 15.5 54.589 15.5 54.589c.675-.418.833-1.235.354-1.824-.48-.589-1.417-.727-2.092-.309Z"/><path fill-opacity=".15" d="M59.051 54.76a3.94 3.94 0 0 1 2.898 6.533 30.953 30.953 0 0 1-1.475 1.553c-3.12 3.091-6.862 5.148-10.764 6.157-4.732 1.192-6.329 6.968-7.278 11.738-.593 3.122-2.046 5.995-4.361 8.289-7.071 7.007-17.023 2.788-26.93-7.119a45.703 45.703 0 0 1-1.71-1.802c9.178 8.391 18.211 11.545 24.767 5.049 2.316-2.295 3.769-5.168 4.361-8.29.95-4.77 2.546-10.546 7.278-11.737 3.902-1.009 7.645-3.066 10.764-6.158a29.666 29.666 0 0 0 1.475-1.553 3.928 3.928 0 0 0 .975-2.66ZM41.73 23.283c.907-.251 1.571-.083 2.235.206a2.857 2.857 0 0 1 1.812 2.508c-.355 5.701-9.279 13.899-3.124 21.972a46.869 46.869 0 0 1-2.597-2.421c-8.002-8.002.301-16.283 1.674-22.265Z"/><path fill="#333" d="m80.7 17.511-4.749-4.749-36.784 34.381a2 2 0 0 0-.049 2.876l4.26 4.26a1.998 1.998 0 0 0 2.873-.046L80.7 17.511Z"/><path fill="#f3b725" d="m75.951 12.762.004-.2a6.116 6.116 0 0 1 4.049-5.651l8.835-3.17a4.13 4.13 0 0 1 4.653 1.35 2.399 2.399 0 0 1-1.391 3.824l-1.117.238a2.753 2.753 0 0 0-1.952 1.598l-1.385 3.194a6.115 6.115 0 0 1-6.355 3.638l-.592-.072-4.749-4.749Z"/><path fill-opacity=".15" d="M91.362 3.656a4.124 4.124 0 0 1 2.13 1.435 2.399 2.399 0 0 1-1.391 3.824l-1.117.238a2.753 2.753 0 0 0-1.952 1.598l-1.385 3.194a6.115 6.115 0 0 1-6.355 3.638l-.592-.072-2.62-2.62.593.073a6.117 6.117 0 0 0 6.354-3.638l1.385-3.194a2.753 2.753 0 0 1 1.952-1.598l1.117-.238a2.402 2.402 0 0 0 1.881-2.64Z"/><path fill="#4f4f4f" d="m29.922 55.738 7.392 7.393a1.502 1.502 0 0 0 2.122 0 1.502 1.502 0 0 0 0-2.122l-7.393-7.393a1.501 1.501 0 0 0-2.121 2.122Z"/><path fill="#ebebeb" d="m20.663 64.996 7.393 7.393a1.501 1.501 0 0 0 2.122-2.121l-7.393-7.393a1.5 1.5 0 0 0-2.122 2.121zm14.241 15.525.865-.865a1.5 1.5 0 1 0-2.121-2.121l-.865.865a1.5 1.5 0 1 0 2.121 2.121zm3.647-8.648.866-.865a1.502 1.502 0 0 0 0-2.122 1.502 1.502 0 0 0-2.122 0l-.865.866a1.5 1.5 0 1 0 2.121 2.121zm9.605-19.671 2.037-2.171a1.838 1.838 0 0 0-.095-.103l-2.826-2.827a1.501 1.501 0 0 0-2.122 2.121l2.827 2.827c.056.056.116.108.179.153zm5.1-5.437 2.054-2.189-2.757-2.756a1.5 1.5 0 1 0-2.121 2.121l2.824 2.824zm4.617-4.921 2.041-2.175a1.991 1.991 0 0 0-.077-.083l-2.068-2.068a1.501 1.501 0 0 0-2.121 2.122l2.068 2.068c.049.049.102.095.157.136zm5.154-5.494 1.97-2.1a1.46 1.46 0 0 0-.232-.298l-1.715-1.715a1.5 1.5 0 1 0-2.121 2.121l1.715 1.715c.115.115.245.208.383.277zm5.417-5.775 2.017-2.15a1.542 1.542 0 0 0-.15-.175l-1.637-1.637a1.501 1.501 0 0 0-2.121 0 1.501 1.501 0 0 0 0 2.121l1.637 1.637c.078.079.164.147.254.204zm5.927-6.318 2.053-2.188-1.603-1.603a1.5 1.5 0 1 0-2.121 2.121l1.636 1.637.035.033z"/><path fill-opacity=".15" d="m80.7 17.511-2.496-2.496-36.92 37.169 2.094 2.095a1.998 1.998 0 0 0 2.873-.046L80.7 17.511Z"/><path d="M51.75 56.795c2.559.827 4.489.388 6.337-.362a2.439 2.439 0 0 1 2.75 3.867c-.408.465-.876.954-1.402 1.476-2.923 2.896-6.429 4.825-10.084 5.77-2.262.569-3.951 1.995-5.209 3.897-1.674 2.532-2.559 5.954-3.165 9l-.002.013c-.537 2.826-1.848 5.427-3.944 7.504-3.107 3.079-6.853 3.66-10.905 2.415-4.421-1.359-9.158-4.779-13.908-9.529C1.482 70.11 1.471 59.812 8.046 53.297c2.1-2.081 4.726-3.376 7.568-3.921h.001c5.244-1.01 12.535-.848 14.973-10.272.941-3.636 2.945-7.098 5.864-9.99 2.004-1.985 3.444-3.19 4.562-3.865 1.13-.683 1.744-.661 2.37-.389l.05.02c.472.185.799.616.855 1.115-.128 1.568-.989 3.322-1.915 5.231-1.084 2.238-2.286 4.646-2.911 7.137a1.5 1.5 0 0 0 2.91.73c.697-2.778 2.196-5.433 3.317-7.85.86-1.855 1.503-3.595 1.601-5.157a1.683 1.683 0 0 0 0-.174 4.36 4.36 0 0 0-2.739-3.816c-1.903-.822-4.048-1.221-10.211 4.887-3.32 3.29-5.587 7.234-6.657 11.369-1.358 5.249-4.681 6.659-7.974 7.318-1.616.323-3.229.484-4.661.76-3.425.656-6.584 2.228-9.115 4.736-7.568 7.499-8.195 19.443 4.163 31.801 5.156 5.157 10.348 8.8 15.148 10.275 5.169 1.589 9.934.777 13.898-3.151 2.533-2.51 4.127-5.651 4.777-9.066.449-2.255 1.038-4.752 2.087-6.822.906-1.789 2.152-3.263 4.085-3.75a.036.036 0 0 1 .01-.002c4.148-1.073 8.128-3.258 11.444-6.544a32.126 32.126 0 0 0 1.548-1.631 5.44 5.44 0 0 0-6.134-8.623c-1.251.507-2.555.847-4.287.287a1.502 1.502 0 0 0-1.889.966 1.502 1.502 0 0 0 .966 1.889Z"/><path d="M81.81 18.532a1.5 1.5 0 0 0-.033-2.087l-4.749-4.748a1.5 1.5 0 0 0-2.085-.035L38.159 46.043a3.498 3.498 0 0 0-.085 5.031l4.26 4.261a3.5 3.5 0 0 0 5.027-.081L81.81 18.532Zm-3.182-.993L45.173 53.202a.5.5 0 0 1-.718.011l-4.26-4.26a.5.5 0 0 1 .012-.719l35.725-33.39 2.696 2.695Z"/><path d="M80.024 17.199c-.48-.774-.808-.271-.808.307a1.5 1.5 0 0 0 1.329 1.49h-.004l.586.071a7.614 7.614 0 0 0 7.912-4.53l1.385-3.194a1.25 1.25 0 0 1 .889-.727l1.117-.239a3.898 3.898 0 0 0 2.26-6.214l-.004-.005a5.629 5.629 0 0 0-6.337-1.834l-8.835 3.17a7.602 7.602 0 0 0-2.306 1.319 1.501 1.501 0 0 0 1.922 2.304c.408-.34.878-.613 1.397-.799l8.835-3.17a2.63 2.63 0 0 1 2.96.856l.004.005a.9.9 0 0 1-.522 1.434l-1.117.239a4.25 4.25 0 0 0-3.015 2.468l-1.385 3.194a4.617 4.617 0 0 1-4.796 2.746l-.586-.072c-.889-.109-1.013.491-.881 1.181zM29.938 55.733l7.393 7.393a1.501 1.501 0 0 0 2.121-2.122l-7.393-7.392a1.5 1.5 0 1 0-2.121 2.121zm15.228-6.516 2.827 2.827a1.5 1.5 0 1 0 2.121-2.121l-2.826-2.827a1.501 1.501 0 0 0-2.122 2.121zm10.498-9.582 2.068 2.068a1.501 1.501 0 0 0 2.121-2.122l-2.068-2.068a1.501 1.501 0 0 0-2.121 2.122zm10.905-10.906 1.637 1.637a1.5 1.5 0 1 0 2.121-2.121l-1.636-1.637a1.501 1.501 0 0 0-2.122 2.121zM50.448 43.936l2.826 2.826a1.5 1.5 0 0 0 2.122-2.121l-2.827-2.826a1.5 1.5 0 1 0-2.121 2.121zm10.497-9.583 1.715 1.715a1.5 1.5 0 1 0 2.121-2.121l-1.714-1.715a1.501 1.501 0 0 0-2.122 2.121zm11.771-11.77 1.637 1.636a1.5 1.5 0 1 0 2.121-2.121l-1.637-1.637a1.501 1.501 0 0 0-2.121 2.122zM20.68 64.991l7.393 7.393a1.501 1.501 0 0 0 2.121 0 1.501 1.501 0 0 0 0-2.121l-7.393-7.393a1.5 1.5 0 1 0-2.121 2.121zm14.24 15.525.866-.865a1.501 1.501 0 0 0-2.122-2.121l-.865.865a1.5 1.5 0 1 0 2.121 2.121zm3.648-8.648.865-.865a1.5 1.5 0 1 0-2.121-2.121l-.866.865a1.501 1.501 0 0 0 2.122 2.121z"/></svg>