{
  "header": {
    "PPQ": 480,
    "bpm": 172.00010320006191,
    "timeSignature": [
      4,
      4
    ],
    "name": "Dentalist Beginner Midi Git"
  },
  "tempo": [
    {
      "absoluteTime": 0,
      "seconds": 0,
      "bpm": 172.00010320006191
    }
  ],
  "timeSignature": [
    {
      "absoluteTime": 0,
      "seconds": 0,
      "numerator": 4,
      "denominator": 2,
      "click": 24,
      "notesQ": 8
    },
    {
      "absoluteTime": 7680,
      "seconds": 5.581392,
      "numerator": 4,
      "denominator": 2,
      "click": 24,
      "notesQ": 8
    },
    {
      "absoluteTime": 9600,
      "seconds": 6.97674,
      "numerator": 4,
      "denominator": 2,
      "click": 24,
      "notesQ": 8
    },
    {
      "absoluteTime": 11520,
      "seconds": 8.372088,
      "numerator": 4,
      "denominator": 2,
      "click": 24,
      "notesQ": 8
    },
    {
      "absoluteTime": 44160,
      "seconds": 32.093004,
      "numerator": 4,
      "denominator": 2,
      "click": 24,
      "notesQ": 8
    },
    {
      "absoluteTime": 65280,
      "seconds": 47.441832000000005,
      "numerator": 4,
      "denominator": 2,
      "click": 24,
      "notesQ": 8
    },
    {
      "absoluteTime": 124800,
      "seconds": 90.69762,
      "numerator": 4,
      "denominator": 2,
      "click": 24,
      "notesQ": 8
    },
    {
      "absoluteTime": 153600,
      "seconds": 111.62784,
      "numerator": 4,
      "denominator": 2,
      "click": 24,
      "notesQ": 8
    },
    {
      "absoluteTime": 157440,
      "seconds": 114.418536,
      "numerator": 4,
      "denominator": 2,
      "click": 24,
      "notesQ": 8
    },
    {
      "absoluteTime": 176640,
      "seconds": 128.372016,
      "numerator": 4,
      "denominator": 2,
      "click": 24,
      "notesQ": 8
    },
    {
      "absoluteTime": 211200,
      "seconds": 153.48828,
      "numerator": 4,
      "denominator": 2,
      "click": 24,
      "notesQ": 8
    },
    {
      "absoluteTime": 216960,
      "seconds": 157.674324,
      "numerator": 4,
      "denominator": 2,
      "click": 24,
      "notesQ": 8
    },
    {
      "absoluteTime": 577920,
      "seconds": 419.99974800000007,
      "numerator": 4,
      "denominator": 2,
      "click": 24,
      "notesQ": 8
    },
    {
      "absoluteTime": 583680,
      "seconds": 424.18579200000005,
      "numerator": 4,
      "denominator": 2,
      "click": 24,
      "notesQ": 8
    },
    {
      "absoluteTime": 606720,
      "seconds": 440.92996800000003,
      "numerator": 4,
      "denominator": 2,
      "click": 24,
      "notesQ": 8
    },
    {
      "absoluteTime": 612480,
      "seconds": 445.116012,
      "numerator": 4,
      "denominator": 2,
      "click": 24,
      "notesQ": 8
    }
  ],
  "startTime": 0,
  "duration": 269.86030320000185,
  "tracks": [
    {
      "startTime": 0,
      "duration": 0,
      "length": 0,
      "notes": [],
      "controlChanges": {},
      "id": 0,
      "name": "Dentalist Beginner Midi Git"
    },
    {
      "startTime": 2.9999982,
      "duration": 269.86030320000185,
      "length": 1422,
      "notes": [
        {
          "name": "E4",
          "midi": 64,
          "time": 2.9999982,
          "velocity": 0.7874015748031497,
          "duration": 0.1744184999999998
        },
        {
          "name": "G4",
          "midi": 67,
          "time": 3.177323675,
          "velocity": 0.7874015748031497,
          "duration": 0.17441850000000025
        },
        {
          "name": "F#4",
          "midi": 66,
          "time": 3.3488352,
          "velocity": 0.7874015748031497,
          "duration": 0.08720925000000035
        },
        {
          "name": "G4",
          "midi": 67,
          "time": 3.4360444500000002,
          "velocity": 0.7874015748031497,
          "duration": 0.0872092499999999
        },
        {
          "name": "F#4",
          "midi": 66,
          "time": 3.5232537,
          "velocity": 0.7874015748031497,
          "duration": 0.0872092499999999
        },
        {
          "name": "G4",
          "midi": 67,
          "time": 3.61046295,
          "velocity": 0.7874015748031497,
          "duration": 0.0872092499999999
        },
        {
          "name": "E4",
          "midi": 64,
          "time": 3.6976722,
          "velocity": 0.7874015748031497,
          "duration": 0.1744184999999998
        },
        {
          "name": "G4",
          "midi": 67,
          "time": 3.874997675,
          "velocity": 0.7874015748031497,
          "duration": 0.17441850000000025
        },
        {
          "name": "F#4",
          "midi": 66,
          "time": 4.0465092,
          "velocity": 0.7874015748031497,
          "duration": 0.0872092499999999
        },
        {
          "name": "G4",
          "midi": 67,
          "time": 4.13371845,
          "velocity": 0.7874015748031497,
          "duration": 0.0872092499999999
        },
        {
          "name": "F#4",
          "midi": 66,
          "time": 4.2209277,
          "velocity": 0.7874015748031497,
          "duration": 0.0872092499999999
        },
        {
          "name": "G4",
          "midi": 67,
          "time": 4.30813695,
          "velocity": 0.7874015748031497,
          "duration": 0.0872092499999999
        },
        {
          "name": "E4",
          "midi": 64,
          "time": 4.3953462,
          "velocity": 0.7874015748031497,
          "duration": 0.17950570624999962
        },
        {
          "name": "G4",
          "midi": 67,
          "time": 4.5697646999999995,
          "velocity": 0.7874015748031497,
          "duration": 0.1744184999999998
        },
        {
          "name": "F#4",
          "midi": 66,
          "time": 4.744183199999999,
          "velocity": 0.7874015748031497,
          "duration": 0.1744184999999998
        },
        {
          "name": "E4",
          "midi": 64,
          "time": 4.918601699999999,
          "velocity": 0.7874015748031497,
          "duration": 0.1744184999999998
        },
        {
          "name": "D4",
          "midi": 62,
          "time": 5.093020199999999,
          "velocity": 0.7874015748031497,
          "duration": 0.3488369999999996
        },
        {
          "name": "B3",
          "midi": 59,
          "time": 5.4418571999999985,
          "velocity": 0.7874015748031497,
          "duration": 0.3488369999999996
        },
        {
          "name": "E4",
          "midi": 64,
          "time": 5.7899674562499985,
          "velocity": 0.7874015748031497,
          "duration": 0.1744184999999998
        },
        {
          "name": "G4",
          "midi": 67,
          "time": 5.9672929312499985,
          "velocity": 0.7874015748031497,
          "duration": 0.1744184999999998
        },
        {
          "name": "F#4",
          "midi": 66,
          "time": 6.138804456249998,
          "velocity": 0.7874015748031497,
          "duration": 0.0872092499999999
        },
        {
          "name": "G4",
          "midi": 67,
          "time": 6.226740449999998,
          "velocity": 0.7874015748031497,
          "duration": 0.08648250625000031
        },
        {
          "name": "F#4",
          "midi": 66,
          "time": 6.313222956249998,
          "velocity": 0.7874015748031497,
          "duration": 0.0872092499999999
        },
        {
          "name": "G4",
          "midi": 67,
          "time": 6.400432206249998,
          "velocity": 0.7874015748031497,
          "duration": 0.0872092499999999
        },
        {
          "name": "E4",
          "midi": 64,
          "time": 6.487641456249998,
          "velocity": 0.7874015748031497,
          "duration": 0.1744184999999998
        },
        {
          "name": "G4",
          "midi": 67,
          "time": 6.664966931249998,
          "velocity": 0.7874015748031497,
          "duration": 0.1744184999999998
        },
        {
          "name": "F#4",
          "midi": 66,
          "time": 6.836478456249997,
          "velocity": 0.7874015748031497,
          "duration": 0.0872092499999999
        },
        {
          "name": "G4",
          "midi": 67,
          "time": 6.923687706249997,
          "velocity": 0.7874015748031497,
          "duration": 0.0872092499999999
        },
        {
          "name": "F#4",
          "midi": 66,
          "time": 7.010896956249997,
          "velocity": 0.7874015748031497,
          "duration": 0.0872092499999999
        },
        {
          "name": "G4",
          "midi": 67,
          "time": 7.098106206249997,
          "velocity": 0.7874015748031497,
          "duration": 0.0872092499999999
        },
        {
          "name": "D4",
          "midi": 62,
          "time": 7.186042199999997,
          "velocity": 0.7874015748031497,
          "duration": 0.1744184999999998
        },
        {
          "name": "E4",
          "midi": 64,
          "time": 7.360460699999996,
          "velocity": 0.7874015748031497,
          "duration": 0.1744184999999998
        },
        {
          "name": "F#4",
          "midi": 66,
          "time": 7.534879199999996,
          "velocity": 0.7874015748031497,
          "duration": 0.1744184999999998
        },
        {
          "name": "G4",
          "midi": 67,
          "time": 7.709297699999996,
          "velocity": 0.7874015748031497,
          "duration": 0.1744184999999998
        },
        {
          "name": "A4",
          "midi": 69,
          "time": 7.883716199999996,
          "velocity": 0.7874015748031497,
          "duration": 0.3488370000000005
        },
        {
          "name": "B4",
          "midi": 71,
          "time": 8.232553199999996,
          "velocity": 0.7874015748031497,
          "duration": 0.3488369999999996
        },
        {
          "name": "E4",
          "midi": 64,
          "time": 8.581390199999996,
          "velocity": 0.7874015748031497,
          "duration": 0.1744184999999998
        },
        {
          "name": "G4",
          "midi": 67,
          "time": 8.758715674999996,
          "velocity": 0.7874015748031497,
          "duration": 0.1744184999999998
        },
        {
          "name": "F#4",
          "midi": 66,
          "time": 8.930227199999996,
          "velocity": 0.7874015748031497,
          "duration": 0.0872092500000008
        },
        {
          "name": "G4",
          "midi": 67,
          "time": 9.017436449999996,
          "velocity": 0.7874015748031497,
          "duration": 0.0872092500000008
        },
        {
          "name": "F#4",
          "midi": 66,
          "time": 9.104645699999997,
          "velocity": 0.7874015748031497,
          "duration": 0.0872092500000008
        },
        {
          "name": "G4",
          "midi": 67,
          "time": 9.191854949999998,
          "velocity": 0.7874015748031497,
          "duration": 0.0872092500000008
        },
        {
          "name": "E4",
          "midi": 64,
          "time": 9.279064199999999,
          "velocity": 0.7874015748031497,
          "duration": 0.1744184999999998
        },
        {
          "name": "G4",
          "midi": 67,
          "time": 9.456389674999999,
          "velocity": 0.7874015748031497,
          "duration": 0.1744184999999998
        },
        {
          "name": "F#4",
          "midi": 66,
          "time": 9.627901199999998,
          "velocity": 0.7874015748031497,
          "duration": 0.0872092500000008
        },
        {
          "name": "G4",
          "midi": 67,
          "time": 9.71511045,
          "velocity": 0.7874015748031497,
          "duration": 0.0872092500000008
        },
        {
          "name": "F#4",
          "midi": 66,
          "time": 9.8023197,
          "velocity": 0.7874015748031497,
          "duration": 0.0872092500000008
        },
        {
          "name": "G4",
          "midi": 67,
          "time": 9.88952895,
          "velocity": 0.7874015748031497,
          "duration": 0.0872092500000008
        },
        {
          "name": "E4",
          "midi": 64,
          "time": 9.976738200000002,
          "velocity": 0.7874015748031497,
          "duration": 0.17950570624999962
        },
        {
          "name": "G4",
          "midi": 67,
          "time": 10.151156700000001,
          "velocity": 0.7874015748031497,
          "duration": 0.1744184999999998
        },
        {
          "name": "F#4",
          "midi": 66,
          "time": 10.325575200000001,
          "velocity": 0.7874015748031497,
          "duration": 0.1744184999999998
        },
        {
          "name": "E4",
          "midi": 64,
          "time": 10.499993700000001,
          "velocity": 0.7874015748031497,
          "duration": 0.1744184999999998
        },
        {
          "name": "D4",
          "midi": 62,
          "time": 10.6744122,
          "velocity": 0.7874015748031497,
          "duration": 0.3488369999999996
        },
        {
          "name": "B3",
          "midi": 59,
          "time": 11.0232492,
          "velocity": 0.7874015748031497,
          "duration": 0.3488370000000014
        },
        {
          "name": "E4",
          "midi": 64,
          "time": 11.371359456250001,
          "velocity": 0.7874015748031497,
          "duration": 0.1744184999999998
        },
        {
          "name": "G4",
          "midi": 67,
          "time": 11.548684931250001,
          "velocity": 0.7874015748031497,
          "duration": 0.1744184999999998
        },
        {
          "name": "F#4",
          "midi": 66,
          "time": 11.720196456250001,
          "velocity": 0.7874015748031497,
          "duration": 0.0872092500000008
        },
        {
          "name": "G4",
          "midi": 67,
          "time": 11.808132450000002,
          "velocity": 0.7874015748031497,
          "duration": 0.08648250625000031
        },
        {
          "name": "F#4",
          "midi": 66,
          "time": 11.894614956250003,
          "velocity": 0.7874015748031497,
          "duration": 0.0872092500000008
        },
        {
          "name": "G4",
          "midi": 67,
          "time": 11.981824206250003,
          "velocity": 0.7874015748031497,
          "duration": 0.0872092500000008
        },
        {
          "name": "E4",
          "midi": 64,
          "time": 12.069033456250004,
          "velocity": 0.7874015748031497,
          "duration": 0.1744184999999998
        },
        {
          "name": "G4",
          "midi": 67,
          "time": 12.246358931250004,
          "velocity": 0.7874015748031497,
          "duration": 0.1744184999999998
        },
        {
          "name": "F#4",
          "midi": 66,
          "time": 12.417870456250004,
          "velocity": 0.7874015748031497,
          "duration": 0.0872092500000008
        },
        {
          "name": "G4",
          "midi": 67,
          "time": 12.505079706250005,
          "velocity": 0.7874015748031497,
          "duration": 0.0872092500000008
        },
        {
          "name": "F#4",
          "midi": 66,
          "time": 12.592288956250005,
          "velocity": 0.7874015748031497,
          "duration": 0.0872092500000008
        },
        {
          "name": "G4",
          "midi": 67,
          "time": 12.679498206250006,
          "velocity": 0.7874015748031497,
          "duration": 0.0872092500000008
        },
        {
          "name": "D4",
          "midi": 62,
          "time": 12.767434200000007,
          "velocity": 0.7874015748031497,
          "duration": 0.1744184999999998
        },
        {
          "name": "E4",
          "midi": 64,
          "time": 12.941852700000007,
          "velocity": 0.7874015748031497,
          "duration": 0.1744184999999998
        },
        {
          "name": "F#4",
          "midi": 66,
          "time": 13.116271200000007,
          "velocity": 0.7874015748031497,
          "duration": 0.1744184999999998
        },
        {
          "name": "G4",
          "midi": 67,
          "time": 13.290689700000007,
          "velocity": 0.7874015748031497,
          "duration": 0.1744184999999998
        },
        {
          "name": "A4",
          "midi": 69,
          "time": 13.465108200000007,
          "velocity": 0.7874015748031497,
          "duration": 0.3488369999999996
        },
        {
          "name": "B4",
          "midi": 71,
          "time": 13.813945200000006,
          "velocity": 0.7874015748031497,
          "duration": 0.3488369999999996
        },
        {
          "name": "E4",
          "midi": 64,
          "time": 14.162782200000006,
          "velocity": 0.7874015748031497,
          "duration": 0.1744184999999998
        },
        {
          "name": "G4",
          "midi": 67,
          "time": 14.340107675000006,
          "velocity": 0.7874015748031497,
          "duration": 0.1744184999999998
        },
        {
          "name": "F#4",
          "midi": 66,
          "time": 14.511619200000005,
          "velocity": 0.7874015748031497,
          "duration": 0.0872092500000008
        },
        {
          "name": "G4",
          "midi": 67,
          "time": 14.598828450000006,
          "velocity": 0.7874015748031497,
          "duration": 0.0872092500000008
        },
        {
          "name": "F#4",
          "midi": 66,
          "time": 14.686037700000007,
          "velocity": 0.7874015748031497,
          "duration": 0.0872092500000008
        },
        {
          "name": "G4",
          "midi": 67,
          "time": 14.773246950000008,
          "velocity": 0.7874015748031497,
          "duration": 0.0872092500000008
        },
        {
          "name": "E4",
          "midi": 64,
          "time": 14.860456200000009,
          "velocity": 0.7874015748031497,
          "duration": 0.1744184999999998
        },
        {
          "name": "G4",
          "midi": 67,
          "time": 15.037781675000009,
          "velocity": 0.7874015748031497,
          "duration": 0.1744184999999998
        },
        {
          "name": "F#4",
          "midi": 66,
          "time": 15.209293200000008,
          "velocity": 0.7874015748031497,
          "duration": 0.0872092500000008
        },
        {
          "name": "G4",
          "midi": 67,
          "time": 15.296502450000009,
          "velocity": 0.7874015748031497,
          "duration": 0.0872092500000008
        },
        {
          "name": "F#4",
          "midi": 66,
          "time": 15.38371170000001,
          "velocity": 0.7874015748031497,
          "duration": 0.0872092500000008
        },
        {
          "name": "G4",
          "midi": 67,
          "time": 15.47092095000001,
          "velocity": 0.7874015748031497,
          "duration": 0.0872092500000008
        },
        {
          "name": "E4",
          "midi": 64,
          "time": 15.558130200000011,
          "velocity": 0.7874015748031497,
          "duration": 0.17950570624999962
        },
        {
          "name": "G4",
          "midi": 67,
          "time": 15.732548700000011,
          "velocity": 0.7874015748031497,
          "duration": 0.1744184999999998
        },
        {
          "name": "F#4",
          "midi": 66,
          "time": 15.906967200000011,
          "velocity": 0.7874015748031497,
          "duration": 0.1744185000000016
        },
        {
          "name": "E4",
          "midi": 64,
          "time": 16.081385700000013,
          "velocity": 0.7874015748031497,
          "duration": 0.1744185000000016
        },
        {
          "name": "D4",
          "midi": 62,
          "time": 16.255804200000014,
          "velocity": 0.7874015748031497,
          "duration": 0.3488369999999996
        },
        {
          "name": "B3",
          "midi": 59,
          "time": 16.604641200000014,
          "velocity": 0.7874015748031497,
          "duration": 0.3488369999999996
        },
        {
          "name": "E4",
          "midi": 64,
          "time": 16.952751456250013,
          "velocity": 0.7874015748031497,
          "duration": 0.1744185000000016
        },
        {
          "name": "G4",
          "midi": 67,
          "time": 17.130076931250013,
          "velocity": 0.7874015748031497,
          "duration": 0.17441849999999803
        },
        {
          "name": "F#4",
          "midi": 66,
          "time": 17.301588456250013,
          "velocity": 0.7874015748031497,
          "duration": 0.08720924999999724
        },
        {
          "name": "G4",
          "midi": 67,
          "time": 17.38952445000001,
          "velocity": 0.7874015748031497,
          "duration": 0.08648250625000031
        },
        {
          "name": "F#4",
          "midi": 66,
          "time": 17.47600695625001,
          "velocity": 0.7874015748031497,
          "duration": 0.0872092500000008
        },
        {
          "name": "G4",
          "midi": 67,
          "time": 17.56321620625001,
          "velocity": 0.7874015748031497,
          "duration": 0.0872092500000008
        },
        {
          "name": "E4",
          "midi": 64,
          "time": 17.650425456250012,
          "velocity": 0.7874015748031497,
          "duration": 0.1744185000000016
        },
        {
          "name": "G4",
          "midi": 67,
          "time": 17.827750931250012,
          "velocity": 0.7874015748031497,
          "duration": 0.17441849999999803
        },
        {
          "name": "F#4",
          "midi": 66,
          "time": 17.999262456250012,
          "velocity": 0.7874015748031497,
          "duration": 0.08720924999999724
        },
        {
          "name": "G4",
          "midi": 67,
          "time": 18.08647170625001,
          "velocity": 0.7874015748031497,
          "duration": 0.0872092500000008
        },
        {
          "name": "F#4",
          "midi": 66,
          "time": 18.17368095625001,
          "velocity": 0.7874015748031497,
          "duration": 0.0872092500000008
        },
        {
          "name": "G4",
          "midi": 67,
          "time": 18.26089020625001,
          "velocity": 0.7874015748031497,
          "duration": 0.0872092500000008
        },
        {
          "name": "D4",
          "midi": 62,
          "time": 18.348826200000012,
          "velocity": 0.7874015748031497,
          "duration": 0.1744185000000016
        },
        {
          "name": "E4",
          "midi": 64,
          "time": 18.523244700000014,
          "velocity": 0.7874015748031497,
          "duration": 0.1744185000000016
        },
        {
          "name": "F#4",
          "midi": 66,
          "time": 18.697663200000015,
          "velocity": 0.7874015748031497,
          "duration": 0.1744185000000016
        },
        {
          "name": "G4",
          "midi": 67,
          "time": 18.872081700000017,
          "velocity": 0.7874015748031497,
          "duration": 0.1744185000000016
        },
        {
          "name": "A4",
          "midi": 69,
          "time": 19.04650020000002,
          "velocity": 0.7874015748031497,
          "duration": 0.3488369999999996
        },
        {
          "name": "B4",
          "midi": 71,
          "time": 19.395337200000018,
          "velocity": 0.7874015748031497,
          "duration": 0.3488369999999996
        },
        {
          "name": "E5",
          "midi": 76,
          "time": 19.744174200000018,
          "velocity": 0.7874015748031497,
          "duration": 1.3953479999999985
        },
        {
          "name": "E3",
          "midi": 52,
          "time": 21.139522200000016,
          "velocity": 0.7874015748031497,
          "duration": 0.0872092500000008
        },
        {
          "name": "E3",
          "midi": 52,
          "time": 21.313940700000018,
          "velocity": 0.7874015748031497,
          "duration": 0.0872092500000008
        },
        {
          "name": "E3",
          "midi": 52,
          "time": 21.48835920000002,
          "velocity": 0.7874015748031497,
          "duration": 0.1744185000000016
        },
        {
          "name": "B3",
          "midi": 59,
          "time": 21.48835920000002,
          "velocity": 0.7874015748031497,
          "duration": 0.1744185000000016
        },
        {
          "name": "E3",
          "midi": 52,
          "time": 21.66277770000002,
          "velocity": 0.7874015748031497,
          "duration": 0.0872092500000008
        },
        {
          "name": "B3",
          "midi": 59,
          "time": 21.837196200000022,
          "velocity": 0.7874015748031497,
          "duration": 0.3488369999999996
        },
        {
          "name": "E3",
          "midi": 52,
          "time": 21.84155666250002,
          "velocity": 0.7874015748031497,
          "duration": 0.3488369999999996
        },
        {
          "name": "E3",
          "midi": 52,
          "time": 22.186033200000022,
          "velocity": 0.7874015748031497,
          "duration": 0.0872092500000008
        },
        {
          "name": "B2",
          "midi": 47,
          "time": 22.360451700000024,
          "velocity": 0.7874015748031497,
          "duration": 0.5232555000000012
        },
        {
          "name": "F#3",
          "midi": 54,
          "time": 22.360451700000024,
          "velocity": 0.7874015748031497,
          "duration": 0.5232555000000012
        },
        {
          "name": "B2",
          "midi": 47,
          "time": 22.883707200000025,
          "velocity": 0.7874015748031497,
          "duration": 1.0465109999999989
        },
        {
          "name": "F#3",
          "midi": 54,
          "time": 22.883707200000025,
          "velocity": 0.7874015748031497,
          "duration": 1.0465109999999989
        },
        {
          "name": "C3",
          "midi": 48,
          "time": 23.930218200000024,
          "velocity": 0.7874015748031497,
          "duration": 0.0872092500000008
        },
        {
          "name": "C3",
          "midi": 48,
          "time": 24.104636700000025,
          "velocity": 0.7874015748031497,
          "duration": 0.0872092500000008
        },
        {
          "name": "C3",
          "midi": 48,
          "time": 24.279055200000027,
          "velocity": 0.7874015748031497,
          "duration": 0.1744185000000016
        },
        {
          "name": "G3",
          "midi": 55,
          "time": 24.279055200000027,
          "velocity": 0.7874015748031497,
          "duration": 0.1744185000000016
        },
        {
          "name": "C3",
          "midi": 48,
          "time": 24.45347370000003,
          "velocity": 0.7874015748031497,
          "duration": 0.0872092500000008
        },
        {
          "name": "G3",
          "midi": 55,
          "time": 24.62789220000003,
          "velocity": 0.7874015748031497,
          "duration": 0.3488369999999996
        },
        {
          "name": "C3",
          "midi": 48,
          "time": 24.63225266250003,
          "velocity": 0.7874015748031497,
          "duration": 0.3488369999999996
        },
        {
          "name": "C3",
          "midi": 48,
          "time": 24.97672920000003,
          "velocity": 0.7874015748031497,
          "duration": 0.0872092500000008
        },
        {
          "name": "F3",
          "midi": 53,
          "time": 25.15114770000003,
          "velocity": 0.7874015748031497,
          "duration": 0.5232555000000012
        },
        {
          "name": "C4",
          "midi": 60,
          "time": 25.15114770000003,
          "velocity": 0.7874015748031497,
          "duration": 0.5232555000000012
        },
        {
          "name": "F3",
          "midi": 53,
          "time": 25.674403200000032,
          "velocity": 0.7874015748031497,
          "duration": 1.0465109999999989
        },
        {
          "name": "C4",
          "midi": 60,
          "time": 25.674403200000032,
          "velocity": 0.7874015748031497,
          "duration": 1.0465109999999989
        },
        {
          "name": "E3",
          "midi": 52,
          "time": 26.72091420000003,
          "velocity": 0.7874015748031497,
          "duration": 0.1744185000000016
        },
        {
          "name": "B3",
          "midi": 59,
          "time": 26.72091420000003,
          "velocity": 0.7874015748031497,
          "duration": 0.1744185000000016
        },
        {
          "name": "E3",
          "midi": 52,
          "time": 26.895332700000033,
          "velocity": 0.7874015748031497,
          "duration": 0.0872092500000008
        },
        {
          "name": "E3",
          "midi": 52,
          "time": 26.982541950000034,
          "velocity": 0.7874015748031497,
          "duration": 0.0872092500000008
        },
        {
          "name": "E3",
          "midi": 52,
          "time": 27.069751200000034,
          "velocity": 0.7874015748031497,
          "duration": 0.0872092500000008
        },
        {
          "name": "E3",
          "midi": 52,
          "time": 27.244169700000036,
          "velocity": 0.7874015748031497,
          "duration": 0.0872092500000008
        },
        {
          "name": "E3",
          "midi": 52,
          "time": 27.331378950000037,
          "velocity": 0.7874015748031497,
          "duration": 0.0872092500000008
        },
        {
          "name": "E3",
          "midi": 52,
          "time": 27.418588200000038,
          "velocity": 0.7874015748031497,
          "duration": 0.0872092500000008
        },
        {
          "name": "E3",
          "midi": 52,
          "time": 27.59300670000004,
          "velocity": 0.7874015748031497,
          "duration": 0.0872092500000008
        },
        {
          "name": "E3",
          "midi": 52,
          "time": 27.68021595000004,
          "velocity": 0.7874015748031497,
          "duration": 0.0872092500000008
        },
        {
          "name": "E3",
          "midi": 52,
          "time": 27.76742520000004,
          "velocity": 0.7874015748031497,
          "duration": 0.0872092500000008
        },
        {
          "name": "E3",
          "midi": 52,
          "time": 27.941843700000042,
          "velocity": 0.7874015748031497,
          "duration": 0.0872092500000008
        },
        {
          "name": "E3",
          "midi": 52,
          "time": 28.029052950000043,
          "velocity": 0.7874015748031497,
          "duration": 0.0872092500000008
        },
        {
          "name": "B2",
          "midi": 47,
          "time": 28.116262200000044,
          "velocity": 0.7874015748031497,
          "duration": 0.1744185000000016
        },
        {
          "name": "F#3",
          "midi": 54,
          "time": 28.116262200000044,
          "velocity": 0.7874015748031497,
          "duration": 0.1744185000000016
        },
        {
          "name": "B2",
          "midi": 47,
          "time": 28.290680700000046,
          "velocity": 0.7874015748031497,
          "duration": 0.0872092500000008
        },
        {
          "name": "B2",
          "midi": 47,
          "time": 28.377889950000046,
          "velocity": 0.7874015748031497,
          "duration": 0.0872092500000008
        },
        {
          "name": "B2",
          "midi": 47,
          "time": 28.465099200000047,
          "velocity": 0.7874015748031497,
          "duration": 0.0872092500000008
        },
        {
          "name": "B2",
          "midi": 47,
          "time": 28.63951770000005,
          "velocity": 0.7874015748031497,
          "duration": 0.0872092500000008
        },
        {
          "name": "B2",
          "midi": 47,
          "time": 28.72672695000005,
          "velocity": 0.7874015748031497,
          "duration": 0.0872092500000008
        },
        {
          "name": "B2",
          "midi": 47,
          "time": 28.81393620000005,
          "velocity": 0.7874015748031497,
          "duration": 0.0872092500000008
        },
        {
          "name": "B2",
          "midi": 47,
          "time": 28.988354700000052,
          "velocity": 0.7874015748031497,
          "duration": 0.0872092500000008
        },
        {
          "name": "B2",
          "midi": 47,
          "time": 29.075563950000053,
          "velocity": 0.7874015748031497,
          "duration": 0.0872092500000008
        },
        {
          "name": "B2",
          "midi": 47,
          "time": 29.162773200000053,
          "velocity": 0.7874015748031497,
          "duration": 0.0872092500000008
        },
        {
          "name": "B2",
          "midi": 47,
          "time": 29.337191700000055,
          "velocity": 0.7874015748031497,
          "duration": 0.0872092500000008
        },
        {
          "name": "B2",
          "midi": 47,
          "time": 29.424400950000056,
          "velocity": 0.7874015748031497,
          "duration": 0.0872092500000008
        },
        {
          "name": "C3",
          "midi": 48,
          "time": 29.511610200000057,
          "velocity": 0.7874015748031497,
          "duration": 0.1744185000000016
        },
        {
          "name": "G3",
          "midi": 55,
          "time": 29.511610200000057,
          "velocity": 0.7874015748031497,
          "duration": 0.1744185000000016
        },
        {
          "name": "C3",
          "midi": 48,
          "time": 29.686028700000058,
          "velocity": 0.7874015748031497,
          "duration": 0.0872092500000008
        },
        {
          "name": "C3",
          "midi": 48,
          "time": 29.77323795000006,
          "velocity": 0.7874015748031497,
          "duration": 0.0872092500000008
        },
        {
          "name": "C3",
          "midi": 48,
          "time": 29.86044720000006,
          "velocity": 0.7874015748031497,
          "duration": 0.0872092500000008
        },
        {
          "name": "C3",
          "midi": 48,
          "time": 30.03486570000006,
          "velocity": 0.7874015748031497,
          "duration": 0.0872092500000008
        },
        {
          "name": "C3",
          "midi": 48,
          "time": 30.122074950000062,
          "velocity": 0.7874015748031497,
          "duration": 0.0872092500000008
        },
        {
          "name": "C3",
          "midi": 48,
          "time": 30.209284200000063,
          "velocity": 0.7874015748031497,
          "duration": 0.0872092500000008
        },
        {
          "name": "C3",
          "midi": 48,
          "time": 30.383702700000065,
          "velocity": 0.7874015748031497,
          "duration": 0.0872092500000008
        },
        {
          "name": "C3",
          "midi": 48,
          "time": 30.470911950000065,
          "velocity": 0.7874015748031497,
          "duration": 0.0872092500000008
        },
        {
          "name": "C3",
          "midi": 48,
          "time": 30.558121200000066,
          "velocity": 0.7874015748031497,
          "duration": 0.0872092500000008
        },
        {
          "name": "C3",
          "midi": 48,
          "time": 30.732539700000068,
          "velocity": 0.7874015748031497,
          "duration": 0.0872092500000008
        },
        {
          "name": "C3",
          "midi": 48,
          "time": 30.81974895000007,
          "velocity": 0.7874015748031497,
          "duration": 0.0872092500000008
        },
        {
          "name": "A2",
          "midi": 45,
          "time": 30.90695820000007,
          "velocity": 0.7874015748031497,
          "duration": 0.1744185000000016
        },
        {
          "name": "E3",
          "midi": 52,
          "time": 30.90695820000007,
          "velocity": 0.7874015748031497,
          "duration": 0.1744185000000016
        },
        {
          "name": "A2",
          "midi": 45,
          "time": 31.08137670000007,
          "velocity": 0.7874015748031497,
          "duration": 0.0872092500000008
        },
        {
          "name": "A2",
          "midi": 45,
          "time": 31.16858595000007,
          "velocity": 0.7874015748031497,
          "duration": 0.0872092500000008
        },
        {
          "name": "A2",
          "midi": 45,
          "time": 31.255795200000072,
          "velocity": 0.7874015748031497,
          "duration": 0.0872092500000008
        },
        {
          "name": "A2",
          "midi": 45,
          "time": 31.430213700000074,
          "velocity": 0.7874015748031497,
          "duration": 0.0872092500000008
        },
        {
          "name": "A2",
          "midi": 45,
          "time": 31.517422950000075,
          "velocity": 0.7874015748031497,
          "duration": 0.0872092500000008
        },
        {
          "name": "A2",
          "midi": 45,
          "time": 31.604632200000076,
          "velocity": 0.7874015748031497,
          "duration": 0.0872092500000008
        },
        {
          "name": "A2",
          "midi": 45,
          "time": 31.779050700000077,
          "velocity": 0.7874015748031497,
          "duration": 0.0872092500000008
        },
        {
          "name": "A2",
          "midi": 45,
          "time": 31.866259950000078,
          "velocity": 0.7874015748031497,
          "duration": 0.0872092500000008
        },
        {
          "name": "A2",
          "midi": 45,
          "time": 31.95346920000008,
          "velocity": 0.7874015748031497,
          "duration": 0.0872092500000008
        },
        {
          "name": "A2",
          "midi": 45,
          "time": 32.12788770000008,
          "velocity": 0.7874015748031497,
          "duration": 0.0872092500000008
        },
        {
          "name": "A2",
          "midi": 45,
          "time": 32.21509695000008,
          "velocity": 0.7874015748031497,
          "duration": 0.0872092500000008
        },
        {
          "name": "E3",
          "midi": 52,
          "time": 32.30230620000008,
          "velocity": 0.7874015748031497,
          "duration": 0.0872092500000008
        },
        {
          "name": "E3",
          "midi": 52,
          "time": 32.476724700000084,
          "velocity": 0.7874015748031497,
          "duration": 0.0872092500000008
        },
        {
          "name": "E3",
          "midi": 52,
          "time": 32.651143200000085,
          "velocity": 0.7874015748031497,
          "duration": 0.1744185000000016
        },
        {
          "name": "B3",
          "midi": 59,
          "time": 32.651143200000085,
          "velocity": 0.7874015748031497,
          "duration": 0.1744185000000016
        },
        {
          "name": "E3",
          "midi": 52,
          "time": 32.82556170000009,
          "velocity": 0.7874015748031497,
          "duration": 0.0872092500000008
        },
        {
          "name": "B3",
          "midi": 59,
          "time": 32.99998020000009,
          "velocity": 0.7874015748031497,
          "duration": 0.3488370000000032
        },
        {
          "name": "E3",
          "midi": 52,
          "time": 33.00434066250009,
          "velocity": 0.7874015748031497,
          "duration": 0.3488370000000032
        },
        {
          "name": "E3",
          "midi": 52,
          "time": 33.34881720000009,
          "velocity": 0.7874015748031497,
          "duration": 0.0872092500000008
        },
        {
          "name": "B2",
          "midi": 47,
          "time": 33.52323570000009,
          "velocity": 0.7874015748031497,
          "duration": 0.5232554999999977
        },
        {
          "name": "F#3",
          "midi": 54,
          "time": 33.52323570000009,
          "velocity": 0.7874015748031497,
          "duration": 0.5232554999999977
        },
        {
          "name": "B2",
          "midi": 47,
          "time": 34.04649120000009,
          "velocity": 0.7874015748031497,
          "duration": 1.0465110000000024
        },
        {
          "name": "F#3",
          "midi": 54,
          "time": 34.04649120000009,
          "velocity": 0.7874015748031497,
          "duration": 1.0465110000000024
        },
        {
          "name": "C3",
          "midi": 48,
          "time": 35.09300220000009,
          "velocity": 0.7874015748031497,
          "duration": 0.0872092500000008
        },
        {
          "name": "C3",
          "midi": 48,
          "time": 35.267420700000095,
          "velocity": 0.7874015748031497,
          "duration": 0.0872092500000008
        },
        {
          "name": "C3",
          "midi": 48,
          "time": 35.441839200000096,
          "velocity": 0.7874015748031497,
          "duration": 0.1744185000000016
        },
        {
          "name": "G3",
          "midi": 55,
          "time": 35.441839200000096,
          "velocity": 0.7874015748031497,
          "duration": 0.1744185000000016
        },
        {
          "name": "C3",
          "midi": 48,
          "time": 35.6162577000001,
          "velocity": 0.7874015748031497,
          "duration": 0.0872092500000008
        },
        {
          "name": "G3",
          "midi": 55,
          "time": 35.7906762000001,
          "velocity": 0.7874015748031497,
          "duration": 0.3488370000000032
        },
        {
          "name": "C3",
          "midi": 48,
          "time": 35.7950366625001,
          "velocity": 0.7874015748031497,
          "duration": 0.3488370000000032
        },
        {
          "name": "C3",
          "midi": 48,
          "time": 36.1395132000001,
          "velocity": 0.7874015748031497,
          "duration": 0.0872092500000008
        },
        {
          "name": "F3",
          "midi": 53,
          "time": 36.313931700000104,
          "velocity": 0.7874015748031497,
          "duration": 0.5232554999999977
        },
        {
          "name": "C4",
          "midi": 60,
          "time": 36.313931700000104,
          "velocity": 0.7874015748031497,
          "duration": 0.5232554999999977
        },
        {
          "name": "F3",
          "midi": 53,
          "time": 36.8371872000001,
          "velocity": 0.7874015748031497,
          "duration": 1.0465110000000024
        },
        {
          "name": "C4",
          "midi": 60,
          "time": 36.8371872000001,
          "velocity": 0.7874015748031497,
          "duration": 1.0465110000000024
        },
        {
          "name": "E3",
          "midi": 52,
          "time": 37.883698200000104,
          "velocity": 0.7874015748031497,
          "duration": 0.1744185000000016
        },
        {
          "name": "B3",
          "midi": 59,
          "time": 37.883698200000104,
          "velocity": 0.7874015748031497,
          "duration": 0.1744185000000016
        },
        {
          "name": "E3",
          "midi": 52,
          "time": 38.058116700000106,
          "velocity": 0.7874015748031497,
          "duration": 0.0872092500000008
        },
        {
          "name": "E3",
          "midi": 52,
          "time": 38.14532595000011,
          "velocity": 0.7874015748031497,
          "duration": 0.0872092500000008
        },
        {
          "name": "E3",
          "midi": 52,
          "time": 38.23253520000011,
          "velocity": 0.7874015748031497,
          "duration": 0.0872092500000008
        },
        {
          "name": "E3",
          "midi": 52,
          "time": 38.40695370000011,
          "velocity": 0.7874015748031497,
          "duration": 0.0872092500000008
        },
        {
          "name": "E3",
          "midi": 52,
          "time": 38.49416295000011,
          "velocity": 0.7874015748031497,
          "duration": 0.0872092500000008
        },
        {
          "name": "E3",
          "midi": 52,
          "time": 38.58137220000011,
          "velocity": 0.7874015748031497,
          "duration": 0.0872092500000008
        },
        {
          "name": "E3",
          "midi": 52,
          "time": 38.75579070000011,
          "velocity": 0.7874015748031497,
          "duration": 0.0872092500000008
        },
        {
          "name": "E3",
          "midi": 52,
          "time": 38.84299995000011,
          "velocity": 0.7874015748031497,
          "duration": 0.0872092500000008
        },
        {
          "name": "E3",
          "midi": 52,
          "time": 38.930209200000114,
          "velocity": 0.7874015748031497,
          "duration": 0.0872092500000008
        },
        {
          "name": "E3",
          "midi": 52,
          "time": 39.104627700000115,
          "velocity": 0.7874015748031497,
          "duration": 0.0872092500000008
        },
        {
          "name": "E3",
          "midi": 52,
          "time": 39.191836950000116,
          "velocity": 0.7874015748031497,
          "duration": 0.0872092500000008
        },
        {
          "name": "B2",
          "midi": 47,
          "time": 39.27904620000012,
          "velocity": 0.7874015748031497,
          "duration": 0.1744185000000016
        },
        {
          "name": "F#3",
          "midi": 54,
          "time": 39.27904620000012,
          "velocity": 0.7874015748031497,
          "duration": 0.1744185000000016
        },
        {
          "name": "B2",
          "midi": 47,
          "time": 39.45346470000012,
          "velocity": 0.7874015748031497,
          "duration": 0.0872092500000008
        },
        {
          "name": "B2",
          "midi": 47,
          "time": 39.54067395000012,
          "velocity": 0.7874015748031497,
          "duration": 0.0872092500000008
        },
        {
          "name": "B2",
          "midi": 47,
          "time": 39.62788320000012,
          "velocity": 0.7874015748031497,
          "duration": 0.0872092500000008
        },
        {
          "name": "B2",
          "midi": 47,
          "time": 39.80230170000012,
          "velocity": 0.7874015748031497,
          "duration": 0.0872092500000008
        },
        {
          "name": "B2",
          "midi": 47,
          "time": 39.88951095000012,
          "velocity": 0.7874015748031497,
          "duration": 0.0872092500000008
        },
        {
          "name": "B2",
          "midi": 47,
          "time": 39.97672020000012,
          "velocity": 0.7874015748031497,
          "duration": 0.0872092500000008
        },
        {
          "name": "B2",
          "midi": 47,
          "time": 40.151138700000125,
          "velocity": 0.7874015748031497,
          "duration": 0.0872092500000008
        },
        {
          "name": "B2",
          "midi": 47,
          "time": 40.238347950000126,
          "velocity": 0.7874015748031497,
          "duration": 0.0872092500000008
        },
        {
          "name": "B2",
          "midi": 47,
          "time": 40.32555720000013,
          "velocity": 0.7874015748031497,
          "duration": 0.0872092500000008
        },
        {
          "name": "B2",
          "midi": 47,
          "time": 40.49997570000013,
          "velocity": 0.7874015748031497,
          "duration": 0.0872092500000008
        },
        {
          "name": "B2",
          "midi": 47,
          "time": 40.58718495000013,
          "velocity": 0.7874015748031497,
          "duration": 0.0872092500000008
        },
        {
          "name": "C3",
          "midi": 48,
          "time": 40.67439420000013,
          "velocity": 0.7874015748031497,
          "duration": 0.1744185000000016
        },
        {
          "name": "G3",
          "midi": 55,
          "time": 40.67439420000013,
          "velocity": 0.7874015748031497,
          "duration": 0.1744185000000016
        },
        {
          "name": "C3",
          "midi": 48,
          "time": 40.84881270000013,
          "velocity": 0.7874015748031497,
          "duration": 0.0872092500000008
        },
        {
          "name": "C3",
          "midi": 48,
          "time": 40.93602195000013,
          "velocity": 0.7874015748031497,
          "duration": 0.0872092500000008
        },
        {
          "name": "C3",
          "midi": 48,
          "time": 41.02323120000013,
          "velocity": 0.7874015748031497,
          "duration": 0.0872092500000008
        },
        {
          "name": "C3",
          "midi": 48,
          "time": 41.197649700000134,
          "velocity": 0.7874015748031497,
          "duration": 0.0872092500000008
        },
        {
          "name": "C3",
          "midi": 48,
          "time": 41.284858950000135,
          "velocity": 0.7874015748031497,
          "duration": 0.0872092500000008
        },
        {
          "name": "C3",
          "midi": 48,
          "time": 41.372068200000136,
          "velocity": 0.7874015748031497,
          "duration": 0.0872092500000008
        },
        {
          "name": "C3",
          "midi": 48,
          "time": 41.54648670000014,
          "velocity": 0.7874015748031497,
          "duration": 0.0872092500000008
        },
        {
          "name": "C3",
          "midi": 48,
          "time": 41.63369595000014,
          "velocity": 0.7874015748031497,
          "duration": 0.0872092500000008
        },
        {
          "name": "C3",
          "midi": 48,
          "time": 41.72090520000014,
          "velocity": 0.7874015748031497,
          "duration": 0.0872092500000008
        },
        {
          "name": "C3",
          "midi": 48,
          "time": 41.89532370000014,
          "velocity": 0.7874015748031497,
          "duration": 0.0872092500000008
        },
        {
          "name": "C3",
          "midi": 48,
          "time": 41.98253295000014,
          "velocity": 0.7874015748031497,
          "duration": 0.0872092500000008
        },
        {
          "name": "A2",
          "midi": 45,
          "time": 42.06974220000014,
          "velocity": 0.7874015748031497,
          "duration": 0.6976739999999992
        },
        {
          "name": "E3",
          "midi": 52,
          "time": 42.06974220000014,
          "velocity": 0.7874015748031497,
          "duration": 0.6976739999999992
        },
        {
          "name": "D3",
          "midi": 50,
          "time": 42.76741620000014,
          "velocity": 0.7874015748031497,
          "duration": 0.6976739999999992
        },
        {
          "name": "A3",
          "midi": 57,
          "time": 42.76741620000014,
          "velocity": 0.7874015748031497,
          "duration": 0.6976739999999992
        },
        {
          "name": "D3",
          "midi": 50,
          "time": 43.46509020000014,
          "velocity": 0.7874015748031497,
          "duration": 0.1744185000000016
        },
        {
          "name": "D3",
          "midi": 50,
          "time": 43.63950870000014,
          "velocity": 0.7874015748031497,
          "duration": 0.1744185000000016
        },
        {
          "name": "D3",
          "midi": 50,
          "time": 43.813927200000144,
          "velocity": 0.7874015748031497,
          "duration": 0.1744185000000016
        },
        {
          "name": "D3",
          "midi": 50,
          "time": 43.988345700000146,
          "velocity": 0.7874015748031497,
          "duration": 0.17078478124999918
        },
        {
          "name": "E4",
          "midi": 64,
          "time": 44.16276420000015,
          "velocity": 0.7874015748031497,
          "duration": 0.1744185000000016
        },
        {
          "name": "E4",
          "midi": 64,
          "time": 44.33718270000015,
          "velocity": 0.7874015748031497,
          "duration": 0.16860454999999774
        },
        {
          "name": "G4",
          "midi": 67,
          "time": 44.51160120000014,
          "velocity": 0.7874015748031497,
          "duration": 0.1744185000000016
        },
        {
          "name": "E4",
          "midi": 64,
          "time": 44.686019700000145,
          "velocity": 0.7874015748031497,
          "duration": 0.1744185000000016
        },
        {
          "name": "F#4",
          "midi": 66,
          "time": 44.86043820000015,
          "velocity": 0.7874015748031497,
          "duration": 0.1744185000000016
        },
        {
          "name": "E4",
          "midi": 64,
          "time": 45.03485670000015,
          "velocity": 0.7874015748031497,
          "duration": 0.1744185000000016
        },
        {
          "name": "G4",
          "midi": 67,
          "time": 45.20927520000015,
          "velocity": 0.7874015748031497,
          "duration": 0.1744185000000016
        },
        {
          "name": "E4",
          "midi": 64,
          "time": 45.38369370000015,
          "velocity": 0.7874015748031497,
          "duration": 0.1744185000000016
        },
        {
          "name": "F#4",
          "midi": 66,
          "time": 45.55811220000015,
          "velocity": 0.7874015748031497,
          "duration": 0.1744185000000016
        },
        {
          "name": "E4",
          "midi": 64,
          "time": 45.732530700000154,
          "velocity": 0.7874015748031497,
          "duration": 0.1744185000000016
        },
        {
          "name": "G4",
          "midi": 67,
          "time": 45.906949200000156,
          "velocity": 0.7874015748031497,
          "duration": 0.1744185000000016
        },
        {
          "name": "E4",
          "midi": 64,
          "time": 46.08136770000016,
          "velocity": 0.7874015748031497,
          "duration": 0.1744185000000016
        },
        {
          "name": "A4",
          "midi": 69,
          "time": 46.25578620000016,
          "velocity": 0.7874015748031497,
          "duration": 0.1744185000000016
        },
        {
          "name": "G4",
          "midi": 67,
          "time": 46.43020470000016,
          "velocity": 0.7874015748031497,
          "duration": 0.1744185000000016
        },
        {
          "name": "F#4",
          "midi": 66,
          "time": 46.60462320000016,
          "velocity": 0.7874015748031497,
          "duration": 0.1744185000000016
        },
        {
          "name": "D4",
          "midi": 62,
          "time": 46.779041700000164,
          "velocity": 0.7874015748031497,
          "duration": 0.1744185000000016
        },
        {
          "name": "E4",
          "midi": 64,
          "time": 46.953460200000166,
          "velocity": 0.7874015748031497,
          "duration": 0.1744185000000016
        },
        {
          "name": "E4",
          "midi": 64,
          "time": 47.12787870000017,
          "velocity": 0.7874015748031497,
          "duration": 0.16860454999999774
        },
        {
          "name": "G4",
          "midi": 67,
          "time": 47.30229720000016,
          "velocity": 0.7874015748031497,
          "duration": 0.1744185000000016
        },
        {
          "name": "E4",
          "midi": 64,
          "time": 47.47671570000016,
          "velocity": 0.7874015748031497,
          "duration": 0.1744185000000016
        },
        {
          "name": "F#4",
          "midi": 66,
          "time": 47.651134200000165,
          "velocity": 0.7874015748031497,
          "duration": 0.1744185000000016
        },
        {
          "name": "E4",
          "midi": 64,
          "time": 47.825552700000166,
          "velocity": 0.7874015748031497,
          "duration": 0.1744185000000016
        },
        {
          "name": "G4",
          "midi": 67,
          "time": 47.99997120000017,
          "velocity": 0.7874015748031497,
          "duration": 0.1744185000000016
        },
        {
          "name": "E4",
          "midi": 64,
          "time": 48.17438970000017,
          "velocity": 0.7874015748031497,
          "duration": 0.1744185000000016
        },
        {
          "name": "F#4",
          "midi": 66,
          "time": 48.34880820000017,
          "velocity": 0.7874015748031497,
          "duration": 0.1744185000000016
        },
        {
          "name": "E4",
          "midi": 64,
          "time": 48.52322670000017,
          "velocity": 0.7874015748031497,
          "duration": 0.1744185000000016
        },
        {
          "name": "G4",
          "midi": 67,
          "time": 48.697645200000174,
          "velocity": 0.7874015748031497,
          "duration": 0.1744185000000016
        },
        {
          "name": "E4",
          "midi": 64,
          "time": 48.872063700000176,
          "velocity": 0.7874015748031497,
          "duration": 0.1744185000000016
        },
        {
          "name": "B3",
          "midi": 59,
          "time": 49.04648220000018,
          "velocity": 0.7874015748031497,
          "duration": 0.1744185000000016
        },
        {
          "name": "C4",
          "midi": 60,
          "time": 49.22090070000018,
          "velocity": 0.7874015748031497,
          "duration": 0.1744185000000016
        },
        {
          "name": "D4",
          "midi": 62,
          "time": 49.39531920000018,
          "velocity": 0.7874015748031497,
          "duration": 0.1744185000000016
        },
        {
          "name": "F#4",
          "midi": 66,
          "time": 49.56973770000018,
          "velocity": 0.7874015748031497,
          "duration": 0.1744185000000016
        },
        {
          "name": "E4",
          "midi": 64,
          "time": 49.744156200000184,
          "velocity": 0.7874015748031497,
          "duration": 0.1744185000000016
        },
        {
          "name": "E4",
          "midi": 64,
          "time": 49.918574700000185,
          "velocity": 0.7874015748031497,
          "duration": 0.16860454999999774
        },
        {
          "name": "G4",
          "midi": 67,
          "time": 50.09299320000018,
          "velocity": 0.7874015748031497,
          "duration": 0.1744185000000016
        },
        {
          "name": "E4",
          "midi": 64,
          "time": 50.26741170000018,
          "velocity": 0.7874015748031497,
          "duration": 0.1744185000000016
        },
        {
          "name": "F#4",
          "midi": 66,
          "time": 50.44183020000018,
          "velocity": 0.7874015748031497,
          "duration": 0.1744185000000016
        },
        {
          "name": "E4",
          "midi": 64,
          "time": 50.616248700000185,
          "velocity": 0.7874015748031497,
          "duration": 0.1744185000000016
        },
        {
          "name": "G4",
          "midi": 67,
          "time": 50.790667200000186,
          "velocity": 0.7874015748031497,
          "duration": 0.1744185000000016
        },
        {
          "name": "E4",
          "midi": 64,
          "time": 50.96508570000019,
          "velocity": 0.7874015748031497,
          "duration": 0.1744185000000016
        },
        {
          "name": "F#4",
          "midi": 66,
          "time": 51.13950420000019,
          "velocity": 0.7874015748031497,
          "duration": 0.1744185000000016
        },
        {
          "name": "E4",
          "midi": 64,
          "time": 51.31392270000019,
          "velocity": 0.7874015748031497,
          "duration": 0.1744185000000016
        },
        {
          "name": "G4",
          "midi": 67,
          "time": 51.48834120000019,
          "velocity": 0.7874015748031497,
          "duration": 0.1744185000000016
        },
        {
          "name": "E4",
          "midi": 64,
          "time": 51.662759700000194,
          "velocity": 0.7874015748031497,
          "duration": 0.1744185000000016
        },
        {
          "name": "A4",
          "midi": 69,
          "time": 51.837178200000196,
          "velocity": 0.7874015748031497,
          "duration": 0.1744185000000016
        },
        {
          "name": "G4",
          "midi": 67,
          "time": 52.0115967000002,
          "velocity": 0.7874015748031497,
          "duration": 0.1744185000000016
        },
        {
          "name": "F#4",
          "midi": 66,
          "time": 52.1860152000002,
          "velocity": 0.7874015748031497,
          "duration": 0.1744185000000016
        },
        {
          "name": "D4",
          "midi": 62,
          "time": 52.3604337000002,
          "velocity": 0.7874015748031497,
          "duration": 0.1744185000000016
        },
        {
          "name": "E4",
          "midi": 64,
          "time": 52.5348522000002,
          "velocity": 0.7874015748031497,
          "duration": 0.1744185000000016
        },
        {
          "name": "E4",
          "midi": 64,
          "time": 52.709270700000204,
          "velocity": 0.7874015748031497,
          "duration": 0.16860454999999774
        },
        {
          "name": "G4",
          "midi": 67,
          "time": 52.8836892000002,
          "velocity": 0.7874015748031497,
          "duration": 0.1744185000000016
        },
        {
          "name": "E4",
          "midi": 64,
          "time": 53.0581077000002,
          "velocity": 0.7874015748031497,
          "duration": 0.1744185000000016
        },
        {
          "name": "F#4",
          "midi": 66,
          "time": 53.2325262000002,
          "velocity": 0.7874015748031497,
          "duration": 0.1744185000000016
        },
        {
          "name": "E4",
          "midi": 64,
          "time": 53.4069447000002,
          "velocity": 0.7874015748031497,
          "duration": 0.1744185000000016
        },
        {
          "name": "G4",
          "midi": 67,
          "time": 53.581363200000204,
          "velocity": 0.7874015748031497,
          "duration": 0.1744185000000016
        },
        {
          "name": "E4",
          "midi": 64,
          "time": 53.755781700000206,
          "velocity": 0.7874015748031497,
          "duration": 0.1744185000000016
        },
        {
          "name": "F#4",
          "midi": 66,
          "time": 53.93020020000021,
          "velocity": 0.7874015748031497,
          "duration": 0.1744185000000016
        },
        {
          "name": "E4",
          "midi": 64,
          "time": 54.10461870000021,
          "velocity": 0.7874015748031497,
          "duration": 0.1744185000000016
        },
        {
          "name": "G4",
          "midi": 67,
          "time": 54.27903720000021,
          "velocity": 0.7874015748031497,
          "duration": 0.1744185000000016
        },
        {
          "name": "E4",
          "midi": 64,
          "time": 54.45345570000021,
          "velocity": 0.7874015748031497,
          "duration": 0.1744185000000016
        },
        {
          "name": "D5",
          "midi": 74,
          "time": 54.627874200000214,
          "velocity": 0.7874015748031497,
          "duration": 0.1744185000000016
        },
        {
          "name": "C5",
          "midi": 72,
          "time": 54.802292700000216,
          "velocity": 0.7874015748031497,
          "duration": 0.1744185000000016
        },
        {
          "name": "B4",
          "midi": 71,
          "time": 54.97671120000022,
          "velocity": 0.7874015748031497,
          "duration": 0.1744185000000016
        },
        {
          "name": "A4",
          "midi": 69,
          "time": 55.15112970000022,
          "velocity": 0.7874015748031497,
          "duration": 0.1744185000000016
        },
        {
          "name": "C3",
          "midi": 48,
          "time": 55.32554820000022,
          "velocity": 0.7874015748031497,
          "duration": 0.3488370000000032
        },
        {
          "name": "G3",
          "midi": 55,
          "time": 55.32554820000022,
          "velocity": 0.7874015748031497,
          "duration": 0.3488370000000032
        },
        {
          "name": "C3",
          "midi": 48,
          "time": 55.67438520000022,
          "velocity": 0.7874015748031497,
          "duration": 0.2616277500000024
        },
        {
          "name": "G3",
          "midi": 55,
          "time": 55.67438520000022,
          "velocity": 0.7874015748031497,
          "duration": 0.2616277500000024
        },
        {
          "name": "C3",
          "midi": 48,
          "time": 56.02322220000023,
          "velocity": 0.7874015748031497,
          "duration": 0.0872092500000008
        },
        {
          "name": "C3",
          "midi": 48,
          "time": 56.19764070000023,
          "velocity": 0.7874015748031497,
          "duration": 0.0872092500000008
        },
        {
          "name": "G3",
          "midi": 55,
          "time": 56.19764070000023,
          "velocity": 0.7874015748031497,
          "duration": 0.0872092500000008
        },
        {
          "name": "C3",
          "midi": 48,
          "time": 56.37205920000023,
          "velocity": 0.7874015748031497,
          "duration": 0.0872092500000008
        },
        {
          "name": "D3",
          "midi": 50,
          "time": 56.54647770000023,
          "velocity": 0.7874015748031497,
          "duration": 0.5218020124999967
        },
        {
          "name": "A3",
          "midi": 57,
          "time": 56.54647770000023,
          "velocity": 0.7874015748031497,
          "duration": 0.5218020124999967
        },
        {
          "name": "D3",
          "midi": 50,
          "time": 57.06973320000023,
          "velocity": 0.7874015748031497,
          "duration": 0.3488370000000032
        },
        {
          "name": "A3",
          "midi": 57,
          "time": 57.06973320000023,
          "velocity": 0.7874015748031497,
          "duration": 0.3488370000000032
        },
        {
          "name": "D3",
          "midi": 50,
          "time": 57.41857020000023,
          "velocity": 0.7874015748031497,
          "duration": 0.0872092500000008
        },
        {
          "name": "D3",
          "midi": 50,
          "time": 57.592988700000234,
          "velocity": 0.7874015748031497,
          "duration": 0.0872092500000008
        },
        {
          "name": "A3",
          "midi": 57,
          "time": 57.592988700000234,
          "velocity": 0.7874015748031497,
          "duration": 0.0872092500000008
        },
        {
          "name": "D3",
          "midi": 50,
          "time": 57.767407200000235,
          "velocity": 0.7874015748031497,
          "duration": 0.0872092500000008
        },
        {
          "name": "D3",
          "midi": 50,
          "time": 57.940372212500236,
          "velocity": 0.7874015748031497,
          "duration": 0.34302304999999933
        },
        {
          "name": "A3",
          "midi": 57,
          "time": 57.94182570000024,
          "velocity": 0.7874015748031497,
          "duration": 0.34883699999999607
        },
        {
          "name": "E3",
          "midi": 52,
          "time": 58.29066270000023,
          "velocity": 0.7874015748031497,
          "duration": 0.0872092500000008
        },
        {
          "name": "B3",
          "midi": 59,
          "time": 58.29066270000023,
          "velocity": 0.7874015748031497,
          "duration": 0.0872092500000008
        },
        {
          "name": "E3",
          "midi": 52,
          "time": 58.465081200000235,
          "velocity": 0.7874015748031497,
          "duration": 0.1744185000000016
        },
        {
          "name": "B3",
          "midi": 59,
          "time": 58.465081200000235,
          "velocity": 0.7874015748031497,
          "duration": 0.1744185000000016
        },
        {
          "name": "E4",
          "midi": 64,
          "time": 58.639499700000236,
          "velocity": 0.7874015748031497,
          "duration": 0.1744185000000016
        },
        {
          "name": "G4",
          "midi": 67,
          "time": 58.81391820000024,
          "velocity": 0.7874015748031497,
          "duration": 0.1744185000000016
        },
        {
          "name": "F#4",
          "midi": 66,
          "time": 58.98833670000024,
          "velocity": 0.7874015748031497,
          "duration": 0.1744185000000016
        },
        {
          "name": "E4",
          "midi": 64,
          "time": 59.16275520000024,
          "velocity": 0.7874015748031497,
          "duration": 0.18386616875000072
        },
        {
          "name": "D4",
          "midi": 62,
          "time": 59.33717370000024,
          "velocity": 0.7874015748031497,
          "duration": 0.34883699999999607
        },
        {
          "name": "E4",
          "midi": 64,
          "time": 59.68601070000024,
          "velocity": 0.7874015748031497,
          "duration": 0.1744185000000016
        },
        {
          "name": "E4",
          "midi": 64,
          "time": 59.86042920000024,
          "velocity": 0.7874015748031497,
          "duration": 0.3488370000000032
        },
        {
          "name": "E3",
          "midi": 52,
          "time": 60.20926620000024,
          "velocity": 0.7874015748031497,
          "duration": 0.3488370000000032
        },
        {
          "name": "B3",
          "midi": 59,
          "time": 60.20926620000024,
          "velocity": 0.7874015748031497,
          "duration": 0.3488370000000032
        },
        {
          "name": "D3",
          "midi": 50,
          "time": 60.55810320000025,
          "velocity": 0.7874015748031497,
          "duration": 0.3488370000000032
        },
        {
          "name": "A3",
          "midi": 57,
          "time": 60.55810320000025,
          "velocity": 0.7874015748031497,
          "duration": 0.3488370000000032
        },
        {
          "name": "C3",
          "midi": 48,
          "time": 60.90694020000025,
          "velocity": 0.7874015748031497,
          "duration": 0.3488370000000032
        },
        {
          "name": "G3",
          "midi": 55,
          "time": 60.90694020000025,
          "velocity": 0.7874015748031497,
          "duration": 0.3488370000000032
        },
        {
          "name": "C3",
          "midi": 48,
          "time": 61.25577720000025,
          "velocity": 0.7874015748031497,
          "duration": 0.2616277500000024
        },
        {
          "name": "G3",
          "midi": 55,
          "time": 61.25577720000025,
          "velocity": 0.7874015748031497,
          "duration": 0.2616277500000024
        },
        {
          "name": "C3",
          "midi": 48,
          "time": 61.604614200000256,
          "velocity": 0.7874015748031497,
          "duration": 0.0872092500000008
        },
        {
          "name": "C3",
          "midi": 48,
          "time": 61.77903270000026,
          "velocity": 0.7874015748031497,
          "duration": 0.0872092500000008
        },
        {
          "name": "G3",
          "midi": 55,
          "time": 61.77903270000026,
          "velocity": 0.7874015748031497,
          "duration": 0.0872092500000008
        },
        {
          "name": "C3",
          "midi": 48,
          "time": 61.95345120000026,
          "velocity": 0.7874015748031497,
          "duration": 0.0872092500000008
        },
        {
          "name": "D3",
          "midi": 50,
          "time": 62.12786970000026,
          "velocity": 0.7874015748031497,
          "duration": 0.5218020124999967
        },
        {
          "name": "A3",
          "midi": 57,
          "time": 62.12786970000026,
          "velocity": 0.7874015748031497,
          "duration": 0.5218020124999967
        },
        {
          "name": "D3",
          "midi": 50,
          "time": 62.65112520000026,
          "velocity": 0.7874015748031497,
          "duration": 0.3488370000000032
        },
        {
          "name": "A3",
          "midi": 57,
          "time": 62.65112520000026,
          "velocity": 0.7874015748031497,
          "duration": 0.3488370000000032
        },
        {
          "name": "D3",
          "midi": 50,
          "time": 62.99996220000026,
          "velocity": 0.7874015748031497,
          "duration": 0.0872092500000008
        },
        {
          "name": "D3",
          "midi": 50,
          "time": 63.17438070000026,
          "velocity": 0.7874015748031497,
          "duration": 0.0872092500000008
        },
        {
          "name": "A3",
          "midi": 57,
          "time": 63.17438070000026,
          "velocity": 0.7874015748031497,
          "duration": 0.0872092500000008
        },
        {
          "name": "D3",
          "midi": 50,
          "time": 63.348799200000265,
          "velocity": 0.7874015748031497,
          "duration": 0.0872092500000008
        },
        {
          "name": "D3",
          "midi": 50,
          "time": 63.521764212500266,
          "velocity": 0.7874015748031497,
          "duration": 0.34302304999999933
        },
        {
          "name": "A3",
          "midi": 57,
          "time": 63.52321770000027,
          "velocity": 0.7874015748031497,
          "duration": 0.34883699999999607
        },
        {
          "name": "E3",
          "midi": 52,
          "time": 63.87205470000026,
          "velocity": 0.7874015748031497,
          "duration": 0.0872092500000008
        },
        {
          "name": "B3",
          "midi": 59,
          "time": 63.87205470000026,
          "velocity": 0.7874015748031497,
          "duration": 0.0872092500000008
        },
        {
          "name": "E3",
          "midi": 52,
          "time": 64.04647320000026,
          "velocity": 0.7874015748031497,
          "duration": 0.1744185000000016
        },
        {
          "name": "B3",
          "midi": 59,
          "time": 64.04647320000026,
          "velocity": 0.7874015748031497,
          "duration": 0.1744185000000016
        },
        {
          "name": "E3",
          "midi": 52,
          "time": 64.22089170000027,
          "velocity": 0.7874015748031497,
          "duration": 0.0872092500000008
        },
        {
          "name": "B3",
          "midi": 59,
          "time": 64.39531020000027,
          "velocity": 0.7874015748031497,
          "duration": 0.1744185000000016
        },
        {
          "name": "C4",
          "midi": 60,
          "time": 64.56972870000027,
          "velocity": 0.7874015748031497,
          "duration": 0.1744185000000016
        },
        {
          "name": "D4",
          "midi": 62,
          "time": 64.74414720000027,
          "velocity": 0.7874015748031497,
          "duration": 0.1744185000000016
        },
        {
          "name": "E4",
          "midi": 64,
          "time": 64.91856570000027,
          "velocity": 0.7874015748031497,
          "duration": 0.1744185000000016
        },
        {
          "name": "F#4",
          "midi": 66,
          "time": 65.09298420000027,
          "velocity": 0.7874015748031497,
          "duration": 0.1744185000000016
        },
        {
          "name": "G4",
          "midi": 67,
          "time": 65.26740270000028,
          "velocity": 0.7874015748031497,
          "duration": 0.5232555000000048
        },
        {
          "name": "E3",
          "midi": 52,
          "time": 65.79065820000028,
          "velocity": 0.7874015748031497,
          "duration": 0.3488370000000032
        },
        {
          "name": "B3",
          "midi": 59,
          "time": 65.79065820000028,
          "velocity": 0.7874015748031497,
          "duration": 0.3488370000000032
        },
        {
          "name": "D3",
          "midi": 50,
          "time": 66.13949520000028,
          "velocity": 0.7874015748031497,
          "duration": 0.3488370000000032
        },
        {
          "name": "A3",
          "midi": 57,
          "time": 66.13949520000028,
          "velocity": 0.7874015748031497,
          "duration": 0.3488370000000032
        },
        {
          "name": "C3",
          "midi": 48,
          "time": 66.48833220000029,
          "velocity": 0.7874015748031497,
          "duration": 0.3488370000000032
        },
        {
          "name": "G3",
          "midi": 55,
          "time": 66.48833220000029,
          "velocity": 0.7874015748031497,
          "duration": 0.3488370000000032
        },
        {
          "name": "C3",
          "midi": 48,
          "time": 66.83716920000029,
          "velocity": 0.7874015748031497,
          "duration": 0.2616277500000024
        },
        {
          "name": "G3",
          "midi": 55,
          "time": 66.83716920000029,
          "velocity": 0.7874015748031497,
          "duration": 0.2616277500000024
        },
        {
          "name": "C3",
          "midi": 48,
          "time": 67.18600620000029,
          "velocity": 0.7874015748031497,
          "duration": 0.0872092500000008
        },
        {
          "name": "C3",
          "midi": 48,
          "time": 67.3604247000003,
          "velocity": 0.7874015748031497,
          "duration": 0.0872092500000008
        },
        {
          "name": "G3",
          "midi": 55,
          "time": 67.3604247000003,
          "velocity": 0.7874015748031497,
          "duration": 0.0872092500000008
        },
        {
          "name": "C3",
          "midi": 48,
          "time": 67.5348432000003,
          "velocity": 0.7874015748031497,
          "duration": 0.0872092500000008
        },
        {
          "name": "D3",
          "midi": 50,
          "time": 67.7092617000003,
          "velocity": 0.7874015748031497,
          "duration": 0.5218020125000038
        },
        {
          "name": "A3",
          "midi": 57,
          "time": 67.7092617000003,
          "velocity": 0.7874015748031497,
          "duration": 0.5218020125000038
        },
        {
          "name": "D3",
          "midi": 50,
          "time": 68.2325172000003,
          "velocity": 0.7874015748031497,
          "duration": 0.3488370000000032
        },
        {
          "name": "A3",
          "midi": 57,
          "time": 68.2325172000003,
          "velocity": 0.7874015748031497,
          "duration": 0.3488370000000032
        },
        {
          "name": "D3",
          "midi": 50,
          "time": 68.5813542000003,
          "velocity": 0.7874015748031497,
          "duration": 0.0872092500000008
        },
        {
          "name": "D3",
          "midi": 50,
          "time": 68.7557727000003,
          "velocity": 0.7874015748031497,
          "duration": 0.0872092500000008
        },
        {
          "name": "A3",
          "midi": 57,
          "time": 68.7557727000003,
          "velocity": 0.7874015748031497,
          "duration": 0.0872092500000008
        },
        {
          "name": "D3",
          "midi": 50,
          "time": 68.93019120000031,
          "velocity": 0.7874015748031497,
          "duration": 0.0872092500000008
        },
        {
          "name": "D3",
          "midi": 50,
          "time": 69.10315621250031,
          "velocity": 0.7874015748031497,
          "duration": 0.34302304999999933
        },
        {
          "name": "A3",
          "midi": 57,
          "time": 69.10460970000031,
          "velocity": 0.7874015748031497,
          "duration": 0.3488370000000032
        },
        {
          "name": "E3",
          "midi": 52,
          "time": 69.45344670000031,
          "velocity": 0.7874015748031497,
          "duration": 0.0872092500000008
        },
        {
          "name": "B3",
          "midi": 59,
          "time": 69.45344670000031,
          "velocity": 0.7874015748031497,
          "duration": 0.0872092500000008
        },
        {
          "name": "E3",
          "midi": 52,
          "time": 69.62786520000031,
          "velocity": 0.7874015748031497,
          "duration": 0.1744185000000016
        },
        {
          "name": "B3",
          "midi": 59,
          "time": 69.62786520000031,
          "velocity": 0.7874015748031497,
          "duration": 0.1744185000000016
        },
        {
          "name": "E4",
          "midi": 64,
          "time": 69.80228370000032,
          "velocity": 0.7874015748031497,
          "duration": 0.1744185000000016
        },
        {
          "name": "G4",
          "midi": 67,
          "time": 69.97670220000032,
          "velocity": 0.7874015748031497,
          "duration": 0.1744185000000016
        },
        {
          "name": "F#4",
          "midi": 66,
          "time": 70.15112070000032,
          "velocity": 0.7874015748031497,
          "duration": 0.1744185000000016
        },
        {
          "name": "E4",
          "midi": 64,
          "time": 70.32553920000032,
          "velocity": 0.7874015748031497,
          "duration": 0.18386616875000072
        },
        {
          "name": "D4",
          "midi": 62,
          "time": 70.49995770000032,
          "velocity": 0.7874015748031497,
          "duration": 0.3488370000000032
        },
        {
          "name": "E4",
          "midi": 64,
          "time": 70.84879470000033,
          "velocity": 0.7874015748031497,
          "duration": 0.1744185000000016
        },
        {
          "name": "E4",
          "midi": 64,
          "time": 71.02321320000033,
          "velocity": 0.7874015748031497,
          "duration": 0.3488370000000032
        },
        {
          "name": "E3",
          "midi": 52,
          "time": 71.37205020000033,
          "velocity": 0.7874015748031497,
          "duration": 0.3488370000000032
        },
        {
          "name": "B3",
          "midi": 59,
          "time": 71.37205020000033,
          "velocity": 0.7874015748031497,
          "duration": 0.3488370000000032
        },
        {
          "name": "D3",
          "midi": 50,
          "time": 71.72088720000033,
          "velocity": 0.7874015748031497,
          "duration": 0.3488370000000032
        },
        {
          "name": "A3",
          "midi": 57,
          "time": 71.72088720000033,
          "velocity": 0.7874015748031497,
          "duration": 0.3488370000000032
        },
        {
          "name": "C3",
          "midi": 48,
          "time": 72.06972420000034,
          "velocity": 0.7874015748031497,
          "duration": 0.3488370000000032
        },
        {
          "name": "G3",
          "midi": 55,
          "time": 72.06972420000034,
          "velocity": 0.7874015748031497,
          "duration": 0.3488370000000032
        },
        {
          "name": "C3",
          "midi": 48,
          "time": 72.41856120000034,
          "velocity": 0.7874015748031497,
          "duration": 0.2616277500000024
        },
        {
          "name": "G3",
          "midi": 55,
          "time": 72.41856120000034,
          "velocity": 0.7874015748031497,
          "duration": 0.2616277500000024
        },
        {
          "name": "C3",
          "midi": 48,
          "time": 72.76739820000034,
          "velocity": 0.7874015748031497,
          "duration": 0.0872092500000008
        },
        {
          "name": "C3",
          "midi": 48,
          "time": 72.94181670000035,
          "velocity": 0.7874015748031497,
          "duration": 0.0872092500000008
        },
        {
          "name": "G3",
          "midi": 55,
          "time": 72.94181670000035,
          "velocity": 0.7874015748031497,
          "duration": 0.0872092500000008
        },
        {
          "name": "C3",
          "midi": 48,
          "time": 73.11623520000035,
          "velocity": 0.7874015748031497,
          "duration": 0.0872092500000008
        },
        {
          "name": "D3",
          "midi": 50,
          "time": 73.29065370000035,
          "velocity": 0.7874015748031497,
          "duration": 0.5218020125000038
        },
        {
          "name": "A3",
          "midi": 57,
          "time": 73.29065370000035,
          "velocity": 0.7874015748031497,
          "duration": 0.5218020125000038
        },
        {
          "name": "D3",
          "midi": 50,
          "time": 73.81390920000035,
          "velocity": 0.7874015748031497,
          "duration": 0.3488370000000032
        },
        {
          "name": "A3",
          "midi": 57,
          "time": 73.81390920000035,
          "velocity": 0.7874015748031497,
          "duration": 0.3488370000000032
        },
        {
          "name": "D3",
          "midi": 50,
          "time": 74.16274620000036,
          "velocity": 0.7874015748031497,
          "duration": 0.0872092500000008
        },
        {
          "name": "D3",
          "midi": 50,
          "time": 74.33716470000036,
          "velocity": 0.7874015748031497,
          "duration": 0.0872092500000008
        },
        {
          "name": "A3",
          "midi": 57,
          "time": 74.33716470000036,
          "velocity": 0.7874015748031497,
          "duration": 0.0872092500000008
        },
        {
          "name": "D3",
          "midi": 50,
          "time": 74.51158320000036,
          "velocity": 0.7874015748031497,
          "duration": 0.0872092500000008
        },
        {
          "name": "D3",
          "midi": 50,
          "time": 74.68454821250036,
          "velocity": 0.7874015748031497,
          "duration": 0.34302304999999933
        },
        {
          "name": "A3",
          "midi": 57,
          "time": 74.68600170000036,
          "velocity": 0.7874015748031497,
          "duration": 0.3488370000000032
        },
        {
          "name": "E3",
          "midi": 52,
          "time": 75.03483870000036,
          "velocity": 0.7874015748031497,
          "duration": 0.0872092500000008
        },
        {
          "name": "B3",
          "midi": 59,
          "time": 75.03483870000036,
          "velocity": 0.7874015748031497,
          "duration": 0.0872092500000008
        },
        {
          "name": "E3",
          "midi": 52,
          "time": 75.20925720000037,
          "velocity": 0.7874015748031497,
          "duration": 0.2616277500000024
        },
        {
          "name": "B3",
          "midi": 59,
          "time": 75.20925720000037,
          "velocity": 0.7874015748031497,
          "duration": 0.2616277500000024
        },
        {
          "name": "E3",
          "midi": 52,
          "time": 75.55809420000037,
          "velocity": 0.7874015748031497,
          "duration": 0.1744185000000016
        },
        {
          "name": "G3",
          "midi": 55,
          "time": 75.73251270000037,
          "velocity": 0.7874015748031497,
          "duration": 0.1744185000000016
        },
        {
          "name": "B3",
          "midi": 59,
          "time": 75.90693120000037,
          "velocity": 0.7874015748031497,
          "duration": 0.1744185000000016
        },
        {
          "name": "E4",
          "midi": 64,
          "time": 76.08134970000037,
          "velocity": 0.7874015748031497,
          "duration": 0.1744185000000016
        },
        {
          "name": "G4",
          "midi": 67,
          "time": 76.25576820000038,
          "velocity": 0.7874015748031497,
          "duration": 0.1744185000000016
        },
        {
          "name": "B4",
          "midi": 71,
          "time": 76.43018670000038,
          "velocity": 0.7874015748031497,
          "duration": 0.1744185000000016
        },
        {
          "name": "E5",
          "midi": 76,
          "time": 76.60460520000038,
          "velocity": 0.7874015748031497,
          "duration": 0.16933129375000533
        },
        {
          "name": "G5",
          "midi": 79,
          "time": 76.77902370000038,
          "velocity": 0.7874015748031497,
          "duration": 0.1773254750000035
        },
        {
          "name": "B5",
          "midi": 83,
          "time": 76.95344220000038,
          "velocity": 0.7874015748031497,
          "duration": 0.6976740000000063
        },
        {
          "name": "E5",
          "midi": 76,
          "time": 77.65111620000039,
          "velocity": 0.7874015748031497,
          "duration": 0.5232555000000048
        },
        {
          "name": "B4",
          "midi": 71,
          "time": 78.17437170000039,
          "velocity": 0.7874015748031497,
          "duration": 0.5232554999999905
        },
        {
          "name": "D5",
          "midi": 74,
          "time": 78.69108650625039,
          "velocity": 0.7874015748031497,
          "duration": 0.3488370000000032
        },
        {
          "name": "C5",
          "midi": 72,
          "time": 79.04646420000039,
          "velocity": 0.7874015748031497,
          "duration": 1.0465109999999953
        },
        {
          "name": "B4",
          "midi": 71,
          "time": 80.09297520000038,
          "velocity": 0.7874015748031497,
          "duration": 0.1744185000000016
        },
        {
          "name": "A4",
          "midi": 69,
          "time": 80.26739370000038,
          "velocity": 0.7874015748031497,
          "duration": 0.1744185000000016
        },
        {
          "name": "B4",
          "midi": 71,
          "time": 80.44181220000038,
          "velocity": 0.7874015748031497,
          "duration": 0.5232555000000048
        },
        {
          "name": "G4",
          "midi": 67,
          "time": 80.96506770000039,
          "velocity": 0.7874015748031497,
          "duration": 0.5232555000000048
        },
        {
          "name": "B4",
          "midi": 71,
          "time": 81.4883232000004,
          "velocity": 0.7874015748031497,
          "duration": 0.3488370000000032
        },
        {
          "name": "A4",
          "midi": 69,
          "time": 81.8371602000004,
          "velocity": 0.7874015748031497,
          "duration": 1.3953479999999985
        },
        {
          "name": "E5",
          "midi": 76,
          "time": 83.2325082000004,
          "velocity": 0.7874015748031497,
          "duration": 0.5232555000000048
        },
        {
          "name": "B4",
          "midi": 71,
          "time": 83.7557637000004,
          "velocity": 0.7874015748031497,
          "duration": 0.5232555000000048
        },
        {
          "name": "D5",
          "midi": 74,
          "time": 84.2790192000004,
          "velocity": 0.7874015748031497,
          "duration": 0.3488370000000032
        },
        {
          "name": "C5",
          "midi": 72,
          "time": 84.62785620000041,
          "velocity": 0.7874015748031497,
          "duration": 1.0465109999999953
        },
        {
          "name": "G5",
          "midi": 79,
          "time": 85.6743672000004,
          "velocity": 0.7874015748031497,
          "duration": 0.1744185000000016
        },
        {
          "name": "F#5",
          "midi": 78,
          "time": 85.8487857000004,
          "velocity": 0.7874015748031497,
          "duration": 0.1744185000000016
        },
        {
          "name": "G5",
          "midi": 79,
          "time": 86.02320420000041,
          "velocity": 0.7874015748031497,
          "duration": 0.5232555000000048
        },
        {
          "name": "F#5",
          "midi": 78,
          "time": 86.54645970000041,
          "velocity": 0.7874015748031497,
          "duration": 0.5232555000000048
        },
        {
          "name": "D5",
          "midi": 74,
          "time": 87.06971520000042,
          "velocity": 0.7874015748031497,
          "duration": 0.3488370000000032
        },
        {
          "name": "E5",
          "midi": 76,
          "time": 87.41855220000042,
          "velocity": 0.7874015748031497,
          "duration": 1.3953479999999985
        },
        {
          "name": "E3",
          "midi": 52,
          "time": 88.81390020000042,
          "velocity": 0.7874015748031497,
          "duration": 0.0872092500000008
        },
        {
          "name": "E3",
          "midi": 52,
          "time": 88.98831870000042,
          "velocity": 0.7874015748031497,
          "duration": 0.0872092500000008
        },
        {
          "name": "E3",
          "midi": 52,
          "time": 89.16273720000042,
          "velocity": 0.7874015748031497,
          "duration": 0.1744185000000016
        },
        {
          "name": "B3",
          "midi": 59,
          "time": 89.16273720000042,
          "velocity": 0.7874015748031497,
          "duration": 0.1744185000000016
        },
        {
          "name": "E3",
          "midi": 52,
          "time": 89.33715570000042,
          "velocity": 0.7874015748031497,
          "duration": 0.0872092500000008
        },
        {
          "name": "B3",
          "midi": 59,
          "time": 89.51157420000042,
          "velocity": 0.7874015748031497,
          "duration": 0.3488370000000032
        },
        {
          "name": "E3",
          "midi": 52,
          "time": 89.51593466250043,
          "velocity": 0.7874015748031497,
          "duration": 0.3488370000000032
        },
        {
          "name": "E3",
          "midi": 52,
          "time": 89.86041120000043,
          "velocity": 0.7874015748031497,
          "duration": 0.0872092500000008
        },
        {
          "name": "B2",
          "midi": 47,
          "time": 90.03482970000043,
          "velocity": 0.7874015748031497,
          "duration": 0.5232555000000048
        },
        {
          "name": "F#3",
          "midi": 54,
          "time": 90.03482970000043,
          "velocity": 0.7874015748031497,
          "duration": 0.5232555000000048
        },
        {
          "name": "B2",
          "midi": 47,
          "time": 90.55808520000043,
          "velocity": 0.7874015748031497,
          "duration": 1.0465109999999953
        },
        {
          "name": "F#3",
          "midi": 54,
          "time": 90.55808520000043,
          "velocity": 0.7874015748031497,
          "duration": 1.0465109999999953
        },
        {
          "name": "C3",
          "midi": 48,
          "time": 91.60459620000043,
          "velocity": 0.7874015748031497,
          "duration": 0.0872092500000008
        },
        {
          "name": "C3",
          "midi": 48,
          "time": 91.77901470000043,
          "velocity": 0.7874015748031497,
          "duration": 0.0872092500000008
        },
        {
          "name": "C3",
          "midi": 48,
          "time": 91.95343320000043,
          "velocity": 0.7874015748031497,
          "duration": 0.1744185000000016
        },
        {
          "name": "G3",
          "midi": 55,
          "time": 91.95343320000043,
          "velocity": 0.7874015748031497,
          "duration": 0.1744185000000016
        },
        {
          "name": "C3",
          "midi": 48,
          "time": 92.12785170000043,
          "velocity": 0.7874015748031497,
          "duration": 0.0872092500000008
        },
        {
          "name": "G3",
          "midi": 55,
          "time": 92.30227020000044,
          "velocity": 0.7874015748031497,
          "duration": 0.3488370000000032
        },
        {
          "name": "C3",
          "midi": 48,
          "time": 92.30663066250044,
          "velocity": 0.7874015748031497,
          "duration": 0.3488370000000032
        },
        {
          "name": "C3",
          "midi": 48,
          "time": 92.65110720000044,
          "velocity": 0.7874015748031497,
          "duration": 0.0872092500000008
        },
        {
          "name": "F3",
          "midi": 53,
          "time": 92.82552570000044,
          "velocity": 0.7874015748031497,
          "duration": 0.5232555000000048
        },
        {
          "name": "C4",
          "midi": 60,
          "time": 92.82552570000044,
          "velocity": 0.7874015748031497,
          "duration": 0.5232555000000048
        },
        {
          "name": "F3",
          "midi": 53,
          "time": 93.34878120000045,
          "velocity": 0.7874015748031497,
          "duration": 1.0465109999999953
        },
        {
          "name": "C4",
          "midi": 60,
          "time": 93.34878120000045,
          "velocity": 0.7874015748031497,
          "duration": 1.0465109999999953
        },
        {
          "name": "E3",
          "midi": 52,
          "time": 94.39529220000044,
          "velocity": 0.7874015748031497,
          "duration": 0.1744185000000016
        },
        {
          "name": "B3",
          "midi": 59,
          "time": 94.39529220000044,
          "velocity": 0.7874015748031497,
          "duration": 0.1744185000000016
        },
        {
          "name": "E3",
          "midi": 52,
          "time": 94.56971070000044,
          "velocity": 0.7874015748031497,
          "duration": 0.0872092500000008
        },
        {
          "name": "E3",
          "midi": 52,
          "time": 94.65691995000044,
          "velocity": 0.7874015748031497,
          "duration": 0.0872092500000008
        },
        {
          "name": "E3",
          "midi": 52,
          "time": 94.74412920000044,
          "velocity": 0.7874015748031497,
          "duration": 0.0872092500000008
        },
        {
          "name": "E3",
          "midi": 52,
          "time": 94.91854770000045,
          "velocity": 0.7874015748031497,
          "duration": 0.0872092500000008
        },
        {
          "name": "E3",
          "midi": 52,
          "time": 95.00575695000045,
          "velocity": 0.7874015748031497,
          "duration": 0.0872092500000008
        },
        {
          "name": "E3",
          "midi": 52,
          "time": 95.09296620000045,
          "velocity": 0.7874015748031497,
          "duration": 0.0872092500000008
        },
        {
          "name": "E3",
          "midi": 52,
          "time": 95.26738470000045,
          "velocity": 0.7874015748031497,
          "duration": 0.0872092500000008
        },
        {
          "name": "E3",
          "midi": 52,
          "time": 95.35459395000045,
          "velocity": 0.7874015748031497,
          "duration": 0.0872092500000008
        },
        {
          "name": "E3",
          "midi": 52,
          "time": 95.44180320000045,
          "velocity": 0.7874015748031497,
          "duration": 0.0872092500000008
        },
        {
          "name": "E3",
          "midi": 52,
          "time": 95.61622170000045,
          "velocity": 0.7874015748031497,
          "duration": 0.0872092500000008
        },
        {
          "name": "E3",
          "midi": 52,
          "time": 95.70343095000045,
          "velocity": 0.7874015748031497,
          "duration": 0.0872092500000008
        },
        {
          "name": "B2",
          "midi": 47,
          "time": 95.79064020000045,
          "velocity": 0.7874015748031497,
          "duration": 0.1744185000000016
        },
        {
          "name": "F#3",
          "midi": 54,
          "time": 95.79064020000045,
          "velocity": 0.7874015748031497,
          "duration": 0.1744185000000016
        },
        {
          "name": "B2",
          "midi": 47,
          "time": 95.96505870000045,
          "velocity": 0.7874015748031497,
          "duration": 0.0872092500000008
        },
        {
          "name": "B2",
          "midi": 47,
          "time": 96.05226795000046,
          "velocity": 0.7874015748031497,
          "duration": 0.0872092500000008
        },
        {
          "name": "B2",
          "midi": 47,
          "time": 96.13947720000046,
          "velocity": 0.7874015748031497,
          "duration": 0.0872092500000008
        },
        {
          "name": "B2",
          "midi": 47,
          "time": 96.31389570000046,
          "velocity": 0.7874015748031497,
          "duration": 0.0872092500000008
        },
        {
          "name": "B2",
          "midi": 47,
          "time": 96.40110495000046,
          "velocity": 0.7874015748031497,
          "duration": 0.0872092500000008
        },
        {
          "name": "B2",
          "midi": 47,
          "time": 96.48831420000046,
          "velocity": 0.7874015748031497,
          "duration": 0.0872092500000008
        },
        {
          "name": "B2",
          "midi": 47,
          "time": 96.66273270000046,
          "velocity": 0.7874015748031497,
          "duration": 0.0872092500000008
        },
        {
          "name": "B2",
          "midi": 47,
          "time": 96.74994195000046,
          "velocity": 0.7874015748031497,
          "duration": 0.0872092500000008
        },
        {
          "name": "B2",
          "midi": 47,
          "time": 96.83715120000046,
          "velocity": 0.7874015748031497,
          "duration": 0.0872092500000008
        },
        {
          "name": "B2",
          "midi": 47,
          "time": 97.01156970000046,
          "velocity": 0.7874015748031497,
          "duration": 0.0872092500000008
        },
        {
          "name": "B2",
          "midi": 47,
          "time": 97.09877895000047,
          "velocity": 0.7874015748031497,
          "duration": 0.0872092500000008
        },
        {
          "name": "C3",
          "midi": 48,
          "time": 97.18598820000047,
          "velocity": 0.7874015748031497,
          "duration": 0.1744185000000016
        },
        {
          "name": "G3",
          "midi": 55,
          "time": 97.18598820000047,
          "velocity": 0.7874015748031497,
          "duration": 0.1744185000000016
        },
        {
          "name": "C3",
          "midi": 48,
          "time": 97.36040670000047,
          "velocity": 0.7874015748031497,
          "duration": 0.0872092500000008
        },
        {
          "name": "C3",
          "midi": 48,
          "time": 97.44761595000047,
          "velocity": 0.7874015748031497,
          "duration": 0.0872092500000008
        },
        {
          "name": "C3",
          "midi": 48,
          "time": 97.53482520000047,
          "velocity": 0.7874015748031497,
          "duration": 0.0872092500000008
        },
        {
          "name": "C3",
          "midi": 48,
          "time": 97.70924370000047,
          "velocity": 0.7874015748031497,
          "duration": 0.0872092500000008
        },
        {
          "name": "C3",
          "midi": 48,
          "time": 97.79645295000047,
          "velocity": 0.7874015748031497,
          "duration": 0.0872092500000008
        },
        {
          "name": "C3",
          "midi": 48,
          "time": 97.88366220000047,
          "velocity": 0.7874015748031497,
          "duration": 0.0872092500000008
        },
        {
          "name": "C3",
          "midi": 48,
          "time": 98.05808070000047,
          "velocity": 0.7874015748031497,
          "duration": 0.0872092500000008
        },
        {
          "name": "C3",
          "midi": 48,
          "time": 98.14528995000047,
          "velocity": 0.7874015748031497,
          "duration": 0.0872092500000008
        },
        {
          "name": "C3",
          "midi": 48,
          "time": 98.23249920000048,
          "velocity": 0.7874015748031497,
          "duration": 0.0872092500000008
        },
        {
          "name": "C3",
          "midi": 48,
          "time": 98.40691770000048,
          "velocity": 0.7874015748031497,
          "duration": 0.0872092500000008
        },
        {
          "name": "C3",
          "midi": 48,
          "time": 98.49412695000048,
          "velocity": 0.7874015748031497,
          "duration": 0.0872092500000008
        },
        {
          "name": "A2",
          "midi": 45,
          "time": 98.58133620000048,
          "velocity": 0.7874015748031497,
          "duration": 0.1744185000000016
        },
        {
          "name": "E3",
          "midi": 52,
          "time": 98.58133620000048,
          "velocity": 0.7874015748031497,
          "duration": 0.1744185000000016
        },
        {
          "name": "A2",
          "midi": 45,
          "time": 98.75575470000048,
          "velocity": 0.7874015748031497,
          "duration": 0.0872092500000008
        },
        {
          "name": "A2",
          "midi": 45,
          "time": 98.84296395000048,
          "velocity": 0.7874015748031497,
          "duration": 0.0872092500000008
        },
        {
          "name": "A2",
          "midi": 45,
          "time": 98.93017320000048,
          "velocity": 0.7874015748031497,
          "duration": 0.0872092500000008
        },
        {
          "name": "A2",
          "midi": 45,
          "time": 99.10459170000048,
          "velocity": 0.7874015748031497,
          "duration": 0.0872092500000008
        },
        {
          "name": "A2",
          "midi": 45,
          "time": 99.19180095000048,
          "velocity": 0.7874015748031497,
          "duration": 0.0872092500000008
        },
        {
          "name": "A2",
          "midi": 45,
          "time": 99.27901020000049,
          "velocity": 0.7874015748031497,
          "duration": 0.0872092500000008
        },
        {
          "name": "A2",
          "midi": 45,
          "time": 99.45342870000049,
          "velocity": 0.7874015748031497,
          "duration": 0.0872092500000008
        },
        {
          "name": "A2",
          "midi": 45,
          "time": 99.54063795000049,
          "velocity": 0.7874015748031497,
          "duration": 0.0872092500000008
        },
        {
          "name": "A2",
          "midi": 45,
          "time": 99.62784720000049,
          "velocity": 0.7874015748031497,
          "duration": 0.0872092500000008
        },
        {
          "name": "A2",
          "midi": 45,
          "time": 99.80226570000049,
          "velocity": 0.7874015748031497,
          "duration": 0.0872092500000008
        },
        {
          "name": "A2",
          "midi": 45,
          "time": 99.88947495000049,
          "velocity": 0.7874015748031497,
          "duration": 0.0872092500000008
        },
        {
          "name": "E3",
          "midi": 52,
          "time": 99.97668420000049,
          "velocity": 0.7874015748031497,
          "duration": 0.0872092500000008
        },
        {
          "name": "E3",
          "midi": 52,
          "time": 100.1511027000005,
          "velocity": 0.7874015748031497,
          "duration": 0.0872092500000008
        },
        {
          "name": "E3",
          "midi": 52,
          "time": 100.3255212000005,
          "velocity": 0.7874015748031497,
          "duration": 0.1744185000000016
        },
        {
          "name": "B3",
          "midi": 59,
          "time": 100.3255212000005,
          "velocity": 0.7874015748031497,
          "duration": 0.1744185000000016
        },
        {
          "name": "E3",
          "midi": 52,
          "time": 100.4999397000005,
          "velocity": 0.7874015748031497,
          "duration": 0.0872092500000008
        },
        {
          "name": "B3",
          "midi": 59,
          "time": 100.6743582000005,
          "velocity": 0.7874015748031497,
          "duration": 0.3488370000000032
        },
        {
          "name": "E3",
          "midi": 52,
          "time": 100.6787186625005,
          "velocity": 0.7874015748031497,
          "duration": 0.3488370000000032
        },
        {
          "name": "E3",
          "midi": 52,
          "time": 101.0231952000005,
          "velocity": 0.7874015748031497,
          "duration": 0.0872092500000008
        },
        {
          "name": "B2",
          "midi": 47,
          "time": 101.1976137000005,
          "velocity": 0.7874015748031497,
          "duration": 0.5232555000000048
        },
        {
          "name": "F#3",
          "midi": 54,
          "time": 101.1976137000005,
          "velocity": 0.7874015748031497,
          "duration": 0.5232555000000048
        },
        {
          "name": "B2",
          "midi": 47,
          "time": 101.72086920000051,
          "velocity": 0.7874015748031497,
          "duration": 1.0465109999999953
        },
        {
          "name": "F#3",
          "midi": 54,
          "time": 101.72086920000051,
          "velocity": 0.7874015748031497,
          "duration": 1.0465109999999953
        },
        {
          "name": "C3",
          "midi": 48,
          "time": 102.7673802000005,
          "velocity": 0.7874015748031497,
          "duration": 0.0872092500000008
        },
        {
          "name": "C3",
          "midi": 48,
          "time": 102.9417987000005,
          "velocity": 0.7874015748031497,
          "duration": 0.0872092500000008
        },
        {
          "name": "C3",
          "midi": 48,
          "time": 103.1162172000005,
          "velocity": 0.7874015748031497,
          "duration": 0.1744185000000016
        },
        {
          "name": "G3",
          "midi": 55,
          "time": 103.1162172000005,
          "velocity": 0.7874015748031497,
          "duration": 0.1744185000000016
        },
        {
          "name": "C3",
          "midi": 48,
          "time": 103.29063570000051,
          "velocity": 0.7874015748031497,
          "duration": 0.0872092500000008
        },
        {
          "name": "G3",
          "midi": 55,
          "time": 103.46505420000051,
          "velocity": 0.7874015748031497,
          "duration": 0.3488370000000032
        },
        {
          "name": "C3",
          "midi": 48,
          "time": 103.46941466250051,
          "velocity": 0.7874015748031497,
          "duration": 0.3488370000000032
        },
        {
          "name": "C3",
          "midi": 48,
          "time": 103.81389120000051,
          "velocity": 0.7874015748031497,
          "duration": 0.0872092500000008
        },
        {
          "name": "F3",
          "midi": 53,
          "time": 103.98830970000051,
          "velocity": 0.7874015748031497,
          "duration": 0.5232555000000048
        },
        {
          "name": "C4",
          "midi": 60,
          "time": 103.98830970000051,
          "velocity": 0.7874015748031497,
          "duration": 0.5232555000000048
        },
        {
          "name": "F3",
          "midi": 53,
          "time": 104.51156520000052,
          "velocity": 0.7874015748031497,
          "duration": 1.0465109999999953
        },
        {
          "name": "C4",
          "midi": 60,
          "time": 104.51156520000052,
          "velocity": 0.7874015748031497,
          "duration": 1.0465109999999953
        },
        {
          "name": "E3",
          "midi": 52,
          "time": 105.55807620000051,
          "velocity": 0.7874015748031497,
          "duration": 0.1744185000000016
        },
        {
          "name": "B3",
          "midi": 59,
          "time": 105.55807620000051,
          "velocity": 0.7874015748031497,
          "duration": 0.1744185000000016
        },
        {
          "name": "E3",
          "midi": 52,
          "time": 105.73249470000052,
          "velocity": 0.7874015748031497,
          "duration": 0.0872092500000008
        },
        {
          "name": "E3",
          "midi": 52,
          "time": 105.81970395000052,
          "velocity": 0.7874015748031497,
          "duration": 0.0872092500000008
        },
        {
          "name": "E3",
          "midi": 52,
          "time": 105.90691320000052,
          "velocity": 0.7874015748031497,
          "duration": 0.0872092500000008
        },
        {
          "name": "E3",
          "midi": 52,
          "time": 106.08133170000052,
          "velocity": 0.7874015748031497,
          "duration": 0.0872092500000008
        },
        {
          "name": "E3",
          "midi": 52,
          "time": 106.16854095000052,
          "velocity": 0.7874015748031497,
          "duration": 0.0872092500000008
        },
        {
          "name": "E3",
          "midi": 52,
          "time": 106.25575020000052,
          "velocity": 0.7874015748031497,
          "duration": 0.0872092500000008
        },
        {
          "name": "E3",
          "midi": 52,
          "time": 106.43016870000052,
          "velocity": 0.7874015748031497,
          "duration": 0.0872092500000008
        },
        {
          "name": "E3",
          "midi": 52,
          "time": 106.51737795000052,
          "velocity": 0.7874015748031497,
          "duration": 0.0872092500000008
        },
        {
          "name": "E3",
          "midi": 52,
          "time": 106.60458720000052,
          "velocity": 0.7874015748031497,
          "duration": 0.0872092500000008
        },
        {
          "name": "E3",
          "midi": 52,
          "time": 106.77900570000052,
          "velocity": 0.7874015748031497,
          "duration": 0.0872092500000008
        },
        {
          "name": "E3",
          "midi": 52,
          "time": 106.86621495000053,
          "velocity": 0.7874015748031497,
          "duration": 0.0872092500000008
        },
        {
          "name": "B2",
          "midi": 47,
          "time": 106.95342420000053,
          "velocity": 0.7874015748031497,
          "duration": 0.1744185000000016
        },
        {
          "name": "F#3",
          "midi": 54,
          "time": 106.95342420000053,
          "velocity": 0.7874015748031497,
          "duration": 0.1744185000000016
        },
        {
          "name": "B2",
          "midi": 47,
          "time": 107.12784270000053,
          "velocity": 0.7874015748031497,
          "duration": 0.0872092500000008
        },
        {
          "name": "B2",
          "midi": 47,
          "time": 107.21505195000053,
          "velocity": 0.7874015748031497,
          "duration": 0.0872092500000008
        },
        {
          "name": "B2",
          "midi": 47,
          "time": 107.30226120000053,
          "velocity": 0.7874015748031497,
          "duration": 0.0872092500000008
        },
        {
          "name": "B2",
          "midi": 47,
          "time": 107.47667970000053,
          "velocity": 0.7874015748031497,
          "duration": 0.0872092500000008
        },
        {
          "name": "B2",
          "midi": 47,
          "time": 107.56388895000053,
          "velocity": 0.7874015748031497,
          "duration": 0.0872092500000008
        },
        {
          "name": "B2",
          "midi": 47,
          "time": 107.65109820000053,
          "velocity": 0.7874015748031497,
          "duration": 0.0872092500000008
        },
        {
          "name": "B2",
          "midi": 47,
          "time": 107.82551670000053,
          "velocity": 0.7874015748031497,
          "duration": 0.0872092500000008
        },
        {
          "name": "B2",
          "midi": 47,
          "time": 107.91272595000054,
          "velocity": 0.7874015748031497,
          "duration": 0.0872092500000008
        },
        {
          "name": "B2",
          "midi": 47,
          "time": 107.99993520000054,
          "velocity": 0.7874015748031497,
          "duration": 0.0872092500000008
        },
        {
          "name": "B2",
          "midi": 47,
          "time": 108.17435370000054,
          "velocity": 0.7874015748031497,
          "duration": 0.0872092500000008
        },
        {
          "name": "B2",
          "midi": 47,
          "time": 108.26156295000054,
          "velocity": 0.7874015748031497,
          "duration": 0.0872092500000008
        },
        {
          "name": "C3",
          "midi": 48,
          "time": 108.34877220000054,
          "velocity": 0.7874015748031497,
          "duration": 0.1744185000000016
        },
        {
          "name": "G3",
          "midi": 55,
          "time": 108.34877220000054,
          "velocity": 0.7874015748031497,
          "duration": 0.1744185000000016
        },
        {
          "name": "C3",
          "midi": 48,
          "time": 108.52319070000054,
          "velocity": 0.7874015748031497,
          "duration": 0.0872092500000008
        },
        {
          "name": "C3",
          "midi": 48,
          "time": 108.61039995000054,
          "velocity": 0.7874015748031497,
          "duration": 0.0872092500000008
        },
        {
          "name": "C3",
          "midi": 48,
          "time": 108.69760920000054,
          "velocity": 0.7874015748031497,
          "duration": 0.0872092500000008
        },
        {
          "name": "C3",
          "midi": 48,
          "time": 108.87202770000054,
          "velocity": 0.7874015748031497,
          "duration": 0.0872092500000008
        },
        {
          "name": "C3",
          "midi": 48,
          "time": 108.95923695000054,
          "velocity": 0.7874015748031497,
          "duration": 0.0872092500000008
        },
        {
          "name": "C3",
          "midi": 48,
          "time": 109.04644620000055,
          "velocity": 0.7874015748031497,
          "duration": 0.0872092500000008
        },
        {
          "name": "C3",
          "midi": 48,
          "time": 109.22086470000055,
          "velocity": 0.7874015748031497,
          "duration": 0.0872092500000008
        },
        {
          "name": "C3",
          "midi": 48,
          "time": 109.30807395000055,
          "velocity": 0.7874015748031497,
          "duration": 0.0872092500000008
        },
        {
          "name": "C3",
          "midi": 48,
          "time": 109.39528320000055,
          "velocity": 0.7874015748031497,
          "duration": 0.0872092500000008
        },
        {
          "name": "C3",
          "midi": 48,
          "time": 109.56970170000055,
          "velocity": 0.7874015748031497,
          "duration": 0.0872092500000008
        },
        {
          "name": "C3",
          "midi": 48,
          "time": 109.65691095000055,
          "velocity": 0.7874015748031497,
          "duration": 0.0872092500000008
        },
        {
          "name": "A2",
          "midi": 45,
          "time": 109.74412020000055,
          "velocity": 0.7874015748031497,
          "duration": 0.1744185000000016
        },
        {
          "name": "E3",
          "midi": 52,
          "time": 109.74412020000055,
          "velocity": 0.7874015748031497,
          "duration": 0.1744185000000016
        },
        {
          "name": "A2",
          "midi": 45,
          "time": 109.91853870000055,
          "velocity": 0.7874015748031497,
          "duration": 0.0872092500000008
        },
        {
          "name": "A2",
          "midi": 45,
          "time": 110.00574795000055,
          "velocity": 0.7874015748031497,
          "duration": 0.0872092500000008
        },
        {
          "name": "A2",
          "midi": 45,
          "time": 110.09295720000055,
          "velocity": 0.7874015748031497,
          "duration": 0.0872092500000008
        },
        {
          "name": "A2",
          "midi": 45,
          "time": 110.26737570000056,
          "velocity": 0.7874015748031497,
          "duration": 0.0872092500000008
        },
        {
          "name": "A2",
          "midi": 45,
          "time": 110.35458495000056,
          "velocity": 0.7874015748031497,
          "duration": 0.0872092500000008
        },
        {
          "name": "D3",
          "midi": 50,
          "time": 110.44179420000056,
          "velocity": 0.7874015748031497,
          "duration": 0.6976740000000063
        },
        {
          "name": "A3",
          "midi": 57,
          "time": 110.44179420000056,
          "velocity": 0.7874015748031497,
          "duration": 0.6976740000000063
        },
        {
          "name": "D3",
          "midi": 50,
          "time": 111.13946820000056,
          "velocity": 0.7874015748031497,
          "duration": 0.1744185000000016
        },
        {
          "name": "D3",
          "midi": 50,
          "time": 111.31388670000057,
          "velocity": 0.7874015748031497,
          "duration": 0.1744185000000016
        },
        {
          "name": "D3",
          "midi": 50,
          "time": 111.48830520000057,
          "velocity": 0.7874015748031497,
          "duration": 0.1744185000000016
        },
        {
          "name": "D3",
          "midi": 50,
          "time": 111.66272370000057,
          "velocity": 0.7874015748031497,
          "duration": 0.1707847812500063
        },
        {
          "name": "E4",
          "midi": 64,
          "time": 111.83714220000057,
          "velocity": 0.7874015748031497,
          "duration": 0.1744185000000016
        },
        {
          "name": "E4",
          "midi": 64,
          "time": 112.01156070000057,
          "velocity": 0.7874015748031497,
          "duration": 0.16860454999999774
        },
        {
          "name": "G4",
          "midi": 67,
          "time": 112.18597920000057,
          "velocity": 0.7874015748031497,
          "duration": 0.1744185000000016
        },
        {
          "name": "E4",
          "midi": 64,
          "time": 112.36039770000058,
          "velocity": 0.7874015748031497,
          "duration": 0.1744185000000016
        },
        {
          "name": "F#4",
          "midi": 66,
          "time": 112.53481620000058,
          "velocity": 0.7874015748031497,
          "duration": 0.1744185000000016
        },
        {
          "name": "E4",
          "midi": 64,
          "time": 112.70923470000058,
          "velocity": 0.7874015748031497,
          "duration": 0.1744185000000016
        },
        {
          "name": "G4",
          "midi": 67,
          "time": 112.88365320000058,
          "velocity": 0.7874015748031497,
          "duration": 0.1744185000000016
        },
        {
          "name": "E4",
          "midi": 64,
          "time": 113.05807170000058,
          "velocity": 0.7874015748031497,
          "duration": 0.1744185000000016
        },
        {
          "name": "F#4",
          "midi": 66,
          "time": 113.23249020000058,
          "velocity": 0.7874015748031497,
          "duration": 0.1744185000000016
        },
        {
          "name": "E4",
          "midi": 64,
          "time": 113.40690870000059,
          "velocity": 0.7874015748031497,
          "duration": 0.1744185000000016
        },
        {
          "name": "G4",
          "midi": 67,
          "time": 113.58132720000059,
          "velocity": 0.7874015748031497,
          "duration": 0.1744185000000016
        },
        {
          "name": "E4",
          "midi": 64,
          "time": 113.75574570000059,
          "velocity": 0.7874015748031497,
          "duration": 0.1744185000000016
        },
        {
          "name": "A4",
          "midi": 69,
          "time": 113.93016420000059,
          "velocity": 0.7874015748031497,
          "duration": 0.1744185000000016
        },
        {
          "name": "G4",
          "midi": 67,
          "time": 114.10458270000059,
          "velocity": 0.7874015748031497,
          "duration": 0.1744185000000016
        },
        {
          "name": "F#4",
          "midi": 66,
          "time": 114.2790012000006,
          "velocity": 0.7874015748031497,
          "duration": 0.1744185000000016
        },
        {
          "name": "D4",
          "midi": 62,
          "time": 114.4534197000006,
          "velocity": 0.7874015748031497,
          "duration": 0.1744185000000016
        },
        {
          "name": "E4",
          "midi": 64,
          "time": 114.6278382000006,
          "velocity": 0.7874015748031497,
          "duration": 0.1744185000000016
        },
        {
          "name": "E4",
          "midi": 64,
          "time": 114.8022567000006,
          "velocity": 0.7874015748031497,
          "duration": 0.16860454999999774
        },
        {
          "name": "G4",
          "midi": 67,
          "time": 114.9766752000006,
          "velocity": 0.7874015748031497,
          "duration": 0.1744185000000016
        },
        {
          "name": "E4",
          "midi": 64,
          "time": 115.1510937000006,
          "velocity": 0.7874015748031497,
          "duration": 0.1744185000000016
        },
        {
          "name": "F#4",
          "midi": 66,
          "time": 115.3255122000006,
          "velocity": 0.7874015748031497,
          "duration": 0.1744185000000016
        },
        {
          "name": "E4",
          "midi": 64,
          "time": 115.4999307000006,
          "velocity": 0.7874015748031497,
          "duration": 0.1744185000000016
        },
        {
          "name": "G4",
          "midi": 67,
          "time": 115.6743492000006,
          "velocity": 0.7874015748031497,
          "duration": 0.1744185000000016
        },
        {
          "name": "E4",
          "midi": 64,
          "time": 115.84876770000061,
          "velocity": 0.7874015748031497,
          "duration": 0.1744185000000016
        },
        {
          "name": "F#4",
          "midi": 66,
          "time": 116.02318620000061,
          "velocity": 0.7874015748031497,
          "duration": 0.1744185000000016
        },
        {
          "name": "E4",
          "midi": 64,
          "time": 116.19760470000061,
          "velocity": 0.7874015748031497,
          "duration": 0.1744185000000016
        },
        {
          "name": "G4",
          "midi": 67,
          "time": 116.37202320000061,
          "velocity": 0.7874015748031497,
          "duration": 0.1744185000000016
        },
        {
          "name": "E4",
          "midi": 64,
          "time": 116.54644170000061,
          "velocity": 0.7874015748031497,
          "duration": 0.1744185000000016
        },
        {
          "name": "B3",
          "midi": 59,
          "time": 116.72086020000062,
          "velocity": 0.7874015748031497,
          "duration": 0.1744185000000016
        },
        {
          "name": "C4",
          "midi": 60,
          "time": 116.89527870000062,
          "velocity": 0.7874015748031497,
          "duration": 0.1744185000000016
        },
        {
          "name": "D4",
          "midi": 62,
          "time": 117.06969720000062,
          "velocity": 0.7874015748031497,
          "duration": 0.1744185000000016
        },
        {
          "name": "F#4",
          "midi": 66,
          "time": 117.24411570000062,
          "velocity": 0.7874015748031497,
          "duration": 0.1744185000000016
        },
        {
          "name": "E4",
          "midi": 64,
          "time": 117.41853420000062,
          "velocity": 0.7874015748031497,
          "duration": 0.1744185000000016
        },
        {
          "name": "E4",
          "midi": 64,
          "time": 117.59295270000062,
          "velocity": 0.7874015748031497,
          "duration": 0.16860454999999774
        },
        {
          "name": "G4",
          "midi": 67,
          "time": 117.76737120000062,
          "velocity": 0.7874015748031497,
          "duration": 0.1744185000000016
        },
        {
          "name": "E4",
          "midi": 64,
          "time": 117.94178970000063,
          "velocity": 0.7874015748031497,
          "duration": 0.1744185000000016
        },
        {
          "name": "F#4",
          "midi": 66,
          "time": 118.11620820000063,
          "velocity": 0.7874015748031497,
          "duration": 0.1744185000000016
        },
        {
          "name": "E4",
          "midi": 64,
          "time": 118.29062670000063,
          "velocity": 0.7874015748031497,
          "duration": 0.1744185000000016
        },
        {
          "name": "G4",
          "midi": 67,
          "time": 118.46504520000063,
          "velocity": 0.7874015748031497,
          "duration": 0.1744185000000016
        },
        {
          "name": "E4",
          "midi": 64,
          "time": 118.63946370000063,
          "velocity": 0.7874015748031497,
          "duration": 0.1744185000000016
        },
        {
          "name": "F#4",
          "midi": 66,
          "time": 118.81388220000063,
          "velocity": 0.7874015748031497,
          "duration": 0.1744185000000016
        },
        {
          "name": "E4",
          "midi": 64,
          "time": 118.98830070000064,
          "velocity": 0.7874015748031497,
          "duration": 0.1744185000000016
        },
        {
          "name": "G4",
          "midi": 67,
          "time": 119.16271920000064,
          "velocity": 0.7874015748031497,
          "duration": 0.1744185000000016
        },
        {
          "name": "E4",
          "midi": 64,
          "time": 119.33713770000064,
          "velocity": 0.7874015748031497,
          "duration": 0.1744185000000016
        },
        {
          "name": "A4",
          "midi": 69,
          "time": 119.51155620000064,
          "velocity": 0.7874015748031497,
          "duration": 0.1744185000000016
        },
        {
          "name": "G4",
          "midi": 67,
          "time": 119.68597470000064,
          "velocity": 0.7874015748031497,
          "duration": 0.1744185000000016
        },
        {
          "name": "F#4",
          "midi": 66,
          "time": 119.86039320000064,
          "velocity": 0.7874015748031497,
          "duration": 0.1744185000000016
        },
        {
          "name": "D4",
          "midi": 62,
          "time": 120.03481170000065,
          "velocity": 0.7874015748031497,
          "duration": 0.1744185000000016
        },
        {
          "name": "E4",
          "midi": 64,
          "time": 120.20923020000065,
          "velocity": 0.7874015748031497,
          "duration": 0.1744185000000016
        },
        {
          "name": "E4",
          "midi": 64,
          "time": 120.38364870000065,
          "velocity": 0.7874015748031497,
          "duration": 0.16860454999999774
        },
        {
          "name": "G4",
          "midi": 67,
          "time": 120.55806720000065,
          "velocity": 0.7874015748031497,
          "duration": 0.1744185000000016
        },
        {
          "name": "E4",
          "midi": 64,
          "time": 120.73248570000065,
          "velocity": 0.7874015748031497,
          "duration": 0.1744185000000016
        },
        {
          "name": "F#4",
          "midi": 66,
          "time": 120.90690420000065,
          "velocity": 0.7874015748031497,
          "duration": 0.1744185000000016
        },
        {
          "name": "E4",
          "midi": 64,
          "time": 121.08132270000065,
          "velocity": 0.7874015748031497,
          "duration": 0.1744185000000016
        },
        {
          "name": "G4",
          "midi": 67,
          "time": 121.25574120000066,
          "velocity": 0.7874015748031497,
          "duration": 0.1744185000000016
        },
        {
          "name": "E4",
          "midi": 64,
          "time": 121.43015970000066,
          "velocity": 0.7874015748031497,
          "duration": 0.1744185000000016
        },
        {
          "name": "F#4",
          "midi": 66,
          "time": 121.60457820000066,
          "velocity": 0.7874015748031497,
          "duration": 0.1744185000000016
        },
        {
          "name": "E4",
          "midi": 64,
          "time": 121.77899670000066,
          "velocity": 0.7874015748031497,
          "duration": 0.1744185000000016
        },
        {
          "name": "G4",
          "midi": 67,
          "time": 121.95341520000066,
          "velocity": 0.7874015748031497,
          "duration": 0.1744185000000016
        },
        {
          "name": "E4",
          "midi": 64,
          "time": 122.12783370000066,
          "velocity": 0.7874015748031497,
          "duration": 0.1744185000000016
        },
        {
          "name": "D5",
          "midi": 74,
          "time": 122.30225220000067,
          "velocity": 0.7874015748031497,
          "duration": 0.1744185000000016
        },
        {
          "name": "C5",
          "midi": 72,
          "time": 122.47667070000067,
          "velocity": 0.7874015748031497,
          "duration": 0.1744185000000016
        },
        {
          "name": "B4",
          "midi": 71,
          "time": 122.65108920000067,
          "velocity": 0.7874015748031497,
          "duration": 0.1744185000000016
        },
        {
          "name": "A4",
          "midi": 69,
          "time": 122.82550770000067,
          "velocity": 0.7874015748031497,
          "duration": 0.1744185000000016
        },
        {
          "name": "C3",
          "midi": 48,
          "time": 122.99992620000067,
          "velocity": 0.7874015748031497,
          "duration": 0.3488370000000032
        },
        {
          "name": "G3",
          "midi": 55,
          "time": 122.99992620000067,
          "velocity": 0.7874015748031497,
          "duration": 0.3488370000000032
        },
        {
          "name": "C3",
          "midi": 48,
          "time": 123.34876320000068,
          "velocity": 0.7874015748031497,
          "duration": 0.2616277500000024
        },
        {
          "name": "G3",
          "midi": 55,
          "time": 123.34876320000068,
          "velocity": 0.7874015748031497,
          "duration": 0.2616277500000024
        },
        {
          "name": "C3",
          "midi": 48,
          "time": 123.69760020000068,
          "velocity": 0.7874015748031497,
          "duration": 0.0872092500000008
        },
        {
          "name": "C3",
          "midi": 48,
          "time": 123.87201870000068,
          "velocity": 0.7874015748031497,
          "duration": 0.0872092500000008
        },
        {
          "name": "G3",
          "midi": 55,
          "time": 123.87201870000068,
          "velocity": 0.7874015748031497,
          "duration": 0.0872092500000008
        },
        {
          "name": "C3",
          "midi": 48,
          "time": 124.04643720000068,
          "velocity": 0.7874015748031497,
          "duration": 0.0872092500000008
        },
        {
          "name": "D3",
          "midi": 50,
          "time": 124.22085570000068,
          "velocity": 0.7874015748031497,
          "duration": 0.5218020125000038
        },
        {
          "name": "A3",
          "midi": 57,
          "time": 124.22085570000068,
          "velocity": 0.7874015748031497,
          "duration": 0.5218020125000038
        },
        {
          "name": "D3",
          "midi": 50,
          "time": 124.74411120000069,
          "velocity": 0.7874015748031497,
          "duration": 0.3488370000000032
        },
        {
          "name": "A3",
          "midi": 57,
          "time": 124.74411120000069,
          "velocity": 0.7874015748031497,
          "duration": 0.3488370000000032
        },
        {
          "name": "D3",
          "midi": 50,
          "time": 125.09294820000069,
          "velocity": 0.7874015748031497,
          "duration": 0.0872092500000008
        },
        {
          "name": "D3",
          "midi": 50,
          "time": 125.2673667000007,
          "velocity": 0.7874015748031497,
          "duration": 0.0872092500000008
        },
        {
          "name": "A3",
          "midi": 57,
          "time": 125.2673667000007,
          "velocity": 0.7874015748031497,
          "duration": 0.0872092500000008
        },
        {
          "name": "D3",
          "midi": 50,
          "time": 125.4417852000007,
          "velocity": 0.7874015748031497,
          "duration": 0.0872092500000008
        },
        {
          "name": "D3",
          "midi": 50,
          "time": 125.6147502125007,
          "velocity": 0.7874015748031497,
          "duration": 0.34302304999999933
        },
        {
          "name": "A3",
          "midi": 57,
          "time": 125.6162037000007,
          "velocity": 0.7874015748031497,
          "duration": 0.3488370000000032
        },
        {
          "name": "E3",
          "midi": 52,
          "time": 125.9650407000007,
          "velocity": 0.7874015748031497,
          "duration": 0.0872092500000008
        },
        {
          "name": "B3",
          "midi": 59,
          "time": 125.9650407000007,
          "velocity": 0.7874015748031497,
          "duration": 0.0872092500000008
        },
        {
          "name": "E3",
          "midi": 52,
          "time": 126.1394592000007,
          "velocity": 0.7874015748031497,
          "duration": 0.1744185000000016
        },
        {
          "name": "B3",
          "midi": 59,
          "time": 126.1394592000007,
          "velocity": 0.7874015748031497,
          "duration": 0.1744185000000016
        },
        {
          "name": "E4",
          "midi": 64,
          "time": 126.3138777000007,
          "velocity": 0.7874015748031497,
          "duration": 0.1744185000000016
        },
        {
          "name": "G4",
          "midi": 67,
          "time": 126.4882962000007,
          "velocity": 0.7874015748031497,
          "duration": 0.1744185000000016
        },
        {
          "name": "F#4",
          "midi": 66,
          "time": 126.6627147000007,
          "velocity": 0.7874015748031497,
          "duration": 0.1744185000000016
        },
        {
          "name": "E4",
          "midi": 64,
          "time": 126.83713320000071,
          "velocity": 0.7874015748031497,
          "duration": 0.18386616875000072
        },
        {
          "name": "D4",
          "midi": 62,
          "time": 127.01155170000071,
          "velocity": 0.7874015748031497,
          "duration": 0.3488370000000032
        },
        {
          "name": "E4",
          "midi": 64,
          "time": 127.36038870000071,
          "velocity": 0.7874015748031497,
          "duration": 0.1744185000000016
        },
        {
          "name": "E4",
          "midi": 64,
          "time": 127.53480720000071,
          "velocity": 0.7874015748031497,
          "duration": 0.3488370000000032
        },
        {
          "name": "E3",
          "midi": 52,
          "time": 127.88364420000072,
          "velocity": 0.7874015748031497,
          "duration": 0.34883699999998896
        },
        {
          "name": "B3",
          "midi": 59,
          "time": 127.88364420000072,
          "velocity": 0.7874015748031497,
          "duration": 0.34883699999998896
        },
        {
          "name": "D3",
          "midi": 50,
          "time": 128.2324812000007,
          "velocity": 0.7874015748031497,
          "duration": 0.3488370000000032
        },
        {
          "name": "A3",
          "midi": 57,
          "time": 128.2324812000007,
          "velocity": 0.7874015748031497,
          "duration": 0.3488370000000032
        },
        {
          "name": "C3",
          "midi": 48,
          "time": 128.5813182000007,
          "velocity": 0.7874015748031497,
          "duration": 0.3488370000000032
        },
        {
          "name": "G3",
          "midi": 55,
          "time": 128.5813182000007,
          "velocity": 0.7874015748031497,
          "duration": 0.3488370000000032
        },
        {
          "name": "C3",
          "midi": 48,
          "time": 128.9301552000007,
          "velocity": 0.7874015748031497,
          "duration": 0.2616277500000024
        },
        {
          "name": "G3",
          "midi": 55,
          "time": 128.9301552000007,
          "velocity": 0.7874015748031497,
          "duration": 0.2616277500000024
        },
        {
          "name": "C3",
          "midi": 48,
          "time": 129.27899220000072,
          "velocity": 0.7874015748031497,
          "duration": 0.0872092500000008
        },
        {
          "name": "C3",
          "midi": 48,
          "time": 129.45341070000072,
          "velocity": 0.7874015748031497,
          "duration": 0.0872092500000008
        },
        {
          "name": "G3",
          "midi": 55,
          "time": 129.45341070000072,
          "velocity": 0.7874015748031497,
          "duration": 0.0872092500000008
        },
        {
          "name": "C3",
          "midi": 48,
          "time": 129.62782920000072,
          "velocity": 0.7874015748031497,
          "duration": 0.0872092500000008
        },
        {
          "name": "D3",
          "midi": 50,
          "time": 129.80224770000072,
          "velocity": 0.7874015748031497,
          "duration": 0.5218020124999896
        },
        {
          "name": "A3",
          "midi": 57,
          "time": 129.80224770000072,
          "velocity": 0.7874015748031497,
          "duration": 0.5218020124999896
        },
        {
          "name": "D3",
          "midi": 50,
          "time": 130.3255032000007,
          "velocity": 0.7874015748031497,
          "duration": 0.3488370000000032
        },
        {
          "name": "A3",
          "midi": 57,
          "time": 130.3255032000007,
          "velocity": 0.7874015748031497,
          "duration": 0.3488370000000032
        },
        {
          "name": "D3",
          "midi": 50,
          "time": 130.6743402000007,
          "velocity": 0.7874015748031497,
          "duration": 0.0872092500000008
        },
        {
          "name": "D3",
          "midi": 50,
          "time": 130.8487587000007,
          "velocity": 0.7874015748031497,
          "duration": 0.0872092500000008
        },
        {
          "name": "A3",
          "midi": 57,
          "time": 130.8487587000007,
          "velocity": 0.7874015748031497,
          "duration": 0.0872092500000008
        },
        {
          "name": "D3",
          "midi": 50,
          "time": 131.0231772000007,
          "velocity": 0.7874015748031497,
          "duration": 0.0872092500000008
        },
        {
          "name": "D3",
          "midi": 50,
          "time": 131.19614221250072,
          "velocity": 0.7874015748031497,
          "duration": 0.34302304999999933
        },
        {
          "name": "A3",
          "midi": 57,
          "time": 131.1975957000007,
          "velocity": 0.7874015748031497,
          "duration": 0.3488370000000032
        },
        {
          "name": "E3",
          "midi": 52,
          "time": 131.5464327000007,
          "velocity": 0.7874015748031497,
          "duration": 0.0872092500000008
        },
        {
          "name": "B3",
          "midi": 59,
          "time": 131.5464327000007,
          "velocity": 0.7874015748031497,
          "duration": 0.0872092500000008
        },
        {
          "name": "E3",
          "midi": 52,
          "time": 131.7208512000007,
          "velocity": 0.7874015748031497,
          "duration": 0.1744185000000016
        },
        {
          "name": "B3",
          "midi": 59,
          "time": 131.7208512000007,
          "velocity": 0.7874015748031497,
          "duration": 0.1744185000000016
        },
        {
          "name": "E3",
          "midi": 52,
          "time": 131.8952697000007,
          "velocity": 0.7874015748031497,
          "duration": 0.0872092500000008
        },
        {
          "name": "B3",
          "midi": 59,
          "time": 132.0696882000007,
          "velocity": 0.7874015748031497,
          "duration": 0.1744185000000016
        },
        {
          "name": "C4",
          "midi": 60,
          "time": 132.2441067000007,
          "velocity": 0.7874015748031497,
          "duration": 0.1744185000000016
        },
        {
          "name": "D4",
          "midi": 62,
          "time": 132.41852520000072,
          "velocity": 0.7874015748031497,
          "duration": 0.1744185000000016
        },
        {
          "name": "E4",
          "midi": 64,
          "time": 132.59294370000072,
          "velocity": 0.7874015748031497,
          "duration": 0.1744185000000016
        },
        {
          "name": "F#4",
          "midi": 66,
          "time": 132.76736220000072,
          "velocity": 0.7874015748031497,
          "duration": 0.1744185000000016
        },
        {
          "name": "G4",
          "midi": 67,
          "time": 132.94178070000072,
          "velocity": 0.7874015748031497,
          "duration": 0.5232555000000048
        },
        {
          "name": "E3",
          "midi": 52,
          "time": 133.46503620000072,
          "velocity": 0.7874015748031497,
          "duration": 0.3488370000000032
        },
        {
          "name": "B3",
          "midi": 59,
          "time": 133.46503620000072,
          "velocity": 0.7874015748031497,
          "duration": 0.3488370000000032
        },
        {
          "name": "D3",
          "midi": 50,
          "time": 133.81387320000073,
          "velocity": 0.7874015748031497,
          "duration": 0.3488370000000032
        },
        {
          "name": "A3",
          "midi": 57,
          "time": 133.81387320000073,
          "velocity": 0.7874015748031497,
          "duration": 0.3488370000000032
        },
        {
          "name": "C3",
          "midi": 48,
          "time": 134.16271020000073,
          "velocity": 0.7874015748031497,
          "duration": 0.3488370000000032
        },
        {
          "name": "G3",
          "midi": 55,
          "time": 134.16271020000073,
          "velocity": 0.7874015748031497,
          "duration": 0.3488370000000032
        },
        {
          "name": "C3",
          "midi": 48,
          "time": 134.51154720000073,
          "velocity": 0.7874015748031497,
          "duration": 0.2616277500000024
        },
        {
          "name": "G3",
          "midi": 55,
          "time": 134.51154720000073,
          "velocity": 0.7874015748031497,
          "duration": 0.2616277500000024
        },
        {
          "name": "C3",
          "midi": 48,
          "time": 134.86038420000074,
          "velocity": 0.7874015748031497,
          "duration": 0.0872092500000008
        },
        {
          "name": "C3",
          "midi": 48,
          "time": 135.03480270000074,
          "velocity": 0.7874015748031497,
          "duration": 0.0872092500000008
        },
        {
          "name": "G3",
          "midi": 55,
          "time": 135.03480270000074,
          "velocity": 0.7874015748031497,
          "duration": 0.0872092500000008
        },
        {
          "name": "C3",
          "midi": 48,
          "time": 135.20922120000074,
          "velocity": 0.7874015748031497,
          "duration": 0.0872092500000008
        },
        {
          "name": "D3",
          "midi": 50,
          "time": 135.38363970000074,
          "velocity": 0.7874015748031497,
          "duration": 0.5218020124999896
        },
        {
          "name": "A3",
          "midi": 57,
          "time": 135.38363970000074,
          "velocity": 0.7874015748031497,
          "duration": 0.5218020124999896
        },
        {
          "name": "D3",
          "midi": 50,
          "time": 135.90689520000072,
          "velocity": 0.7874015748031497,
          "duration": 0.3488370000000032
        },
        {
          "name": "A3",
          "midi": 57,
          "time": 135.90689520000072,
          "velocity": 0.7874015748031497,
          "duration": 0.3488370000000032
        },
        {
          "name": "D3",
          "midi": 50,
          "time": 136.25573220000072,
          "velocity": 0.7874015748031497,
          "duration": 0.0872092500000008
        },
        {
          "name": "D3",
          "midi": 50,
          "time": 136.43015070000072,
          "velocity": 0.7874015748031497,
          "duration": 0.0872092500000008
        },
        {
          "name": "A3",
          "midi": 57,
          "time": 136.43015070000072,
          "velocity": 0.7874015748031497,
          "duration": 0.0872092500000008
        },
        {
          "name": "D3",
          "midi": 50,
          "time": 136.60456920000073,
          "velocity": 0.7874015748031497,
          "duration": 0.0872092500000008
        },
        {
          "name": "D3",
          "midi": 50,
          "time": 136.77753421250074,
          "velocity": 0.7874015748031497,
          "duration": 0.34302304999999933
        },
        {
          "name": "A3",
          "midi": 57,
          "time": 136.77898770000073,
          "velocity": 0.7874015748031497,
          "duration": 0.3488370000000032
        },
        {
          "name": "E3",
          "midi": 52,
          "time": 137.12782470000073,
          "velocity": 0.7874015748031497,
          "duration": 0.0872092500000008
        },
        {
          "name": "B3",
          "midi": 59,
          "time": 137.12782470000073,
          "velocity": 0.7874015748031497,
          "duration": 0.0872092500000008
        },
        {
          "name": "E3",
          "midi": 52,
          "time": 137.30224320000073,
          "velocity": 0.7874015748031497,
          "duration": 0.1744185000000016
        },
        {
          "name": "B3",
          "midi": 59,
          "time": 137.30224320000073,
          "velocity": 0.7874015748031497,
          "duration": 0.1744185000000016
        },
        {
          "name": "E4",
          "midi": 64,
          "time": 137.47666170000073,
          "velocity": 0.7874015748031497,
          "duration": 0.1744185000000016
        },
        {
          "name": "G4",
          "midi": 67,
          "time": 137.65108020000073,
          "velocity": 0.7874015748031497,
          "duration": 0.1744185000000016
        },
        {
          "name": "F#4",
          "midi": 66,
          "time": 137.82549870000074,
          "velocity": 0.7874015748031497,
          "duration": 0.1744185000000016
        },
        {
          "name": "E4",
          "midi": 64,
          "time": 137.99991720000074,
          "velocity": 0.7874015748031497,
          "duration": 0.18386616875000072
        },
        {
          "name": "D4",
          "midi": 62,
          "time": 138.17433570000074,
          "velocity": 0.7874015748031497,
          "duration": 0.3488370000000032
        },
        {
          "name": "E4",
          "midi": 64,
          "time": 138.52317270000074,
          "velocity": 0.7874015748031497,
          "duration": 0.1744185000000016
        },
        {
          "name": "E4",
          "midi": 64,
          "time": 138.69759120000074,
          "velocity": 0.7874015748031497,
          "duration": 0.3488370000000032
        },
        {
          "name": "E3",
          "midi": 52,
          "time": 139.04642820000075,
          "velocity": 0.7874015748031497,
          "duration": 0.3488370000000032
        },
        {
          "name": "B3",
          "midi": 59,
          "time": 139.04642820000075,
          "velocity": 0.7874015748031497,
          "duration": 0.3488370000000032
        },
        {
          "name": "D3",
          "midi": 50,
          "time": 139.39526520000075,
          "velocity": 0.7874015748031497,
          "duration": 0.3488370000000032
        },
        {
          "name": "A3",
          "midi": 57,
          "time": 139.39526520000075,
          "velocity": 0.7874015748031497,
          "duration": 0.3488370000000032
        },
        {
          "name": "C3",
          "midi": 48,
          "time": 139.74410220000075,
          "velocity": 0.7874015748031497,
          "duration": 0.3488370000000032
        },
        {
          "name": "G3",
          "midi": 55,
          "time": 139.74410220000075,
          "velocity": 0.7874015748031497,
          "duration": 0.3488370000000032
        },
        {
          "name": "C3",
          "midi": 48,
          "time": 140.09293920000076,
          "velocity": 0.7874015748031497,
          "duration": 0.2616277500000024
        },
        {
          "name": "G3",
          "midi": 55,
          "time": 140.09293920000076,
          "velocity": 0.7874015748031497,
          "duration": 0.2616277500000024
        },
        {
          "name": "C3",
          "midi": 48,
          "time": 140.44177620000076,
          "velocity": 0.7874015748031497,
          "duration": 0.0872092500000008
        },
        {
          "name": "C3",
          "midi": 48,
          "time": 140.61619470000076,
          "velocity": 0.7874015748031497,
          "duration": 0.0872092500000008
        },
        {
          "name": "G3",
          "midi": 55,
          "time": 140.61619470000076,
          "velocity": 0.7874015748031497,
          "duration": 0.0872092500000008
        },
        {
          "name": "C3",
          "midi": 48,
          "time": 140.79061320000076,
          "velocity": 0.7874015748031497,
          "duration": 0.0872092500000008
        },
        {
          "name": "D3",
          "midi": 50,
          "time": 140.96503170000076,
          "velocity": 0.7874015748031497,
          "duration": 0.5218020124999896
        },
        {
          "name": "A3",
          "midi": 57,
          "time": 140.96503170000076,
          "velocity": 0.7874015748031497,
          "duration": 0.5218020124999896
        },
        {
          "name": "D3",
          "midi": 50,
          "time": 141.48828720000074,
          "velocity": 0.7874015748031497,
          "duration": 0.3488370000000032
        },
        {
          "name": "A3",
          "midi": 57,
          "time": 141.48828720000074,
          "velocity": 0.7874015748031497,
          "duration": 0.3488370000000032
        },
        {
          "name": "D3",
          "midi": 50,
          "time": 141.83712420000074,
          "velocity": 0.7874015748031497,
          "duration": 0.0872092500000008
        },
        {
          "name": "D3",
          "midi": 50,
          "time": 142.01154270000075,
          "velocity": 0.7874015748031497,
          "duration": 0.0872092500000008
        },
        {
          "name": "A3",
          "midi": 57,
          "time": 142.01154270000075,
          "velocity": 0.7874015748031497,
          "duration": 0.0872092500000008
        },
        {
          "name": "D3",
          "midi": 50,
          "time": 142.18596120000075,
          "velocity": 0.7874015748031497,
          "duration": 0.0872092500000008
        },
        {
          "name": "D3",
          "midi": 50,
          "time": 142.35892621250076,
          "velocity": 0.7874015748031497,
          "duration": 0.34302304999999933
        },
        {
          "name": "A3",
          "midi": 57,
          "time": 142.36037970000075,
          "velocity": 0.7874015748031497,
          "duration": 0.3488370000000032
        },
        {
          "name": "E3",
          "midi": 52,
          "time": 142.70921670000075,
          "velocity": 0.7874015748031497,
          "duration": 0.0872092500000008
        },
        {
          "name": "B3",
          "midi": 59,
          "time": 142.70921670000075,
          "velocity": 0.7874015748031497,
          "duration": 0.0872092500000008
        },
        {
          "name": "E3",
          "midi": 52,
          "time": 142.88363520000075,
          "velocity": 0.7874015748031497,
          "duration": 0.2616277500000024
        },
        {
          "name": "B3",
          "midi": 59,
          "time": 142.88363520000075,
          "velocity": 0.7874015748031497,
          "duration": 0.2616277500000024
        },
        {
          "name": "E3",
          "midi": 52,
          "time": 143.23247220000076,
          "velocity": 0.7874015748031497,
          "duration": 0.1744185000000016
        },
        {
          "name": "G3",
          "midi": 55,
          "time": 143.40689070000076,
          "velocity": 0.7874015748031497,
          "duration": 0.1744185000000016
        },
        {
          "name": "B3",
          "midi": 59,
          "time": 143.58130920000076,
          "velocity": 0.7874015748031497,
          "duration": 0.1744185000000016
        },
        {
          "name": "E4",
          "midi": 64,
          "time": 143.75572770000076,
          "velocity": 0.7874015748031497,
          "duration": 0.1744185000000016
        },
        {
          "name": "G4",
          "midi": 67,
          "time": 143.93014620000076,
          "velocity": 0.7874015748031497,
          "duration": 0.1744185000000016
        },
        {
          "name": "B4",
          "midi": 71,
          "time": 144.10456470000076,
          "velocity": 0.7874015748031497,
          "duration": 0.1744185000000016
        },
        {
          "name": "E5",
          "midi": 76,
          "time": 144.27898320000077,
          "velocity": 0.7874015748031497,
          "duration": 0.16933129374999112
        },
        {
          "name": "G5",
          "midi": 79,
          "time": 144.45340170000077,
          "velocity": 0.7874015748031497,
          "duration": 0.1773254750000035
        },
        {
          "name": "B5",
          "midi": 83,
          "time": 144.62782020000077,
          "velocity": 0.7874015748031497,
          "duration": 0.6976740000000063
        },
        {
          "name": "E5",
          "midi": 76,
          "time": 145.32549420000078,
          "velocity": 0.7874015748031497,
          "duration": 0.5232555000000048
        },
        {
          "name": "B4",
          "midi": 71,
          "time": 145.84874970000078,
          "velocity": 0.7874015748031497,
          "duration": 0.5232555000000048
        },
        {
          "name": "D5",
          "midi": 74,
          "time": 146.3654645062508,
          "velocity": 0.7874015748031497,
          "duration": 0.3488370000000032
        },
        {
          "name": "C5",
          "midi": 72,
          "time": 146.7208422000008,
          "velocity": 0.7874015748031497,
          "duration": 1.0465110000000095
        },
        {
          "name": "B4",
          "midi": 71,
          "time": 147.7673532000008,
          "velocity": 0.7874015748031497,
          "duration": 0.1744185000000016
        },
        {
          "name": "A4",
          "midi": 69,
          "time": 147.9417717000008,
          "velocity": 0.7874015748031497,
          "duration": 0.1744185000000016
        },
        {
          "name": "B4",
          "midi": 71,
          "time": 148.1161902000008,
          "velocity": 0.7874015748031497,
          "duration": 0.5232555000000048
        },
        {
          "name": "G4",
          "midi": 67,
          "time": 148.6394457000008,
          "velocity": 0.7874015748031497,
          "duration": 0.5232555000000048
        },
        {
          "name": "B4",
          "midi": 71,
          "time": 149.1627012000008,
          "velocity": 0.7874015748031497,
          "duration": 0.3488370000000032
        },
        {
          "name": "A4",
          "midi": 69,
          "time": 149.5115382000008,
          "velocity": 0.7874015748031497,
          "duration": 1.3953480000000127
        },
        {
          "name": "E5",
          "midi": 76,
          "time": 150.90688620000083,
          "velocity": 0.7874015748031497,
          "duration": 0.5232555000000048
        },
        {
          "name": "B4",
          "midi": 71,
          "time": 151.43014170000083,
          "velocity": 0.7874015748031497,
          "duration": 0.5232555000000048
        },
        {
          "name": "D5",
          "midi": 74,
          "time": 151.95339720000084,
          "velocity": 0.7874015748031497,
          "duration": 0.3488370000000032
        },
        {
          "name": "C5",
          "midi": 72,
          "time": 152.30223420000084,
          "velocity": 0.7874015748031497,
          "duration": 1.0465110000000095
        },
        {
          "name": "G5",
          "midi": 79,
          "time": 153.34874520000085,
          "velocity": 0.7874015748031497,
          "duration": 0.1744185000000016
        },
        {
          "name": "F#5",
          "midi": 78,
          "time": 153.52316370000085,
          "velocity": 0.7874015748031497,
          "duration": 0.1744185000000016
        },
        {
          "name": "G5",
          "midi": 79,
          "time": 153.69758220000085,
          "velocity": 0.7874015748031497,
          "duration": 0.5232555000000048
        },
        {
          "name": "F#5",
          "midi": 78,
          "time": 154.22083770000086,
          "velocity": 0.7874015748031497,
          "duration": 0.5232555000000048
        },
        {
          "name": "D5",
          "midi": 74,
          "time": 154.74409320000086,
          "velocity": 0.7874015748031497,
          "duration": 0.3488370000000032
        },
        {
          "name": "E5",
          "midi": 76,
          "time": 155.09293020000086,
          "velocity": 0.7874015748031497,
          "duration": 1.0465110000000095
        },
        {
          "name": "B4",
          "midi": 71,
          "time": 156.13944120000087,
          "velocity": 0.7874015748031497,
          "duration": 0.3488370000000032
        },
        {
          "name": "E5",
          "midi": 76,
          "time": 156.48827820000088,
          "velocity": 0.7874015748031497,
          "duration": 1.0465110000000095
        },
        {
          "name": "C5",
          "midi": 72,
          "time": 157.5347892000009,
          "velocity": 0.7874015748031497,
          "duration": 0.3488370000000032
        },
        {
          "name": "E5",
          "midi": 76,
          "time": 157.8836262000009,
          "velocity": 0.7874015748031497,
          "duration": 1.0465110000000095
        },
        {
          "name": "C#5",
          "midi": 73,
          "time": 158.9301372000009,
          "velocity": 0.7874015748031497,
          "duration": 0.3488370000000032
        },
        {
          "name": "E5",
          "midi": 76,
          "time": 159.2789742000009,
          "velocity": 0.7874015748031497,
          "duration": 1.0465110000000095
        },
        {
          "name": "F#5",
          "midi": 78,
          "time": 160.3254852000009,
          "velocity": 0.7874015748031497,
          "duration": 0.3488370000000032
        },
        {
          "name": "G5",
          "midi": 79,
          "time": 160.67432220000092,
          "velocity": 0.7874015748031497,
          "duration": 0.5232555000000048
        },
        {
          "name": "F#5",
          "midi": 78,
          "time": 161.19757770000092,
          "velocity": 0.7874015748031497,
          "duration": 0.5232555000000048
        },
        {
          "name": "B4",
          "midi": 71,
          "time": 161.72083320000092,
          "velocity": 0.7874015748031497,
          "duration": 0.3488370000000032
        },
        {
          "name": "E5",
          "midi": 76,
          "time": 162.06967020000093,
          "velocity": 0.7874015748031497,
          "duration": 1.0465110000000095
        },
        {
          "name": "C5",
          "midi": 72,
          "time": 163.11618120000094,
          "velocity": 0.7874015748031497,
          "duration": 0.3488370000000032
        },
        {
          "name": "E5",
          "midi": 76,
          "time": 163.46501820000094,
          "velocity": 0.7874015748031497,
          "duration": 1.0465110000000095
        },
        {
          "name": "C#5",
          "midi": 73,
          "time": 164.51152920000095,
          "velocity": 0.7874015748031497,
          "duration": 0.3488370000000032
        },
        {
          "name": "E5",
          "midi": 76,
          "time": 164.86036620000095,
          "velocity": 0.7874015748031497,
          "duration": 1.0465110000000095
        },
        {
          "name": "F#5",
          "midi": 78,
          "time": 165.90687720000096,
          "velocity": 0.7874015748031497,
          "duration": 0.3488370000000032
        },
        {
          "name": "G5",
          "midi": 79,
          "time": 166.25571420000097,
          "velocity": 0.7874015748031497,
          "duration": 0.5232555000000048
        },
        {
          "name": "F#5",
          "midi": 78,
          "time": 166.77896970000097,
          "velocity": 0.7874015748031497,
          "duration": 0.5232555000000048
        },
        {
          "name": "D5",
          "midi": 74,
          "time": 167.30949263750097,
          "velocity": 0.7874015748031497,
          "duration": 0.3488370000000032
        },
        {
          "name": "G5",
          "midi": 79,
          "time": 167.65832963750097,
          "velocity": 0.7874015748031497,
          "duration": 1.046510999999981
        },
        {
          "name": "E5",
          "midi": 76,
          "time": 168.69757320000096,
          "velocity": 0.7874015748031497,
          "duration": 0.3488370000000032
        },
        {
          "name": "G5",
          "midi": 79,
          "time": 169.05367763750095,
          "velocity": 0.7874015748031497,
          "duration": 1.0465110000000095
        },
        {
          "name": "E5",
          "midi": 76,
          "time": 170.10018863750096,
          "velocity": 0.7874015748031497,
          "duration": 0.3488370000000032
        },
        {
          "name": "G5",
          "midi": 79,
          "time": 170.44902563750097,
          "velocity": 0.7874015748031497,
          "duration": 1.0465110000000095
        },
        {
          "name": "A5",
          "midi": 81,
          "time": 171.49553663750098,
          "velocity": 0.7874015748031497,
          "duration": 0.3488370000000032
        },
        {
          "name": "B5",
          "midi": 83,
          "time": 171.84437363750098,
          "velocity": 0.7874015748031497,
          "duration": 0.5232555000000048
        },
        {
          "name": "A5",
          "midi": 81,
          "time": 172.36762913750098,
          "velocity": 0.7874015748031497,
          "duration": 0.5232555000000048
        },
        {
          "name": "D5",
          "midi": 74,
          "time": 172.890884637501,
          "velocity": 0.7874015748031497,
          "duration": 0.3488370000000032
        },
        {
          "name": "G5",
          "midi": 79,
          "time": 173.239721637501,
          "velocity": 0.7874015748031497,
          "duration": 1.046510999999981
        },
        {
          "name": "E5",
          "midi": 76,
          "time": 174.27896520000098,
          "velocity": 0.7874015748031497,
          "duration": 0.3488370000000032
        },
        {
          "name": "G5",
          "midi": 79,
          "time": 174.63506963750098,
          "velocity": 0.7874015748031497,
          "duration": 1.0465110000000095
        },
        {
          "name": "E5",
          "midi": 76,
          "time": 175.68158063750099,
          "velocity": 0.7874015748031497,
          "duration": 0.3488370000000032
        },
        {
          "name": "G5",
          "midi": 79,
          "time": 176.030417637501,
          "velocity": 0.7874015748031497,
          "duration": 1.0465110000000095
        },
        {
          "name": "A5",
          "midi": 81,
          "time": 177.076928637501,
          "velocity": 0.7874015748031497,
          "duration": 0.3488370000000032
        },
        {
          "name": "B5",
          "midi": 83,
          "time": 177.418498200001,
          "velocity": 0.7874015748031497,
          "duration": 0.5232555000000048
        },
        {
          "name": "A5",
          "midi": 81,
          "time": 177.949021137501,
          "velocity": 0.7874015748031497,
          "duration": 0.6976740000000063
        },
        {
          "name": "B5",
          "midi": 83,
          "time": 178.81384620000102,
          "velocity": 0.7874015748031497,
          "duration": 0.0872092500000008
        },
        {
          "name": "G5",
          "midi": 79,
          "time": 178.90105545000102,
          "velocity": 0.7874015748031497,
          "duration": 0.0872092500000008
        },
        {
          "name": "E5",
          "midi": 76,
          "time": 178.98826470000103,
          "velocity": 0.7874015748031497,
          "duration": 0.0872092500000008
        },
        {
          "name": "B4",
          "midi": 71,
          "time": 179.07547395000103,
          "velocity": 0.7874015748031497,
          "duration": 0.0872092500000008
        },
        {
          "name": "E5",
          "midi": 76,
          "time": 179.16268320000103,
          "velocity": 0.7874015748031497,
          "duration": 0.0872092500000008
        },
        {
          "name": "G5",
          "midi": 79,
          "time": 179.24989245000103,
          "velocity": 0.7874015748031497,
          "duration": 0.0872092500000008
        },
        {
          "name": "B5",
          "midi": 83,
          "time": 179.33710170000103,
          "velocity": 0.7874015748031497,
          "duration": 0.0872092500000008
        },
        {
          "name": "G5",
          "midi": 79,
          "time": 179.42431095000103,
          "velocity": 0.7874015748031497,
          "duration": 0.0872092500000008
        },
        {
          "name": "G5",
          "midi": 79,
          "time": 179.51152020000103,
          "velocity": 0.7874015748031497,
          "duration": 0.0872092500000008
        },
        {
          "name": "E5",
          "midi": 76,
          "time": 179.59872945000103,
          "velocity": 0.7874015748031497,
          "duration": 0.0872092500000008
        },
        {
          "name": "B4",
          "midi": 71,
          "time": 179.68593870000103,
          "velocity": 0.7874015748031497,
          "duration": 0.0872092500000008
        },
        {
          "name": "G4",
          "midi": 67,
          "time": 179.77314795000103,
          "velocity": 0.7874015748031497,
          "duration": 0.0872092500000008
        },
        {
          "name": "B4",
          "midi": 71,
          "time": 179.86035720000103,
          "velocity": 0.7874015748031497,
          "duration": 0.0872092500000008
        },
        {
          "name": "E5",
          "midi": 76,
          "time": 179.94756645000103,
          "velocity": 0.7874015748031497,
          "duration": 0.0872092500000008
        },
        {
          "name": "G5",
          "midi": 79,
          "time": 180.03477570000103,
          "velocity": 0.7874015748031497,
          "duration": 0.0872092500000008
        },
        {
          "name": "E5",
          "midi": 76,
          "time": 180.12198495000104,
          "velocity": 0.7874015748031497,
          "duration": 0.0872092500000008
        },
        {
          "name": "G5",
          "midi": 79,
          "time": 180.20919420000104,
          "velocity": 0.7874015748031497,
          "duration": 0.0872092500000008
        },
        {
          "name": "E5",
          "midi": 76,
          "time": 180.29640345000104,
          "velocity": 0.7874015748031497,
          "duration": 0.0872092500000008
        },
        {
          "name": "C5",
          "midi": 72,
          "time": 180.38361270000104,
          "velocity": 0.7874015748031497,
          "duration": 0.0872092500000008
        },
        {
          "name": "G4",
          "midi": 67,
          "time": 180.47082195000104,
          "velocity": 0.7874015748031497,
          "duration": 0.0872092500000008
        },
        {
          "name": "C5",
          "midi": 72,
          "time": 180.55803120000104,
          "velocity": 0.7874015748031497,
          "duration": 0.0872092500000008
        },
        {
          "name": "E5",
          "midi": 76,
          "time": 180.64524045000104,
          "velocity": 0.7874015748031497,
          "duration": 0.0872092500000008
        },
        {
          "name": "G5",
          "midi": 79,
          "time": 180.73244970000104,
          "velocity": 0.7874015748031497,
          "duration": 0.0872092500000008
        },
        {
          "name": "E5",
          "midi": 76,
          "time": 180.81965895000104,
          "velocity": 0.7874015748031497,
          "duration": 0.0872092500000008
        },
        {
          "name": "E5",
          "midi": 76,
          "time": 180.90686820000104,
          "velocity": 0.7874015748031497,
          "duration": 0.08502901874999225
        },
        {
          "name": "C5",
          "midi": 72,
          "time": 180.99407745000104,
          "velocity": 0.7874015748031497,
          "duration": 0.0872092500000008
        },
        {
          "name": "G4",
          "midi": 67,
          "time": 181.08128670000104,
          "velocity": 0.7874015748031497,
          "duration": 0.0872092500000008
        },
        {
          "name": "E4",
          "midi": 64,
          "time": 181.16849595000105,
          "velocity": 0.7874015748031497,
          "duration": 0.0872092500000008
        },
        {
          "name": "G4",
          "midi": 67,
          "time": 181.25570520000105,
          "velocity": 0.7874015748031497,
          "duration": 0.0872092500000008
        },
        {
          "name": "C5",
          "midi": 72,
          "time": 181.34291445000105,
          "velocity": 0.7874015748031497,
          "duration": 0.0872092500000008
        },
        {
          "name": "E5",
          "midi": 76,
          "time": 181.43012370000105,
          "velocity": 0.7874015748031497,
          "duration": 0.0872092500000008
        },
        {
          "name": "C5",
          "midi": 72,
          "time": 181.51733295000105,
          "velocity": 0.7874015748031497,
          "duration": 0.0872092500000008
        },
        {
          "name": "F#5",
          "midi": 78,
          "time": 181.60454220000105,
          "velocity": 0.7874015748031497,
          "duration": 0.0872092500000008
        },
        {
          "name": "D#5",
          "midi": 75,
          "time": 181.69175145000105,
          "velocity": 0.7874015748031497,
          "duration": 0.0872092500000008
        },
        {
          "name": "B4",
          "midi": 71,
          "time": 181.77896070000105,
          "velocity": 0.7874015748031497,
          "duration": 0.0872092500000008
        },
        {
          "name": "F#4",
          "midi": 66,
          "time": 181.86616995000105,
          "velocity": 0.7874015748031497,
          "duration": 0.0872092500000008
        },
        {
          "name": "B4",
          "midi": 71,
          "time": 181.95337920000105,
          "velocity": 0.7874015748031497,
          "duration": 0.0872092500000008
        },
        {
          "name": "D#5",
          "midi": 75,
          "time": 182.04058845000105,
          "velocity": 0.7874015748031497,
          "duration": 0.0872092500000008
        },
        {
          "name": "F#5",
          "midi": 78,
          "time": 182.12779770000105,
          "velocity": 0.7874015748031497,
          "duration": 0.0872092500000008
        },
        {
          "name": "D#5",
          "midi": 75,
          "time": 182.21500695000105,
          "velocity": 0.7874015748031497,
          "duration": 0.0872092500000008
        },
        {
          "name": "D#5",
          "midi": 75,
          "time": 182.30221620000106,
          "velocity": 0.7874015748031497,
          "duration": 0.0872092500000008
        },
        {
          "name": "B4",
          "midi": 71,
          "time": 182.39160568125106,
          "velocity": 0.7874015748031497,
          "duration": 0.0872092500000008
        },
        {
          "name": "F#4",
          "midi": 66,
          "time": 182.47881493125107,
          "velocity": 0.7874015748031497,
          "duration": 0.0872092500000008
        },
        {
          "name": "D#4",
          "midi": 63,
          "time": 182.56602418125107,
          "velocity": 0.7874015748031497,
          "duration": 0.0872092500000008
        },
        {
          "name": "F#4",
          "midi": 66,
          "time": 182.65323343125107,
          "velocity": 0.7874015748031497,
          "duration": 0.0872092500000008
        },
        {
          "name": "B4",
          "midi": 71,
          "time": 182.74044268125107,
          "velocity": 0.7874015748031497,
          "duration": 0.0872092500000008
        },
        {
          "name": "D#5",
          "midi": 75,
          "time": 182.82765193125107,
          "velocity": 0.7874015748031497,
          "duration": 0.0872092500000008
        },
        {
          "name": "B4",
          "midi": 71,
          "time": 182.91486118125107,
          "velocity": 0.7874015748031497,
          "duration": 0.0872092500000008
        },
        {
          "name": "F#5",
          "midi": 78,
          "time": 182.99989020000106,
          "velocity": 0.7874015748031497,
          "duration": 0.0872092500000008
        },
        {
          "name": "D5",
          "midi": 74,
          "time": 183.08927968125107,
          "velocity": 0.7874015748031497,
          "duration": 0.0872092500000008
        },
        {
          "name": "A4",
          "midi": 69,
          "time": 183.17648893125107,
          "velocity": 0.7874015748031497,
          "duration": 0.0872092500000008
        },
        {
          "name": "F#4",
          "midi": 66,
          "time": 183.26369818125107,
          "velocity": 0.7874015748031497,
          "duration": 0.0872092500000008
        },
        {
          "name": "A4",
          "midi": 69,
          "time": 183.35090743125107,
          "velocity": 0.7874015748031497,
          "duration": 0.0872092500000008
        },
        {
          "name": "D5",
          "midi": 74,
          "time": 183.43811668125107,
          "velocity": 0.7874015748031497,
          "duration": 0.0872092500000008
        },
        {
          "name": "F#5",
          "midi": 78,
          "time": 183.52532593125107,
          "velocity": 0.7874015748031497,
          "duration": 0.0872092500000008
        },
        {
          "name": "D5",
          "midi": 74,
          "time": 183.61253518125108,
          "velocity": 0.7874015748031497,
          "duration": 0.0872092500000008
        },
        {
          "name": "A5",
          "midi": 81,
          "time": 183.69756420000107,
          "velocity": 0.7874015748031497,
          "duration": 0.0872092500000008
        },
        {
          "name": "F#5",
          "midi": 78,
          "time": 183.78477345000107,
          "velocity": 0.7874015748031497,
          "duration": 0.0872092500000008
        },
        {
          "name": "D5",
          "midi": 74,
          "time": 183.87198270000107,
          "velocity": 0.7874015748031497,
          "duration": 0.0872092500000008
        },
        {
          "name": "A4",
          "midi": 69,
          "time": 183.95919195000107,
          "velocity": 0.7874015748031497,
          "duration": 0.0872092500000008
        },
        {
          "name": "D5",
          "midi": 74,
          "time": 184.04640120000107,
          "velocity": 0.7874015748031497,
          "duration": 0.0872092500000008
        },
        {
          "name": "F#5",
          "midi": 78,
          "time": 184.13361045000107,
          "velocity": 0.7874015748031497,
          "duration": 0.0872092500000008
        },
        {
          "name": "A5",
          "midi": 81,
          "time": 184.22081970000107,
          "velocity": 0.7874015748031497,
          "duration": 0.0872092500000008
        },
        {
          "name": "F#5",
          "midi": 78,
          "time": 184.30802895000107,
          "velocity": 0.7874015748031497,
          "duration": 0.0872092500000008
        },
        {
          "name": "C#6",
          "midi": 85,
          "time": 184.39523820000107,
          "velocity": 0.7874015748031497,
          "duration": 0.0872092500000008
        },
        {
          "name": "A5",
          "midi": 81,
          "time": 184.48462768125108,
          "velocity": 0.7874015748031497,
          "duration": 0.0872092500000008
        },
        {
          "name": "E5",
          "midi": 76,
          "time": 184.57183693125108,
          "velocity": 0.7874015748031497,
          "duration": 0.0872092500000008
        },
        {
          "name": "C#5",
          "midi": 73,
          "time": 184.65904618125109,
          "velocity": 0.7874015748031497,
          "duration": 0.0872092500000008
        },
        {
          "name": "E5",
          "midi": 76,
          "time": 184.7462554312511,
          "velocity": 0.7874015748031497,
          "duration": 0.0872092500000008
        },
        {
          "name": "A5",
          "midi": 81,
          "time": 184.8334646812511,
          "velocity": 0.7874015748031497,
          "duration": 0.0872092500000008
        },
        {
          "name": "C#6",
          "midi": 85,
          "time": 184.9206739312511,
          "velocity": 0.7874015748031497,
          "duration": 0.0872092500000008
        },
        {
          "name": "A5",
          "midi": 81,
          "time": 185.00570295000108,
          "velocity": 0.7874015748031497,
          "duration": 0.0872092500000008
        },
        {
          "name": "A5",
          "midi": 81,
          "time": 185.09291220000108,
          "velocity": 0.7874015748031497,
          "duration": 0.0872092500000008
        },
        {
          "name": "E5",
          "midi": 76,
          "time": 185.18012145000108,
          "velocity": 0.7874015748031497,
          "duration": 0.0872092500000008
        },
        {
          "name": "C#5",
          "midi": 73,
          "time": 185.26733070000108,
          "velocity": 0.7874015748031497,
          "duration": 0.0872092500000008
        },
        {
          "name": "A4",
          "midi": 69,
          "time": 185.35453995000108,
          "velocity": 0.7874015748031497,
          "duration": 0.0872092500000008
        },
        {
          "name": "C#5",
          "midi": 73,
          "time": 185.44174920000108,
          "velocity": 0.7874015748031497,
          "duration": 0.0872092500000008
        },
        {
          "name": "E5",
          "midi": 76,
          "time": 185.52895845000108,
          "velocity": 0.7874015748031497,
          "duration": 0.0872092500000008
        },
        {
          "name": "A5",
          "midi": 81,
          "time": 185.61616770000109,
          "velocity": 0.7874015748031497,
          "duration": 0.0872092500000008
        },
        {
          "name": "E5",
          "midi": 76,
          "time": 185.7033769500011,
          "velocity": 0.7874015748031497,
          "duration": 0.0872092500000008
        },
        {
          "name": "E5",
          "midi": 76,
          "time": 185.7905862000011,
          "velocity": 0.7874015748031497,
          "duration": 0.0872092500000008
        },
        {
          "name": "C5",
          "midi": 72,
          "time": 185.8799756812511,
          "velocity": 0.7874015748031497,
          "duration": 0.0872092500000008
        },
        {
          "name": "G4",
          "midi": 67,
          "time": 185.9671849312511,
          "velocity": 0.7874015748031497,
          "duration": 0.0872092500000008
        },
        {
          "name": "E4",
          "midi": 64,
          "time": 186.0543941812511,
          "velocity": 0.7874015748031497,
          "duration": 0.0872092500000008
        },
        {
          "name": "G4",
          "midi": 67,
          "time": 186.1416034312511,
          "velocity": 0.7874015748031497,
          "duration": 0.0872092500000008
        },
        {
          "name": "C5",
          "midi": 72,
          "time": 186.2288126812511,
          "velocity": 0.7874015748031497,
          "duration": 0.0872092500000008
        },
        {
          "name": "E5",
          "midi": 76,
          "time": 186.3138417000011,
          "velocity": 0.7874015748031497,
          "duration": 0.0872092500000008
        },
        {
          "name": "C5",
          "midi": 72,
          "time": 186.4010509500011,
          "velocity": 0.7874015748031497,
          "duration": 0.0872092500000008
        },
        {
          "name": "G5",
          "midi": 79,
          "time": 186.4882602000011,
          "velocity": 0.7874015748031497,
          "duration": 0.0872092500000008
        },
        {
          "name": "E5",
          "midi": 76,
          "time": 186.5754694500011,
          "velocity": 0.7874015748031497,
          "duration": 0.0872092500000008
        },
        {
          "name": "C5",
          "midi": 72,
          "time": 186.6626787000011,
          "velocity": 0.7874015748031497,
          "duration": 0.0872092500000008
        },
        {
          "name": "G4",
          "midi": 67,
          "time": 186.7498879500011,
          "velocity": 0.7874015748031497,
          "duration": 0.0872092500000008
        },
        {
          "name": "C5",
          "midi": 72,
          "time": 186.8370972000011,
          "velocity": 0.7874015748031497,
          "duration": 0.0872092500000008
        },
        {
          "name": "E5",
          "midi": 76,
          "time": 186.9243064500011,
          "velocity": 0.7874015748031497,
          "duration": 0.0872092500000008
        },
        {
          "name": "G5",
          "midi": 79,
          "time": 187.0115157000011,
          "velocity": 0.7874015748031497,
          "duration": 0.0872092500000008
        },
        {
          "name": "E5",
          "midi": 76,
          "time": 187.0987249500011,
          "velocity": 0.7874015748031497,
          "duration": 0.0872092500000008
        },
        {
          "name": "C5",
          "midi": 72,
          "time": 187.1859342000011,
          "velocity": 0.7874015748031497,
          "duration": 0.0872092500000008
        },
        {
          "name": "A4",
          "midi": 69,
          "time": 187.2731434500011,
          "velocity": 0.7874015748031497,
          "duration": 0.0872092500000008
        },
        {
          "name": "F#4",
          "midi": 66,
          "time": 187.3603527000011,
          "velocity": 0.7874015748031497,
          "duration": 0.0872092500000008
        },
        {
          "name": "D#4",
          "midi": 63,
          "time": 187.4475619500011,
          "velocity": 0.7874015748031497,
          "duration": 0.0872092500000008
        },
        {
          "name": "F#4",
          "midi": 66,
          "time": 187.5347712000011,
          "velocity": 0.7874015748031497,
          "duration": 0.0872092500000008
        },
        {
          "name": "A4",
          "midi": 69,
          "time": 187.6219804500011,
          "velocity": 0.7874015748031497,
          "duration": 0.0872092500000008
        },
        {
          "name": "C5",
          "midi": 72,
          "time": 187.7091897000011,
          "velocity": 0.7874015748031497,
          "duration": 0.0872092500000008
        },
        {
          "name": "D#5",
          "midi": 75,
          "time": 187.7963989500011,
          "velocity": 0.7874015748031497,
          "duration": 0.0872092500000008
        },
        {
          "name": "F#5",
          "midi": 78,
          "time": 187.8836082000011,
          "velocity": 0.7874015748031497,
          "duration": 0.0872092500000008
        },
        {
          "name": "D#5",
          "midi": 75,
          "time": 187.9708174500011,
          "velocity": 0.7874015748031497,
          "duration": 0.0872092500000008
        },
        {
          "name": "C5",
          "midi": 72,
          "time": 188.0580267000011,
          "velocity": 0.7874015748031497,
          "duration": 0.0872092500000008
        },
        {
          "name": "A4",
          "midi": 69,
          "time": 188.1452359500011,
          "velocity": 0.7874015748031497,
          "duration": 0.0872092500000008
        },
        {
          "name": "C5",
          "midi": 72,
          "time": 188.2324452000011,
          "velocity": 0.7874015748031497,
          "duration": 0.0872092500000008
        },
        {
          "name": "D#5",
          "midi": 75,
          "time": 188.3196544500011,
          "velocity": 0.7874015748031497,
          "duration": 0.0872092500000008
        },
        {
          "name": "F#5",
          "midi": 78,
          "time": 188.4068637000011,
          "velocity": 0.7874015748031497,
          "duration": 0.0872092500000008
        },
        {
          "name": "D#5",
          "midi": 75,
          "time": 188.4940729500011,
          "velocity": 0.7874015748031497,
          "duration": 0.0872092500000008
        },
        {
          "name": "A5",
          "midi": 81,
          "time": 188.5812822000011,
          "velocity": 0.7874015748031497,
          "duration": 0.0872092500000008
        },
        {
          "name": "F#5",
          "midi": 78,
          "time": 188.6684914500011,
          "velocity": 0.7874015748031497,
          "duration": 0.0872092500000008
        },
        {
          "name": "D#5",
          "midi": 75,
          "time": 188.7557007000011,
          "velocity": 0.7874015748031497,
          "duration": 0.0872092500000008
        },
        {
          "name": "C5",
          "midi": 72,
          "time": 188.84290995000111,
          "velocity": 0.7874015748031497,
          "duration": 0.0872092500000008
        },
        {
          "name": "D#5",
          "midi": 75,
          "time": 188.93011920000112,
          "velocity": 0.7874015748031497,
          "duration": 0.0872092500000008
        },
        {
          "name": "F#5",
          "midi": 78,
          "time": 189.01732845000112,
          "velocity": 0.7874015748031497,
          "duration": 0.0872092500000008
        },
        {
          "name": "A5",
          "midi": 81,
          "time": 189.10453770000112,
          "velocity": 0.7874015748031497,
          "duration": 0.0872092500000008
        },
        {
          "name": "F#5",
          "midi": 78,
          "time": 189.19174695000112,
          "velocity": 0.7874015748031497,
          "duration": 0.0872092500000008
        },
        {
          "name": "C6",
          "midi": 84,
          "time": 189.27895620000112,
          "velocity": 0.7874015748031497,
          "duration": 0.6976740000000063
        },
        {
          "name": "A#4",
          "midi": 70,
          "time": 189.97663020000113,
          "velocity": 0.7874015748031497,
          "duration": 0.5232555000000048
        },
        {
          "name": "A4",
          "midi": 69,
          "time": 190.49988570000113,
          "velocity": 0.7874015748031497,
          "duration": 0.5232555000000048
        },
        {
          "name": "G4",
          "midi": 67,
          "time": 191.02314120000113,
          "velocity": 0.7874015748031497,
          "duration": 0.3488370000000032
        },
        {
          "name": "D#5",
          "midi": 75,
          "time": 191.37197820000114,
          "velocity": 0.7874015748031497,
          "duration": 0.6976740000000063
        },
        {
          "name": "D#5",
          "midi": 75,
          "time": 192.06965220000114,
          "velocity": 0.7874015748031497,
          "duration": 0.18313942500000735
        },
        {
          "name": "F5",
          "midi": 77,
          "time": 192.24407070000115,
          "velocity": 0.7874015748031497,
          "duration": 0.1744185000000016
        },
        {
          "name": "G5",
          "midi": 79,
          "time": 192.41848920000115,
          "velocity": 0.7874015748031497,
          "duration": 0.1744185000000016
        },
        {
          "name": "A5",
          "midi": 81,
          "time": 192.59290770000115,
          "velocity": 0.7874015748031497,
          "duration": 0.1744185000000016
        },
        {
          "name": "C6",
          "midi": 84,
          "time": 192.76732620000115,
          "velocity": 0.7874015748031497,
          "duration": 0.5225287562500114
        },
        {
          "name": "A#5",
          "midi": 82,
          "time": 193.29058170000116,
          "velocity": 0.7874015748031497,
          "duration": 0.5232555000000048
        },
        {
          "name": "A#5",
          "midi": 82,
          "time": 193.81383720000116,
          "velocity": 0.7874015748031497,
          "duration": 0.3488370000000032
        },
        {
          "name": "A5",
          "midi": 81,
          "time": 194.16267420000116,
          "velocity": 0.7874015748031497,
          "duration": 1.3953480000000127
        },
        {
          "name": "C6",
          "midi": 84,
          "time": 195.55802220000118,
          "velocity": 0.7874015748031497,
          "duration": 0.5232555000000048
        },
        {
          "name": "A#5",
          "midi": 82,
          "time": 196.08127770000118,
          "velocity": 0.7874015748031497,
          "duration": 0.5218020124999896
        },
        {
          "name": "A5",
          "midi": 81,
          "time": 196.60453320000116,
          "velocity": 0.7874015748031497,
          "duration": 0.3488370000000032
        },
        {
          "name": "A#5",
          "midi": 82,
          "time": 196.95337020000116,
          "velocity": 0.7874015748031497,
          "duration": 0.5188950374999877
        },
        {
          "name": "C5",
          "midi": 72,
          "time": 197.47662570000114,
          "velocity": 0.7874015748031497,
          "duration": 0.5159880625000142
        },
        {
          "name": "A#4",
          "midi": 70,
          "time": 197.99988120000114,
          "velocity": 0.7874015748031497,
          "duration": 0.3488370000000032
        },
        {
          "name": "G4",
          "midi": 67,
          "time": 198.34871820000114,
          "velocity": 0.7874015748031497,
          "duration": 0.0872092500000008
        },
        {
          "name": "A#4",
          "midi": 70,
          "time": 198.43592745000115,
          "velocity": 0.7874015748031497,
          "duration": 0.0872092500000008
        },
        {
          "name": "G4",
          "midi": 67,
          "time": 198.52313670000115,
          "velocity": 0.7874015748031497,
          "duration": 0.0872092500000008
        },
        {
          "name": "A#4",
          "midi": 70,
          "time": 198.61034595000115,
          "velocity": 0.7874015748031497,
          "duration": 0.0872092500000008
        },
        {
          "name": "G4",
          "midi": 67,
          "time": 198.69755520000115,
          "velocity": 0.7874015748031497,
          "duration": 0.0872092500000008
        },
        {
          "name": "A#4",
          "midi": 70,
          "time": 198.78476445000115,
          "velocity": 0.7874015748031497,
          "duration": 0.0872092500000008
        },
        {
          "name": "G4",
          "midi": 67,
          "time": 198.87197370000115,
          "velocity": 0.7874015748031497,
          "duration": 0.0872092500000008
        },
        {
          "name": "A#4",
          "midi": 70,
          "time": 198.95918295000115,
          "velocity": 0.7874015748031497,
          "duration": 0.0872092500000008
        },
        {
          "name": "G4",
          "midi": 67,
          "time": 199.04639220000115,
          "velocity": 0.7874015748031497,
          "duration": 0.0872092500000008
        },
        {
          "name": "A#4",
          "midi": 70,
          "time": 199.13360145000115,
          "velocity": 0.7874015748031497,
          "duration": 0.0872092500000008
        },
        {
          "name": "G4",
          "midi": 67,
          "time": 199.22081070000115,
          "velocity": 0.7874015748031497,
          "duration": 0.0872092500000008
        },
        {
          "name": "A#4",
          "midi": 70,
          "time": 199.30801995000115,
          "velocity": 0.7874015748031497,
          "duration": 0.0872092500000008
        },
        {
          "name": "G4",
          "midi": 67,
          "time": 199.39522920000115,
          "velocity": 0.7874015748031497,
          "duration": 0.09520343125001318
        },
        {
          "name": "A#4",
          "midi": 70,
          "time": 199.48243845000115,
          "velocity": 0.7874015748031497,
          "duration": 0.0872092500000008
        },
        {
          "name": "G4",
          "midi": 67,
          "time": 199.56964770000116,
          "velocity": 0.7874015748031497,
          "duration": 0.1308138750000012
        },
        {
          "name": "F#4",
          "midi": 66,
          "time": 199.74406620000116,
          "velocity": 0.7874015748031497,
          "duration": 0.0872092500000008
        },
        {
          "name": "A4",
          "midi": 69,
          "time": 199.83127545000116,
          "velocity": 0.7874015748031497,
          "duration": 0.0872092500000008
        },
        {
          "name": "F#4",
          "midi": 66,
          "time": 199.91848470000116,
          "velocity": 0.7874015748031497,
          "duration": 0.0872092500000008
        },
        {
          "name": "A4",
          "midi": 69,
          "time": 200.00569395000116,
          "velocity": 0.7874015748031497,
          "duration": 0.0872092500000008
        },
        {
          "name": "F#4",
          "midi": 66,
          "time": 200.09290320000116,
          "velocity": 0.7874015748031497,
          "duration": 0.0872092500000008
        },
        {
          "name": "A4",
          "midi": 69,
          "time": 200.18011245000116,
          "velocity": 0.7874015748031497,
          "duration": 0.0872092500000008
        },
        {
          "name": "F#4",
          "midi": 66,
          "time": 200.26732170000116,
          "velocity": 0.7874015748031497,
          "duration": 0.0872092500000008
        },
        {
          "name": "A4",
          "midi": 69,
          "time": 200.35453095000116,
          "velocity": 0.7874015748031497,
          "duration": 0.0872092500000008
        },
        {
          "name": "F#4",
          "midi": 66,
          "time": 200.44174020000116,
          "velocity": 0.7874015748031497,
          "duration": 0.0872092500000008
        },
        {
          "name": "A4",
          "midi": 69,
          "time": 200.52894945000116,
          "velocity": 0.7874015748031497,
          "duration": 0.0872092500000008
        },
        {
          "name": "F#4",
          "midi": 66,
          "time": 200.61615870000117,
          "velocity": 0.7874015748031497,
          "duration": 0.0872092500000008
        },
        {
          "name": "A4",
          "midi": 69,
          "time": 200.70336795000117,
          "velocity": 0.7874015748031497,
          "duration": 0.0872092500000008
        },
        {
          "name": "F#4",
          "midi": 66,
          "time": 200.79057720000117,
          "velocity": 0.7874015748031497,
          "duration": 0.09520343125001318
        },
        {
          "name": "A4",
          "midi": 69,
          "time": 200.87778645000117,
          "velocity": 0.7874015748031497,
          "duration": 0.0872092500000008
        },
        {
          "name": "F#4",
          "midi": 66,
          "time": 200.96499570000117,
          "velocity": 0.7874015748031497,
          "duration": 0.1308138750000012
        },
        {
          "name": "A4",
          "midi": 69,
          "time": 201.13941420000117,
          "velocity": 0.7874015748031497,
          "duration": 0.06395345000001385
        },
        {
          "name": "A4",
          "midi": 69,
          "time": 201.19755370000118,
          "velocity": 0.7874015748031497,
          "duration": 0.06395345000001385
        },
        {
          "name": "A4",
          "midi": 69,
          "time": 201.2556932000012,
          "velocity": 0.7874015748031497,
          "duration": 0.05813950000001
        },
        {
          "name": "A4",
          "midi": 69,
          "time": 201.3138327000012,
          "velocity": 0.7874015748031497,
          "duration": 0.06395345000001385
        },
        {
          "name": "A4",
          "midi": 69,
          "time": 201.3719722000012,
          "velocity": 0.7874015748031497,
          "duration": 0.06395345000001385
        },
        {
          "name": "A4",
          "midi": 69,
          "time": 201.43011170000122,
          "velocity": 0.7874015748031497,
          "duration": 0.05813950000001
        },
        {
          "name": "G4",
          "midi": 67,
          "time": 201.48825120000123,
          "velocity": 0.7874015748031497,
          "duration": 0.06395345000001385
        },
        {
          "name": "G4",
          "midi": 67,
          "time": 201.54639070000124,
          "velocity": 0.7874015748031497,
          "duration": 0.06395345000001385
        },
        {
          "name": "G4",
          "midi": 67,
          "time": 201.60453020000125,
          "velocity": 0.7874015748031497,
          "duration": 0.05813950000001
        },
        {
          "name": "G4",
          "midi": 67,
          "time": 201.66266970000126,
          "velocity": 0.7874015748031497,
          "duration": 0.06395345000001385
        },
        {
          "name": "G4",
          "midi": 67,
          "time": 201.72080920000127,
          "velocity": 0.7874015748031497,
          "duration": 0.06395345000001385
        },
        {
          "name": "G4",
          "midi": 67,
          "time": 201.77894870000128,
          "velocity": 0.7874015748031497,
          "duration": 0.05813950000001
        },
        {
          "name": "F#4",
          "midi": 66,
          "time": 201.8370882000013,
          "velocity": 0.7874015748031497,
          "duration": 0.06395345000001385
        },
        {
          "name": "F#4",
          "midi": 66,
          "time": 201.8952277000013,
          "velocity": 0.7874015748031497,
          "duration": 0.06395345000001385
        },
        {
          "name": "F#4",
          "midi": 66,
          "time": 201.9533672000013,
          "velocity": 0.7874015748031497,
          "duration": 0.05813950000001
        },
        {
          "name": "F#4",
          "midi": 66,
          "time": 202.01150670000132,
          "velocity": 0.7874015748031497,
          "duration": 0.06395345000001385
        },
        {
          "name": "F#4",
          "midi": 66,
          "time": 202.06964620000133,
          "velocity": 0.7874015748031497,
          "duration": 0.06395345000001385
        },
        {
          "name": "F#4",
          "midi": 66,
          "time": 202.12778570000134,
          "velocity": 0.7874015748031497,
          "duration": 0.05813950000001
        },
        {
          "name": "D4",
          "midi": 62,
          "time": 202.18592520000135,
          "velocity": 0.7874015748031497,
          "duration": 0.06395345000001385
        },
        {
          "name": "D4",
          "midi": 62,
          "time": 202.24406470000136,
          "velocity": 0.7874015748031497,
          "duration": 0.06395345000001385
        },
        {
          "name": "D4",
          "midi": 62,
          "time": 202.30220420000137,
          "velocity": 0.7874015748031497,
          "duration": 0.05813950000001
        },
        {
          "name": "D4",
          "midi": 62,
          "time": 202.36034370000138,
          "velocity": 0.7874015748031497,
          "duration": 0.06395345000001385
        },
        {
          "name": "D4",
          "midi": 62,
          "time": 202.4184832000014,
          "velocity": 0.7874015748031497,
          "duration": 0.11627899999999158
        },
        {
          "name": "G5",
          "midi": 79,
          "time": 202.53476220000138,
          "velocity": 0.7874015748031497,
          "duration": 0.5232555000000048
        },
        {
          "name": "D5",
          "midi": 74,
          "time": 203.0580177000014,
          "velocity": 0.7874015748031497,
          "duration": 0.5232555000000048
        },
        {
          "name": "F5",
          "midi": 77,
          "time": 203.5812732000014,
          "velocity": 0.7874015748031497,
          "duration": 0.3488370000000032
        },
        {
          "name": "D#5",
          "midi": 75,
          "time": 203.9301102000014,
          "velocity": 0.7874015748031497,
          "duration": 1.0465110000000095
        },
        {
          "name": "D5",
          "midi": 74,
          "time": 204.9766212000014,
          "velocity": 0.7874015748031497,
          "duration": 0.17296501249998641
        },
        {
          "name": "C5",
          "midi": 72,
          "time": 205.15103970000138,
          "velocity": 0.7874015748031497,
          "duration": 0.1744185000000016
        },
        {
          "name": "A4",
          "midi": 69,
          "time": 205.32545820000138,
          "velocity": 0.7874015748031497,
          "duration": 0.5232555000000048
        },
        {
          "name": "C#5",
          "midi": 73,
          "time": 205.84871370000138,
          "velocity": 0.7874015748031497,
          "duration": 0.5232555000000048
        },
        {
          "name": "E5",
          "midi": 76,
          "time": 206.3719692000014,
          "velocity": 0.7874015748031497,
          "duration": 0.3488370000000032
        },
        {
          "name": "A5",
          "midi": 81,
          "time": 206.7208062000014,
          "velocity": 0.7874015748031497,
          "duration": 1.0465110000000095
        },
        {
          "name": "E5",
          "midi": 76,
          "time": 207.7673172000014,
          "velocity": 0.7874015748031497,
          "duration": 0.1744185000000016
        },
        {
          "name": "C#5",
          "midi": 73,
          "time": 207.9417357000014,
          "velocity": 0.7874015748031497,
          "duration": 0.1744185000000016
        },
        {
          "name": "C#6",
          "midi": 85,
          "time": 208.1161542000014,
          "velocity": 0.7874015748031497,
          "duration": 1.3953480000000127
        },
        {
          "name": "A2",
          "midi": 45,
          "time": 209.51150220000142,
          "velocity": 0.7874015748031497,
          "duration": 0.1744185000000016
        },
        {
          "name": "E3",
          "midi": 52,
          "time": 209.51150220000142,
          "velocity": 0.7874015748031497,
          "duration": 0.1744185000000016
        },
        {
          "name": "A2",
          "midi": 45,
          "time": 209.68592070000142,
          "velocity": 0.7874015748031497,
          "duration": 0.0872092500000008
        },
        {
          "name": "A2",
          "midi": 45,
          "time": 209.77312995000142,
          "velocity": 0.7874015748031497,
          "duration": 0.0872092500000008
        },
        {
          "name": "A2",
          "midi": 45,
          "time": 209.8610659437514,
          "velocity": 0.7874015748031497,
          "duration": 0.0872092500000008
        },
        {
          "name": "A2",
          "midi": 45,
          "time": 210.03475770000142,
          "velocity": 0.7874015748031497,
          "duration": 0.0872092500000008
        },
        {
          "name": "A2",
          "midi": 45,
          "time": 210.20917620000142,
          "velocity": 0.7874015748031497,
          "duration": 0.0872092500000008
        },
        {
          "name": "A2",
          "midi": 45,
          "time": 210.29638545000142,
          "velocity": 0.7874015748031497,
          "duration": 0.0872092500000008
        },
        {
          "name": "A2",
          "midi": 45,
          "time": 210.38359470000142,
          "velocity": 0.7874015748031497,
          "duration": 0.0872092500000008
        },
        {
          "name": "A2",
          "midi": 45,
          "time": 210.55801320000143,
          "velocity": 0.7874015748031497,
          "duration": 0.0872092500000008
        },
        {
          "name": "A2",
          "midi": 45,
          "time": 210.64522245000143,
          "velocity": 0.7874015748031497,
          "duration": 0.0872092500000008
        },
        {
          "name": "A2",
          "midi": 45,
          "time": 210.73243170000143,
          "velocity": 0.7874015748031497,
          "duration": 0.0872092500000008
        },
        {
          "name": "A#2",
          "midi": 46,
          "time": 210.90685020000143,
          "velocity": 0.7874015748031497,
          "duration": 0.1744185000000016
        },
        {
          "name": "F3",
          "midi": 53,
          "time": 210.90685020000143,
          "velocity": 0.7874015748031497,
          "duration": 0.1744185000000016
        },
        {
          "name": "A#2",
          "midi": 46,
          "time": 211.08126870000143,
          "velocity": 0.7874015748031497,
          "duration": 0.0872092500000008
        },
        {
          "name": "A#2",
          "midi": 46,
          "time": 211.16847795000143,
          "velocity": 0.7874015748031497,
          "duration": 0.0872092500000008
        },
        {
          "name": "A#2",
          "midi": 46,
          "time": 211.25641394375143,
          "velocity": 0.7874015748031497,
          "duration": 0.0872092500000008
        },
        {
          "name": "A#2",
          "midi": 46,
          "time": 211.43010570000143,
          "velocity": 0.7874015748031497,
          "duration": 0.0872092500000008
        },
        {
          "name": "A#2",
          "midi": 46,
          "time": 211.60452420000144,
          "velocity": 0.7874015748031497,
          "duration": 0.0872092500000008
        },
        {
          "name": "A#2",
          "midi": 46,
          "time": 211.69173345000144,
          "velocity": 0.7874015748031497,
          "duration": 0.0872092500000008
        },
        {
          "name": "A#2",
          "midi": 46,
          "time": 211.77894270000144,
          "velocity": 0.7874015748031497,
          "duration": 0.0872092500000008
        },
        {
          "name": "A#2",
          "midi": 46,
          "time": 211.95336120000144,
          "velocity": 0.7874015748031497,
          "duration": 0.0872092500000008
        },
        {
          "name": "A#2",
          "midi": 46,
          "time": 212.04057045000144,
          "velocity": 0.7874015748031497,
          "duration": 0.0872092500000008
        },
        {
          "name": "A#2",
          "midi": 46,
          "time": 212.12777970000144,
          "velocity": 0.7874015748031497,
          "duration": 0.0872092500000008
        },
        {
          "name": "A#2",
          "midi": 46,
          "time": 212.30219820000144,
          "velocity": 0.7874015748031497,
          "duration": 0.1744185000000016
        },
        {
          "name": "F3",
          "midi": 53,
          "time": 212.30219820000144,
          "velocity": 0.7874015748031497,
          "duration": 0.1744185000000016
        },
        {
          "name": "A#2",
          "midi": 46,
          "time": 212.47661670000144,
          "velocity": 0.7874015748031497,
          "duration": 0.0872092500000008
        },
        {
          "name": "A#2",
          "midi": 46,
          "time": 212.56382595000144,
          "velocity": 0.7874015748031497,
          "duration": 0.0872092500000008
        },
        {
          "name": "A#2",
          "midi": 46,
          "time": 212.65176194375144,
          "velocity": 0.7874015748031497,
          "duration": 0.0872092500000008
        },
        {
          "name": "A#2",
          "midi": 46,
          "time": 212.82545370000145,
          "velocity": 0.7874015748031497,
          "duration": 0.0872092500000008
        },
        {
          "name": "A#2",
          "midi": 46,
          "time": 212.99987220000145,
          "velocity": 0.7874015748031497,
          "duration": 0.0872092500000008
        },
        {
          "name": "A#2",
          "midi": 46,
          "time": 213.08708145000145,
          "velocity": 0.7874015748031497,
          "duration": 0.0872092500000008
        },
        {
          "name": "A#2",
          "midi": 46,
          "time": 213.17429070000145,
          "velocity": 0.7874015748031497,
          "duration": 0.0872092500000008
        },
        {
          "name": "A#2",
          "midi": 46,
          "time": 213.34870920000145,
          "velocity": 0.7874015748031497,
          "duration": 0.0872092500000008
        },
        {
          "name": "A#2",
          "midi": 46,
          "time": 213.43591845000145,
          "velocity": 0.7874015748031497,
          "duration": 0.0872092500000008
        },
        {
          "name": "A#2",
          "midi": 46,
          "time": 213.52312770000145,
          "velocity": 0.7874015748031497,
          "duration": 0.0872092500000008
        },
        {
          "name": "C3",
          "midi": 48,
          "time": 213.69754620000145,
          "velocity": 0.7874015748031497,
          "duration": 0.1744185000000016
        },
        {
          "name": "G3",
          "midi": 55,
          "time": 213.69754620000145,
          "velocity": 0.7874015748031497,
          "duration": 0.1744185000000016
        },
        {
          "name": "C3",
          "midi": 48,
          "time": 213.87196470000146,
          "velocity": 0.7874015748031497,
          "duration": 0.0872092500000008
        },
        {
          "name": "C3",
          "midi": 48,
          "time": 213.95917395000146,
          "velocity": 0.7874015748031497,
          "duration": 0.0872092500000008
        },
        {
          "name": "C3",
          "midi": 48,
          "time": 214.04638320000146,
          "velocity": 0.7874015748031497,
          "duration": 0.0872092500000008
        },
        {
          "name": "C3",
          "midi": 48,
          "time": 214.13359245000146,
          "velocity": 0.7874015748031497,
          "duration": 0.0872092500000008
        },
        {
          "name": "C3",
          "midi": 48,
          "time": 214.22080170000146,
          "velocity": 0.7874015748031497,
          "duration": 0.1744185000000016
        },
        {
          "name": "G3",
          "midi": 55,
          "time": 214.22080170000146,
          "velocity": 0.7874015748031497,
          "duration": 0.1744185000000016
        },
        {
          "name": "C3",
          "midi": 48,
          "time": 214.39522020000146,
          "velocity": 0.7874015748031497,
          "duration": 0.0872092500000008
        },
        {
          "name": "C3",
          "midi": 48,
          "time": 214.48242945000146,
          "velocity": 0.7874015748031497,
          "duration": 0.0872092500000008
        },
        {
          "name": "C3",
          "midi": 48,
          "time": 214.56963870000146,
          "velocity": 0.7874015748031497,
          "duration": 0.0872092500000008
        },
        {
          "name": "C3",
          "midi": 48,
          "time": 214.65684795000146,
          "velocity": 0.7874015748031497,
          "duration": 0.0872092500000008
        },
        {
          "name": "C3",
          "midi": 48,
          "time": 214.74405720000146,
          "velocity": 0.7874015748031497,
          "duration": 0.1744185000000016
        },
        {
          "name": "G3",
          "midi": 55,
          "time": 214.74405720000146,
          "velocity": 0.7874015748031497,
          "duration": 0.1744185000000016
        },
        {
          "name": "C3",
          "midi": 48,
          "time": 214.91847570000147,
          "velocity": 0.7874015748031497,
          "duration": 0.0872092500000008
        },
        {
          "name": "C3",
          "midi": 48,
          "time": 215.00568495000147,
          "velocity": 0.7874015748031497,
          "duration": 0.0872092500000008
        },
        {
          "name": "C3",
          "midi": 48,
          "time": 215.09289420000147,
          "velocity": 0.7874015748031497,
          "duration": 0.1744185000000016
        },
        {
          "name": "G3",
          "midi": 55,
          "time": 215.09289420000147,
          "velocity": 0.7874015748031497,
          "duration": 0.1744185000000016
        },
        {
          "name": "C3",
          "midi": 48,
          "time": 215.26731270000147,
          "velocity": 0.7874015748031497,
          "duration": 0.0872092500000008
        },
        {
          "name": "C3",
          "midi": 48,
          "time": 215.35452195000147,
          "velocity": 0.7874015748031497,
          "duration": 0.0872092500000008
        },
        {
          "name": "C3",
          "midi": 48,
          "time": 215.44173120000147,
          "velocity": 0.7874015748031497,
          "duration": 0.0872092500000008
        },
        {
          "name": "C3",
          "midi": 48,
          "time": 215.52894045000147,
          "velocity": 0.7874015748031497,
          "duration": 0.0872092500000008
        },
        {
          "name": "C3",
          "midi": 48,
          "time": 215.61614970000147,
          "velocity": 0.7874015748031497,
          "duration": 0.1744185000000016
        },
        {
          "name": "G3",
          "midi": 55,
          "time": 215.61614970000147,
          "velocity": 0.7874015748031497,
          "duration": 0.1744185000000016
        },
        {
          "name": "C3",
          "midi": 48,
          "time": 215.79056820000147,
          "velocity": 0.7874015748031497,
          "duration": 0.0872092500000008
        },
        {
          "name": "C3",
          "midi": 48,
          "time": 215.87777745000147,
          "velocity": 0.7874015748031497,
          "duration": 0.0872092500000008
        },
        {
          "name": "C3",
          "midi": 48,
          "time": 215.96498670000148,
          "velocity": 0.7874015748031497,
          "duration": 0.0872092500000008
        },
        {
          "name": "C3",
          "midi": 48,
          "time": 216.05219595000148,
          "velocity": 0.7874015748031497,
          "duration": 0.0872092500000008
        },
        {
          "name": "C3",
          "midi": 48,
          "time": 216.13940520000148,
          "velocity": 0.7874015748031497,
          "duration": 0.1744185000000016
        },
        {
          "name": "G3",
          "midi": 55,
          "time": 216.13940520000148,
          "velocity": 0.7874015748031497,
          "duration": 0.1744185000000016
        },
        {
          "name": "C3",
          "midi": 48,
          "time": 216.31382370000148,
          "velocity": 0.7874015748031497,
          "duration": 0.0872092500000008
        },
        {
          "name": "C3",
          "midi": 48,
          "time": 216.40103295000148,
          "velocity": 0.7874015748031497,
          "duration": 0.0872092500000008
        },
        {
          "name": "D3",
          "midi": 50,
          "time": 216.48824220000148,
          "velocity": 0.7874015748031497,
          "duration": 0.1744185000000016
        },
        {
          "name": "A3",
          "midi": 57,
          "time": 216.48824220000148,
          "velocity": 0.7874015748031497,
          "duration": 0.1744185000000016
        },
        {
          "name": "D3",
          "midi": 50,
          "time": 216.66266070000148,
          "velocity": 0.7874015748031497,
          "duration": 0.0872092500000008
        },
        {
          "name": "D3",
          "midi": 50,
          "time": 216.83707920000148,
          "velocity": 0.7874015748031497,
          "duration": 0.0872092500000008
        },
        {
          "name": "D3",
          "midi": 50,
          "time": 217.01149770000148,
          "velocity": 0.7874015748031497,
          "duration": 0.1744185000000016
        },
        {
          "name": "A3",
          "midi": 57,
          "time": 217.01149770000148,
          "velocity": 0.7874015748031497,
          "duration": 0.1744185000000016
        },
        {
          "name": "D3",
          "midi": 50,
          "time": 217.1859162000015,
          "velocity": 0.7874015748031497,
          "duration": 0.0872092500000008
        },
        {
          "name": "D3",
          "midi": 50,
          "time": 217.3603347000015,
          "velocity": 0.7874015748031497,
          "duration": 0.0872092500000008
        },
        {
          "name": "D3",
          "midi": 50,
          "time": 217.5347532000015,
          "velocity": 0.7874015748031497,
          "duration": 0.1744185000000016
        },
        {
          "name": "A3",
          "midi": 57,
          "time": 217.5347532000015,
          "velocity": 0.7874015748031497,
          "duration": 0.1744185000000016
        },
        {
          "name": "D3",
          "midi": 50,
          "time": 217.7091717000015,
          "velocity": 0.7874015748031497,
          "duration": 0.0872092500000008
        },
        {
          "name": "D3",
          "midi": 50,
          "time": 217.8835902000015,
          "velocity": 0.7874015748031497,
          "duration": 0.6976740000000063
        },
        {
          "name": "A3",
          "midi": 57,
          "time": 217.8835902000015,
          "velocity": 0.7874015748031497,
          "duration": 0.6976740000000063
        },
        {
          "name": "D3",
          "midi": 50,
          "time": 218.5812642000015,
          "velocity": 0.7874015748031497,
          "duration": 0.3488370000000032
        },
        {
          "name": "A3",
          "midi": 57,
          "time": 218.5812642000015,
          "velocity": 0.7874015748031497,
          "duration": 0.3488370000000032
        },
        {
          "name": "D3",
          "midi": 50,
          "time": 218.9301012000015,
          "velocity": 0.7874015748031497,
          "duration": 0.3488370000000032
        },
        {
          "name": "A3",
          "midi": 57,
          "time": 218.9301012000015,
          "velocity": 0.7874015748031497,
          "duration": 0.3488370000000032
        },
        {
          "name": "C3",
          "midi": 48,
          "time": 219.2789382000015,
          "velocity": 0.7874015748031497,
          "duration": 0.3488370000000032
        },
        {
          "name": "G3",
          "midi": 55,
          "time": 219.2789382000015,
          "velocity": 0.7874015748031497,
          "duration": 0.3488370000000032
        },
        {
          "name": "C3",
          "midi": 48,
          "time": 219.6277752000015,
          "velocity": 0.7874015748031497,
          "duration": 0.2616277500000024
        },
        {
          "name": "G3",
          "midi": 55,
          "time": 219.6277752000015,
          "velocity": 0.7874015748031497,
          "duration": 0.2616277500000024
        },
        {
          "name": "C3",
          "midi": 48,
          "time": 219.9766122000015,
          "velocity": 0.7874015748031497,
          "duration": 0.0872092500000008
        },
        {
          "name": "C3",
          "midi": 48,
          "time": 220.1510307000015,
          "velocity": 0.7874015748031497,
          "duration": 0.0872092500000008
        },
        {
          "name": "G3",
          "midi": 55,
          "time": 220.1510307000015,
          "velocity": 0.7874015748031497,
          "duration": 0.0872092500000008
        },
        {
          "name": "C3",
          "midi": 48,
          "time": 220.32544920000151,
          "velocity": 0.7874015748031497,
          "duration": 0.0872092500000008
        },
        {
          "name": "D3",
          "midi": 50,
          "time": 220.49986770000152,
          "velocity": 0.7874015748031497,
          "duration": 0.5218020124999896
        },
        {
          "name": "A3",
          "midi": 57,
          "time": 220.49986770000152,
          "velocity": 0.7874015748031497,
          "duration": 0.5218020124999896
        },
        {
          "name": "D3",
          "midi": 50,
          "time": 221.0231232000015,
          "velocity": 0.7874015748031497,
          "duration": 0.3488370000000032
        },
        {
          "name": "A3",
          "midi": 57,
          "time": 221.0231232000015,
          "velocity": 0.7874015748031497,
          "duration": 0.3488370000000032
        },
        {
          "name": "D3",
          "midi": 50,
          "time": 221.3719602000015,
          "velocity": 0.7874015748031497,
          "duration": 0.0872092500000008
        },
        {
          "name": "D3",
          "midi": 50,
          "time": 221.5463787000015,
          "velocity": 0.7874015748031497,
          "duration": 0.0872092500000008
        },
        {
          "name": "A3",
          "midi": 57,
          "time": 221.5463787000015,
          "velocity": 0.7874015748031497,
          "duration": 0.0872092500000008
        },
        {
          "name": "D3",
          "midi": 50,
          "time": 221.7207972000015,
          "velocity": 0.7874015748031497,
          "duration": 0.0872092500000008
        },
        {
          "name": "D3",
          "midi": 50,
          "time": 221.8937622125015,
          "velocity": 0.7874015748031497,
          "duration": 0.34302304999999933
        },
        {
          "name": "A3",
          "midi": 57,
          "time": 221.8952157000015,
          "velocity": 0.7874015748031497,
          "duration": 0.3488370000000032
        },
        {
          "name": "E3",
          "midi": 52,
          "time": 222.2440527000015,
          "velocity": 0.7874015748031497,
          "duration": 0.0872092500000008
        },
        {
          "name": "B3",
          "midi": 59,
          "time": 222.2440527000015,
          "velocity": 0.7874015748031497,
          "duration": 0.0872092500000008
        },
        {
          "name": "E3",
          "midi": 52,
          "time": 222.4184712000015,
          "velocity": 0.7874015748031497,
          "duration": 0.1744185000000016
        },
        {
          "name": "B3",
          "midi": 59,
          "time": 222.4184712000015,
          "velocity": 0.7874015748031497,
          "duration": 0.1744185000000016
        },
        {
          "name": "E4",
          "midi": 64,
          "time": 222.5928897000015,
          "velocity": 0.7874015748031497,
          "duration": 0.1744185000000016
        },
        {
          "name": "G4",
          "midi": 67,
          "time": 222.7673082000015,
          "velocity": 0.7874015748031497,
          "duration": 0.1744185000000016
        },
        {
          "name": "F#4",
          "midi": 66,
          "time": 222.9417267000015,
          "velocity": 0.7874015748031497,
          "duration": 0.1744185000000016
        },
        {
          "name": "E4",
          "midi": 64,
          "time": 223.1161452000015,
          "velocity": 0.7874015748031497,
          "duration": 0.18386616875000072
        },
        {
          "name": "D4",
          "midi": 62,
          "time": 223.2905637000015,
          "velocity": 0.7874015748031497,
          "duration": 0.3488370000000032
        },
        {
          "name": "E4",
          "midi": 64,
          "time": 223.63940070000152,
          "velocity": 0.7874015748031497,
          "duration": 0.1744185000000016
        },
        {
          "name": "E4",
          "midi": 64,
          "time": 223.81381920000152,
          "velocity": 0.7874015748031497,
          "duration": 0.3488370000000032
        },
        {
          "name": "E3",
          "midi": 52,
          "time": 224.16265620000152,
          "velocity": 0.7874015748031497,
          "duration": 0.3488370000000032
        },
        {
          "name": "B3",
          "midi": 59,
          "time": 224.16265620000152,
          "velocity": 0.7874015748031497,
          "duration": 0.3488370000000032
        },
        {
          "name": "D3",
          "midi": 50,
          "time": 224.51149320000152,
          "velocity": 0.7874015748031497,
          "duration": 0.3488370000000032
        },
        {
          "name": "A3",
          "midi": 57,
          "time": 224.51149320000152,
          "velocity": 0.7874015748031497,
          "duration": 0.3488370000000032
        },
        {
          "name": "C3",
          "midi": 48,
          "time": 224.86033020000153,
          "velocity": 0.7874015748031497,
          "duration": 0.3488370000000032
        },
        {
          "name": "G3",
          "midi": 55,
          "time": 224.86033020000153,
          "velocity": 0.7874015748031497,
          "duration": 0.3488370000000032
        },
        {
          "name": "C3",
          "midi": 48,
          "time": 225.20916720000153,
          "velocity": 0.7874015748031497,
          "duration": 0.2616277500000024
        },
        {
          "name": "G3",
          "midi": 55,
          "time": 225.20916720000153,
          "velocity": 0.7874015748031497,
          "duration": 0.2616277500000024
        },
        {
          "name": "C3",
          "midi": 48,
          "time": 225.55800420000153,
          "velocity": 0.7874015748031497,
          "duration": 0.0872092500000008
        },
        {
          "name": "C3",
          "midi": 48,
          "time": 225.73242270000154,
          "velocity": 0.7874015748031497,
          "duration": 0.0872092500000008
        },
        {
          "name": "G3",
          "midi": 55,
          "time": 225.73242270000154,
          "velocity": 0.7874015748031497,
          "duration": 0.0872092500000008
        },
        {
          "name": "C3",
          "midi": 48,
          "time": 225.90684120000154,
          "velocity": 0.7874015748031497,
          "duration": 0.0872092500000008
        },
        {
          "name": "D3",
          "midi": 50,
          "time": 226.08125970000154,
          "velocity": 0.7874015748031497,
          "duration": 0.5218020124999896
        },
        {
          "name": "A3",
          "midi": 57,
          "time": 226.08125970000154,
          "velocity": 0.7874015748031497,
          "duration": 0.5218020124999896
        },
        {
          "name": "D3",
          "midi": 50,
          "time": 226.60451520000152,
          "velocity": 0.7874015748031497,
          "duration": 0.3488370000000032
        },
        {
          "name": "A3",
          "midi": 57,
          "time": 226.60451520000152,
          "velocity": 0.7874015748031497,
          "duration": 0.3488370000000032
        },
        {
          "name": "D3",
          "midi": 50,
          "time": 226.95335220000152,
          "velocity": 0.7874015748031497,
          "duration": 0.0872092500000008
        },
        {
          "name": "D3",
          "midi": 50,
          "time": 227.12777070000152,
          "velocity": 0.7874015748031497,
          "duration": 0.0872092500000008
        },
        {
          "name": "A3",
          "midi": 57,
          "time": 227.12777070000152,
          "velocity": 0.7874015748031497,
          "duration": 0.0872092500000008
        },
        {
          "name": "D3",
          "midi": 50,
          "time": 227.30218920000152,
          "velocity": 0.7874015748031497,
          "duration": 0.0872092500000008
        },
        {
          "name": "D3",
          "midi": 50,
          "time": 227.47515421250154,
          "velocity": 0.7874015748031497,
          "duration": 0.34302304999999933
        },
        {
          "name": "A3",
          "midi": 57,
          "time": 227.47660770000152,
          "velocity": 0.7874015748031497,
          "duration": 0.3488370000000032
        },
        {
          "name": "E3",
          "midi": 52,
          "time": 227.82544470000153,
          "velocity": 0.7874015748031497,
          "duration": 0.0872092500000008
        },
        {
          "name": "B3",
          "midi": 59,
          "time": 227.82544470000153,
          "velocity": 0.7874015748031497,
          "duration": 0.0872092500000008
        },
        {
          "name": "E3",
          "midi": 52,
          "time": 227.99986320000153,
          "velocity": 0.7874015748031497,
          "duration": 0.1744185000000016
        },
        {
          "name": "B3",
          "midi": 59,
          "time": 227.99986320000153,
          "velocity": 0.7874015748031497,
          "duration": 0.1744185000000016
        },
        {
          "name": "E3",
          "midi": 52,
          "time": 228.17428170000153,
          "velocity": 0.7874015748031497,
          "duration": 0.0872092500000008
        },
        {
          "name": "B3",
          "midi": 59,
          "time": 228.34870020000153,
          "velocity": 0.7874015748031497,
          "duration": 0.1744185000000016
        },
        {
          "name": "C4",
          "midi": 60,
          "time": 228.52311870000153,
          "velocity": 0.7874015748031497,
          "duration": 0.1744185000000016
        },
        {
          "name": "D4",
          "midi": 62,
          "time": 228.69753720000153,
          "velocity": 0.7874015748031497,
          "duration": 0.1744185000000016
        },
        {
          "name": "E4",
          "midi": 64,
          "time": 228.87195570000154,
          "velocity": 0.7874015748031497,
          "duration": 0.1744185000000016
        },
        {
          "name": "F#4",
          "midi": 66,
          "time": 229.04637420000154,
          "velocity": 0.7874015748031497,
          "duration": 0.1744185000000016
        },
        {
          "name": "G4",
          "midi": 67,
          "time": 229.22079270000154,
          "velocity": 0.7874015748031497,
          "duration": 0.5232555000000048
        },
        {
          "name": "E3",
          "midi": 52,
          "time": 229.74404820000154,
          "velocity": 0.7874015748031497,
          "duration": 0.3488370000000032
        },
        {
          "name": "B3",
          "midi": 59,
          "time": 229.74404820000154,
          "velocity": 0.7874015748031497,
          "duration": 0.3488370000000032
        },
        {
          "name": "D3",
          "midi": 50,
          "time": 230.09288520000155,
          "velocity": 0.7874015748031497,
          "duration": 0.3488370000000032
        },
        {
          "name": "A3",
          "midi": 57,
          "time": 230.09288520000155,
          "velocity": 0.7874015748031497,
          "duration": 0.3488370000000032
        },
        {
          "name": "C3",
          "midi": 48,
          "time": 230.44172220000155,
          "velocity": 0.7874015748031497,
          "duration": 0.3488370000000032
        },
        {
          "name": "G3",
          "midi": 55,
          "time": 230.44172220000155,
          "velocity": 0.7874015748031497,
          "duration": 0.3488370000000032
        },
        {
          "name": "C3",
          "midi": 48,
          "time": 230.79055920000155,
          "velocity": 0.7874015748031497,
          "duration": 0.2616277500000024
        },
        {
          "name": "G3",
          "midi": 55,
          "time": 230.79055920000155,
          "velocity": 0.7874015748031497,
          "duration": 0.2616277500000024
        },
        {
          "name": "C3",
          "midi": 48,
          "time": 231.13939620000156,
          "velocity": 0.7874015748031497,
          "duration": 0.0872092500000008
        },
        {
          "name": "C3",
          "midi": 48,
          "time": 231.31381470000156,
          "velocity": 0.7874015748031497,
          "duration": 0.0872092500000008
        },
        {
          "name": "G3",
          "midi": 55,
          "time": 231.31381470000156,
          "velocity": 0.7874015748031497,
          "duration": 0.0872092500000008
        },
        {
          "name": "C3",
          "midi": 48,
          "time": 231.48823320000156,
          "velocity": 0.7874015748031497,
          "duration": 0.0872092500000008
        },
        {
          "name": "D3",
          "midi": 50,
          "time": 231.66265170000156,
          "velocity": 0.7874015748031497,
          "duration": 0.5218020124999896
        },
        {
          "name": "A3",
          "midi": 57,
          "time": 231.66265170000156,
          "velocity": 0.7874015748031497,
          "duration": 0.5218020124999896
        },
        {
          "name": "D3",
          "midi": 50,
          "time": 232.18590720000154,
          "velocity": 0.7874015748031497,
          "duration": 0.3488370000000032
        },
        {
          "name": "A3",
          "midi": 57,
          "time": 232.18590720000154,
          "velocity": 0.7874015748031497,
          "duration": 0.3488370000000032
        },
        {
          "name": "D3",
          "midi": 50,
          "time": 232.53474420000154,
          "velocity": 0.7874015748031497,
          "duration": 0.0872092500000008
        },
        {
          "name": "D3",
          "midi": 50,
          "time": 232.70916270000154,
          "velocity": 0.7874015748031497,
          "duration": 0.0872092500000008
        },
        {
          "name": "A3",
          "midi": 57,
          "time": 232.70916270000154,
          "velocity": 0.7874015748031497,
          "duration": 0.0872092500000008
        },
        {
          "name": "D3",
          "midi": 50,
          "time": 232.88358120000154,
          "velocity": 0.7874015748031497,
          "duration": 0.0872092500000008
        },
        {
          "name": "D3",
          "midi": 50,
          "time": 233.05654621250156,
          "velocity": 0.7874015748031497,
          "duration": 0.34302304999999933
        },
        {
          "name": "A3",
          "midi": 57,
          "time": 233.05799970000155,
          "velocity": 0.7874015748031497,
          "duration": 0.3488370000000032
        },
        {
          "name": "E3",
          "midi": 52,
          "time": 233.40683670000155,
          "velocity": 0.7874015748031497,
          "duration": 0.0872092500000008
        },
        {
          "name": "B3",
          "midi": 59,
          "time": 233.40683670000155,
          "velocity": 0.7874015748031497,
          "duration": 0.0872092500000008
        },
        {
          "name": "E3",
          "midi": 52,
          "time": 233.58125520000155,
          "velocity": 0.7874015748031497,
          "duration": 0.1744185000000016
        },
        {
          "name": "B3",
          "midi": 59,
          "time": 233.58125520000155,
          "velocity": 0.7874015748031497,
          "duration": 0.1744185000000016
        },
        {
          "name": "E4",
          "midi": 64,
          "time": 233.75567370000155,
          "velocity": 0.7874015748031497,
          "duration": 0.1744185000000016
        },
        {
          "name": "G4",
          "midi": 67,
          "time": 233.93009220000155,
          "velocity": 0.7874015748031497,
          "duration": 0.1744185000000016
        },
        {
          "name": "F#4",
          "midi": 66,
          "time": 234.10451070000155,
          "velocity": 0.7874015748031497,
          "duration": 0.1744185000000016
        },
        {
          "name": "E4",
          "midi": 64,
          "time": 234.27892920000156,
          "velocity": 0.7874015748031497,
          "duration": 0.18386616875000072
        },
        {
          "name": "D4",
          "midi": 62,
          "time": 234.45334770000156,
          "velocity": 0.7874015748031497,
          "duration": 0.3488370000000032
        },
        {
          "name": "E4",
          "midi": 64,
          "time": 234.80218470000156,
          "velocity": 0.7874015748031497,
          "duration": 0.1744185000000016
        },
        {
          "name": "E4",
          "midi": 64,
          "time": 234.97660320000156,
          "velocity": 0.7874015748031497,
          "duration": 0.3488370000000032
        },
        {
          "name": "E3",
          "midi": 52,
          "time": 235.32544020000157,
          "velocity": 0.7874015748031497,
          "duration": 0.3488370000000032
        },
        {
          "name": "B3",
          "midi": 59,
          "time": 235.32544020000157,
          "velocity": 0.7874015748031497,
          "duration": 0.3488370000000032
        },
        {
          "name": "D3",
          "midi": 50,
          "time": 235.67427720000157,
          "velocity": 0.7874015748031497,
          "duration": 0.3488370000000032
        },
        {
          "name": "A3",
          "midi": 57,
          "time": 235.67427720000157,
          "velocity": 0.7874015748031497,
          "duration": 0.3488370000000032
        },
        {
          "name": "C3",
          "midi": 48,
          "time": 236.02311420000157,
          "velocity": 0.7874015748031497,
          "duration": 0.3488370000000032
        },
        {
          "name": "G3",
          "midi": 55,
          "time": 236.02311420000157,
          "velocity": 0.7874015748031497,
          "duration": 0.3488370000000032
        },
        {
          "name": "C3",
          "midi": 48,
          "time": 236.37195120000158,
          "velocity": 0.7874015748031497,
          "duration": 0.2616277500000024
        },
        {
          "name": "G3",
          "midi": 55,
          "time": 236.37195120000158,
          "velocity": 0.7874015748031497,
          "duration": 0.2616277500000024
        },
        {
          "name": "C3",
          "midi": 48,
          "time": 236.72078820000158,
          "velocity": 0.7874015748031497,
          "duration": 0.0872092500000008
        },
        {
          "name": "C3",
          "midi": 48,
          "time": 236.89520670000158,
          "velocity": 0.7874015748031497,
          "duration": 0.0872092500000008
        },
        {
          "name": "G3",
          "midi": 55,
          "time": 236.89520670000158,
          "velocity": 0.7874015748031497,
          "duration": 0.0872092500000008
        },
        {
          "name": "C3",
          "midi": 48,
          "time": 237.06962520000158,
          "velocity": 0.7874015748031497,
          "duration": 0.0872092500000008
        },
        {
          "name": "D3",
          "midi": 50,
          "time": 237.24404370000158,
          "velocity": 0.7874015748031497,
          "duration": 0.5218020124999896
        },
        {
          "name": "A3",
          "midi": 57,
          "time": 237.24404370000158,
          "velocity": 0.7874015748031497,
          "duration": 0.5218020124999896
        },
        {
          "name": "D3",
          "midi": 50,
          "time": 237.76729920000156,
          "velocity": 0.7874015748031497,
          "duration": 0.3488370000000032
        },
        {
          "name": "A3",
          "midi": 57,
          "time": 237.76729920000156,
          "velocity": 0.7874015748031497,
          "duration": 0.3488370000000032
        },
        {
          "name": "D3",
          "midi": 50,
          "time": 238.11613620000156,
          "velocity": 0.7874015748031497,
          "duration": 0.0872092500000008
        },
        {
          "name": "D3",
          "midi": 50,
          "time": 238.29055470000156,
          "velocity": 0.7874015748031497,
          "duration": 0.0872092500000008
        },
        {
          "name": "A3",
          "midi": 57,
          "time": 238.29055470000156,
          "velocity": 0.7874015748031497,
          "duration": 0.0872092500000008
        },
        {
          "name": "D3",
          "midi": 50,
          "time": 238.46497320000157,
          "velocity": 0.7874015748031497,
          "duration": 0.0872092500000008
        },
        {
          "name": "D3",
          "midi": 50,
          "time": 238.63793821250158,
          "velocity": 0.7874015748031497,
          "duration": 0.34302304999999933
        },
        {
          "name": "A3",
          "midi": 57,
          "time": 238.63939170000157,
          "velocity": 0.7874015748031497,
          "duration": 0.3488370000000032
        },
        {
          "name": "E3",
          "midi": 52,
          "time": 238.98822870000157,
          "velocity": 0.7874015748031497,
          "duration": 0.0872092500000008
        },
        {
          "name": "B3",
          "midi": 59,
          "time": 238.98822870000157,
          "velocity": 0.7874015748031497,
          "duration": 0.0872092500000008
        },
        {
          "name": "E3",
          "midi": 52,
          "time": 239.16264720000157,
          "velocity": 0.7874015748031497,
          "duration": 0.2616277500000024
        },
        {
          "name": "B3",
          "midi": 59,
          "time": 239.16264720000157,
          "velocity": 0.7874015748031497,
          "duration": 0.2616277500000024
        },
        {
          "name": "E3",
          "midi": 52,
          "time": 239.51148420000158,
          "velocity": 0.7874015748031497,
          "duration": 0.1744185000000016
        },
        {
          "name": "G3",
          "midi": 55,
          "time": 239.68590270000158,
          "velocity": 0.7874015748031497,
          "duration": 0.1744185000000016
        },
        {
          "name": "B3",
          "midi": 59,
          "time": 239.86032120000158,
          "velocity": 0.7874015748031497,
          "duration": 0.1744185000000016
        },
        {
          "name": "E4",
          "midi": 64,
          "time": 240.03473970000158,
          "velocity": 0.7874015748031497,
          "duration": 0.1744185000000016
        },
        {
          "name": "G4",
          "midi": 67,
          "time": 240.20915820000158,
          "velocity": 0.7874015748031497,
          "duration": 0.1744185000000016
        },
        {
          "name": "B4",
          "midi": 71,
          "time": 240.38357670000158,
          "velocity": 0.7874015748031497,
          "duration": 0.1744185000000016
        },
        {
          "name": "E5",
          "midi": 76,
          "time": 240.55799520000159,
          "velocity": 0.7874015748031497,
          "duration": 0.16933129374999112
        },
        {
          "name": "G5",
          "midi": 79,
          "time": 240.7324137000016,
          "velocity": 0.7874015748031497,
          "duration": 0.1773254750000035
        },
        {
          "name": "B5",
          "midi": 83,
          "time": 240.9068322000016,
          "velocity": 0.7874015748031497,
          "duration": 0.6976740000000063
        },
        {
          "name": "E5",
          "midi": 76,
          "time": 241.6045062000016,
          "velocity": 0.7874015748031497,
          "duration": 0.5232555000000048
        },
        {
          "name": "B4",
          "midi": 71,
          "time": 242.1277617000016,
          "velocity": 0.7874015748031497,
          "duration": 0.5232555000000048
        },
        {
          "name": "D5",
          "midi": 74,
          "time": 242.6444765062516,
          "velocity": 0.7874015748031497,
          "duration": 0.3488370000000032
        },
        {
          "name": "C5",
          "midi": 72,
          "time": 242.9998542000016,
          "velocity": 0.7874015748031497,
          "duration": 1.0465110000000095
        },
        {
          "name": "B4",
          "midi": 71,
          "time": 244.04636520000162,
          "velocity": 0.7874015748031497,
          "duration": 0.1744185000000016
        },
        {
          "name": "A4",
          "midi": 69,
          "time": 244.22078370000162,
          "velocity": 0.7874015748031497,
          "duration": 0.1744185000000016
        },
        {
          "name": "B4",
          "midi": 71,
          "time": 244.39520220000162,
          "velocity": 0.7874015748031497,
          "duration": 0.5232555000000048
        },
        {
          "name": "G4",
          "midi": 67,
          "time": 244.91845770000162,
          "velocity": 0.7874015748031497,
          "duration": 0.5232555000000048
        },
        {
          "name": "B4",
          "midi": 71,
          "time": 245.44171320000163,
          "velocity": 0.7874015748031497,
          "duration": 0.3488370000000032
        },
        {
          "name": "A4",
          "midi": 69,
          "time": 245.79055020000163,
          "velocity": 0.7874015748031497,
          "duration": 1.3953480000000127
        },
        {
          "name": "E5",
          "midi": 76,
          "time": 247.18589820000165,
          "velocity": 0.7874015748031497,
          "duration": 0.5232555000000048
        },
        {
          "name": "B4",
          "midi": 71,
          "time": 247.70915370000165,
          "velocity": 0.7874015748031497,
          "duration": 0.5232555000000048
        },
        {
          "name": "D5",
          "midi": 74,
          "time": 248.23240920000165,
          "velocity": 0.7874015748031497,
          "duration": 0.3488370000000032
        },
        {
          "name": "C5",
          "midi": 72,
          "time": 248.58124620000166,
          "velocity": 0.7874015748031497,
          "duration": 1.0465110000000095
        },
        {
          "name": "G5",
          "midi": 79,
          "time": 249.62775720000167,
          "velocity": 0.7874015748031497,
          "duration": 0.1744185000000016
        },
        {
          "name": "F#5",
          "midi": 78,
          "time": 249.80217570000167,
          "velocity": 0.7874015748031497,
          "duration": 0.1744185000000016
        },
        {
          "name": "G5",
          "midi": 79,
          "time": 249.97659420000167,
          "velocity": 0.7874015748031497,
          "duration": 0.5232555000000048
        },
        {
          "name": "F#5",
          "midi": 78,
          "time": 250.49984970000168,
          "velocity": 0.7874015748031497,
          "duration": 0.5232555000000048
        },
        {
          "name": "D5",
          "midi": 74,
          "time": 251.02310520000168,
          "velocity": 0.7874015748031497,
          "duration": 0.3488370000000032
        },
        {
          "name": "E4",
          "midi": 64,
          "time": 251.37194220000168,
          "velocity": 0.7874015748031497,
          "duration": 0.1744185000000016
        },
        {
          "name": "G4",
          "midi": 67,
          "time": 251.5492676750017,
          "velocity": 0.7874015748031497,
          "duration": 0.1744185000000016
        },
        {
          "name": "F#4",
          "midi": 66,
          "time": 251.7207792000017,
          "velocity": 0.7874015748031497,
          "duration": 0.0872092500000008
        },
        {
          "name": "G4",
          "midi": 67,
          "time": 251.8079884500017,
          "velocity": 0.7874015748031497,
          "duration": 0.0872092500000008
        },
        {
          "name": "F#4",
          "midi": 66,
          "time": 251.8951977000017,
          "velocity": 0.7874015748031497,
          "duration": 0.0872092500000008
        },
        {
          "name": "G4",
          "midi": 67,
          "time": 251.9824069500017,
          "velocity": 0.7874015748031497,
          "duration": 0.0872092500000008
        },
        {
          "name": "E4",
          "midi": 64,
          "time": 252.0696162000017,
          "velocity": 0.7874015748031497,
          "duration": 0.1744185000000016
        },
        {
          "name": "G4",
          "midi": 67,
          "time": 252.2469416750017,
          "velocity": 0.7874015748031497,
          "duration": 0.1744185000000016
        },
        {
          "name": "F#4",
          "midi": 66,
          "time": 252.4184532000017,
          "velocity": 0.7874015748031497,
          "duration": 0.0872092500000008
        },
        {
          "name": "G4",
          "midi": 67,
          "time": 252.5056624500017,
          "velocity": 0.7874015748031497,
          "duration": 0.0872092500000008
        },
        {
          "name": "F#4",
          "midi": 66,
          "time": 252.5928717000017,
          "velocity": 0.7874015748031497,
          "duration": 0.0872092500000008
        },
        {
          "name": "G4",
          "midi": 67,
          "time": 252.6800809500017,
          "velocity": 0.7874015748031497,
          "duration": 0.0872092500000008
        },
        {
          "name": "E4",
          "midi": 64,
          "time": 252.7672902000017,
          "velocity": 0.7874015748031497,
          "duration": 0.17950570625001205
        },
        {
          "name": "G4",
          "midi": 67,
          "time": 252.9417087000017,
          "velocity": 0.7874015748031497,
          "duration": 0.1744185000000016
        },
        {
          "name": "F#4",
          "midi": 66,
          "time": 253.1161272000017,
          "velocity": 0.7874015748031497,
          "duration": 0.1744185000000016
        },
        {
          "name": "E4",
          "midi": 64,
          "time": 253.2905457000017,
          "velocity": 0.7874015748031497,
          "duration": 0.1744185000000016
        },
        {
          "name": "D4",
          "midi": 62,
          "time": 253.4649642000017,
          "velocity": 0.7874015748031497,
          "duration": 0.3488370000000032
        },
        {
          "name": "B3",
          "midi": 59,
          "time": 253.8138012000017,
          "velocity": 0.7874015748031497,
          "duration": 0.3488370000000032
        },
        {
          "name": "E4",
          "midi": 64,
          "time": 254.16191145625172,
          "velocity": 0.7874015748031497,
          "duration": 0.1744185000000016
        },
        {
          "name": "G4",
          "midi": 67,
          "time": 254.33923693125172,
          "velocity": 0.7874015748031497,
          "duration": 0.1744185000000016
        },
        {
          "name": "F#4",
          "midi": 66,
          "time": 254.51074845625172,
          "velocity": 0.7874015748031497,
          "duration": 0.0872092500000008
        },
        {
          "name": "G4",
          "midi": 67,
          "time": 254.5986844500017,
          "velocity": 0.7874015748031497,
          "duration": 0.08648250625000742
        },
        {
          "name": "F#4",
          "midi": 66,
          "time": 254.68516695625172,
          "velocity": 0.7874015748031497,
          "duration": 0.0872092500000008
        },
        {
          "name": "G4",
          "midi": 67,
          "time": 254.77237620625172,
          "velocity": 0.7874015748031497,
          "duration": 0.0872092500000008
        },
        {
          "name": "E4",
          "midi": 64,
          "time": 254.85958545625172,
          "velocity": 0.7874015748031497,
          "duration": 0.1744185000000016
        },
        {
          "name": "G4",
          "midi": 67,
          "time": 255.03691093125173,
          "velocity": 0.7874015748031497,
          "duration": 0.1744185000000016
        },
        {
          "name": "F#4",
          "midi": 66,
          "time": 255.20842245625172,
          "velocity": 0.7874015748031497,
          "duration": 0.0872092500000008
        },
        {
          "name": "G4",
          "midi": 67,
          "time": 255.29563170625173,
          "velocity": 0.7874015748031497,
          "duration": 0.0872092500000008
        },
        {
          "name": "F#4",
          "midi": 66,
          "time": 255.38284095625173,
          "velocity": 0.7874015748031497,
          "duration": 0.0872092500000008
        },
        {
          "name": "G4",
          "midi": 67,
          "time": 255.47005020625173,
          "velocity": 0.7874015748031497,
          "duration": 0.0872092500000008
        },
        {
          "name": "D4",
          "midi": 62,
          "time": 255.55798620000172,
          "velocity": 0.7874015748031497,
          "duration": 0.1744185000000016
        },
        {
          "name": "E4",
          "midi": 64,
          "time": 255.73240470000172,
          "velocity": 0.7874015748031497,
          "duration": 0.1744185000000016
        },
        {
          "name": "F#4",
          "midi": 66,
          "time": 255.90682320000172,
          "velocity": 0.7874015748031497,
          "duration": 0.1744185000000016
        },
        {
          "name": "G4",
          "midi": 67,
          "time": 256.0812417000017,
          "velocity": 0.7874015748031497,
          "duration": 0.1744185000000016
        },
        {
          "name": "A4",
          "midi": 69,
          "time": 256.2556602000017,
          "velocity": 0.7874015748031497,
          "duration": 0.3488370000000032
        },
        {
          "name": "B4",
          "midi": 71,
          "time": 256.60449720000173,
          "velocity": 0.7874015748031497,
          "duration": 0.3488370000000032
        },
        {
          "name": "E4",
          "midi": 64,
          "time": 256.95333420000173,
          "velocity": 0.7874015748031497,
          "duration": 0.1744185000000016
        },
        {
          "name": "G4",
          "midi": 67,
          "time": 257.1306596750017,
          "velocity": 0.7874015748031497,
          "duration": 0.1744185000000016
        },
        {
          "name": "F#4",
          "midi": 66,
          "time": 257.30217120000174,
          "velocity": 0.7874015748031497,
          "duration": 0.0872092500000008
        },
        {
          "name": "G4",
          "midi": 67,
          "time": 257.38938045000174,
          "velocity": 0.7874015748031497,
          "duration": 0.0872092500000008
        },
        {
          "name": "F#4",
          "midi": 66,
          "time": 257.47658970000174,
          "velocity": 0.7874015748031497,
          "duration": 0.0872092500000008
        },
        {
          "name": "G4",
          "midi": 67,
          "time": 257.56379895000174,
          "velocity": 0.7874015748031497,
          "duration": 0.0872092500000008
        },
        {
          "name": "E4",
          "midi": 64,
          "time": 257.65100820000174,
          "velocity": 0.7874015748031497,
          "duration": 0.1744185000000016
        },
        {
          "name": "G4",
          "midi": 67,
          "time": 257.8283336750017,
          "velocity": 0.7874015748031497,
          "duration": 0.1744185000000016
        },
        {
          "name": "F#4",
          "midi": 66,
          "time": 257.99984520000174,
          "velocity": 0.7874015748031497,
          "duration": 0.0872092500000008
        },
        {
          "name": "G4",
          "midi": 67,
          "time": 258.08705445000174,
          "velocity": 0.7874015748031497,
          "duration": 0.0872092500000008
        },
        {
          "name": "F#4",
          "midi": 66,
          "time": 258.17426370000175,
          "velocity": 0.7874015748031497,
          "duration": 0.0872092500000008
        },
        {
          "name": "G4",
          "midi": 67,
          "time": 258.26147295000175,
          "velocity": 0.7874015748031497,
          "duration": 0.0872092500000008
        },
        {
          "name": "E4",
          "midi": 64,
          "time": 258.34868220000175,
          "velocity": 0.7874015748031497,
          "duration": 0.17950570624998363
        },
        {
          "name": "G4",
          "midi": 67,
          "time": 258.52310070000175,
          "velocity": 0.7874015748031497,
          "duration": 0.1744185000000016
        },
        {
          "name": "F#4",
          "midi": 66,
          "time": 258.69751920000175,
          "velocity": 0.7874015748031497,
          "duration": 0.1744185000000016
        },
        {
          "name": "E4",
          "midi": 64,
          "time": 258.87193770000175,
          "velocity": 0.7874015748031497,
          "duration": 0.1744185000000016
        },
        {
          "name": "D4",
          "midi": 62,
          "time": 259.04635620000175,
          "velocity": 0.7874015748031497,
          "duration": 0.3488370000000032
        },
        {
          "name": "B3",
          "midi": 59,
          "time": 259.39519320000176,
          "velocity": 0.7874015748031497,
          "duration": 0.3488370000000032
        },
        {
          "name": "E4",
          "midi": 64,
          "time": 259.74330345625174,
          "velocity": 0.7874015748031497,
          "duration": 0.1744185000000016
        },
        {
          "name": "G4",
          "midi": 67,
          "time": 259.9206289312517,
          "velocity": 0.7874015748031497,
          "duration": 0.1744185000000016
        },
        {
          "name": "F#4",
          "midi": 66,
          "time": 260.09214045625174,
          "velocity": 0.7874015748031497,
          "duration": 0.0872092500000008
        },
        {
          "name": "G4",
          "midi": 67,
          "time": 260.18007645000176,
          "velocity": 0.7874015748031497,
          "duration": 0.086482506249979
        },
        {
          "name": "F#4",
          "midi": 66,
          "time": 260.26655895625174,
          "velocity": 0.7874015748031497,
          "duration": 0.0872092500000008
        },
        {
          "name": "G4",
          "midi": 67,
          "time": 260.35376820625174,
          "velocity": 0.7874015748031497,
          "duration": 0.0872092500000008
        },
        {
          "name": "E4",
          "midi": 64,
          "time": 260.44097745625174,
          "velocity": 0.7874015748031497,
          "duration": 0.1744185000000016
        },
        {
          "name": "G4",
          "midi": 67,
          "time": 260.6183029312517,
          "velocity": 0.7874015748031497,
          "duration": 0.1744185000000016
        },
        {
          "name": "F#4",
          "midi": 66,
          "time": 260.78981445625175,
          "velocity": 0.7874015748031497,
          "duration": 0.0872092500000008
        },
        {
          "name": "G4",
          "midi": 67,
          "time": 260.87702370625175,
          "velocity": 0.7874015748031497,
          "duration": 0.0872092500000008
        },
        {
          "name": "F#4",
          "midi": 66,
          "time": 260.96423295625175,
          "velocity": 0.7874015748031497,
          "duration": 0.0872092500000008
        },
        {
          "name": "G4",
          "midi": 67,
          "time": 261.05144220625175,
          "velocity": 0.7874015748031497,
          "duration": 0.0872092500000008
        },
        {
          "name": "D4",
          "midi": 62,
          "time": 261.1393782000018,
          "velocity": 0.7874015748031497,
          "duration": 0.1744185000000016
        },
        {
          "name": "E4",
          "midi": 64,
          "time": 261.3137967000018,
          "velocity": 0.7874015748031497,
          "duration": 0.1744185000000016
        },
        {
          "name": "F#4",
          "midi": 66,
          "time": 261.4882152000018,
          "velocity": 0.7874015748031497,
          "duration": 0.1744185000000016
        },
        {
          "name": "G4",
          "midi": 67,
          "time": 261.6626337000018,
          "velocity": 0.7874015748031497,
          "duration": 0.1744185000000016
        },
        {
          "name": "A4",
          "midi": 69,
          "time": 261.8370522000018,
          "velocity": 0.7874015748031497,
          "duration": 0.3488370000000032
        },
        {
          "name": "B4",
          "midi": 71,
          "time": 262.1858892000018,
          "velocity": 0.7874015748031497,
          "duration": 0.3488370000000032
        },
        {
          "name": "E4",
          "midi": 64,
          "time": 262.5347262000018,
          "velocity": 0.7874015748031497,
          "duration": 0.1744185000000016
        },
        {
          "name": "G4",
          "midi": 67,
          "time": 262.71205167500176,
          "velocity": 0.7874015748031497,
          "duration": 0.1744185000000016
        },
        {
          "name": "F#4",
          "midi": 66,
          "time": 262.8835632000018,
          "velocity": 0.7874015748031497,
          "duration": 0.0872092500000008
        },
        {
          "name": "G4",
          "midi": 67,
          "time": 262.9707724500018,
          "velocity": 0.7874015748031497,
          "duration": 0.0872092500000008
        },
        {
          "name": "F#4",
          "midi": 66,
          "time": 263.0579817000018,
          "velocity": 0.7874015748031497,
          "duration": 0.0872092500000008
        },
        {
          "name": "G4",
          "midi": 67,
          "time": 263.1451909500018,
          "velocity": 0.7874015748031497,
          "duration": 0.0872092500000008
        },
        {
          "name": "E4",
          "midi": 64,
          "time": 263.2324002000018,
          "velocity": 0.7874015748031497,
          "duration": 0.1744185000000016
        },
        {
          "name": "G4",
          "midi": 67,
          "time": 263.40972567500177,
          "velocity": 0.7874015748031497,
          "duration": 0.1744185000000016
        },
        {
          "name": "F#4",
          "midi": 66,
          "time": 263.5812372000018,
          "velocity": 0.7874015748031497,
          "duration": 0.0872092500000008
        },
        {
          "name": "G4",
          "midi": 67,
          "time": 263.6684464500018,
          "velocity": 0.7874015748031497,
          "duration": 0.0872092500000008
        },
        {
          "name": "F#4",
          "midi": 66,
          "time": 263.7556557000018,
          "velocity": 0.7874015748031497,
          "duration": 0.0872092500000008
        },
        {
          "name": "G4",
          "midi": 67,
          "time": 263.8428649500018,
          "velocity": 0.7874015748031497,
          "duration": 0.0872092500000008
        },
        {
          "name": "E4",
          "midi": 64,
          "time": 263.9300742000018,
          "velocity": 0.7874015748031497,
          "duration": 0.17950570624998363
        },
        {
          "name": "G4",
          "midi": 67,
          "time": 264.1044927000018,
          "velocity": 0.7874015748031497,
          "duration": 0.1744185000000016
        },
        {
          "name": "F#4",
          "midi": 66,
          "time": 264.2789112000018,
          "velocity": 0.7874015748031497,
          "duration": 0.1744185000000016
        },
        {
          "name": "E4",
          "midi": 64,
          "time": 264.4533297000018,
          "velocity": 0.7874015748031497,
          "duration": 0.1744185000000016
        },
        {
          "name": "D4",
          "midi": 62,
          "time": 264.6277482000018,
          "velocity": 0.7874015748031497,
          "duration": 0.3488370000000032
        },
        {
          "name": "B3",
          "midi": 59,
          "time": 264.9765852000018,
          "velocity": 0.7874015748031497,
          "duration": 0.3488370000000032
        },
        {
          "name": "E4",
          "midi": 64,
          "time": 265.3246954562518,
          "velocity": 0.7874015748031497,
          "duration": 0.1744185000000016
        },
        {
          "name": "G4",
          "midi": 67,
          "time": 265.50202093125176,
          "velocity": 0.7874015748031497,
          "duration": 0.1744185000000016
        },
        {
          "name": "F#4",
          "midi": 66,
          "time": 265.6735324562518,
          "velocity": 0.7874015748031497,
          "duration": 0.0872092500000008
        },
        {
          "name": "G4",
          "midi": 67,
          "time": 265.7614684500018,
          "velocity": 0.7874015748031497,
          "duration": 0.086482506249979
        },
        {
          "name": "F#4",
          "midi": 66,
          "time": 265.8479509562518,
          "velocity": 0.7874015748031497,
          "duration": 0.0872092500000008
        },
        {
          "name": "G4",
          "midi": 67,
          "time": 265.9351602062518,
          "velocity": 0.7874015748031497,
          "duration": 0.0872092500000008
        },
        {
          "name": "E4",
          "midi": 64,
          "time": 266.0223694562518,
          "velocity": 0.7874015748031497,
          "duration": 0.1744185000000016
        },
        {
          "name": "G4",
          "midi": 67,
          "time": 266.19969493125177,
          "velocity": 0.7874015748031497,
          "duration": 0.1744185000000016
        },
        {
          "name": "F#4",
          "midi": 66,
          "time": 266.3712064562518,
          "velocity": 0.7874015748031497,
          "duration": 0.0872092500000008
        },
        {
          "name": "G4",
          "midi": 67,
          "time": 266.4584157062518,
          "velocity": 0.7874015748031497,
          "duration": 0.0872092500000008
        },
        {
          "name": "F#4",
          "midi": 66,
          "time": 266.5456249562518,
          "velocity": 0.7874015748031497,
          "duration": 0.0872092500000008
        },
        {
          "name": "G4",
          "midi": 67,
          "time": 266.6328342062518,
          "velocity": 0.7874015748031497,
          "duration": 0.0872092500000008
        },
        {
          "name": "D4",
          "midi": 62,
          "time": 266.7207702000018,
          "velocity": 0.7874015748031497,
          "duration": 0.1744185000000016
        },
        {
          "name": "E4",
          "midi": 64,
          "time": 266.8951887000018,
          "velocity": 0.7874015748031497,
          "duration": 0.1744185000000016
        },
        {
          "name": "F#4",
          "midi": 66,
          "time": 267.0696072000018,
          "velocity": 0.7874015748031497,
          "duration": 0.1744185000000016
        },
        {
          "name": "G4",
          "midi": 67,
          "time": 267.2440257000018,
          "velocity": 0.7874015748031497,
          "duration": 0.1744185000000016
        },
        {
          "name": "A4",
          "midi": 69,
          "time": 267.41844420000183,
          "velocity": 0.7874015748031497,
          "duration": 0.3488370000000032
        },
        {
          "name": "B4",
          "midi": 71,
          "time": 267.76728120000183,
          "velocity": 0.7874015748031497,
          "duration": 0.3488370000000032
        },
        {
          "name": "B4",
          "midi": 71,
          "time": 268.11611820000184,
          "velocity": 0.7874015748031497,
          "duration": 1.3953480000000127
        },
        {
          "name": "E2",
          "midi": 40,
          "time": 269.51146620000185,
          "velocity": 0.7874015748031497,
          "duration": 0.3619183874999976
        },
        {
          "name": "B2",
          "midi": 47,
          "time": 269.51146620000185,
          "velocity": 0.7874015748031497,
          "duration": 0.3488370000000032
        }
      ],
      "controlChanges": {},
      "id": 1,
      "name": "SR Midi Gits Advanced",
      "channelNumber": 0,
      "isPercussion": false
    }
  ]
}