{
  "header": {
    "PPQ": 480,
    "bpm": 172.00010320006191,
    "timeSignature": [
      4,
      4
    ],
    "name": "Dentalist Beginner Midi Git"
  },
  "tempo": [
    {
      "absoluteTime": 0,
      "seconds": 0,
      "bpm": 172.00010320006191
    }
  ],
  "timeSignature": [
    {
      "absoluteTime": 0,
      "seconds": 0,
      "numerator": 4,
      "denominator": 2,
      "click": 24,
      "notesQ": 8
    },
    {
      "absoluteTime": 7680,
      "seconds": 5.581392,
      "numerator": 4,
      "denominator": 2,
      "click": 24,
      "notesQ": 8
    },
    {
      "absoluteTime": 9600,
      "seconds": 6.97674,
      "numerator": 4,
      "denominator": 2,
      "click": 24,
      "notesQ": 8
    },
    {
      "absoluteTime": 11520,
      "seconds": 8.372088,
      "numerator": 4,
      "denominator": 2,
      "click": 24,
      "notesQ": 8
    },
    {
      "absoluteTime": 44160,
      "seconds": 32.093004,
      "numerator": 4,
      "denominator": 2,
      "click": 24,
      "notesQ": 8
    },
    {
      "absoluteTime": 65280,
      "seconds": 47.441832000000005,
      "numerator": 4,
      "denominator": 2,
      "click": 24,
      "notesQ": 8
    },
    {
      "absoluteTime": 124800,
      "seconds": 90.69762,
      "numerator": 4,
      "denominator": 2,
      "click": 24,
      "notesQ": 8
    },
    {
      "absoluteTime": 153600,
      "seconds": 111.62784,
      "numerator": 4,
      "denominator": 2,
      "click": 24,
      "notesQ": 8
    },
    {
      "absoluteTime": 157440,
      "seconds": 114.418536,
      "numerator": 4,
      "denominator": 2,
      "click": 24,
      "notesQ": 8
    },
    {
      "absoluteTime": 176640,
      "seconds": 128.372016,
      "numerator": 4,
      "denominator": 2,
      "click": 24,
      "notesQ": 8
    },
    {
      "absoluteTime": 211200,
      "seconds": 153.48828,
      "numerator": 4,
      "denominator": 2,
      "click": 24,
      "notesQ": 8
    },
    {
      "absoluteTime": 216960,
      "seconds": 157.674324,
      "numerator": 4,
      "denominator": 2,
      "click": 24,
      "notesQ": 8
    },
    {
      "absoluteTime": 577920,
      "seconds": 419.99974800000007,
      "numerator": 4,
      "denominator": 2,
      "click": 24,
      "notesQ": 8
    },
    {
      "absoluteTime": 583680,
      "seconds": 424.18579200000005,
      "numerator": 4,
      "denominator": 2,
      "click": 24,
      "notesQ": 8
    },
    {
      "absoluteTime": 606720,
      "seconds": 440.92996800000003,
      "numerator": 4,
      "denominator": 2,
      "click": 24,
      "notesQ": 8
    },
    {
      "absoluteTime": 612480,
      "seconds": 445.116012,
      "numerator": 4,
      "denominator": 2,
      "click": 24,
      "notesQ": 8
    }
  ],
  "startTime": 0,
  "duration": 269.8733845875011,
  "tracks": [
    {
      "startTime": 0,
      "duration": 0,
      "length": 0,
      "notes": [],
      "controlChanges": {},
      "id": 0,
      "name": "Dentalist Beginner Midi Git"
    },
    {
      "startTime": 2.9999982,
      "duration": 269.8733845875011,
      "length": 389,
      "notes": [
        {
          "name": "E4",
          "midi": 64,
          "time": 2.9999982,
          "velocity": 0.7874015748031497,
          "duration": 0.1744184999999998
        },
        {
          "name": "E4",
          "midi": 64,
          "time": 3.6976721999999995,
          "velocity": 0.7874015748031497,
          "duration": 0.1744184999999998
        },
        {
          "name": "E4",
          "midi": 64,
          "time": 4.3953462,
          "velocity": 0.7874015748031497,
          "duration": 0.17950570624999962
        },
        {
          "name": "D4",
          "midi": 62,
          "time": 5.093020199999999,
          "velocity": 0.7874015748031497,
          "duration": 0.3488369999999996
        },
        {
          "name": "B3",
          "midi": 59,
          "time": 5.4418571999999985,
          "velocity": 0.7874015748031497,
          "duration": 0.3488369999999996
        },
        {
          "name": "E4",
          "midi": 64,
          "time": 5.7899674562499985,
          "velocity": 0.7874015748031497,
          "duration": 0.1744184999999998
        },
        {
          "name": "E4",
          "midi": 64,
          "time": 6.487641456249999,
          "velocity": 0.7874015748031497,
          "duration": 0.1744184999999998
        },
        {
          "name": "D4",
          "midi": 62,
          "time": 7.186042199999998,
          "velocity": 0.7874015748031497,
          "duration": 0.1744184999999998
        },
        {
          "name": "F#4",
          "midi": 66,
          "time": 7.534879199999998,
          "velocity": 0.7874015748031497,
          "duration": 0.1744184999999998
        },
        {
          "name": "A4",
          "midi": 69,
          "time": 7.883716199999998,
          "velocity": 0.7874015748031497,
          "duration": 0.3488370000000005
        },
        {
          "name": "B4",
          "midi": 71,
          "time": 8.232553199999998,
          "velocity": 0.7874015748031497,
          "duration": 0.3488369999999996
        },
        {
          "name": "E4",
          "midi": 64,
          "time": 8.581390199999998,
          "velocity": 0.7874015748031497,
          "duration": 0.1744184999999998
        },
        {
          "name": "E4",
          "midi": 64,
          "time": 9.279064199999997,
          "velocity": 0.7874015748031497,
          "duration": 0.1744184999999998
        },
        {
          "name": "E4",
          "midi": 64,
          "time": 9.976738199999996,
          "velocity": 0.7874015748031497,
          "duration": 0.17950570624999962
        },
        {
          "name": "D4",
          "midi": 62,
          "time": 10.674412199999995,
          "velocity": 0.7874015748031497,
          "duration": 0.3488369999999996
        },
        {
          "name": "B3",
          "midi": 59,
          "time": 11.023249199999995,
          "velocity": 0.7874015748031497,
          "duration": 0.3488369999999996
        },
        {
          "name": "E4",
          "midi": 64,
          "time": 11.371359456249994,
          "velocity": 0.7874015748031497,
          "duration": 0.1744184999999998
        },
        {
          "name": "E4",
          "midi": 64,
          "time": 12.069033456249993,
          "velocity": 0.7874015748031497,
          "duration": 0.1744184999999998
        },
        {
          "name": "D4",
          "midi": 62,
          "time": 12.767434199999993,
          "velocity": 0.7874015748031497,
          "duration": 0.1744184999999998
        },
        {
          "name": "F#4",
          "midi": 66,
          "time": 13.116271199999993,
          "velocity": 0.7874015748031497,
          "duration": 0.1744184999999998
        },
        {
          "name": "A4",
          "midi": 69,
          "time": 13.465108199999992,
          "velocity": 0.7874015748031497,
          "duration": 0.3488369999999996
        },
        {
          "name": "B4",
          "midi": 71,
          "time": 13.813945199999992,
          "velocity": 0.7874015748031497,
          "duration": 0.3488369999999996
        },
        {
          "name": "E4",
          "midi": 64,
          "time": 14.162782199999992,
          "velocity": 0.7874015748031497,
          "duration": 0.1744184999999998
        },
        {
          "name": "E4",
          "midi": 64,
          "time": 14.860456199999991,
          "velocity": 0.7874015748031497,
          "duration": 0.1744184999999998
        },
        {
          "name": "E4",
          "midi": 64,
          "time": 15.55813019999999,
          "velocity": 0.7874015748031497,
          "duration": 0.17950570624999962
        },
        {
          "name": "D4",
          "midi": 62,
          "time": 16.25580419999999,
          "velocity": 0.7874015748031497,
          "duration": 0.3488369999999996
        },
        {
          "name": "B3",
          "midi": 59,
          "time": 16.60464119999999,
          "velocity": 0.7874015748031497,
          "duration": 0.3488369999999996
        },
        {
          "name": "E4",
          "midi": 64,
          "time": 16.952751456249988,
          "velocity": 0.7874015748031497,
          "duration": 0.1744185000000016
        },
        {
          "name": "E4",
          "midi": 64,
          "time": 17.65042545624999,
          "velocity": 0.7874015748031497,
          "duration": 0.1744185000000016
        },
        {
          "name": "D4",
          "midi": 62,
          "time": 18.348826199999994,
          "velocity": 0.7874015748031497,
          "duration": 0.1744185000000016
        },
        {
          "name": "F#4",
          "midi": 66,
          "time": 18.697663199999997,
          "velocity": 0.7874015748031497,
          "duration": 0.1744185000000016
        },
        {
          "name": "A4",
          "midi": 69,
          "time": 19.0465002,
          "velocity": 0.7874015748031497,
          "duration": 0.3488369999999996
        },
        {
          "name": "B4",
          "midi": 71,
          "time": 19.3953372,
          "velocity": 0.7874015748031497,
          "duration": 0.3488369999999996
        },
        {
          "name": "E5",
          "midi": 76,
          "time": 19.7441742,
          "velocity": 0.7874015748031497,
          "duration": 1.3953479999999985
        },
        {
          "name": "E3",
          "midi": 52,
          "time": 21.1395222,
          "velocity": 0.7874015748031497,
          "duration": 0.0872092500000008
        },
        {
          "name": "E3",
          "midi": 52,
          "time": 21.488359199999998,
          "velocity": 0.7874015748031497,
          "duration": 0.1744185000000016
        },
        {
          "name": "E3",
          "midi": 52,
          "time": 21.8415566625,
          "velocity": 0.7874015748031497,
          "duration": 0.3488369999999996
        },
        {
          "name": "B2",
          "midi": 47,
          "time": 22.3604517,
          "velocity": 0.7874015748031497,
          "duration": 0.5232555000000012
        },
        {
          "name": "B2",
          "midi": 47,
          "time": 22.8837072,
          "velocity": 0.7874015748031497,
          "duration": 1.0465109999999989
        },
        {
          "name": "C3",
          "midi": 48,
          "time": 23.9302182,
          "velocity": 0.7874015748031497,
          "duration": 0.0872092500000008
        },
        {
          "name": "C3",
          "midi": 48,
          "time": 24.2790552,
          "velocity": 0.7874015748031497,
          "duration": 0.1744185000000016
        },
        {
          "name": "C3",
          "midi": 48,
          "time": 24.6322526625,
          "velocity": 0.7874015748031497,
          "duration": 0.3488369999999996
        },
        {
          "name": "F3",
          "midi": 53,
          "time": 25.1511477,
          "velocity": 0.7874015748031497,
          "duration": 0.5232555000000012
        },
        {
          "name": "F3",
          "midi": 53,
          "time": 25.6744032,
          "velocity": 0.7874015748031497,
          "duration": 1.0465109999999989
        },
        {
          "name": "E3",
          "midi": 52,
          "time": 26.7209142,
          "velocity": 0.7874015748031497,
          "duration": 0.1744185000000016
        },
        {
          "name": "B3",
          "midi": 59,
          "time": 26.7209142,
          "velocity": 0.7874015748031497,
          "duration": 0.1744185000000016
        },
        {
          "name": "B2",
          "midi": 47,
          "time": 28.1162622,
          "velocity": 0.7874015748031497,
          "duration": 0.1744185000000016
        },
        {
          "name": "F#3",
          "midi": 54,
          "time": 28.1162622,
          "velocity": 0.7874015748031497,
          "duration": 0.1744185000000016
        },
        {
          "name": "C3",
          "midi": 48,
          "time": 29.511610200000003,
          "velocity": 0.7874015748031497,
          "duration": 0.1744185000000016
        },
        {
          "name": "G3",
          "midi": 55,
          "time": 29.511610200000003,
          "velocity": 0.7874015748031497,
          "duration": 0.1744185000000016
        },
        {
          "name": "A2",
          "midi": 45,
          "time": 30.906958200000005,
          "velocity": 0.7874015748031497,
          "duration": 0.1744185000000016
        },
        {
          "name": "E3",
          "midi": 52,
          "time": 30.906958200000005,
          "velocity": 0.7874015748031497,
          "duration": 0.1744185000000016
        },
        {
          "name": "E3",
          "midi": 52,
          "time": 32.302306200000004,
          "velocity": 0.7874015748031497,
          "duration": 0.0872092500000008
        },
        {
          "name": "E3",
          "midi": 52,
          "time": 32.65114320000001,
          "velocity": 0.7874015748031497,
          "duration": 0.1744185000000016
        },
        {
          "name": "E3",
          "midi": 52,
          "time": 33.004340662500006,
          "velocity": 0.7874015748031497,
          "duration": 0.3488370000000032
        },
        {
          "name": "B2",
          "midi": 47,
          "time": 33.52323570000001,
          "velocity": 0.7874015748031497,
          "duration": 0.5232554999999977
        },
        {
          "name": "B2",
          "midi": 47,
          "time": 34.046491200000006,
          "velocity": 0.7874015748031497,
          "duration": 1.0465110000000024
        },
        {
          "name": "C3",
          "midi": 48,
          "time": 35.09300220000001,
          "velocity": 0.7874015748031497,
          "duration": 0.0872092500000008
        },
        {
          "name": "C3",
          "midi": 48,
          "time": 35.44183920000001,
          "velocity": 0.7874015748031497,
          "duration": 0.1744185000000016
        },
        {
          "name": "C3",
          "midi": 48,
          "time": 35.79503666250001,
          "velocity": 0.7874015748031497,
          "duration": 0.3488370000000032
        },
        {
          "name": "F3",
          "midi": 53,
          "time": 36.31393170000001,
          "velocity": 0.7874015748031497,
          "duration": 0.5232554999999977
        },
        {
          "name": "F3",
          "midi": 53,
          "time": 36.83718720000001,
          "velocity": 0.7874015748031497,
          "duration": 1.0465110000000024
        },
        {
          "name": "E3",
          "midi": 52,
          "time": 37.88369820000001,
          "velocity": 0.7874015748031497,
          "duration": 0.1744185000000016
        },
        {
          "name": "B3",
          "midi": 59,
          "time": 37.88369820000001,
          "velocity": 0.7874015748031497,
          "duration": 0.1744185000000016
        },
        {
          "name": "B2",
          "midi": 47,
          "time": 39.27904620000001,
          "velocity": 0.7874015748031497,
          "duration": 0.1744185000000016
        },
        {
          "name": "F#3",
          "midi": 54,
          "time": 39.27904620000001,
          "velocity": 0.7874015748031497,
          "duration": 0.1744185000000016
        },
        {
          "name": "C3",
          "midi": 48,
          "time": 40.67439420000001,
          "velocity": 0.7874015748031497,
          "duration": 0.1744185000000016
        },
        {
          "name": "G3",
          "midi": 55,
          "time": 40.67439420000001,
          "velocity": 0.7874015748031497,
          "duration": 0.1744185000000016
        },
        {
          "name": "A2",
          "midi": 45,
          "time": 42.06974220000001,
          "velocity": 0.7874015748031497,
          "duration": 0.6976739999999992
        },
        {
          "name": "E3",
          "midi": 52,
          "time": 42.06974220000001,
          "velocity": 0.7874015748031497,
          "duration": 0.6976739999999992
        },
        {
          "name": "D3",
          "midi": 50,
          "time": 42.76741620000001,
          "velocity": 0.7874015748031497,
          "duration": 0.6976739999999992
        },
        {
          "name": "A3",
          "midi": 57,
          "time": 42.76741620000001,
          "velocity": 0.7874015748031497,
          "duration": 0.6976739999999992
        },
        {
          "name": "E4",
          "midi": 64,
          "time": 44.162764200000005,
          "velocity": 0.7874015748031497,
          "duration": 0.1744185000000016
        },
        {
          "name": "E4",
          "midi": 64,
          "time": 45.38369370000001,
          "velocity": 0.7874015748031497,
          "duration": 0.1744185000000016
        },
        {
          "name": "A4",
          "midi": 69,
          "time": 46.25578620000001,
          "velocity": 0.7874015748031497,
          "duration": 0.1744185000000016
        },
        {
          "name": "E4",
          "midi": 64,
          "time": 46.95346020000001,
          "velocity": 0.7874015748031497,
          "duration": 0.1744185000000016
        },
        {
          "name": "E4",
          "midi": 64,
          "time": 48.17438970000001,
          "velocity": 0.7874015748031497,
          "duration": 0.1744185000000016
        },
        {
          "name": "B3",
          "midi": 59,
          "time": 49.046482200000014,
          "velocity": 0.7874015748031497,
          "duration": 0.1744185000000016
        },
        {
          "name": "E4",
          "midi": 64,
          "time": 49.74415620000001,
          "velocity": 0.7874015748031497,
          "duration": 0.1744185000000016
        },
        {
          "name": "E4",
          "midi": 64,
          "time": 50.96508570000002,
          "velocity": 0.7874015748031497,
          "duration": 0.1744185000000016
        },
        {
          "name": "A4",
          "midi": 69,
          "time": 51.83717820000002,
          "velocity": 0.7874015748031497,
          "duration": 0.1744185000000016
        },
        {
          "name": "E4",
          "midi": 64,
          "time": 52.53485220000002,
          "velocity": 0.7874015748031497,
          "duration": 0.1744185000000016
        },
        {
          "name": "E4",
          "midi": 64,
          "time": 53.75578170000002,
          "velocity": 0.7874015748031497,
          "duration": 0.1744185000000016
        },
        {
          "name": "D5",
          "midi": 74,
          "time": 54.62787420000002,
          "velocity": 0.7874015748031497,
          "duration": 0.1744185000000016
        },
        {
          "name": "C3",
          "midi": 48,
          "time": 55.32554820000002,
          "velocity": 0.7874015748031497,
          "duration": 0.3488370000000032
        },
        {
          "name": "C3",
          "midi": 48,
          "time": 55.674385200000025,
          "velocity": 0.7874015748031497,
          "duration": 0.2616277500000024
        },
        {
          "name": "D3",
          "midi": 50,
          "time": 56.546477700000025,
          "velocity": 0.7874015748031497,
          "duration": 0.5218020124999967
        },
        {
          "name": "D3",
          "midi": 50,
          "time": 57.06973320000002,
          "velocity": 0.7874015748031497,
          "duration": 0.3488370000000032
        },
        {
          "name": "D3",
          "midi": 50,
          "time": 57.94037221250002,
          "velocity": 0.7874015748031497,
          "duration": 0.34302304999999933
        },
        {
          "name": "E3",
          "midi": 52,
          "time": 58.46508120000002,
          "velocity": 0.7874015748031497,
          "duration": 0.1744185000000016
        },
        {
          "name": "E3",
          "midi": 52,
          "time": 60.20926620000002,
          "velocity": 0.7874015748031497,
          "duration": 0.3488370000000032
        },
        {
          "name": "D3",
          "midi": 50,
          "time": 60.558103200000026,
          "velocity": 0.7874015748031497,
          "duration": 0.3488370000000032
        },
        {
          "name": "C3",
          "midi": 48,
          "time": 60.90694020000003,
          "velocity": 0.7874015748031497,
          "duration": 0.3488370000000032
        },
        {
          "name": "C3",
          "midi": 48,
          "time": 61.25577720000003,
          "velocity": 0.7874015748031497,
          "duration": 0.2616277500000024
        },
        {
          "name": "D3",
          "midi": 50,
          "time": 62.12786970000003,
          "velocity": 0.7874015748031497,
          "duration": 0.5218020124999967
        },
        {
          "name": "D3",
          "midi": 50,
          "time": 62.65112520000003,
          "velocity": 0.7874015748031497,
          "duration": 0.3488370000000032
        },
        {
          "name": "D3",
          "midi": 50,
          "time": 63.52176421250003,
          "velocity": 0.7874015748031497,
          "duration": 0.34302304999999933
        },
        {
          "name": "E3",
          "midi": 52,
          "time": 64.04647320000004,
          "velocity": 0.7874015748031497,
          "duration": 0.1744185000000016
        },
        {
          "name": "E3",
          "midi": 52,
          "time": 65.79065820000004,
          "velocity": 0.7874015748031497,
          "duration": 0.3488370000000032
        },
        {
          "name": "D3",
          "midi": 50,
          "time": 66.13949520000004,
          "velocity": 0.7874015748031497,
          "duration": 0.3488370000000032
        },
        {
          "name": "C3",
          "midi": 48,
          "time": 66.48833220000004,
          "velocity": 0.7874015748031497,
          "duration": 0.3488370000000032
        },
        {
          "name": "C3",
          "midi": 48,
          "time": 66.83716920000005,
          "velocity": 0.7874015748031497,
          "duration": 0.2616277500000024
        },
        {
          "name": "D3",
          "midi": 50,
          "time": 67.70926170000006,
          "velocity": 0.7874015748031497,
          "duration": 0.5218020125000038
        },
        {
          "name": "D3",
          "midi": 50,
          "time": 68.23251720000006,
          "velocity": 0.7874015748031497,
          "duration": 0.3488370000000032
        },
        {
          "name": "D3",
          "midi": 50,
          "time": 69.10315621250007,
          "velocity": 0.7874015748031497,
          "duration": 0.34302304999999933
        },
        {
          "name": "E3",
          "midi": 52,
          "time": 69.62786520000007,
          "velocity": 0.7874015748031497,
          "duration": 0.1744185000000016
        },
        {
          "name": "E3",
          "midi": 52,
          "time": 71.37205020000007,
          "velocity": 0.7874015748031497,
          "duration": 0.3488370000000032
        },
        {
          "name": "D3",
          "midi": 50,
          "time": 71.72088720000008,
          "velocity": 0.7874015748031497,
          "duration": 0.3488370000000032
        },
        {
          "name": "C3",
          "midi": 48,
          "time": 72.06972420000008,
          "velocity": 0.7874015748031497,
          "duration": 0.3488370000000032
        },
        {
          "name": "C3",
          "midi": 48,
          "time": 72.41856120000008,
          "velocity": 0.7874015748031497,
          "duration": 0.2616277500000024
        },
        {
          "name": "D3",
          "midi": 50,
          "time": 73.29065370000009,
          "velocity": 0.7874015748031497,
          "duration": 0.5218020125000038
        },
        {
          "name": "D3",
          "midi": 50,
          "time": 73.8139092000001,
          "velocity": 0.7874015748031497,
          "duration": 0.3488370000000032
        },
        {
          "name": "D3",
          "midi": 50,
          "time": 74.6845482125001,
          "velocity": 0.7874015748031497,
          "duration": 0.34302304999999933
        },
        {
          "name": "E3",
          "midi": 52,
          "time": 75.20925720000011,
          "velocity": 0.7874015748031497,
          "duration": 0.2616277500000024
        },
        {
          "name": "E3",
          "midi": 52,
          "time": 75.55809420000011,
          "velocity": 0.7874015748031497,
          "duration": 0.1744185000000016
        },
        {
          "name": "G4",
          "midi": 67,
          "time": 76.25576820000012,
          "velocity": 0.7874015748031497,
          "duration": 0.1744185000000016
        },
        {
          "name": "B5",
          "midi": 83,
          "time": 76.95344220000013,
          "velocity": 0.7874015748031497,
          "duration": 0.6976740000000063
        },
        {
          "name": "E5",
          "midi": 76,
          "time": 77.65111620000013,
          "velocity": 0.7874015748031497,
          "duration": 0.5232555000000048
        },
        {
          "name": "B4",
          "midi": 71,
          "time": 78.17437170000014,
          "velocity": 0.7874015748031497,
          "duration": 0.5232554999999905
        },
        {
          "name": "D5",
          "midi": 74,
          "time": 78.69108650625013,
          "velocity": 0.7874015748031497,
          "duration": 0.3488370000000032
        },
        {
          "name": "C5",
          "midi": 72,
          "time": 79.04646420000013,
          "velocity": 0.7874015748031497,
          "duration": 1.0465109999999953
        },
        {
          "name": "B4",
          "midi": 71,
          "time": 80.44181220000013,
          "velocity": 0.7874015748031497,
          "duration": 0.5232555000000048
        },
        {
          "name": "G4",
          "midi": 67,
          "time": 80.96506770000013,
          "velocity": 0.7874015748031497,
          "duration": 0.5232555000000048
        },
        {
          "name": "B4",
          "midi": 71,
          "time": 81.48832320000014,
          "velocity": 0.7874015748031497,
          "duration": 0.3488370000000032
        },
        {
          "name": "A4",
          "midi": 69,
          "time": 81.83716020000014,
          "velocity": 0.7874015748031497,
          "duration": 1.3953479999999985
        },
        {
          "name": "E5",
          "midi": 76,
          "time": 83.23250820000014,
          "velocity": 0.7874015748031497,
          "duration": 0.5232555000000048
        },
        {
          "name": "B4",
          "midi": 71,
          "time": 83.75576370000014,
          "velocity": 0.7874015748031497,
          "duration": 0.5232555000000048
        },
        {
          "name": "D5",
          "midi": 74,
          "time": 84.27901920000015,
          "velocity": 0.7874015748031497,
          "duration": 0.3488370000000032
        },
        {
          "name": "C5",
          "midi": 72,
          "time": 84.62785620000015,
          "velocity": 0.7874015748031497,
          "duration": 1.0465109999999953
        },
        {
          "name": "G5",
          "midi": 79,
          "time": 86.02320420000015,
          "velocity": 0.7874015748031497,
          "duration": 0.5232555000000048
        },
        {
          "name": "F#5",
          "midi": 78,
          "time": 86.54645970000016,
          "velocity": 0.7874015748031497,
          "duration": 0.5232555000000048
        },
        {
          "name": "D5",
          "midi": 74,
          "time": 87.06971520000016,
          "velocity": 0.7874015748031497,
          "duration": 0.3488370000000032
        },
        {
          "name": "E5",
          "midi": 76,
          "time": 87.41855220000016,
          "velocity": 0.7874015748031497,
          "duration": 1.3953479999999985
        },
        {
          "name": "E3",
          "midi": 52,
          "time": 88.81390020000016,
          "velocity": 0.7874015748031497,
          "duration": 0.0872092500000008
        },
        {
          "name": "E3",
          "midi": 52,
          "time": 89.16273720000017,
          "velocity": 0.7874015748031497,
          "duration": 0.1744185000000016
        },
        {
          "name": "E3",
          "midi": 52,
          "time": 89.51593466250017,
          "velocity": 0.7874015748031497,
          "duration": 0.3488370000000032
        },
        {
          "name": "B2",
          "midi": 47,
          "time": 90.03482970000017,
          "velocity": 0.7874015748031497,
          "duration": 0.5232555000000048
        },
        {
          "name": "B2",
          "midi": 47,
          "time": 90.55808520000018,
          "velocity": 0.7874015748031497,
          "duration": 1.0465109999999953
        },
        {
          "name": "C3",
          "midi": 48,
          "time": 91.60459620000017,
          "velocity": 0.7874015748031497,
          "duration": 0.0872092500000008
        },
        {
          "name": "C3",
          "midi": 48,
          "time": 91.95343320000018,
          "velocity": 0.7874015748031497,
          "duration": 0.1744185000000016
        },
        {
          "name": "C3",
          "midi": 48,
          "time": 92.30663066250018,
          "velocity": 0.7874015748031497,
          "duration": 0.3488370000000032
        },
        {
          "name": "F3",
          "midi": 53,
          "time": 92.82552570000018,
          "velocity": 0.7874015748031497,
          "duration": 0.5232555000000048
        },
        {
          "name": "F3",
          "midi": 53,
          "time": 93.34878120000019,
          "velocity": 0.7874015748031497,
          "duration": 1.0465109999999953
        },
        {
          "name": "E3",
          "midi": 52,
          "time": 94.39529220000018,
          "velocity": 0.7874015748031497,
          "duration": 0.1744185000000016
        },
        {
          "name": "B3",
          "midi": 59,
          "time": 94.39529220000018,
          "velocity": 0.7874015748031497,
          "duration": 0.1744185000000016
        },
        {
          "name": "B2",
          "midi": 47,
          "time": 95.79064020000018,
          "velocity": 0.7874015748031497,
          "duration": 0.1744185000000016
        },
        {
          "name": "F#3",
          "midi": 54,
          "time": 95.79064020000018,
          "velocity": 0.7874015748031497,
          "duration": 0.1744185000000016
        },
        {
          "name": "C3",
          "midi": 48,
          "time": 97.18598820000018,
          "velocity": 0.7874015748031497,
          "duration": 0.1744185000000016
        },
        {
          "name": "G3",
          "midi": 55,
          "time": 97.18598820000018,
          "velocity": 0.7874015748031497,
          "duration": 0.1744185000000016
        },
        {
          "name": "A2",
          "midi": 45,
          "time": 98.58133620000018,
          "velocity": 0.7874015748031497,
          "duration": 0.1744185000000016
        },
        {
          "name": "E3",
          "midi": 52,
          "time": 98.58133620000018,
          "velocity": 0.7874015748031497,
          "duration": 0.1744185000000016
        },
        {
          "name": "E3",
          "midi": 52,
          "time": 99.97668420000018,
          "velocity": 0.7874015748031497,
          "duration": 0.0872092500000008
        },
        {
          "name": "E3",
          "midi": 52,
          "time": 100.32552120000018,
          "velocity": 0.7874015748031497,
          "duration": 0.1744185000000016
        },
        {
          "name": "E3",
          "midi": 52,
          "time": 100.67871866250019,
          "velocity": 0.7874015748031497,
          "duration": 0.3488370000000032
        },
        {
          "name": "B2",
          "midi": 47,
          "time": 101.19761370000019,
          "velocity": 0.7874015748031497,
          "duration": 0.5232555000000048
        },
        {
          "name": "B2",
          "midi": 47,
          "time": 101.7208692000002,
          "velocity": 0.7874015748031497,
          "duration": 1.0465109999999953
        },
        {
          "name": "C3",
          "midi": 48,
          "time": 102.76738020000019,
          "velocity": 0.7874015748031497,
          "duration": 0.0872092500000008
        },
        {
          "name": "C3",
          "midi": 48,
          "time": 103.1162172000002,
          "velocity": 0.7874015748031497,
          "duration": 0.1744185000000016
        },
        {
          "name": "C3",
          "midi": 48,
          "time": 103.4694146625002,
          "velocity": 0.7874015748031497,
          "duration": 0.3488370000000032
        },
        {
          "name": "F3",
          "midi": 53,
          "time": 103.9883097000002,
          "velocity": 0.7874015748031497,
          "duration": 0.5232555000000048
        },
        {
          "name": "F3",
          "midi": 53,
          "time": 104.5115652000002,
          "velocity": 0.7874015748031497,
          "duration": 1.0465109999999953
        },
        {
          "name": "E3",
          "midi": 52,
          "time": 105.5580762000002,
          "velocity": 0.7874015748031497,
          "duration": 0.1744185000000016
        },
        {
          "name": "B3",
          "midi": 59,
          "time": 105.5580762000002,
          "velocity": 0.7874015748031497,
          "duration": 0.1744185000000016
        },
        {
          "name": "B2",
          "midi": 47,
          "time": 106.9534242000002,
          "velocity": 0.7874015748031497,
          "duration": 0.1744185000000016
        },
        {
          "name": "F#3",
          "midi": 54,
          "time": 106.9534242000002,
          "velocity": 0.7874015748031497,
          "duration": 0.1744185000000016
        },
        {
          "name": "C3",
          "midi": 48,
          "time": 108.3487722000002,
          "velocity": 0.7874015748031497,
          "duration": 0.1744185000000016
        },
        {
          "name": "G3",
          "midi": 55,
          "time": 108.3487722000002,
          "velocity": 0.7874015748031497,
          "duration": 0.1744185000000016
        },
        {
          "name": "A2",
          "midi": 45,
          "time": 109.7441202000002,
          "velocity": 0.7874015748031497,
          "duration": 0.1744185000000016
        },
        {
          "name": "E3",
          "midi": 52,
          "time": 109.7441202000002,
          "velocity": 0.7874015748031497,
          "duration": 0.1744185000000016
        },
        {
          "name": "D3",
          "midi": 50,
          "time": 110.4417942000002,
          "velocity": 0.7874015748031497,
          "duration": 0.6976740000000063
        },
        {
          "name": "A3",
          "midi": 57,
          "time": 110.4417942000002,
          "velocity": 0.7874015748031497,
          "duration": 0.6976740000000063
        },
        {
          "name": "E4",
          "midi": 64,
          "time": 111.83714220000022,
          "velocity": 0.7874015748031497,
          "duration": 0.1744185000000016
        },
        {
          "name": "E4",
          "midi": 64,
          "time": 113.05807170000021,
          "velocity": 0.7874015748031497,
          "duration": 0.1744185000000016
        },
        {
          "name": "A4",
          "midi": 69,
          "time": 113.93016420000022,
          "velocity": 0.7874015748031497,
          "duration": 0.1744185000000016
        },
        {
          "name": "E4",
          "midi": 64,
          "time": 114.62783820000023,
          "velocity": 0.7874015748031497,
          "duration": 0.1744185000000016
        },
        {
          "name": "E4",
          "midi": 64,
          "time": 115.84876770000022,
          "velocity": 0.7874015748031497,
          "duration": 0.1744185000000016
        },
        {
          "name": "B3",
          "midi": 59,
          "time": 116.72086020000023,
          "velocity": 0.7874015748031497,
          "duration": 0.1744185000000016
        },
        {
          "name": "E4",
          "midi": 64,
          "time": 117.41853420000024,
          "velocity": 0.7874015748031497,
          "duration": 0.1744185000000016
        },
        {
          "name": "E4",
          "midi": 64,
          "time": 118.63946370000023,
          "velocity": 0.7874015748031497,
          "duration": 0.1744185000000016
        },
        {
          "name": "A4",
          "midi": 69,
          "time": 119.51155620000024,
          "velocity": 0.7874015748031497,
          "duration": 0.1744185000000016
        },
        {
          "name": "E4",
          "midi": 64,
          "time": 120.20923020000025,
          "velocity": 0.7874015748031497,
          "duration": 0.1744185000000016
        },
        {
          "name": "E4",
          "midi": 64,
          "time": 121.43015970000025,
          "velocity": 0.7874015748031497,
          "duration": 0.1744185000000016
        },
        {
          "name": "D5",
          "midi": 74,
          "time": 122.30225220000025,
          "velocity": 0.7874015748031497,
          "duration": 0.1744185000000016
        },
        {
          "name": "C3",
          "midi": 48,
          "time": 122.99992620000026,
          "velocity": 0.7874015748031497,
          "duration": 0.3488370000000032
        },
        {
          "name": "C3",
          "midi": 48,
          "time": 123.34876320000026,
          "velocity": 0.7874015748031497,
          "duration": 0.2616277500000024
        },
        {
          "name": "D3",
          "midi": 50,
          "time": 124.22085570000027,
          "velocity": 0.7874015748031497,
          "duration": 0.5218020125000038
        },
        {
          "name": "D3",
          "midi": 50,
          "time": 124.74411120000028,
          "velocity": 0.7874015748031497,
          "duration": 0.3488370000000032
        },
        {
          "name": "D3",
          "midi": 50,
          "time": 125.61475021250028,
          "velocity": 0.7874015748031497,
          "duration": 0.34302304999999933
        },
        {
          "name": "E3",
          "midi": 52,
          "time": 126.13945920000029,
          "velocity": 0.7874015748031497,
          "duration": 0.1744185000000016
        },
        {
          "name": "E3",
          "midi": 52,
          "time": 127.88364420000029,
          "velocity": 0.7874015748031497,
          "duration": 0.34883699999998896
        },
        {
          "name": "D3",
          "midi": 50,
          "time": 128.23248120000028,
          "velocity": 0.7874015748031497,
          "duration": 0.3488370000000032
        },
        {
          "name": "C3",
          "midi": 48,
          "time": 128.58131820000028,
          "velocity": 0.7874015748031497,
          "duration": 0.3488370000000032
        },
        {
          "name": "C3",
          "midi": 48,
          "time": 128.93015520000029,
          "velocity": 0.7874015748031497,
          "duration": 0.2616277500000024
        },
        {
          "name": "D3",
          "midi": 50,
          "time": 129.8022477000003,
          "velocity": 0.7874015748031497,
          "duration": 0.5218020124999896
        },
        {
          "name": "D3",
          "midi": 50,
          "time": 130.32550320000027,
          "velocity": 0.7874015748031497,
          "duration": 0.3488370000000032
        },
        {
          "name": "D3",
          "midi": 50,
          "time": 131.19614221250026,
          "velocity": 0.7874015748031497,
          "duration": 0.34302304999999933
        },
        {
          "name": "E3",
          "midi": 52,
          "time": 131.72085120000025,
          "velocity": 0.7874015748031497,
          "duration": 0.1744185000000016
        },
        {
          "name": "E3",
          "midi": 52,
          "time": 133.46503620000027,
          "velocity": 0.7874015748031497,
          "duration": 0.3488370000000032
        },
        {
          "name": "D3",
          "midi": 50,
          "time": 133.81387320000027,
          "velocity": 0.7874015748031497,
          "duration": 0.3488370000000032
        },
        {
          "name": "C3",
          "midi": 48,
          "time": 134.16271020000028,
          "velocity": 0.7874015748031497,
          "duration": 0.3488370000000032
        },
        {
          "name": "C3",
          "midi": 48,
          "time": 134.51154720000028,
          "velocity": 0.7874015748031497,
          "duration": 0.2616277500000024
        },
        {
          "name": "D3",
          "midi": 50,
          "time": 135.3836397000003,
          "velocity": 0.7874015748031497,
          "duration": 0.5218020124999896
        },
        {
          "name": "D3",
          "midi": 50,
          "time": 135.90689520000026,
          "velocity": 0.7874015748031497,
          "duration": 0.3488370000000032
        },
        {
          "name": "D3",
          "midi": 50,
          "time": 136.77753421250026,
          "velocity": 0.7874015748031497,
          "duration": 0.34302304999999933
        },
        {
          "name": "E3",
          "midi": 52,
          "time": 137.30224320000025,
          "velocity": 0.7874015748031497,
          "duration": 0.1744185000000016
        },
        {
          "name": "E3",
          "midi": 52,
          "time": 139.04642820000026,
          "velocity": 0.7874015748031497,
          "duration": 0.3488370000000032
        },
        {
          "name": "D3",
          "midi": 50,
          "time": 139.39526520000027,
          "velocity": 0.7874015748031497,
          "duration": 0.3488370000000032
        },
        {
          "name": "C3",
          "midi": 48,
          "time": 139.74410220000027,
          "velocity": 0.7874015748031497,
          "duration": 0.3488370000000032
        },
        {
          "name": "C3",
          "midi": 48,
          "time": 140.09293920000027,
          "velocity": 0.7874015748031497,
          "duration": 0.2616277500000024
        },
        {
          "name": "D3",
          "midi": 50,
          "time": 140.96503170000028,
          "velocity": 0.7874015748031497,
          "duration": 0.5218020124999896
        },
        {
          "name": "D3",
          "midi": 50,
          "time": 141.48828720000026,
          "velocity": 0.7874015748031497,
          "duration": 0.3488370000000032
        },
        {
          "name": "D3",
          "midi": 50,
          "time": 142.35892621250025,
          "velocity": 0.7874015748031497,
          "duration": 0.34302304999999933
        },
        {
          "name": "E3",
          "midi": 52,
          "time": 142.88363520000024,
          "velocity": 0.7874015748031497,
          "duration": 0.2616277500000024
        },
        {
          "name": "E3",
          "midi": 52,
          "time": 143.23247220000025,
          "velocity": 0.7874015748031497,
          "duration": 0.1744185000000016
        },
        {
          "name": "G4",
          "midi": 67,
          "time": 143.93014620000025,
          "velocity": 0.7874015748031497,
          "duration": 0.1744185000000016
        },
        {
          "name": "B5",
          "midi": 83,
          "time": 144.62782020000026,
          "velocity": 0.7874015748031497,
          "duration": 0.6976740000000063
        },
        {
          "name": "E5",
          "midi": 76,
          "time": 145.32549420000026,
          "velocity": 0.7874015748031497,
          "duration": 0.5232555000000048
        },
        {
          "name": "B4",
          "midi": 71,
          "time": 145.84874970000027,
          "velocity": 0.7874015748031497,
          "duration": 0.5232555000000048
        },
        {
          "name": "D5",
          "midi": 74,
          "time": 146.36546450625028,
          "velocity": 0.7874015748031497,
          "duration": 0.3488370000000032
        },
        {
          "name": "C5",
          "midi": 72,
          "time": 146.72084220000028,
          "velocity": 0.7874015748031497,
          "duration": 1.0465110000000095
        },
        {
          "name": "B4",
          "midi": 71,
          "time": 148.1161902000003,
          "velocity": 0.7874015748031497,
          "duration": 0.5232555000000048
        },
        {
          "name": "G4",
          "midi": 67,
          "time": 148.6394457000003,
          "velocity": 0.7874015748031497,
          "duration": 0.5232555000000048
        },
        {
          "name": "B4",
          "midi": 71,
          "time": 149.1627012000003,
          "velocity": 0.7874015748031497,
          "duration": 0.3488370000000032
        },
        {
          "name": "A4",
          "midi": 69,
          "time": 149.5115382000003,
          "velocity": 0.7874015748031497,
          "duration": 1.3953480000000127
        },
        {
          "name": "E5",
          "midi": 76,
          "time": 150.90688620000032,
          "velocity": 0.7874015748031497,
          "duration": 0.5232555000000048
        },
        {
          "name": "B4",
          "midi": 71,
          "time": 151.43014170000032,
          "velocity": 0.7874015748031497,
          "duration": 0.5232555000000048
        },
        {
          "name": "D5",
          "midi": 74,
          "time": 151.95339720000032,
          "velocity": 0.7874015748031497,
          "duration": 0.3488370000000032
        },
        {
          "name": "C5",
          "midi": 72,
          "time": 152.30223420000033,
          "velocity": 0.7874015748031497,
          "duration": 1.0465110000000095
        },
        {
          "name": "G5",
          "midi": 79,
          "time": 153.69758220000034,
          "velocity": 0.7874015748031497,
          "duration": 0.5232555000000048
        },
        {
          "name": "F#5",
          "midi": 78,
          "time": 154.22083770000035,
          "velocity": 0.7874015748031497,
          "duration": 0.5232555000000048
        },
        {
          "name": "D5",
          "midi": 74,
          "time": 154.74409320000035,
          "velocity": 0.7874015748031497,
          "duration": 0.3488370000000032
        },
        {
          "name": "E5",
          "midi": 76,
          "time": 155.09293020000035,
          "velocity": 0.7874015748031497,
          "duration": 1.0465110000000095
        },
        {
          "name": "E5",
          "midi": 76,
          "time": 156.48827820000037,
          "velocity": 0.7874015748031497,
          "duration": 1.0465110000000095
        },
        {
          "name": "E5",
          "midi": 76,
          "time": 157.88362620000038,
          "velocity": 0.7874015748031497,
          "duration": 1.0465110000000095
        },
        {
          "name": "E5",
          "midi": 76,
          "time": 159.2789742000004,
          "velocity": 0.7874015748031497,
          "duration": 1.0465110000000095
        },
        {
          "name": "F#5",
          "midi": 78,
          "time": 160.3254852000004,
          "velocity": 0.7874015748031497,
          "duration": 0.3488370000000032
        },
        {
          "name": "G5",
          "midi": 79,
          "time": 160.6743222000004,
          "velocity": 0.7874015748031497,
          "duration": 0.5232555000000048
        },
        {
          "name": "E5",
          "midi": 76,
          "time": 162.06967020000042,
          "velocity": 0.7874015748031497,
          "duration": 1.0465110000000095
        },
        {
          "name": "E5",
          "midi": 76,
          "time": 163.46501820000043,
          "velocity": 0.7874015748031497,
          "duration": 1.0465110000000095
        },
        {
          "name": "E5",
          "midi": 76,
          "time": 164.86036620000044,
          "velocity": 0.7874015748031497,
          "duration": 1.0465110000000095
        },
        {
          "name": "F#5",
          "midi": 78,
          "time": 165.90687720000045,
          "velocity": 0.7874015748031497,
          "duration": 0.3488370000000032
        },
        {
          "name": "G5",
          "midi": 79,
          "time": 166.25571420000045,
          "velocity": 0.7874015748031497,
          "duration": 0.5232555000000048
        },
        {
          "name": "G5",
          "midi": 79,
          "time": 167.65832963750046,
          "velocity": 0.7874015748031497,
          "duration": 1.0465110000000095
        },
        {
          "name": "G5",
          "midi": 79,
          "time": 169.05367763750047,
          "velocity": 0.7874015748031497,
          "duration": 1.0465110000000095
        },
        {
          "name": "G5",
          "midi": 79,
          "time": 170.44902563750048,
          "velocity": 0.7874015748031497,
          "duration": 1.0465110000000095
        },
        {
          "name": "A5",
          "midi": 81,
          "time": 171.4955366375005,
          "velocity": 0.7874015748031497,
          "duration": 0.3488370000000032
        },
        {
          "name": "B5",
          "midi": 83,
          "time": 171.8443736375005,
          "velocity": 0.7874015748031497,
          "duration": 0.5232555000000048
        },
        {
          "name": "G5",
          "midi": 79,
          "time": 173.2397216375005,
          "velocity": 0.7874015748031497,
          "duration": 1.0465110000000095
        },
        {
          "name": "G5",
          "midi": 79,
          "time": 174.63506963750052,
          "velocity": 0.7874015748031497,
          "duration": 1.0465110000000095
        },
        {
          "name": "G5",
          "midi": 79,
          "time": 176.03041763750053,
          "velocity": 0.7874015748031497,
          "duration": 1.0465110000000095
        },
        {
          "name": "A5",
          "midi": 81,
          "time": 177.07692863750054,
          "velocity": 0.7874015748031497,
          "duration": 0.3488370000000032
        },
        {
          "name": "B5",
          "midi": 83,
          "time": 177.41849820000056,
          "velocity": 0.7874015748031497,
          "duration": 0.5232555000000048
        },
        {
          "name": "B5",
          "midi": 83,
          "time": 178.81384620000057,
          "velocity": 0.7874015748031497,
          "duration": 0.0872092500000008
        },
        {
          "name": "G5",
          "midi": 79,
          "time": 179.51152020000058,
          "velocity": 0.7874015748031497,
          "duration": 0.0872092500000008
        },
        {
          "name": "G5",
          "midi": 79,
          "time": 180.20919420000058,
          "velocity": 0.7874015748031497,
          "duration": 0.0872092500000008
        },
        {
          "name": "E5",
          "midi": 76,
          "time": 180.9068682000006,
          "velocity": 0.7874015748031497,
          "duration": 0.08502901874999225
        },
        {
          "name": "F#5",
          "midi": 78,
          "time": 181.6045422000006,
          "velocity": 0.7874015748031497,
          "duration": 0.0872092500000008
        },
        {
          "name": "D#5",
          "midi": 75,
          "time": 182.3022162000006,
          "velocity": 0.7874015748031497,
          "duration": 0.0872092500000008
        },
        {
          "name": "F#5",
          "midi": 78,
          "time": 182.9998902000006,
          "velocity": 0.7874015748031497,
          "duration": 0.0872092500000008
        },
        {
          "name": "A5",
          "midi": 81,
          "time": 183.6975642000006,
          "velocity": 0.7874015748031497,
          "duration": 0.0872092500000008
        },
        {
          "name": "C#6",
          "midi": 85,
          "time": 184.39523820000062,
          "velocity": 0.7874015748031497,
          "duration": 0.0872092500000008
        },
        {
          "name": "A5",
          "midi": 81,
          "time": 185.09291220000063,
          "velocity": 0.7874015748031497,
          "duration": 0.0872092500000008
        },
        {
          "name": "E5",
          "midi": 76,
          "time": 185.79058620000063,
          "velocity": 0.7874015748031497,
          "duration": 0.0872092500000008
        },
        {
          "name": "G5",
          "midi": 79,
          "time": 186.48826020000064,
          "velocity": 0.7874015748031497,
          "duration": 0.0872092500000008
        },
        {
          "name": "C5",
          "midi": 72,
          "time": 187.18593420000064,
          "velocity": 0.7874015748031497,
          "duration": 0.0872092500000008
        },
        {
          "name": "F#5",
          "midi": 78,
          "time": 187.88360820000065,
          "velocity": 0.7874015748031497,
          "duration": 0.0872092500000008
        },
        {
          "name": "A5",
          "midi": 81,
          "time": 188.58128220000066,
          "velocity": 0.7874015748031497,
          "duration": 0.0872092500000008
        },
        {
          "name": "C6",
          "midi": 84,
          "time": 189.27895620000066,
          "velocity": 0.7874015748031497,
          "duration": 0.6976740000000063
        },
        {
          "name": "A#4",
          "midi": 70,
          "time": 189.97663020000067,
          "velocity": 0.7874015748031497,
          "duration": 0.5232555000000048
        },
        {
          "name": "A4",
          "midi": 69,
          "time": 190.49988570000068,
          "velocity": 0.7874015748031497,
          "duration": 0.5232555000000048
        },
        {
          "name": "G4",
          "midi": 67,
          "time": 191.02314120000068,
          "velocity": 0.7874015748031497,
          "duration": 0.3488370000000032
        },
        {
          "name": "D#5",
          "midi": 75,
          "time": 191.37197820000068,
          "velocity": 0.7874015748031497,
          "duration": 0.6976740000000063
        },
        {
          "name": "C6",
          "midi": 84,
          "time": 192.7673262000007,
          "velocity": 0.7874015748031497,
          "duration": 0.5225287562500114
        },
        {
          "name": "A#5",
          "midi": 82,
          "time": 193.2905817000007,
          "velocity": 0.7874015748031497,
          "duration": 0.5232555000000048
        },
        {
          "name": "A5",
          "midi": 81,
          "time": 194.1626742000007,
          "velocity": 0.7874015748031497,
          "duration": 1.3953480000000127
        },
        {
          "name": "C6",
          "midi": 84,
          "time": 195.55802220000072,
          "velocity": 0.7874015748031497,
          "duration": 0.5232555000000048
        },
        {
          "name": "A#5",
          "midi": 82,
          "time": 196.08127770000073,
          "velocity": 0.7874015748031497,
          "duration": 0.5218020124999896
        },
        {
          "name": "A#5",
          "midi": 82,
          "time": 196.9533702000007,
          "velocity": 0.7874015748031497,
          "duration": 0.5188950374999877
        },
        {
          "name": "C5",
          "midi": 72,
          "time": 197.47662570000068,
          "velocity": 0.7874015748031497,
          "duration": 0.5159880625000142
        },
        {
          "name": "G4",
          "midi": 67,
          "time": 198.3487182000007,
          "velocity": 0.7874015748031497,
          "duration": 0.0872092500000008
        },
        {
          "name": "F#4",
          "midi": 66,
          "time": 199.7440662000007,
          "velocity": 0.7874015748031497,
          "duration": 0.0872092500000008
        },
        {
          "name": "A4",
          "midi": 69,
          "time": 201.13941420000072,
          "velocity": 0.7874015748031497,
          "duration": 0.06395345000001385
        },
        {
          "name": "G4",
          "midi": 67,
          "time": 201.48825120000072,
          "velocity": 0.7874015748031497,
          "duration": 0.06395345000001385
        },
        {
          "name": "F#4",
          "midi": 66,
          "time": 201.83708820000072,
          "velocity": 0.7874015748031497,
          "duration": 0.06395345000001385
        },
        {
          "name": "D4",
          "midi": 62,
          "time": 202.18592520000072,
          "velocity": 0.7874015748031497,
          "duration": 0.06395345000001385
        },
        {
          "name": "G5",
          "midi": 79,
          "time": 202.53476220000073,
          "velocity": 0.7874015748031497,
          "duration": 0.5232555000000048
        },
        {
          "name": "D5",
          "midi": 74,
          "time": 203.05801770000073,
          "velocity": 0.7874015748031497,
          "duration": 0.5232555000000048
        },
        {
          "name": "F5",
          "midi": 77,
          "time": 203.58127320000074,
          "velocity": 0.7874015748031497,
          "duration": 0.3488370000000032
        },
        {
          "name": "D#5",
          "midi": 75,
          "time": 203.93011020000074,
          "velocity": 0.7874015748031497,
          "duration": 1.0465110000000095
        },
        {
          "name": "A4",
          "midi": 69,
          "time": 205.32545820000075,
          "velocity": 0.7874015748031497,
          "duration": 0.5232555000000048
        },
        {
          "name": "C#5",
          "midi": 73,
          "time": 205.84871370000076,
          "velocity": 0.7874015748031497,
          "duration": 0.5232555000000048
        },
        {
          "name": "E5",
          "midi": 76,
          "time": 206.37196920000076,
          "velocity": 0.7874015748031497,
          "duration": 0.3488370000000032
        },
        {
          "name": "A5",
          "midi": 81,
          "time": 206.72080620000077,
          "velocity": 0.7874015748031497,
          "duration": 1.0465110000000095
        },
        {
          "name": "C#6",
          "midi": 85,
          "time": 208.11615420000078,
          "velocity": 0.7874015748031497,
          "duration": 1.3953480000000127
        },
        {
          "name": "A2",
          "midi": 45,
          "time": 209.5115022000008,
          "velocity": 0.7874015748031497,
          "duration": 0.1744185000000016
        },
        {
          "name": "E3",
          "midi": 52,
          "time": 209.5115022000008,
          "velocity": 0.7874015748031497,
          "duration": 0.1744185000000016
        },
        {
          "name": "A#2",
          "midi": 46,
          "time": 210.9068502000008,
          "velocity": 0.7874015748031497,
          "duration": 0.1744185000000016
        },
        {
          "name": "F3",
          "midi": 53,
          "time": 210.9068502000008,
          "velocity": 0.7874015748031497,
          "duration": 0.1744185000000016
        },
        {
          "name": "A#2",
          "midi": 46,
          "time": 212.30219820000082,
          "velocity": 0.7874015748031497,
          "duration": 0.1744185000000016
        },
        {
          "name": "F3",
          "midi": 53,
          "time": 212.30219820000082,
          "velocity": 0.7874015748031497,
          "duration": 0.1744185000000016
        },
        {
          "name": "C3",
          "midi": 48,
          "time": 213.69754620000083,
          "velocity": 0.7874015748031497,
          "duration": 0.1744185000000016
        },
        {
          "name": "G3",
          "midi": 55,
          "time": 213.69754620000083,
          "velocity": 0.7874015748031497,
          "duration": 0.1744185000000016
        },
        {
          "name": "C3",
          "midi": 48,
          "time": 215.09289420000084,
          "velocity": 0.7874015748031497,
          "duration": 0.1744185000000016
        },
        {
          "name": "G3",
          "midi": 55,
          "time": 215.09289420000084,
          "velocity": 0.7874015748031497,
          "duration": 0.1744185000000016
        },
        {
          "name": "D3",
          "midi": 50,
          "time": 216.48824220000085,
          "velocity": 0.7874015748031497,
          "duration": 0.1744185000000016
        },
        {
          "name": "A3",
          "midi": 57,
          "time": 216.48824220000085,
          "velocity": 0.7874015748031497,
          "duration": 0.1744185000000016
        },
        {
          "name": "D3",
          "midi": 50,
          "time": 217.88359020000087,
          "velocity": 0.7874015748031497,
          "duration": 0.6976740000000063
        },
        {
          "name": "D3",
          "midi": 50,
          "time": 218.58126420000087,
          "velocity": 0.7874015748031497,
          "duration": 0.3488370000000032
        },
        {
          "name": "D3",
          "midi": 50,
          "time": 218.93010120000088,
          "velocity": 0.7874015748031497,
          "duration": 0.3488370000000032
        },
        {
          "name": "C3",
          "midi": 48,
          "time": 219.27893820000088,
          "velocity": 0.7874015748031497,
          "duration": 0.3488370000000032
        },
        {
          "name": "C3",
          "midi": 48,
          "time": 219.62777520000088,
          "velocity": 0.7874015748031497,
          "duration": 0.2616277500000024
        },
        {
          "name": "D3",
          "midi": 50,
          "time": 220.4998677000009,
          "velocity": 0.7874015748031497,
          "duration": 0.5218020124999896
        },
        {
          "name": "D3",
          "midi": 50,
          "time": 221.02312320000087,
          "velocity": 0.7874015748031497,
          "duration": 0.3488370000000032
        },
        {
          "name": "D3",
          "midi": 50,
          "time": 221.89376221250086,
          "velocity": 0.7874015748031497,
          "duration": 0.34302304999999933
        },
        {
          "name": "E3",
          "midi": 52,
          "time": 222.41847120000085,
          "velocity": 0.7874015748031497,
          "duration": 0.1744185000000016
        },
        {
          "name": "E3",
          "midi": 52,
          "time": 224.16265620000087,
          "velocity": 0.7874015748031497,
          "duration": 0.3488370000000032
        },
        {
          "name": "D3",
          "midi": 50,
          "time": 224.51149320000087,
          "velocity": 0.7874015748031497,
          "duration": 0.3488370000000032
        },
        {
          "name": "C3",
          "midi": 48,
          "time": 224.86033020000087,
          "velocity": 0.7874015748031497,
          "duration": 0.3488370000000032
        },
        {
          "name": "C3",
          "midi": 48,
          "time": 225.20916720000088,
          "velocity": 0.7874015748031497,
          "duration": 0.2616277500000024
        },
        {
          "name": "D3",
          "midi": 50,
          "time": 226.08125970000089,
          "velocity": 0.7874015748031497,
          "duration": 0.5218020124999896
        },
        {
          "name": "D3",
          "midi": 50,
          "time": 226.60451520000086,
          "velocity": 0.7874015748031497,
          "duration": 0.3488370000000032
        },
        {
          "name": "D3",
          "midi": 50,
          "time": 227.47515421250085,
          "velocity": 0.7874015748031497,
          "duration": 0.34302304999999933
        },
        {
          "name": "E3",
          "midi": 52,
          "time": 227.99986320000085,
          "velocity": 0.7874015748031497,
          "duration": 0.1744185000000016
        },
        {
          "name": "E3",
          "midi": 52,
          "time": 229.74404820000086,
          "velocity": 0.7874015748031497,
          "duration": 0.3488370000000032
        },
        {
          "name": "D3",
          "midi": 50,
          "time": 230.09288520000086,
          "velocity": 0.7874015748031497,
          "duration": 0.3488370000000032
        },
        {
          "name": "C3",
          "midi": 48,
          "time": 230.44172220000087,
          "velocity": 0.7874015748031497,
          "duration": 0.3488370000000032
        },
        {
          "name": "C3",
          "midi": 48,
          "time": 230.79055920000087,
          "velocity": 0.7874015748031497,
          "duration": 0.2616277500000024
        },
        {
          "name": "D3",
          "midi": 50,
          "time": 231.66265170000088,
          "velocity": 0.7874015748031497,
          "duration": 0.5218020124999896
        },
        {
          "name": "D3",
          "midi": 50,
          "time": 232.18590720000086,
          "velocity": 0.7874015748031497,
          "duration": 0.3488370000000032
        },
        {
          "name": "D3",
          "midi": 50,
          "time": 233.05654621250085,
          "velocity": 0.7874015748031497,
          "duration": 0.34302304999999933
        },
        {
          "name": "E3",
          "midi": 52,
          "time": 233.58125520000084,
          "velocity": 0.7874015748031497,
          "duration": 0.1744185000000016
        },
        {
          "name": "E3",
          "midi": 52,
          "time": 235.32544020000086,
          "velocity": 0.7874015748031497,
          "duration": 0.3488370000000032
        },
        {
          "name": "D3",
          "midi": 50,
          "time": 235.67427720000086,
          "velocity": 0.7874015748031497,
          "duration": 0.3488370000000032
        },
        {
          "name": "C3",
          "midi": 48,
          "time": 236.02311420000086,
          "velocity": 0.7874015748031497,
          "duration": 0.3488370000000032
        },
        {
          "name": "C3",
          "midi": 48,
          "time": 236.37195120000086,
          "velocity": 0.7874015748031497,
          "duration": 0.2616277500000024
        },
        {
          "name": "D3",
          "midi": 50,
          "time": 237.24404370000087,
          "velocity": 0.7874015748031497,
          "duration": 0.5218020124999896
        },
        {
          "name": "D3",
          "midi": 50,
          "time": 237.76729920000085,
          "velocity": 0.7874015748031497,
          "duration": 0.3488370000000032
        },
        {
          "name": "D3",
          "midi": 50,
          "time": 238.63793821250084,
          "velocity": 0.7874015748031497,
          "duration": 0.34302304999999933
        },
        {
          "name": "E3",
          "midi": 52,
          "time": 239.16264720000083,
          "velocity": 0.7874015748031497,
          "duration": 0.2616277500000024
        },
        {
          "name": "E3",
          "midi": 52,
          "time": 239.51148420000084,
          "velocity": 0.7874015748031497,
          "duration": 0.1744185000000016
        },
        {
          "name": "G4",
          "midi": 67,
          "time": 240.20915820000084,
          "velocity": 0.7874015748031497,
          "duration": 0.1744185000000016
        },
        {
          "name": "B5",
          "midi": 83,
          "time": 240.90683220000085,
          "velocity": 0.7874015748031497,
          "duration": 0.6976740000000063
        },
        {
          "name": "E5",
          "midi": 76,
          "time": 241.60450620000086,
          "velocity": 0.7874015748031497,
          "duration": 0.5232555000000048
        },
        {
          "name": "B4",
          "midi": 71,
          "time": 242.12776170000086,
          "velocity": 0.7874015748031497,
          "duration": 0.5232555000000048
        },
        {
          "name": "D5",
          "midi": 74,
          "time": 242.64447650625087,
          "velocity": 0.7874015748031497,
          "duration": 0.3488370000000032
        },
        {
          "name": "C5",
          "midi": 72,
          "time": 242.99985420000087,
          "velocity": 0.7874015748031497,
          "duration": 1.0465110000000095
        },
        {
          "name": "B4",
          "midi": 71,
          "time": 244.39520220000088,
          "velocity": 0.7874015748031497,
          "duration": 0.5232555000000048
        },
        {
          "name": "G4",
          "midi": 67,
          "time": 244.91845770000089,
          "velocity": 0.7874015748031497,
          "duration": 0.5232555000000048
        },
        {
          "name": "B4",
          "midi": 71,
          "time": 245.4417132000009,
          "velocity": 0.7874015748031497,
          "duration": 0.3488370000000032
        },
        {
          "name": "A4",
          "midi": 69,
          "time": 245.7905502000009,
          "velocity": 0.7874015748031497,
          "duration": 1.3953480000000127
        },
        {
          "name": "E5",
          "midi": 76,
          "time": 247.1858982000009,
          "velocity": 0.7874015748031497,
          "duration": 0.5232555000000048
        },
        {
          "name": "B4",
          "midi": 71,
          "time": 247.7091537000009,
          "velocity": 0.7874015748031497,
          "duration": 0.5232555000000048
        },
        {
          "name": "D5",
          "midi": 74,
          "time": 248.23240920000092,
          "velocity": 0.7874015748031497,
          "duration": 0.3488370000000032
        },
        {
          "name": "C5",
          "midi": 72,
          "time": 248.58124620000092,
          "velocity": 0.7874015748031497,
          "duration": 1.0465110000000095
        },
        {
          "name": "G5",
          "midi": 79,
          "time": 249.97659420000093,
          "velocity": 0.7874015748031497,
          "duration": 0.5232555000000048
        },
        {
          "name": "F#5",
          "midi": 78,
          "time": 250.49984970000094,
          "velocity": 0.7874015748031497,
          "duration": 0.5232555000000048
        },
        {
          "name": "D5",
          "midi": 74,
          "time": 251.02310520000094,
          "velocity": 0.7874015748031497,
          "duration": 0.3488370000000032
        },
        {
          "name": "E4",
          "midi": 64,
          "time": 251.37194220000094,
          "velocity": 0.7874015748031497,
          "duration": 0.1744185000000016
        },
        {
          "name": "E4",
          "midi": 64,
          "time": 252.06961620000095,
          "velocity": 0.7874015748031497,
          "duration": 0.1744185000000016
        },
        {
          "name": "E4",
          "midi": 64,
          "time": 252.76729020000096,
          "velocity": 0.7874015748031497,
          "duration": 0.17950570625001205
        },
        {
          "name": "D4",
          "midi": 62,
          "time": 253.46496420000096,
          "velocity": 0.7874015748031497,
          "duration": 0.3488370000000032
        },
        {
          "name": "B3",
          "midi": 59,
          "time": 253.81380120000097,
          "velocity": 0.7874015748031497,
          "duration": 0.3488370000000032
        },
        {
          "name": "E4",
          "midi": 64,
          "time": 254.16191145625098,
          "velocity": 0.7874015748031497,
          "duration": 0.1744185000000016
        },
        {
          "name": "E4",
          "midi": 64,
          "time": 254.85958545625098,
          "velocity": 0.7874015748031497,
          "duration": 0.1744185000000016
        },
        {
          "name": "D4",
          "midi": 62,
          "time": 255.55798620000098,
          "velocity": 0.7874015748031497,
          "duration": 0.1744185000000016
        },
        {
          "name": "A4",
          "midi": 69,
          "time": 256.255660200001,
          "velocity": 0.7874015748031497,
          "duration": 0.3488370000000032
        },
        {
          "name": "B4",
          "midi": 71,
          "time": 256.604497200001,
          "velocity": 0.7874015748031497,
          "duration": 0.3488370000000032
        },
        {
          "name": "E4",
          "midi": 64,
          "time": 256.953334200001,
          "velocity": 0.7874015748031497,
          "duration": 0.1744185000000016
        },
        {
          "name": "E4",
          "midi": 64,
          "time": 257.651008200001,
          "velocity": 0.7874015748031497,
          "duration": 0.1744185000000016
        },
        {
          "name": "E4",
          "midi": 64,
          "time": 258.348682200001,
          "velocity": 0.7874015748031497,
          "duration": 0.17950570624998363
        },
        {
          "name": "D4",
          "midi": 62,
          "time": 259.046356200001,
          "velocity": 0.7874015748031497,
          "duration": 0.3488370000000032
        },
        {
          "name": "B3",
          "midi": 59,
          "time": 259.395193200001,
          "velocity": 0.7874015748031497,
          "duration": 0.3488370000000032
        },
        {
          "name": "E4",
          "midi": 64,
          "time": 259.743303456251,
          "velocity": 0.7874015748031497,
          "duration": 0.1744185000000016
        },
        {
          "name": "E4",
          "midi": 64,
          "time": 260.440977456251,
          "velocity": 0.7874015748031497,
          "duration": 0.1744185000000016
        },
        {
          "name": "D4",
          "midi": 62,
          "time": 261.13937820000103,
          "velocity": 0.7874015748031497,
          "duration": 0.1744185000000016
        },
        {
          "name": "A4",
          "midi": 69,
          "time": 261.83705220000104,
          "velocity": 0.7874015748031497,
          "duration": 0.3488370000000032
        },
        {
          "name": "B4",
          "midi": 71,
          "time": 262.18588920000104,
          "velocity": 0.7874015748031497,
          "duration": 0.3488370000000032
        },
        {
          "name": "E4",
          "midi": 64,
          "time": 262.53472620000105,
          "velocity": 0.7874015748031497,
          "duration": 0.1744185000000016
        },
        {
          "name": "E4",
          "midi": 64,
          "time": 263.23240020000105,
          "velocity": 0.7874015748031497,
          "duration": 0.1744185000000016
        },
        {
          "name": "E4",
          "midi": 64,
          "time": 263.93007420000106,
          "velocity": 0.7874015748031497,
          "duration": 0.17950570624998363
        },
        {
          "name": "D4",
          "midi": 62,
          "time": 264.62774820000107,
          "velocity": 0.7874015748031497,
          "duration": 0.3488370000000032
        },
        {
          "name": "B3",
          "midi": 59,
          "time": 264.97658520000107,
          "velocity": 0.7874015748031497,
          "duration": 0.3488370000000032
        },
        {
          "name": "E4",
          "midi": 64,
          "time": 265.32469545625105,
          "velocity": 0.7874015748031497,
          "duration": 0.1744185000000016
        },
        {
          "name": "E4",
          "midi": 64,
          "time": 266.02236945625106,
          "velocity": 0.7874015748031497,
          "duration": 0.1744185000000016
        },
        {
          "name": "D4",
          "midi": 62,
          "time": 266.7207702000011,
          "velocity": 0.7874015748031497,
          "duration": 0.1744185000000016
        },
        {
          "name": "A4",
          "midi": 69,
          "time": 267.4184442000011,
          "velocity": 0.7874015748031497,
          "duration": 0.3488370000000032
        },
        {
          "name": "B4",
          "midi": 71,
          "time": 267.7672812000011,
          "velocity": 0.7874015748031497,
          "duration": 0.3488370000000032
        },
        {
          "name": "B4",
          "midi": 71,
          "time": 268.1161182000011,
          "velocity": 0.7874015748031497,
          "duration": 1.3953480000000127
        },
        {
          "name": "E2",
          "midi": 40,
          "time": 269.5114662000011,
          "velocity": 0.7874015748031497,
          "duration": 0.3619183874999976
        }
      ],
      "controlChanges": {},
      "id": 1,
      "name": "SR Midi Gits Beginner",
      "channelNumber": 0,
      "isPercussion": false
    }
  ]
}