{
  "header": {
    "PPQ": 480,
    "bpm": 172.00010320006191,
    "timeSignature": [
      4,
      4
    ],
    "name": "Dentalist Beginner Midi Git"
  },
  "tempo": [
    {
      "absoluteTime": 0,
      "seconds": 0,
      "bpm": 172.00010320006191
    }
  ],
  "timeSignature": [
    {
      "absoluteTime": 0,
      "seconds": 0,
      "numerator": 4,
      "denominator": 2,
      "click": 24,
      "notesQ": 8
    },
    {
      "absoluteTime": 7680,
      "seconds": 5.581392,
      "numerator": 4,
      "denominator": 2,
      "click": 24,
      "notesQ": 8
    },
    {
      "absoluteTime": 9600,
      "seconds": 6.97674,
      "numerator": 4,
      "denominator": 2,
      "click": 24,
      "notesQ": 8
    },
    {
      "absoluteTime": 11520,
      "seconds": 8.372088,
      "numerator": 4,
      "denominator": 2,
      "click": 24,
      "notesQ": 8
    },
    {
      "absoluteTime": 44160,
      "seconds": 32.093004,
      "numerator": 4,
      "denominator": 2,
      "click": 24,
      "notesQ": 8
    },
    {
      "absoluteTime": 65280,
      "seconds": 47.441832000000005,
      "numerator": 4,
      "denominator": 2,
      "click": 24,
      "notesQ": 8
    },
    {
      "absoluteTime": 124800,
      "seconds": 90.69762,
      "numerator": 4,
      "denominator": 2,
      "click": 24,
      "notesQ": 8
    },
    {
      "absoluteTime": 153600,
      "seconds": 111.62784,
      "numerator": 4,
      "denominator": 2,
      "click": 24,
      "notesQ": 8
    },
    {
      "absoluteTime": 157440,
      "seconds": 114.418536,
      "numerator": 4,
      "denominator": 2,
      "click": 24,
      "notesQ": 8
    },
    {
      "absoluteTime": 176640,
      "seconds": 128.372016,
      "numerator": 4,
      "denominator": 2,
      "click": 24,
      "notesQ": 8
    },
    {
      "absoluteTime": 211200,
      "seconds": 153.48828,
      "numerator": 4,
      "denominator": 2,
      "click": 24,
      "notesQ": 8
    },
    {
      "absoluteTime": 216960,
      "seconds": 157.674324,
      "numerator": 4,
      "denominator": 2,
      "click": 24,
      "notesQ": 8
    },
    {
      "absoluteTime": 577920,
      "seconds": 419.99974800000007,
      "numerator": 4,
      "denominator": 2,
      "click": 24,
      "notesQ": 8
    },
    {
      "absoluteTime": 583680,
      "seconds": 424.18579200000005,
      "numerator": 4,
      "denominator": 2,
      "click": 24,
      "notesQ": 8
    },
    {
      "absoluteTime": 606720,
      "seconds": 440.92996800000003,
      "numerator": 4,
      "denominator": 2,
      "click": 24,
      "notesQ": 8
    },
    {
      "absoluteTime": 612480,
      "seconds": 445.116012,
      "numerator": 4,
      "denominator": 2,
      "click": 24,
      "notesQ": 8
    }
  ],
  "startTime": 0,
  "duration": 269.86030320000077,
  "tracks": [
    {
      "startTime": 0,
      "duration": 0,
      "length": 0,
      "notes": [],
      "controlChanges": {},
      "id": 0,
      "name": "Dentalist Beginner Midi Git"
    },
    {
      "startTime": 2.9999982,
      "duration": 269.86030320000077,
      "length": 786,
      "notes": [
        {
          "name": "E4",
          "midi": 64,
          "time": 2.9999982,
          "velocity": 0.7874015748031497,
          "duration": 0.1744184999999998
        },
        {
          "name": "G4",
          "midi": 67,
          "time": 3.177323675,
          "velocity": 0.7874015748031497,
          "duration": 0.1744184999999998
        },
        {
          "name": "E4",
          "midi": 64,
          "time": 3.6976721999999995,
          "velocity": 0.7874015748031497,
          "duration": 0.1744184999999998
        },
        {
          "name": "G4",
          "midi": 67,
          "time": 3.8749976749999995,
          "velocity": 0.7874015748031497,
          "duration": 0.1744184999999998
        },
        {
          "name": "E4",
          "midi": 64,
          "time": 4.3953462,
          "velocity": 0.7874015748031497,
          "duration": 0.17950570624999962
        },
        {
          "name": "G4",
          "midi": 67,
          "time": 4.5697646999999995,
          "velocity": 0.7874015748031497,
          "duration": 0.1744184999999998
        },
        {
          "name": "F#4",
          "midi": 66,
          "time": 4.744183199999999,
          "velocity": 0.7874015748031497,
          "duration": 0.1744184999999998
        },
        {
          "name": "E4",
          "midi": 64,
          "time": 4.918601699999999,
          "velocity": 0.7874015748031497,
          "duration": 0.1744184999999998
        },
        {
          "name": "D4",
          "midi": 62,
          "time": 5.093020199999999,
          "velocity": 0.7874015748031497,
          "duration": 0.3488369999999996
        },
        {
          "name": "B3",
          "midi": 59,
          "time": 5.4418571999999985,
          "velocity": 0.7874015748031497,
          "duration": 0.3488369999999996
        },
        {
          "name": "E4",
          "midi": 64,
          "time": 5.7899674562499985,
          "velocity": 0.7874015748031497,
          "duration": 0.1744184999999998
        },
        {
          "name": "G4",
          "midi": 67,
          "time": 5.9672929312499985,
          "velocity": 0.7874015748031497,
          "duration": 0.1744184999999998
        },
        {
          "name": "E4",
          "midi": 64,
          "time": 6.487641456249999,
          "velocity": 0.7874015748031497,
          "duration": 0.1744184999999998
        },
        {
          "name": "G4",
          "midi": 67,
          "time": 6.664966931249999,
          "velocity": 0.7874015748031497,
          "duration": 0.1744184999999998
        },
        {
          "name": "D4",
          "midi": 62,
          "time": 7.186042199999998,
          "velocity": 0.7874015748031497,
          "duration": 0.1744184999999998
        },
        {
          "name": "E4",
          "midi": 64,
          "time": 7.360460699999998,
          "velocity": 0.7874015748031497,
          "duration": 0.1744184999999998
        },
        {
          "name": "F#4",
          "midi": 66,
          "time": 7.534879199999998,
          "velocity": 0.7874015748031497,
          "duration": 0.1744184999999998
        },
        {
          "name": "G4",
          "midi": 67,
          "time": 7.709297699999998,
          "velocity": 0.7874015748031497,
          "duration": 0.1744184999999998
        },
        {
          "name": "A4",
          "midi": 69,
          "time": 7.883716199999998,
          "velocity": 0.7874015748031497,
          "duration": 0.3488370000000005
        },
        {
          "name": "B4",
          "midi": 71,
          "time": 8.232553199999998,
          "velocity": 0.7874015748031497,
          "duration": 0.3488369999999996
        },
        {
          "name": "E4",
          "midi": 64,
          "time": 8.581390199999998,
          "velocity": 0.7874015748031497,
          "duration": 0.1744184999999998
        },
        {
          "name": "G4",
          "midi": 67,
          "time": 8.758715674999998,
          "velocity": 0.7874015748031497,
          "duration": 0.1744184999999998
        },
        {
          "name": "E4",
          "midi": 64,
          "time": 9.279064199999997,
          "velocity": 0.7874015748031497,
          "duration": 0.1744184999999998
        },
        {
          "name": "G4",
          "midi": 67,
          "time": 9.456389674999997,
          "velocity": 0.7874015748031497,
          "duration": 0.1744184999999998
        },
        {
          "name": "E4",
          "midi": 64,
          "time": 9.976738199999996,
          "velocity": 0.7874015748031497,
          "duration": 0.17950570624999962
        },
        {
          "name": "G4",
          "midi": 67,
          "time": 10.151156699999996,
          "velocity": 0.7874015748031497,
          "duration": 0.1744184999999998
        },
        {
          "name": "F#4",
          "midi": 66,
          "time": 10.325575199999996,
          "velocity": 0.7874015748031497,
          "duration": 0.1744184999999998
        },
        {
          "name": "E4",
          "midi": 64,
          "time": 10.499993699999996,
          "velocity": 0.7874015748031497,
          "duration": 0.1744184999999998
        },
        {
          "name": "D4",
          "midi": 62,
          "time": 10.674412199999995,
          "velocity": 0.7874015748031497,
          "duration": 0.3488369999999996
        },
        {
          "name": "B3",
          "midi": 59,
          "time": 11.023249199999995,
          "velocity": 0.7874015748031497,
          "duration": 0.3488369999999996
        },
        {
          "name": "E4",
          "midi": 64,
          "time": 11.371359456249994,
          "velocity": 0.7874015748031497,
          "duration": 0.1744184999999998
        },
        {
          "name": "G4",
          "midi": 67,
          "time": 11.548684931249994,
          "velocity": 0.7874015748031497,
          "duration": 0.1744184999999998
        },
        {
          "name": "E4",
          "midi": 64,
          "time": 12.069033456249993,
          "velocity": 0.7874015748031497,
          "duration": 0.1744184999999998
        },
        {
          "name": "G4",
          "midi": 67,
          "time": 12.246358931249993,
          "velocity": 0.7874015748031497,
          "duration": 0.1744184999999998
        },
        {
          "name": "D4",
          "midi": 62,
          "time": 12.767434199999993,
          "velocity": 0.7874015748031497,
          "duration": 0.1744184999999998
        },
        {
          "name": "E4",
          "midi": 64,
          "time": 12.941852699999993,
          "velocity": 0.7874015748031497,
          "duration": 0.1744184999999998
        },
        {
          "name": "F#4",
          "midi": 66,
          "time": 13.116271199999993,
          "velocity": 0.7874015748031497,
          "duration": 0.1744184999999998
        },
        {
          "name": "G4",
          "midi": 67,
          "time": 13.290689699999993,
          "velocity": 0.7874015748031497,
          "duration": 0.1744184999999998
        },
        {
          "name": "A4",
          "midi": 69,
          "time": 13.465108199999992,
          "velocity": 0.7874015748031497,
          "duration": 0.3488369999999996
        },
        {
          "name": "B4",
          "midi": 71,
          "time": 13.813945199999992,
          "velocity": 0.7874015748031497,
          "duration": 0.3488369999999996
        },
        {
          "name": "E4",
          "midi": 64,
          "time": 14.162782199999992,
          "velocity": 0.7874015748031497,
          "duration": 0.1744184999999998
        },
        {
          "name": "G4",
          "midi": 67,
          "time": 14.340107674999992,
          "velocity": 0.7874015748031497,
          "duration": 0.1744184999999998
        },
        {
          "name": "E4",
          "midi": 64,
          "time": 14.860456199999991,
          "velocity": 0.7874015748031497,
          "duration": 0.1744184999999998
        },
        {
          "name": "G4",
          "midi": 67,
          "time": 15.03778167499999,
          "velocity": 0.7874015748031497,
          "duration": 0.1744184999999998
        },
        {
          "name": "E4",
          "midi": 64,
          "time": 15.55813019999999,
          "velocity": 0.7874015748031497,
          "duration": 0.17950570624999962
        },
        {
          "name": "G4",
          "midi": 67,
          "time": 15.73254869999999,
          "velocity": 0.7874015748031497,
          "duration": 0.1744184999999998
        },
        {
          "name": "F#4",
          "midi": 66,
          "time": 15.90696719999999,
          "velocity": 0.7874015748031497,
          "duration": 0.1744185000000016
        },
        {
          "name": "E4",
          "midi": 64,
          "time": 16.08138569999999,
          "velocity": 0.7874015748031497,
          "duration": 0.1744185000000016
        },
        {
          "name": "D4",
          "midi": 62,
          "time": 16.255804199999993,
          "velocity": 0.7874015748031497,
          "duration": 0.3488369999999996
        },
        {
          "name": "B3",
          "midi": 59,
          "time": 16.604641199999993,
          "velocity": 0.7874015748031497,
          "duration": 0.3488369999999996
        },
        {
          "name": "E4",
          "midi": 64,
          "time": 16.95275145624999,
          "velocity": 0.7874015748031497,
          "duration": 0.1744185000000016
        },
        {
          "name": "G4",
          "midi": 67,
          "time": 17.13007693124999,
          "velocity": 0.7874015748031497,
          "duration": 0.1744185000000016
        },
        {
          "name": "E4",
          "midi": 64,
          "time": 17.650425456249994,
          "velocity": 0.7874015748031497,
          "duration": 0.1744185000000016
        },
        {
          "name": "G4",
          "midi": 67,
          "time": 17.827750931249994,
          "velocity": 0.7874015748031497,
          "duration": 0.1744185000000016
        },
        {
          "name": "D4",
          "midi": 62,
          "time": 18.348826199999998,
          "velocity": 0.7874015748031497,
          "duration": 0.1744185000000016
        },
        {
          "name": "E4",
          "midi": 64,
          "time": 18.5232447,
          "velocity": 0.7874015748031497,
          "duration": 0.1744185000000016
        },
        {
          "name": "F#4",
          "midi": 66,
          "time": 18.6976632,
          "velocity": 0.7874015748031497,
          "duration": 0.1744185000000016
        },
        {
          "name": "G4",
          "midi": 67,
          "time": 18.872081700000003,
          "velocity": 0.7874015748031497,
          "duration": 0.1744185000000016
        },
        {
          "name": "A4",
          "midi": 69,
          "time": 19.046500200000004,
          "velocity": 0.7874015748031497,
          "duration": 0.3488369999999996
        },
        {
          "name": "B4",
          "midi": 71,
          "time": 19.395337200000004,
          "velocity": 0.7874015748031497,
          "duration": 0.3488369999999996
        },
        {
          "name": "E5",
          "midi": 76,
          "time": 19.744174200000003,
          "velocity": 0.7874015748031497,
          "duration": 1.3953479999999985
        },
        {
          "name": "E3",
          "midi": 52,
          "time": 21.139522200000002,
          "velocity": 0.7874015748031497,
          "duration": 0.0872092500000008
        },
        {
          "name": "E3",
          "midi": 52,
          "time": 21.4883592,
          "velocity": 0.7874015748031497,
          "duration": 0.1744185000000016
        },
        {
          "name": "B3",
          "midi": 59,
          "time": 21.4883592,
          "velocity": 0.7874015748031497,
          "duration": 0.1744185000000016
        },
        {
          "name": "B3",
          "midi": 59,
          "time": 21.837196200000005,
          "velocity": 0.7874015748031497,
          "duration": 0.3488369999999996
        },
        {
          "name": "E3",
          "midi": 52,
          "time": 21.841556662500004,
          "velocity": 0.7874015748031497,
          "duration": 0.3488369999999996
        },
        {
          "name": "B2",
          "midi": 47,
          "time": 22.360451700000002,
          "velocity": 0.7874015748031497,
          "duration": 0.5232555000000012
        },
        {
          "name": "F#3",
          "midi": 54,
          "time": 22.360451700000002,
          "velocity": 0.7874015748031497,
          "duration": 0.5232555000000012
        },
        {
          "name": "B2",
          "midi": 47,
          "time": 22.883707200000003,
          "velocity": 0.7874015748031497,
          "duration": 1.0465109999999989
        },
        {
          "name": "F#3",
          "midi": 54,
          "time": 22.883707200000003,
          "velocity": 0.7874015748031497,
          "duration": 1.0465109999999989
        },
        {
          "name": "C3",
          "midi": 48,
          "time": 23.930218200000002,
          "velocity": 0.7874015748031497,
          "duration": 0.0872092500000008
        },
        {
          "name": "C3",
          "midi": 48,
          "time": 24.279055200000002,
          "velocity": 0.7874015748031497,
          "duration": 0.1744185000000016
        },
        {
          "name": "G3",
          "midi": 55,
          "time": 24.279055200000002,
          "velocity": 0.7874015748031497,
          "duration": 0.1744185000000016
        },
        {
          "name": "G3",
          "midi": 55,
          "time": 24.627892200000005,
          "velocity": 0.7874015748031497,
          "duration": 0.3488369999999996
        },
        {
          "name": "C3",
          "midi": 48,
          "time": 24.632252662500004,
          "velocity": 0.7874015748031497,
          "duration": 0.3488369999999996
        },
        {
          "name": "F3",
          "midi": 53,
          "time": 25.151147700000003,
          "velocity": 0.7874015748031497,
          "duration": 0.5232555000000012
        },
        {
          "name": "C4",
          "midi": 60,
          "time": 25.151147700000003,
          "velocity": 0.7874015748031497,
          "duration": 0.5232555000000012
        },
        {
          "name": "F3",
          "midi": 53,
          "time": 25.674403200000004,
          "velocity": 0.7874015748031497,
          "duration": 1.0465109999999989
        },
        {
          "name": "C4",
          "midi": 60,
          "time": 25.674403200000004,
          "velocity": 0.7874015748031497,
          "duration": 1.0465109999999989
        },
        {
          "name": "E3",
          "midi": 52,
          "time": 26.720914200000003,
          "velocity": 0.7874015748031497,
          "duration": 0.1744185000000016
        },
        {
          "name": "B3",
          "midi": 59,
          "time": 26.720914200000003,
          "velocity": 0.7874015748031497,
          "duration": 0.1744185000000016
        },
        {
          "name": "E3",
          "midi": 52,
          "time": 27.418588200000006,
          "velocity": 0.7874015748031497,
          "duration": 0.0872092500000008
        },
        {
          "name": "B2",
          "midi": 47,
          "time": 28.116262200000005,
          "velocity": 0.7874015748031497,
          "duration": 0.1744185000000016
        },
        {
          "name": "F#3",
          "midi": 54,
          "time": 28.116262200000005,
          "velocity": 0.7874015748031497,
          "duration": 0.1744185000000016
        },
        {
          "name": "B2",
          "midi": 47,
          "time": 28.813936200000008,
          "velocity": 0.7874015748031497,
          "duration": 0.0872092500000008
        },
        {
          "name": "C3",
          "midi": 48,
          "time": 29.511610200000007,
          "velocity": 0.7874015748031497,
          "duration": 0.1744185000000016
        },
        {
          "name": "G3",
          "midi": 55,
          "time": 29.511610200000007,
          "velocity": 0.7874015748031497,
          "duration": 0.1744185000000016
        },
        {
          "name": "C3",
          "midi": 48,
          "time": 30.20928420000001,
          "velocity": 0.7874015748031497,
          "duration": 0.0872092500000008
        },
        {
          "name": "A2",
          "midi": 45,
          "time": 30.90695820000001,
          "velocity": 0.7874015748031497,
          "duration": 0.1744185000000016
        },
        {
          "name": "E3",
          "midi": 52,
          "time": 30.90695820000001,
          "velocity": 0.7874015748031497,
          "duration": 0.1744185000000016
        },
        {
          "name": "A2",
          "midi": 45,
          "time": 31.60463220000001,
          "velocity": 0.7874015748031497,
          "duration": 0.0872092500000008
        },
        {
          "name": "E3",
          "midi": 52,
          "time": 32.30230620000001,
          "velocity": 0.7874015748031497,
          "duration": 0.0872092500000008
        },
        {
          "name": "E3",
          "midi": 52,
          "time": 32.651143200000014,
          "velocity": 0.7874015748031497,
          "duration": 0.1744185000000016
        },
        {
          "name": "B3",
          "midi": 59,
          "time": 32.651143200000014,
          "velocity": 0.7874015748031497,
          "duration": 0.1744185000000016
        },
        {
          "name": "B3",
          "midi": 59,
          "time": 32.99998020000002,
          "velocity": 0.7874015748031497,
          "duration": 0.3488370000000032
        },
        {
          "name": "E3",
          "midi": 52,
          "time": 33.00434066250002,
          "velocity": 0.7874015748031497,
          "duration": 0.3488370000000032
        },
        {
          "name": "B2",
          "midi": 47,
          "time": 33.52323570000002,
          "velocity": 0.7874015748031497,
          "duration": 0.5232554999999977
        },
        {
          "name": "F#3",
          "midi": 54,
          "time": 33.52323570000002,
          "velocity": 0.7874015748031497,
          "duration": 0.5232554999999977
        },
        {
          "name": "B2",
          "midi": 47,
          "time": 34.04649120000002,
          "velocity": 0.7874015748031497,
          "duration": 1.0465110000000024
        },
        {
          "name": "F#3",
          "midi": 54,
          "time": 34.04649120000002,
          "velocity": 0.7874015748031497,
          "duration": 1.0465110000000024
        },
        {
          "name": "C3",
          "midi": 48,
          "time": 35.09300220000002,
          "velocity": 0.7874015748031497,
          "duration": 0.0872092500000008
        },
        {
          "name": "C3",
          "midi": 48,
          "time": 35.441839200000025,
          "velocity": 0.7874015748031497,
          "duration": 0.1744185000000016
        },
        {
          "name": "G3",
          "midi": 55,
          "time": 35.441839200000025,
          "velocity": 0.7874015748031497,
          "duration": 0.1744185000000016
        },
        {
          "name": "G3",
          "midi": 55,
          "time": 35.79067620000003,
          "velocity": 0.7874015748031497,
          "duration": 0.3488370000000032
        },
        {
          "name": "C3",
          "midi": 48,
          "time": 35.79503666250003,
          "velocity": 0.7874015748031497,
          "duration": 0.3488370000000032
        },
        {
          "name": "F3",
          "midi": 53,
          "time": 36.31393170000003,
          "velocity": 0.7874015748031497,
          "duration": 0.5232554999999977
        },
        {
          "name": "C4",
          "midi": 60,
          "time": 36.31393170000003,
          "velocity": 0.7874015748031497,
          "duration": 0.5232554999999977
        },
        {
          "name": "F3",
          "midi": 53,
          "time": 36.83718720000003,
          "velocity": 0.7874015748031497,
          "duration": 1.0465110000000024
        },
        {
          "name": "C4",
          "midi": 60,
          "time": 36.83718720000003,
          "velocity": 0.7874015748031497,
          "duration": 1.0465110000000024
        },
        {
          "name": "E3",
          "midi": 52,
          "time": 37.88369820000003,
          "velocity": 0.7874015748031497,
          "duration": 0.1744185000000016
        },
        {
          "name": "B3",
          "midi": 59,
          "time": 37.88369820000003,
          "velocity": 0.7874015748031497,
          "duration": 0.1744185000000016
        },
        {
          "name": "E3",
          "midi": 52,
          "time": 38.58137220000003,
          "velocity": 0.7874015748031497,
          "duration": 0.0872092500000008
        },
        {
          "name": "B2",
          "midi": 47,
          "time": 39.27904620000003,
          "velocity": 0.7874015748031497,
          "duration": 0.1744185000000016
        },
        {
          "name": "F#3",
          "midi": 54,
          "time": 39.27904620000003,
          "velocity": 0.7874015748031497,
          "duration": 0.1744185000000016
        },
        {
          "name": "B2",
          "midi": 47,
          "time": 39.97672020000003,
          "velocity": 0.7874015748031497,
          "duration": 0.0872092500000008
        },
        {
          "name": "C3",
          "midi": 48,
          "time": 40.67439420000003,
          "velocity": 0.7874015748031497,
          "duration": 0.1744185000000016
        },
        {
          "name": "G3",
          "midi": 55,
          "time": 40.67439420000003,
          "velocity": 0.7874015748031497,
          "duration": 0.1744185000000016
        },
        {
          "name": "C3",
          "midi": 48,
          "time": 41.37206820000003,
          "velocity": 0.7874015748031497,
          "duration": 0.0872092500000008
        },
        {
          "name": "A2",
          "midi": 45,
          "time": 42.06974220000003,
          "velocity": 0.7874015748031497,
          "duration": 0.6976739999999992
        },
        {
          "name": "E3",
          "midi": 52,
          "time": 42.06974220000003,
          "velocity": 0.7874015748031497,
          "duration": 0.6976739999999992
        },
        {
          "name": "D3",
          "midi": 50,
          "time": 42.76741620000003,
          "velocity": 0.7874015748031497,
          "duration": 0.6976739999999992
        },
        {
          "name": "A3",
          "midi": 57,
          "time": 42.76741620000003,
          "velocity": 0.7874015748031497,
          "duration": 0.6976739999999992
        },
        {
          "name": "D3",
          "midi": 50,
          "time": 43.46509020000003,
          "velocity": 0.7874015748031497,
          "duration": 0.1744185000000016
        },
        {
          "name": "D3",
          "midi": 50,
          "time": 43.81392720000003,
          "velocity": 0.7874015748031497,
          "duration": 0.1744185000000016
        },
        {
          "name": "E4",
          "midi": 64,
          "time": 44.162764200000034,
          "velocity": 0.7874015748031497,
          "duration": 0.1744185000000016
        },
        {
          "name": "E4",
          "midi": 64,
          "time": 45.38369370000004,
          "velocity": 0.7874015748031497,
          "duration": 0.1744185000000016
        },
        {
          "name": "A4",
          "midi": 69,
          "time": 46.25578620000004,
          "velocity": 0.7874015748031497,
          "duration": 0.1744185000000016
        },
        {
          "name": "G4",
          "midi": 67,
          "time": 46.43020470000004,
          "velocity": 0.7874015748031497,
          "duration": 0.1744185000000016
        },
        {
          "name": "F#4",
          "midi": 66,
          "time": 46.60462320000004,
          "velocity": 0.7874015748031497,
          "duration": 0.1744185000000016
        },
        {
          "name": "D4",
          "midi": 62,
          "time": 46.77904170000004,
          "velocity": 0.7874015748031497,
          "duration": 0.1744185000000016
        },
        {
          "name": "E4",
          "midi": 64,
          "time": 46.953460200000045,
          "velocity": 0.7874015748031497,
          "duration": 0.1744185000000016
        },
        {
          "name": "E4",
          "midi": 64,
          "time": 48.17438970000005,
          "velocity": 0.7874015748031497,
          "duration": 0.1744185000000016
        },
        {
          "name": "B3",
          "midi": 59,
          "time": 49.04648220000005,
          "velocity": 0.7874015748031497,
          "duration": 0.1744185000000016
        },
        {
          "name": "C4",
          "midi": 60,
          "time": 49.22090070000005,
          "velocity": 0.7874015748031497,
          "duration": 0.1744185000000016
        },
        {
          "name": "D4",
          "midi": 62,
          "time": 49.39531920000005,
          "velocity": 0.7874015748031497,
          "duration": 0.1744185000000016
        },
        {
          "name": "F#4",
          "midi": 66,
          "time": 49.569737700000054,
          "velocity": 0.7874015748031497,
          "duration": 0.1744185000000016
        },
        {
          "name": "E4",
          "midi": 64,
          "time": 49.744156200000056,
          "velocity": 0.7874015748031497,
          "duration": 0.1744185000000016
        },
        {
          "name": "E4",
          "midi": 64,
          "time": 50.96508570000006,
          "velocity": 0.7874015748031497,
          "duration": 0.1744185000000016
        },
        {
          "name": "A4",
          "midi": 69,
          "time": 51.83717820000006,
          "velocity": 0.7874015748031497,
          "duration": 0.1744185000000016
        },
        {
          "name": "G4",
          "midi": 67,
          "time": 52.01159670000006,
          "velocity": 0.7874015748031497,
          "duration": 0.1744185000000016
        },
        {
          "name": "F#4",
          "midi": 66,
          "time": 52.186015200000064,
          "velocity": 0.7874015748031497,
          "duration": 0.1744185000000016
        },
        {
          "name": "D4",
          "midi": 62,
          "time": 52.360433700000065,
          "velocity": 0.7874015748031497,
          "duration": 0.1744185000000016
        },
        {
          "name": "E4",
          "midi": 64,
          "time": 52.53485220000007,
          "velocity": 0.7874015748031497,
          "duration": 0.1744185000000016
        },
        {
          "name": "E4",
          "midi": 64,
          "time": 53.75578170000007,
          "velocity": 0.7874015748031497,
          "duration": 0.1744185000000016
        },
        {
          "name": "D5",
          "midi": 74,
          "time": 54.62787420000007,
          "velocity": 0.7874015748031497,
          "duration": 0.1744185000000016
        },
        {
          "name": "C5",
          "midi": 72,
          "time": 54.80229270000007,
          "velocity": 0.7874015748031497,
          "duration": 0.1744185000000016
        },
        {
          "name": "B4",
          "midi": 71,
          "time": 54.976711200000075,
          "velocity": 0.7874015748031497,
          "duration": 0.1744185000000016
        },
        {
          "name": "A4",
          "midi": 69,
          "time": 55.15112970000008,
          "velocity": 0.7874015748031497,
          "duration": 0.1744185000000016
        },
        {
          "name": "C3",
          "midi": 48,
          "time": 55.32554820000008,
          "velocity": 0.7874015748031497,
          "duration": 0.3488370000000032
        },
        {
          "name": "G3",
          "midi": 55,
          "time": 55.32554820000008,
          "velocity": 0.7874015748031497,
          "duration": 0.3488370000000032
        },
        {
          "name": "C3",
          "midi": 48,
          "time": 55.67438520000008,
          "velocity": 0.7874015748031497,
          "duration": 0.2616277500000024
        },
        {
          "name": "G3",
          "midi": 55,
          "time": 55.67438520000008,
          "velocity": 0.7874015748031497,
          "duration": 0.2616277500000024
        },
        {
          "name": "D3",
          "midi": 50,
          "time": 56.54647770000008,
          "velocity": 0.7874015748031497,
          "duration": 0.5218020124999967
        },
        {
          "name": "A3",
          "midi": 57,
          "time": 56.54647770000008,
          "velocity": 0.7874015748031497,
          "duration": 0.5218020124999967
        },
        {
          "name": "D3",
          "midi": 50,
          "time": 57.06973320000008,
          "velocity": 0.7874015748031497,
          "duration": 0.3488370000000032
        },
        {
          "name": "A3",
          "midi": 57,
          "time": 57.06973320000008,
          "velocity": 0.7874015748031497,
          "duration": 0.3488370000000032
        },
        {
          "name": "D3",
          "midi": 50,
          "time": 57.94037221250008,
          "velocity": 0.7874015748031497,
          "duration": 0.34302304999999933
        },
        {
          "name": "A3",
          "midi": 57,
          "time": 57.94182570000008,
          "velocity": 0.7874015748031497,
          "duration": 0.34883699999999607
        },
        {
          "name": "E3",
          "midi": 52,
          "time": 58.46508120000008,
          "velocity": 0.7874015748031497,
          "duration": 0.1744185000000016
        },
        {
          "name": "B3",
          "midi": 59,
          "time": 58.46508120000008,
          "velocity": 0.7874015748031497,
          "duration": 0.1744185000000016
        },
        {
          "name": "G4",
          "midi": 67,
          "time": 58.81391820000008,
          "velocity": 0.7874015748031497,
          "duration": 0.1744185000000016
        },
        {
          "name": "F#4",
          "midi": 66,
          "time": 58.98833670000008,
          "velocity": 0.7874015748031497,
          "duration": 0.1744185000000016
        },
        {
          "name": "E4",
          "midi": 64,
          "time": 59.162755200000085,
          "velocity": 0.7874015748031497,
          "duration": 0.18386616875000072
        },
        {
          "name": "D4",
          "midi": 62,
          "time": 59.337173700000086,
          "velocity": 0.7874015748031497,
          "duration": 0.34883699999999607
        },
        {
          "name": "E4",
          "midi": 64,
          "time": 59.68601070000008,
          "velocity": 0.7874015748031497,
          "duration": 0.1744185000000016
        },
        {
          "name": "E4",
          "midi": 64,
          "time": 59.860429200000084,
          "velocity": 0.7874015748031497,
          "duration": 0.3488370000000032
        },
        {
          "name": "E3",
          "midi": 52,
          "time": 60.20926620000009,
          "velocity": 0.7874015748031497,
          "duration": 0.3488370000000032
        },
        {
          "name": "B3",
          "midi": 59,
          "time": 60.20926620000009,
          "velocity": 0.7874015748031497,
          "duration": 0.3488370000000032
        },
        {
          "name": "D3",
          "midi": 50,
          "time": 60.55810320000009,
          "velocity": 0.7874015748031497,
          "duration": 0.3488370000000032
        },
        {
          "name": "A3",
          "midi": 57,
          "time": 60.55810320000009,
          "velocity": 0.7874015748031497,
          "duration": 0.3488370000000032
        },
        {
          "name": "C3",
          "midi": 48,
          "time": 60.90694020000009,
          "velocity": 0.7874015748031497,
          "duration": 0.3488370000000032
        },
        {
          "name": "G3",
          "midi": 55,
          "time": 60.90694020000009,
          "velocity": 0.7874015748031497,
          "duration": 0.3488370000000032
        },
        {
          "name": "C3",
          "midi": 48,
          "time": 61.2557772000001,
          "velocity": 0.7874015748031497,
          "duration": 0.2616277500000024
        },
        {
          "name": "G3",
          "midi": 55,
          "time": 61.2557772000001,
          "velocity": 0.7874015748031497,
          "duration": 0.2616277500000024
        },
        {
          "name": "D3",
          "midi": 50,
          "time": 62.1278697000001,
          "velocity": 0.7874015748031497,
          "duration": 0.5218020124999967
        },
        {
          "name": "A3",
          "midi": 57,
          "time": 62.1278697000001,
          "velocity": 0.7874015748031497,
          "duration": 0.5218020124999967
        },
        {
          "name": "D3",
          "midi": 50,
          "time": 62.651125200000095,
          "velocity": 0.7874015748031497,
          "duration": 0.3488370000000032
        },
        {
          "name": "A3",
          "midi": 57,
          "time": 62.651125200000095,
          "velocity": 0.7874015748031497,
          "duration": 0.3488370000000032
        },
        {
          "name": "D3",
          "midi": 50,
          "time": 63.521764212500095,
          "velocity": 0.7874015748031497,
          "duration": 0.34302304999999933
        },
        {
          "name": "A3",
          "midi": 57,
          "time": 63.523217700000096,
          "velocity": 0.7874015748031497,
          "duration": 0.34883699999999607
        },
        {
          "name": "E3",
          "midi": 52,
          "time": 64.0464732000001,
          "velocity": 0.7874015748031497,
          "duration": 0.1744185000000016
        },
        {
          "name": "B3",
          "midi": 59,
          "time": 64.0464732000001,
          "velocity": 0.7874015748031497,
          "duration": 0.1744185000000016
        },
        {
          "name": "B3",
          "midi": 59,
          "time": 64.3953102000001,
          "velocity": 0.7874015748031497,
          "duration": 0.1744185000000016
        },
        {
          "name": "C4",
          "midi": 60,
          "time": 64.5697287000001,
          "velocity": 0.7874015748031497,
          "duration": 0.1744185000000016
        },
        {
          "name": "D4",
          "midi": 62,
          "time": 64.7441472000001,
          "velocity": 0.7874015748031497,
          "duration": 0.1744185000000016
        },
        {
          "name": "E4",
          "midi": 64,
          "time": 64.9185657000001,
          "velocity": 0.7874015748031497,
          "duration": 0.1744185000000016
        },
        {
          "name": "F#4",
          "midi": 66,
          "time": 65.0929842000001,
          "velocity": 0.7874015748031497,
          "duration": 0.1744185000000016
        },
        {
          "name": "G4",
          "midi": 67,
          "time": 65.2674027000001,
          "velocity": 0.7874015748031497,
          "duration": 0.5232555000000048
        },
        {
          "name": "E3",
          "midi": 52,
          "time": 65.79065820000011,
          "velocity": 0.7874015748031497,
          "duration": 0.3488370000000032
        },
        {
          "name": "B3",
          "midi": 59,
          "time": 65.79065820000011,
          "velocity": 0.7874015748031497,
          "duration": 0.3488370000000032
        },
        {
          "name": "D3",
          "midi": 50,
          "time": 66.13949520000011,
          "velocity": 0.7874015748031497,
          "duration": 0.3488370000000032
        },
        {
          "name": "A3",
          "midi": 57,
          "time": 66.13949520000011,
          "velocity": 0.7874015748031497,
          "duration": 0.3488370000000032
        },
        {
          "name": "C3",
          "midi": 48,
          "time": 66.48833220000012,
          "velocity": 0.7874015748031497,
          "duration": 0.3488370000000032
        },
        {
          "name": "G3",
          "midi": 55,
          "time": 66.48833220000012,
          "velocity": 0.7874015748031497,
          "duration": 0.3488370000000032
        },
        {
          "name": "C3",
          "midi": 48,
          "time": 66.83716920000012,
          "velocity": 0.7874015748031497,
          "duration": 0.2616277500000024
        },
        {
          "name": "G3",
          "midi": 55,
          "time": 66.83716920000012,
          "velocity": 0.7874015748031497,
          "duration": 0.2616277500000024
        },
        {
          "name": "D3",
          "midi": 50,
          "time": 67.70926170000013,
          "velocity": 0.7874015748031497,
          "duration": 0.5218020125000038
        },
        {
          "name": "A3",
          "midi": 57,
          "time": 67.70926170000013,
          "velocity": 0.7874015748031497,
          "duration": 0.5218020125000038
        },
        {
          "name": "D3",
          "midi": 50,
          "time": 68.23251720000013,
          "velocity": 0.7874015748031497,
          "duration": 0.3488370000000032
        },
        {
          "name": "A3",
          "midi": 57,
          "time": 68.23251720000013,
          "velocity": 0.7874015748031497,
          "duration": 0.3488370000000032
        },
        {
          "name": "D3",
          "midi": 50,
          "time": 69.10315621250014,
          "velocity": 0.7874015748031497,
          "duration": 0.34302304999999933
        },
        {
          "name": "A3",
          "midi": 57,
          "time": 69.10460970000014,
          "velocity": 0.7874015748031497,
          "duration": 0.3488370000000032
        },
        {
          "name": "E3",
          "midi": 52,
          "time": 69.62786520000014,
          "velocity": 0.7874015748031497,
          "duration": 0.1744185000000016
        },
        {
          "name": "B3",
          "midi": 59,
          "time": 69.62786520000014,
          "velocity": 0.7874015748031497,
          "duration": 0.1744185000000016
        },
        {
          "name": "G4",
          "midi": 67,
          "time": 69.97670220000015,
          "velocity": 0.7874015748031497,
          "duration": 0.1744185000000016
        },
        {
          "name": "F#4",
          "midi": 66,
          "time": 70.15112070000015,
          "velocity": 0.7874015748031497,
          "duration": 0.1744185000000016
        },
        {
          "name": "E4",
          "midi": 64,
          "time": 70.32553920000015,
          "velocity": 0.7874015748031497,
          "duration": 0.18386616875000072
        },
        {
          "name": "D4",
          "midi": 62,
          "time": 70.49995770000015,
          "velocity": 0.7874015748031497,
          "duration": 0.3488370000000032
        },
        {
          "name": "E4",
          "midi": 64,
          "time": 70.84879470000016,
          "velocity": 0.7874015748031497,
          "duration": 0.1744185000000016
        },
        {
          "name": "E4",
          "midi": 64,
          "time": 71.02321320000016,
          "velocity": 0.7874015748031497,
          "duration": 0.3488370000000032
        },
        {
          "name": "E3",
          "midi": 52,
          "time": 71.37205020000016,
          "velocity": 0.7874015748031497,
          "duration": 0.3488370000000032
        },
        {
          "name": "B3",
          "midi": 59,
          "time": 71.37205020000016,
          "velocity": 0.7874015748031497,
          "duration": 0.3488370000000032
        },
        {
          "name": "D3",
          "midi": 50,
          "time": 71.72088720000016,
          "velocity": 0.7874015748031497,
          "duration": 0.3488370000000032
        },
        {
          "name": "A3",
          "midi": 57,
          "time": 71.72088720000016,
          "velocity": 0.7874015748031497,
          "duration": 0.3488370000000032
        },
        {
          "name": "C3",
          "midi": 48,
          "time": 72.06972420000017,
          "velocity": 0.7874015748031497,
          "duration": 0.3488370000000032
        },
        {
          "name": "G3",
          "midi": 55,
          "time": 72.06972420000017,
          "velocity": 0.7874015748031497,
          "duration": 0.3488370000000032
        },
        {
          "name": "C3",
          "midi": 48,
          "time": 72.41856120000017,
          "velocity": 0.7874015748031497,
          "duration": 0.2616277500000024
        },
        {
          "name": "G3",
          "midi": 55,
          "time": 72.41856120000017,
          "velocity": 0.7874015748031497,
          "duration": 0.2616277500000024
        },
        {
          "name": "D3",
          "midi": 50,
          "time": 73.29065370000018,
          "velocity": 0.7874015748031497,
          "duration": 0.5218020125000038
        },
        {
          "name": "A3",
          "midi": 57,
          "time": 73.29065370000018,
          "velocity": 0.7874015748031497,
          "duration": 0.5218020125000038
        },
        {
          "name": "D3",
          "midi": 50,
          "time": 73.81390920000018,
          "velocity": 0.7874015748031497,
          "duration": 0.3488370000000032
        },
        {
          "name": "A3",
          "midi": 57,
          "time": 73.81390920000018,
          "velocity": 0.7874015748031497,
          "duration": 0.3488370000000032
        },
        {
          "name": "D3",
          "midi": 50,
          "time": 74.68454821250019,
          "velocity": 0.7874015748031497,
          "duration": 0.34302304999999933
        },
        {
          "name": "A3",
          "midi": 57,
          "time": 74.68600170000019,
          "velocity": 0.7874015748031497,
          "duration": 0.3488370000000032
        },
        {
          "name": "E3",
          "midi": 52,
          "time": 75.2092572000002,
          "velocity": 0.7874015748031497,
          "duration": 0.2616277500000024
        },
        {
          "name": "B3",
          "midi": 59,
          "time": 75.2092572000002,
          "velocity": 0.7874015748031497,
          "duration": 0.2616277500000024
        },
        {
          "name": "E3",
          "midi": 52,
          "time": 75.5580942000002,
          "velocity": 0.7874015748031497,
          "duration": 0.1744185000000016
        },
        {
          "name": "G3",
          "midi": 55,
          "time": 75.7325127000002,
          "velocity": 0.7874015748031497,
          "duration": 0.1744185000000016
        },
        {
          "name": "B3",
          "midi": 59,
          "time": 75.9069312000002,
          "velocity": 0.7874015748031497,
          "duration": 0.1744185000000016
        },
        {
          "name": "E4",
          "midi": 64,
          "time": 76.0813497000002,
          "velocity": 0.7874015748031497,
          "duration": 0.1744185000000016
        },
        {
          "name": "G4",
          "midi": 67,
          "time": 76.2557682000002,
          "velocity": 0.7874015748031497,
          "duration": 0.1744185000000016
        },
        {
          "name": "B4",
          "midi": 71,
          "time": 76.4301867000002,
          "velocity": 0.7874015748031497,
          "duration": 0.1744185000000016
        },
        {
          "name": "E5",
          "midi": 76,
          "time": 76.60460520000021,
          "velocity": 0.7874015748031497,
          "duration": 0.16933129375000533
        },
        {
          "name": "G5",
          "midi": 79,
          "time": 76.77902370000021,
          "velocity": 0.7874015748031497,
          "duration": 0.1773254750000035
        },
        {
          "name": "B5",
          "midi": 83,
          "time": 76.95344220000021,
          "velocity": 0.7874015748031497,
          "duration": 0.6976740000000063
        },
        {
          "name": "E5",
          "midi": 76,
          "time": 77.65111620000022,
          "velocity": 0.7874015748031497,
          "duration": 0.5232555000000048
        },
        {
          "name": "B4",
          "midi": 71,
          "time": 78.17437170000022,
          "velocity": 0.7874015748031497,
          "duration": 0.5232554999999905
        },
        {
          "name": "D5",
          "midi": 74,
          "time": 78.69108650625022,
          "velocity": 0.7874015748031497,
          "duration": 0.3488370000000032
        },
        {
          "name": "C5",
          "midi": 72,
          "time": 79.04646420000022,
          "velocity": 0.7874015748031497,
          "duration": 1.0465109999999953
        },
        {
          "name": "B4",
          "midi": 71,
          "time": 80.44181220000021,
          "velocity": 0.7874015748031497,
          "duration": 0.5232555000000048
        },
        {
          "name": "G4",
          "midi": 67,
          "time": 80.96506770000022,
          "velocity": 0.7874015748031497,
          "duration": 0.5232555000000048
        },
        {
          "name": "B4",
          "midi": 71,
          "time": 81.48832320000022,
          "velocity": 0.7874015748031497,
          "duration": 0.3488370000000032
        },
        {
          "name": "A4",
          "midi": 69,
          "time": 81.83716020000023,
          "velocity": 0.7874015748031497,
          "duration": 1.3953479999999985
        },
        {
          "name": "E5",
          "midi": 76,
          "time": 83.23250820000023,
          "velocity": 0.7874015748031497,
          "duration": 0.5232555000000048
        },
        {
          "name": "B4",
          "midi": 71,
          "time": 83.75576370000023,
          "velocity": 0.7874015748031497,
          "duration": 0.5232555000000048
        },
        {
          "name": "D5",
          "midi": 74,
          "time": 84.27901920000023,
          "velocity": 0.7874015748031497,
          "duration": 0.3488370000000032
        },
        {
          "name": "C5",
          "midi": 72,
          "time": 84.62785620000024,
          "velocity": 0.7874015748031497,
          "duration": 1.0465109999999953
        },
        {
          "name": "G5",
          "midi": 79,
          "time": 86.02320420000024,
          "velocity": 0.7874015748031497,
          "duration": 0.5232555000000048
        },
        {
          "name": "F#5",
          "midi": 78,
          "time": 86.54645970000024,
          "velocity": 0.7874015748031497,
          "duration": 0.5232555000000048
        },
        {
          "name": "D5",
          "midi": 74,
          "time": 87.06971520000025,
          "velocity": 0.7874015748031497,
          "duration": 0.3488370000000032
        },
        {
          "name": "E5",
          "midi": 76,
          "time": 87.41855220000025,
          "velocity": 0.7874015748031497,
          "duration": 1.3953479999999985
        },
        {
          "name": "E3",
          "midi": 52,
          "time": 88.81390020000025,
          "velocity": 0.7874015748031497,
          "duration": 0.0872092500000008
        },
        {
          "name": "E3",
          "midi": 52,
          "time": 89.16273720000025,
          "velocity": 0.7874015748031497,
          "duration": 0.1744185000000016
        },
        {
          "name": "B3",
          "midi": 59,
          "time": 89.16273720000025,
          "velocity": 0.7874015748031497,
          "duration": 0.1744185000000016
        },
        {
          "name": "B3",
          "midi": 59,
          "time": 89.51157420000025,
          "velocity": 0.7874015748031497,
          "duration": 0.3488370000000032
        },
        {
          "name": "E3",
          "midi": 52,
          "time": 89.51593466250026,
          "velocity": 0.7874015748031497,
          "duration": 0.3488370000000032
        },
        {
          "name": "B2",
          "midi": 47,
          "time": 90.03482970000026,
          "velocity": 0.7874015748031497,
          "duration": 0.5232555000000048
        },
        {
          "name": "F#3",
          "midi": 54,
          "time": 90.03482970000026,
          "velocity": 0.7874015748031497,
          "duration": 0.5232555000000048
        },
        {
          "name": "B2",
          "midi": 47,
          "time": 90.55808520000026,
          "velocity": 0.7874015748031497,
          "duration": 1.0465109999999953
        },
        {
          "name": "F#3",
          "midi": 54,
          "time": 90.55808520000026,
          "velocity": 0.7874015748031497,
          "duration": 1.0465109999999953
        },
        {
          "name": "C3",
          "midi": 48,
          "time": 91.60459620000026,
          "velocity": 0.7874015748031497,
          "duration": 0.0872092500000008
        },
        {
          "name": "C3",
          "midi": 48,
          "time": 91.95343320000026,
          "velocity": 0.7874015748031497,
          "duration": 0.1744185000000016
        },
        {
          "name": "G3",
          "midi": 55,
          "time": 91.95343320000026,
          "velocity": 0.7874015748031497,
          "duration": 0.1744185000000016
        },
        {
          "name": "G3",
          "midi": 55,
          "time": 92.30227020000027,
          "velocity": 0.7874015748031497,
          "duration": 0.3488370000000032
        },
        {
          "name": "C3",
          "midi": 48,
          "time": 92.30663066250027,
          "velocity": 0.7874015748031497,
          "duration": 0.3488370000000032
        },
        {
          "name": "F3",
          "midi": 53,
          "time": 92.82552570000027,
          "velocity": 0.7874015748031497,
          "duration": 0.5232555000000048
        },
        {
          "name": "C4",
          "midi": 60,
          "time": 92.82552570000027,
          "velocity": 0.7874015748031497,
          "duration": 0.5232555000000048
        },
        {
          "name": "F3",
          "midi": 53,
          "time": 93.34878120000027,
          "velocity": 0.7874015748031497,
          "duration": 1.0465109999999953
        },
        {
          "name": "C4",
          "midi": 60,
          "time": 93.34878120000027,
          "velocity": 0.7874015748031497,
          "duration": 1.0465109999999953
        },
        {
          "name": "E3",
          "midi": 52,
          "time": 94.39529220000027,
          "velocity": 0.7874015748031497,
          "duration": 0.1744185000000016
        },
        {
          "name": "B3",
          "midi": 59,
          "time": 94.39529220000027,
          "velocity": 0.7874015748031497,
          "duration": 0.1744185000000016
        },
        {
          "name": "E3",
          "midi": 52,
          "time": 95.09296620000028,
          "velocity": 0.7874015748031497,
          "duration": 0.0872092500000008
        },
        {
          "name": "B2",
          "midi": 47,
          "time": 95.79064020000028,
          "velocity": 0.7874015748031497,
          "duration": 0.1744185000000016
        },
        {
          "name": "F#3",
          "midi": 54,
          "time": 95.79064020000028,
          "velocity": 0.7874015748031497,
          "duration": 0.1744185000000016
        },
        {
          "name": "B2",
          "midi": 47,
          "time": 96.48831420000029,
          "velocity": 0.7874015748031497,
          "duration": 0.0872092500000008
        },
        {
          "name": "C3",
          "midi": 48,
          "time": 97.1859882000003,
          "velocity": 0.7874015748031497,
          "duration": 0.1744185000000016
        },
        {
          "name": "G3",
          "midi": 55,
          "time": 97.1859882000003,
          "velocity": 0.7874015748031497,
          "duration": 0.1744185000000016
        },
        {
          "name": "C3",
          "midi": 48,
          "time": 97.8836622000003,
          "velocity": 0.7874015748031497,
          "duration": 0.0872092500000008
        },
        {
          "name": "A2",
          "midi": 45,
          "time": 98.58133620000031,
          "velocity": 0.7874015748031497,
          "duration": 0.1744185000000016
        },
        {
          "name": "E3",
          "midi": 52,
          "time": 98.58133620000031,
          "velocity": 0.7874015748031497,
          "duration": 0.1744185000000016
        },
        {
          "name": "A2",
          "midi": 45,
          "time": 99.27901020000031,
          "velocity": 0.7874015748031497,
          "duration": 0.0872092500000008
        },
        {
          "name": "E3",
          "midi": 52,
          "time": 99.97668420000032,
          "velocity": 0.7874015748031497,
          "duration": 0.0872092500000008
        },
        {
          "name": "E3",
          "midi": 52,
          "time": 100.32552120000032,
          "velocity": 0.7874015748031497,
          "duration": 0.1744185000000016
        },
        {
          "name": "B3",
          "midi": 59,
          "time": 100.32552120000032,
          "velocity": 0.7874015748031497,
          "duration": 0.1744185000000016
        },
        {
          "name": "B3",
          "midi": 59,
          "time": 100.67435820000033,
          "velocity": 0.7874015748031497,
          "duration": 0.3488370000000032
        },
        {
          "name": "E3",
          "midi": 52,
          "time": 100.67871866250033,
          "velocity": 0.7874015748031497,
          "duration": 0.3488370000000032
        },
        {
          "name": "B2",
          "midi": 47,
          "time": 101.19761370000033,
          "velocity": 0.7874015748031497,
          "duration": 0.5232555000000048
        },
        {
          "name": "F#3",
          "midi": 54,
          "time": 101.19761370000033,
          "velocity": 0.7874015748031497,
          "duration": 0.5232555000000048
        },
        {
          "name": "B2",
          "midi": 47,
          "time": 101.72086920000034,
          "velocity": 0.7874015748031497,
          "duration": 1.0465109999999953
        },
        {
          "name": "F#3",
          "midi": 54,
          "time": 101.72086920000034,
          "velocity": 0.7874015748031497,
          "duration": 1.0465109999999953
        },
        {
          "name": "C3",
          "midi": 48,
          "time": 102.76738020000033,
          "velocity": 0.7874015748031497,
          "duration": 0.0872092500000008
        },
        {
          "name": "C3",
          "midi": 48,
          "time": 103.11621720000034,
          "velocity": 0.7874015748031497,
          "duration": 0.1744185000000016
        },
        {
          "name": "G3",
          "midi": 55,
          "time": 103.11621720000034,
          "velocity": 0.7874015748031497,
          "duration": 0.1744185000000016
        },
        {
          "name": "G3",
          "midi": 55,
          "time": 103.46505420000034,
          "velocity": 0.7874015748031497,
          "duration": 0.3488370000000032
        },
        {
          "name": "C3",
          "midi": 48,
          "time": 103.46941466250034,
          "velocity": 0.7874015748031497,
          "duration": 0.3488370000000032
        },
        {
          "name": "F3",
          "midi": 53,
          "time": 103.98830970000034,
          "velocity": 0.7874015748031497,
          "duration": 0.5232555000000048
        },
        {
          "name": "C4",
          "midi": 60,
          "time": 103.98830970000034,
          "velocity": 0.7874015748031497,
          "duration": 0.5232555000000048
        },
        {
          "name": "F3",
          "midi": 53,
          "time": 104.51156520000035,
          "velocity": 0.7874015748031497,
          "duration": 1.0465109999999953
        },
        {
          "name": "C4",
          "midi": 60,
          "time": 104.51156520000035,
          "velocity": 0.7874015748031497,
          "duration": 1.0465109999999953
        },
        {
          "name": "E3",
          "midi": 52,
          "time": 105.55807620000034,
          "velocity": 0.7874015748031497,
          "duration": 0.1744185000000016
        },
        {
          "name": "B3",
          "midi": 59,
          "time": 105.55807620000034,
          "velocity": 0.7874015748031497,
          "duration": 0.1744185000000016
        },
        {
          "name": "E3",
          "midi": 52,
          "time": 106.25575020000035,
          "velocity": 0.7874015748031497,
          "duration": 0.0872092500000008
        },
        {
          "name": "B2",
          "midi": 47,
          "time": 106.95342420000036,
          "velocity": 0.7874015748031497,
          "duration": 0.1744185000000016
        },
        {
          "name": "F#3",
          "midi": 54,
          "time": 106.95342420000036,
          "velocity": 0.7874015748031497,
          "duration": 0.1744185000000016
        },
        {
          "name": "B2",
          "midi": 47,
          "time": 107.65109820000036,
          "velocity": 0.7874015748031497,
          "duration": 0.0872092500000008
        },
        {
          "name": "C3",
          "midi": 48,
          "time": 108.34877220000037,
          "velocity": 0.7874015748031497,
          "duration": 0.1744185000000016
        },
        {
          "name": "G3",
          "midi": 55,
          "time": 108.34877220000037,
          "velocity": 0.7874015748031497,
          "duration": 0.1744185000000016
        },
        {
          "name": "C3",
          "midi": 48,
          "time": 109.04644620000037,
          "velocity": 0.7874015748031497,
          "duration": 0.0872092500000008
        },
        {
          "name": "A2",
          "midi": 45,
          "time": 109.74412020000038,
          "velocity": 0.7874015748031497,
          "duration": 0.1744185000000016
        },
        {
          "name": "E3",
          "midi": 52,
          "time": 109.74412020000038,
          "velocity": 0.7874015748031497,
          "duration": 0.1744185000000016
        },
        {
          "name": "D3",
          "midi": 50,
          "time": 110.44179420000039,
          "velocity": 0.7874015748031497,
          "duration": 0.6976740000000063
        },
        {
          "name": "A3",
          "midi": 57,
          "time": 110.44179420000039,
          "velocity": 0.7874015748031497,
          "duration": 0.6976740000000063
        },
        {
          "name": "D3",
          "midi": 50,
          "time": 111.1394682000004,
          "velocity": 0.7874015748031497,
          "duration": 0.1744185000000016
        },
        {
          "name": "D3",
          "midi": 50,
          "time": 111.4883052000004,
          "velocity": 0.7874015748031497,
          "duration": 0.1744185000000016
        },
        {
          "name": "E4",
          "midi": 64,
          "time": 111.8371422000004,
          "velocity": 0.7874015748031497,
          "duration": 0.1744185000000016
        },
        {
          "name": "E4",
          "midi": 64,
          "time": 113.0580717000004,
          "velocity": 0.7874015748031497,
          "duration": 0.1744185000000016
        },
        {
          "name": "A4",
          "midi": 69,
          "time": 113.9301642000004,
          "velocity": 0.7874015748031497,
          "duration": 0.1744185000000016
        },
        {
          "name": "G4",
          "midi": 67,
          "time": 114.1045827000004,
          "velocity": 0.7874015748031497,
          "duration": 0.1744185000000016
        },
        {
          "name": "F#4",
          "midi": 66,
          "time": 114.27900120000041,
          "velocity": 0.7874015748031497,
          "duration": 0.1744185000000016
        },
        {
          "name": "D4",
          "midi": 62,
          "time": 114.45341970000041,
          "velocity": 0.7874015748031497,
          "duration": 0.1744185000000016
        },
        {
          "name": "E4",
          "midi": 64,
          "time": 114.62783820000041,
          "velocity": 0.7874015748031497,
          "duration": 0.1744185000000016
        },
        {
          "name": "E4",
          "midi": 64,
          "time": 115.84876770000041,
          "velocity": 0.7874015748031497,
          "duration": 0.1744185000000016
        },
        {
          "name": "B3",
          "midi": 59,
          "time": 116.72086020000042,
          "velocity": 0.7874015748031497,
          "duration": 0.1744185000000016
        },
        {
          "name": "C4",
          "midi": 60,
          "time": 116.89527870000042,
          "velocity": 0.7874015748031497,
          "duration": 0.1744185000000016
        },
        {
          "name": "D4",
          "midi": 62,
          "time": 117.06969720000042,
          "velocity": 0.7874015748031497,
          "duration": 0.1744185000000016
        },
        {
          "name": "F#4",
          "midi": 66,
          "time": 117.24411570000042,
          "velocity": 0.7874015748031497,
          "duration": 0.1744185000000016
        },
        {
          "name": "E4",
          "midi": 64,
          "time": 117.41853420000042,
          "velocity": 0.7874015748031497,
          "duration": 0.1744185000000016
        },
        {
          "name": "E4",
          "midi": 64,
          "time": 118.63946370000042,
          "velocity": 0.7874015748031497,
          "duration": 0.1744185000000016
        },
        {
          "name": "A4",
          "midi": 69,
          "time": 119.51155620000043,
          "velocity": 0.7874015748031497,
          "duration": 0.1744185000000016
        },
        {
          "name": "G4",
          "midi": 67,
          "time": 119.68597470000043,
          "velocity": 0.7874015748031497,
          "duration": 0.1744185000000016
        },
        {
          "name": "F#4",
          "midi": 66,
          "time": 119.86039320000043,
          "velocity": 0.7874015748031497,
          "duration": 0.1744185000000016
        },
        {
          "name": "D4",
          "midi": 62,
          "time": 120.03481170000043,
          "velocity": 0.7874015748031497,
          "duration": 0.1744185000000016
        },
        {
          "name": "E4",
          "midi": 64,
          "time": 120.20923020000043,
          "velocity": 0.7874015748031497,
          "duration": 0.1744185000000016
        },
        {
          "name": "E4",
          "midi": 64,
          "time": 121.43015970000043,
          "velocity": 0.7874015748031497,
          "duration": 0.1744185000000016
        },
        {
          "name": "D5",
          "midi": 74,
          "time": 122.30225220000044,
          "velocity": 0.7874015748031497,
          "duration": 0.1744185000000016
        },
        {
          "name": "C5",
          "midi": 72,
          "time": 122.47667070000044,
          "velocity": 0.7874015748031497,
          "duration": 0.1744185000000016
        },
        {
          "name": "B4",
          "midi": 71,
          "time": 122.65108920000044,
          "velocity": 0.7874015748031497,
          "duration": 0.1744185000000016
        },
        {
          "name": "A4",
          "midi": 69,
          "time": 122.82550770000044,
          "velocity": 0.7874015748031497,
          "duration": 0.1744185000000016
        },
        {
          "name": "C3",
          "midi": 48,
          "time": 122.99992620000044,
          "velocity": 0.7874015748031497,
          "duration": 0.3488370000000032
        },
        {
          "name": "G3",
          "midi": 55,
          "time": 122.99992620000044,
          "velocity": 0.7874015748031497,
          "duration": 0.3488370000000032
        },
        {
          "name": "C3",
          "midi": 48,
          "time": 123.34876320000045,
          "velocity": 0.7874015748031497,
          "duration": 0.2616277500000024
        },
        {
          "name": "G3",
          "midi": 55,
          "time": 123.34876320000045,
          "velocity": 0.7874015748031497,
          "duration": 0.2616277500000024
        },
        {
          "name": "D3",
          "midi": 50,
          "time": 124.22085570000046,
          "velocity": 0.7874015748031497,
          "duration": 0.5218020125000038
        },
        {
          "name": "A3",
          "midi": 57,
          "time": 124.22085570000046,
          "velocity": 0.7874015748031497,
          "duration": 0.5218020125000038
        },
        {
          "name": "D3",
          "midi": 50,
          "time": 124.74411120000046,
          "velocity": 0.7874015748031497,
          "duration": 0.3488370000000032
        },
        {
          "name": "A3",
          "midi": 57,
          "time": 124.74411120000046,
          "velocity": 0.7874015748031497,
          "duration": 0.3488370000000032
        },
        {
          "name": "D3",
          "midi": 50,
          "time": 125.61475021250047,
          "velocity": 0.7874015748031497,
          "duration": 0.34302304999999933
        },
        {
          "name": "A3",
          "midi": 57,
          "time": 125.61620370000047,
          "velocity": 0.7874015748031497,
          "duration": 0.3488370000000032
        },
        {
          "name": "E3",
          "midi": 52,
          "time": 126.13945920000047,
          "velocity": 0.7874015748031497,
          "duration": 0.1744185000000016
        },
        {
          "name": "B3",
          "midi": 59,
          "time": 126.13945920000047,
          "velocity": 0.7874015748031497,
          "duration": 0.1744185000000016
        },
        {
          "name": "E4",
          "midi": 64,
          "time": 126.31387770000048,
          "velocity": 0.7874015748031497,
          "duration": 0.1744185000000016
        },
        {
          "name": "G4",
          "midi": 67,
          "time": 126.48829620000048,
          "velocity": 0.7874015748031497,
          "duration": 0.1744185000000016
        },
        {
          "name": "F#4",
          "midi": 66,
          "time": 126.66271470000048,
          "velocity": 0.7874015748031497,
          "duration": 0.1744185000000016
        },
        {
          "name": "E4",
          "midi": 64,
          "time": 126.83713320000048,
          "velocity": 0.7874015748031497,
          "duration": 0.18386616875000072
        },
        {
          "name": "D4",
          "midi": 62,
          "time": 127.01155170000048,
          "velocity": 0.7874015748031497,
          "duration": 0.3488370000000032
        },
        {
          "name": "E4",
          "midi": 64,
          "time": 127.53480720000049,
          "velocity": 0.7874015748031497,
          "duration": 0.3488370000000032
        },
        {
          "name": "E3",
          "midi": 52,
          "time": 127.88364420000049,
          "velocity": 0.7874015748031497,
          "duration": 0.34883699999998896
        },
        {
          "name": "B3",
          "midi": 59,
          "time": 127.88364420000049,
          "velocity": 0.7874015748031497,
          "duration": 0.34883699999998896
        },
        {
          "name": "D3",
          "midi": 50,
          "time": 128.23248120000048,
          "velocity": 0.7874015748031497,
          "duration": 0.3488370000000032
        },
        {
          "name": "A3",
          "midi": 57,
          "time": 128.23248120000048,
          "velocity": 0.7874015748031497,
          "duration": 0.3488370000000032
        },
        {
          "name": "C3",
          "midi": 48,
          "time": 128.58131820000048,
          "velocity": 0.7874015748031497,
          "duration": 0.3488370000000032
        },
        {
          "name": "G3",
          "midi": 55,
          "time": 128.58131820000048,
          "velocity": 0.7874015748031497,
          "duration": 0.3488370000000032
        },
        {
          "name": "C3",
          "midi": 48,
          "time": 128.93015520000048,
          "velocity": 0.7874015748031497,
          "duration": 0.2616277500000024
        },
        {
          "name": "G3",
          "midi": 55,
          "time": 128.93015520000048,
          "velocity": 0.7874015748031497,
          "duration": 0.2616277500000024
        },
        {
          "name": "D3",
          "midi": 50,
          "time": 129.8022477000005,
          "velocity": 0.7874015748031497,
          "duration": 0.5218020124999896
        },
        {
          "name": "A3",
          "midi": 57,
          "time": 129.8022477000005,
          "velocity": 0.7874015748031497,
          "duration": 0.5218020124999896
        },
        {
          "name": "D3",
          "midi": 50,
          "time": 130.32550320000047,
          "velocity": 0.7874015748031497,
          "duration": 0.3488370000000032
        },
        {
          "name": "A3",
          "midi": 57,
          "time": 130.32550320000047,
          "velocity": 0.7874015748031497,
          "duration": 0.3488370000000032
        },
        {
          "name": "D3",
          "midi": 50,
          "time": 131.19614221250046,
          "velocity": 0.7874015748031497,
          "duration": 0.34302304999999933
        },
        {
          "name": "A3",
          "midi": 57,
          "time": 131.19759570000045,
          "velocity": 0.7874015748031497,
          "duration": 0.3488370000000032
        },
        {
          "name": "E3",
          "midi": 52,
          "time": 131.72085120000045,
          "velocity": 0.7874015748031497,
          "duration": 0.1744185000000016
        },
        {
          "name": "B3",
          "midi": 59,
          "time": 131.72085120000045,
          "velocity": 0.7874015748031497,
          "duration": 0.1744185000000016
        },
        {
          "name": "B3",
          "midi": 59,
          "time": 132.06968820000046,
          "velocity": 0.7874015748031497,
          "duration": 0.1744185000000016
        },
        {
          "name": "C4",
          "midi": 60,
          "time": 132.24410670000046,
          "velocity": 0.7874015748031497,
          "duration": 0.1744185000000016
        },
        {
          "name": "D4",
          "midi": 62,
          "time": 132.41852520000046,
          "velocity": 0.7874015748031497,
          "duration": 0.1744185000000016
        },
        {
          "name": "E4",
          "midi": 64,
          "time": 132.59294370000046,
          "velocity": 0.7874015748031497,
          "duration": 0.1744185000000016
        },
        {
          "name": "F#4",
          "midi": 66,
          "time": 132.76736220000046,
          "velocity": 0.7874015748031497,
          "duration": 0.1744185000000016
        },
        {
          "name": "G4",
          "midi": 67,
          "time": 132.94178070000046,
          "velocity": 0.7874015748031497,
          "duration": 0.5232555000000048
        },
        {
          "name": "E3",
          "midi": 52,
          "time": 133.46503620000047,
          "velocity": 0.7874015748031497,
          "duration": 0.3488370000000032
        },
        {
          "name": "B3",
          "midi": 59,
          "time": 133.46503620000047,
          "velocity": 0.7874015748031497,
          "duration": 0.3488370000000032
        },
        {
          "name": "D3",
          "midi": 50,
          "time": 133.81387320000047,
          "velocity": 0.7874015748031497,
          "duration": 0.3488370000000032
        },
        {
          "name": "A3",
          "midi": 57,
          "time": 133.81387320000047,
          "velocity": 0.7874015748031497,
          "duration": 0.3488370000000032
        },
        {
          "name": "C3",
          "midi": 48,
          "time": 134.16271020000048,
          "velocity": 0.7874015748031497,
          "duration": 0.3488370000000032
        },
        {
          "name": "G3",
          "midi": 55,
          "time": 134.16271020000048,
          "velocity": 0.7874015748031497,
          "duration": 0.3488370000000032
        },
        {
          "name": "C3",
          "midi": 48,
          "time": 134.51154720000048,
          "velocity": 0.7874015748031497,
          "duration": 0.2616277500000024
        },
        {
          "name": "G3",
          "midi": 55,
          "time": 134.51154720000048,
          "velocity": 0.7874015748031497,
          "duration": 0.2616277500000024
        },
        {
          "name": "D3",
          "midi": 50,
          "time": 135.3836397000005,
          "velocity": 0.7874015748031497,
          "duration": 0.5218020124999896
        },
        {
          "name": "A3",
          "midi": 57,
          "time": 135.3836397000005,
          "velocity": 0.7874015748031497,
          "duration": 0.5218020124999896
        },
        {
          "name": "D3",
          "midi": 50,
          "time": 135.90689520000046,
          "velocity": 0.7874015748031497,
          "duration": 0.3488370000000032
        },
        {
          "name": "A3",
          "midi": 57,
          "time": 135.90689520000046,
          "velocity": 0.7874015748031497,
          "duration": 0.3488370000000032
        },
        {
          "name": "D3",
          "midi": 50,
          "time": 136.77753421250046,
          "velocity": 0.7874015748031497,
          "duration": 0.34302304999999933
        },
        {
          "name": "A3",
          "midi": 57,
          "time": 136.77898770000044,
          "velocity": 0.7874015748031497,
          "duration": 0.3488370000000032
        },
        {
          "name": "E3",
          "midi": 52,
          "time": 137.30224320000045,
          "velocity": 0.7874015748031497,
          "duration": 0.1744185000000016
        },
        {
          "name": "B3",
          "midi": 59,
          "time": 137.30224320000045,
          "velocity": 0.7874015748031497,
          "duration": 0.1744185000000016
        },
        {
          "name": "G4",
          "midi": 67,
          "time": 137.65108020000045,
          "velocity": 0.7874015748031497,
          "duration": 0.1744185000000016
        },
        {
          "name": "F#4",
          "midi": 66,
          "time": 137.82549870000045,
          "velocity": 0.7874015748031497,
          "duration": 0.1744185000000016
        },
        {
          "name": "E4",
          "midi": 64,
          "time": 137.99991720000045,
          "velocity": 0.7874015748031497,
          "duration": 0.18386616875000072
        },
        {
          "name": "D4",
          "midi": 62,
          "time": 138.17433570000046,
          "velocity": 0.7874015748031497,
          "duration": 0.3488370000000032
        },
        {
          "name": "E4",
          "midi": 64,
          "time": 138.69759120000046,
          "velocity": 0.7874015748031497,
          "duration": 0.3488370000000032
        },
        {
          "name": "E3",
          "midi": 52,
          "time": 139.04642820000046,
          "velocity": 0.7874015748031497,
          "duration": 0.3488370000000032
        },
        {
          "name": "B3",
          "midi": 59,
          "time": 139.04642820000046,
          "velocity": 0.7874015748031497,
          "duration": 0.3488370000000032
        },
        {
          "name": "D3",
          "midi": 50,
          "time": 139.39526520000047,
          "velocity": 0.7874015748031497,
          "duration": 0.3488370000000032
        },
        {
          "name": "A3",
          "midi": 57,
          "time": 139.39526520000047,
          "velocity": 0.7874015748031497,
          "duration": 0.3488370000000032
        },
        {
          "name": "C3",
          "midi": 48,
          "time": 139.74410220000047,
          "velocity": 0.7874015748031497,
          "duration": 0.3488370000000032
        },
        {
          "name": "G3",
          "midi": 55,
          "time": 139.74410220000047,
          "velocity": 0.7874015748031497,
          "duration": 0.3488370000000032
        },
        {
          "name": "C3",
          "midi": 48,
          "time": 140.09293920000047,
          "velocity": 0.7874015748031497,
          "duration": 0.2616277500000024
        },
        {
          "name": "G3",
          "midi": 55,
          "time": 140.09293920000047,
          "velocity": 0.7874015748031497,
          "duration": 0.2616277500000024
        },
        {
          "name": "D3",
          "midi": 50,
          "time": 140.96503170000048,
          "velocity": 0.7874015748031497,
          "duration": 0.5218020124999896
        },
        {
          "name": "A3",
          "midi": 57,
          "time": 140.96503170000048,
          "velocity": 0.7874015748031497,
          "duration": 0.5218020124999896
        },
        {
          "name": "D3",
          "midi": 50,
          "time": 141.48828720000046,
          "velocity": 0.7874015748031497,
          "duration": 0.3488370000000032
        },
        {
          "name": "A3",
          "midi": 57,
          "time": 141.48828720000046,
          "velocity": 0.7874015748031497,
          "duration": 0.3488370000000032
        },
        {
          "name": "D3",
          "midi": 50,
          "time": 142.35892621250045,
          "velocity": 0.7874015748031497,
          "duration": 0.34302304999999933
        },
        {
          "name": "A3",
          "midi": 57,
          "time": 142.36037970000044,
          "velocity": 0.7874015748031497,
          "duration": 0.3488370000000032
        },
        {
          "name": "E3",
          "midi": 52,
          "time": 142.88363520000044,
          "velocity": 0.7874015748031497,
          "duration": 0.2616277500000024
        },
        {
          "name": "B3",
          "midi": 59,
          "time": 142.88363520000044,
          "velocity": 0.7874015748031497,
          "duration": 0.2616277500000024
        },
        {
          "name": "E3",
          "midi": 52,
          "time": 143.23247220000044,
          "velocity": 0.7874015748031497,
          "duration": 0.1744185000000016
        },
        {
          "name": "G3",
          "midi": 55,
          "time": 143.40689070000045,
          "velocity": 0.7874015748031497,
          "duration": 0.1744185000000016
        },
        {
          "name": "B3",
          "midi": 59,
          "time": 143.58130920000045,
          "velocity": 0.7874015748031497,
          "duration": 0.1744185000000016
        },
        {
          "name": "E4",
          "midi": 64,
          "time": 143.75572770000045,
          "velocity": 0.7874015748031497,
          "duration": 0.1744185000000016
        },
        {
          "name": "G4",
          "midi": 67,
          "time": 143.93014620000045,
          "velocity": 0.7874015748031497,
          "duration": 0.1744185000000016
        },
        {
          "name": "B4",
          "midi": 71,
          "time": 144.10456470000045,
          "velocity": 0.7874015748031497,
          "duration": 0.1744185000000016
        },
        {
          "name": "E5",
          "midi": 76,
          "time": 144.27898320000045,
          "velocity": 0.7874015748031497,
          "duration": 0.16933129374999112
        },
        {
          "name": "G5",
          "midi": 79,
          "time": 144.45340170000046,
          "velocity": 0.7874015748031497,
          "duration": 0.1773254750000035
        },
        {
          "name": "B5",
          "midi": 83,
          "time": 144.62782020000046,
          "velocity": 0.7874015748031497,
          "duration": 0.6976740000000063
        },
        {
          "name": "E5",
          "midi": 76,
          "time": 145.32549420000046,
          "velocity": 0.7874015748031497,
          "duration": 0.5232555000000048
        },
        {
          "name": "B4",
          "midi": 71,
          "time": 145.84874970000047,
          "velocity": 0.7874015748031497,
          "duration": 0.5232555000000048
        },
        {
          "name": "D5",
          "midi": 74,
          "time": 146.36546450625048,
          "velocity": 0.7874015748031497,
          "duration": 0.3488370000000032
        },
        {
          "name": "C5",
          "midi": 72,
          "time": 146.72084220000048,
          "velocity": 0.7874015748031497,
          "duration": 1.0465110000000095
        },
        {
          "name": "B4",
          "midi": 71,
          "time": 148.1161902000005,
          "velocity": 0.7874015748031497,
          "duration": 0.5232555000000048
        },
        {
          "name": "G4",
          "midi": 67,
          "time": 148.6394457000005,
          "velocity": 0.7874015748031497,
          "duration": 0.5232555000000048
        },
        {
          "name": "B4",
          "midi": 71,
          "time": 149.1627012000005,
          "velocity": 0.7874015748031497,
          "duration": 0.3488370000000032
        },
        {
          "name": "A4",
          "midi": 69,
          "time": 149.5115382000005,
          "velocity": 0.7874015748031497,
          "duration": 1.3953480000000127
        },
        {
          "name": "E5",
          "midi": 76,
          "time": 150.9068862000005,
          "velocity": 0.7874015748031497,
          "duration": 0.5232555000000048
        },
        {
          "name": "B4",
          "midi": 71,
          "time": 151.43014170000052,
          "velocity": 0.7874015748031497,
          "duration": 0.5232555000000048
        },
        {
          "name": "D5",
          "midi": 74,
          "time": 151.95339720000052,
          "velocity": 0.7874015748031497,
          "duration": 0.3488370000000032
        },
        {
          "name": "C5",
          "midi": 72,
          "time": 152.30223420000053,
          "velocity": 0.7874015748031497,
          "duration": 1.0465110000000095
        },
        {
          "name": "G5",
          "midi": 79,
          "time": 153.69758220000054,
          "velocity": 0.7874015748031497,
          "duration": 0.5232555000000048
        },
        {
          "name": "F#5",
          "midi": 78,
          "time": 154.22083770000054,
          "velocity": 0.7874015748031497,
          "duration": 0.5232555000000048
        },
        {
          "name": "D5",
          "midi": 74,
          "time": 154.74409320000055,
          "velocity": 0.7874015748031497,
          "duration": 0.3488370000000032
        },
        {
          "name": "E5",
          "midi": 76,
          "time": 155.09293020000055,
          "velocity": 0.7874015748031497,
          "duration": 1.0465110000000095
        },
        {
          "name": "B4",
          "midi": 71,
          "time": 156.13944120000056,
          "velocity": 0.7874015748031497,
          "duration": 0.3488370000000032
        },
        {
          "name": "E5",
          "midi": 76,
          "time": 156.48827820000056,
          "velocity": 0.7874015748031497,
          "duration": 1.0465110000000095
        },
        {
          "name": "C5",
          "midi": 72,
          "time": 157.53478920000057,
          "velocity": 0.7874015748031497,
          "duration": 0.3488370000000032
        },
        {
          "name": "E5",
          "midi": 76,
          "time": 157.88362620000058,
          "velocity": 0.7874015748031497,
          "duration": 1.0465110000000095
        },
        {
          "name": "C#5",
          "midi": 73,
          "time": 158.9301372000006,
          "velocity": 0.7874015748031497,
          "duration": 0.3488370000000032
        },
        {
          "name": "E5",
          "midi": 76,
          "time": 159.2789742000006,
          "velocity": 0.7874015748031497,
          "duration": 1.0465110000000095
        },
        {
          "name": "F#5",
          "midi": 78,
          "time": 160.3254852000006,
          "velocity": 0.7874015748031497,
          "duration": 0.3488370000000032
        },
        {
          "name": "G5",
          "midi": 79,
          "time": 160.6743222000006,
          "velocity": 0.7874015748031497,
          "duration": 0.5232555000000048
        },
        {
          "name": "F#5",
          "midi": 78,
          "time": 161.1975777000006,
          "velocity": 0.7874015748031497,
          "duration": 0.5232555000000048
        },
        {
          "name": "B4",
          "midi": 71,
          "time": 161.7208332000006,
          "velocity": 0.7874015748031497,
          "duration": 0.3488370000000032
        },
        {
          "name": "E5",
          "midi": 76,
          "time": 162.06967020000062,
          "velocity": 0.7874015748031497,
          "duration": 1.0465110000000095
        },
        {
          "name": "C5",
          "midi": 72,
          "time": 163.11618120000063,
          "velocity": 0.7874015748031497,
          "duration": 0.3488370000000032
        },
        {
          "name": "E5",
          "midi": 76,
          "time": 163.46501820000063,
          "velocity": 0.7874015748031497,
          "duration": 1.0465110000000095
        },
        {
          "name": "C#5",
          "midi": 73,
          "time": 164.51152920000064,
          "velocity": 0.7874015748031497,
          "duration": 0.3488370000000032
        },
        {
          "name": "E5",
          "midi": 76,
          "time": 164.86036620000064,
          "velocity": 0.7874015748031497,
          "duration": 1.0465110000000095
        },
        {
          "name": "F#5",
          "midi": 78,
          "time": 165.90687720000065,
          "velocity": 0.7874015748031497,
          "duration": 0.3488370000000032
        },
        {
          "name": "G5",
          "midi": 79,
          "time": 166.25571420000065,
          "velocity": 0.7874015748031497,
          "duration": 0.5232555000000048
        },
        {
          "name": "F#5",
          "midi": 78,
          "time": 166.77896970000066,
          "velocity": 0.7874015748031497,
          "duration": 0.5232555000000048
        },
        {
          "name": "D5",
          "midi": 74,
          "time": 167.30949263750065,
          "velocity": 0.7874015748031497,
          "duration": 0.3488370000000032
        },
        {
          "name": "G5",
          "midi": 79,
          "time": 167.65832963750066,
          "velocity": 0.7874015748031497,
          "duration": 1.046510999999981
        },
        {
          "name": "E5",
          "midi": 76,
          "time": 168.69757320000065,
          "velocity": 0.7874015748031497,
          "duration": 0.3488370000000032
        },
        {
          "name": "G5",
          "midi": 79,
          "time": 169.05367763750064,
          "velocity": 0.7874015748031497,
          "duration": 1.0465110000000095
        },
        {
          "name": "E5",
          "midi": 76,
          "time": 170.10018863750065,
          "velocity": 0.7874015748031497,
          "duration": 0.3488370000000032
        },
        {
          "name": "G5",
          "midi": 79,
          "time": 170.44902563750065,
          "velocity": 0.7874015748031497,
          "duration": 1.0465110000000095
        },
        {
          "name": "A5",
          "midi": 81,
          "time": 171.49553663750066,
          "velocity": 0.7874015748031497,
          "duration": 0.3488370000000032
        },
        {
          "name": "B5",
          "midi": 83,
          "time": 171.84437363750067,
          "velocity": 0.7874015748031497,
          "duration": 0.5232555000000048
        },
        {
          "name": "A5",
          "midi": 81,
          "time": 172.36762913750067,
          "velocity": 0.7874015748031497,
          "duration": 0.5232555000000048
        },
        {
          "name": "D5",
          "midi": 74,
          "time": 172.89088463750068,
          "velocity": 0.7874015748031497,
          "duration": 0.3488370000000032
        },
        {
          "name": "G5",
          "midi": 79,
          "time": 173.23972163750068,
          "velocity": 0.7874015748031497,
          "duration": 1.046510999999981
        },
        {
          "name": "E5",
          "midi": 76,
          "time": 174.27896520000067,
          "velocity": 0.7874015748031497,
          "duration": 0.3488370000000032
        },
        {
          "name": "G5",
          "midi": 79,
          "time": 174.63506963750066,
          "velocity": 0.7874015748031497,
          "duration": 1.0465110000000095
        },
        {
          "name": "E5",
          "midi": 76,
          "time": 175.68158063750067,
          "velocity": 0.7874015748031497,
          "duration": 0.3488370000000032
        },
        {
          "name": "G5",
          "midi": 79,
          "time": 176.03041763750068,
          "velocity": 0.7874015748031497,
          "duration": 1.0465110000000095
        },
        {
          "name": "A5",
          "midi": 81,
          "time": 177.07692863750069,
          "velocity": 0.7874015748031497,
          "duration": 0.3488370000000032
        },
        {
          "name": "B5",
          "midi": 83,
          "time": 177.4184982000007,
          "velocity": 0.7874015748031497,
          "duration": 0.5232555000000048
        },
        {
          "name": "A5",
          "midi": 81,
          "time": 177.9490211375007,
          "velocity": 0.7874015748031497,
          "duration": 0.6976740000000063
        },
        {
          "name": "B5",
          "midi": 83,
          "time": 178.8138462000007,
          "velocity": 0.7874015748031497,
          "duration": 0.0872092500000008
        },
        {
          "name": "E5",
          "midi": 76,
          "time": 178.9882647000007,
          "velocity": 0.7874015748031497,
          "duration": 0.0872092500000008
        },
        {
          "name": "E5",
          "midi": 76,
          "time": 179.1626832000007,
          "velocity": 0.7874015748031497,
          "duration": 0.0872092500000008
        },
        {
          "name": "B5",
          "midi": 83,
          "time": 179.33710170000072,
          "velocity": 0.7874015748031497,
          "duration": 0.0872092500000008
        },
        {
          "name": "G5",
          "midi": 79,
          "time": 179.51152020000072,
          "velocity": 0.7874015748031497,
          "duration": 0.0872092500000008
        },
        {
          "name": "B4",
          "midi": 71,
          "time": 179.68593870000072,
          "velocity": 0.7874015748031497,
          "duration": 0.0872092500000008
        },
        {
          "name": "B4",
          "midi": 71,
          "time": 179.86035720000072,
          "velocity": 0.7874015748031497,
          "duration": 0.0872092500000008
        },
        {
          "name": "G5",
          "midi": 79,
          "time": 180.03477570000072,
          "velocity": 0.7874015748031497,
          "duration": 0.0872092500000008
        },
        {
          "name": "G5",
          "midi": 79,
          "time": 180.20919420000072,
          "velocity": 0.7874015748031497,
          "duration": 0.0872092500000008
        },
        {
          "name": "C5",
          "midi": 72,
          "time": 180.38361270000073,
          "velocity": 0.7874015748031497,
          "duration": 0.0872092500000008
        },
        {
          "name": "C5",
          "midi": 72,
          "time": 180.55803120000073,
          "velocity": 0.7874015748031497,
          "duration": 0.0872092500000008
        },
        {
          "name": "G5",
          "midi": 79,
          "time": 180.73244970000073,
          "velocity": 0.7874015748031497,
          "duration": 0.0872092500000008
        },
        {
          "name": "E5",
          "midi": 76,
          "time": 180.90686820000073,
          "velocity": 0.7874015748031497,
          "duration": 0.08502901874999225
        },
        {
          "name": "G4",
          "midi": 67,
          "time": 181.08128670000073,
          "velocity": 0.7874015748031497,
          "duration": 0.0872092500000008
        },
        {
          "name": "G4",
          "midi": 67,
          "time": 181.25570520000073,
          "velocity": 0.7874015748031497,
          "duration": 0.0872092500000008
        },
        {
          "name": "E5",
          "midi": 76,
          "time": 181.43012370000073,
          "velocity": 0.7874015748031497,
          "duration": 0.0872092500000008
        },
        {
          "name": "F#5",
          "midi": 78,
          "time": 181.60454220000074,
          "velocity": 0.7874015748031497,
          "duration": 0.0872092500000008
        },
        {
          "name": "B4",
          "midi": 71,
          "time": 181.77896070000074,
          "velocity": 0.7874015748031497,
          "duration": 0.0872092500000008
        },
        {
          "name": "B4",
          "midi": 71,
          "time": 181.95337920000074,
          "velocity": 0.7874015748031497,
          "duration": 0.0872092500000008
        },
        {
          "name": "F#5",
          "midi": 78,
          "time": 182.12779770000074,
          "velocity": 0.7874015748031497,
          "duration": 0.0872092500000008
        },
        {
          "name": "D#5",
          "midi": 75,
          "time": 182.30221620000074,
          "velocity": 0.7874015748031497,
          "duration": 0.0872092500000008
        },
        {
          "name": "F#4",
          "midi": 66,
          "time": 182.47881493125075,
          "velocity": 0.7874015748031497,
          "duration": 0.0872092500000008
        },
        {
          "name": "F#4",
          "midi": 66,
          "time": 182.65323343125075,
          "velocity": 0.7874015748031497,
          "duration": 0.0872092500000008
        },
        {
          "name": "D#5",
          "midi": 75,
          "time": 182.82765193125076,
          "velocity": 0.7874015748031497,
          "duration": 0.0872092500000008
        },
        {
          "name": "F#5",
          "midi": 78,
          "time": 182.99989020000075,
          "velocity": 0.7874015748031497,
          "duration": 0.0872092500000008
        },
        {
          "name": "A4",
          "midi": 69,
          "time": 183.17648893125076,
          "velocity": 0.7874015748031497,
          "duration": 0.0872092500000008
        },
        {
          "name": "A4",
          "midi": 69,
          "time": 183.35090743125076,
          "velocity": 0.7874015748031497,
          "duration": 0.0872092500000008
        },
        {
          "name": "F#5",
          "midi": 78,
          "time": 183.52532593125076,
          "velocity": 0.7874015748031497,
          "duration": 0.0872092500000008
        },
        {
          "name": "A5",
          "midi": 81,
          "time": 183.69756420000076,
          "velocity": 0.7874015748031497,
          "duration": 0.0872092500000008
        },
        {
          "name": "D5",
          "midi": 74,
          "time": 183.87198270000076,
          "velocity": 0.7874015748031497,
          "duration": 0.0872092500000008
        },
        {
          "name": "D5",
          "midi": 74,
          "time": 184.04640120000076,
          "velocity": 0.7874015748031497,
          "duration": 0.0872092500000008
        },
        {
          "name": "A5",
          "midi": 81,
          "time": 184.22081970000076,
          "velocity": 0.7874015748031497,
          "duration": 0.0872092500000008
        },
        {
          "name": "C#6",
          "midi": 85,
          "time": 184.39523820000076,
          "velocity": 0.7874015748031497,
          "duration": 0.0872092500000008
        },
        {
          "name": "E5",
          "midi": 76,
          "time": 184.57183693125077,
          "velocity": 0.7874015748031497,
          "duration": 0.0872092500000008
        },
        {
          "name": "E5",
          "midi": 76,
          "time": 184.74625543125077,
          "velocity": 0.7874015748031497,
          "duration": 0.0872092500000008
        },
        {
          "name": "C#6",
          "midi": 85,
          "time": 184.92067393125078,
          "velocity": 0.7874015748031497,
          "duration": 0.0872092500000008
        },
        {
          "name": "A5",
          "midi": 81,
          "time": 185.09291220000077,
          "velocity": 0.7874015748031497,
          "duration": 0.0872092500000008
        },
        {
          "name": "C#5",
          "midi": 73,
          "time": 185.26733070000077,
          "velocity": 0.7874015748031497,
          "duration": 0.0872092500000008
        },
        {
          "name": "C#5",
          "midi": 73,
          "time": 185.44174920000077,
          "velocity": 0.7874015748031497,
          "duration": 0.0872092500000008
        },
        {
          "name": "A5",
          "midi": 81,
          "time": 185.61616770000077,
          "velocity": 0.7874015748031497,
          "duration": 0.0872092500000008
        },
        {
          "name": "E5",
          "midi": 76,
          "time": 185.79058620000077,
          "velocity": 0.7874015748031497,
          "duration": 0.0872092500000008
        },
        {
          "name": "G4",
          "midi": 67,
          "time": 185.96718493125078,
          "velocity": 0.7874015748031497,
          "duration": 0.0872092500000008
        },
        {
          "name": "G4",
          "midi": 67,
          "time": 186.1416034312508,
          "velocity": 0.7874015748031497,
          "duration": 0.0872092500000008
        },
        {
          "name": "E5",
          "midi": 76,
          "time": 186.31384170000078,
          "velocity": 0.7874015748031497,
          "duration": 0.0872092500000008
        },
        {
          "name": "G5",
          "midi": 79,
          "time": 186.48826020000078,
          "velocity": 0.7874015748031497,
          "duration": 0.0872092500000008
        },
        {
          "name": "C5",
          "midi": 72,
          "time": 186.66267870000078,
          "velocity": 0.7874015748031497,
          "duration": 0.0872092500000008
        },
        {
          "name": "C5",
          "midi": 72,
          "time": 186.83709720000078,
          "velocity": 0.7874015748031497,
          "duration": 0.0872092500000008
        },
        {
          "name": "G5",
          "midi": 79,
          "time": 187.01151570000079,
          "velocity": 0.7874015748031497,
          "duration": 0.0872092500000008
        },
        {
          "name": "C5",
          "midi": 72,
          "time": 187.1859342000008,
          "velocity": 0.7874015748031497,
          "duration": 0.0872092500000008
        },
        {
          "name": "F#4",
          "midi": 66,
          "time": 187.3603527000008,
          "velocity": 0.7874015748031497,
          "duration": 0.0872092500000008
        },
        {
          "name": "F#4",
          "midi": 66,
          "time": 187.5347712000008,
          "velocity": 0.7874015748031497,
          "duration": 0.0872092500000008
        },
        {
          "name": "C5",
          "midi": 72,
          "time": 187.7091897000008,
          "velocity": 0.7874015748031497,
          "duration": 0.0872092500000008
        },
        {
          "name": "F#5",
          "midi": 78,
          "time": 187.8836082000008,
          "velocity": 0.7874015748031497,
          "duration": 0.0872092500000008
        },
        {
          "name": "C5",
          "midi": 72,
          "time": 188.0580267000008,
          "velocity": 0.7874015748031497,
          "duration": 0.0872092500000008
        },
        {
          "name": "C5",
          "midi": 72,
          "time": 188.2324452000008,
          "velocity": 0.7874015748031497,
          "duration": 0.0872092500000008
        },
        {
          "name": "F#5",
          "midi": 78,
          "time": 188.4068637000008,
          "velocity": 0.7874015748031497,
          "duration": 0.0872092500000008
        },
        {
          "name": "A5",
          "midi": 81,
          "time": 188.5812822000008,
          "velocity": 0.7874015748031497,
          "duration": 0.0872092500000008
        },
        {
          "name": "D#5",
          "midi": 75,
          "time": 188.7557007000008,
          "velocity": 0.7874015748031497,
          "duration": 0.0872092500000008
        },
        {
          "name": "D#5",
          "midi": 75,
          "time": 188.9301192000008,
          "velocity": 0.7874015748031497,
          "duration": 0.0872092500000008
        },
        {
          "name": "A5",
          "midi": 81,
          "time": 189.1045377000008,
          "velocity": 0.7874015748031497,
          "duration": 0.0872092500000008
        },
        {
          "name": "C6",
          "midi": 84,
          "time": 189.2789562000008,
          "velocity": 0.7874015748031497,
          "duration": 0.6976740000000063
        },
        {
          "name": "A#4",
          "midi": 70,
          "time": 189.9766302000008,
          "velocity": 0.7874015748031497,
          "duration": 0.5232555000000048
        },
        {
          "name": "A4",
          "midi": 69,
          "time": 190.49988570000082,
          "velocity": 0.7874015748031497,
          "duration": 0.5232555000000048
        },
        {
          "name": "G4",
          "midi": 67,
          "time": 191.02314120000082,
          "velocity": 0.7874015748031497,
          "duration": 0.3488370000000032
        },
        {
          "name": "D#5",
          "midi": 75,
          "time": 191.37197820000083,
          "velocity": 0.7874015748031497,
          "duration": 0.6976740000000063
        },
        {
          "name": "D#5",
          "midi": 75,
          "time": 192.06965220000083,
          "velocity": 0.7874015748031497,
          "duration": 0.18313942500000735
        },
        {
          "name": "F5",
          "midi": 77,
          "time": 192.24407070000083,
          "velocity": 0.7874015748031497,
          "duration": 0.1744185000000016
        },
        {
          "name": "G5",
          "midi": 79,
          "time": 192.41848920000083,
          "velocity": 0.7874015748031497,
          "duration": 0.1744185000000016
        },
        {
          "name": "A5",
          "midi": 81,
          "time": 192.59290770000084,
          "velocity": 0.7874015748031497,
          "duration": 0.1744185000000016
        },
        {
          "name": "C6",
          "midi": 84,
          "time": 192.76732620000084,
          "velocity": 0.7874015748031497,
          "duration": 0.5225287562500114
        },
        {
          "name": "A#5",
          "midi": 82,
          "time": 193.29058170000084,
          "velocity": 0.7874015748031497,
          "duration": 0.5232555000000048
        },
        {
          "name": "A#5",
          "midi": 82,
          "time": 193.81383720000085,
          "velocity": 0.7874015748031497,
          "duration": 0.3488370000000032
        },
        {
          "name": "A5",
          "midi": 81,
          "time": 194.16267420000085,
          "velocity": 0.7874015748031497,
          "duration": 1.3953480000000127
        },
        {
          "name": "C6",
          "midi": 84,
          "time": 195.55802220000086,
          "velocity": 0.7874015748031497,
          "duration": 0.5232555000000048
        },
        {
          "name": "A#5",
          "midi": 82,
          "time": 196.08127770000087,
          "velocity": 0.7874015748031497,
          "duration": 0.5218020124999896
        },
        {
          "name": "A5",
          "midi": 81,
          "time": 196.60453320000084,
          "velocity": 0.7874015748031497,
          "duration": 0.3488370000000032
        },
        {
          "name": "A#5",
          "midi": 82,
          "time": 196.95337020000085,
          "velocity": 0.7874015748031497,
          "duration": 0.5188950374999877
        },
        {
          "name": "C5",
          "midi": 72,
          "time": 197.47662570000082,
          "velocity": 0.7874015748031497,
          "duration": 0.5159880625000142
        },
        {
          "name": "A#4",
          "midi": 70,
          "time": 197.99988120000083,
          "velocity": 0.7874015748031497,
          "duration": 0.3488370000000032
        },
        {
          "name": "G4",
          "midi": 67,
          "time": 198.34871820000083,
          "velocity": 0.7874015748031497,
          "duration": 0.0872092500000008
        },
        {
          "name": "G4",
          "midi": 67,
          "time": 198.52313670000083,
          "velocity": 0.7874015748031497,
          "duration": 0.0872092500000008
        },
        {
          "name": "G4",
          "midi": 67,
          "time": 198.69755520000083,
          "velocity": 0.7874015748031497,
          "duration": 0.0872092500000008
        },
        {
          "name": "G4",
          "midi": 67,
          "time": 198.87197370000084,
          "velocity": 0.7874015748031497,
          "duration": 0.0872092500000008
        },
        {
          "name": "G4",
          "midi": 67,
          "time": 199.04639220000084,
          "velocity": 0.7874015748031497,
          "duration": 0.0872092500000008
        },
        {
          "name": "G4",
          "midi": 67,
          "time": 199.22081070000084,
          "velocity": 0.7874015748031497,
          "duration": 0.0872092500000008
        },
        {
          "name": "G4",
          "midi": 67,
          "time": 199.39522920000084,
          "velocity": 0.7874015748031497,
          "duration": 0.09520343125001318
        },
        {
          "name": "G4",
          "midi": 67,
          "time": 199.56964770000084,
          "velocity": 0.7874015748031497,
          "duration": 0.1308138750000012
        },
        {
          "name": "F#4",
          "midi": 66,
          "time": 199.74406620000084,
          "velocity": 0.7874015748031497,
          "duration": 0.0872092500000008
        },
        {
          "name": "F#4",
          "midi": 66,
          "time": 199.91848470000085,
          "velocity": 0.7874015748031497,
          "duration": 0.0872092500000008
        },
        {
          "name": "F#4",
          "midi": 66,
          "time": 200.09290320000085,
          "velocity": 0.7874015748031497,
          "duration": 0.0872092500000008
        },
        {
          "name": "F#4",
          "midi": 66,
          "time": 200.26732170000085,
          "velocity": 0.7874015748031497,
          "duration": 0.0872092500000008
        },
        {
          "name": "F#4",
          "midi": 66,
          "time": 200.44174020000085,
          "velocity": 0.7874015748031497,
          "duration": 0.0872092500000008
        },
        {
          "name": "F#4",
          "midi": 66,
          "time": 200.61615870000085,
          "velocity": 0.7874015748031497,
          "duration": 0.0872092500000008
        },
        {
          "name": "F#4",
          "midi": 66,
          "time": 200.79057720000085,
          "velocity": 0.7874015748031497,
          "duration": 0.09520343125001318
        },
        {
          "name": "F#4",
          "midi": 66,
          "time": 200.96499570000086,
          "velocity": 0.7874015748031497,
          "duration": 0.1308138750000012
        },
        {
          "name": "A4",
          "midi": 69,
          "time": 201.13941420000086,
          "velocity": 0.7874015748031497,
          "duration": 0.06395345000001385
        },
        {
          "name": "G4",
          "midi": 67,
          "time": 201.48825120000086,
          "velocity": 0.7874015748031497,
          "duration": 0.06395345000001385
        },
        {
          "name": "F#4",
          "midi": 66,
          "time": 201.83708820000086,
          "velocity": 0.7874015748031497,
          "duration": 0.06395345000001385
        },
        {
          "name": "D4",
          "midi": 62,
          "time": 202.18592520000087,
          "velocity": 0.7874015748031497,
          "duration": 0.06395345000001385
        },
        {
          "name": "G5",
          "midi": 79,
          "time": 202.53476220000087,
          "velocity": 0.7874015748031497,
          "duration": 0.5232555000000048
        },
        {
          "name": "D5",
          "midi": 74,
          "time": 203.05801770000087,
          "velocity": 0.7874015748031497,
          "duration": 0.5232555000000048
        },
        {
          "name": "F5",
          "midi": 77,
          "time": 203.58127320000088,
          "velocity": 0.7874015748031497,
          "duration": 0.3488370000000032
        },
        {
          "name": "D#5",
          "midi": 75,
          "time": 203.93011020000088,
          "velocity": 0.7874015748031497,
          "duration": 1.0465110000000095
        },
        {
          "name": "D5",
          "midi": 74,
          "time": 204.9766212000009,
          "velocity": 0.7874015748031497,
          "duration": 0.17296501249998641
        },
        {
          "name": "C5",
          "midi": 72,
          "time": 205.15103970000087,
          "velocity": 0.7874015748031497,
          "duration": 0.1744185000000016
        },
        {
          "name": "A4",
          "midi": 69,
          "time": 205.32545820000087,
          "velocity": 0.7874015748031497,
          "duration": 0.5232555000000048
        },
        {
          "name": "C#5",
          "midi": 73,
          "time": 205.84871370000087,
          "velocity": 0.7874015748031497,
          "duration": 0.5232555000000048
        },
        {
          "name": "E5",
          "midi": 76,
          "time": 206.37196920000088,
          "velocity": 0.7874015748031497,
          "duration": 0.3488370000000032
        },
        {
          "name": "A5",
          "midi": 81,
          "time": 206.72080620000088,
          "velocity": 0.7874015748031497,
          "duration": 1.0465110000000095
        },
        {
          "name": "E5",
          "midi": 76,
          "time": 207.7673172000009,
          "velocity": 0.7874015748031497,
          "duration": 0.1744185000000016
        },
        {
          "name": "C#5",
          "midi": 73,
          "time": 207.9417357000009,
          "velocity": 0.7874015748031497,
          "duration": 0.1744185000000016
        },
        {
          "name": "C#6",
          "midi": 85,
          "time": 208.1161542000009,
          "velocity": 0.7874015748031497,
          "duration": 1.3953480000000127
        },
        {
          "name": "A2",
          "midi": 45,
          "time": 209.5115022000009,
          "velocity": 0.7874015748031497,
          "duration": 0.1744185000000016
        },
        {
          "name": "E3",
          "midi": 52,
          "time": 209.5115022000009,
          "velocity": 0.7874015748031497,
          "duration": 0.1744185000000016
        },
        {
          "name": "A2",
          "midi": 45,
          "time": 210.0347577000009,
          "velocity": 0.7874015748031497,
          "duration": 0.0872092500000008
        },
        {
          "name": "A#2",
          "midi": 46,
          "time": 210.90685020000092,
          "velocity": 0.7874015748031497,
          "duration": 0.1744185000000016
        },
        {
          "name": "F3",
          "midi": 53,
          "time": 210.90685020000092,
          "velocity": 0.7874015748031497,
          "duration": 0.1744185000000016
        },
        {
          "name": "A#2",
          "midi": 46,
          "time": 211.43010570000092,
          "velocity": 0.7874015748031497,
          "duration": 0.0872092500000008
        },
        {
          "name": "A#2",
          "midi": 46,
          "time": 212.30219820000093,
          "velocity": 0.7874015748031497,
          "duration": 0.1744185000000016
        },
        {
          "name": "F3",
          "midi": 53,
          "time": 212.30219820000093,
          "velocity": 0.7874015748031497,
          "duration": 0.1744185000000016
        },
        {
          "name": "A#2",
          "midi": 46,
          "time": 212.82545370000093,
          "velocity": 0.7874015748031497,
          "duration": 0.0872092500000008
        },
        {
          "name": "C3",
          "midi": 48,
          "time": 213.69754620000094,
          "velocity": 0.7874015748031497,
          "duration": 0.1744185000000016
        },
        {
          "name": "G3",
          "midi": 55,
          "time": 213.69754620000094,
          "velocity": 0.7874015748031497,
          "duration": 0.1744185000000016
        },
        {
          "name": "C3",
          "midi": 48,
          "time": 214.22080170000095,
          "velocity": 0.7874015748031497,
          "duration": 0.1744185000000016
        },
        {
          "name": "G3",
          "midi": 55,
          "time": 214.22080170000095,
          "velocity": 0.7874015748031497,
          "duration": 0.1744185000000016
        },
        {
          "name": "C3",
          "midi": 48,
          "time": 214.74405720000095,
          "velocity": 0.7874015748031497,
          "duration": 0.1744185000000016
        },
        {
          "name": "G3",
          "midi": 55,
          "time": 214.74405720000095,
          "velocity": 0.7874015748031497,
          "duration": 0.1744185000000016
        },
        {
          "name": "C3",
          "midi": 48,
          "time": 215.09289420000096,
          "velocity": 0.7874015748031497,
          "duration": 0.1744185000000016
        },
        {
          "name": "G3",
          "midi": 55,
          "time": 215.09289420000096,
          "velocity": 0.7874015748031497,
          "duration": 0.1744185000000016
        },
        {
          "name": "C3",
          "midi": 48,
          "time": 215.61614970000096,
          "velocity": 0.7874015748031497,
          "duration": 0.1744185000000016
        },
        {
          "name": "G3",
          "midi": 55,
          "time": 215.61614970000096,
          "velocity": 0.7874015748031497,
          "duration": 0.1744185000000016
        },
        {
          "name": "C3",
          "midi": 48,
          "time": 216.13940520000097,
          "velocity": 0.7874015748031497,
          "duration": 0.1744185000000016
        },
        {
          "name": "G3",
          "midi": 55,
          "time": 216.13940520000097,
          "velocity": 0.7874015748031497,
          "duration": 0.1744185000000016
        },
        {
          "name": "D3",
          "midi": 50,
          "time": 216.48824220000097,
          "velocity": 0.7874015748031497,
          "duration": 0.1744185000000016
        },
        {
          "name": "A3",
          "midi": 57,
          "time": 216.48824220000097,
          "velocity": 0.7874015748031497,
          "duration": 0.1744185000000016
        },
        {
          "name": "D3",
          "midi": 50,
          "time": 217.01149770000097,
          "velocity": 0.7874015748031497,
          "duration": 0.1744185000000016
        },
        {
          "name": "A3",
          "midi": 57,
          "time": 217.01149770000097,
          "velocity": 0.7874015748031497,
          "duration": 0.1744185000000016
        },
        {
          "name": "D3",
          "midi": 50,
          "time": 217.53475320000098,
          "velocity": 0.7874015748031497,
          "duration": 0.1744185000000016
        },
        {
          "name": "A3",
          "midi": 57,
          "time": 217.53475320000098,
          "velocity": 0.7874015748031497,
          "duration": 0.1744185000000016
        },
        {
          "name": "D3",
          "midi": 50,
          "time": 217.88359020000098,
          "velocity": 0.7874015748031497,
          "duration": 0.6976740000000063
        },
        {
          "name": "A3",
          "midi": 57,
          "time": 217.88359020000098,
          "velocity": 0.7874015748031497,
          "duration": 0.6976740000000063
        },
        {
          "name": "D3",
          "midi": 50,
          "time": 218.581264200001,
          "velocity": 0.7874015748031497,
          "duration": 0.3488370000000032
        },
        {
          "name": "A3",
          "midi": 57,
          "time": 218.581264200001,
          "velocity": 0.7874015748031497,
          "duration": 0.3488370000000032
        },
        {
          "name": "D3",
          "midi": 50,
          "time": 218.930101200001,
          "velocity": 0.7874015748031497,
          "duration": 0.3488370000000032
        },
        {
          "name": "A3",
          "midi": 57,
          "time": 218.930101200001,
          "velocity": 0.7874015748031497,
          "duration": 0.3488370000000032
        },
        {
          "name": "C3",
          "midi": 48,
          "time": 219.278938200001,
          "velocity": 0.7874015748031497,
          "duration": 0.3488370000000032
        },
        {
          "name": "G3",
          "midi": 55,
          "time": 219.278938200001,
          "velocity": 0.7874015748031497,
          "duration": 0.3488370000000032
        },
        {
          "name": "C3",
          "midi": 48,
          "time": 219.627775200001,
          "velocity": 0.7874015748031497,
          "duration": 0.2616277500000024
        },
        {
          "name": "G3",
          "midi": 55,
          "time": 219.627775200001,
          "velocity": 0.7874015748031497,
          "duration": 0.2616277500000024
        },
        {
          "name": "D3",
          "midi": 50,
          "time": 220.499867700001,
          "velocity": 0.7874015748031497,
          "duration": 0.5218020124999896
        },
        {
          "name": "A3",
          "midi": 57,
          "time": 220.499867700001,
          "velocity": 0.7874015748031497,
          "duration": 0.5218020124999896
        },
        {
          "name": "D3",
          "midi": 50,
          "time": 221.02312320000098,
          "velocity": 0.7874015748031497,
          "duration": 0.3488370000000032
        },
        {
          "name": "A3",
          "midi": 57,
          "time": 221.02312320000098,
          "velocity": 0.7874015748031497,
          "duration": 0.3488370000000032
        },
        {
          "name": "D3",
          "midi": 50,
          "time": 221.89376221250097,
          "velocity": 0.7874015748031497,
          "duration": 0.34302304999999933
        },
        {
          "name": "A3",
          "midi": 57,
          "time": 221.89521570000096,
          "velocity": 0.7874015748031497,
          "duration": 0.3488370000000032
        },
        {
          "name": "E3",
          "midi": 52,
          "time": 222.41847120000097,
          "velocity": 0.7874015748031497,
          "duration": 0.1744185000000016
        },
        {
          "name": "B3",
          "midi": 59,
          "time": 222.41847120000097,
          "velocity": 0.7874015748031497,
          "duration": 0.1744185000000016
        },
        {
          "name": "G4",
          "midi": 67,
          "time": 222.76730820000097,
          "velocity": 0.7874015748031497,
          "duration": 0.1744185000000016
        },
        {
          "name": "F#4",
          "midi": 66,
          "time": 222.94172670000097,
          "velocity": 0.7874015748031497,
          "duration": 0.1744185000000016
        },
        {
          "name": "E4",
          "midi": 64,
          "time": 223.11614520000097,
          "velocity": 0.7874015748031497,
          "duration": 0.18386616875000072
        },
        {
          "name": "D4",
          "midi": 62,
          "time": 223.29056370000097,
          "velocity": 0.7874015748031497,
          "duration": 0.3488370000000032
        },
        {
          "name": "E4",
          "midi": 64,
          "time": 223.63940070000098,
          "velocity": 0.7874015748031497,
          "duration": 0.1744185000000016
        },
        {
          "name": "E4",
          "midi": 64,
          "time": 223.81381920000098,
          "velocity": 0.7874015748031497,
          "duration": 0.3488370000000032
        },
        {
          "name": "E3",
          "midi": 52,
          "time": 224.16265620000098,
          "velocity": 0.7874015748031497,
          "duration": 0.3488370000000032
        },
        {
          "name": "B3",
          "midi": 59,
          "time": 224.16265620000098,
          "velocity": 0.7874015748031497,
          "duration": 0.3488370000000032
        },
        {
          "name": "D3",
          "midi": 50,
          "time": 224.51149320000098,
          "velocity": 0.7874015748031497,
          "duration": 0.3488370000000032
        },
        {
          "name": "A3",
          "midi": 57,
          "time": 224.51149320000098,
          "velocity": 0.7874015748031497,
          "duration": 0.3488370000000032
        },
        {
          "name": "C3",
          "midi": 48,
          "time": 224.860330200001,
          "velocity": 0.7874015748031497,
          "duration": 0.3488370000000032
        },
        {
          "name": "G3",
          "midi": 55,
          "time": 224.860330200001,
          "velocity": 0.7874015748031497,
          "duration": 0.3488370000000032
        },
        {
          "name": "C3",
          "midi": 48,
          "time": 225.209167200001,
          "velocity": 0.7874015748031497,
          "duration": 0.2616277500000024
        },
        {
          "name": "G3",
          "midi": 55,
          "time": 225.209167200001,
          "velocity": 0.7874015748031497,
          "duration": 0.2616277500000024
        },
        {
          "name": "D3",
          "midi": 50,
          "time": 226.081259700001,
          "velocity": 0.7874015748031497,
          "duration": 0.5218020124999896
        },
        {
          "name": "A3",
          "midi": 57,
          "time": 226.081259700001,
          "velocity": 0.7874015748031497,
          "duration": 0.5218020124999896
        },
        {
          "name": "D3",
          "midi": 50,
          "time": 226.60451520000098,
          "velocity": 0.7874015748031497,
          "duration": 0.3488370000000032
        },
        {
          "name": "A3",
          "midi": 57,
          "time": 226.60451520000098,
          "velocity": 0.7874015748031497,
          "duration": 0.3488370000000032
        },
        {
          "name": "D3",
          "midi": 50,
          "time": 227.47515421250097,
          "velocity": 0.7874015748031497,
          "duration": 0.34302304999999933
        },
        {
          "name": "A3",
          "midi": 57,
          "time": 227.47660770000095,
          "velocity": 0.7874015748031497,
          "duration": 0.3488370000000032
        },
        {
          "name": "E3",
          "midi": 52,
          "time": 227.99986320000096,
          "velocity": 0.7874015748031497,
          "duration": 0.1744185000000016
        },
        {
          "name": "B3",
          "midi": 59,
          "time": 227.99986320000096,
          "velocity": 0.7874015748031497,
          "duration": 0.1744185000000016
        },
        {
          "name": "B3",
          "midi": 59,
          "time": 228.34870020000096,
          "velocity": 0.7874015748031497,
          "duration": 0.1744185000000016
        },
        {
          "name": "C4",
          "midi": 60,
          "time": 228.52311870000096,
          "velocity": 0.7874015748031497,
          "duration": 0.1744185000000016
        },
        {
          "name": "D4",
          "midi": 62,
          "time": 228.69753720000097,
          "velocity": 0.7874015748031497,
          "duration": 0.1744185000000016
        },
        {
          "name": "E4",
          "midi": 64,
          "time": 228.87195570000097,
          "velocity": 0.7874015748031497,
          "duration": 0.1744185000000016
        },
        {
          "name": "F#4",
          "midi": 66,
          "time": 229.04637420000097,
          "velocity": 0.7874015748031497,
          "duration": 0.1744185000000016
        },
        {
          "name": "G4",
          "midi": 67,
          "time": 229.22079270000097,
          "velocity": 0.7874015748031497,
          "duration": 0.5232555000000048
        },
        {
          "name": "E3",
          "midi": 52,
          "time": 229.74404820000098,
          "velocity": 0.7874015748031497,
          "duration": 0.3488370000000032
        },
        {
          "name": "B3",
          "midi": 59,
          "time": 229.74404820000098,
          "velocity": 0.7874015748031497,
          "duration": 0.3488370000000032
        },
        {
          "name": "D3",
          "midi": 50,
          "time": 230.09288520000098,
          "velocity": 0.7874015748031497,
          "duration": 0.3488370000000032
        },
        {
          "name": "A3",
          "midi": 57,
          "time": 230.09288520000098,
          "velocity": 0.7874015748031497,
          "duration": 0.3488370000000032
        },
        {
          "name": "C3",
          "midi": 48,
          "time": 230.44172220000098,
          "velocity": 0.7874015748031497,
          "duration": 0.3488370000000032
        },
        {
          "name": "G3",
          "midi": 55,
          "time": 230.44172220000098,
          "velocity": 0.7874015748031497,
          "duration": 0.3488370000000032
        },
        {
          "name": "C3",
          "midi": 48,
          "time": 230.79055920000098,
          "velocity": 0.7874015748031497,
          "duration": 0.2616277500000024
        },
        {
          "name": "G3",
          "midi": 55,
          "time": 230.79055920000098,
          "velocity": 0.7874015748031497,
          "duration": 0.2616277500000024
        },
        {
          "name": "D3",
          "midi": 50,
          "time": 231.662651700001,
          "velocity": 0.7874015748031497,
          "duration": 0.5218020124999896
        },
        {
          "name": "A3",
          "midi": 57,
          "time": 231.662651700001,
          "velocity": 0.7874015748031497,
          "duration": 0.5218020124999896
        },
        {
          "name": "D3",
          "midi": 50,
          "time": 232.18590720000097,
          "velocity": 0.7874015748031497,
          "duration": 0.3488370000000032
        },
        {
          "name": "A3",
          "midi": 57,
          "time": 232.18590720000097,
          "velocity": 0.7874015748031497,
          "duration": 0.3488370000000032
        },
        {
          "name": "D3",
          "midi": 50,
          "time": 233.05654621250096,
          "velocity": 0.7874015748031497,
          "duration": 0.34302304999999933
        },
        {
          "name": "A3",
          "midi": 57,
          "time": 233.05799970000095,
          "velocity": 0.7874015748031497,
          "duration": 0.3488370000000032
        },
        {
          "name": "E3",
          "midi": 52,
          "time": 233.58125520000095,
          "velocity": 0.7874015748031497,
          "duration": 0.1744185000000016
        },
        {
          "name": "B3",
          "midi": 59,
          "time": 233.58125520000095,
          "velocity": 0.7874015748031497,
          "duration": 0.1744185000000016
        },
        {
          "name": "G4",
          "midi": 67,
          "time": 233.93009220000096,
          "velocity": 0.7874015748031497,
          "duration": 0.1744185000000016
        },
        {
          "name": "F#4",
          "midi": 66,
          "time": 234.10451070000096,
          "velocity": 0.7874015748031497,
          "duration": 0.1744185000000016
        },
        {
          "name": "E4",
          "midi": 64,
          "time": 234.27892920000096,
          "velocity": 0.7874015748031497,
          "duration": 0.18386616875000072
        },
        {
          "name": "D4",
          "midi": 62,
          "time": 234.45334770000096,
          "velocity": 0.7874015748031497,
          "duration": 0.3488370000000032
        },
        {
          "name": "E4",
          "midi": 64,
          "time": 234.80218470000096,
          "velocity": 0.7874015748031497,
          "duration": 0.1744185000000016
        },
        {
          "name": "E4",
          "midi": 64,
          "time": 234.97660320000097,
          "velocity": 0.7874015748031497,
          "duration": 0.3488370000000032
        },
        {
          "name": "E3",
          "midi": 52,
          "time": 235.32544020000097,
          "velocity": 0.7874015748031497,
          "duration": 0.3488370000000032
        },
        {
          "name": "B3",
          "midi": 59,
          "time": 235.32544020000097,
          "velocity": 0.7874015748031497,
          "duration": 0.3488370000000032
        },
        {
          "name": "D3",
          "midi": 50,
          "time": 235.67427720000097,
          "velocity": 0.7874015748031497,
          "duration": 0.3488370000000032
        },
        {
          "name": "A3",
          "midi": 57,
          "time": 235.67427720000097,
          "velocity": 0.7874015748031497,
          "duration": 0.3488370000000032
        },
        {
          "name": "C3",
          "midi": 48,
          "time": 236.02311420000098,
          "velocity": 0.7874015748031497,
          "duration": 0.3488370000000032
        },
        {
          "name": "G3",
          "midi": 55,
          "time": 236.02311420000098,
          "velocity": 0.7874015748031497,
          "duration": 0.3488370000000032
        },
        {
          "name": "C3",
          "midi": 48,
          "time": 236.37195120000098,
          "velocity": 0.7874015748031497,
          "duration": 0.2616277500000024
        },
        {
          "name": "G3",
          "midi": 55,
          "time": 236.37195120000098,
          "velocity": 0.7874015748031497,
          "duration": 0.2616277500000024
        },
        {
          "name": "D3",
          "midi": 50,
          "time": 237.244043700001,
          "velocity": 0.7874015748031497,
          "duration": 0.5218020124999896
        },
        {
          "name": "A3",
          "midi": 57,
          "time": 237.244043700001,
          "velocity": 0.7874015748031497,
          "duration": 0.5218020124999896
        },
        {
          "name": "D3",
          "midi": 50,
          "time": 237.76729920000096,
          "velocity": 0.7874015748031497,
          "duration": 0.3488370000000032
        },
        {
          "name": "A3",
          "midi": 57,
          "time": 237.76729920000096,
          "velocity": 0.7874015748031497,
          "duration": 0.3488370000000032
        },
        {
          "name": "D3",
          "midi": 50,
          "time": 238.63793821250096,
          "velocity": 0.7874015748031497,
          "duration": 0.34302304999999933
        },
        {
          "name": "A3",
          "midi": 57,
          "time": 238.63939170000094,
          "velocity": 0.7874015748031497,
          "duration": 0.3488370000000032
        },
        {
          "name": "E3",
          "midi": 52,
          "time": 239.16264720000095,
          "velocity": 0.7874015748031497,
          "duration": 0.2616277500000024
        },
        {
          "name": "B3",
          "midi": 59,
          "time": 239.16264720000095,
          "velocity": 0.7874015748031497,
          "duration": 0.2616277500000024
        },
        {
          "name": "E3",
          "midi": 52,
          "time": 239.51148420000095,
          "velocity": 0.7874015748031497,
          "duration": 0.1744185000000016
        },
        {
          "name": "G3",
          "midi": 55,
          "time": 239.68590270000095,
          "velocity": 0.7874015748031497,
          "duration": 0.1744185000000016
        },
        {
          "name": "B3",
          "midi": 59,
          "time": 239.86032120000095,
          "velocity": 0.7874015748031497,
          "duration": 0.1744185000000016
        },
        {
          "name": "E4",
          "midi": 64,
          "time": 240.03473970000096,
          "velocity": 0.7874015748031497,
          "duration": 0.1744185000000016
        },
        {
          "name": "G4",
          "midi": 67,
          "time": 240.20915820000096,
          "velocity": 0.7874015748031497,
          "duration": 0.1744185000000016
        },
        {
          "name": "B4",
          "midi": 71,
          "time": 240.38357670000096,
          "velocity": 0.7874015748031497,
          "duration": 0.1744185000000016
        },
        {
          "name": "E5",
          "midi": 76,
          "time": 240.55799520000096,
          "velocity": 0.7874015748031497,
          "duration": 0.16933129374999112
        },
        {
          "name": "G5",
          "midi": 79,
          "time": 240.73241370000096,
          "velocity": 0.7874015748031497,
          "duration": 0.1773254750000035
        },
        {
          "name": "B5",
          "midi": 83,
          "time": 240.90683220000096,
          "velocity": 0.7874015748031497,
          "duration": 0.6976740000000063
        },
        {
          "name": "E5",
          "midi": 76,
          "time": 241.60450620000097,
          "velocity": 0.7874015748031497,
          "duration": 0.5232555000000048
        },
        {
          "name": "B4",
          "midi": 71,
          "time": 242.12776170000097,
          "velocity": 0.7874015748031497,
          "duration": 0.5232555000000048
        },
        {
          "name": "D5",
          "midi": 74,
          "time": 242.64447650625098,
          "velocity": 0.7874015748031497,
          "duration": 0.3488370000000032
        },
        {
          "name": "C5",
          "midi": 72,
          "time": 242.99985420000098,
          "velocity": 0.7874015748031497,
          "duration": 1.0465110000000095
        },
        {
          "name": "B4",
          "midi": 71,
          "time": 244.395202200001,
          "velocity": 0.7874015748031497,
          "duration": 0.5232555000000048
        },
        {
          "name": "G4",
          "midi": 67,
          "time": 244.918457700001,
          "velocity": 0.7874015748031497,
          "duration": 0.5232555000000048
        },
        {
          "name": "B4",
          "midi": 71,
          "time": 245.441713200001,
          "velocity": 0.7874015748031497,
          "duration": 0.3488370000000032
        },
        {
          "name": "A4",
          "midi": 69,
          "time": 245.790550200001,
          "velocity": 0.7874015748031497,
          "duration": 1.3953480000000127
        },
        {
          "name": "E5",
          "midi": 76,
          "time": 247.18589820000102,
          "velocity": 0.7874015748031497,
          "duration": 0.5232555000000048
        },
        {
          "name": "B4",
          "midi": 71,
          "time": 247.70915370000102,
          "velocity": 0.7874015748031497,
          "duration": 0.5232555000000048
        },
        {
          "name": "D5",
          "midi": 74,
          "time": 248.23240920000103,
          "velocity": 0.7874015748031497,
          "duration": 0.3488370000000032
        },
        {
          "name": "C5",
          "midi": 72,
          "time": 248.58124620000103,
          "velocity": 0.7874015748031497,
          "duration": 1.0465110000000095
        },
        {
          "name": "G5",
          "midi": 79,
          "time": 249.97659420000105,
          "velocity": 0.7874015748031497,
          "duration": 0.5232555000000048
        },
        {
          "name": "F#5",
          "midi": 78,
          "time": 250.49984970000105,
          "velocity": 0.7874015748031497,
          "duration": 0.5232555000000048
        },
        {
          "name": "D5",
          "midi": 74,
          "time": 251.02310520000105,
          "velocity": 0.7874015748031497,
          "duration": 0.3488370000000032
        },
        {
          "name": "E4",
          "midi": 64,
          "time": 251.37194220000106,
          "velocity": 0.7874015748031497,
          "duration": 0.1744185000000016
        },
        {
          "name": "G4",
          "midi": 67,
          "time": 251.54926767500106,
          "velocity": 0.7874015748031497,
          "duration": 0.1744185000000016
        },
        {
          "name": "E4",
          "midi": 64,
          "time": 252.06961620000106,
          "velocity": 0.7874015748031497,
          "duration": 0.1744185000000016
        },
        {
          "name": "G4",
          "midi": 67,
          "time": 252.24694167500107,
          "velocity": 0.7874015748031497,
          "duration": 0.1744185000000016
        },
        {
          "name": "E4",
          "midi": 64,
          "time": 252.76729020000107,
          "velocity": 0.7874015748031497,
          "duration": 0.17950570625001205
        },
        {
          "name": "G4",
          "midi": 67,
          "time": 252.94170870000107,
          "velocity": 0.7874015748031497,
          "duration": 0.1744185000000016
        },
        {
          "name": "F#4",
          "midi": 66,
          "time": 253.11612720000107,
          "velocity": 0.7874015748031497,
          "duration": 0.1744185000000016
        },
        {
          "name": "E4",
          "midi": 64,
          "time": 253.29054570000108,
          "velocity": 0.7874015748031497,
          "duration": 0.1744185000000016
        },
        {
          "name": "D4",
          "midi": 62,
          "time": 253.46496420000108,
          "velocity": 0.7874015748031497,
          "duration": 0.3488370000000032
        },
        {
          "name": "B3",
          "midi": 59,
          "time": 253.81380120000108,
          "velocity": 0.7874015748031497,
          "duration": 0.3488370000000032
        },
        {
          "name": "E4",
          "midi": 64,
          "time": 254.1619114562511,
          "velocity": 0.7874015748031497,
          "duration": 0.1744185000000016
        },
        {
          "name": "G4",
          "midi": 67,
          "time": 254.3392369312511,
          "velocity": 0.7874015748031497,
          "duration": 0.1744185000000016
        },
        {
          "name": "E4",
          "midi": 64,
          "time": 254.8595854562511,
          "velocity": 0.7874015748031497,
          "duration": 0.1744185000000016
        },
        {
          "name": "G4",
          "midi": 67,
          "time": 255.0369109312511,
          "velocity": 0.7874015748031497,
          "duration": 0.1744185000000016
        },
        {
          "name": "D4",
          "midi": 62,
          "time": 255.5579862000011,
          "velocity": 0.7874015748031497,
          "duration": 0.1744185000000016
        },
        {
          "name": "E4",
          "midi": 64,
          "time": 255.7324047000011,
          "velocity": 0.7874015748031497,
          "duration": 0.1744185000000016
        },
        {
          "name": "F#4",
          "midi": 66,
          "time": 255.9068232000011,
          "velocity": 0.7874015748031497,
          "duration": 0.1744185000000016
        },
        {
          "name": "G4",
          "midi": 67,
          "time": 256.0812417000011,
          "velocity": 0.7874015748031497,
          "duration": 0.1744185000000016
        },
        {
          "name": "A4",
          "midi": 69,
          "time": 256.2556602000011,
          "velocity": 0.7874015748031497,
          "duration": 0.3488370000000032
        },
        {
          "name": "B4",
          "midi": 71,
          "time": 256.6044972000011,
          "velocity": 0.7874015748031497,
          "duration": 0.3488370000000032
        },
        {
          "name": "E4",
          "midi": 64,
          "time": 256.9533342000011,
          "velocity": 0.7874015748031497,
          "duration": 0.1744185000000016
        },
        {
          "name": "G4",
          "midi": 67,
          "time": 257.1306596750011,
          "velocity": 0.7874015748031497,
          "duration": 0.1744185000000016
        },
        {
          "name": "E4",
          "midi": 64,
          "time": 257.65100820000106,
          "velocity": 0.7874015748031497,
          "duration": 0.1744185000000016
        },
        {
          "name": "G4",
          "midi": 67,
          "time": 257.82833367500103,
          "velocity": 0.7874015748031497,
          "duration": 0.1744185000000016
        },
        {
          "name": "E4",
          "midi": 64,
          "time": 258.348682200001,
          "velocity": 0.7874015748031497,
          "duration": 0.17950570624998363
        },
        {
          "name": "G4",
          "midi": 67,
          "time": 258.523100700001,
          "velocity": 0.7874015748031497,
          "duration": 0.1744185000000016
        },
        {
          "name": "F#4",
          "midi": 66,
          "time": 258.697519200001,
          "velocity": 0.7874015748031497,
          "duration": 0.1744185000000016
        },
        {
          "name": "E4",
          "midi": 64,
          "time": 258.871937700001,
          "velocity": 0.7874015748031497,
          "duration": 0.1744185000000016
        },
        {
          "name": "D4",
          "midi": 62,
          "time": 259.046356200001,
          "velocity": 0.7874015748031497,
          "duration": 0.3488370000000032
        },
        {
          "name": "B3",
          "midi": 59,
          "time": 259.395193200001,
          "velocity": 0.7874015748031497,
          "duration": 0.3488370000000032
        },
        {
          "name": "E4",
          "midi": 64,
          "time": 259.743303456251,
          "velocity": 0.7874015748031497,
          "duration": 0.1744185000000016
        },
        {
          "name": "G4",
          "midi": 67,
          "time": 259.920628931251,
          "velocity": 0.7874015748031497,
          "duration": 0.1744185000000016
        },
        {
          "name": "E4",
          "midi": 64,
          "time": 260.44097745625095,
          "velocity": 0.7874015748031497,
          "duration": 0.1744185000000016
        },
        {
          "name": "G4",
          "midi": 67,
          "time": 260.6183029312509,
          "velocity": 0.7874015748031497,
          "duration": 0.1744185000000016
        },
        {
          "name": "D4",
          "midi": 62,
          "time": 261.1393782000009,
          "velocity": 0.7874015748031497,
          "duration": 0.1744185000000016
        },
        {
          "name": "E4",
          "midi": 64,
          "time": 261.3137967000009,
          "velocity": 0.7874015748031497,
          "duration": 0.1744185000000016
        },
        {
          "name": "F#4",
          "midi": 66,
          "time": 261.4882152000009,
          "velocity": 0.7874015748031497,
          "duration": 0.1744185000000016
        },
        {
          "name": "G4",
          "midi": 67,
          "time": 261.6626337000009,
          "velocity": 0.7874015748031497,
          "duration": 0.1744185000000016
        },
        {
          "name": "A4",
          "midi": 69,
          "time": 261.8370522000009,
          "velocity": 0.7874015748031497,
          "duration": 0.3488370000000032
        },
        {
          "name": "B4",
          "midi": 71,
          "time": 262.18588920000093,
          "velocity": 0.7874015748031497,
          "duration": 0.3488370000000032
        },
        {
          "name": "E4",
          "midi": 64,
          "time": 262.53472620000093,
          "velocity": 0.7874015748031497,
          "duration": 0.1744185000000016
        },
        {
          "name": "G4",
          "midi": 67,
          "time": 262.7120516750009,
          "velocity": 0.7874015748031497,
          "duration": 0.1744185000000016
        },
        {
          "name": "E4",
          "midi": 64,
          "time": 263.2324002000009,
          "velocity": 0.7874015748031497,
          "duration": 0.1744185000000016
        },
        {
          "name": "G4",
          "midi": 67,
          "time": 263.40972567500086,
          "velocity": 0.7874015748031497,
          "duration": 0.1744185000000016
        },
        {
          "name": "E4",
          "midi": 64,
          "time": 263.93007420000083,
          "velocity": 0.7874015748031497,
          "duration": 0.17950570624998363
        },
        {
          "name": "G4",
          "midi": 67,
          "time": 264.10449270000083,
          "velocity": 0.7874015748031497,
          "duration": 0.1744185000000016
        },
        {
          "name": "F#4",
          "midi": 66,
          "time": 264.27891120000083,
          "velocity": 0.7874015748031497,
          "duration": 0.1744185000000016
        },
        {
          "name": "E4",
          "midi": 64,
          "time": 264.45332970000084,
          "velocity": 0.7874015748031497,
          "duration": 0.1744185000000016
        },
        {
          "name": "D4",
          "midi": 62,
          "time": 264.62774820000084,
          "velocity": 0.7874015748031497,
          "duration": 0.3488370000000032
        },
        {
          "name": "B3",
          "midi": 59,
          "time": 264.97658520000084,
          "velocity": 0.7874015748031497,
          "duration": 0.3488370000000032
        },
        {
          "name": "E4",
          "midi": 64,
          "time": 265.3246954562508,
          "velocity": 0.7874015748031497,
          "duration": 0.1744185000000016
        },
        {
          "name": "G4",
          "midi": 67,
          "time": 265.5020209312508,
          "velocity": 0.7874015748031497,
          "duration": 0.1744185000000016
        },
        {
          "name": "E4",
          "midi": 64,
          "time": 266.0223694562508,
          "velocity": 0.7874015748031497,
          "duration": 0.1744185000000016
        },
        {
          "name": "G4",
          "midi": 67,
          "time": 266.19969493125075,
          "velocity": 0.7874015748031497,
          "duration": 0.1744185000000016
        },
        {
          "name": "D4",
          "midi": 62,
          "time": 266.72077020000074,
          "velocity": 0.7874015748031497,
          "duration": 0.1744185000000016
        },
        {
          "name": "E4",
          "midi": 64,
          "time": 266.89518870000074,
          "velocity": 0.7874015748031497,
          "duration": 0.1744185000000016
        },
        {
          "name": "F#4",
          "midi": 66,
          "time": 267.06960720000075,
          "velocity": 0.7874015748031497,
          "duration": 0.1744185000000016
        },
        {
          "name": "G4",
          "midi": 67,
          "time": 267.24402570000075,
          "velocity": 0.7874015748031497,
          "duration": 0.1744185000000016
        },
        {
          "name": "A4",
          "midi": 69,
          "time": 267.41844420000075,
          "velocity": 0.7874015748031497,
          "duration": 0.3488370000000032
        },
        {
          "name": "B4",
          "midi": 71,
          "time": 267.76728120000075,
          "velocity": 0.7874015748031497,
          "duration": 0.3488370000000032
        },
        {
          "name": "B4",
          "midi": 71,
          "time": 268.11611820000076,
          "velocity": 0.7874015748031497,
          "duration": 1.3953480000000127
        },
        {
          "name": "E2",
          "midi": 40,
          "time": 269.51146620000077,
          "velocity": 0.7874015748031497,
          "duration": 0.3619183874999976
        },
        {
          "name": "B2",
          "midi": 47,
          "time": 269.51146620000077,
          "velocity": 0.7874015748031497,
          "duration": 0.3488370000000032
        }
      ],
      "controlChanges": {},
      "id": 1,
      "name": "SR Midi Gits Intermediate",
      "channelNumber": 0,
      "isPercussion": false
    }
  ]
}