{
  "header": {
    "PPQ": 480,
    "timeSignature": [
      4,
      4
    ],
    "bpm": 100,
    "name": "Dentalist Beginner Midi Git"
  },
  "tempo": [
    {
      "absoluteTime": 0,
      "seconds": 0,
      "bpm": 100
    },
    {
      "absoluteTime": 36960,
      "seconds": 46.199999999999996,
      "bpm": 100
    },
    {
      "absoluteTime": 65280,
      "seconds": 81.6,
      "bpm": 100
    },
    {
      "absoluteTime": 124800,
      "seconds": 156,
      "bpm": 100
    },
    {
      "absoluteTime": 153600,
      "seconds": 192,
      "bpm": 100
    },
    {
      "absoluteTime": 157440,
      "seconds": 196.8,
      "bpm": 100
    },
    {
      "absoluteTime": 176640,
      "seconds": 220.8,
      "bpm": 100
    }
  ],
  "timeSignature": [
    {
      "absoluteTime": 0,
      "seconds": 0,
      "numerator": 4,
      "denominator": 2,
      "click": 24,
      "notesQ": 8
    },
    {
      "absoluteTime": 65280,
      "seconds": 81.6,
      "numerator": 4,
      "denominator": 2,
      "click": 24,
      "notesQ": 8
    },
    {
      "absoluteTime": 124800,
      "seconds": 156,
      "numerator": 4,
      "denominator": 2,
      "click": 24,
      "notesQ": 8
    },
    {
      "absoluteTime": 153600,
      "seconds": 192,
      "numerator": 4,
      "denominator": 2,
      "click": 24,
      "notesQ": 8
    },
    {
      "absoluteTime": 157440,
      "seconds": 196.8,
      "numerator": 4,
      "denominator": 2,
      "click": 24,
      "notesQ": 8
    },
    {
      "absoluteTime": 176640,
      "seconds": 220.8,
      "numerator": 4,
      "denominator": 2,
      "click": 24,
      "notesQ": 8
    }
  ],
  "startTime": 0,
  "duration": 240.60000000000383,
  "tracks": [
    {
      "startTime": 0,
      "duration": 0,
      "length": 0,
      "notes": [],
      "controlChanges": {},
      "id": 0,
      "name": "Dentalist Beginner Midi Git"
    },
    {
      "startTime": 3,
      "duration": 240.60000000000383,
      "length": 1641,
      "notes": [
        {
          "name": "G3",
          "midi": 55,
          "time": 3,
          "velocity": 0.7874015748031497,
          "duration": 0.1499999999999999
        },
        {
          "name": "G4",
          "midi": 67,
          "time": 3.15,
          "velocity": 0.7874015748031497,
          "duration": 0.1499999999999999
        },
        {
          "name": "G4",
          "midi": 67,
          "time": 3.3,
          "velocity": 0.7874015748031497,
          "duration": 0.1499999999999999
        },
        {
          "name": "G3",
          "midi": 55,
          "time": 3.4499999999999997,
          "velocity": 0.7874015748031497,
          "duration": 0.1499999999999999
        },
        {
          "name": "G4",
          "midi": 67,
          "time": 3.5999999999999996,
          "velocity": 0.7874015748031497,
          "duration": 0.1499999999999999
        },
        {
          "name": "G3",
          "midi": 55,
          "time": 3.7499999999999996,
          "velocity": 0.7874015748031497,
          "duration": 0.15249999999999986
        },
        {
          "name": "G3",
          "midi": 55,
          "time": 3.8999999999999995,
          "velocity": 0.7874015748031497,
          "duration": 0.15000000000000036
        },
        {
          "name": "G4",
          "midi": 67,
          "time": 4.05,
          "velocity": 0.7874015748031497,
          "duration": 0.1512500000000001
        },
        {
          "name": "G4",
          "midi": 67,
          "time": 4.2,
          "velocity": 0.7874015748031497,
          "duration": 0.14999999999999947
        },
        {
          "name": "G3",
          "midi": 55,
          "time": 4.35,
          "velocity": 0.7874015748031497,
          "duration": 0.15000000000000036
        },
        {
          "name": "G4",
          "midi": 67,
          "time": 4.5,
          "velocity": 0.7874015748031497,
          "duration": 0.15000000000000036
        },
        {
          "name": "G3",
          "midi": 55,
          "time": 4.65,
          "velocity": 0.7874015748031497,
          "duration": 0.15000000000000036
        },
        {
          "name": "F#4",
          "midi": 66,
          "time": 4.800000000000001,
          "velocity": 0.7874015748031497,
          "duration": 0.5999999999999996
        },
        {
          "name": "G3",
          "midi": 55,
          "time": 5.4,
          "velocity": 0.7874015748031497,
          "duration": 0.15000000000000036
        },
        {
          "name": "G4",
          "midi": 67,
          "time": 5.550000000000001,
          "velocity": 0.7874015748031497,
          "duration": 0.15000000000000036
        },
        {
          "name": "G4",
          "midi": 67,
          "time": 5.700000000000001,
          "velocity": 0.7874015748031497,
          "duration": 0.15000000000000036
        },
        {
          "name": "G3",
          "midi": 55,
          "time": 5.850000000000001,
          "velocity": 0.7874015748031497,
          "duration": 0.15000000000000036
        },
        {
          "name": "G4",
          "midi": 67,
          "time": 6.000000000000002,
          "velocity": 0.7874015748031497,
          "duration": 0.15000000000000036
        },
        {
          "name": "G3",
          "midi": 55,
          "time": 6.150000000000002,
          "velocity": 0.7874015748031497,
          "duration": 0.15250000000000075
        },
        {
          "name": "G3",
          "midi": 55,
          "time": 6.3000000000000025,
          "velocity": 0.7874015748031497,
          "duration": 0.15000000000000036
        },
        {
          "name": "G4",
          "midi": 67,
          "time": 6.450000000000003,
          "velocity": 0.7874015748031497,
          "duration": 0.1512500000000001
        },
        {
          "name": "G4",
          "midi": 67,
          "time": 6.600000000000003,
          "velocity": 0.7874015748031497,
          "duration": 0.14999999999999947
        },
        {
          "name": "G3",
          "midi": 55,
          "time": 6.750000000000003,
          "velocity": 0.7874015748031497,
          "duration": 0.15000000000000036
        },
        {
          "name": "G4",
          "midi": 67,
          "time": 6.900000000000003,
          "velocity": 0.7874015748031497,
          "duration": 0.15000000000000036
        },
        {
          "name": "G3",
          "midi": 55,
          "time": 7.050000000000003,
          "velocity": 0.7874015748031497,
          "duration": 0.15000000000000036
        },
        {
          "name": "B4",
          "midi": 71,
          "time": 7.200000000000004,
          "velocity": 0.7874015748031497,
          "duration": 0.15000000000000036
        },
        {
          "name": "G3",
          "midi": 55,
          "time": 7.350000000000004,
          "velocity": 0.7874015748031497,
          "duration": 0.15000000000000036
        },
        {
          "name": "A4",
          "midi": 69,
          "time": 7.501250000000004,
          "velocity": 0.7874015748031497,
          "duration": 0.14999999999999947
        },
        {
          "name": "G3",
          "midi": 55,
          "time": 7.650000000000004,
          "velocity": 0.7874015748031497,
          "duration": 0.14999999999999947
        },
        {
          "name": "G3",
          "midi": 55,
          "time": 7.800000000000003,
          "velocity": 0.7874015748031497,
          "duration": 0.15000000000000036
        },
        {
          "name": "G4",
          "midi": 67,
          "time": 7.950000000000004,
          "velocity": 0.7874015748031497,
          "duration": 0.14999999999999947
        },
        {
          "name": "G4",
          "midi": 67,
          "time": 8.100000000000003,
          "velocity": 0.7874015748031497,
          "duration": 0.15000000000000036
        },
        {
          "name": "G3",
          "midi": 55,
          "time": 8.250000000000004,
          "velocity": 0.7874015748031497,
          "duration": 0.15000000000000036
        },
        {
          "name": "G4",
          "midi": 67,
          "time": 8.400000000000004,
          "velocity": 0.7874015748031497,
          "duration": 0.15000000000000036
        },
        {
          "name": "G3",
          "midi": 55,
          "time": 8.550000000000004,
          "velocity": 0.7874015748031497,
          "duration": 0.15249999999999986
        },
        {
          "name": "G3",
          "midi": 55,
          "time": 8.700000000000005,
          "velocity": 0.7874015748031497,
          "duration": 0.15000000000000036
        },
        {
          "name": "G4",
          "midi": 67,
          "time": 8.850000000000005,
          "velocity": 0.7874015748031497,
          "duration": 0.151250000000001
        },
        {
          "name": "G4",
          "midi": 67,
          "time": 9.000000000000005,
          "velocity": 0.7874015748031497,
          "duration": 0.15000000000000036
        },
        {
          "name": "G3",
          "midi": 55,
          "time": 9.150000000000006,
          "velocity": 0.7874015748031497,
          "duration": 0.15000000000000036
        },
        {
          "name": "G4",
          "midi": 67,
          "time": 9.300000000000006,
          "velocity": 0.7874015748031497,
          "duration": 0.15000000000000036
        },
        {
          "name": "G3",
          "midi": 55,
          "time": 9.450000000000006,
          "velocity": 0.7874015748031497,
          "duration": 0.15000000000000036
        },
        {
          "name": "F#4",
          "midi": 66,
          "time": 9.600000000000007,
          "velocity": 0.7874015748031497,
          "duration": 0.5999999999999996
        },
        {
          "name": "G3",
          "midi": 55,
          "time": 10.200000000000006,
          "velocity": 0.7874015748031497,
          "duration": 0.15000000000000036
        },
        {
          "name": "G4",
          "midi": 67,
          "time": 10.350000000000007,
          "velocity": 0.7874015748031497,
          "duration": 0.15000000000000036
        },
        {
          "name": "G4",
          "midi": 67,
          "time": 10.500000000000007,
          "velocity": 0.7874015748031497,
          "duration": 0.15000000000000036
        },
        {
          "name": "G3",
          "midi": 55,
          "time": 10.650000000000007,
          "velocity": 0.7874015748031497,
          "duration": 0.15000000000000036
        },
        {
          "name": "G4",
          "midi": 67,
          "time": 10.800000000000008,
          "velocity": 0.7874015748031497,
          "duration": 0.15000000000000036
        },
        {
          "name": "G3",
          "midi": 55,
          "time": 10.950000000000008,
          "velocity": 0.7874015748031497,
          "duration": 0.15249999999999986
        },
        {
          "name": "G3",
          "midi": 55,
          "time": 11.100000000000009,
          "velocity": 0.7874015748031497,
          "duration": 0.15000000000000036
        },
        {
          "name": "G4",
          "midi": 67,
          "time": 11.250000000000009,
          "velocity": 0.7874015748031497,
          "duration": 0.151250000000001
        },
        {
          "name": "G3",
          "midi": 55,
          "time": 11.40000000000001,
          "velocity": 0.7874015748031497,
          "duration": 0.15000000000000036
        },
        {
          "name": "A3",
          "midi": 57,
          "time": 11.55000000000001,
          "velocity": 0.7874015748031497,
          "duration": 0.15000000000000036
        },
        {
          "name": "B3",
          "midi": 59,
          "time": 11.70000000000001,
          "velocity": 0.7874015748031497,
          "duration": 0.15000000000000036
        },
        {
          "name": "C4",
          "midi": 60,
          "time": 11.85000000000001,
          "velocity": 0.7874015748031497,
          "duration": 0.15000000000000036
        },
        {
          "name": "D4",
          "midi": 62,
          "time": 12.00000000000001,
          "velocity": 0.7874015748031497,
          "duration": 0.15000000000000036
        },
        {
          "name": "E4",
          "midi": 64,
          "time": 12.150000000000011,
          "velocity": 0.7874015748031497,
          "duration": 0.15000000000000036
        },
        {
          "name": "F#4",
          "midi": 66,
          "time": 12.300000000000011,
          "velocity": 0.7874015748031497,
          "duration": 0.15000000000000036
        },
        {
          "name": "G4",
          "midi": 67,
          "time": 12.450000000000012,
          "velocity": 0.7874015748031497,
          "duration": 0.15000000000000036
        },
        {
          "name": "G3",
          "midi": 55,
          "time": 12.600000000000012,
          "velocity": 0.7874015748031497,
          "duration": 0.15000000000000036
        },
        {
          "name": "G4",
          "midi": 67,
          "time": 12.750000000000012,
          "velocity": 0.7874015748031497,
          "duration": 0.15000000000000036
        },
        {
          "name": "G4",
          "midi": 67,
          "time": 12.900000000000013,
          "velocity": 0.7874015748031497,
          "duration": 0.15000000000000036
        },
        {
          "name": "G3",
          "midi": 55,
          "time": 13.050000000000013,
          "velocity": 0.7874015748031497,
          "duration": 0.15000000000000036
        },
        {
          "name": "G4",
          "midi": 67,
          "time": 13.200000000000014,
          "velocity": 0.7874015748031497,
          "duration": 0.15000000000000036
        },
        {
          "name": "G3",
          "midi": 55,
          "time": 13.350000000000014,
          "velocity": 0.7874015748031497,
          "duration": 0.15249999999999986
        },
        {
          "name": "G3",
          "midi": 55,
          "time": 13.500000000000014,
          "velocity": 0.7874015748031497,
          "duration": 0.15000000000000036
        },
        {
          "name": "G4",
          "midi": 67,
          "time": 13.650000000000015,
          "velocity": 0.7874015748031497,
          "duration": 0.151250000000001
        },
        {
          "name": "G4",
          "midi": 67,
          "time": 13.800000000000015,
          "velocity": 0.7874015748031497,
          "duration": 0.15000000000000036
        },
        {
          "name": "G3",
          "midi": 55,
          "time": 13.950000000000015,
          "velocity": 0.7874015748031497,
          "duration": 0.15000000000000036
        },
        {
          "name": "G4",
          "midi": 67,
          "time": 14.100000000000016,
          "velocity": 0.7874015748031497,
          "duration": 0.15000000000000036
        },
        {
          "name": "G3",
          "midi": 55,
          "time": 14.250000000000016,
          "velocity": 0.7874015748031497,
          "duration": 0.15000000000000036
        },
        {
          "name": "F#4",
          "midi": 66,
          "time": 14.400000000000016,
          "velocity": 0.7874015748031497,
          "duration": 0.5999999999999996
        },
        {
          "name": "G3",
          "midi": 55,
          "time": 15.000000000000016,
          "velocity": 0.7874015748031497,
          "duration": 0.15000000000000036
        },
        {
          "name": "G4",
          "midi": 67,
          "time": 15.150000000000016,
          "velocity": 0.7874015748031497,
          "duration": 0.15000000000000036
        },
        {
          "name": "G4",
          "midi": 67,
          "time": 15.300000000000017,
          "velocity": 0.7874015748031497,
          "duration": 0.15000000000000036
        },
        {
          "name": "G3",
          "midi": 55,
          "time": 15.450000000000017,
          "velocity": 0.7874015748031497,
          "duration": 0.15000000000000036
        },
        {
          "name": "G4",
          "midi": 67,
          "time": 15.600000000000017,
          "velocity": 0.7874015748031497,
          "duration": 0.15000000000000036
        },
        {
          "name": "G3",
          "midi": 55,
          "time": 15.750000000000018,
          "velocity": 0.7874015748031497,
          "duration": 0.15249999999999986
        },
        {
          "name": "G3",
          "midi": 55,
          "time": 15.900000000000018,
          "velocity": 0.7874015748031497,
          "duration": 0.15000000000000036
        },
        {
          "name": "G4",
          "midi": 67,
          "time": 16.05000000000002,
          "velocity": 0.7874015748031497,
          "duration": 0.15124999999999744
        },
        {
          "name": "G4",
          "midi": 67,
          "time": 16.200000000000017,
          "velocity": 0.7874015748031497,
          "duration": 0.14999999999999858
        },
        {
          "name": "G3",
          "midi": 55,
          "time": 16.350000000000016,
          "velocity": 0.7874015748031497,
          "duration": 0.14999999999999858
        },
        {
          "name": "G4",
          "midi": 67,
          "time": 16.500000000000014,
          "velocity": 0.7874015748031497,
          "duration": 0.14999999999999858
        },
        {
          "name": "G3",
          "midi": 55,
          "time": 16.650000000000013,
          "velocity": 0.7874015748031497,
          "duration": 0.14999999999999858
        },
        {
          "name": "B4",
          "midi": 71,
          "time": 16.80000000000001,
          "velocity": 0.7874015748031497,
          "duration": 0.14999999999999858
        },
        {
          "name": "G3",
          "midi": 55,
          "time": 16.95000000000001,
          "velocity": 0.7874015748031497,
          "duration": 0.14999999999999858
        },
        {
          "name": "A4",
          "midi": 69,
          "time": 17.101250000000007,
          "velocity": 0.7874015748031497,
          "duration": 0.14999999999999858
        },
        {
          "name": "G3",
          "midi": 55,
          "time": 17.250000000000007,
          "velocity": 0.7874015748031497,
          "duration": 0.14999999999999858
        },
        {
          "name": "G3",
          "midi": 55,
          "time": 17.400000000000006,
          "velocity": 0.7874015748031497,
          "duration": 0.14999999999999858
        },
        {
          "name": "G4",
          "midi": 67,
          "time": 17.550000000000004,
          "velocity": 0.7874015748031497,
          "duration": 0.14999999999999858
        },
        {
          "name": "G4",
          "midi": 67,
          "time": 17.700000000000003,
          "velocity": 0.7874015748031497,
          "duration": 0.14999999999999858
        },
        {
          "name": "G3",
          "midi": 55,
          "time": 17.85,
          "velocity": 0.7874015748031497,
          "duration": 0.14999999999999858
        },
        {
          "name": "G4",
          "midi": 67,
          "time": 18,
          "velocity": 0.7874015748031497,
          "duration": 0.14999999999999858
        },
        {
          "name": "G3",
          "midi": 55,
          "time": 18.15,
          "velocity": 0.7874015748031497,
          "duration": 0.15249999999999986
        },
        {
          "name": "G3",
          "midi": 55,
          "time": 18.299999999999997,
          "velocity": 0.7874015748031497,
          "duration": 0.15000000000000213
        },
        {
          "name": "G4",
          "midi": 67,
          "time": 18.45,
          "velocity": 0.7874015748031497,
          "duration": 0.15124999999999744
        },
        {
          "name": "G4",
          "midi": 67,
          "time": 18.599999999999998,
          "velocity": 0.7874015748031497,
          "duration": 0.14999999999999858
        },
        {
          "name": "G3",
          "midi": 55,
          "time": 18.749999999999996,
          "velocity": 0.7874015748031497,
          "duration": 0.14999999999999858
        },
        {
          "name": "G4",
          "midi": 67,
          "time": 18.899999999999995,
          "velocity": 0.7874015748031497,
          "duration": 0.14999999999999858
        },
        {
          "name": "G3",
          "midi": 55,
          "time": 19.049999999999994,
          "velocity": 0.7874015748031497,
          "duration": 0.14999999999999858
        },
        {
          "name": "F#4",
          "midi": 66,
          "time": 19.199999999999992,
          "velocity": 0.7874015748031497,
          "duration": 0.6000000000000014
        },
        {
          "name": "G3",
          "midi": 55,
          "time": 19.799999999999994,
          "velocity": 0.7874015748031497,
          "duration": 0.14999999999999858
        },
        {
          "name": "G4",
          "midi": 67,
          "time": 19.949999999999992,
          "velocity": 0.7874015748031497,
          "duration": 0.14999999999999858
        },
        {
          "name": "G4",
          "midi": 67,
          "time": 20.09999999999999,
          "velocity": 0.7874015748031497,
          "duration": 0.14999999999999858
        },
        {
          "name": "G3",
          "midi": 55,
          "time": 20.24999999999999,
          "velocity": 0.7874015748031497,
          "duration": 0.14999999999999858
        },
        {
          "name": "G4",
          "midi": 67,
          "time": 20.399999999999988,
          "velocity": 0.7874015748031497,
          "duration": 0.14999999999999858
        },
        {
          "name": "G3",
          "midi": 55,
          "time": 20.549999999999986,
          "velocity": 0.7874015748031497,
          "duration": 0.15249999999999986
        },
        {
          "name": "G3",
          "midi": 55,
          "time": 20.699999999999985,
          "velocity": 0.7874015748031497,
          "duration": 0.15000000000000213
        },
        {
          "name": "G4",
          "midi": 67,
          "time": 20.849999999999987,
          "velocity": 0.7874015748031497,
          "duration": 0.15124999999999744
        },
        {
          "name": "G3",
          "midi": 55,
          "time": 20.999999999999986,
          "velocity": 0.7874015748031497,
          "duration": 0.14999999999999858
        },
        {
          "name": "A3",
          "midi": 57,
          "time": 21.149999999999984,
          "velocity": 0.7874015748031497,
          "duration": 0.14999999999999858
        },
        {
          "name": "B3",
          "midi": 59,
          "time": 21.299999999999983,
          "velocity": 0.7874015748031497,
          "duration": 0.14999999999999858
        },
        {
          "name": "C4",
          "midi": 60,
          "time": 21.44999999999998,
          "velocity": 0.7874015748031497,
          "duration": 0.14999999999999858
        },
        {
          "name": "D4",
          "midi": 62,
          "time": 21.59999999999998,
          "velocity": 0.7874015748031497,
          "duration": 0.14999999999999858
        },
        {
          "name": "E4",
          "midi": 64,
          "time": 21.74999999999998,
          "velocity": 0.7874015748031497,
          "duration": 0.14999999999999858
        },
        {
          "name": "F#4",
          "midi": 66,
          "time": 21.899999999999977,
          "velocity": 0.7874015748031497,
          "duration": 0.14999999999999858
        },
        {
          "name": "G4",
          "midi": 67,
          "time": 22.049999999999976,
          "velocity": 0.7874015748031497,
          "duration": 0.14999999999999858
        },
        {
          "name": "G3",
          "midi": 55,
          "time": 22.199999999999974,
          "velocity": 0.7874015748031497,
          "duration": 0.14999999999999858
        },
        {
          "name": "E3",
          "midi": 52,
          "time": 22.349999999999973,
          "velocity": 0.7874015748031497,
          "duration": 0.14999999999999858
        },
        {
          "name": "E3",
          "midi": 52,
          "time": 22.49999999999997,
          "velocity": 0.7874015748031497,
          "duration": 0.14999999999999858
        },
        {
          "name": "E3",
          "midi": 52,
          "time": 22.64999999999997,
          "velocity": 0.7874015748031497,
          "duration": 0.14999999999999858
        },
        {
          "name": "E3",
          "midi": 52,
          "time": 22.79999999999997,
          "velocity": 0.7874015748031497,
          "duration": 0.3000000000000007
        },
        {
          "name": "B3",
          "midi": 59,
          "time": 22.79999999999997,
          "velocity": 0.7874015748031497,
          "duration": 0.3000000000000007
        },
        {
          "name": "E3",
          "midi": 52,
          "time": 23.09999999999997,
          "velocity": 0.7874015748031497,
          "duration": 0.14999999999999858
        },
        {
          "name": "E3",
          "midi": 52,
          "time": 23.249999999999968,
          "velocity": 0.7874015748031497,
          "duration": 0.14999999999999858
        },
        {
          "name": "G3",
          "midi": 55,
          "time": 23.399999999999967,
          "velocity": 0.7874015748031497,
          "duration": 0.14999999999999858
        },
        {
          "name": "E3",
          "midi": 52,
          "time": 23.549999999999965,
          "velocity": 0.7874015748031497,
          "duration": 0.14999999999999858
        },
        {
          "name": "E3",
          "midi": 52,
          "time": 23.699999999999964,
          "velocity": 0.7874015748031497,
          "duration": 0.14999999999999858
        },
        {
          "name": "E3",
          "midi": 52,
          "time": 23.849999999999962,
          "velocity": 0.7874015748031497,
          "duration": 0.14999999999999858
        },
        {
          "name": "E3",
          "midi": 52,
          "time": 23.99999999999996,
          "velocity": 0.7874015748031497,
          "duration": 0.3000000000000007
        },
        {
          "name": "B3",
          "midi": 59,
          "time": 23.99999999999996,
          "velocity": 0.7874015748031497,
          "duration": 0.3000000000000007
        },
        {
          "name": "E3",
          "midi": 52,
          "time": 24.29999999999996,
          "velocity": 0.7874015748031497,
          "duration": 0.14999999999999858
        },
        {
          "name": "E3",
          "midi": 52,
          "time": 24.44999999999996,
          "velocity": 0.7874015748031497,
          "duration": 0.14999999999999858
        },
        {
          "name": "G3",
          "midi": 55,
          "time": 24.59999999999996,
          "velocity": 0.7874015748031497,
          "duration": 0.14999999999999858
        },
        {
          "name": "G3",
          "midi": 55,
          "time": 24.749999999999957,
          "velocity": 0.7874015748031497,
          "duration": 0.14999999999999858
        },
        {
          "name": "G3",
          "midi": 55,
          "time": 24.899999999999956,
          "velocity": 0.7874015748031497,
          "duration": 0.14999999999999858
        },
        {
          "name": "F#3",
          "midi": 54,
          "time": 25.049999999999955,
          "velocity": 0.7874015748031497,
          "duration": 0.14999999999999858
        },
        {
          "name": "F#3",
          "midi": 54,
          "time": 25.199999999999953,
          "velocity": 0.7874015748031497,
          "duration": 0.14999999999999858
        },
        {
          "name": "F#3",
          "midi": 54,
          "time": 25.34999999999995,
          "velocity": 0.7874015748031497,
          "duration": 0.14999999999999858
        },
        {
          "name": "G3",
          "midi": 55,
          "time": 25.49999999999995,
          "velocity": 0.7874015748031497,
          "duration": 0.14999999999999858
        },
        {
          "name": "G3",
          "midi": 55,
          "time": 25.64999999999995,
          "velocity": 0.7874015748031497,
          "duration": 0.14999999999999858
        },
        {
          "name": "A3",
          "midi": 57,
          "time": 25.799999999999947,
          "velocity": 0.7874015748031497,
          "duration": 0.14999999999999858
        },
        {
          "name": "A3",
          "midi": 57,
          "time": 25.949999999999946,
          "velocity": 0.7874015748031497,
          "duration": 0.14999999999999858
        },
        {
          "name": "A3",
          "midi": 57,
          "time": 26.099999999999945,
          "velocity": 0.7874015748031497,
          "duration": 0.14999999999999858
        },
        {
          "name": "G3",
          "midi": 55,
          "time": 26.249999999999943,
          "velocity": 0.7874015748031497,
          "duration": 0.14999999999999858
        },
        {
          "name": "G3",
          "midi": 55,
          "time": 26.39999999999994,
          "velocity": 0.7874015748031497,
          "duration": 0.14999999999999858
        },
        {
          "name": "G3",
          "midi": 55,
          "time": 26.54999999999994,
          "velocity": 0.7874015748031497,
          "duration": 0.14999999999999858
        },
        {
          "name": "F#3",
          "midi": 54,
          "time": 26.69999999999994,
          "velocity": 0.7874015748031497,
          "duration": 0.14999999999999858
        },
        {
          "name": "F#3",
          "midi": 54,
          "time": 26.849999999999937,
          "velocity": 0.7874015748031497,
          "duration": 0.14999999999999858
        },
        {
          "name": "G3",
          "midi": 55,
          "time": 26.999999999999936,
          "velocity": 0.7874015748031497,
          "duration": 0.14999999999999858
        },
        {
          "name": "E3",
          "midi": 52,
          "time": 27.149999999999935,
          "velocity": 0.7874015748031497,
          "duration": 0.14999999999999858
        },
        {
          "name": "E3",
          "midi": 52,
          "time": 27.299999999999933,
          "velocity": 0.7874015748031497,
          "duration": 0.14999999999999858
        },
        {
          "name": "E3",
          "midi": 52,
          "time": 27.449999999999932,
          "velocity": 0.7874015748031497,
          "duration": 0.14999999999999858
        },
        {
          "name": "E3",
          "midi": 52,
          "time": 27.59999999999993,
          "velocity": 0.7874015748031497,
          "duration": 0.3000000000000007
        },
        {
          "name": "B3",
          "midi": 59,
          "time": 27.59999999999993,
          "velocity": 0.7874015748031497,
          "duration": 0.3000000000000007
        },
        {
          "name": "E3",
          "midi": 52,
          "time": 27.89999999999993,
          "velocity": 0.7874015748031497,
          "duration": 0.14999999999999858
        },
        {
          "name": "E3",
          "midi": 52,
          "time": 28.04999999999993,
          "velocity": 0.7874015748031497,
          "duration": 0.14999999999999858
        },
        {
          "name": "G3",
          "midi": 55,
          "time": 28.19999999999993,
          "velocity": 0.7874015748031497,
          "duration": 0.14999999999999858
        },
        {
          "name": "E3",
          "midi": 52,
          "time": 28.349999999999927,
          "velocity": 0.7874015748031497,
          "duration": 0.14999999999999858
        },
        {
          "name": "E3",
          "midi": 52,
          "time": 28.499999999999925,
          "velocity": 0.7874015748031497,
          "duration": 0.14999999999999858
        },
        {
          "name": "E3",
          "midi": 52,
          "time": 28.649999999999924,
          "velocity": 0.7874015748031497,
          "duration": 0.14999999999999858
        },
        {
          "name": "E3",
          "midi": 52,
          "time": 28.799999999999923,
          "velocity": 0.7874015748031497,
          "duration": 0.3000000000000007
        },
        {
          "name": "B3",
          "midi": 59,
          "time": 28.799999999999923,
          "velocity": 0.7874015748031497,
          "duration": 0.3000000000000007
        },
        {
          "name": "E3",
          "midi": 52,
          "time": 29.099999999999923,
          "velocity": 0.7874015748031497,
          "duration": 0.14999999999999858
        },
        {
          "name": "E3",
          "midi": 52,
          "time": 29.249999999999922,
          "velocity": 0.7874015748031497,
          "duration": 0.14999999999999858
        },
        {
          "name": "G3",
          "midi": 55,
          "time": 29.39999999999992,
          "velocity": 0.7874015748031497,
          "duration": 0.14999999999999858
        },
        {
          "name": "G3",
          "midi": 55,
          "time": 29.54999999999992,
          "velocity": 0.7874015748031497,
          "duration": 0.14999999999999858
        },
        {
          "name": "G3",
          "midi": 55,
          "time": 29.699999999999918,
          "velocity": 0.7874015748031497,
          "duration": 0.14999999999999858
        },
        {
          "name": "F#3",
          "midi": 54,
          "time": 29.849999999999916,
          "velocity": 0.7874015748031497,
          "duration": 0.14999999999999858
        },
        {
          "name": "F#3",
          "midi": 54,
          "time": 29.999999999999915,
          "velocity": 0.7874015748031497,
          "duration": 0.14999999999999858
        },
        {
          "name": "F#3",
          "midi": 54,
          "time": 30.149999999999913,
          "velocity": 0.7874015748031497,
          "duration": 0.14999999999999858
        },
        {
          "name": "G3",
          "midi": 55,
          "time": 30.299999999999912,
          "velocity": 0.7874015748031497,
          "duration": 0.14999999999999858
        },
        {
          "name": "G3",
          "midi": 55,
          "time": 30.44999999999991,
          "velocity": 0.7874015748031497,
          "duration": 0.14999999999999858
        },
        {
          "name": "D3",
          "midi": 50,
          "time": 30.59999999999991,
          "velocity": 0.7874015748031497,
          "duration": 0.14999999999999858
        },
        {
          "name": "D3",
          "midi": 50,
          "time": 30.749999999999908,
          "velocity": 0.7874015748031497,
          "duration": 0.14999999999999858
        },
        {
          "name": "D3",
          "midi": 50,
          "time": 30.899999999999906,
          "velocity": 0.7874015748031497,
          "duration": 0.14999999999999858
        },
        {
          "name": "A3",
          "midi": 57,
          "time": 31.049999999999905,
          "velocity": 0.7874015748031497,
          "duration": 0.14999999999999858
        },
        {
          "name": "A3",
          "midi": 57,
          "time": 31.199999999999903,
          "velocity": 0.7874015748031497,
          "duration": 0.14999999999999858
        },
        {
          "name": "A3",
          "midi": 57,
          "time": 31.349999999999902,
          "velocity": 0.7874015748031497,
          "duration": 0.14999999999999858
        },
        {
          "name": "G3",
          "midi": 55,
          "time": 31.4999999999999,
          "velocity": 0.7874015748031497,
          "duration": 0.14999999999999858
        },
        {
          "name": "G3",
          "midi": 55,
          "time": 31.6499999999999,
          "velocity": 0.7874015748031497,
          "duration": 0.14999999999999858
        },
        {
          "name": "G3",
          "midi": 55,
          "time": 31.799999999999898,
          "velocity": 0.7874015748031497,
          "duration": 0.14999999999999858
        },
        {
          "name": "E3",
          "midi": 52,
          "time": 31.949999999999896,
          "velocity": 0.7874015748031497,
          "duration": 0.14999999999999858
        },
        {
          "name": "E3",
          "midi": 52,
          "time": 32.099999999999895,
          "velocity": 0.7874015748031497,
          "duration": 0.14999999999999858
        },
        {
          "name": "E3",
          "midi": 52,
          "time": 32.24999999999989,
          "velocity": 0.7874015748031497,
          "duration": 0.14999999999999858
        },
        {
          "name": "E3",
          "midi": 52,
          "time": 32.39999999999989,
          "velocity": 0.7874015748031497,
          "duration": 0.29999999999999716
        },
        {
          "name": "B3",
          "midi": 59,
          "time": 32.39999999999989,
          "velocity": 0.7874015748031497,
          "duration": 0.29999999999999716
        },
        {
          "name": "E3",
          "midi": 52,
          "time": 32.69999999999989,
          "velocity": 0.7874015748031497,
          "duration": 0.14999999999999858
        },
        {
          "name": "E3",
          "midi": 52,
          "time": 32.84999999999989,
          "velocity": 0.7874015748031497,
          "duration": 0.14999999999999858
        },
        {
          "name": "G3",
          "midi": 55,
          "time": 32.999999999999886,
          "velocity": 0.7874015748031497,
          "duration": 0.14999999999999858
        },
        {
          "name": "E3",
          "midi": 52,
          "time": 33.149999999999885,
          "velocity": 0.7874015748031497,
          "duration": 0.14999999999999858
        },
        {
          "name": "E3",
          "midi": 52,
          "time": 33.29999999999988,
          "velocity": 0.7874015748031497,
          "duration": 0.14999999999999858
        },
        {
          "name": "E3",
          "midi": 52,
          "time": 33.44999999999988,
          "velocity": 0.7874015748031497,
          "duration": 0.14999999999999858
        },
        {
          "name": "E3",
          "midi": 52,
          "time": 33.59999999999988,
          "velocity": 0.7874015748031497,
          "duration": 0.29999999999999716
        },
        {
          "name": "B3",
          "midi": 59,
          "time": 33.59999999999988,
          "velocity": 0.7874015748031497,
          "duration": 0.29999999999999716
        },
        {
          "name": "E3",
          "midi": 52,
          "time": 33.89999999999988,
          "velocity": 0.7874015748031497,
          "duration": 0.14999999999999858
        },
        {
          "name": "E3",
          "midi": 52,
          "time": 34.049999999999876,
          "velocity": 0.7874015748031497,
          "duration": 0.14999999999999858
        },
        {
          "name": "G3",
          "midi": 55,
          "time": 34.199999999999875,
          "velocity": 0.7874015748031497,
          "duration": 0.14999999999999858
        },
        {
          "name": "G3",
          "midi": 55,
          "time": 34.34999999999987,
          "velocity": 0.7874015748031497,
          "duration": 0.14999999999999858
        },
        {
          "name": "G3",
          "midi": 55,
          "time": 34.49999999999987,
          "velocity": 0.7874015748031497,
          "duration": 0.14999999999999858
        },
        {
          "name": "F#3",
          "midi": 54,
          "time": 34.64999999999987,
          "velocity": 0.7874015748031497,
          "duration": 0.14999999999999858
        },
        {
          "name": "F#3",
          "midi": 54,
          "time": 34.79999999999987,
          "velocity": 0.7874015748031497,
          "duration": 0.14999999999999858
        },
        {
          "name": "F#3",
          "midi": 54,
          "time": 34.94999999999987,
          "velocity": 0.7874015748031497,
          "duration": 0.14999999999999858
        },
        {
          "name": "G3",
          "midi": 55,
          "time": 35.099999999999866,
          "velocity": 0.7874015748031497,
          "duration": 0.14999999999999858
        },
        {
          "name": "G3",
          "midi": 55,
          "time": 35.249999999999865,
          "velocity": 0.7874015748031497,
          "duration": 0.14999999999999858
        },
        {
          "name": "A3",
          "midi": 57,
          "time": 35.399999999999864,
          "velocity": 0.7874015748031497,
          "duration": 0.14999999999999858
        },
        {
          "name": "A3",
          "midi": 57,
          "time": 35.54999999999986,
          "velocity": 0.7874015748031497,
          "duration": 0.14999999999999858
        },
        {
          "name": "A3",
          "midi": 57,
          "time": 35.69999999999986,
          "velocity": 0.7874015748031497,
          "duration": 0.14999999999999858
        },
        {
          "name": "G3",
          "midi": 55,
          "time": 35.84999999999986,
          "velocity": 0.7874015748031497,
          "duration": 0.14999999999999858
        },
        {
          "name": "G3",
          "midi": 55,
          "time": 35.99999999999986,
          "velocity": 0.7874015748031497,
          "duration": 0.14999999999999858
        },
        {
          "name": "G3",
          "midi": 55,
          "time": 36.14999999999986,
          "velocity": 0.7874015748031497,
          "duration": 0.14999999999999858
        },
        {
          "name": "F#3",
          "midi": 54,
          "time": 36.299999999999855,
          "velocity": 0.7874015748031497,
          "duration": 0.14999999999999858
        },
        {
          "name": "F#3",
          "midi": 54,
          "time": 36.449999999999854,
          "velocity": 0.7874015748031497,
          "duration": 0.14999999999999858
        },
        {
          "name": "G3",
          "midi": 55,
          "time": 36.59999999999985,
          "velocity": 0.7874015748031497,
          "duration": 0.14999999999999858
        },
        {
          "name": "E3",
          "midi": 52,
          "time": 36.74999999999985,
          "velocity": 0.7874015748031497,
          "duration": 0.14999999999999858
        },
        {
          "name": "E3",
          "midi": 52,
          "time": 36.89999999999985,
          "velocity": 0.7874015748031497,
          "duration": 0.14999999999999858
        },
        {
          "name": "E3",
          "midi": 52,
          "time": 37.04999999999985,
          "velocity": 0.7874015748031497,
          "duration": 0.14999999999999858
        },
        {
          "name": "E3",
          "midi": 52,
          "time": 37.19999999999985,
          "velocity": 0.7874015748031497,
          "duration": 0.29999999999999716
        },
        {
          "name": "B3",
          "midi": 59,
          "time": 37.19999999999985,
          "velocity": 0.7874015748031497,
          "duration": 0.29999999999999716
        },
        {
          "name": "E3",
          "midi": 52,
          "time": 37.499999999999844,
          "velocity": 0.7874015748031497,
          "duration": 0.14999999999999858
        },
        {
          "name": "E3",
          "midi": 52,
          "time": 37.64999999999984,
          "velocity": 0.7874015748031497,
          "duration": 0.14999999999999858
        },
        {
          "name": "G3",
          "midi": 55,
          "time": 37.79999999999984,
          "velocity": 0.7874015748031497,
          "duration": 0.14999999999999858
        },
        {
          "name": "E3",
          "midi": 52,
          "time": 37.94999999999984,
          "velocity": 0.7874015748031497,
          "duration": 0.14999999999999858
        },
        {
          "name": "E3",
          "midi": 52,
          "time": 38.09999999999984,
          "velocity": 0.7874015748031497,
          "duration": 0.14999999999999858
        },
        {
          "name": "E3",
          "midi": 52,
          "time": 38.24999999999984,
          "velocity": 0.7874015748031497,
          "duration": 0.14999999999999858
        },
        {
          "name": "E3",
          "midi": 52,
          "time": 38.399999999999835,
          "velocity": 0.7874015748031497,
          "duration": 0.29999999999999716
        },
        {
          "name": "B3",
          "midi": 59,
          "time": 38.399999999999835,
          "velocity": 0.7874015748031497,
          "duration": 0.29999999999999716
        },
        {
          "name": "E3",
          "midi": 52,
          "time": 38.69999999999983,
          "velocity": 0.7874015748031497,
          "duration": 0.14999999999999858
        },
        {
          "name": "E3",
          "midi": 52,
          "time": 38.84999999999983,
          "velocity": 0.7874015748031497,
          "duration": 0.14999999999999858
        },
        {
          "name": "G3",
          "midi": 55,
          "time": 38.99999999999983,
          "velocity": 0.7874015748031497,
          "duration": 0.14999999999999858
        },
        {
          "name": "G3",
          "midi": 55,
          "time": 39.14999999999983,
          "velocity": 0.7874015748031497,
          "duration": 0.14999999999999858
        },
        {
          "name": "G3",
          "midi": 55,
          "time": 39.29999999999983,
          "velocity": 0.7874015748031497,
          "duration": 0.14999999999999858
        },
        {
          "name": "F#3",
          "midi": 54,
          "time": 39.449999999999825,
          "velocity": 0.7874015748031497,
          "duration": 0.14999999999999858
        },
        {
          "name": "F#3",
          "midi": 54,
          "time": 39.599999999999824,
          "velocity": 0.7874015748031497,
          "duration": 0.14999999999999858
        },
        {
          "name": "F#3",
          "midi": 54,
          "time": 39.74999999999982,
          "velocity": 0.7874015748031497,
          "duration": 0.14999999999999858
        },
        {
          "name": "G3",
          "midi": 55,
          "time": 39.89999999999982,
          "velocity": 0.7874015748031497,
          "duration": 0.14999999999999858
        },
        {
          "name": "G3",
          "midi": 55,
          "time": 40.04999999999982,
          "velocity": 0.7874015748031497,
          "duration": 0.14999999999999858
        },
        {
          "name": "D3",
          "midi": 50,
          "time": 40.19999999999982,
          "velocity": 0.7874015748031497,
          "duration": 0.14999999999999858
        },
        {
          "name": "D3",
          "midi": 50,
          "time": 40.34999999999982,
          "velocity": 0.7874015748031497,
          "duration": 0.14999999999999858
        },
        {
          "name": "D3",
          "midi": 50,
          "time": 40.499999999999815,
          "velocity": 0.7874015748031497,
          "duration": 0.14999999999999858
        },
        {
          "name": "A3",
          "midi": 57,
          "time": 40.649999999999814,
          "velocity": 0.7874015748031497,
          "duration": 0.14999999999999858
        },
        {
          "name": "A3",
          "midi": 57,
          "time": 40.79999999999981,
          "velocity": 0.7874015748031497,
          "duration": 0.14999999999999858
        },
        {
          "name": "A3",
          "midi": 57,
          "time": 40.94999999999981,
          "velocity": 0.7874015748031497,
          "duration": 0.14999999999999858
        },
        {
          "name": "G3",
          "midi": 55,
          "time": 41.09999999999981,
          "velocity": 0.7874015748031497,
          "duration": 0.14999999999999858
        },
        {
          "name": "G3",
          "midi": 55,
          "time": 41.24999999999981,
          "velocity": 0.7874015748031497,
          "duration": 0.14999999999999858
        },
        {
          "name": "A3",
          "midi": 57,
          "time": 41.39999999999981,
          "velocity": 0.7874015748031497,
          "duration": 0.14999999999999858
        },
        {
          "name": "F#3",
          "midi": 54,
          "time": 41.549999999999805,
          "velocity": 0.7874015748031497,
          "duration": 0.14999999999999858
        },
        {
          "name": "F#3",
          "midi": 54,
          "time": 41.699999999999804,
          "velocity": 0.7874015748031497,
          "duration": 0.14999999999999858
        },
        {
          "name": "F#3",
          "midi": 54,
          "time": 41.8499999999998,
          "velocity": 0.7874015748031497,
          "duration": 0.14999999999999858
        },
        {
          "name": "F#3",
          "midi": 54,
          "time": 41.9999999999998,
          "velocity": 0.7874015748031497,
          "duration": 0.29999999999999716
        },
        {
          "name": "C#4",
          "midi": 61,
          "time": 41.9999999999998,
          "velocity": 0.7874015748031497,
          "duration": 0.29999999999999716
        },
        {
          "name": "F#3",
          "midi": 54,
          "time": 42.2999999999998,
          "velocity": 0.7874015748031497,
          "duration": 0.14999999999999858
        },
        {
          "name": "F#3",
          "midi": 54,
          "time": 42.4499999999998,
          "velocity": 0.7874015748031497,
          "duration": 0.14999999999999858
        },
        {
          "name": "A3",
          "midi": 57,
          "time": 42.599999999999795,
          "velocity": 0.7874015748031497,
          "duration": 0.14999999999999858
        },
        {
          "name": "F#3",
          "midi": 54,
          "time": 42.749999999999794,
          "velocity": 0.7874015748031497,
          "duration": 0.14999999999999858
        },
        {
          "name": "F#3",
          "midi": 54,
          "time": 42.89999999999979,
          "velocity": 0.7874015748031497,
          "duration": 0.14999999999999858
        },
        {
          "name": "F#3",
          "midi": 54,
          "time": 43.04999999999979,
          "velocity": 0.7874015748031497,
          "duration": 0.14999999999999858
        },
        {
          "name": "F#3",
          "midi": 54,
          "time": 43.19999999999979,
          "velocity": 0.7874015748031497,
          "duration": 0.29999999999999716
        },
        {
          "name": "C#4",
          "midi": 61,
          "time": 43.19999999999979,
          "velocity": 0.7874015748031497,
          "duration": 0.29999999999999716
        },
        {
          "name": "F#3",
          "midi": 54,
          "time": 43.49999999999979,
          "velocity": 0.7874015748031497,
          "duration": 0.14999999999999858
        },
        {
          "name": "F#3",
          "midi": 54,
          "time": 43.649999999999785,
          "velocity": 0.7874015748031497,
          "duration": 0.14999999999999858
        },
        {
          "name": "A3",
          "midi": 57,
          "time": 43.799999999999784,
          "velocity": 0.7874015748031497,
          "duration": 0.14999999999999858
        },
        {
          "name": "A3",
          "midi": 57,
          "time": 43.94999999999978,
          "velocity": 0.7874015748031497,
          "duration": 0.14999999999999858
        },
        {
          "name": "A3",
          "midi": 57,
          "time": 44.09999999999978,
          "velocity": 0.7874015748031497,
          "duration": 0.14999999999999858
        },
        {
          "name": "G#3",
          "midi": 56,
          "time": 44.24999999999978,
          "velocity": 0.7874015748031497,
          "duration": 0.14999999999999858
        },
        {
          "name": "G#3",
          "midi": 56,
          "time": 44.39999999999978,
          "velocity": 0.7874015748031497,
          "duration": 0.14999999999999858
        },
        {
          "name": "G#3",
          "midi": 56,
          "time": 44.54999999999978,
          "velocity": 0.7874015748031497,
          "duration": 0.14999999999999858
        },
        {
          "name": "A3",
          "midi": 57,
          "time": 44.699999999999775,
          "velocity": 0.7874015748031497,
          "duration": 0.14999999999999858
        },
        {
          "name": "A3",
          "midi": 57,
          "time": 44.849999999999774,
          "velocity": 0.7874015748031497,
          "duration": 0.14999999999999858
        },
        {
          "name": "B3",
          "midi": 59,
          "time": 44.99999999999977,
          "velocity": 0.7874015748031497,
          "duration": 0.14999999999999858
        },
        {
          "name": "B3",
          "midi": 59,
          "time": 45.14999999999977,
          "velocity": 0.7874015748031497,
          "duration": 0.14999999999999858
        },
        {
          "name": "B3",
          "midi": 59,
          "time": 45.29999999999977,
          "velocity": 0.7874015748031497,
          "duration": 0.14999999999999858
        },
        {
          "name": "A3",
          "midi": 57,
          "time": 45.44999999999977,
          "velocity": 0.7874015748031497,
          "duration": 0.14999999999999858
        },
        {
          "name": "A3",
          "midi": 57,
          "time": 45.59999999999977,
          "velocity": 0.7874015748031497,
          "duration": 0.14999999999999858
        },
        {
          "name": "A3",
          "midi": 57,
          "time": 45.749999999999766,
          "velocity": 0.7874015748031497,
          "duration": 0.14999999999999858
        },
        {
          "name": "G#3",
          "midi": 56,
          "time": 45.899999999999764,
          "velocity": 0.7874015748031497,
          "duration": 0.14999999999999858
        },
        {
          "name": "G#3",
          "midi": 56,
          "time": 46.04999999999976,
          "velocity": 0.7874015748031497,
          "duration": 0.14999999999999858
        },
        {
          "name": "A3",
          "midi": 57,
          "time": 46.19999999999976,
          "velocity": 0.7874015748031497,
          "duration": 0.14999999999999858
        },
        {
          "name": "F#3",
          "midi": 54,
          "time": 46.34999999999976,
          "velocity": 0.7874015748031497,
          "duration": 0.14999999999999858
        },
        {
          "name": "F#3",
          "midi": 54,
          "time": 46.49999999999976,
          "velocity": 0.7874015748031497,
          "duration": 0.14999999999999858
        },
        {
          "name": "F#3",
          "midi": 54,
          "time": 46.64999999999976,
          "velocity": 0.7874015748031497,
          "duration": 0.14999999999999858
        },
        {
          "name": "F#3",
          "midi": 54,
          "time": 46.799999999999756,
          "velocity": 0.7874015748031497,
          "duration": 0.29999999999999716
        },
        {
          "name": "C#4",
          "midi": 61,
          "time": 46.799999999999756,
          "velocity": 0.7874015748031497,
          "duration": 0.29999999999999716
        },
        {
          "name": "F#3",
          "midi": 54,
          "time": 47.09999999999975,
          "velocity": 0.7874015748031497,
          "duration": 0.14999999999999858
        },
        {
          "name": "F#3",
          "midi": 54,
          "time": 47.24999999999975,
          "velocity": 0.7874015748031497,
          "duration": 0.14999999999999858
        },
        {
          "name": "A3",
          "midi": 57,
          "time": 47.39999999999975,
          "velocity": 0.7874015748031497,
          "duration": 0.14999999999999858
        },
        {
          "name": "F#3",
          "midi": 54,
          "time": 47.54999999999975,
          "velocity": 0.7874015748031497,
          "duration": 0.14999999999999858
        },
        {
          "name": "F#3",
          "midi": 54,
          "time": 47.69999999999975,
          "velocity": 0.7874015748031497,
          "duration": 0.14999999999999858
        },
        {
          "name": "F#3",
          "midi": 54,
          "time": 47.849999999999746,
          "velocity": 0.7874015748031497,
          "duration": 0.14999999999999858
        },
        {
          "name": "F#3",
          "midi": 54,
          "time": 47.999999999999744,
          "velocity": 0.7874015748031497,
          "duration": 0.29999999999999716
        },
        {
          "name": "C#4",
          "midi": 61,
          "time": 47.999999999999744,
          "velocity": 0.7874015748031497,
          "duration": 0.29999999999999716
        },
        {
          "name": "F#3",
          "midi": 54,
          "time": 48.29999999999974,
          "velocity": 0.7874015748031497,
          "duration": 0.14999999999999858
        },
        {
          "name": "F#3",
          "midi": 54,
          "time": 48.44999999999974,
          "velocity": 0.7874015748031497,
          "duration": 0.14999999999999858
        },
        {
          "name": "A3",
          "midi": 57,
          "time": 48.59999999999974,
          "velocity": 0.7874015748031497,
          "duration": 0.14999999999999858
        },
        {
          "name": "A3",
          "midi": 57,
          "time": 48.74999999999974,
          "velocity": 0.7874015748031497,
          "duration": 0.14999999999999858
        },
        {
          "name": "A3",
          "midi": 57,
          "time": 48.899999999999736,
          "velocity": 0.7874015748031497,
          "duration": 0.14999999999999858
        },
        {
          "name": "G#3",
          "midi": 56,
          "time": 49.049999999999734,
          "velocity": 0.7874015748031497,
          "duration": 0.14999999999999858
        },
        {
          "name": "G#3",
          "midi": 56,
          "time": 49.19999999999973,
          "velocity": 0.7874015748031497,
          "duration": 0.14999999999999858
        },
        {
          "name": "G#3",
          "midi": 56,
          "time": 49.34999999999973,
          "velocity": 0.7874015748031497,
          "duration": 0.14999999999999858
        },
        {
          "name": "A3",
          "midi": 57,
          "time": 49.49999999999973,
          "velocity": 0.7874015748031497,
          "duration": 0.14999999999999858
        },
        {
          "name": "A3",
          "midi": 57,
          "time": 49.64999999999973,
          "velocity": 0.7874015748031497,
          "duration": 0.14999999999999858
        },
        {
          "name": "E3",
          "midi": 52,
          "time": 49.79999999999973,
          "velocity": 0.7874015748031497,
          "duration": 0.14999999999999858
        },
        {
          "name": "E3",
          "midi": 52,
          "time": 49.949999999999726,
          "velocity": 0.7874015748031497,
          "duration": 0.14999999999999858
        },
        {
          "name": "E3",
          "midi": 52,
          "time": 50.099999999999724,
          "velocity": 0.7874015748031497,
          "duration": 0.14999999999999858
        },
        {
          "name": "B3",
          "midi": 59,
          "time": 50.24999999999972,
          "velocity": 0.7874015748031497,
          "duration": 0.14999999999999858
        },
        {
          "name": "B3",
          "midi": 59,
          "time": 50.39999999999972,
          "velocity": 0.7874015748031497,
          "duration": 0.14999999999999858
        },
        {
          "name": "B3",
          "midi": 59,
          "time": 50.54999999999972,
          "velocity": 0.7874015748031497,
          "duration": 0.14999999999999858
        },
        {
          "name": "A3",
          "midi": 57,
          "time": 50.69999999999972,
          "velocity": 0.7874015748031497,
          "duration": 0.14999999999999858
        },
        {
          "name": "A3",
          "midi": 57,
          "time": 50.84999999999972,
          "velocity": 0.7874015748031497,
          "duration": 0.14999999999999858
        },
        {
          "name": "E3",
          "midi": 52,
          "time": 50.999999999999716,
          "velocity": 0.7874015748031497,
          "duration": 0.29999999999999716
        },
        {
          "name": "B3",
          "midi": 59,
          "time": 50.999999999999716,
          "velocity": 0.7874015748031497,
          "duration": 0.29999999999999716
        },
        {
          "name": "E3",
          "midi": 52,
          "time": 51.29999999999971,
          "velocity": 0.7874015748031497,
          "duration": 0.14999999999999858
        },
        {
          "name": "E3",
          "midi": 52,
          "time": 51.44999999999971,
          "velocity": 0.7874015748031497,
          "duration": 0.14999999999999858
        },
        {
          "name": "G3",
          "midi": 55,
          "time": 51.59999999999971,
          "velocity": 0.7874015748031497,
          "duration": 0.29999999999999716
        },
        {
          "name": "D4",
          "midi": 62,
          "time": 51.59999999999971,
          "velocity": 0.7874015748031497,
          "duration": 0.29999999999999716
        },
        {
          "name": "G3",
          "midi": 55,
          "time": 51.89999999999971,
          "velocity": 0.7874015748031497,
          "duration": 0.14999999999999858
        },
        {
          "name": "G3",
          "midi": 55,
          "time": 52.049999999999706,
          "velocity": 0.7874015748031497,
          "duration": 0.14999999999999858
        },
        {
          "name": "A3",
          "midi": 57,
          "time": 52.199999999999704,
          "velocity": 0.7874015748031497,
          "duration": 0.29999999999999716
        },
        {
          "name": "E4",
          "midi": 64,
          "time": 52.199999999999704,
          "velocity": 0.7874015748031497,
          "duration": 0.29999999999999716
        },
        {
          "name": "A3",
          "midi": 57,
          "time": 52.4999999999997,
          "velocity": 0.7874015748031497,
          "duration": 0.14999999999999858
        },
        {
          "name": "A3",
          "midi": 57,
          "time": 52.6499999999997,
          "velocity": 0.7874015748031497,
          "duration": 0.14999999999999858
        },
        {
          "name": "E3",
          "midi": 52,
          "time": 52.7999999999997,
          "velocity": 0.7874015748031497,
          "duration": 0.29999999999999716
        },
        {
          "name": "B3",
          "midi": 59,
          "time": 52.7999999999997,
          "velocity": 0.7874015748031497,
          "duration": 0.29999999999999716
        },
        {
          "name": "E3",
          "midi": 52,
          "time": 53.099999999999696,
          "velocity": 0.7874015748031497,
          "duration": 0.14999999999999858
        },
        {
          "name": "E3",
          "midi": 52,
          "time": 53.249999999999694,
          "velocity": 0.7874015748031497,
          "duration": 0.14999999999999858
        },
        {
          "name": "G2",
          "midi": 43,
          "time": 53.39999999999969,
          "velocity": 0.7874015748031497,
          "duration": 0.29999999999999716
        },
        {
          "name": "D3",
          "midi": 50,
          "time": 53.39999999999969,
          "velocity": 0.7874015748031497,
          "duration": 0.29999999999999716
        },
        {
          "name": "G2",
          "midi": 43,
          "time": 53.69999999999969,
          "velocity": 0.7874015748031497,
          "duration": 0.14999999999999858
        },
        {
          "name": "G2",
          "midi": 43,
          "time": 53.84999999999969,
          "velocity": 0.7874015748031497,
          "duration": 0.14999999999999858
        },
        {
          "name": "C3",
          "midi": 48,
          "time": 53.99999999999969,
          "velocity": 0.7874015748031497,
          "duration": 0.29999999999999716
        },
        {
          "name": "G3",
          "midi": 55,
          "time": 53.99999999999969,
          "velocity": 0.7874015748031497,
          "duration": 0.29999999999999716
        },
        {
          "name": "C3",
          "midi": 48,
          "time": 54.299999999999685,
          "velocity": 0.7874015748031497,
          "duration": 0.14999999999999858
        },
        {
          "name": "C3",
          "midi": 48,
          "time": 54.44999999999968,
          "velocity": 0.7874015748031497,
          "duration": 0.14999999999999858
        },
        {
          "name": "D3",
          "midi": 50,
          "time": 54.59999999999968,
          "velocity": 0.7874015748031497,
          "duration": 0.29999999999999716
        },
        {
          "name": "A3",
          "midi": 57,
          "time": 54.59999999999968,
          "velocity": 0.7874015748031497,
          "duration": 0.29999999999999716
        },
        {
          "name": "B2",
          "midi": 47,
          "time": 54.89999999999968,
          "velocity": 0.7874015748031497,
          "duration": 0.29999999999999716
        },
        {
          "name": "F#3",
          "midi": 54,
          "time": 54.89999999999968,
          "velocity": 0.7874015748031497,
          "duration": 0.29999999999999716
        },
        {
          "name": "E3",
          "midi": 52,
          "time": 55.199999999999676,
          "velocity": 0.7874015748031497,
          "duration": 0.29999999999999716
        },
        {
          "name": "B3",
          "midi": 59,
          "time": 55.199999999999676,
          "velocity": 0.7874015748031497,
          "duration": 0.29999999999999716
        },
        {
          "name": "E3",
          "midi": 52,
          "time": 55.49999999999967,
          "velocity": 0.7874015748031497,
          "duration": 0.14999999999999858
        },
        {
          "name": "E3",
          "midi": 52,
          "time": 55.64999999999967,
          "velocity": 0.7874015748031497,
          "duration": 0.14999999999999858
        },
        {
          "name": "E3",
          "midi": 52,
          "time": 55.79999999999967,
          "velocity": 0.7874015748031497,
          "duration": 0.29999999999999716
        },
        {
          "name": "B3",
          "midi": 59,
          "time": 55.79999999999967,
          "velocity": 0.7874015748031497,
          "duration": 0.29999999999999716
        },
        {
          "name": "E3",
          "midi": 52,
          "time": 56.09999999999967,
          "velocity": 0.7874015748031497,
          "duration": 0.14999999999999858
        },
        {
          "name": "E3",
          "midi": 52,
          "time": 56.249999999999666,
          "velocity": 0.7874015748031497,
          "duration": 0.14999999999999858
        },
        {
          "name": "G3",
          "midi": 55,
          "time": 56.399999999999665,
          "velocity": 0.7874015748031497,
          "duration": 0.29999999999999716
        },
        {
          "name": "D4",
          "midi": 62,
          "time": 56.399999999999665,
          "velocity": 0.7874015748031497,
          "duration": 0.29999999999999716
        },
        {
          "name": "G3",
          "midi": 55,
          "time": 56.69999999999966,
          "velocity": 0.7874015748031497,
          "duration": 0.14999999999999858
        },
        {
          "name": "G3",
          "midi": 55,
          "time": 56.84999999999966,
          "velocity": 0.7874015748031497,
          "duration": 0.14999999999999858
        },
        {
          "name": "A3",
          "midi": 57,
          "time": 56.99999999999966,
          "velocity": 0.7874015748031497,
          "duration": 0.29999999999999716
        },
        {
          "name": "E4",
          "midi": 64,
          "time": 56.99999999999966,
          "velocity": 0.7874015748031497,
          "duration": 0.29999999999999716
        },
        {
          "name": "A3",
          "midi": 57,
          "time": 57.299999999999656,
          "velocity": 0.7874015748031497,
          "duration": 0.14999999999999858
        },
        {
          "name": "A3",
          "midi": 57,
          "time": 57.449999999999655,
          "velocity": 0.7874015748031497,
          "duration": 0.14999999999999858
        },
        {
          "name": "E3",
          "midi": 52,
          "time": 57.59999999999965,
          "velocity": 0.7874015748031497,
          "duration": 0.29999999999999716
        },
        {
          "name": "B3",
          "midi": 59,
          "time": 57.59999999999965,
          "velocity": 0.7874015748031497,
          "duration": 0.29999999999999716
        },
        {
          "name": "E3",
          "midi": 52,
          "time": 57.89999999999965,
          "velocity": 0.7874015748031497,
          "duration": 0.14999999999999858
        },
        {
          "name": "E3",
          "midi": 52,
          "time": 58.04999999999965,
          "velocity": 0.7874015748031497,
          "duration": 0.14999999999999858
        },
        {
          "name": "G2",
          "midi": 43,
          "time": 58.19999999999965,
          "velocity": 0.7874015748031497,
          "duration": 0.29999999999999716
        },
        {
          "name": "D3",
          "midi": 50,
          "time": 58.19999999999965,
          "velocity": 0.7874015748031497,
          "duration": 0.29999999999999716
        },
        {
          "name": "G2",
          "midi": 43,
          "time": 58.499999999999645,
          "velocity": 0.7874015748031497,
          "duration": 0.14999999999999858
        },
        {
          "name": "G2",
          "midi": 43,
          "time": 58.64999999999964,
          "velocity": 0.7874015748031497,
          "duration": 0.14999999999999858
        },
        {
          "name": "C3",
          "midi": 48,
          "time": 58.79999999999964,
          "velocity": 0.7874015748031497,
          "duration": 0.29999999999999716
        },
        {
          "name": "G3",
          "midi": 55,
          "time": 58.79999999999964,
          "velocity": 0.7874015748031497,
          "duration": 0.29999999999999716
        },
        {
          "name": "C3",
          "midi": 48,
          "time": 59.09999999999964,
          "velocity": 0.7874015748031497,
          "duration": 0.14999999999999858
        },
        {
          "name": "C3",
          "midi": 48,
          "time": 59.24999999999964,
          "velocity": 0.7874015748031497,
          "duration": 0.14999999999999858
        },
        {
          "name": "D3",
          "midi": 50,
          "time": 59.399999999999636,
          "velocity": 0.7874015748031497,
          "duration": 0.29999999999999716
        },
        {
          "name": "A3",
          "midi": 57,
          "time": 59.399999999999636,
          "velocity": 0.7874015748031497,
          "duration": 0.29999999999999716
        },
        {
          "name": "B2",
          "midi": 47,
          "time": 59.69999999999963,
          "velocity": 0.7874015748031497,
          "duration": 0.29999999999999716
        },
        {
          "name": "F#3",
          "midi": 54,
          "time": 59.69999999999963,
          "velocity": 0.7874015748031497,
          "duration": 0.29999999999999716
        },
        {
          "name": "E3",
          "midi": 52,
          "time": 59.99999999999963,
          "velocity": 0.7874015748031497,
          "duration": 0.6000000000000014
        },
        {
          "name": "B3",
          "midi": 59,
          "time": 59.99999999999963,
          "velocity": 0.7874015748031497,
          "duration": 0.6000000000000014
        },
        {
          "name": "G3",
          "midi": 55,
          "time": 60.59999999999963,
          "velocity": 0.7874015748031497,
          "duration": 0.14999999999999858
        },
        {
          "name": "D4",
          "midi": 62,
          "time": 60.59999999999963,
          "velocity": 0.7874015748031497,
          "duration": 0.14999999999999858
        },
        {
          "name": "G3",
          "midi": 55,
          "time": 60.74999999999963,
          "velocity": 0.7874015748031497,
          "duration": 0.14999999999999858
        },
        {
          "name": "D4",
          "midi": 62,
          "time": 60.74999999999963,
          "velocity": 0.7874015748031497,
          "duration": 0.14999999999999858
        },
        {
          "name": "G3",
          "midi": 55,
          "time": 61.04999999999963,
          "velocity": 0.7874015748031497,
          "duration": 0.14999999999999858
        },
        {
          "name": "D4",
          "midi": 62,
          "time": 61.04999999999963,
          "velocity": 0.7874015748031497,
          "duration": 0.14999999999999858
        },
        {
          "name": "D3",
          "midi": 50,
          "time": 61.199999999999626,
          "velocity": 0.7874015748031497,
          "duration": 0.14999999999999858
        },
        {
          "name": "A3",
          "midi": 57,
          "time": 61.199999999999626,
          "velocity": 0.7874015748031497,
          "duration": 0.14999999999999858
        },
        {
          "name": "D3",
          "midi": 50,
          "time": 61.349999999999625,
          "velocity": 0.7874015748031497,
          "duration": 0.14999999999999858
        },
        {
          "name": "A3",
          "midi": 57,
          "time": 61.349999999999625,
          "velocity": 0.7874015748031497,
          "duration": 0.14999999999999858
        },
        {
          "name": "D3",
          "midi": 50,
          "time": 61.64999999999962,
          "velocity": 0.7874015748031497,
          "duration": 0.14999999999999858
        },
        {
          "name": "A3",
          "midi": 57,
          "time": 61.64999999999962,
          "velocity": 0.7874015748031497,
          "duration": 0.14999999999999858
        },
        {
          "name": "E3",
          "midi": 52,
          "time": 61.79999999999962,
          "velocity": 0.7874015748031497,
          "duration": 0.14999999999999858
        },
        {
          "name": "B3",
          "midi": 59,
          "time": 61.79999999999962,
          "velocity": 0.7874015748031497,
          "duration": 0.14999999999999858
        },
        {
          "name": "E3",
          "midi": 52,
          "time": 61.94999999999962,
          "velocity": 0.7874015748031497,
          "duration": 0.14999999999999858
        },
        {
          "name": "B3",
          "midi": 59,
          "time": 61.94999999999962,
          "velocity": 0.7874015748031497,
          "duration": 0.14999999999999858
        },
        {
          "name": "E3",
          "midi": 52,
          "time": 62.249999999999616,
          "velocity": 0.7874015748031497,
          "duration": 0.14999999999999858
        },
        {
          "name": "B3",
          "midi": 59,
          "time": 62.249999999999616,
          "velocity": 0.7874015748031497,
          "duration": 0.14999999999999858
        },
        {
          "name": "E3",
          "midi": 52,
          "time": 62.398749999999616,
          "velocity": 0.7874015748031497,
          "duration": 0.301249999999996
        },
        {
          "name": "B3",
          "midi": 59,
          "time": 62.399999999999615,
          "velocity": 0.7874015748031497,
          "duration": 0.29999999999999716
        },
        {
          "name": "E3",
          "midi": 52,
          "time": 62.69999999999961,
          "velocity": 0.7874015748031497,
          "duration": 0.14874999999999972
        },
        {
          "name": "B3",
          "midi": 59,
          "time": 62.69999999999961,
          "velocity": 0.7874015748031497,
          "duration": 0.14999999999999858
        },
        {
          "name": "D3",
          "midi": 50,
          "time": 62.84999999999961,
          "velocity": 0.7874015748031497,
          "duration": 0.14999999999999858
        },
        {
          "name": "A3",
          "midi": 57,
          "time": 62.84999999999961,
          "velocity": 0.7874015748031497,
          "duration": 0.14999999999999858
        },
        {
          "name": "C3",
          "midi": 48,
          "time": 62.99999999999961,
          "velocity": 0.7874015748031497,
          "duration": 0.14999999999999858
        },
        {
          "name": "G3",
          "midi": 55,
          "time": 62.99999999999961,
          "velocity": 0.7874015748031497,
          "duration": 0.14999999999999858
        },
        {
          "name": "C3",
          "midi": 48,
          "time": 63.14999999999961,
          "velocity": 0.7874015748031497,
          "duration": 0.14999999999999858
        },
        {
          "name": "C3",
          "midi": 48,
          "time": 63.299999999999606,
          "velocity": 0.7874015748031497,
          "duration": 0.14999999999999858
        },
        {
          "name": "C3",
          "midi": 48,
          "time": 63.449999999999605,
          "velocity": 0.7874015748031497,
          "duration": 0.14999999999999858
        },
        {
          "name": "D3",
          "midi": 50,
          "time": 63.5999999999996,
          "velocity": 0.7874015748031497,
          "duration": 0.14999999999999858
        },
        {
          "name": "A3",
          "midi": 57,
          "time": 63.5999999999996,
          "velocity": 0.7874015748031497,
          "duration": 0.14999999999999858
        },
        {
          "name": "D3",
          "midi": 50,
          "time": 63.7499999999996,
          "velocity": 0.7874015748031497,
          "duration": 0.14999999999999858
        },
        {
          "name": "D3",
          "midi": 50,
          "time": 63.8999999999996,
          "velocity": 0.7874015748031497,
          "duration": 0.14999999999999858
        },
        {
          "name": "D3",
          "midi": 50,
          "time": 64.0499999999996,
          "velocity": 0.7874015748031497,
          "duration": 0.15000000000000568
        },
        {
          "name": "G3",
          "midi": 55,
          "time": 64.1999999999996,
          "velocity": 0.7874015748031497,
          "duration": 0.45000000000000284
        },
        {
          "name": "D4",
          "midi": 62,
          "time": 64.1999999999996,
          "velocity": 0.7874015748031497,
          "duration": 0.45000000000000284
        },
        {
          "name": "F#3",
          "midi": 54,
          "time": 64.64999999999961,
          "velocity": 0.7874015748031497,
          "duration": 0.15000000000000568
        },
        {
          "name": "D4",
          "midi": 62,
          "time": 64.64999999999961,
          "velocity": 0.7874015748031497,
          "duration": 0.15000000000000568
        },
        {
          "name": "G3",
          "midi": 55,
          "time": 64.79999999999961,
          "velocity": 0.7874015748031497,
          "duration": 0.29999999999999716
        },
        {
          "name": "D4",
          "midi": 62,
          "time": 64.79999999999961,
          "velocity": 0.7874015748031497,
          "duration": 0.29999999999999716
        },
        {
          "name": "G3",
          "midi": 55,
          "time": 65.39999999999961,
          "velocity": 0.7874015748031497,
          "duration": 0.15000000000000568
        },
        {
          "name": "D4",
          "midi": 62,
          "time": 65.39999999999961,
          "velocity": 0.7874015748031497,
          "duration": 0.15000000000000568
        },
        {
          "name": "G3",
          "midi": 55,
          "time": 65.54999999999961,
          "velocity": 0.7874015748031497,
          "duration": 0.15000000000000568
        },
        {
          "name": "D4",
          "midi": 62,
          "time": 65.54999999999961,
          "velocity": 0.7874015748031497,
          "duration": 0.15000000000000568
        },
        {
          "name": "G3",
          "midi": 55,
          "time": 65.84999999999962,
          "velocity": 0.7874015748031497,
          "duration": 0.15000000000000568
        },
        {
          "name": "D4",
          "midi": 62,
          "time": 65.84999999999962,
          "velocity": 0.7874015748031497,
          "duration": 0.15000000000000568
        },
        {
          "name": "D3",
          "midi": 50,
          "time": 65.99999999999963,
          "velocity": 0.7874015748031497,
          "duration": 0.15000000000000568
        },
        {
          "name": "A3",
          "midi": 57,
          "time": 65.99999999999963,
          "velocity": 0.7874015748031497,
          "duration": 0.15000000000000568
        },
        {
          "name": "D3",
          "midi": 50,
          "time": 66.14999999999964,
          "velocity": 0.7874015748031497,
          "duration": 0.15000000000000568
        },
        {
          "name": "A3",
          "midi": 57,
          "time": 66.14999999999964,
          "velocity": 0.7874015748031497,
          "duration": 0.15000000000000568
        },
        {
          "name": "D3",
          "midi": 50,
          "time": 66.44999999999965,
          "velocity": 0.7874015748031497,
          "duration": 0.15000000000000568
        },
        {
          "name": "A3",
          "midi": 57,
          "time": 66.44999999999965,
          "velocity": 0.7874015748031497,
          "duration": 0.15000000000000568
        },
        {
          "name": "E3",
          "midi": 52,
          "time": 66.59999999999965,
          "velocity": 0.7874015748031497,
          "duration": 0.15000000000000568
        },
        {
          "name": "B3",
          "midi": 59,
          "time": 66.59999999999965,
          "velocity": 0.7874015748031497,
          "duration": 0.15000000000000568
        },
        {
          "name": "E3",
          "midi": 52,
          "time": 66.74999999999966,
          "velocity": 0.7874015748031497,
          "duration": 0.15000000000000568
        },
        {
          "name": "B3",
          "midi": 59,
          "time": 66.74999999999966,
          "velocity": 0.7874015748031497,
          "duration": 0.15000000000000568
        },
        {
          "name": "E3",
          "midi": 52,
          "time": 67.04999999999967,
          "velocity": 0.7874015748031497,
          "duration": 0.15000000000000568
        },
        {
          "name": "B3",
          "midi": 59,
          "time": 67.04999999999967,
          "velocity": 0.7874015748031497,
          "duration": 0.15000000000000568
        },
        {
          "name": "E3",
          "midi": 52,
          "time": 67.19874999999968,
          "velocity": 0.7874015748031497,
          "duration": 0.301249999999996
        },
        {
          "name": "B3",
          "midi": 59,
          "time": 67.19999999999968,
          "velocity": 0.7874015748031497,
          "duration": 0.29999999999999716
        },
        {
          "name": "E3",
          "midi": 52,
          "time": 67.49999999999967,
          "velocity": 0.7874015748031497,
          "duration": 0.14875000000000682
        },
        {
          "name": "B3",
          "midi": 59,
          "time": 67.49999999999967,
          "velocity": 0.7874015748031497,
          "duration": 0.15000000000000568
        },
        {
          "name": "D3",
          "midi": 50,
          "time": 67.64999999999968,
          "velocity": 0.7874015748031497,
          "duration": 0.15000000000000568
        },
        {
          "name": "A3",
          "midi": 57,
          "time": 67.64999999999968,
          "velocity": 0.7874015748031497,
          "duration": 0.15000000000000568
        },
        {
          "name": "C3",
          "midi": 48,
          "time": 67.79999999999968,
          "velocity": 0.7874015748031497,
          "duration": 0.15000000000000568
        },
        {
          "name": "G3",
          "midi": 55,
          "time": 67.79999999999968,
          "velocity": 0.7874015748031497,
          "duration": 0.15000000000000568
        },
        {
          "name": "C3",
          "midi": 48,
          "time": 67.94999999999969,
          "velocity": 0.7874015748031497,
          "duration": 0.15000000000000568
        },
        {
          "name": "C3",
          "midi": 48,
          "time": 68.0999999999997,
          "velocity": 0.7874015748031497,
          "duration": 0.15000000000000568
        },
        {
          "name": "C3",
          "midi": 48,
          "time": 68.2499999999997,
          "velocity": 0.7874015748031497,
          "duration": 0.15000000000000568
        },
        {
          "name": "B2",
          "midi": 47,
          "time": 68.39999999999971,
          "velocity": 0.7874015748031497,
          "duration": 0.15000000000000568
        },
        {
          "name": "F#3",
          "midi": 54,
          "time": 68.39999999999971,
          "velocity": 0.7874015748031497,
          "duration": 0.15000000000000568
        },
        {
          "name": "B2",
          "midi": 47,
          "time": 68.54999999999971,
          "velocity": 0.7874015748031497,
          "duration": 0.15000000000000568
        },
        {
          "name": "B2",
          "midi": 47,
          "time": 68.69999999999972,
          "velocity": 0.7874015748031497,
          "duration": 0.15000000000000568
        },
        {
          "name": "B2",
          "midi": 47,
          "time": 68.84999999999972,
          "velocity": 0.7874015748031497,
          "duration": 0.15000000000000568
        },
        {
          "name": "F#3",
          "midi": 54,
          "time": 68.84999999999972,
          "velocity": 0.7874015748031497,
          "duration": 0.15000000000000568
        },
        {
          "name": "E2",
          "midi": 40,
          "time": 68.99999999999973,
          "velocity": 0.7874015748031497,
          "duration": 0.15000000000000568
        },
        {
          "name": "E2",
          "midi": 40,
          "time": 69.14999999999974,
          "velocity": 0.7874015748031497,
          "duration": 0.15000000000000568
        },
        {
          "name": "E2",
          "midi": 40,
          "time": 69.29999999999974,
          "velocity": 0.7874015748031497,
          "duration": 0.15000000000000568
        },
        {
          "name": "E2",
          "midi": 40,
          "time": 69.44999999999975,
          "velocity": 0.7874015748031497,
          "duration": 0.15000000000000568
        },
        {
          "name": "E2",
          "midi": 40,
          "time": 69.59999999999975,
          "velocity": 0.7874015748031497,
          "duration": 0.5925000000000011
        },
        {
          "name": "B2",
          "midi": 47,
          "time": 69.59999999999975,
          "velocity": 0.7874015748031497,
          "duration": 0.5925000000000011
        },
        {
          "name": "G2",
          "midi": 43,
          "time": 70.19999999999975,
          "velocity": 0.7874015748031497,
          "duration": 0.15000000000000568
        },
        {
          "name": "G2",
          "midi": 43,
          "time": 70.34999999999975,
          "velocity": 0.7874015748031497,
          "duration": 0.15000000000000568
        },
        {
          "name": "G2",
          "midi": 43,
          "time": 70.49999999999976,
          "velocity": 0.7874015748031497,
          "duration": 0.15000000000000568
        },
        {
          "name": "D3",
          "midi": 50,
          "time": 70.49999999999976,
          "velocity": 0.7874015748031497,
          "duration": 0.15000000000000568
        },
        {
          "name": "G2",
          "midi": 43,
          "time": 70.64999999999976,
          "velocity": 0.7874015748031497,
          "duration": 0.15000000000000568
        },
        {
          "name": "G2",
          "midi": 43,
          "time": 70.79999999999977,
          "velocity": 0.7874015748031497,
          "duration": 0.15000000000000568
        },
        {
          "name": "G2",
          "midi": 43,
          "time": 70.94999999999978,
          "velocity": 0.7874015748031497,
          "duration": 0.15000000000000568
        },
        {
          "name": "G2",
          "midi": 43,
          "time": 71.09999999999978,
          "velocity": 0.7874015748031497,
          "duration": 0.15000000000000568
        },
        {
          "name": "D3",
          "midi": 50,
          "time": 71.09999999999978,
          "velocity": 0.7874015748031497,
          "duration": 0.15000000000000568
        },
        {
          "name": "G2",
          "midi": 43,
          "time": 71.24999999999979,
          "velocity": 0.7874015748031497,
          "duration": 0.15000000000000568
        },
        {
          "name": "D3",
          "midi": 50,
          "time": 71.39999999999979,
          "velocity": 0.7874015748031497,
          "duration": 0.15000000000000568
        },
        {
          "name": "D3",
          "midi": 50,
          "time": 71.5499999999998,
          "velocity": 0.7874015748031497,
          "duration": 0.15000000000000568
        },
        {
          "name": "D3",
          "midi": 50,
          "time": 71.6999999999998,
          "velocity": 0.7874015748031497,
          "duration": 0.15000000000000568
        },
        {
          "name": "A3",
          "midi": 57,
          "time": 71.6999999999998,
          "velocity": 0.7874015748031497,
          "duration": 0.15000000000000568
        },
        {
          "name": "D3",
          "midi": 50,
          "time": 71.84999999999981,
          "velocity": 0.7874015748031497,
          "duration": 0.15000000000000568
        },
        {
          "name": "D3",
          "midi": 50,
          "time": 71.99999999999982,
          "velocity": 0.7874015748031497,
          "duration": 0.15000000000000568
        },
        {
          "name": "D3",
          "midi": 50,
          "time": 72.14999999999982,
          "velocity": 0.7874015748031497,
          "duration": 0.15000000000000568
        },
        {
          "name": "D3",
          "midi": 50,
          "time": 72.29999999999983,
          "velocity": 0.7874015748031497,
          "duration": 0.15000000000000568
        },
        {
          "name": "A3",
          "midi": 57,
          "time": 72.29999999999983,
          "velocity": 0.7874015748031497,
          "duration": 0.15000000000000568
        },
        {
          "name": "D3",
          "midi": 50,
          "time": 72.44999999999983,
          "velocity": 0.7874015748031497,
          "duration": 0.15000000000000568
        },
        {
          "name": "E3",
          "midi": 52,
          "time": 72.59999999999984,
          "velocity": 0.7874015748031497,
          "duration": 0.15000000000000568
        },
        {
          "name": "E3",
          "midi": 52,
          "time": 72.74999999999984,
          "velocity": 0.7874015748031497,
          "duration": 0.15000000000000568
        },
        {
          "name": "E3",
          "midi": 52,
          "time": 72.89999999999985,
          "velocity": 0.7874015748031497,
          "duration": 0.15000000000000568
        },
        {
          "name": "B3",
          "midi": 59,
          "time": 72.89999999999985,
          "velocity": 0.7874015748031497,
          "duration": 0.15000000000000568
        },
        {
          "name": "E3",
          "midi": 52,
          "time": 73.04999999999986,
          "velocity": 0.7874015748031497,
          "duration": 0.15000000000000568
        },
        {
          "name": "E3",
          "midi": 52,
          "time": 73.19999999999986,
          "velocity": 0.7874015748031497,
          "duration": 0.15000000000000568
        },
        {
          "name": "E3",
          "midi": 52,
          "time": 73.34999999999987,
          "velocity": 0.7874015748031497,
          "duration": 0.15000000000000568
        },
        {
          "name": "E3",
          "midi": 52,
          "time": 73.49999999999987,
          "velocity": 0.7874015748031497,
          "duration": 0.15000000000000568
        },
        {
          "name": "B3",
          "midi": 59,
          "time": 73.49999999999987,
          "velocity": 0.7874015748031497,
          "duration": 0.15000000000000568
        },
        {
          "name": "E3",
          "midi": 52,
          "time": 73.64999999999988,
          "velocity": 0.7874015748031497,
          "duration": 0.15000000000000568
        },
        {
          "name": "B2",
          "midi": 47,
          "time": 73.79999999999988,
          "velocity": 0.7874015748031497,
          "duration": 0.45000000000000284
        },
        {
          "name": "F#3",
          "midi": 54,
          "time": 73.79999999999988,
          "velocity": 0.7874015748031497,
          "duration": 0.45000000000000284
        },
        {
          "name": "A2",
          "midi": 45,
          "time": 74.24999999999989,
          "velocity": 0.7874015748031497,
          "duration": 0.15000000000000568
        },
        {
          "name": "E3",
          "midi": 52,
          "time": 74.24999999999989,
          "velocity": 0.7874015748031497,
          "duration": 0.15000000000000568
        },
        {
          "name": "B2",
          "midi": 47,
          "time": 74.39999999999989,
          "velocity": 0.7874015748031497,
          "duration": 0.29999999999999716
        },
        {
          "name": "F#3",
          "midi": 54,
          "time": 74.39999999999989,
          "velocity": 0.7874015748031497,
          "duration": 0.29999999999999716
        },
        {
          "name": "G3",
          "midi": 55,
          "time": 74.99999999999989,
          "velocity": 0.7874015748031497,
          "duration": 0.15000000000000568
        },
        {
          "name": "D4",
          "midi": 62,
          "time": 74.99999999999989,
          "velocity": 0.7874015748031497,
          "duration": 0.15000000000000568
        },
        {
          "name": "G3",
          "midi": 55,
          "time": 75.14999999999989,
          "velocity": 0.7874015748031497,
          "duration": 0.15000000000000568
        },
        {
          "name": "D4",
          "midi": 62,
          "time": 75.14999999999989,
          "velocity": 0.7874015748031497,
          "duration": 0.15000000000000568
        },
        {
          "name": "G3",
          "midi": 55,
          "time": 75.4499999999999,
          "velocity": 0.7874015748031497,
          "duration": 0.15000000000000568
        },
        {
          "name": "D4",
          "midi": 62,
          "time": 75.4499999999999,
          "velocity": 0.7874015748031497,
          "duration": 0.15000000000000568
        },
        {
          "name": "D3",
          "midi": 50,
          "time": 75.59999999999991,
          "velocity": 0.7874015748031497,
          "duration": 0.15000000000000568
        },
        {
          "name": "A3",
          "midi": 57,
          "time": 75.59999999999991,
          "velocity": 0.7874015748031497,
          "duration": 0.15000000000000568
        },
        {
          "name": "D3",
          "midi": 50,
          "time": 75.74999999999991,
          "velocity": 0.7874015748031497,
          "duration": 0.15000000000000568
        },
        {
          "name": "A3",
          "midi": 57,
          "time": 75.74999999999991,
          "velocity": 0.7874015748031497,
          "duration": 0.15000000000000568
        },
        {
          "name": "D3",
          "midi": 50,
          "time": 76.04999999999993,
          "velocity": 0.7874015748031497,
          "duration": 0.15000000000000568
        },
        {
          "name": "A3",
          "midi": 57,
          "time": 76.04999999999993,
          "velocity": 0.7874015748031497,
          "duration": 0.15000000000000568
        },
        {
          "name": "E3",
          "midi": 52,
          "time": 76.19999999999993,
          "velocity": 0.7874015748031497,
          "duration": 0.15000000000000568
        },
        {
          "name": "B3",
          "midi": 59,
          "time": 76.19999999999993,
          "velocity": 0.7874015748031497,
          "duration": 0.15000000000000568
        },
        {
          "name": "E3",
          "midi": 52,
          "time": 76.34999999999994,
          "velocity": 0.7874015748031497,
          "duration": 0.15000000000000568
        },
        {
          "name": "B3",
          "midi": 59,
          "time": 76.34999999999994,
          "velocity": 0.7874015748031497,
          "duration": 0.15000000000000568
        },
        {
          "name": "E3",
          "midi": 52,
          "time": 76.64999999999995,
          "velocity": 0.7874015748031497,
          "duration": 0.15000000000000568
        },
        {
          "name": "B3",
          "midi": 59,
          "time": 76.64999999999995,
          "velocity": 0.7874015748031497,
          "duration": 0.15000000000000568
        },
        {
          "name": "E3",
          "midi": 52,
          "time": 76.79874999999996,
          "velocity": 0.7874015748031497,
          "duration": 0.301249999999996
        },
        {
          "name": "B3",
          "midi": 59,
          "time": 76.79999999999995,
          "velocity": 0.7874015748031497,
          "duration": 0.29999999999999716
        },
        {
          "name": "E3",
          "midi": 52,
          "time": 77.09999999999995,
          "velocity": 0.7874015748031497,
          "duration": 0.14875000000000682
        },
        {
          "name": "B3",
          "midi": 59,
          "time": 77.09999999999995,
          "velocity": 0.7874015748031497,
          "duration": 0.15000000000000568
        },
        {
          "name": "D3",
          "midi": 50,
          "time": 77.24999999999996,
          "velocity": 0.7874015748031497,
          "duration": 0.15000000000000568
        },
        {
          "name": "A3",
          "midi": 57,
          "time": 77.24999999999996,
          "velocity": 0.7874015748031497,
          "duration": 0.15000000000000568
        },
        {
          "name": "C3",
          "midi": 48,
          "time": 77.39999999999996,
          "velocity": 0.7874015748031497,
          "duration": 0.15000000000000568
        },
        {
          "name": "G3",
          "midi": 55,
          "time": 77.39999999999996,
          "velocity": 0.7874015748031497,
          "duration": 0.15000000000000568
        },
        {
          "name": "C3",
          "midi": 48,
          "time": 77.54999999999997,
          "velocity": 0.7874015748031497,
          "duration": 0.15000000000000568
        },
        {
          "name": "C3",
          "midi": 48,
          "time": 77.69999999999997,
          "velocity": 0.7874015748031497,
          "duration": 0.15000000000000568
        },
        {
          "name": "C3",
          "midi": 48,
          "time": 77.84999999999998,
          "velocity": 0.7874015748031497,
          "duration": 0.15000000000000568
        },
        {
          "name": "D3",
          "midi": 50,
          "time": 77.99999999999999,
          "velocity": 0.7874015748031497,
          "duration": 0.15000000000000568
        },
        {
          "name": "A3",
          "midi": 57,
          "time": 77.99999999999999,
          "velocity": 0.7874015748031497,
          "duration": 0.15000000000000568
        },
        {
          "name": "D3",
          "midi": 50,
          "time": 78.14999999999999,
          "velocity": 0.7874015748031497,
          "duration": 0.15000000000000568
        },
        {
          "name": "D3",
          "midi": 50,
          "time": 78.3,
          "velocity": 0.7874015748031497,
          "duration": 0.15000000000000568
        },
        {
          "name": "D3",
          "midi": 50,
          "time": 78.45,
          "velocity": 0.7874015748031497,
          "duration": 0.15000000000000568
        },
        {
          "name": "G3",
          "midi": 55,
          "time": 78.60000000000001,
          "velocity": 0.7874015748031497,
          "duration": 0.45000000000000284
        },
        {
          "name": "D4",
          "midi": 62,
          "time": 78.60000000000001,
          "velocity": 0.7874015748031497,
          "duration": 0.45000000000000284
        },
        {
          "name": "F#3",
          "midi": 54,
          "time": 79.05000000000001,
          "velocity": 0.7874015748031497,
          "duration": 0.15000000000000568
        },
        {
          "name": "D4",
          "midi": 62,
          "time": 79.05000000000001,
          "velocity": 0.7874015748031497,
          "duration": 0.15000000000000568
        },
        {
          "name": "G3",
          "midi": 55,
          "time": 79.20000000000002,
          "velocity": 0.7874015748031497,
          "duration": 0.45000000000000284
        },
        {
          "name": "D4",
          "midi": 62,
          "time": 79.20000000000002,
          "velocity": 0.7874015748031497,
          "duration": 0.45000000000000284
        },
        {
          "name": "E5",
          "midi": 76,
          "time": 79.80000000000003,
          "velocity": 0.7874015748031497,
          "duration": 0.15000000000000568
        },
        {
          "name": "E5",
          "midi": 76,
          "time": 79.95000000000003,
          "velocity": 0.7874015748031497,
          "duration": 0.07500000000000284
        },
        {
          "name": "E5",
          "midi": 76,
          "time": 80.02500000000003,
          "velocity": 0.7874015748031497,
          "duration": 0.07500000000000284
        },
        {
          "name": "E5",
          "midi": 76,
          "time": 80.10000000000004,
          "velocity": 0.7874015748031497,
          "duration": 0.15125000000000455
        },
        {
          "name": "B4",
          "midi": 71,
          "time": 80.25000000000004,
          "velocity": 0.7874015748031497,
          "duration": 0.15000000000000568
        },
        {
          "name": "C5",
          "midi": 72,
          "time": 80.40125000000005,
          "velocity": 0.7874015748031497,
          "duration": 0.15000000000000568
        },
        {
          "name": "C5",
          "midi": 72,
          "time": 80.55000000000005,
          "velocity": 0.7874015748031497,
          "duration": 0.15000000000000568
        },
        {
          "name": "C5",
          "midi": 72,
          "time": 80.70000000000006,
          "velocity": 0.7874015748031497,
          "duration": 0.15000000000000568
        },
        {
          "name": "B4",
          "midi": 71,
          "time": 80.85000000000007,
          "velocity": 0.7874015748031497,
          "duration": 0.15000000000000568
        },
        {
          "name": "D5",
          "midi": 74,
          "time": 81.00000000000007,
          "velocity": 0.7874015748031497,
          "duration": 0.15000000000000568
        },
        {
          "name": "D5",
          "midi": 74,
          "time": 81.15000000000008,
          "velocity": 0.7874015748031497,
          "duration": 0.07500000000000284
        },
        {
          "name": "D5",
          "midi": 74,
          "time": 81.22500000000008,
          "velocity": 0.7874015748031497,
          "duration": 0.07500000000000284
        },
        {
          "name": "D5",
          "midi": 74,
          "time": 81.30000000000008,
          "velocity": 0.7874015748031497,
          "duration": 0.15125000000000455
        },
        {
          "name": "A4",
          "midi": 69,
          "time": 81.45000000000009,
          "velocity": 0.7874015748031497,
          "duration": 0.15000000000000568
        },
        {
          "name": "B4",
          "midi": 71,
          "time": 81.6000000000001,
          "velocity": 0.7874015748031497,
          "duration": 0.15000000000000568
        },
        {
          "name": "B4",
          "midi": 71,
          "time": 81.7487500000001,
          "velocity": 0.7874015748031497,
          "duration": 0.15000000000000568
        },
        {
          "name": "B4",
          "midi": 71,
          "time": 81.8987500000001,
          "velocity": 0.7874015748031497,
          "duration": 0.15000000000000568
        },
        {
          "name": "A4",
          "midi": 69,
          "time": 82.05000000000011,
          "velocity": 0.7874015748031497,
          "duration": 0.15000000000000568
        },
        {
          "name": "C5",
          "midi": 72,
          "time": 82.20000000000012,
          "velocity": 0.7874015748031497,
          "duration": 0.15000000000000568
        },
        {
          "name": "C5",
          "midi": 72,
          "time": 82.35000000000012,
          "velocity": 0.7874015748031497,
          "duration": 0.07500000000000284
        },
        {
          "name": "C5",
          "midi": 72,
          "time": 82.42500000000013,
          "velocity": 0.7874015748031497,
          "duration": 0.07500000000000284
        },
        {
          "name": "C5",
          "midi": 72,
          "time": 82.50000000000013,
          "velocity": 0.7874015748031497,
          "duration": 0.15125000000000455
        },
        {
          "name": "G4",
          "midi": 67,
          "time": 82.65000000000013,
          "velocity": 0.7874015748031497,
          "duration": 0.15000000000000568
        },
        {
          "name": "A4",
          "midi": 69,
          "time": 82.80000000000014,
          "velocity": 0.7874015748031497,
          "duration": 0.15000000000000568
        },
        {
          "name": "A4",
          "midi": 69,
          "time": 82.94875000000015,
          "velocity": 0.7874015748031497,
          "duration": 0.15000000000000568
        },
        {
          "name": "A4",
          "midi": 69,
          "time": 83.09875000000015,
          "velocity": 0.7874015748031497,
          "duration": 0.15000000000000568
        },
        {
          "name": "A4",
          "midi": 69,
          "time": 83.25000000000016,
          "velocity": 0.7874015748031497,
          "duration": 0.15000000000000568
        },
        {
          "name": "F#4",
          "midi": 66,
          "time": 83.40000000000016,
          "velocity": 0.7874015748031497,
          "duration": 0.22374999999999545
        },
        {
          "name": "D4",
          "midi": 62,
          "time": 83.70000000000016,
          "velocity": 0.7874015748031497,
          "duration": 0.22499999999999432
        },
        {
          "name": "E4",
          "midi": 64,
          "time": 84.00000000000016,
          "velocity": 0.7874015748031497,
          "duration": 0.375
        },
        {
          "name": "E5",
          "midi": 76,
          "time": 84.60000000000015,
          "velocity": 0.7874015748031497,
          "duration": 0.15000000000000568
        },
        {
          "name": "E5",
          "midi": 76,
          "time": 84.75000000000016,
          "velocity": 0.7874015748031497,
          "duration": 0.07500000000000284
        },
        {
          "name": "E5",
          "midi": 76,
          "time": 84.82500000000016,
          "velocity": 0.7874015748031497,
          "duration": 0.07500000000000284
        },
        {
          "name": "E5",
          "midi": 76,
          "time": 84.90000000000016,
          "velocity": 0.7874015748031497,
          "duration": 0.15125000000000455
        },
        {
          "name": "B4",
          "midi": 71,
          "time": 85.05000000000017,
          "velocity": 0.7874015748031497,
          "duration": 0.15000000000000568
        },
        {
          "name": "C5",
          "midi": 72,
          "time": 85.20125000000017,
          "velocity": 0.7874015748031497,
          "duration": 0.15000000000000568
        },
        {
          "name": "C5",
          "midi": 72,
          "time": 85.35000000000018,
          "velocity": 0.7874015748031497,
          "duration": 0.15000000000000568
        },
        {
          "name": "C5",
          "midi": 72,
          "time": 85.50000000000018,
          "velocity": 0.7874015748031497,
          "duration": 0.15000000000000568
        },
        {
          "name": "B4",
          "midi": 71,
          "time": 85.65000000000019,
          "velocity": 0.7874015748031497,
          "duration": 0.15000000000000568
        },
        {
          "name": "D5",
          "midi": 74,
          "time": 85.8000000000002,
          "velocity": 0.7874015748031497,
          "duration": 0.15000000000000568
        },
        {
          "name": "D5",
          "midi": 74,
          "time": 85.9500000000002,
          "velocity": 0.7874015748031497,
          "duration": 0.07500000000000284
        },
        {
          "name": "D5",
          "midi": 74,
          "time": 86.0250000000002,
          "velocity": 0.7874015748031497,
          "duration": 0.07500000000000284
        },
        {
          "name": "D5",
          "midi": 74,
          "time": 86.10000000000021,
          "velocity": 0.7874015748031497,
          "duration": 0.15125000000000455
        },
        {
          "name": "A4",
          "midi": 69,
          "time": 86.25000000000021,
          "velocity": 0.7874015748031497,
          "duration": 0.15000000000000568
        },
        {
          "name": "B4",
          "midi": 71,
          "time": 86.40000000000022,
          "velocity": 0.7874015748031497,
          "duration": 0.15000000000000568
        },
        {
          "name": "B4",
          "midi": 71,
          "time": 86.54875000000023,
          "velocity": 0.7874015748031497,
          "duration": 0.15000000000000568
        },
        {
          "name": "B4",
          "midi": 71,
          "time": 86.69875000000023,
          "velocity": 0.7874015748031497,
          "duration": 0.15000000000000568
        },
        {
          "name": "A4",
          "midi": 69,
          "time": 86.85000000000024,
          "velocity": 0.7874015748031497,
          "duration": 0.15000000000000568
        },
        {
          "name": "C5",
          "midi": 72,
          "time": 87.00000000000024,
          "velocity": 0.7874015748031497,
          "duration": 0.15000000000000568
        },
        {
          "name": "C5",
          "midi": 72,
          "time": 87.15000000000025,
          "velocity": 0.7874015748031497,
          "duration": 0.07500000000000284
        },
        {
          "name": "C5",
          "midi": 72,
          "time": 87.22500000000025,
          "velocity": 0.7874015748031497,
          "duration": 0.07500000000000284
        },
        {
          "name": "C5",
          "midi": 72,
          "time": 87.30000000000025,
          "velocity": 0.7874015748031497,
          "duration": 0.15125000000000455
        },
        {
          "name": "G4",
          "midi": 67,
          "time": 87.45000000000026,
          "velocity": 0.7874015748031497,
          "duration": 0.15000000000000568
        },
        {
          "name": "A4",
          "midi": 69,
          "time": 87.60000000000026,
          "velocity": 0.7874015748031497,
          "duration": 0.15000000000000568
        },
        {
          "name": "A4",
          "midi": 69,
          "time": 87.74875000000027,
          "velocity": 0.7874015748031497,
          "duration": 0.15000000000000568
        },
        {
          "name": "A4",
          "midi": 69,
          "time": 87.89875000000028,
          "velocity": 0.7874015748031497,
          "duration": 0.15000000000000568
        },
        {
          "name": "A4",
          "midi": 69,
          "time": 88.05000000000028,
          "velocity": 0.7874015748031497,
          "duration": 0.15000000000000568
        },
        {
          "name": "F#4",
          "midi": 66,
          "time": 88.20000000000029,
          "velocity": 0.7874015748031497,
          "duration": 0.22374999999999545
        },
        {
          "name": "D4",
          "midi": 62,
          "time": 88.50000000000028,
          "velocity": 0.7874015748031497,
          "duration": 0.22499999999999432
        },
        {
          "name": "E4",
          "midi": 64,
          "time": 88.80000000000028,
          "velocity": 0.7874015748031497,
          "duration": 0.45000000000000284
        },
        {
          "name": "G3",
          "midi": 55,
          "time": 89.40000000000029,
          "velocity": 0.7874015748031497,
          "duration": 0.15000000000000568
        },
        {
          "name": "E3",
          "midi": 52,
          "time": 89.5500000000003,
          "velocity": 0.7874015748031497,
          "duration": 0.15000000000000568
        },
        {
          "name": "E3",
          "midi": 52,
          "time": 89.7000000000003,
          "velocity": 0.7874015748031497,
          "duration": 0.15000000000000568
        },
        {
          "name": "E3",
          "midi": 52,
          "time": 89.8500000000003,
          "velocity": 0.7874015748031497,
          "duration": 0.15000000000000568
        },
        {
          "name": "E3",
          "midi": 52,
          "time": 90.00000000000031,
          "velocity": 0.7874015748031497,
          "duration": 0.29999999999999716
        },
        {
          "name": "B3",
          "midi": 59,
          "time": 90.00000000000031,
          "velocity": 0.7874015748031497,
          "duration": 0.29999999999999716
        },
        {
          "name": "E3",
          "midi": 52,
          "time": 90.30000000000031,
          "velocity": 0.7874015748031497,
          "duration": 0.15000000000000568
        },
        {
          "name": "E3",
          "midi": 52,
          "time": 90.45000000000032,
          "velocity": 0.7874015748031497,
          "duration": 0.15000000000000568
        },
        {
          "name": "G3",
          "midi": 55,
          "time": 90.60000000000032,
          "velocity": 0.7874015748031497,
          "duration": 0.15000000000000568
        },
        {
          "name": "E3",
          "midi": 52,
          "time": 90.75000000000033,
          "velocity": 0.7874015748031497,
          "duration": 0.15000000000000568
        },
        {
          "name": "E3",
          "midi": 52,
          "time": 90.90000000000033,
          "velocity": 0.7874015748031497,
          "duration": 0.15000000000000568
        },
        {
          "name": "E3",
          "midi": 52,
          "time": 91.05000000000034,
          "velocity": 0.7874015748031497,
          "duration": 0.15000000000000568
        },
        {
          "name": "E3",
          "midi": 52,
          "time": 91.20000000000034,
          "velocity": 0.7874015748031497,
          "duration": 0.29999999999999716
        },
        {
          "name": "B3",
          "midi": 59,
          "time": 91.20000000000034,
          "velocity": 0.7874015748031497,
          "duration": 0.29999999999999716
        },
        {
          "name": "E3",
          "midi": 52,
          "time": 91.50000000000034,
          "velocity": 0.7874015748031497,
          "duration": 0.15000000000000568
        },
        {
          "name": "E3",
          "midi": 52,
          "time": 91.65000000000035,
          "velocity": 0.7874015748031497,
          "duration": 0.15000000000000568
        },
        {
          "name": "G3",
          "midi": 55,
          "time": 91.80000000000035,
          "velocity": 0.7874015748031497,
          "duration": 0.15000000000000568
        },
        {
          "name": "G3",
          "midi": 55,
          "time": 91.95000000000036,
          "velocity": 0.7874015748031497,
          "duration": 0.15000000000000568
        },
        {
          "name": "G3",
          "midi": 55,
          "time": 92.10000000000036,
          "velocity": 0.7874015748031497,
          "duration": 0.15000000000000568
        },
        {
          "name": "F#3",
          "midi": 54,
          "time": 92.25000000000037,
          "velocity": 0.7874015748031497,
          "duration": 0.15000000000000568
        },
        {
          "name": "F#3",
          "midi": 54,
          "time": 92.40000000000038,
          "velocity": 0.7874015748031497,
          "duration": 0.15000000000000568
        },
        {
          "name": "F#3",
          "midi": 54,
          "time": 92.55000000000038,
          "velocity": 0.7874015748031497,
          "duration": 0.15000000000000568
        },
        {
          "name": "G3",
          "midi": 55,
          "time": 92.70000000000039,
          "velocity": 0.7874015748031497,
          "duration": 0.15000000000000568
        },
        {
          "name": "G3",
          "midi": 55,
          "time": 92.85000000000039,
          "velocity": 0.7874015748031497,
          "duration": 0.15000000000000568
        },
        {
          "name": "A3",
          "midi": 57,
          "time": 93.0000000000004,
          "velocity": 0.7874015748031497,
          "duration": 0.15000000000000568
        },
        {
          "name": "A3",
          "midi": 57,
          "time": 93.1500000000004,
          "velocity": 0.7874015748031497,
          "duration": 0.15000000000000568
        },
        {
          "name": "A3",
          "midi": 57,
          "time": 93.30000000000041,
          "velocity": 0.7874015748031497,
          "duration": 0.15000000000000568
        },
        {
          "name": "G3",
          "midi": 55,
          "time": 93.45000000000041,
          "velocity": 0.7874015748031497,
          "duration": 0.15000000000000568
        },
        {
          "name": "G3",
          "midi": 55,
          "time": 93.60000000000042,
          "velocity": 0.7874015748031497,
          "duration": 0.15000000000000568
        },
        {
          "name": "G3",
          "midi": 55,
          "time": 93.75000000000043,
          "velocity": 0.7874015748031497,
          "duration": 0.15000000000000568
        },
        {
          "name": "F#3",
          "midi": 54,
          "time": 93.90000000000043,
          "velocity": 0.7874015748031497,
          "duration": 0.15000000000000568
        },
        {
          "name": "F#3",
          "midi": 54,
          "time": 94.05000000000044,
          "velocity": 0.7874015748031497,
          "duration": 0.15000000000000568
        },
        {
          "name": "G3",
          "midi": 55,
          "time": 94.20000000000044,
          "velocity": 0.7874015748031497,
          "duration": 0.15000000000000568
        },
        {
          "name": "E3",
          "midi": 52,
          "time": 94.35000000000045,
          "velocity": 0.7874015748031497,
          "duration": 0.15000000000000568
        },
        {
          "name": "E3",
          "midi": 52,
          "time": 94.50000000000045,
          "velocity": 0.7874015748031497,
          "duration": 0.15000000000000568
        },
        {
          "name": "E3",
          "midi": 52,
          "time": 94.65000000000046,
          "velocity": 0.7874015748031497,
          "duration": 0.15000000000000568
        },
        {
          "name": "E3",
          "midi": 52,
          "time": 94.80000000000047,
          "velocity": 0.7874015748031497,
          "duration": 0.29999999999999716
        },
        {
          "name": "B3",
          "midi": 59,
          "time": 94.80000000000047,
          "velocity": 0.7874015748031497,
          "duration": 0.29999999999999716
        },
        {
          "name": "E3",
          "midi": 52,
          "time": 95.10000000000046,
          "velocity": 0.7874015748031497,
          "duration": 0.15000000000000568
        },
        {
          "name": "E3",
          "midi": 52,
          "time": 95.25000000000047,
          "velocity": 0.7874015748031497,
          "duration": 0.15000000000000568
        },
        {
          "name": "G3",
          "midi": 55,
          "time": 95.40000000000047,
          "velocity": 0.7874015748031497,
          "duration": 0.15000000000000568
        },
        {
          "name": "E3",
          "midi": 52,
          "time": 95.55000000000048,
          "velocity": 0.7874015748031497,
          "duration": 0.15000000000000568
        },
        {
          "name": "E3",
          "midi": 52,
          "time": 95.70000000000049,
          "velocity": 0.7874015748031497,
          "duration": 0.15000000000000568
        },
        {
          "name": "E3",
          "midi": 52,
          "time": 95.85000000000049,
          "velocity": 0.7874015748031497,
          "duration": 0.15000000000000568
        },
        {
          "name": "E3",
          "midi": 52,
          "time": 96.0000000000005,
          "velocity": 0.7874015748031497,
          "duration": 0.29999999999999716
        },
        {
          "name": "B3",
          "midi": 59,
          "time": 96.0000000000005,
          "velocity": 0.7874015748031497,
          "duration": 0.29999999999999716
        },
        {
          "name": "E3",
          "midi": 52,
          "time": 96.3000000000005,
          "velocity": 0.7874015748031497,
          "duration": 0.15000000000000568
        },
        {
          "name": "E3",
          "midi": 52,
          "time": 96.4500000000005,
          "velocity": 0.7874015748031497,
          "duration": 0.15000000000000568
        },
        {
          "name": "G3",
          "midi": 55,
          "time": 96.6000000000005,
          "velocity": 0.7874015748031497,
          "duration": 0.15000000000000568
        },
        {
          "name": "G3",
          "midi": 55,
          "time": 96.75000000000051,
          "velocity": 0.7874015748031497,
          "duration": 0.15000000000000568
        },
        {
          "name": "G3",
          "midi": 55,
          "time": 96.90000000000052,
          "velocity": 0.7874015748031497,
          "duration": 0.15000000000000568
        },
        {
          "name": "F#3",
          "midi": 54,
          "time": 97.05000000000052,
          "velocity": 0.7874015748031497,
          "duration": 0.15000000000000568
        },
        {
          "name": "F#3",
          "midi": 54,
          "time": 97.20000000000053,
          "velocity": 0.7874015748031497,
          "duration": 0.15000000000000568
        },
        {
          "name": "F#3",
          "midi": 54,
          "time": 97.35000000000053,
          "velocity": 0.7874015748031497,
          "duration": 0.15000000000000568
        },
        {
          "name": "G3",
          "midi": 55,
          "time": 97.50000000000054,
          "velocity": 0.7874015748031497,
          "duration": 0.15000000000000568
        },
        {
          "name": "G3",
          "midi": 55,
          "time": 97.65000000000055,
          "velocity": 0.7874015748031497,
          "duration": 0.15000000000000568
        },
        {
          "name": "D3",
          "midi": 50,
          "time": 97.80000000000055,
          "velocity": 0.7874015748031497,
          "duration": 0.15000000000000568
        },
        {
          "name": "D3",
          "midi": 50,
          "time": 97.95000000000056,
          "velocity": 0.7874015748031497,
          "duration": 0.15000000000000568
        },
        {
          "name": "D3",
          "midi": 50,
          "time": 98.10000000000056,
          "velocity": 0.7874015748031497,
          "duration": 0.15000000000000568
        },
        {
          "name": "A3",
          "midi": 57,
          "time": 98.25000000000057,
          "velocity": 0.7874015748031497,
          "duration": 0.15000000000000568
        },
        {
          "name": "A3",
          "midi": 57,
          "time": 98.40000000000057,
          "velocity": 0.7874015748031497,
          "duration": 0.15000000000000568
        },
        {
          "name": "A3",
          "midi": 57,
          "time": 98.55000000000058,
          "velocity": 0.7874015748031497,
          "duration": 0.15000000000000568
        },
        {
          "name": "G3",
          "midi": 55,
          "time": 98.70000000000059,
          "velocity": 0.7874015748031497,
          "duration": 0.15000000000000568
        },
        {
          "name": "G3",
          "midi": 55,
          "time": 98.85000000000059,
          "velocity": 0.7874015748031497,
          "duration": 0.15000000000000568
        },
        {
          "name": "A3",
          "midi": 57,
          "time": 99.0000000000006,
          "velocity": 0.7874015748031497,
          "duration": 0.15000000000000568
        },
        {
          "name": "F#3",
          "midi": 54,
          "time": 99.1500000000006,
          "velocity": 0.7874015748031497,
          "duration": 0.15000000000000568
        },
        {
          "name": "F#3",
          "midi": 54,
          "time": 99.30000000000061,
          "velocity": 0.7874015748031497,
          "duration": 0.15000000000000568
        },
        {
          "name": "F#3",
          "midi": 54,
          "time": 99.45000000000061,
          "velocity": 0.7874015748031497,
          "duration": 0.15000000000000568
        },
        {
          "name": "F#3",
          "midi": 54,
          "time": 99.60000000000062,
          "velocity": 0.7874015748031497,
          "duration": 0.29999999999999716
        },
        {
          "name": "C#4",
          "midi": 61,
          "time": 99.60000000000062,
          "velocity": 0.7874015748031497,
          "duration": 0.29999999999999716
        },
        {
          "name": "F#3",
          "midi": 54,
          "time": 99.90000000000062,
          "velocity": 0.7874015748031497,
          "duration": 0.15000000000000568
        },
        {
          "name": "F#3",
          "midi": 54,
          "time": 100.05000000000062,
          "velocity": 0.7874015748031497,
          "duration": 0.15000000000000568
        },
        {
          "name": "A3",
          "midi": 57,
          "time": 100.20000000000063,
          "velocity": 0.7874015748031497,
          "duration": 0.15000000000000568
        },
        {
          "name": "F#3",
          "midi": 54,
          "time": 100.35000000000063,
          "velocity": 0.7874015748031497,
          "duration": 0.15000000000000568
        },
        {
          "name": "F#3",
          "midi": 54,
          "time": 100.50000000000064,
          "velocity": 0.7874015748031497,
          "duration": 0.15000000000000568
        },
        {
          "name": "F#3",
          "midi": 54,
          "time": 100.65000000000065,
          "velocity": 0.7874015748031497,
          "duration": 0.15000000000000568
        },
        {
          "name": "F#3",
          "midi": 54,
          "time": 100.80000000000065,
          "velocity": 0.7874015748031497,
          "duration": 0.29999999999999716
        },
        {
          "name": "C#4",
          "midi": 61,
          "time": 100.80000000000065,
          "velocity": 0.7874015748031497,
          "duration": 0.29999999999999716
        },
        {
          "name": "F#3",
          "midi": 54,
          "time": 101.10000000000065,
          "velocity": 0.7874015748031497,
          "duration": 0.15000000000000568
        },
        {
          "name": "F#3",
          "midi": 54,
          "time": 101.25000000000065,
          "velocity": 0.7874015748031497,
          "duration": 0.15000000000000568
        },
        {
          "name": "A3",
          "midi": 57,
          "time": 101.40000000000066,
          "velocity": 0.7874015748031497,
          "duration": 0.15000000000000568
        },
        {
          "name": "A3",
          "midi": 57,
          "time": 101.55000000000067,
          "velocity": 0.7874015748031497,
          "duration": 0.15000000000000568
        },
        {
          "name": "A3",
          "midi": 57,
          "time": 101.70000000000067,
          "velocity": 0.7874015748031497,
          "duration": 0.15000000000000568
        },
        {
          "name": "G#3",
          "midi": 56,
          "time": 101.85000000000068,
          "velocity": 0.7874015748031497,
          "duration": 0.15000000000000568
        },
        {
          "name": "G#3",
          "midi": 56,
          "time": 102.00000000000068,
          "velocity": 0.7874015748031497,
          "duration": 0.15000000000000568
        },
        {
          "name": "G#3",
          "midi": 56,
          "time": 102.15000000000069,
          "velocity": 0.7874015748031497,
          "duration": 0.15000000000000568
        },
        {
          "name": "A3",
          "midi": 57,
          "time": 102.3000000000007,
          "velocity": 0.7874015748031497,
          "duration": 0.15000000000000568
        },
        {
          "name": "A3",
          "midi": 57,
          "time": 102.4500000000007,
          "velocity": 0.7874015748031497,
          "duration": 0.15000000000000568
        },
        {
          "name": "B3",
          "midi": 59,
          "time": 102.6000000000007,
          "velocity": 0.7874015748031497,
          "duration": 0.15000000000000568
        },
        {
          "name": "B3",
          "midi": 59,
          "time": 102.75000000000071,
          "velocity": 0.7874015748031497,
          "duration": 0.15000000000000568
        },
        {
          "name": "B3",
          "midi": 59,
          "time": 102.90000000000072,
          "velocity": 0.7874015748031497,
          "duration": 0.15000000000000568
        },
        {
          "name": "A3",
          "midi": 57,
          "time": 103.05000000000072,
          "velocity": 0.7874015748031497,
          "duration": 0.15000000000000568
        },
        {
          "name": "A3",
          "midi": 57,
          "time": 103.20000000000073,
          "velocity": 0.7874015748031497,
          "duration": 0.15000000000000568
        },
        {
          "name": "A3",
          "midi": 57,
          "time": 103.35000000000073,
          "velocity": 0.7874015748031497,
          "duration": 0.15000000000000568
        },
        {
          "name": "G#3",
          "midi": 56,
          "time": 103.50000000000074,
          "velocity": 0.7874015748031497,
          "duration": 0.15000000000000568
        },
        {
          "name": "G#3",
          "midi": 56,
          "time": 103.65000000000074,
          "velocity": 0.7874015748031497,
          "duration": 0.15000000000000568
        },
        {
          "name": "A3",
          "midi": 57,
          "time": 103.80000000000075,
          "velocity": 0.7874015748031497,
          "duration": 0.15000000000000568
        },
        {
          "name": "F#3",
          "midi": 54,
          "time": 103.95000000000076,
          "velocity": 0.7874015748031497,
          "duration": 0.15000000000000568
        },
        {
          "name": "F#3",
          "midi": 54,
          "time": 104.10000000000076,
          "velocity": 0.7874015748031497,
          "duration": 0.15000000000000568
        },
        {
          "name": "F#3",
          "midi": 54,
          "time": 104.25000000000077,
          "velocity": 0.7874015748031497,
          "duration": 0.15000000000000568
        },
        {
          "name": "F#3",
          "midi": 54,
          "time": 104.40000000000077,
          "velocity": 0.7874015748031497,
          "duration": 0.29999999999999716
        },
        {
          "name": "C#4",
          "midi": 61,
          "time": 104.40000000000077,
          "velocity": 0.7874015748031497,
          "duration": 0.29999999999999716
        },
        {
          "name": "F#3",
          "midi": 54,
          "time": 104.70000000000077,
          "velocity": 0.7874015748031497,
          "duration": 0.15000000000000568
        },
        {
          "name": "F#3",
          "midi": 54,
          "time": 104.85000000000078,
          "velocity": 0.7874015748031497,
          "duration": 0.15000000000000568
        },
        {
          "name": "A3",
          "midi": 57,
          "time": 105.00000000000078,
          "velocity": 0.7874015748031497,
          "duration": 0.15000000000000568
        },
        {
          "name": "F#3",
          "midi": 54,
          "time": 105.15000000000079,
          "velocity": 0.7874015748031497,
          "duration": 0.15000000000000568
        },
        {
          "name": "F#3",
          "midi": 54,
          "time": 105.3000000000008,
          "velocity": 0.7874015748031497,
          "duration": 0.15000000000000568
        },
        {
          "name": "F#3",
          "midi": 54,
          "time": 105.4500000000008,
          "velocity": 0.7874015748031497,
          "duration": 0.15000000000000568
        },
        {
          "name": "F#3",
          "midi": 54,
          "time": 105.6000000000008,
          "velocity": 0.7874015748031497,
          "duration": 0.29999999999999716
        },
        {
          "name": "C#4",
          "midi": 61,
          "time": 105.6000000000008,
          "velocity": 0.7874015748031497,
          "duration": 0.29999999999999716
        },
        {
          "name": "F#3",
          "midi": 54,
          "time": 105.9000000000008,
          "velocity": 0.7874015748031497,
          "duration": 0.15000000000000568
        },
        {
          "name": "F#3",
          "midi": 54,
          "time": 106.05000000000081,
          "velocity": 0.7874015748031497,
          "duration": 0.15000000000000568
        },
        {
          "name": "A3",
          "midi": 57,
          "time": 106.20000000000081,
          "velocity": 0.7874015748031497,
          "duration": 0.15000000000000568
        },
        {
          "name": "A3",
          "midi": 57,
          "time": 106.35000000000082,
          "velocity": 0.7874015748031497,
          "duration": 0.15000000000000568
        },
        {
          "name": "A3",
          "midi": 57,
          "time": 106.50000000000082,
          "velocity": 0.7874015748031497,
          "duration": 0.15000000000000568
        },
        {
          "name": "G#3",
          "midi": 56,
          "time": 106.65000000000083,
          "velocity": 0.7874015748031497,
          "duration": 0.15000000000000568
        },
        {
          "name": "G#3",
          "midi": 56,
          "time": 106.80000000000084,
          "velocity": 0.7874015748031497,
          "duration": 0.15000000000000568
        },
        {
          "name": "G#3",
          "midi": 56,
          "time": 106.95000000000084,
          "velocity": 0.7874015748031497,
          "duration": 0.15000000000000568
        },
        {
          "name": "A3",
          "midi": 57,
          "time": 107.10000000000085,
          "velocity": 0.7874015748031497,
          "duration": 0.15000000000000568
        },
        {
          "name": "A3",
          "midi": 57,
          "time": 107.25000000000085,
          "velocity": 0.7874015748031497,
          "duration": 0.15000000000000568
        },
        {
          "name": "E3",
          "midi": 52,
          "time": 107.40000000000086,
          "velocity": 0.7874015748031497,
          "duration": 0.15000000000000568
        },
        {
          "name": "E3",
          "midi": 52,
          "time": 107.55000000000086,
          "velocity": 0.7874015748031497,
          "duration": 0.15000000000000568
        },
        {
          "name": "E3",
          "midi": 52,
          "time": 107.70000000000087,
          "velocity": 0.7874015748031497,
          "duration": 0.15000000000000568
        },
        {
          "name": "B3",
          "midi": 59,
          "time": 107.85000000000088,
          "velocity": 0.7874015748031497,
          "duration": 0.15000000000000568
        },
        {
          "name": "B3",
          "midi": 59,
          "time": 108.00000000000088,
          "velocity": 0.7874015748031497,
          "duration": 0.15000000000000568
        },
        {
          "name": "B3",
          "midi": 59,
          "time": 108.15000000000089,
          "velocity": 0.7874015748031497,
          "duration": 0.15000000000000568
        },
        {
          "name": "A3",
          "midi": 57,
          "time": 108.30000000000089,
          "velocity": 0.7874015748031497,
          "duration": 0.15000000000000568
        },
        {
          "name": "A3",
          "midi": 57,
          "time": 108.4500000000009,
          "velocity": 0.7874015748031497,
          "duration": 0.15000000000000568
        },
        {
          "name": "E3",
          "midi": 52,
          "time": 108.6000000000009,
          "velocity": 0.7874015748031497,
          "duration": 0.29999999999999716
        },
        {
          "name": "B3",
          "midi": 59,
          "time": 108.6000000000009,
          "velocity": 0.7874015748031497,
          "duration": 0.29999999999999716
        },
        {
          "name": "E3",
          "midi": 52,
          "time": 108.9000000000009,
          "velocity": 0.7874015748031497,
          "duration": 0.15000000000000568
        },
        {
          "name": "E3",
          "midi": 52,
          "time": 109.0500000000009,
          "velocity": 0.7874015748031497,
          "duration": 0.15000000000000568
        },
        {
          "name": "G3",
          "midi": 55,
          "time": 109.20000000000091,
          "velocity": 0.7874015748031497,
          "duration": 0.29999999999999716
        },
        {
          "name": "D4",
          "midi": 62,
          "time": 109.20000000000091,
          "velocity": 0.7874015748031497,
          "duration": 0.29999999999999716
        },
        {
          "name": "G3",
          "midi": 55,
          "time": 109.50000000000091,
          "velocity": 0.7874015748031497,
          "duration": 0.15000000000000568
        },
        {
          "name": "G3",
          "midi": 55,
          "time": 109.65000000000092,
          "velocity": 0.7874015748031497,
          "duration": 0.15000000000000568
        },
        {
          "name": "A3",
          "midi": 57,
          "time": 109.80000000000092,
          "velocity": 0.7874015748031497,
          "duration": 0.29999999999999716
        },
        {
          "name": "E4",
          "midi": 64,
          "time": 109.80000000000092,
          "velocity": 0.7874015748031497,
          "duration": 0.29999999999999716
        },
        {
          "name": "A3",
          "midi": 57,
          "time": 110.10000000000092,
          "velocity": 0.7874015748031497,
          "duration": 0.15000000000000568
        },
        {
          "name": "A3",
          "midi": 57,
          "time": 110.25000000000092,
          "velocity": 0.7874015748031497,
          "duration": 0.15000000000000568
        },
        {
          "name": "E3",
          "midi": 52,
          "time": 110.40000000000093,
          "velocity": 0.7874015748031497,
          "duration": 0.29999999999999716
        },
        {
          "name": "B3",
          "midi": 59,
          "time": 110.40000000000093,
          "velocity": 0.7874015748031497,
          "duration": 0.29999999999999716
        },
        {
          "name": "E3",
          "midi": 52,
          "time": 110.70000000000093,
          "velocity": 0.7874015748031497,
          "duration": 0.15000000000000568
        },
        {
          "name": "E3",
          "midi": 52,
          "time": 110.85000000000093,
          "velocity": 0.7874015748031497,
          "duration": 0.15000000000000568
        },
        {
          "name": "G2",
          "midi": 43,
          "time": 111.00000000000094,
          "velocity": 0.7874015748031497,
          "duration": 0.29999999999999716
        },
        {
          "name": "D3",
          "midi": 50,
          "time": 111.00000000000094,
          "velocity": 0.7874015748031497,
          "duration": 0.29999999999999716
        },
        {
          "name": "G2",
          "midi": 43,
          "time": 111.30000000000094,
          "velocity": 0.7874015748031497,
          "duration": 0.15000000000000568
        },
        {
          "name": "G2",
          "midi": 43,
          "time": 111.45000000000094,
          "velocity": 0.7874015748031497,
          "duration": 0.15000000000000568
        },
        {
          "name": "C3",
          "midi": 48,
          "time": 111.60000000000095,
          "velocity": 0.7874015748031497,
          "duration": 0.29999999999999716
        },
        {
          "name": "G3",
          "midi": 55,
          "time": 111.60000000000095,
          "velocity": 0.7874015748031497,
          "duration": 0.29999999999999716
        },
        {
          "name": "C3",
          "midi": 48,
          "time": 111.90000000000094,
          "velocity": 0.7874015748031497,
          "duration": 0.15000000000000568
        },
        {
          "name": "C3",
          "midi": 48,
          "time": 112.05000000000095,
          "velocity": 0.7874015748031497,
          "duration": 0.15000000000000568
        },
        {
          "name": "D3",
          "midi": 50,
          "time": 112.20000000000095,
          "velocity": 0.7874015748031497,
          "duration": 0.29999999999999716
        },
        {
          "name": "A3",
          "midi": 57,
          "time": 112.20000000000095,
          "velocity": 0.7874015748031497,
          "duration": 0.29999999999999716
        },
        {
          "name": "B2",
          "midi": 47,
          "time": 112.50000000000095,
          "velocity": 0.7874015748031497,
          "duration": 0.29999999999999716
        },
        {
          "name": "F#3",
          "midi": 54,
          "time": 112.50000000000095,
          "velocity": 0.7874015748031497,
          "duration": 0.29999999999999716
        },
        {
          "name": "E3",
          "midi": 52,
          "time": 112.80000000000095,
          "velocity": 0.7874015748031497,
          "duration": 0.29999999999999716
        },
        {
          "name": "B3",
          "midi": 59,
          "time": 112.80000000000095,
          "velocity": 0.7874015748031497,
          "duration": 0.29999999999999716
        },
        {
          "name": "E3",
          "midi": 52,
          "time": 113.10000000000095,
          "velocity": 0.7874015748031497,
          "duration": 0.15000000000000568
        },
        {
          "name": "E3",
          "midi": 52,
          "time": 113.25000000000095,
          "velocity": 0.7874015748031497,
          "duration": 0.15000000000000568
        },
        {
          "name": "E3",
          "midi": 52,
          "time": 113.40000000000096,
          "velocity": 0.7874015748031497,
          "duration": 0.29999999999999716
        },
        {
          "name": "B3",
          "midi": 59,
          "time": 113.40000000000096,
          "velocity": 0.7874015748031497,
          "duration": 0.29999999999999716
        },
        {
          "name": "E3",
          "midi": 52,
          "time": 113.70000000000095,
          "velocity": 0.7874015748031497,
          "duration": 0.15000000000000568
        },
        {
          "name": "E3",
          "midi": 52,
          "time": 113.85000000000096,
          "velocity": 0.7874015748031497,
          "duration": 0.15000000000000568
        },
        {
          "name": "G3",
          "midi": 55,
          "time": 114.00000000000097,
          "velocity": 0.7874015748031497,
          "duration": 0.29999999999999716
        },
        {
          "name": "D4",
          "midi": 62,
          "time": 114.00000000000097,
          "velocity": 0.7874015748031497,
          "duration": 0.29999999999999716
        },
        {
          "name": "G3",
          "midi": 55,
          "time": 114.30000000000096,
          "velocity": 0.7874015748031497,
          "duration": 0.15000000000000568
        },
        {
          "name": "G3",
          "midi": 55,
          "time": 114.45000000000097,
          "velocity": 0.7874015748031497,
          "duration": 0.15000000000000568
        },
        {
          "name": "A3",
          "midi": 57,
          "time": 114.60000000000097,
          "velocity": 0.7874015748031497,
          "duration": 0.29999999999999716
        },
        {
          "name": "E4",
          "midi": 64,
          "time": 114.60000000000097,
          "velocity": 0.7874015748031497,
          "duration": 0.29999999999999716
        },
        {
          "name": "A3",
          "midi": 57,
          "time": 114.90000000000097,
          "velocity": 0.7874015748031497,
          "duration": 0.15000000000000568
        },
        {
          "name": "A3",
          "midi": 57,
          "time": 115.05000000000098,
          "velocity": 0.7874015748031497,
          "duration": 0.15000000000000568
        },
        {
          "name": "E3",
          "midi": 52,
          "time": 115.20000000000098,
          "velocity": 0.7874015748031497,
          "duration": 0.29999999999999716
        },
        {
          "name": "B3",
          "midi": 59,
          "time": 115.20000000000098,
          "velocity": 0.7874015748031497,
          "duration": 0.29999999999999716
        },
        {
          "name": "E3",
          "midi": 52,
          "time": 115.50000000000098,
          "velocity": 0.7874015748031497,
          "duration": 0.15000000000000568
        },
        {
          "name": "E3",
          "midi": 52,
          "time": 115.65000000000099,
          "velocity": 0.7874015748031497,
          "duration": 0.15000000000000568
        },
        {
          "name": "G2",
          "midi": 43,
          "time": 115.80000000000099,
          "velocity": 0.7874015748031497,
          "duration": 0.29999999999999716
        },
        {
          "name": "D3",
          "midi": 50,
          "time": 115.80000000000099,
          "velocity": 0.7874015748031497,
          "duration": 0.29999999999999716
        },
        {
          "name": "G2",
          "midi": 43,
          "time": 116.10000000000099,
          "velocity": 0.7874015748031497,
          "duration": 0.15000000000000568
        },
        {
          "name": "G2",
          "midi": 43,
          "time": 116.250000000001,
          "velocity": 0.7874015748031497,
          "duration": 0.15000000000000568
        },
        {
          "name": "C3",
          "midi": 48,
          "time": 116.400000000001,
          "velocity": 0.7874015748031497,
          "duration": 0.29999999999999716
        },
        {
          "name": "G3",
          "midi": 55,
          "time": 116.400000000001,
          "velocity": 0.7874015748031497,
          "duration": 0.29999999999999716
        },
        {
          "name": "C3",
          "midi": 48,
          "time": 116.700000000001,
          "velocity": 0.7874015748031497,
          "duration": 0.15000000000000568
        },
        {
          "name": "C3",
          "midi": 48,
          "time": 116.850000000001,
          "velocity": 0.7874015748031497,
          "duration": 0.15000000000000568
        },
        {
          "name": "D3",
          "midi": 50,
          "time": 117.00000000000101,
          "velocity": 0.7874015748031497,
          "duration": 0.29999999999999716
        },
        {
          "name": "A3",
          "midi": 57,
          "time": 117.00000000000101,
          "velocity": 0.7874015748031497,
          "duration": 0.29999999999999716
        },
        {
          "name": "B2",
          "midi": 47,
          "time": 117.300000000001,
          "velocity": 0.7874015748031497,
          "duration": 0.29999999999999716
        },
        {
          "name": "F#3",
          "midi": 54,
          "time": 117.300000000001,
          "velocity": 0.7874015748031497,
          "duration": 0.29999999999999716
        },
        {
          "name": "E3",
          "midi": 52,
          "time": 117.600000000001,
          "velocity": 0.7874015748031497,
          "duration": 0.5999999999999943
        },
        {
          "name": "B3",
          "midi": 59,
          "time": 117.600000000001,
          "velocity": 0.7874015748031497,
          "duration": 0.5999999999999943
        },
        {
          "name": "G3",
          "midi": 55,
          "time": 118.200000000001,
          "velocity": 0.7874015748031497,
          "duration": 0.15000000000000568
        },
        {
          "name": "D4",
          "midi": 62,
          "time": 118.200000000001,
          "velocity": 0.7874015748031497,
          "duration": 0.15000000000000568
        },
        {
          "name": "G3",
          "midi": 55,
          "time": 118.350000000001,
          "velocity": 0.7874015748031497,
          "duration": 0.15000000000000568
        },
        {
          "name": "D4",
          "midi": 62,
          "time": 118.350000000001,
          "velocity": 0.7874015748031497,
          "duration": 0.15000000000000568
        },
        {
          "name": "G3",
          "midi": 55,
          "time": 118.65000000000101,
          "velocity": 0.7874015748031497,
          "duration": 0.15000000000000568
        },
        {
          "name": "D4",
          "midi": 62,
          "time": 118.65000000000101,
          "velocity": 0.7874015748031497,
          "duration": 0.15000000000000568
        },
        {
          "name": "D3",
          "midi": 50,
          "time": 118.80000000000102,
          "velocity": 0.7874015748031497,
          "duration": 0.15000000000000568
        },
        {
          "name": "A3",
          "midi": 57,
          "time": 118.80000000000102,
          "velocity": 0.7874015748031497,
          "duration": 0.15000000000000568
        },
        {
          "name": "D3",
          "midi": 50,
          "time": 118.95000000000103,
          "velocity": 0.7874015748031497,
          "duration": 0.15000000000000568
        },
        {
          "name": "A3",
          "midi": 57,
          "time": 118.95000000000103,
          "velocity": 0.7874015748031497,
          "duration": 0.15000000000000568
        },
        {
          "name": "D3",
          "midi": 50,
          "time": 119.25000000000104,
          "velocity": 0.7874015748031497,
          "duration": 0.15000000000000568
        },
        {
          "name": "A3",
          "midi": 57,
          "time": 119.25000000000104,
          "velocity": 0.7874015748031497,
          "duration": 0.15000000000000568
        },
        {
          "name": "E3",
          "midi": 52,
          "time": 119.40000000000104,
          "velocity": 0.7874015748031497,
          "duration": 0.15000000000000568
        },
        {
          "name": "B3",
          "midi": 59,
          "time": 119.40000000000104,
          "velocity": 0.7874015748031497,
          "duration": 0.15000000000000568
        },
        {
          "name": "E3",
          "midi": 52,
          "time": 119.55000000000105,
          "velocity": 0.7874015748031497,
          "duration": 0.15000000000000568
        },
        {
          "name": "B3",
          "midi": 59,
          "time": 119.55000000000105,
          "velocity": 0.7874015748031497,
          "duration": 0.15000000000000568
        },
        {
          "name": "E3",
          "midi": 52,
          "time": 119.85000000000106,
          "velocity": 0.7874015748031497,
          "duration": 0.15000000000000568
        },
        {
          "name": "B3",
          "midi": 59,
          "time": 119.85000000000106,
          "velocity": 0.7874015748031497,
          "duration": 0.15000000000000568
        },
        {
          "name": "E3",
          "midi": 52,
          "time": 119.99875000000107,
          "velocity": 0.7874015748031497,
          "duration": 0.301249999999996
        },
        {
          "name": "B3",
          "midi": 59,
          "time": 120.00000000000107,
          "velocity": 0.7874015748031497,
          "duration": 0.29999999999999716
        },
        {
          "name": "E3",
          "midi": 52,
          "time": 120.30000000000106,
          "velocity": 0.7874015748031497,
          "duration": 0.14875000000000682
        },
        {
          "name": "B3",
          "midi": 59,
          "time": 120.30000000000106,
          "velocity": 0.7874015748031497,
          "duration": 0.15000000000000568
        },
        {
          "name": "D3",
          "midi": 50,
          "time": 120.45000000000107,
          "velocity": 0.7874015748031497,
          "duration": 0.15000000000000568
        },
        {
          "name": "A3",
          "midi": 57,
          "time": 120.45000000000107,
          "velocity": 0.7874015748031497,
          "duration": 0.15000000000000568
        },
        {
          "name": "C3",
          "midi": 48,
          "time": 120.60000000000107,
          "velocity": 0.7874015748031497,
          "duration": 0.15000000000000568
        },
        {
          "name": "G3",
          "midi": 55,
          "time": 120.60000000000107,
          "velocity": 0.7874015748031497,
          "duration": 0.15000000000000568
        },
        {
          "name": "C3",
          "midi": 48,
          "time": 120.75000000000108,
          "velocity": 0.7874015748031497,
          "duration": 0.15000000000000568
        },
        {
          "name": "C3",
          "midi": 48,
          "time": 120.90000000000109,
          "velocity": 0.7874015748031497,
          "duration": 0.15000000000000568
        },
        {
          "name": "C3",
          "midi": 48,
          "time": 121.05000000000109,
          "velocity": 0.7874015748031497,
          "duration": 0.15000000000000568
        },
        {
          "name": "D3",
          "midi": 50,
          "time": 121.2000000000011,
          "velocity": 0.7874015748031497,
          "duration": 0.15000000000000568
        },
        {
          "name": "A3",
          "midi": 57,
          "time": 121.2000000000011,
          "velocity": 0.7874015748031497,
          "duration": 0.15000000000000568
        },
        {
          "name": "D3",
          "midi": 50,
          "time": 121.3500000000011,
          "velocity": 0.7874015748031497,
          "duration": 0.15000000000000568
        },
        {
          "name": "D3",
          "midi": 50,
          "time": 121.50000000000111,
          "velocity": 0.7874015748031497,
          "duration": 0.15000000000000568
        },
        {
          "name": "D3",
          "midi": 50,
          "time": 121.65000000000111,
          "velocity": 0.7874015748031497,
          "duration": 0.15000000000000568
        },
        {
          "name": "G3",
          "midi": 55,
          "time": 121.80000000000112,
          "velocity": 0.7874015748031497,
          "duration": 0.45000000000000284
        },
        {
          "name": "D4",
          "midi": 62,
          "time": 121.80000000000112,
          "velocity": 0.7874015748031497,
          "duration": 0.45000000000000284
        },
        {
          "name": "F#3",
          "midi": 54,
          "time": 122.25000000000112,
          "velocity": 0.7874015748031497,
          "duration": 0.15000000000000568
        },
        {
          "name": "D4",
          "midi": 62,
          "time": 122.25000000000112,
          "velocity": 0.7874015748031497,
          "duration": 0.15000000000000568
        },
        {
          "name": "G3",
          "midi": 55,
          "time": 122.40000000000113,
          "velocity": 0.7874015748031497,
          "duration": 0.29999999999999716
        },
        {
          "name": "D4",
          "midi": 62,
          "time": 122.40000000000113,
          "velocity": 0.7874015748031497,
          "duration": 0.29999999999999716
        },
        {
          "name": "G3",
          "midi": 55,
          "time": 123.00000000000112,
          "velocity": 0.7874015748031497,
          "duration": 0.15000000000000568
        },
        {
          "name": "D4",
          "midi": 62,
          "time": 123.00000000000112,
          "velocity": 0.7874015748031497,
          "duration": 0.15000000000000568
        },
        {
          "name": "G3",
          "midi": 55,
          "time": 123.15000000000113,
          "velocity": 0.7874015748031497,
          "duration": 0.15000000000000568
        },
        {
          "name": "D4",
          "midi": 62,
          "time": 123.15000000000113,
          "velocity": 0.7874015748031497,
          "duration": 0.15000000000000568
        },
        {
          "name": "G3",
          "midi": 55,
          "time": 123.45000000000114,
          "velocity": 0.7874015748031497,
          "duration": 0.15000000000000568
        },
        {
          "name": "D4",
          "midi": 62,
          "time": 123.45000000000114,
          "velocity": 0.7874015748031497,
          "duration": 0.15000000000000568
        },
        {
          "name": "D3",
          "midi": 50,
          "time": 123.60000000000115,
          "velocity": 0.7874015748031497,
          "duration": 0.15000000000000568
        },
        {
          "name": "A3",
          "midi": 57,
          "time": 123.60000000000115,
          "velocity": 0.7874015748031497,
          "duration": 0.15000000000000568
        },
        {
          "name": "D3",
          "midi": 50,
          "time": 123.75000000000115,
          "velocity": 0.7874015748031497,
          "duration": 0.15000000000000568
        },
        {
          "name": "A3",
          "midi": 57,
          "time": 123.75000000000115,
          "velocity": 0.7874015748031497,
          "duration": 0.15000000000000568
        },
        {
          "name": "D3",
          "midi": 50,
          "time": 124.05000000000116,
          "velocity": 0.7874015748031497,
          "duration": 0.15000000000000568
        },
        {
          "name": "A3",
          "midi": 57,
          "time": 124.05000000000116,
          "velocity": 0.7874015748031497,
          "duration": 0.15000000000000568
        },
        {
          "name": "E3",
          "midi": 52,
          "time": 124.20000000000117,
          "velocity": 0.7874015748031497,
          "duration": 0.15000000000000568
        },
        {
          "name": "B3",
          "midi": 59,
          "time": 124.20000000000117,
          "velocity": 0.7874015748031497,
          "duration": 0.15000000000000568
        },
        {
          "name": "E3",
          "midi": 52,
          "time": 124.35000000000117,
          "velocity": 0.7874015748031497,
          "duration": 0.15000000000000568
        },
        {
          "name": "B3",
          "midi": 59,
          "time": 124.35000000000117,
          "velocity": 0.7874015748031497,
          "duration": 0.15000000000000568
        },
        {
          "name": "E3",
          "midi": 52,
          "time": 124.65000000000119,
          "velocity": 0.7874015748031497,
          "duration": 0.15000000000000568
        },
        {
          "name": "B3",
          "midi": 59,
          "time": 124.65000000000119,
          "velocity": 0.7874015748031497,
          "duration": 0.15000000000000568
        },
        {
          "name": "E3",
          "midi": 52,
          "time": 124.79875000000119,
          "velocity": 0.7874015748031497,
          "duration": 0.301249999999996
        },
        {
          "name": "B3",
          "midi": 59,
          "time": 124.80000000000119,
          "velocity": 0.7874015748031497,
          "duration": 0.29999999999999716
        },
        {
          "name": "E3",
          "midi": 52,
          "time": 125.10000000000119,
          "velocity": 0.7874015748031497,
          "duration": 0.14875000000000682
        },
        {
          "name": "B3",
          "midi": 59,
          "time": 125.10000000000119,
          "velocity": 0.7874015748031497,
          "duration": 0.15000000000000568
        },
        {
          "name": "D3",
          "midi": 50,
          "time": 125.2500000000012,
          "velocity": 0.7874015748031497,
          "duration": 0.15000000000000568
        },
        {
          "name": "A3",
          "midi": 57,
          "time": 125.2500000000012,
          "velocity": 0.7874015748031497,
          "duration": 0.15000000000000568
        },
        {
          "name": "C3",
          "midi": 48,
          "time": 125.4000000000012,
          "velocity": 0.7874015748031497,
          "duration": 0.15000000000000568
        },
        {
          "name": "G3",
          "midi": 55,
          "time": 125.4000000000012,
          "velocity": 0.7874015748031497,
          "duration": 0.15000000000000568
        },
        {
          "name": "C3",
          "midi": 48,
          "time": 125.5500000000012,
          "velocity": 0.7874015748031497,
          "duration": 0.15000000000000568
        },
        {
          "name": "C3",
          "midi": 48,
          "time": 125.70000000000121,
          "velocity": 0.7874015748031497,
          "duration": 0.15000000000000568
        },
        {
          "name": "C3",
          "midi": 48,
          "time": 125.85000000000122,
          "velocity": 0.7874015748031497,
          "duration": 0.15000000000000568
        },
        {
          "name": "B2",
          "midi": 47,
          "time": 126.00000000000122,
          "velocity": 0.7874015748031497,
          "duration": 0.15000000000000568
        },
        {
          "name": "F#3",
          "midi": 54,
          "time": 126.00000000000122,
          "velocity": 0.7874015748031497,
          "duration": 0.15000000000000568
        },
        {
          "name": "B2",
          "midi": 47,
          "time": 126.15000000000123,
          "velocity": 0.7874015748031497,
          "duration": 0.15000000000000568
        },
        {
          "name": "B2",
          "midi": 47,
          "time": 126.30000000000123,
          "velocity": 0.7874015748031497,
          "duration": 0.15000000000000568
        },
        {
          "name": "B2",
          "midi": 47,
          "time": 126.45000000000124,
          "velocity": 0.7874015748031497,
          "duration": 0.15000000000000568
        },
        {
          "name": "F#3",
          "midi": 54,
          "time": 126.45000000000124,
          "velocity": 0.7874015748031497,
          "duration": 0.15000000000000568
        },
        {
          "name": "E2",
          "midi": 40,
          "time": 126.60000000000124,
          "velocity": 0.7874015748031497,
          "duration": 0.15000000000000568
        },
        {
          "name": "E2",
          "midi": 40,
          "time": 126.75000000000125,
          "velocity": 0.7874015748031497,
          "duration": 0.15000000000000568
        },
        {
          "name": "E2",
          "midi": 40,
          "time": 126.90000000000126,
          "velocity": 0.7874015748031497,
          "duration": 0.15000000000000568
        },
        {
          "name": "E2",
          "midi": 40,
          "time": 127.05000000000126,
          "velocity": 0.7874015748031497,
          "duration": 0.15000000000000568
        },
        {
          "name": "E2",
          "midi": 40,
          "time": 127.20000000000127,
          "velocity": 0.7874015748031497,
          "duration": 0.5925000000000011
        },
        {
          "name": "B2",
          "midi": 47,
          "time": 127.20000000000127,
          "velocity": 0.7874015748031497,
          "duration": 0.5925000000000011
        },
        {
          "name": "G2",
          "midi": 43,
          "time": 127.80000000000126,
          "velocity": 0.7874015748031497,
          "duration": 0.15000000000000568
        },
        {
          "name": "G2",
          "midi": 43,
          "time": 127.95000000000127,
          "velocity": 0.7874015748031497,
          "duration": 0.15000000000000568
        },
        {
          "name": "G2",
          "midi": 43,
          "time": 128.10000000000127,
          "velocity": 0.7874015748031497,
          "duration": 0.15000000000000568
        },
        {
          "name": "D3",
          "midi": 50,
          "time": 128.10000000000127,
          "velocity": 0.7874015748031497,
          "duration": 0.15000000000000568
        },
        {
          "name": "G2",
          "midi": 43,
          "time": 128.25000000000128,
          "velocity": 0.7874015748031497,
          "duration": 0.15000000000000568
        },
        {
          "name": "G2",
          "midi": 43,
          "time": 128.40000000000128,
          "velocity": 0.7874015748031497,
          "duration": 0.15000000000000568
        },
        {
          "name": "G2",
          "midi": 43,
          "time": 128.5500000000013,
          "velocity": 0.7874015748031497,
          "duration": 0.15000000000000568
        },
        {
          "name": "G2",
          "midi": 43,
          "time": 128.7000000000013,
          "velocity": 0.7874015748031497,
          "duration": 0.15000000000000568
        },
        {
          "name": "D3",
          "midi": 50,
          "time": 128.7000000000013,
          "velocity": 0.7874015748031497,
          "duration": 0.15000000000000568
        },
        {
          "name": "G2",
          "midi": 43,
          "time": 128.8500000000013,
          "velocity": 0.7874015748031497,
          "duration": 0.15000000000000568
        },
        {
          "name": "D3",
          "midi": 50,
          "time": 129.0000000000013,
          "velocity": 0.7874015748031497,
          "duration": 0.15000000000000568
        },
        {
          "name": "D3",
          "midi": 50,
          "time": 129.1500000000013,
          "velocity": 0.7874015748031497,
          "duration": 0.15000000000000568
        },
        {
          "name": "D3",
          "midi": 50,
          "time": 129.30000000000132,
          "velocity": 0.7874015748031497,
          "duration": 0.15000000000000568
        },
        {
          "name": "A3",
          "midi": 57,
          "time": 129.30000000000132,
          "velocity": 0.7874015748031497,
          "duration": 0.15000000000000568
        },
        {
          "name": "D3",
          "midi": 50,
          "time": 129.45000000000132,
          "velocity": 0.7874015748031497,
          "duration": 0.15000000000000568
        },
        {
          "name": "D3",
          "midi": 50,
          "time": 129.60000000000133,
          "velocity": 0.7874015748031497,
          "duration": 0.15000000000000568
        },
        {
          "name": "D3",
          "midi": 50,
          "time": 129.75000000000134,
          "velocity": 0.7874015748031497,
          "duration": 0.15000000000000568
        },
        {
          "name": "D3",
          "midi": 50,
          "time": 129.90000000000134,
          "velocity": 0.7874015748031497,
          "duration": 0.15000000000000568
        },
        {
          "name": "A3",
          "midi": 57,
          "time": 129.90000000000134,
          "velocity": 0.7874015748031497,
          "duration": 0.15000000000000568
        },
        {
          "name": "D3",
          "midi": 50,
          "time": 130.05000000000135,
          "velocity": 0.7874015748031497,
          "duration": 0.15000000000000568
        },
        {
          "name": "E3",
          "midi": 52,
          "time": 130.20000000000135,
          "velocity": 0.7874015748031497,
          "duration": 0.15000000000000568
        },
        {
          "name": "E3",
          "midi": 52,
          "time": 130.35000000000136,
          "velocity": 0.7874015748031497,
          "duration": 0.15000000000000568
        },
        {
          "name": "E3",
          "midi": 52,
          "time": 130.50000000000136,
          "velocity": 0.7874015748031497,
          "duration": 0.15000000000000568
        },
        {
          "name": "B3",
          "midi": 59,
          "time": 130.50000000000136,
          "velocity": 0.7874015748031497,
          "duration": 0.15000000000000568
        },
        {
          "name": "E3",
          "midi": 52,
          "time": 130.65000000000137,
          "velocity": 0.7874015748031497,
          "duration": 0.15000000000000568
        },
        {
          "name": "E3",
          "midi": 52,
          "time": 130.80000000000138,
          "velocity": 0.7874015748031497,
          "duration": 0.15000000000000568
        },
        {
          "name": "E3",
          "midi": 52,
          "time": 130.95000000000138,
          "velocity": 0.7874015748031497,
          "duration": 0.15000000000000568
        },
        {
          "name": "E3",
          "midi": 52,
          "time": 131.1000000000014,
          "velocity": 0.7874015748031497,
          "duration": 0.15000000000000568
        },
        {
          "name": "B3",
          "midi": 59,
          "time": 131.1000000000014,
          "velocity": 0.7874015748031497,
          "duration": 0.15000000000000568
        },
        {
          "name": "E3",
          "midi": 52,
          "time": 131.2500000000014,
          "velocity": 0.7874015748031497,
          "duration": 0.15000000000000568
        },
        {
          "name": "B2",
          "midi": 47,
          "time": 131.4000000000014,
          "velocity": 0.7874015748031497,
          "duration": 0.44999999999998863
        },
        {
          "name": "F#3",
          "midi": 54,
          "time": 131.4000000000014,
          "velocity": 0.7874015748031497,
          "duration": 0.44999999999998863
        },
        {
          "name": "A2",
          "midi": 45,
          "time": 131.8500000000014,
          "velocity": 0.7874015748031497,
          "duration": 0.15000000000000568
        },
        {
          "name": "E3",
          "midi": 52,
          "time": 131.8500000000014,
          "velocity": 0.7874015748031497,
          "duration": 0.15000000000000568
        },
        {
          "name": "B2",
          "midi": 47,
          "time": 132.0000000000014,
          "velocity": 0.7874015748031497,
          "duration": 0.30000000000001137
        },
        {
          "name": "F#3",
          "midi": 54,
          "time": 132.0000000000014,
          "velocity": 0.7874015748031497,
          "duration": 0.30000000000001137
        },
        {
          "name": "G3",
          "midi": 55,
          "time": 132.60000000000142,
          "velocity": 0.7874015748031497,
          "duration": 0.15000000000000568
        },
        {
          "name": "D4",
          "midi": 62,
          "time": 132.60000000000142,
          "velocity": 0.7874015748031497,
          "duration": 0.15000000000000568
        },
        {
          "name": "G3",
          "midi": 55,
          "time": 132.75000000000142,
          "velocity": 0.7874015748031497,
          "duration": 0.15000000000000568
        },
        {
          "name": "D4",
          "midi": 62,
          "time": 132.75000000000142,
          "velocity": 0.7874015748031497,
          "duration": 0.15000000000000568
        },
        {
          "name": "G3",
          "midi": 55,
          "time": 133.05000000000143,
          "velocity": 0.7874015748031497,
          "duration": 0.15000000000000568
        },
        {
          "name": "D4",
          "midi": 62,
          "time": 133.05000000000143,
          "velocity": 0.7874015748031497,
          "duration": 0.15000000000000568
        },
        {
          "name": "D3",
          "midi": 50,
          "time": 133.20000000000144,
          "velocity": 0.7874015748031497,
          "duration": 0.15000000000000568
        },
        {
          "name": "A3",
          "midi": 57,
          "time": 133.20000000000144,
          "velocity": 0.7874015748031497,
          "duration": 0.15000000000000568
        },
        {
          "name": "D3",
          "midi": 50,
          "time": 133.35000000000144,
          "velocity": 0.7874015748031497,
          "duration": 0.15000000000000568
        },
        {
          "name": "A3",
          "midi": 57,
          "time": 133.35000000000144,
          "velocity": 0.7874015748031497,
          "duration": 0.15000000000000568
        },
        {
          "name": "D3",
          "midi": 50,
          "time": 133.65000000000146,
          "velocity": 0.7874015748031497,
          "duration": 0.15000000000000568
        },
        {
          "name": "A3",
          "midi": 57,
          "time": 133.65000000000146,
          "velocity": 0.7874015748031497,
          "duration": 0.15000000000000568
        },
        {
          "name": "E3",
          "midi": 52,
          "time": 133.80000000000146,
          "velocity": 0.7874015748031497,
          "duration": 0.15000000000000568
        },
        {
          "name": "B3",
          "midi": 59,
          "time": 133.80000000000146,
          "velocity": 0.7874015748031497,
          "duration": 0.15000000000000568
        },
        {
          "name": "E3",
          "midi": 52,
          "time": 133.95000000000147,
          "velocity": 0.7874015748031497,
          "duration": 0.15000000000000568
        },
        {
          "name": "B3",
          "midi": 59,
          "time": 133.95000000000147,
          "velocity": 0.7874015748031497,
          "duration": 0.15000000000000568
        },
        {
          "name": "E3",
          "midi": 52,
          "time": 134.25000000000148,
          "velocity": 0.7874015748031497,
          "duration": 0.15000000000000568
        },
        {
          "name": "B3",
          "midi": 59,
          "time": 134.25000000000148,
          "velocity": 0.7874015748031497,
          "duration": 0.15000000000000568
        },
        {
          "name": "E3",
          "midi": 52,
          "time": 134.39875000000148,
          "velocity": 0.7874015748031497,
          "duration": 0.30125000000001023
        },
        {
          "name": "B3",
          "midi": 59,
          "time": 134.40000000000148,
          "velocity": 0.7874015748031497,
          "duration": 0.30000000000001137
        },
        {
          "name": "E3",
          "midi": 52,
          "time": 134.7000000000015,
          "velocity": 0.7874015748031497,
          "duration": 0.14875000000000682
        },
        {
          "name": "B3",
          "midi": 59,
          "time": 134.7000000000015,
          "velocity": 0.7874015748031497,
          "duration": 0.15000000000000568
        },
        {
          "name": "D3",
          "midi": 50,
          "time": 134.8500000000015,
          "velocity": 0.7874015748031497,
          "duration": 0.15000000000000568
        },
        {
          "name": "A3",
          "midi": 57,
          "time": 134.8500000000015,
          "velocity": 0.7874015748031497,
          "duration": 0.15000000000000568
        },
        {
          "name": "C3",
          "midi": 48,
          "time": 135.0000000000015,
          "velocity": 0.7874015748031497,
          "duration": 0.15000000000000568
        },
        {
          "name": "G3",
          "midi": 55,
          "time": 135.0000000000015,
          "velocity": 0.7874015748031497,
          "duration": 0.15000000000000568
        },
        {
          "name": "C3",
          "midi": 48,
          "time": 135.1500000000015,
          "velocity": 0.7874015748031497,
          "duration": 0.15000000000000568
        },
        {
          "name": "C3",
          "midi": 48,
          "time": 135.30000000000152,
          "velocity": 0.7874015748031497,
          "duration": 0.15000000000000568
        },
        {
          "name": "C3",
          "midi": 48,
          "time": 135.45000000000152,
          "velocity": 0.7874015748031497,
          "duration": 0.15000000000000568
        },
        {
          "name": "D3",
          "midi": 50,
          "time": 135.60000000000153,
          "velocity": 0.7874015748031497,
          "duration": 0.15000000000000568
        },
        {
          "name": "A3",
          "midi": 57,
          "time": 135.60000000000153,
          "velocity": 0.7874015748031497,
          "duration": 0.15000000000000568
        },
        {
          "name": "D3",
          "midi": 50,
          "time": 135.75000000000153,
          "velocity": 0.7874015748031497,
          "duration": 0.15000000000000568
        },
        {
          "name": "D3",
          "midi": 50,
          "time": 135.90000000000154,
          "velocity": 0.7874015748031497,
          "duration": 0.15000000000000568
        },
        {
          "name": "D3",
          "midi": 50,
          "time": 136.05000000000155,
          "velocity": 0.7874015748031497,
          "duration": 0.15000000000000568
        },
        {
          "name": "G3",
          "midi": 55,
          "time": 136.20000000000155,
          "velocity": 0.7874015748031497,
          "duration": 0.44999999999998863
        },
        {
          "name": "D4",
          "midi": 62,
          "time": 136.20000000000155,
          "velocity": 0.7874015748031497,
          "duration": 0.44999999999998863
        },
        {
          "name": "F#3",
          "midi": 54,
          "time": 136.65000000000154,
          "velocity": 0.7874015748031497,
          "duration": 0.15000000000000568
        },
        {
          "name": "D4",
          "midi": 62,
          "time": 136.65000000000154,
          "velocity": 0.7874015748031497,
          "duration": 0.15000000000000568
        },
        {
          "name": "G3",
          "midi": 55,
          "time": 136.80000000000155,
          "velocity": 0.7874015748031497,
          "duration": 0.44999999999998863
        },
        {
          "name": "D4",
          "midi": 62,
          "time": 136.80000000000155,
          "velocity": 0.7874015748031497,
          "duration": 0.44999999999998863
        },
        {
          "name": "E5",
          "midi": 76,
          "time": 137.40000000000154,
          "velocity": 0.7874015748031497,
          "duration": 0.15000000000000568
        },
        {
          "name": "E5",
          "midi": 76,
          "time": 137.55000000000155,
          "velocity": 0.7874015748031497,
          "duration": 0.07499999999998863
        },
        {
          "name": "E5",
          "midi": 76,
          "time": 137.62500000000153,
          "velocity": 0.7874015748031497,
          "duration": 0.07499999999998863
        },
        {
          "name": "E5",
          "midi": 76,
          "time": 137.70000000000152,
          "velocity": 0.7874015748031497,
          "duration": 0.15125000000000455
        },
        {
          "name": "B4",
          "midi": 71,
          "time": 137.85000000000153,
          "velocity": 0.7874015748031497,
          "duration": 0.15000000000000568
        },
        {
          "name": "C5",
          "midi": 72,
          "time": 138.00125000000153,
          "velocity": 0.7874015748031497,
          "duration": 0.15000000000000568
        },
        {
          "name": "C5",
          "midi": 72,
          "time": 138.15000000000154,
          "velocity": 0.7874015748031497,
          "duration": 0.15000000000000568
        },
        {
          "name": "C5",
          "midi": 72,
          "time": 138.30000000000155,
          "velocity": 0.7874015748031497,
          "duration": 0.15000000000000568
        },
        {
          "name": "B4",
          "midi": 71,
          "time": 138.45000000000155,
          "velocity": 0.7874015748031497,
          "duration": 0.15000000000000568
        },
        {
          "name": "D5",
          "midi": 74,
          "time": 138.60000000000156,
          "velocity": 0.7874015748031497,
          "duration": 0.15000000000000568
        },
        {
          "name": "D5",
          "midi": 74,
          "time": 138.75000000000156,
          "velocity": 0.7874015748031497,
          "duration": 0.07499999999998863
        },
        {
          "name": "D5",
          "midi": 74,
          "time": 138.82500000000155,
          "velocity": 0.7874015748031497,
          "duration": 0.07499999999998863
        },
        {
          "name": "D5",
          "midi": 74,
          "time": 138.90000000000154,
          "velocity": 0.7874015748031497,
          "duration": 0.15125000000000455
        },
        {
          "name": "A4",
          "midi": 69,
          "time": 139.05000000000155,
          "velocity": 0.7874015748031497,
          "duration": 0.15000000000000568
        },
        {
          "name": "B4",
          "midi": 71,
          "time": 139.20000000000155,
          "velocity": 0.7874015748031497,
          "duration": 0.15000000000000568
        },
        {
          "name": "B4",
          "midi": 71,
          "time": 139.34875000000156,
          "velocity": 0.7874015748031497,
          "duration": 0.15000000000000568
        },
        {
          "name": "B4",
          "midi": 71,
          "time": 139.49875000000156,
          "velocity": 0.7874015748031497,
          "duration": 0.15000000000000568
        },
        {
          "name": "A4",
          "midi": 69,
          "time": 139.65000000000157,
          "velocity": 0.7874015748031497,
          "duration": 0.15000000000000568
        },
        {
          "name": "C5",
          "midi": 72,
          "time": 139.80000000000157,
          "velocity": 0.7874015748031497,
          "duration": 0.15000000000000568
        },
        {
          "name": "C5",
          "midi": 72,
          "time": 139.95000000000158,
          "velocity": 0.7874015748031497,
          "duration": 0.07499999999998863
        },
        {
          "name": "C5",
          "midi": 72,
          "time": 140.02500000000157,
          "velocity": 0.7874015748031497,
          "duration": 0.07499999999998863
        },
        {
          "name": "C5",
          "midi": 72,
          "time": 140.10000000000156,
          "velocity": 0.7874015748031497,
          "duration": 0.15125000000000455
        },
        {
          "name": "G4",
          "midi": 67,
          "time": 140.25000000000156,
          "velocity": 0.7874015748031497,
          "duration": 0.15000000000000568
        },
        {
          "name": "A4",
          "midi": 69,
          "time": 140.40000000000157,
          "velocity": 0.7874015748031497,
          "duration": 0.15000000000000568
        },
        {
          "name": "A4",
          "midi": 69,
          "time": 140.54875000000158,
          "velocity": 0.7874015748031497,
          "duration": 0.15000000000000568
        },
        {
          "name": "A4",
          "midi": 69,
          "time": 140.69875000000158,
          "velocity": 0.7874015748031497,
          "duration": 0.15000000000000568
        },
        {
          "name": "A4",
          "midi": 69,
          "time": 140.8500000000016,
          "velocity": 0.7874015748031497,
          "duration": 0.15000000000000568
        },
        {
          "name": "F#4",
          "midi": 66,
          "time": 141.0000000000016,
          "velocity": 0.7874015748031497,
          "duration": 0.22374999999999545
        },
        {
          "name": "D4",
          "midi": 62,
          "time": 141.30000000000157,
          "velocity": 0.7874015748031497,
          "duration": 0.22499999999999432
        },
        {
          "name": "E4",
          "midi": 64,
          "time": 141.60000000000156,
          "velocity": 0.7874015748031497,
          "duration": 0.375
        },
        {
          "name": "E5",
          "midi": 76,
          "time": 142.20000000000155,
          "velocity": 0.7874015748031497,
          "duration": 0.15000000000000568
        },
        {
          "name": "E5",
          "midi": 76,
          "time": 142.35000000000156,
          "velocity": 0.7874015748031497,
          "duration": 0.07499999999998863
        },
        {
          "name": "E5",
          "midi": 76,
          "time": 142.42500000000155,
          "velocity": 0.7874015748031497,
          "duration": 0.07499999999998863
        },
        {
          "name": "E5",
          "midi": 76,
          "time": 142.50000000000153,
          "velocity": 0.7874015748031497,
          "duration": 0.15125000000000455
        },
        {
          "name": "B4",
          "midi": 71,
          "time": 142.65000000000154,
          "velocity": 0.7874015748031497,
          "duration": 0.15000000000000568
        },
        {
          "name": "C5",
          "midi": 72,
          "time": 142.80125000000155,
          "velocity": 0.7874015748031497,
          "duration": 0.15000000000000568
        },
        {
          "name": "C5",
          "midi": 72,
          "time": 142.95000000000155,
          "velocity": 0.7874015748031497,
          "duration": 0.15000000000000568
        },
        {
          "name": "C5",
          "midi": 72,
          "time": 143.10000000000156,
          "velocity": 0.7874015748031497,
          "duration": 0.15000000000000568
        },
        {
          "name": "B4",
          "midi": 71,
          "time": 143.25000000000156,
          "velocity": 0.7874015748031497,
          "duration": 0.15000000000000568
        },
        {
          "name": "D5",
          "midi": 74,
          "time": 143.40000000000157,
          "velocity": 0.7874015748031497,
          "duration": 0.15000000000000568
        },
        {
          "name": "D5",
          "midi": 74,
          "time": 143.55000000000157,
          "velocity": 0.7874015748031497,
          "duration": 0.07499999999998863
        },
        {
          "name": "D5",
          "midi": 74,
          "time": 143.62500000000156,
          "velocity": 0.7874015748031497,
          "duration": 0.07499999999998863
        },
        {
          "name": "D5",
          "midi": 74,
          "time": 143.70000000000155,
          "velocity": 0.7874015748031497,
          "duration": 0.15125000000000455
        },
        {
          "name": "A4",
          "midi": 69,
          "time": 143.85000000000156,
          "velocity": 0.7874015748031497,
          "duration": 0.15000000000000568
        },
        {
          "name": "B4",
          "midi": 71,
          "time": 144.00000000000156,
          "velocity": 0.7874015748031497,
          "duration": 0.15000000000000568
        },
        {
          "name": "B4",
          "midi": 71,
          "time": 144.14875000000157,
          "velocity": 0.7874015748031497,
          "duration": 0.15000000000000568
        },
        {
          "name": "B4",
          "midi": 71,
          "time": 144.29875000000158,
          "velocity": 0.7874015748031497,
          "duration": 0.15000000000000568
        },
        {
          "name": "A4",
          "midi": 69,
          "time": 144.45000000000158,
          "velocity": 0.7874015748031497,
          "duration": 0.15000000000000568
        },
        {
          "name": "C5",
          "midi": 72,
          "time": 144.6000000000016,
          "velocity": 0.7874015748031497,
          "duration": 0.15000000000000568
        },
        {
          "name": "C5",
          "midi": 72,
          "time": 144.7500000000016,
          "velocity": 0.7874015748031497,
          "duration": 0.07499999999998863
        },
        {
          "name": "C5",
          "midi": 72,
          "time": 144.82500000000158,
          "velocity": 0.7874015748031497,
          "duration": 0.07499999999998863
        },
        {
          "name": "C5",
          "midi": 72,
          "time": 144.90000000000157,
          "velocity": 0.7874015748031497,
          "duration": 0.15125000000000455
        },
        {
          "name": "G4",
          "midi": 67,
          "time": 145.05000000000157,
          "velocity": 0.7874015748031497,
          "duration": 0.15000000000000568
        },
        {
          "name": "A4",
          "midi": 69,
          "time": 145.20000000000158,
          "velocity": 0.7874015748031497,
          "duration": 0.15000000000000568
        },
        {
          "name": "A4",
          "midi": 69,
          "time": 145.3487500000016,
          "velocity": 0.7874015748031497,
          "duration": 0.15000000000000568
        },
        {
          "name": "A4",
          "midi": 69,
          "time": 145.4987500000016,
          "velocity": 0.7874015748031497,
          "duration": 0.15000000000000568
        },
        {
          "name": "A4",
          "midi": 69,
          "time": 145.6500000000016,
          "velocity": 0.7874015748031497,
          "duration": 0.15000000000000568
        },
        {
          "name": "F#4",
          "midi": 66,
          "time": 145.8000000000016,
          "velocity": 0.7874015748031497,
          "duration": 0.22374999999999545
        },
        {
          "name": "D4",
          "midi": 62,
          "time": 146.1000000000016,
          "velocity": 0.7874015748031497,
          "duration": 0.22499999999999432
        },
        {
          "name": "E4",
          "midi": 64,
          "time": 146.40000000000157,
          "velocity": 0.7874015748031497,
          "duration": 0.44999999999998863
        },
        {
          "name": "E3",
          "midi": 52,
          "time": 147.00000000000156,
          "velocity": 0.7874015748031497,
          "duration": 0.15000000000000568
        },
        {
          "name": "B3",
          "midi": 59,
          "time": 147.00000000000156,
          "velocity": 0.7874015748031497,
          "duration": 0.15000000000000568
        },
        {
          "name": "E3",
          "midi": 52,
          "time": 147.15000000000157,
          "velocity": 0.7874015748031497,
          "duration": 0.15000000000000568
        },
        {
          "name": "E3",
          "midi": 52,
          "time": 147.30000000000157,
          "velocity": 0.7874015748031497,
          "duration": 0.15000000000000568
        },
        {
          "name": "E3",
          "midi": 52,
          "time": 147.45000000000158,
          "velocity": 0.7874015748031497,
          "duration": 0.15000000000000568
        },
        {
          "name": "B3",
          "midi": 59,
          "time": 147.45000000000158,
          "velocity": 0.7874015748031497,
          "duration": 0.15000000000000568
        },
        {
          "name": "E3",
          "midi": 52,
          "time": 147.6000000000016,
          "velocity": 0.7874015748031497,
          "duration": 0.15000000000000568
        },
        {
          "name": "E3",
          "midi": 52,
          "time": 147.7500000000016,
          "velocity": 0.7874015748031497,
          "duration": 0.15000000000000568
        },
        {
          "name": "E3",
          "midi": 52,
          "time": 147.9000000000016,
          "velocity": 0.7874015748031497,
          "duration": 0.15000000000000568
        },
        {
          "name": "B3",
          "midi": 59,
          "time": 147.9000000000016,
          "velocity": 0.7874015748031497,
          "duration": 0.15000000000000568
        },
        {
          "name": "E3",
          "midi": 52,
          "time": 148.0500000000016,
          "velocity": 0.7874015748031497,
          "duration": 0.15000000000000568
        },
        {
          "name": "E3",
          "midi": 52,
          "time": 148.2000000000016,
          "velocity": 0.7874015748031497,
          "duration": 0.15000000000000568
        },
        {
          "name": "E3",
          "midi": 52,
          "time": 148.35000000000161,
          "velocity": 0.7874015748031497,
          "duration": 0.15000000000000568
        },
        {
          "name": "B3",
          "midi": 59,
          "time": 148.35000000000161,
          "velocity": 0.7874015748031497,
          "duration": 0.15000000000000568
        },
        {
          "name": "E3",
          "midi": 52,
          "time": 148.50000000000162,
          "velocity": 0.7874015748031497,
          "duration": 0.15000000000000568
        },
        {
          "name": "E3",
          "midi": 52,
          "time": 148.65000000000163,
          "velocity": 0.7874015748031497,
          "duration": 0.15000000000000568
        },
        {
          "name": "E3",
          "midi": 52,
          "time": 148.80000000000163,
          "velocity": 0.7874015748031497,
          "duration": 0.30000000000001137
        },
        {
          "name": "B3",
          "midi": 59,
          "time": 148.80000000000163,
          "velocity": 0.7874015748031497,
          "duration": 0.30000000000001137
        },
        {
          "name": "D3",
          "midi": 50,
          "time": 149.10000000000164,
          "velocity": 0.7874015748031497,
          "duration": 0.30000000000001137
        },
        {
          "name": "A3",
          "midi": 57,
          "time": 149.10000000000164,
          "velocity": 0.7874015748031497,
          "duration": 0.30000000000001137
        },
        {
          "name": "E3",
          "midi": 52,
          "time": 149.40000000000165,
          "velocity": 0.7874015748031497,
          "duration": 0.15000000000000568
        },
        {
          "name": "B3",
          "midi": 59,
          "time": 149.40000000000165,
          "velocity": 0.7874015748031497,
          "duration": 0.15000000000000568
        },
        {
          "name": "E3",
          "midi": 52,
          "time": 149.55000000000166,
          "velocity": 0.7874015748031497,
          "duration": 0.15000000000000568
        },
        {
          "name": "E3",
          "midi": 52,
          "time": 149.70000000000167,
          "velocity": 0.7874015748031497,
          "duration": 0.15000000000000568
        },
        {
          "name": "E3",
          "midi": 52,
          "time": 149.85000000000167,
          "velocity": 0.7874015748031497,
          "duration": 0.15000000000000568
        },
        {
          "name": "B3",
          "midi": 59,
          "time": 149.85000000000167,
          "velocity": 0.7874015748031497,
          "duration": 0.15000000000000568
        },
        {
          "name": "E3",
          "midi": 52,
          "time": 150.00000000000168,
          "velocity": 0.7874015748031497,
          "duration": 0.15000000000000568
        },
        {
          "name": "E3",
          "midi": 52,
          "time": 150.15000000000168,
          "velocity": 0.7874015748031497,
          "duration": 0.15000000000000568
        },
        {
          "name": "E3",
          "midi": 52,
          "time": 150.3000000000017,
          "velocity": 0.7874015748031497,
          "duration": 0.15000000000000568
        },
        {
          "name": "B3",
          "midi": 59,
          "time": 150.3000000000017,
          "velocity": 0.7874015748031497,
          "duration": 0.15000000000000568
        },
        {
          "name": "E3",
          "midi": 52,
          "time": 150.4500000000017,
          "velocity": 0.7874015748031497,
          "duration": 0.15000000000000568
        },
        {
          "name": "E3",
          "midi": 52,
          "time": 150.6000000000017,
          "velocity": 0.7874015748031497,
          "duration": 0.15000000000000568
        },
        {
          "name": "E3",
          "midi": 52,
          "time": 150.7500000000017,
          "velocity": 0.7874015748031497,
          "duration": 0.15000000000000568
        },
        {
          "name": "B3",
          "midi": 59,
          "time": 150.7500000000017,
          "velocity": 0.7874015748031497,
          "duration": 0.15000000000000568
        },
        {
          "name": "E3",
          "midi": 52,
          "time": 150.9000000000017,
          "velocity": 0.7874015748031497,
          "duration": 0.15000000000000568
        },
        {
          "name": "E3",
          "midi": 52,
          "time": 151.05000000000172,
          "velocity": 0.7874015748031497,
          "duration": 0.15000000000000568
        },
        {
          "name": "C3",
          "midi": 48,
          "time": 151.20000000000172,
          "velocity": 0.7874015748031497,
          "duration": 0.30000000000001137
        },
        {
          "name": "G3",
          "midi": 55,
          "time": 151.20000000000172,
          "velocity": 0.7874015748031497,
          "duration": 0.30000000000001137
        },
        {
          "name": "D3",
          "midi": 50,
          "time": 151.50000000000173,
          "velocity": 0.7874015748031497,
          "duration": 0.30000000000001137
        },
        {
          "name": "A3",
          "midi": 57,
          "time": 151.50000000000173,
          "velocity": 0.7874015748031497,
          "duration": 0.30000000000001137
        },
        {
          "name": "E3",
          "midi": 52,
          "time": 151.80000000000175,
          "velocity": 0.7874015748031497,
          "duration": 0.15000000000000568
        },
        {
          "name": "B3",
          "midi": 59,
          "time": 151.80000000000175,
          "velocity": 0.7874015748031497,
          "duration": 0.15000000000000568
        },
        {
          "name": "E3",
          "midi": 52,
          "time": 151.95000000000175,
          "velocity": 0.7874015748031497,
          "duration": 0.15000000000000568
        },
        {
          "name": "E3",
          "midi": 52,
          "time": 152.10000000000176,
          "velocity": 0.7874015748031497,
          "duration": 0.15000000000000568
        },
        {
          "name": "E3",
          "midi": 52,
          "time": 152.25000000000176,
          "velocity": 0.7874015748031497,
          "duration": 0.15000000000000568
        },
        {
          "name": "B3",
          "midi": 59,
          "time": 152.25000000000176,
          "velocity": 0.7874015748031497,
          "duration": 0.15000000000000568
        },
        {
          "name": "E3",
          "midi": 52,
          "time": 152.40000000000177,
          "velocity": 0.7874015748031497,
          "duration": 0.15000000000000568
        },
        {
          "name": "E3",
          "midi": 52,
          "time": 152.55000000000177,
          "velocity": 0.7874015748031497,
          "duration": 0.15000000000000568
        },
        {
          "name": "E3",
          "midi": 52,
          "time": 152.70000000000178,
          "velocity": 0.7874015748031497,
          "duration": 0.15000000000000568
        },
        {
          "name": "B3",
          "midi": 59,
          "time": 152.70000000000178,
          "velocity": 0.7874015748031497,
          "duration": 0.15000000000000568
        },
        {
          "name": "E3",
          "midi": 52,
          "time": 152.85000000000178,
          "velocity": 0.7874015748031497,
          "duration": 0.15000000000000568
        },
        {
          "name": "E3",
          "midi": 52,
          "time": 153.0000000000018,
          "velocity": 0.7874015748031497,
          "duration": 0.15000000000000568
        },
        {
          "name": "E3",
          "midi": 52,
          "time": 153.1500000000018,
          "velocity": 0.7874015748031497,
          "duration": 0.15000000000000568
        },
        {
          "name": "B3",
          "midi": 59,
          "time": 153.1500000000018,
          "velocity": 0.7874015748031497,
          "duration": 0.15000000000000568
        },
        {
          "name": "E3",
          "midi": 52,
          "time": 153.3000000000018,
          "velocity": 0.7874015748031497,
          "duration": 0.15000000000000568
        },
        {
          "name": "E3",
          "midi": 52,
          "time": 153.4500000000018,
          "velocity": 0.7874015748031497,
          "duration": 0.15000000000000568
        },
        {
          "name": "E3",
          "midi": 52,
          "time": 153.6000000000018,
          "velocity": 0.7874015748031497,
          "duration": 0.30000000000001137
        },
        {
          "name": "B3",
          "midi": 59,
          "time": 153.6000000000018,
          "velocity": 0.7874015748031497,
          "duration": 0.30000000000001137
        },
        {
          "name": "D3",
          "midi": 50,
          "time": 153.90000000000182,
          "velocity": 0.7874015748031497,
          "duration": 0.30000000000001137
        },
        {
          "name": "A3",
          "midi": 57,
          "time": 153.90000000000182,
          "velocity": 0.7874015748031497,
          "duration": 0.30000000000001137
        },
        {
          "name": "E3",
          "midi": 52,
          "time": 154.20000000000184,
          "velocity": 0.7874015748031497,
          "duration": 0.15000000000000568
        },
        {
          "name": "B3",
          "midi": 59,
          "time": 154.20000000000184,
          "velocity": 0.7874015748031497,
          "duration": 0.15000000000000568
        },
        {
          "name": "E3",
          "midi": 52,
          "time": 154.35000000000184,
          "velocity": 0.7874015748031497,
          "duration": 0.15000000000000568
        },
        {
          "name": "E3",
          "midi": 52,
          "time": 154.50000000000185,
          "velocity": 0.7874015748031497,
          "duration": 0.15000000000000568
        },
        {
          "name": "E3",
          "midi": 52,
          "time": 154.65000000000185,
          "velocity": 0.7874015748031497,
          "duration": 0.15000000000000568
        },
        {
          "name": "B3",
          "midi": 59,
          "time": 154.65000000000185,
          "velocity": 0.7874015748031497,
          "duration": 0.15000000000000568
        },
        {
          "name": "E3",
          "midi": 52,
          "time": 154.80000000000186,
          "velocity": 0.7874015748031497,
          "duration": 0.15000000000000568
        },
        {
          "name": "E3",
          "midi": 52,
          "time": 154.95000000000186,
          "velocity": 0.7874015748031497,
          "duration": 0.15000000000000568
        },
        {
          "name": "E3",
          "midi": 52,
          "time": 155.10000000000187,
          "velocity": 0.7874015748031497,
          "duration": 0.15000000000000568
        },
        {
          "name": "B3",
          "midi": 59,
          "time": 155.10000000000187,
          "velocity": 0.7874015748031497,
          "duration": 0.15000000000000568
        },
        {
          "name": "E3",
          "midi": 52,
          "time": 155.25000000000188,
          "velocity": 0.7874015748031497,
          "duration": 0.15000000000000568
        },
        {
          "name": "E3",
          "midi": 52,
          "time": 155.40000000000188,
          "velocity": 0.7874015748031497,
          "duration": 0.15000000000000568
        },
        {
          "name": "E3",
          "midi": 52,
          "time": 155.5500000000019,
          "velocity": 0.7874015748031497,
          "duration": 0.15000000000000568
        },
        {
          "name": "B3",
          "midi": 59,
          "time": 155.5500000000019,
          "velocity": 0.7874015748031497,
          "duration": 0.15000000000000568
        },
        {
          "name": "E3",
          "midi": 52,
          "time": 155.7000000000019,
          "velocity": 0.7874015748031497,
          "duration": 0.15000000000000568
        },
        {
          "name": "E3",
          "midi": 52,
          "time": 155.8500000000019,
          "velocity": 0.7874015748031497,
          "duration": 0.15000000000000568
        },
        {
          "name": "C3",
          "midi": 48,
          "time": 156.0000000000019,
          "velocity": 0.7874015748031497,
          "duration": 0.30000000000001137
        },
        {
          "name": "G3",
          "midi": 55,
          "time": 156.0000000000019,
          "velocity": 0.7874015748031497,
          "duration": 0.30000000000001137
        },
        {
          "name": "D3",
          "midi": 50,
          "time": 156.30000000000192,
          "velocity": 0.7874015748031497,
          "duration": 0.30000000000001137
        },
        {
          "name": "A3",
          "midi": 57,
          "time": 156.30000000000192,
          "velocity": 0.7874015748031497,
          "duration": 0.30000000000001137
        },
        {
          "name": "E3",
          "midi": 52,
          "time": 156.60000000000193,
          "velocity": 0.7874015748031497,
          "duration": 0.15000000000000568
        },
        {
          "name": "B3",
          "midi": 59,
          "time": 156.60000000000193,
          "velocity": 0.7874015748031497,
          "duration": 0.15000000000000568
        },
        {
          "name": "E3",
          "midi": 52,
          "time": 156.75000000000193,
          "velocity": 0.7874015748031497,
          "duration": 0.15000000000000568
        },
        {
          "name": "E3",
          "midi": 52,
          "time": 156.90000000000194,
          "velocity": 0.7874015748031497,
          "duration": 0.15000000000000568
        },
        {
          "name": "E3",
          "midi": 52,
          "time": 157.05000000000194,
          "velocity": 0.7874015748031497,
          "duration": 0.15000000000000568
        },
        {
          "name": "B3",
          "midi": 59,
          "time": 157.05000000000194,
          "velocity": 0.7874015748031497,
          "duration": 0.15000000000000568
        },
        {
          "name": "E3",
          "midi": 52,
          "time": 157.20000000000195,
          "velocity": 0.7874015748031497,
          "duration": 0.15000000000000568
        },
        {
          "name": "E3",
          "midi": 52,
          "time": 157.35000000000196,
          "velocity": 0.7874015748031497,
          "duration": 0.15000000000000568
        },
        {
          "name": "E3",
          "midi": 52,
          "time": 157.50000000000196,
          "velocity": 0.7874015748031497,
          "duration": 0.15000000000000568
        },
        {
          "name": "B3",
          "midi": 59,
          "time": 157.50000000000196,
          "velocity": 0.7874015748031497,
          "duration": 0.15000000000000568
        },
        {
          "name": "E3",
          "midi": 52,
          "time": 157.65000000000197,
          "velocity": 0.7874015748031497,
          "duration": 0.15000000000000568
        },
        {
          "name": "E3",
          "midi": 52,
          "time": 157.80000000000197,
          "velocity": 0.7874015748031497,
          "duration": 0.15000000000000568
        },
        {
          "name": "E3",
          "midi": 52,
          "time": 157.95000000000198,
          "velocity": 0.7874015748031497,
          "duration": 0.15000000000000568
        },
        {
          "name": "B3",
          "midi": 59,
          "time": 157.95000000000198,
          "velocity": 0.7874015748031497,
          "duration": 0.15000000000000568
        },
        {
          "name": "E3",
          "midi": 52,
          "time": 158.10000000000198,
          "velocity": 0.7874015748031497,
          "duration": 0.15000000000000568
        },
        {
          "name": "E3",
          "midi": 52,
          "time": 158.250000000002,
          "velocity": 0.7874015748031497,
          "duration": 0.15000000000000568
        },
        {
          "name": "E3",
          "midi": 52,
          "time": 158.400000000002,
          "velocity": 0.7874015748031497,
          "duration": 0.30000000000001137
        },
        {
          "name": "B3",
          "midi": 59,
          "time": 158.400000000002,
          "velocity": 0.7874015748031497,
          "duration": 0.30000000000001137
        },
        {
          "name": "D3",
          "midi": 50,
          "time": 158.700000000002,
          "velocity": 0.7874015748031497,
          "duration": 0.30000000000001137
        },
        {
          "name": "A3",
          "midi": 57,
          "time": 158.700000000002,
          "velocity": 0.7874015748031497,
          "duration": 0.30000000000001137
        },
        {
          "name": "E3",
          "midi": 52,
          "time": 159.00000000000202,
          "velocity": 0.7874015748031497,
          "duration": 0.15000000000000568
        },
        {
          "name": "B3",
          "midi": 59,
          "time": 159.00000000000202,
          "velocity": 0.7874015748031497,
          "duration": 0.15000000000000568
        },
        {
          "name": "E3",
          "midi": 52,
          "time": 159.15000000000202,
          "velocity": 0.7874015748031497,
          "duration": 0.15000000000000568
        },
        {
          "name": "E3",
          "midi": 52,
          "time": 159.30000000000203,
          "velocity": 0.7874015748031497,
          "duration": 0.15000000000000568
        },
        {
          "name": "E3",
          "midi": 52,
          "time": 159.45000000000203,
          "velocity": 0.7874015748031497,
          "duration": 0.15000000000000568
        },
        {
          "name": "B3",
          "midi": 59,
          "time": 159.45000000000203,
          "velocity": 0.7874015748031497,
          "duration": 0.15000000000000568
        },
        {
          "name": "E3",
          "midi": 52,
          "time": 159.60000000000204,
          "velocity": 0.7874015748031497,
          "duration": 0.15000000000000568
        },
        {
          "name": "E3",
          "midi": 52,
          "time": 159.75000000000205,
          "velocity": 0.7874015748031497,
          "duration": 0.15000000000000568
        },
        {
          "name": "E3",
          "midi": 52,
          "time": 159.90000000000205,
          "velocity": 0.7874015748031497,
          "duration": 0.15000000000000568
        },
        {
          "name": "B3",
          "midi": 59,
          "time": 159.90000000000205,
          "velocity": 0.7874015748031497,
          "duration": 0.15000000000000568
        },
        {
          "name": "E3",
          "midi": 52,
          "time": 160.05000000000206,
          "velocity": 0.7874015748031497,
          "duration": 0.15000000000000568
        },
        {
          "name": "E3",
          "midi": 52,
          "time": 160.20000000000206,
          "velocity": 0.7874015748031497,
          "duration": 0.15000000000000568
        },
        {
          "name": "E3",
          "midi": 52,
          "time": 160.35000000000207,
          "velocity": 0.7874015748031497,
          "duration": 0.15000000000000568
        },
        {
          "name": "B3",
          "midi": 59,
          "time": 160.35000000000207,
          "velocity": 0.7874015748031497,
          "duration": 0.15000000000000568
        },
        {
          "name": "E3",
          "midi": 52,
          "time": 160.50000000000207,
          "velocity": 0.7874015748031497,
          "duration": 0.15000000000000568
        },
        {
          "name": "E3",
          "midi": 52,
          "time": 160.65000000000208,
          "velocity": 0.7874015748031497,
          "duration": 0.15000000000000568
        },
        {
          "name": "C3",
          "midi": 48,
          "time": 160.8000000000021,
          "velocity": 0.7874015748031497,
          "duration": 0.30000000000001137
        },
        {
          "name": "G3",
          "midi": 55,
          "time": 160.8000000000021,
          "velocity": 0.7874015748031497,
          "duration": 0.30000000000001137
        },
        {
          "name": "D3",
          "midi": 50,
          "time": 161.1000000000021,
          "velocity": 0.7874015748031497,
          "duration": 0.30000000000001137
        },
        {
          "name": "A3",
          "midi": 57,
          "time": 161.1000000000021,
          "velocity": 0.7874015748031497,
          "duration": 0.30000000000001137
        },
        {
          "name": "E3",
          "midi": 52,
          "time": 161.4000000000021,
          "velocity": 0.7874015748031497,
          "duration": 0.15000000000000568
        },
        {
          "name": "B3",
          "midi": 59,
          "time": 161.4000000000021,
          "velocity": 0.7874015748031497,
          "duration": 0.15000000000000568
        },
        {
          "name": "E3",
          "midi": 52,
          "time": 161.55000000000211,
          "velocity": 0.7874015748031497,
          "duration": 0.15000000000000568
        },
        {
          "name": "E3",
          "midi": 52,
          "time": 161.70000000000212,
          "velocity": 0.7874015748031497,
          "duration": 0.15000000000000568
        },
        {
          "name": "E3",
          "midi": 52,
          "time": 161.85000000000213,
          "velocity": 0.7874015748031497,
          "duration": 0.15000000000000568
        },
        {
          "name": "B3",
          "midi": 59,
          "time": 161.85000000000213,
          "velocity": 0.7874015748031497,
          "duration": 0.15000000000000568
        },
        {
          "name": "E3",
          "midi": 52,
          "time": 162.00000000000213,
          "velocity": 0.7874015748031497,
          "duration": 0.15000000000000568
        },
        {
          "name": "E3",
          "midi": 52,
          "time": 162.15000000000214,
          "velocity": 0.7874015748031497,
          "duration": 0.15000000000000568
        },
        {
          "name": "E3",
          "midi": 52,
          "time": 162.30000000000214,
          "velocity": 0.7874015748031497,
          "duration": 0.15000000000000568
        },
        {
          "name": "B3",
          "midi": 59,
          "time": 162.30000000000214,
          "velocity": 0.7874015748031497,
          "duration": 0.15000000000000568
        },
        {
          "name": "E3",
          "midi": 52,
          "time": 162.45000000000215,
          "velocity": 0.7874015748031497,
          "duration": 0.15000000000000568
        },
        {
          "name": "E3",
          "midi": 52,
          "time": 162.60000000000215,
          "velocity": 0.7874015748031497,
          "duration": 0.15000000000000568
        },
        {
          "name": "E3",
          "midi": 52,
          "time": 162.75000000000216,
          "velocity": 0.7874015748031497,
          "duration": 0.15000000000000568
        },
        {
          "name": "B3",
          "midi": 59,
          "time": 162.75000000000216,
          "velocity": 0.7874015748031497,
          "duration": 0.15000000000000568
        },
        {
          "name": "E3",
          "midi": 52,
          "time": 162.90000000000217,
          "velocity": 0.7874015748031497,
          "duration": 0.15000000000000568
        },
        {
          "name": "E3",
          "midi": 52,
          "time": 163.05000000000217,
          "velocity": 0.7874015748031497,
          "duration": 0.15000000000000568
        },
        {
          "name": "E3",
          "midi": 52,
          "time": 163.20000000000218,
          "velocity": 0.7874015748031497,
          "duration": 0.30000000000001137
        },
        {
          "name": "B3",
          "midi": 59,
          "time": 163.20000000000218,
          "velocity": 0.7874015748031497,
          "duration": 0.30000000000001137
        },
        {
          "name": "D3",
          "midi": 50,
          "time": 163.5000000000022,
          "velocity": 0.7874015748031497,
          "duration": 0.30000000000001137
        },
        {
          "name": "A3",
          "midi": 57,
          "time": 163.5000000000022,
          "velocity": 0.7874015748031497,
          "duration": 0.30000000000001137
        },
        {
          "name": "E3",
          "midi": 52,
          "time": 163.8000000000022,
          "velocity": 0.7874015748031497,
          "duration": 0.15000000000000568
        },
        {
          "name": "B3",
          "midi": 59,
          "time": 163.8000000000022,
          "velocity": 0.7874015748031497,
          "duration": 0.15000000000000568
        },
        {
          "name": "E3",
          "midi": 52,
          "time": 163.9500000000022,
          "velocity": 0.7874015748031497,
          "duration": 0.15000000000000568
        },
        {
          "name": "E3",
          "midi": 52,
          "time": 164.1000000000022,
          "velocity": 0.7874015748031497,
          "duration": 0.15000000000000568
        },
        {
          "name": "E3",
          "midi": 52,
          "time": 164.25000000000222,
          "velocity": 0.7874015748031497,
          "duration": 0.15000000000000568
        },
        {
          "name": "B3",
          "midi": 59,
          "time": 164.25000000000222,
          "velocity": 0.7874015748031497,
          "duration": 0.15000000000000568
        },
        {
          "name": "E3",
          "midi": 52,
          "time": 164.40000000000222,
          "velocity": 0.7874015748031497,
          "duration": 0.15000000000000568
        },
        {
          "name": "E3",
          "midi": 52,
          "time": 164.55000000000223,
          "velocity": 0.7874015748031497,
          "duration": 0.15000000000000568
        },
        {
          "name": "E3",
          "midi": 52,
          "time": 164.70000000000223,
          "velocity": 0.7874015748031497,
          "duration": 0.15000000000000568
        },
        {
          "name": "B3",
          "midi": 59,
          "time": 164.70000000000223,
          "velocity": 0.7874015748031497,
          "duration": 0.15000000000000568
        },
        {
          "name": "E3",
          "midi": 52,
          "time": 164.85000000000224,
          "velocity": 0.7874015748031497,
          "duration": 0.15000000000000568
        },
        {
          "name": "E3",
          "midi": 52,
          "time": 165.00000000000225,
          "velocity": 0.7874015748031497,
          "duration": 0.15000000000000568
        },
        {
          "name": "E3",
          "midi": 52,
          "time": 165.15000000000225,
          "velocity": 0.7874015748031497,
          "duration": 0.15000000000000568
        },
        {
          "name": "B3",
          "midi": 59,
          "time": 165.15000000000225,
          "velocity": 0.7874015748031497,
          "duration": 0.15000000000000568
        },
        {
          "name": "E3",
          "midi": 52,
          "time": 165.30000000000226,
          "velocity": 0.7874015748031497,
          "duration": 0.15000000000000568
        },
        {
          "name": "E3",
          "midi": 52,
          "time": 165.45000000000226,
          "velocity": 0.7874015748031497,
          "duration": 0.15000000000000568
        },
        {
          "name": "C3",
          "midi": 48,
          "time": 165.60000000000227,
          "velocity": 0.7874015748031497,
          "duration": 0.30000000000001137
        },
        {
          "name": "G3",
          "midi": 55,
          "time": 165.60000000000227,
          "velocity": 0.7874015748031497,
          "duration": 0.30000000000001137
        },
        {
          "name": "D3",
          "midi": 50,
          "time": 165.90000000000228,
          "velocity": 0.7874015748031497,
          "duration": 0.30000000000001137
        },
        {
          "name": "A3",
          "midi": 57,
          "time": 165.90000000000228,
          "velocity": 0.7874015748031497,
          "duration": 0.30000000000001137
        },
        {
          "name": "E5",
          "midi": 76,
          "time": 166.2000000000023,
          "velocity": 0.7874015748031497,
          "duration": 0.07499999999998863
        },
        {
          "name": "F#5",
          "midi": 78,
          "time": 166.27500000000228,
          "velocity": 0.7874015748031497,
          "duration": 0.07499999999998863
        },
        {
          "name": "D5",
          "midi": 74,
          "time": 166.35000000000227,
          "velocity": 0.7874015748031497,
          "duration": 0.15000000000000568
        },
        {
          "name": "C#5",
          "midi": 73,
          "time": 166.50000000000227,
          "velocity": 0.7874015748031497,
          "duration": 0.15000000000000568
        },
        {
          "name": "B4",
          "midi": 71,
          "time": 166.65000000000228,
          "velocity": 0.7874015748031497,
          "duration": 0.15000000000000568
        },
        {
          "name": "C#5",
          "midi": 73,
          "time": 166.80000000000229,
          "velocity": 0.7874015748031497,
          "duration": 1.5
        },
        {
          "name": "B4",
          "midi": 71,
          "time": 168.30000000000229,
          "velocity": 0.7874015748031497,
          "duration": 0.15500000000000114
        },
        {
          "name": "C#5",
          "midi": 73,
          "time": 168.4500000000023,
          "velocity": 0.7874015748031497,
          "duration": 0.15000000000000568
        },
        {
          "name": "D5",
          "midi": 74,
          "time": 168.6000000000023,
          "velocity": 0.7874015748031497,
          "duration": 0.9000000000000057
        },
        {
          "name": "C#5",
          "midi": 73,
          "time": 169.5000000000023,
          "velocity": 0.7874015748031497,
          "duration": 0.15000000000000568
        },
        {
          "name": "D5",
          "midi": 74,
          "time": 169.6500000000023,
          "velocity": 0.7874015748031497,
          "duration": 0.15000000000000568
        },
        {
          "name": "E5",
          "midi": 76,
          "time": 169.8000000000023,
          "velocity": 0.7874015748031497,
          "duration": 1.1999999999999886
        },
        {
          "name": "F#5",
          "midi": 78,
          "time": 171.0000000000023,
          "velocity": 0.7874015748031497,
          "duration": 0.07499999999998863
        },
        {
          "name": "E5",
          "midi": 76,
          "time": 171.0750000000023,
          "velocity": 0.7874015748031497,
          "duration": 0.07499999999998863
        },
        {
          "name": "D5",
          "midi": 74,
          "time": 171.15000000000228,
          "velocity": 0.7874015748031497,
          "duration": 0.15000000000000568
        },
        {
          "name": "C#5",
          "midi": 73,
          "time": 171.30000000000229,
          "velocity": 0.7874015748031497,
          "duration": 0.15000000000000568
        },
        {
          "name": "B4",
          "midi": 71,
          "time": 171.4500000000023,
          "velocity": 0.7874015748031497,
          "duration": 0.15000000000000568
        },
        {
          "name": "C#5",
          "midi": 73,
          "time": 171.6000000000023,
          "velocity": 0.7874015748031497,
          "duration": 1.5
        },
        {
          "name": "B4",
          "midi": 71,
          "time": 173.1000000000023,
          "velocity": 0.7874015748031497,
          "duration": 0.15500000000000114
        },
        {
          "name": "C#5",
          "midi": 73,
          "time": 173.2500000000023,
          "velocity": 0.7874015748031497,
          "duration": 0.15000000000000568
        },
        {
          "name": "D5",
          "midi": 74,
          "time": 173.4000000000023,
          "velocity": 0.7874015748031497,
          "duration": 0.9000000000000057
        },
        {
          "name": "C#5",
          "midi": 73,
          "time": 174.3000000000023,
          "velocity": 0.7874015748031497,
          "duration": 0.15000000000000568
        },
        {
          "name": "D5",
          "midi": 74,
          "time": 174.45000000000232,
          "velocity": 0.7874015748031497,
          "duration": 0.15000000000000568
        },
        {
          "name": "E5",
          "midi": 76,
          "time": 174.60000000000232,
          "velocity": 0.7874015748031497,
          "duration": 0.5999999999999943
        },
        {
          "name": "D5",
          "midi": 74,
          "time": 175.20000000000232,
          "velocity": 0.7874015748031497,
          "duration": 0.30000000000001137
        },
        {
          "name": "C#5",
          "midi": 73,
          "time": 175.50000000000233,
          "velocity": 0.7874015748031497,
          "duration": 0.30000000000001137
        },
        {
          "name": "E5",
          "midi": 76,
          "time": 175.80000000000234,
          "velocity": 0.7874015748031497,
          "duration": 0.07499999999998863
        },
        {
          "name": "F#5",
          "midi": 78,
          "time": 175.87500000000233,
          "velocity": 0.7874015748031497,
          "duration": 0.07499999999998863
        },
        {
          "name": "D5",
          "midi": 74,
          "time": 175.95000000000232,
          "velocity": 0.7874015748031497,
          "duration": 0.15000000000000568
        },
        {
          "name": "C#5",
          "midi": 73,
          "time": 176.10000000000232,
          "velocity": 0.7874015748031497,
          "duration": 0.15000000000000568
        },
        {
          "name": "B4",
          "midi": 71,
          "time": 176.25000000000233,
          "velocity": 0.7874015748031497,
          "duration": 0.15000000000000568
        },
        {
          "name": "C#5",
          "midi": 73,
          "time": 176.40000000000234,
          "velocity": 0.7874015748031497,
          "duration": 1.5
        },
        {
          "name": "E4",
          "midi": 64,
          "time": 177.89750000000234,
          "velocity": 0.7874015748031497,
          "duration": 0.15000000000000568
        },
        {
          "name": "D4",
          "midi": 62,
          "time": 178.05000000000234,
          "velocity": 0.7874015748031497,
          "duration": 0.15000000000000568
        },
        {
          "name": "E4",
          "midi": 64,
          "time": 178.20000000000235,
          "velocity": 0.7874015748031497,
          "duration": 0.15125000000000455
        },
        {
          "name": "E4",
          "midi": 64,
          "time": 178.50000000000236,
          "velocity": 0.7874015748031497,
          "duration": 0.15000000000000568
        },
        {
          "name": "F#4",
          "midi": 66,
          "time": 178.65000000000236,
          "velocity": 0.7874015748031497,
          "duration": 0.15000000000000568
        },
        {
          "name": "G4",
          "midi": 67,
          "time": 178.80000000000237,
          "velocity": 0.7874015748031497,
          "duration": 0.15000000000000568
        },
        {
          "name": "F#4",
          "midi": 66,
          "time": 179.10000000000238,
          "velocity": 0.7874015748031497,
          "duration": 0.15000000000000568
        },
        {
          "name": "G4",
          "midi": 67,
          "time": 179.2500000000024,
          "velocity": 0.7874015748031497,
          "duration": 0.15000000000000568
        },
        {
          "name": "A4",
          "midi": 69,
          "time": 179.4000000000024,
          "velocity": 0.7874015748031497,
          "duration": 0.15000000000000568
        },
        {
          "name": "G4",
          "midi": 67,
          "time": 179.7000000000024,
          "velocity": 0.7874015748031497,
          "duration": 0.15000000000000568
        },
        {
          "name": "A4",
          "midi": 69,
          "time": 179.8500000000024,
          "velocity": 0.7874015748031497,
          "duration": 0.15000000000000568
        },
        {
          "name": "B4",
          "midi": 71,
          "time": 180.00000000000242,
          "velocity": 0.7874015748031497,
          "duration": 0.15000000000000568
        },
        {
          "name": "A4",
          "midi": 69,
          "time": 180.30000000000243,
          "velocity": 0.7874015748031497,
          "duration": 0.15000000000000568
        },
        {
          "name": "B4",
          "midi": 71,
          "time": 180.45000000000243,
          "velocity": 0.7874015748031497,
          "duration": 0.14750000000000796
        },
        {
          "name": "D5",
          "midi": 74,
          "time": 180.60000000000244,
          "velocity": 0.7874015748031497,
          "duration": 0.15000000000000568
        },
        {
          "name": "D5",
          "midi": 74,
          "time": 180.75000000000244,
          "velocity": 0.7874015748031497,
          "duration": 0.15000000000000568
        },
        {
          "name": "C5",
          "midi": 72,
          "time": 180.90000000000245,
          "velocity": 0.7874015748031497,
          "duration": 0.15000000000000568
        },
        {
          "name": "B4",
          "midi": 71,
          "time": 181.05000000000246,
          "velocity": 0.7874015748031497,
          "duration": 0.15000000000000568
        },
        {
          "name": "A4",
          "midi": 69,
          "time": 181.20000000000246,
          "velocity": 0.7874015748031497,
          "duration": 0.15000000000000568
        },
        {
          "name": "G4",
          "midi": 67,
          "time": 181.50000000000247,
          "velocity": 0.7874015748031497,
          "duration": 0.15000000000000568
        },
        {
          "name": "F#4",
          "midi": 66,
          "time": 181.80000000000248,
          "velocity": 0.7874015748031497,
          "duration": 0.14750000000000796
        },
        {
          "name": "D4",
          "midi": 62,
          "time": 182.1000000000025,
          "velocity": 0.7874015748031497,
          "duration": 0.15000000000000568
        },
        {
          "name": "E4",
          "midi": 64,
          "time": 182.4000000000025,
          "velocity": 0.7874015748031497,
          "duration": 0.15000000000000568
        },
        {
          "name": "E4",
          "midi": 64,
          "time": 182.70000000000252,
          "velocity": 0.7874015748031497,
          "duration": 0.15000000000000568
        },
        {
          "name": "D4",
          "midi": 62,
          "time": 182.85250000000252,
          "velocity": 0.7874015748031497,
          "duration": 0.15000000000000568
        },
        {
          "name": "E4",
          "midi": 64,
          "time": 183.00250000000253,
          "velocity": 0.7874015748031497,
          "duration": 0.15125000000000455
        },
        {
          "name": "E4",
          "midi": 64,
          "time": 183.30250000000254,
          "velocity": 0.7874015748031497,
          "duration": 0.15000000000000568
        },
        {
          "name": "F#4",
          "midi": 66,
          "time": 183.45250000000254,
          "velocity": 0.7874015748031497,
          "duration": 0.15000000000000568
        },
        {
          "name": "G4",
          "midi": 67,
          "time": 183.60250000000255,
          "velocity": 0.7874015748031497,
          "duration": 0.15000000000000568
        },
        {
          "name": "F#4",
          "midi": 66,
          "time": 183.90250000000256,
          "velocity": 0.7874015748031497,
          "duration": 0.15000000000000568
        },
        {
          "name": "G4",
          "midi": 67,
          "time": 184.05250000000257,
          "velocity": 0.7874015748031497,
          "duration": 0.15000000000000568
        },
        {
          "name": "A4",
          "midi": 69,
          "time": 184.20250000000257,
          "velocity": 0.7874015748031497,
          "duration": 0.15000000000000568
        },
        {
          "name": "G4",
          "midi": 67,
          "time": 184.50250000000258,
          "velocity": 0.7874015748031497,
          "duration": 0.15000000000000568
        },
        {
          "name": "A4",
          "midi": 69,
          "time": 184.6525000000026,
          "velocity": 0.7874015748031497,
          "duration": 0.15000000000000568
        },
        {
          "name": "B4",
          "midi": 71,
          "time": 184.8025000000026,
          "velocity": 0.7874015748031497,
          "duration": 0.15000000000000568
        },
        {
          "name": "A4",
          "midi": 69,
          "time": 185.1025000000026,
          "velocity": 0.7874015748031497,
          "duration": 0.15000000000000568
        },
        {
          "name": "B4",
          "midi": 71,
          "time": 185.2525000000026,
          "velocity": 0.7874015748031497,
          "duration": 0.14750000000000796
        },
        {
          "name": "D5",
          "midi": 74,
          "time": 185.40250000000262,
          "velocity": 0.7874015748031497,
          "duration": 0.15000000000000568
        },
        {
          "name": "D5",
          "midi": 74,
          "time": 185.55250000000262,
          "velocity": 0.7874015748031497,
          "duration": 0.15000000000000568
        },
        {
          "name": "C5",
          "midi": 72,
          "time": 185.70250000000263,
          "velocity": 0.7874015748031497,
          "duration": 0.15000000000000568
        },
        {
          "name": "B4",
          "midi": 71,
          "time": 185.85250000000264,
          "velocity": 0.7874015748031497,
          "duration": 0.15000000000000568
        },
        {
          "name": "A4",
          "midi": 69,
          "time": 186.00250000000264,
          "velocity": 0.7874015748031497,
          "duration": 0.15000000000000568
        },
        {
          "name": "G4",
          "midi": 67,
          "time": 186.30250000000265,
          "velocity": 0.7874015748031497,
          "duration": 0.15000000000000568
        },
        {
          "name": "F#4",
          "midi": 66,
          "time": 186.60250000000266,
          "velocity": 0.7874015748031497,
          "duration": 0.14750000000000796
        },
        {
          "name": "D4",
          "midi": 62,
          "time": 186.90250000000268,
          "velocity": 0.7874015748031497,
          "duration": 0.22499999999999432
        },
        {
          "name": "E4",
          "midi": 64,
          "time": 187.20250000000266,
          "velocity": 0.7874015748031497,
          "duration": 0.375
        },
        {
          "name": "E5",
          "midi": 76,
          "time": 187.80000000000265,
          "velocity": 0.7874015748031497,
          "duration": 0.15000000000000568
        },
        {
          "name": "E5",
          "midi": 76,
          "time": 187.95000000000266,
          "velocity": 0.7874015748031497,
          "duration": 0.07499999999998863
        },
        {
          "name": "E5",
          "midi": 76,
          "time": 188.02500000000265,
          "velocity": 0.7874015748031497,
          "duration": 0.07499999999998863
        },
        {
          "name": "E5",
          "midi": 76,
          "time": 188.10000000000264,
          "velocity": 0.7874015748031497,
          "duration": 0.15125000000000455
        },
        {
          "name": "B4",
          "midi": 71,
          "time": 188.25000000000264,
          "velocity": 0.7874015748031497,
          "duration": 0.15000000000000568
        },
        {
          "name": "C5",
          "midi": 72,
          "time": 188.40125000000265,
          "velocity": 0.7874015748031497,
          "duration": 0.15000000000000568
        },
        {
          "name": "C5",
          "midi": 72,
          "time": 188.55000000000265,
          "velocity": 0.7874015748031497,
          "duration": 0.15000000000000568
        },
        {
          "name": "C5",
          "midi": 72,
          "time": 188.70000000000266,
          "velocity": 0.7874015748031497,
          "duration": 0.15000000000000568
        },
        {
          "name": "B4",
          "midi": 71,
          "time": 188.85000000000267,
          "velocity": 0.7874015748031497,
          "duration": 0.15000000000000568
        },
        {
          "name": "D5",
          "midi": 74,
          "time": 189.00000000000267,
          "velocity": 0.7874015748031497,
          "duration": 0.15000000000000568
        },
        {
          "name": "D5",
          "midi": 74,
          "time": 189.15000000000268,
          "velocity": 0.7874015748031497,
          "duration": 0.07499999999998863
        },
        {
          "name": "D5",
          "midi": 74,
          "time": 189.22500000000267,
          "velocity": 0.7874015748031497,
          "duration": 0.07499999999998863
        },
        {
          "name": "D5",
          "midi": 74,
          "time": 189.30000000000265,
          "velocity": 0.7874015748031497,
          "duration": 0.15125000000000455
        },
        {
          "name": "A4",
          "midi": 69,
          "time": 189.45000000000266,
          "velocity": 0.7874015748031497,
          "duration": 0.15000000000000568
        },
        {
          "name": "B4",
          "midi": 71,
          "time": 189.60000000000267,
          "velocity": 0.7874015748031497,
          "duration": 0.15000000000000568
        },
        {
          "name": "B4",
          "midi": 71,
          "time": 189.74875000000267,
          "velocity": 0.7874015748031497,
          "duration": 0.15000000000000568
        },
        {
          "name": "B4",
          "midi": 71,
          "time": 189.89875000000268,
          "velocity": 0.7874015748031497,
          "duration": 0.15000000000000568
        },
        {
          "name": "A4",
          "midi": 69,
          "time": 190.05000000000268,
          "velocity": 0.7874015748031497,
          "duration": 0.15000000000000568
        },
        {
          "name": "C5",
          "midi": 72,
          "time": 190.2000000000027,
          "velocity": 0.7874015748031497,
          "duration": 0.15000000000000568
        },
        {
          "name": "C5",
          "midi": 72,
          "time": 190.3500000000027,
          "velocity": 0.7874015748031497,
          "duration": 0.07499999999998863
        },
        {
          "name": "C5",
          "midi": 72,
          "time": 190.42500000000268,
          "velocity": 0.7874015748031497,
          "duration": 0.07499999999998863
        },
        {
          "name": "C5",
          "midi": 72,
          "time": 190.50000000000267,
          "velocity": 0.7874015748031497,
          "duration": 0.15125000000000455
        },
        {
          "name": "G4",
          "midi": 67,
          "time": 190.65000000000268,
          "velocity": 0.7874015748031497,
          "duration": 0.15000000000000568
        },
        {
          "name": "A4",
          "midi": 69,
          "time": 190.80000000000268,
          "velocity": 0.7874015748031497,
          "duration": 0.15000000000000568
        },
        {
          "name": "A4",
          "midi": 69,
          "time": 190.9487500000027,
          "velocity": 0.7874015748031497,
          "duration": 0.15000000000000568
        },
        {
          "name": "A4",
          "midi": 69,
          "time": 191.0987500000027,
          "velocity": 0.7874015748031497,
          "duration": 0.15000000000000568
        },
        {
          "name": "A4",
          "midi": 69,
          "time": 191.2500000000027,
          "velocity": 0.7874015748031497,
          "duration": 0.15000000000000568
        },
        {
          "name": "F#4",
          "midi": 66,
          "time": 191.4000000000027,
          "velocity": 0.7874015748031497,
          "duration": 0.22374999999999545
        },
        {
          "name": "D4",
          "midi": 62,
          "time": 191.7000000000027,
          "velocity": 0.7874015748031497,
          "duration": 0.22499999999999432
        },
        {
          "name": "E4",
          "midi": 64,
          "time": 192.00000000000267,
          "velocity": 0.7874015748031497,
          "duration": 0.375
        },
        {
          "name": "E5",
          "midi": 76,
          "time": 192.60000000000267,
          "velocity": 0.7874015748031497,
          "duration": 0.15000000000000568
        },
        {
          "name": "E5",
          "midi": 76,
          "time": 192.75000000000267,
          "velocity": 0.7874015748031497,
          "duration": 0.07499999999998863
        },
        {
          "name": "E5",
          "midi": 76,
          "time": 192.82500000000266,
          "velocity": 0.7874015748031497,
          "duration": 0.07499999999998863
        },
        {
          "name": "E5",
          "midi": 76,
          "time": 192.90000000000265,
          "velocity": 0.7874015748031497,
          "duration": 0.15125000000000455
        },
        {
          "name": "B4",
          "midi": 71,
          "time": 193.05000000000265,
          "velocity": 0.7874015748031497,
          "duration": 0.15000000000000568
        },
        {
          "name": "C5",
          "midi": 72,
          "time": 193.20125000000266,
          "velocity": 0.7874015748031497,
          "duration": 0.15000000000000568
        },
        {
          "name": "C5",
          "midi": 72,
          "time": 193.35000000000267,
          "velocity": 0.7874015748031497,
          "duration": 0.15000000000000568
        },
        {
          "name": "C5",
          "midi": 72,
          "time": 193.50000000000267,
          "velocity": 0.7874015748031497,
          "duration": 0.15000000000000568
        },
        {
          "name": "B4",
          "midi": 71,
          "time": 193.65000000000268,
          "velocity": 0.7874015748031497,
          "duration": 0.15000000000000568
        },
        {
          "name": "D5",
          "midi": 74,
          "time": 193.80000000000268,
          "velocity": 0.7874015748031497,
          "duration": 0.15000000000000568
        },
        {
          "name": "D5",
          "midi": 74,
          "time": 193.9500000000027,
          "velocity": 0.7874015748031497,
          "duration": 0.07499999999998863
        },
        {
          "name": "D5",
          "midi": 74,
          "time": 194.02500000000268,
          "velocity": 0.7874015748031497,
          "duration": 0.07499999999998863
        },
        {
          "name": "D5",
          "midi": 74,
          "time": 194.10000000000267,
          "velocity": 0.7874015748031497,
          "duration": 0.15125000000000455
        },
        {
          "name": "A4",
          "midi": 69,
          "time": 194.25000000000267,
          "velocity": 0.7874015748031497,
          "duration": 0.15000000000000568
        },
        {
          "name": "B4",
          "midi": 71,
          "time": 194.40000000000268,
          "velocity": 0.7874015748031497,
          "duration": 0.15000000000000568
        },
        {
          "name": "B4",
          "midi": 71,
          "time": 194.54875000000268,
          "velocity": 0.7874015748031497,
          "duration": 0.15000000000000568
        },
        {
          "name": "B4",
          "midi": 71,
          "time": 194.6987500000027,
          "velocity": 0.7874015748031497,
          "duration": 0.15000000000000568
        },
        {
          "name": "A4",
          "midi": 69,
          "time": 194.8500000000027,
          "velocity": 0.7874015748031497,
          "duration": 0.15000000000000568
        },
        {
          "name": "C5",
          "midi": 72,
          "time": 195.0000000000027,
          "velocity": 0.7874015748031497,
          "duration": 0.15000000000000568
        },
        {
          "name": "C5",
          "midi": 72,
          "time": 195.1500000000027,
          "velocity": 0.7874015748031497,
          "duration": 0.07499999999998863
        },
        {
          "name": "C5",
          "midi": 72,
          "time": 195.2250000000027,
          "velocity": 0.7874015748031497,
          "duration": 0.07499999999998863
        },
        {
          "name": "C5",
          "midi": 72,
          "time": 195.30000000000268,
          "velocity": 0.7874015748031497,
          "duration": 0.15125000000000455
        },
        {
          "name": "G4",
          "midi": 67,
          "time": 195.4500000000027,
          "velocity": 0.7874015748031497,
          "duration": 0.15000000000000568
        },
        {
          "name": "A4",
          "midi": 69,
          "time": 195.6000000000027,
          "velocity": 0.7874015748031497,
          "duration": 0.15000000000000568
        },
        {
          "name": "A4",
          "midi": 69,
          "time": 195.7487500000027,
          "velocity": 0.7874015748031497,
          "duration": 0.15000000000000568
        },
        {
          "name": "A4",
          "midi": 69,
          "time": 195.8987500000027,
          "velocity": 0.7874015748031497,
          "duration": 0.15000000000000568
        },
        {
          "name": "A4",
          "midi": 69,
          "time": 196.0500000000027,
          "velocity": 0.7874015748031497,
          "duration": 0.15000000000000568
        },
        {
          "name": "F#4",
          "midi": 66,
          "time": 196.20000000000272,
          "velocity": 0.7874015748031497,
          "duration": 0.22374999999999545
        },
        {
          "name": "D4",
          "midi": 62,
          "time": 196.5000000000027,
          "velocity": 0.7874015748031497,
          "duration": 0.22499999999999432
        },
        {
          "name": "E4",
          "midi": 64,
          "time": 196.80000000000268,
          "velocity": 0.7874015748031497,
          "duration": 0.44999999999998863
        },
        {
          "name": "G3",
          "midi": 55,
          "time": 197.40000000000268,
          "velocity": 0.7874015748031497,
          "duration": 0.15000000000000568
        },
        {
          "name": "D4",
          "midi": 62,
          "time": 197.40000000000268,
          "velocity": 0.7874015748031497,
          "duration": 0.15000000000000568
        },
        {
          "name": "G3",
          "midi": 55,
          "time": 197.55000000000268,
          "velocity": 0.7874015748031497,
          "duration": 0.15000000000000568
        },
        {
          "name": "D4",
          "midi": 62,
          "time": 197.55000000000268,
          "velocity": 0.7874015748031497,
          "duration": 0.15000000000000568
        },
        {
          "name": "G3",
          "midi": 55,
          "time": 197.8500000000027,
          "velocity": 0.7874015748031497,
          "duration": 0.15000000000000568
        },
        {
          "name": "D4",
          "midi": 62,
          "time": 197.8500000000027,
          "velocity": 0.7874015748031497,
          "duration": 0.15000000000000568
        },
        {
          "name": "D3",
          "midi": 50,
          "time": 198.0000000000027,
          "velocity": 0.7874015748031497,
          "duration": 0.15000000000000568
        },
        {
          "name": "A3",
          "midi": 57,
          "time": 198.0000000000027,
          "velocity": 0.7874015748031497,
          "duration": 0.15000000000000568
        },
        {
          "name": "D3",
          "midi": 50,
          "time": 198.1500000000027,
          "velocity": 0.7874015748031497,
          "duration": 0.15000000000000568
        },
        {
          "name": "A3",
          "midi": 57,
          "time": 198.1500000000027,
          "velocity": 0.7874015748031497,
          "duration": 0.15000000000000568
        },
        {
          "name": "D3",
          "midi": 50,
          "time": 198.45000000000272,
          "velocity": 0.7874015748031497,
          "duration": 0.15000000000000568
        },
        {
          "name": "A3",
          "midi": 57,
          "time": 198.45000000000272,
          "velocity": 0.7874015748031497,
          "duration": 0.15000000000000568
        },
        {
          "name": "E3",
          "midi": 52,
          "time": 198.60000000000272,
          "velocity": 0.7874015748031497,
          "duration": 0.15000000000000568
        },
        {
          "name": "B3",
          "midi": 59,
          "time": 198.60000000000272,
          "velocity": 0.7874015748031497,
          "duration": 0.15000000000000568
        },
        {
          "name": "E3",
          "midi": 52,
          "time": 198.75000000000273,
          "velocity": 0.7874015748031497,
          "duration": 0.15000000000000568
        },
        {
          "name": "B3",
          "midi": 59,
          "time": 198.75000000000273,
          "velocity": 0.7874015748031497,
          "duration": 0.15000000000000568
        },
        {
          "name": "E3",
          "midi": 52,
          "time": 199.05000000000274,
          "velocity": 0.7874015748031497,
          "duration": 0.15000000000000568
        },
        {
          "name": "B3",
          "midi": 59,
          "time": 199.05000000000274,
          "velocity": 0.7874015748031497,
          "duration": 0.15000000000000568
        },
        {
          "name": "E3",
          "midi": 52,
          "time": 199.19875000000275,
          "velocity": 0.7874015748031497,
          "duration": 0.30125000000001023
        },
        {
          "name": "B3",
          "midi": 59,
          "time": 199.20000000000275,
          "velocity": 0.7874015748031497,
          "duration": 0.30000000000001137
        },
        {
          "name": "E3",
          "midi": 52,
          "time": 199.50000000000276,
          "velocity": 0.7874015748031497,
          "duration": 0.14875000000000682
        },
        {
          "name": "B3",
          "midi": 59,
          "time": 199.50000000000276,
          "velocity": 0.7874015748031497,
          "duration": 0.15000000000000568
        },
        {
          "name": "D3",
          "midi": 50,
          "time": 199.65000000000276,
          "velocity": 0.7874015748031497,
          "duration": 0.15000000000000568
        },
        {
          "name": "A3",
          "midi": 57,
          "time": 199.65000000000276,
          "velocity": 0.7874015748031497,
          "duration": 0.15000000000000568
        },
        {
          "name": "C3",
          "midi": 48,
          "time": 199.80000000000277,
          "velocity": 0.7874015748031497,
          "duration": 0.15000000000000568
        },
        {
          "name": "G3",
          "midi": 55,
          "time": 199.80000000000277,
          "velocity": 0.7874015748031497,
          "duration": 0.15000000000000568
        },
        {
          "name": "C3",
          "midi": 48,
          "time": 199.95000000000277,
          "velocity": 0.7874015748031497,
          "duration": 0.15000000000000568
        },
        {
          "name": "C3",
          "midi": 48,
          "time": 200.10000000000278,
          "velocity": 0.7874015748031497,
          "duration": 0.15000000000000568
        },
        {
          "name": "C3",
          "midi": 48,
          "time": 200.25000000000279,
          "velocity": 0.7874015748031497,
          "duration": 0.15000000000000568
        },
        {
          "name": "D3",
          "midi": 50,
          "time": 200.4000000000028,
          "velocity": 0.7874015748031497,
          "duration": 0.15000000000000568
        },
        {
          "name": "A3",
          "midi": 57,
          "time": 200.4000000000028,
          "velocity": 0.7874015748031497,
          "duration": 0.15000000000000568
        },
        {
          "name": "D3",
          "midi": 50,
          "time": 200.5500000000028,
          "velocity": 0.7874015748031497,
          "duration": 0.15000000000000568
        },
        {
          "name": "D3",
          "midi": 50,
          "time": 200.7000000000028,
          "velocity": 0.7874015748031497,
          "duration": 0.15000000000000568
        },
        {
          "name": "D3",
          "midi": 50,
          "time": 200.8500000000028,
          "velocity": 0.7874015748031497,
          "duration": 0.15000000000000568
        },
        {
          "name": "G3",
          "midi": 55,
          "time": 201.0000000000028,
          "velocity": 0.7874015748031497,
          "duration": 0.44999999999998863
        },
        {
          "name": "D4",
          "midi": 62,
          "time": 201.0000000000028,
          "velocity": 0.7874015748031497,
          "duration": 0.44999999999998863
        },
        {
          "name": "F#3",
          "midi": 54,
          "time": 201.4500000000028,
          "velocity": 0.7874015748031497,
          "duration": 0.15000000000000568
        },
        {
          "name": "D4",
          "midi": 62,
          "time": 201.4500000000028,
          "velocity": 0.7874015748031497,
          "duration": 0.15000000000000568
        },
        {
          "name": "G3",
          "midi": 55,
          "time": 201.6000000000028,
          "velocity": 0.7874015748031497,
          "duration": 0.30000000000001137
        },
        {
          "name": "D4",
          "midi": 62,
          "time": 201.6000000000028,
          "velocity": 0.7874015748031497,
          "duration": 0.30000000000001137
        },
        {
          "name": "G3",
          "midi": 55,
          "time": 202.20000000000283,
          "velocity": 0.7874015748031497,
          "duration": 0.15000000000000568
        },
        {
          "name": "D4",
          "midi": 62,
          "time": 202.20000000000283,
          "velocity": 0.7874015748031497,
          "duration": 0.15000000000000568
        },
        {
          "name": "G3",
          "midi": 55,
          "time": 202.35000000000284,
          "velocity": 0.7874015748031497,
          "duration": 0.15000000000000568
        },
        {
          "name": "D4",
          "midi": 62,
          "time": 202.35000000000284,
          "velocity": 0.7874015748031497,
          "duration": 0.15000000000000568
        },
        {
          "name": "G3",
          "midi": 55,
          "time": 202.65000000000285,
          "velocity": 0.7874015748031497,
          "duration": 0.15000000000000568
        },
        {
          "name": "D4",
          "midi": 62,
          "time": 202.65000000000285,
          "velocity": 0.7874015748031497,
          "duration": 0.15000000000000568
        },
        {
          "name": "D3",
          "midi": 50,
          "time": 202.80000000000285,
          "velocity": 0.7874015748031497,
          "duration": 0.15000000000000568
        },
        {
          "name": "A3",
          "midi": 57,
          "time": 202.80000000000285,
          "velocity": 0.7874015748031497,
          "duration": 0.15000000000000568
        },
        {
          "name": "D3",
          "midi": 50,
          "time": 202.95000000000286,
          "velocity": 0.7874015748031497,
          "duration": 0.15000000000000568
        },
        {
          "name": "A3",
          "midi": 57,
          "time": 202.95000000000286,
          "velocity": 0.7874015748031497,
          "duration": 0.15000000000000568
        },
        {
          "name": "D3",
          "midi": 50,
          "time": 203.25000000000287,
          "velocity": 0.7874015748031497,
          "duration": 0.15000000000000568
        },
        {
          "name": "A3",
          "midi": 57,
          "time": 203.25000000000287,
          "velocity": 0.7874015748031497,
          "duration": 0.15000000000000568
        },
        {
          "name": "E3",
          "midi": 52,
          "time": 203.40000000000288,
          "velocity": 0.7874015748031497,
          "duration": 0.15000000000000568
        },
        {
          "name": "B3",
          "midi": 59,
          "time": 203.40000000000288,
          "velocity": 0.7874015748031497,
          "duration": 0.15000000000000568
        },
        {
          "name": "E3",
          "midi": 52,
          "time": 203.55000000000288,
          "velocity": 0.7874015748031497,
          "duration": 0.15000000000000568
        },
        {
          "name": "B3",
          "midi": 59,
          "time": 203.55000000000288,
          "velocity": 0.7874015748031497,
          "duration": 0.15000000000000568
        },
        {
          "name": "E3",
          "midi": 52,
          "time": 203.8500000000029,
          "velocity": 0.7874015748031497,
          "duration": 0.15000000000000568
        },
        {
          "name": "B3",
          "midi": 59,
          "time": 203.8500000000029,
          "velocity": 0.7874015748031497,
          "duration": 0.15000000000000568
        },
        {
          "name": "E3",
          "midi": 52,
          "time": 203.9987500000029,
          "velocity": 0.7874015748031497,
          "duration": 0.30125000000001023
        },
        {
          "name": "B3",
          "midi": 59,
          "time": 204.0000000000029,
          "velocity": 0.7874015748031497,
          "duration": 0.30000000000001137
        },
        {
          "name": "E3",
          "midi": 52,
          "time": 204.3000000000029,
          "velocity": 0.7874015748031497,
          "duration": 0.14875000000000682
        },
        {
          "name": "B3",
          "midi": 59,
          "time": 204.3000000000029,
          "velocity": 0.7874015748031497,
          "duration": 0.15000000000000568
        },
        {
          "name": "D3",
          "midi": 50,
          "time": 204.45000000000292,
          "velocity": 0.7874015748031497,
          "duration": 0.15000000000000568
        },
        {
          "name": "A3",
          "midi": 57,
          "time": 204.45000000000292,
          "velocity": 0.7874015748031497,
          "duration": 0.15000000000000568
        },
        {
          "name": "C3",
          "midi": 48,
          "time": 204.60000000000292,
          "velocity": 0.7874015748031497,
          "duration": 0.15000000000000568
        },
        {
          "name": "G3",
          "midi": 55,
          "time": 204.60000000000292,
          "velocity": 0.7874015748031497,
          "duration": 0.15000000000000568
        },
        {
          "name": "C3",
          "midi": 48,
          "time": 204.75000000000293,
          "velocity": 0.7874015748031497,
          "duration": 0.15000000000000568
        },
        {
          "name": "C3",
          "midi": 48,
          "time": 204.90000000000293,
          "velocity": 0.7874015748031497,
          "duration": 0.15000000000000568
        },
        {
          "name": "C3",
          "midi": 48,
          "time": 205.05000000000294,
          "velocity": 0.7874015748031497,
          "duration": 0.15000000000000568
        },
        {
          "name": "B2",
          "midi": 47,
          "time": 205.20000000000294,
          "velocity": 0.7874015748031497,
          "duration": 0.15000000000000568
        },
        {
          "name": "F#3",
          "midi": 54,
          "time": 205.20000000000294,
          "velocity": 0.7874015748031497,
          "duration": 0.15000000000000568
        },
        {
          "name": "B2",
          "midi": 47,
          "time": 205.35000000000295,
          "velocity": 0.7874015748031497,
          "duration": 0.15000000000000568
        },
        {
          "name": "B2",
          "midi": 47,
          "time": 205.50000000000296,
          "velocity": 0.7874015748031497,
          "duration": 0.15000000000000568
        },
        {
          "name": "B2",
          "midi": 47,
          "time": 205.65000000000296,
          "velocity": 0.7874015748031497,
          "duration": 0.15000000000000568
        },
        {
          "name": "F#3",
          "midi": 54,
          "time": 205.65000000000296,
          "velocity": 0.7874015748031497,
          "duration": 0.15000000000000568
        },
        {
          "name": "E2",
          "midi": 40,
          "time": 205.80000000000297,
          "velocity": 0.7874015748031497,
          "duration": 0.15000000000000568
        },
        {
          "name": "E2",
          "midi": 40,
          "time": 205.95000000000297,
          "velocity": 0.7874015748031497,
          "duration": 0.15000000000000568
        },
        {
          "name": "E2",
          "midi": 40,
          "time": 206.10000000000298,
          "velocity": 0.7874015748031497,
          "duration": 0.15000000000000568
        },
        {
          "name": "E2",
          "midi": 40,
          "time": 206.25000000000298,
          "velocity": 0.7874015748031497,
          "duration": 0.15000000000000568
        },
        {
          "name": "E2",
          "midi": 40,
          "time": 206.400000000003,
          "velocity": 0.7874015748031497,
          "duration": 0.5925000000000011
        },
        {
          "name": "B2",
          "midi": 47,
          "time": 206.400000000003,
          "velocity": 0.7874015748031497,
          "duration": 0.5925000000000011
        },
        {
          "name": "G2",
          "midi": 43,
          "time": 207.00000000000298,
          "velocity": 0.7874015748031497,
          "duration": 0.15000000000000568
        },
        {
          "name": "G2",
          "midi": 43,
          "time": 207.150000000003,
          "velocity": 0.7874015748031497,
          "duration": 0.15000000000000568
        },
        {
          "name": "G2",
          "midi": 43,
          "time": 207.300000000003,
          "velocity": 0.7874015748031497,
          "duration": 0.15000000000000568
        },
        {
          "name": "D3",
          "midi": 50,
          "time": 207.300000000003,
          "velocity": 0.7874015748031497,
          "duration": 0.15000000000000568
        },
        {
          "name": "G2",
          "midi": 43,
          "time": 207.450000000003,
          "velocity": 0.7874015748031497,
          "duration": 0.15000000000000568
        },
        {
          "name": "G2",
          "midi": 43,
          "time": 207.600000000003,
          "velocity": 0.7874015748031497,
          "duration": 0.15000000000000568
        },
        {
          "name": "G2",
          "midi": 43,
          "time": 207.750000000003,
          "velocity": 0.7874015748031497,
          "duration": 0.15000000000000568
        },
        {
          "name": "G2",
          "midi": 43,
          "time": 207.90000000000302,
          "velocity": 0.7874015748031497,
          "duration": 0.15000000000000568
        },
        {
          "name": "D3",
          "midi": 50,
          "time": 207.90000000000302,
          "velocity": 0.7874015748031497,
          "duration": 0.15000000000000568
        },
        {
          "name": "G2",
          "midi": 43,
          "time": 208.05000000000302,
          "velocity": 0.7874015748031497,
          "duration": 0.15000000000000568
        },
        {
          "name": "D3",
          "midi": 50,
          "time": 208.20000000000303,
          "velocity": 0.7874015748031497,
          "duration": 0.15000000000000568
        },
        {
          "name": "D3",
          "midi": 50,
          "time": 208.35000000000304,
          "velocity": 0.7874015748031497,
          "duration": 0.15000000000000568
        },
        {
          "name": "D3",
          "midi": 50,
          "time": 208.50000000000304,
          "velocity": 0.7874015748031497,
          "duration": 0.15000000000000568
        },
        {
          "name": "A3",
          "midi": 57,
          "time": 208.50000000000304,
          "velocity": 0.7874015748031497,
          "duration": 0.15000000000000568
        },
        {
          "name": "D3",
          "midi": 50,
          "time": 208.65000000000305,
          "velocity": 0.7874015748031497,
          "duration": 0.15000000000000568
        },
        {
          "name": "D3",
          "midi": 50,
          "time": 208.80000000000305,
          "velocity": 0.7874015748031497,
          "duration": 0.15000000000000568
        },
        {
          "name": "D3",
          "midi": 50,
          "time": 208.95000000000306,
          "velocity": 0.7874015748031497,
          "duration": 0.15000000000000568
        },
        {
          "name": "D3",
          "midi": 50,
          "time": 209.10000000000306,
          "velocity": 0.7874015748031497,
          "duration": 0.15000000000000568
        },
        {
          "name": "A3",
          "midi": 57,
          "time": 209.10000000000306,
          "velocity": 0.7874015748031497,
          "duration": 0.15000000000000568
        },
        {
          "name": "D3",
          "midi": 50,
          "time": 209.25000000000307,
          "velocity": 0.7874015748031497,
          "duration": 0.15000000000000568
        },
        {
          "name": "E3",
          "midi": 52,
          "time": 209.40000000000308,
          "velocity": 0.7874015748031497,
          "duration": 0.15000000000000568
        },
        {
          "name": "E3",
          "midi": 52,
          "time": 209.55000000000308,
          "velocity": 0.7874015748031497,
          "duration": 0.15000000000000568
        },
        {
          "name": "E3",
          "midi": 52,
          "time": 209.7000000000031,
          "velocity": 0.7874015748031497,
          "duration": 0.15000000000000568
        },
        {
          "name": "B3",
          "midi": 59,
          "time": 209.7000000000031,
          "velocity": 0.7874015748031497,
          "duration": 0.15000000000000568
        },
        {
          "name": "E3",
          "midi": 52,
          "time": 209.8500000000031,
          "velocity": 0.7874015748031497,
          "duration": 0.15000000000000568
        },
        {
          "name": "E3",
          "midi": 52,
          "time": 210.0000000000031,
          "velocity": 0.7874015748031497,
          "duration": 0.15000000000000568
        },
        {
          "name": "E3",
          "midi": 52,
          "time": 210.1500000000031,
          "velocity": 0.7874015748031497,
          "duration": 0.15000000000000568
        },
        {
          "name": "E3",
          "midi": 52,
          "time": 210.3000000000031,
          "velocity": 0.7874015748031497,
          "duration": 0.15000000000000568
        },
        {
          "name": "B3",
          "midi": 59,
          "time": 210.3000000000031,
          "velocity": 0.7874015748031497,
          "duration": 0.15000000000000568
        },
        {
          "name": "E3",
          "midi": 52,
          "time": 210.45000000000312,
          "velocity": 0.7874015748031497,
          "duration": 0.15000000000000568
        },
        {
          "name": "B2",
          "midi": 47,
          "time": 210.60000000000312,
          "velocity": 0.7874015748031497,
          "duration": 0.44999999999998863
        },
        {
          "name": "F#3",
          "midi": 54,
          "time": 210.60000000000312,
          "velocity": 0.7874015748031497,
          "duration": 0.44999999999998863
        },
        {
          "name": "A2",
          "midi": 45,
          "time": 211.0500000000031,
          "velocity": 0.7874015748031497,
          "duration": 0.15000000000000568
        },
        {
          "name": "E3",
          "midi": 52,
          "time": 211.0500000000031,
          "velocity": 0.7874015748031497,
          "duration": 0.15000000000000568
        },
        {
          "name": "B2",
          "midi": 47,
          "time": 211.20000000000312,
          "velocity": 0.7874015748031497,
          "duration": 0.30000000000001137
        },
        {
          "name": "F#3",
          "midi": 54,
          "time": 211.20000000000312,
          "velocity": 0.7874015748031497,
          "duration": 0.30000000000001137
        },
        {
          "name": "G3",
          "midi": 55,
          "time": 211.80000000000314,
          "velocity": 0.7874015748031497,
          "duration": 0.15000000000000568
        },
        {
          "name": "D4",
          "midi": 62,
          "time": 211.80000000000314,
          "velocity": 0.7874015748031497,
          "duration": 0.15000000000000568
        },
        {
          "name": "G3",
          "midi": 55,
          "time": 211.95000000000314,
          "velocity": 0.7874015748031497,
          "duration": 0.15000000000000568
        },
        {
          "name": "D4",
          "midi": 62,
          "time": 211.95000000000314,
          "velocity": 0.7874015748031497,
          "duration": 0.15000000000000568
        },
        {
          "name": "G3",
          "midi": 55,
          "time": 212.25000000000315,
          "velocity": 0.7874015748031497,
          "duration": 0.15000000000000568
        },
        {
          "name": "D4",
          "midi": 62,
          "time": 212.25000000000315,
          "velocity": 0.7874015748031497,
          "duration": 0.15000000000000568
        },
        {
          "name": "D3",
          "midi": 50,
          "time": 212.40000000000316,
          "velocity": 0.7874015748031497,
          "duration": 0.15000000000000568
        },
        {
          "name": "A3",
          "midi": 57,
          "time": 212.40000000000316,
          "velocity": 0.7874015748031497,
          "duration": 0.15000000000000568
        },
        {
          "name": "D3",
          "midi": 50,
          "time": 212.55000000000317,
          "velocity": 0.7874015748031497,
          "duration": 0.15000000000000568
        },
        {
          "name": "A3",
          "midi": 57,
          "time": 212.55000000000317,
          "velocity": 0.7874015748031497,
          "duration": 0.15000000000000568
        },
        {
          "name": "D3",
          "midi": 50,
          "time": 212.85000000000318,
          "velocity": 0.7874015748031497,
          "duration": 0.15000000000000568
        },
        {
          "name": "A3",
          "midi": 57,
          "time": 212.85000000000318,
          "velocity": 0.7874015748031497,
          "duration": 0.15000000000000568
        },
        {
          "name": "E3",
          "midi": 52,
          "time": 213.00000000000318,
          "velocity": 0.7874015748031497,
          "duration": 0.15000000000000568
        },
        {
          "name": "B3",
          "midi": 59,
          "time": 213.00000000000318,
          "velocity": 0.7874015748031497,
          "duration": 0.15000000000000568
        },
        {
          "name": "E3",
          "midi": 52,
          "time": 213.1500000000032,
          "velocity": 0.7874015748031497,
          "duration": 0.15000000000000568
        },
        {
          "name": "B3",
          "midi": 59,
          "time": 213.1500000000032,
          "velocity": 0.7874015748031497,
          "duration": 0.15000000000000568
        },
        {
          "name": "E3",
          "midi": 52,
          "time": 213.4500000000032,
          "velocity": 0.7874015748031497,
          "duration": 0.15000000000000568
        },
        {
          "name": "B3",
          "midi": 59,
          "time": 213.4500000000032,
          "velocity": 0.7874015748031497,
          "duration": 0.15000000000000568
        },
        {
          "name": "E3",
          "midi": 52,
          "time": 213.5987500000032,
          "velocity": 0.7874015748031497,
          "duration": 0.30125000000001023
        },
        {
          "name": "B3",
          "midi": 59,
          "time": 213.6000000000032,
          "velocity": 0.7874015748031497,
          "duration": 0.30000000000001137
        },
        {
          "name": "E3",
          "midi": 52,
          "time": 213.90000000000322,
          "velocity": 0.7874015748031497,
          "duration": 0.14875000000000682
        },
        {
          "name": "B3",
          "midi": 59,
          "time": 213.90000000000322,
          "velocity": 0.7874015748031497,
          "duration": 0.15000000000000568
        },
        {
          "name": "D3",
          "midi": 50,
          "time": 214.05000000000322,
          "velocity": 0.7874015748031497,
          "duration": 0.15000000000000568
        },
        {
          "name": "A3",
          "midi": 57,
          "time": 214.05000000000322,
          "velocity": 0.7874015748031497,
          "duration": 0.15000000000000568
        },
        {
          "name": "C3",
          "midi": 48,
          "time": 214.20000000000323,
          "velocity": 0.7874015748031497,
          "duration": 0.15000000000000568
        },
        {
          "name": "G3",
          "midi": 55,
          "time": 214.20000000000323,
          "velocity": 0.7874015748031497,
          "duration": 0.15000000000000568
        },
        {
          "name": "C3",
          "midi": 48,
          "time": 214.35000000000323,
          "velocity": 0.7874015748031497,
          "duration": 0.15000000000000568
        },
        {
          "name": "C3",
          "midi": 48,
          "time": 214.50000000000324,
          "velocity": 0.7874015748031497,
          "duration": 0.15000000000000568
        },
        {
          "name": "C3",
          "midi": 48,
          "time": 214.65000000000325,
          "velocity": 0.7874015748031497,
          "duration": 0.15000000000000568
        },
        {
          "name": "D3",
          "midi": 50,
          "time": 214.80000000000325,
          "velocity": 0.7874015748031497,
          "duration": 0.15000000000000568
        },
        {
          "name": "A3",
          "midi": 57,
          "time": 214.80000000000325,
          "velocity": 0.7874015748031497,
          "duration": 0.15000000000000568
        },
        {
          "name": "D3",
          "midi": 50,
          "time": 214.95000000000326,
          "velocity": 0.7874015748031497,
          "duration": 0.15000000000000568
        },
        {
          "name": "D3",
          "midi": 50,
          "time": 215.10000000000326,
          "velocity": 0.7874015748031497,
          "duration": 0.15000000000000568
        },
        {
          "name": "D3",
          "midi": 50,
          "time": 215.25000000000327,
          "velocity": 0.7874015748031497,
          "duration": 0.15000000000000568
        },
        {
          "name": "G3",
          "midi": 55,
          "time": 215.40000000000327,
          "velocity": 0.7874015748031497,
          "duration": 0.44999999999998863
        },
        {
          "name": "D4",
          "midi": 62,
          "time": 215.40000000000327,
          "velocity": 0.7874015748031497,
          "duration": 0.44999999999998863
        },
        {
          "name": "F#3",
          "midi": 54,
          "time": 215.85000000000326,
          "velocity": 0.7874015748031497,
          "duration": 0.15000000000000568
        },
        {
          "name": "D4",
          "midi": 62,
          "time": 215.85000000000326,
          "velocity": 0.7874015748031497,
          "duration": 0.15000000000000568
        },
        {
          "name": "G3",
          "midi": 55,
          "time": 216.00000000000327,
          "velocity": 0.7874015748031497,
          "duration": 0.44999999999998863
        },
        {
          "name": "D4",
          "midi": 62,
          "time": 216.00000000000327,
          "velocity": 0.7874015748031497,
          "duration": 0.44999999999998863
        },
        {
          "name": "A#2",
          "midi": 46,
          "time": 216.60000000000326,
          "velocity": 0.7874015748031497,
          "duration": 0.15000000000000568
        },
        {
          "name": "F3",
          "midi": 53,
          "time": 216.60000000000326,
          "velocity": 0.7874015748031497,
          "duration": 0.15000000000000568
        },
        {
          "name": "A#2",
          "midi": 46,
          "time": 216.75000000000327,
          "velocity": 0.7874015748031497,
          "duration": 0.15000000000000568
        },
        {
          "name": "F3",
          "midi": 53,
          "time": 216.75000000000327,
          "velocity": 0.7874015748031497,
          "duration": 0.15000000000000568
        },
        {
          "name": "A#2",
          "midi": 46,
          "time": 217.05000000000328,
          "velocity": 0.7874015748031497,
          "duration": 0.15000000000000568
        },
        {
          "name": "F3",
          "midi": 53,
          "time": 217.05000000000328,
          "velocity": 0.7874015748031497,
          "duration": 0.15000000000000568
        },
        {
          "name": "F2",
          "midi": 41,
          "time": 217.20000000000329,
          "velocity": 0.7874015748031497,
          "duration": 0.15000000000000568
        },
        {
          "name": "C3",
          "midi": 48,
          "time": 217.20000000000329,
          "velocity": 0.7874015748031497,
          "duration": 0.15000000000000568
        },
        {
          "name": "F2",
          "midi": 41,
          "time": 217.3500000000033,
          "velocity": 0.7874015748031497,
          "duration": 0.15000000000000568
        },
        {
          "name": "C3",
          "midi": 48,
          "time": 217.3500000000033,
          "velocity": 0.7874015748031497,
          "duration": 0.15000000000000568
        },
        {
          "name": "F2",
          "midi": 41,
          "time": 217.6500000000033,
          "velocity": 0.7874015748031497,
          "duration": 0.15000000000000568
        },
        {
          "name": "C3",
          "midi": 48,
          "time": 217.6500000000033,
          "velocity": 0.7874015748031497,
          "duration": 0.15000000000000568
        },
        {
          "name": "G2",
          "midi": 43,
          "time": 217.8000000000033,
          "velocity": 0.7874015748031497,
          "duration": 0.15000000000000568
        },
        {
          "name": "D3",
          "midi": 50,
          "time": 217.8000000000033,
          "velocity": 0.7874015748031497,
          "duration": 0.15000000000000568
        },
        {
          "name": "G2",
          "midi": 43,
          "time": 217.9500000000033,
          "velocity": 0.7874015748031497,
          "duration": 0.15000000000000568
        },
        {
          "name": "D3",
          "midi": 50,
          "time": 217.9500000000033,
          "velocity": 0.7874015748031497,
          "duration": 0.15000000000000568
        },
        {
          "name": "G2",
          "midi": 43,
          "time": 218.25000000000333,
          "velocity": 0.7874015748031497,
          "duration": 0.15000000000000568
        },
        {
          "name": "D3",
          "midi": 50,
          "time": 218.25000000000333,
          "velocity": 0.7874015748031497,
          "duration": 0.15000000000000568
        },
        {
          "name": "G2",
          "midi": 43,
          "time": 218.39875000000333,
          "velocity": 0.7874015748031497,
          "duration": 0.30125000000001023
        },
        {
          "name": "D3",
          "midi": 50,
          "time": 218.40000000000333,
          "velocity": 0.7874015748031497,
          "duration": 0.30000000000001137
        },
        {
          "name": "G2",
          "midi": 43,
          "time": 218.70000000000334,
          "velocity": 0.7874015748031497,
          "duration": 0.14875000000000682
        },
        {
          "name": "D3",
          "midi": 50,
          "time": 218.70000000000334,
          "velocity": 0.7874015748031497,
          "duration": 0.15000000000000568
        },
        {
          "name": "F2",
          "midi": 41,
          "time": 218.85000000000335,
          "velocity": 0.7874015748031497,
          "duration": 0.15000000000000568
        },
        {
          "name": "C3",
          "midi": 48,
          "time": 218.85000000000335,
          "velocity": 0.7874015748031497,
          "duration": 0.15000000000000568
        },
        {
          "name": "D#2",
          "midi": 39,
          "time": 219.00000000000335,
          "velocity": 0.7874015748031497,
          "duration": 0.15000000000000568
        },
        {
          "name": "A#2",
          "midi": 46,
          "time": 219.00000000000335,
          "velocity": 0.7874015748031497,
          "duration": 0.15000000000000568
        },
        {
          "name": "D#2",
          "midi": 39,
          "time": 219.15000000000336,
          "velocity": 0.7874015748031497,
          "duration": 0.15000000000000568
        },
        {
          "name": "D#2",
          "midi": 39,
          "time": 219.30000000000337,
          "velocity": 0.7874015748031497,
          "duration": 0.15000000000000568
        },
        {
          "name": "D#2",
          "midi": 39,
          "time": 219.45000000000337,
          "velocity": 0.7874015748031497,
          "duration": 0.15000000000000568
        },
        {
          "name": "F2",
          "midi": 41,
          "time": 219.60000000000338,
          "velocity": 0.7874015748031497,
          "duration": 0.15000000000000568
        },
        {
          "name": "C3",
          "midi": 48,
          "time": 219.60000000000338,
          "velocity": 0.7874015748031497,
          "duration": 0.15000000000000568
        },
        {
          "name": "F2",
          "midi": 41,
          "time": 219.75000000000338,
          "velocity": 0.7874015748031497,
          "duration": 0.15000000000000568
        },
        {
          "name": "F2",
          "midi": 41,
          "time": 219.9000000000034,
          "velocity": 0.7874015748031497,
          "duration": 0.15000000000000568
        },
        {
          "name": "F2",
          "midi": 41,
          "time": 220.0500000000034,
          "velocity": 0.7874015748031497,
          "duration": 0.15000000000000568
        },
        {
          "name": "A#2",
          "midi": 46,
          "time": 220.2000000000034,
          "velocity": 0.7874015748031497,
          "duration": 0.44999999999998863
        },
        {
          "name": "F3",
          "midi": 53,
          "time": 220.2000000000034,
          "velocity": 0.7874015748031497,
          "duration": 0.44999999999998863
        },
        {
          "name": "A2",
          "midi": 45,
          "time": 220.6500000000034,
          "velocity": 0.7874015748031497,
          "duration": 0.15000000000000568
        },
        {
          "name": "F3",
          "midi": 53,
          "time": 220.6500000000034,
          "velocity": 0.7874015748031497,
          "duration": 0.15000000000000568
        },
        {
          "name": "A#2",
          "midi": 46,
          "time": 220.8000000000034,
          "velocity": 0.7874015748031497,
          "duration": 0.30000000000001137
        },
        {
          "name": "F3",
          "midi": 53,
          "time": 220.8000000000034,
          "velocity": 0.7874015748031497,
          "duration": 0.30000000000001137
        },
        {
          "name": "A#2",
          "midi": 46,
          "time": 221.2500000000034,
          "velocity": 0.7874015748031497,
          "duration": 0.07499999999998863
        },
        {
          "name": "F3",
          "midi": 53,
          "time": 221.2500000000034,
          "velocity": 0.7874015748031497,
          "duration": 0.07499999999998863
        },
        {
          "name": "A#2",
          "midi": 46,
          "time": 221.4000000000034,
          "velocity": 0.7874015748031497,
          "duration": 0.15000000000000568
        },
        {
          "name": "F3",
          "midi": 53,
          "time": 221.4000000000034,
          "velocity": 0.7874015748031497,
          "duration": 0.15000000000000568
        },
        {
          "name": "A#2",
          "midi": 46,
          "time": 221.5500000000034,
          "velocity": 0.7874015748031497,
          "duration": 0.15000000000000568
        },
        {
          "name": "F3",
          "midi": 53,
          "time": 221.5500000000034,
          "velocity": 0.7874015748031497,
          "duration": 0.15000000000000568
        },
        {
          "name": "A#2",
          "midi": 46,
          "time": 221.8500000000034,
          "velocity": 0.7874015748031497,
          "duration": 0.15000000000000568
        },
        {
          "name": "F3",
          "midi": 53,
          "time": 221.8500000000034,
          "velocity": 0.7874015748031497,
          "duration": 0.15000000000000568
        },
        {
          "name": "F2",
          "midi": 41,
          "time": 222.0000000000034,
          "velocity": 0.7874015748031497,
          "duration": 0.15000000000000568
        },
        {
          "name": "C3",
          "midi": 48,
          "time": 222.0000000000034,
          "velocity": 0.7874015748031497,
          "duration": 0.15000000000000568
        },
        {
          "name": "F2",
          "midi": 41,
          "time": 222.15000000000342,
          "velocity": 0.7874015748031497,
          "duration": 0.15000000000000568
        },
        {
          "name": "C3",
          "midi": 48,
          "time": 222.15000000000342,
          "velocity": 0.7874015748031497,
          "duration": 0.15000000000000568
        },
        {
          "name": "F2",
          "midi": 41,
          "time": 222.45000000000343,
          "velocity": 0.7874015748031497,
          "duration": 0.15000000000000568
        },
        {
          "name": "C3",
          "midi": 48,
          "time": 222.45000000000343,
          "velocity": 0.7874015748031497,
          "duration": 0.15000000000000568
        },
        {
          "name": "G2",
          "midi": 43,
          "time": 222.60000000000343,
          "velocity": 0.7874015748031497,
          "duration": 0.15000000000000568
        },
        {
          "name": "D3",
          "midi": 50,
          "time": 222.60000000000343,
          "velocity": 0.7874015748031497,
          "duration": 0.15000000000000568
        },
        {
          "name": "G2",
          "midi": 43,
          "time": 222.75000000000344,
          "velocity": 0.7874015748031497,
          "duration": 0.15000000000000568
        },
        {
          "name": "D3",
          "midi": 50,
          "time": 222.75000000000344,
          "velocity": 0.7874015748031497,
          "duration": 0.15000000000000568
        },
        {
          "name": "G2",
          "midi": 43,
          "time": 223.05000000000345,
          "velocity": 0.7874015748031497,
          "duration": 0.15000000000000568
        },
        {
          "name": "D3",
          "midi": 50,
          "time": 223.05000000000345,
          "velocity": 0.7874015748031497,
          "duration": 0.15000000000000568
        },
        {
          "name": "G2",
          "midi": 43,
          "time": 223.19875000000346,
          "velocity": 0.7874015748031497,
          "duration": 0.30125000000001023
        },
        {
          "name": "D3",
          "midi": 50,
          "time": 223.20000000000346,
          "velocity": 0.7874015748031497,
          "duration": 0.30000000000001137
        },
        {
          "name": "G2",
          "midi": 43,
          "time": 223.50000000000347,
          "velocity": 0.7874015748031497,
          "duration": 0.14875000000000682
        },
        {
          "name": "D3",
          "midi": 50,
          "time": 223.50000000000347,
          "velocity": 0.7874015748031497,
          "duration": 0.15000000000000568
        },
        {
          "name": "F2",
          "midi": 41,
          "time": 223.65000000000347,
          "velocity": 0.7874015748031497,
          "duration": 0.15000000000000568
        },
        {
          "name": "C3",
          "midi": 48,
          "time": 223.65000000000347,
          "velocity": 0.7874015748031497,
          "duration": 0.15000000000000568
        },
        {
          "name": "D#2",
          "midi": 39,
          "time": 223.80000000000348,
          "velocity": 0.7874015748031497,
          "duration": 0.15000000000000568
        },
        {
          "name": "A#2",
          "midi": 46,
          "time": 223.80000000000348,
          "velocity": 0.7874015748031497,
          "duration": 0.15000000000000568
        },
        {
          "name": "D#2",
          "midi": 39,
          "time": 223.95000000000348,
          "velocity": 0.7874015748031497,
          "duration": 0.15000000000000568
        },
        {
          "name": "D#2",
          "midi": 39,
          "time": 224.1000000000035,
          "velocity": 0.7874015748031497,
          "duration": 0.15000000000000568
        },
        {
          "name": "D#2",
          "midi": 39,
          "time": 224.2500000000035,
          "velocity": 0.7874015748031497,
          "duration": 0.15000000000000568
        },
        {
          "name": "D2",
          "midi": 38,
          "time": 224.4000000000035,
          "velocity": 0.7874015748031497,
          "duration": 0.15000000000000568
        },
        {
          "name": "A2",
          "midi": 45,
          "time": 224.4000000000035,
          "velocity": 0.7874015748031497,
          "duration": 0.15000000000000568
        },
        {
          "name": "D2",
          "midi": 38,
          "time": 224.5500000000035,
          "velocity": 0.7874015748031497,
          "duration": 0.15000000000000568
        },
        {
          "name": "D2",
          "midi": 38,
          "time": 224.7000000000035,
          "velocity": 0.7874015748031497,
          "duration": 0.15000000000000568
        },
        {
          "name": "D2",
          "midi": 38,
          "time": 224.85000000000352,
          "velocity": 0.7874015748031497,
          "duration": 0.15000000000000568
        },
        {
          "name": "A2",
          "midi": 45,
          "time": 224.85000000000352,
          "velocity": 0.7874015748031497,
          "duration": 0.15000000000000568
        },
        {
          "name": "G1",
          "midi": 31,
          "time": 225.00000000000352,
          "velocity": 0.7874015748031497,
          "duration": 0.15000000000000568
        },
        {
          "name": "G1",
          "midi": 31,
          "time": 225.15000000000353,
          "velocity": 0.7874015748031497,
          "duration": 0.15000000000000568
        },
        {
          "name": "G1",
          "midi": 31,
          "time": 225.30000000000354,
          "velocity": 0.7874015748031497,
          "duration": 0.15000000000000568
        },
        {
          "name": "G1",
          "midi": 31,
          "time": 225.45000000000354,
          "velocity": 0.7874015748031497,
          "duration": 0.15000000000000568
        },
        {
          "name": "G1",
          "midi": 31,
          "time": 225.60000000000355,
          "velocity": 0.7874015748031497,
          "duration": 0.5925000000000011
        },
        {
          "name": "D2",
          "midi": 38,
          "time": 225.60000000000355,
          "velocity": 0.7874015748031497,
          "duration": 0.5925000000000011
        },
        {
          "name": "A#1",
          "midi": 34,
          "time": 226.20000000000354,
          "velocity": 0.7874015748031497,
          "duration": 0.15000000000000568
        },
        {
          "name": "A#1",
          "midi": 34,
          "time": 226.35000000000355,
          "velocity": 0.7874015748031497,
          "duration": 0.15000000000000568
        },
        {
          "name": "A#1",
          "midi": 34,
          "time": 226.50000000000355,
          "velocity": 0.7874015748031497,
          "duration": 0.15000000000000568
        },
        {
          "name": "F2",
          "midi": 41,
          "time": 226.50000000000355,
          "velocity": 0.7874015748031497,
          "duration": 0.15000000000000568
        },
        {
          "name": "A#1",
          "midi": 34,
          "time": 226.65000000000356,
          "velocity": 0.7874015748031497,
          "duration": 0.15000000000000568
        },
        {
          "name": "A#1",
          "midi": 34,
          "time": 226.80000000000356,
          "velocity": 0.7874015748031497,
          "duration": 0.15000000000000568
        },
        {
          "name": "A#1",
          "midi": 34,
          "time": 226.95000000000357,
          "velocity": 0.7874015748031497,
          "duration": 0.15000000000000568
        },
        {
          "name": "F2",
          "midi": 41,
          "time": 226.95000000000357,
          "velocity": 0.7874015748031497,
          "duration": 0.15000000000000568
        },
        {
          "name": "A#1",
          "midi": 34,
          "time": 227.10000000000358,
          "velocity": 0.7874015748031497,
          "duration": 0.15000000000000568
        },
        {
          "name": "A#1",
          "midi": 34,
          "time": 227.25000000000358,
          "velocity": 0.7874015748031497,
          "duration": 0.15000000000000568
        },
        {
          "name": "F2",
          "midi": 41,
          "time": 227.25000000000358,
          "velocity": 0.7874015748031497,
          "duration": 0.15000000000000568
        },
        {
          "name": "F2",
          "midi": 41,
          "time": 227.4000000000036,
          "velocity": 0.7874015748031497,
          "duration": 0.15000000000000568
        },
        {
          "name": "F2",
          "midi": 41,
          "time": 227.5500000000036,
          "velocity": 0.7874015748031497,
          "duration": 0.15000000000000568
        },
        {
          "name": "F2",
          "midi": 41,
          "time": 227.7000000000036,
          "velocity": 0.7874015748031497,
          "duration": 0.15000000000000568
        },
        {
          "name": "C3",
          "midi": 48,
          "time": 227.7000000000036,
          "velocity": 0.7874015748031497,
          "duration": 0.15000000000000568
        },
        {
          "name": "F2",
          "midi": 41,
          "time": 227.8500000000036,
          "velocity": 0.7874015748031497,
          "duration": 0.15000000000000568
        },
        {
          "name": "F2",
          "midi": 41,
          "time": 228.0000000000036,
          "velocity": 0.7874015748031497,
          "duration": 0.15000000000000568
        },
        {
          "name": "F2",
          "midi": 41,
          "time": 228.15000000000362,
          "velocity": 0.7874015748031497,
          "duration": 0.15000000000000568
        },
        {
          "name": "C3",
          "midi": 48,
          "time": 228.15000000000362,
          "velocity": 0.7874015748031497,
          "duration": 0.15000000000000568
        },
        {
          "name": "F2",
          "midi": 41,
          "time": 228.30000000000362,
          "velocity": 0.7874015748031497,
          "duration": 0.15000000000000568
        },
        {
          "name": "F2",
          "midi": 41,
          "time": 228.45000000000363,
          "velocity": 0.7874015748031497,
          "duration": 0.15000000000000568
        },
        {
          "name": "C3",
          "midi": 48,
          "time": 228.45000000000363,
          "velocity": 0.7874015748031497,
          "duration": 0.15000000000000568
        },
        {
          "name": "G2",
          "midi": 43,
          "time": 228.60000000000363,
          "velocity": 0.7874015748031497,
          "duration": 0.15000000000000568
        },
        {
          "name": "G2",
          "midi": 43,
          "time": 228.75000000000364,
          "velocity": 0.7874015748031497,
          "duration": 0.15000000000000568
        },
        {
          "name": "G2",
          "midi": 43,
          "time": 228.90000000000364,
          "velocity": 0.7874015748031497,
          "duration": 0.15000000000000568
        },
        {
          "name": "D3",
          "midi": 50,
          "time": 228.90000000000364,
          "velocity": 0.7874015748031497,
          "duration": 0.15000000000000568
        },
        {
          "name": "G2",
          "midi": 43,
          "time": 229.05000000000365,
          "velocity": 0.7874015748031497,
          "duration": 0.15000000000000568
        },
        {
          "name": "G2",
          "midi": 43,
          "time": 229.20000000000366,
          "velocity": 0.7874015748031497,
          "duration": 0.15000000000000568
        },
        {
          "name": "G2",
          "midi": 43,
          "time": 229.35000000000366,
          "velocity": 0.7874015748031497,
          "duration": 0.15000000000000568
        },
        {
          "name": "D3",
          "midi": 50,
          "time": 229.35000000000366,
          "velocity": 0.7874015748031497,
          "duration": 0.15000000000000568
        },
        {
          "name": "G2",
          "midi": 43,
          "time": 229.50000000000367,
          "velocity": 0.7874015748031497,
          "duration": 0.15000000000000568
        },
        {
          "name": "G2",
          "midi": 43,
          "time": 229.65000000000367,
          "velocity": 0.7874015748031497,
          "duration": 0.15000000000000568
        },
        {
          "name": "D3",
          "midi": 50,
          "time": 229.65000000000367,
          "velocity": 0.7874015748031497,
          "duration": 0.15000000000000568
        },
        {
          "name": "D2",
          "midi": 38,
          "time": 229.80000000000368,
          "velocity": 0.7874015748031497,
          "duration": 0.44999999999998863
        },
        {
          "name": "A2",
          "midi": 45,
          "time": 229.80000000000368,
          "velocity": 0.7874015748031497,
          "duration": 0.44999999999998863
        },
        {
          "name": "C2",
          "midi": 36,
          "time": 230.25000000000367,
          "velocity": 0.7874015748031497,
          "duration": 0.15000000000000568
        },
        {
          "name": "G2",
          "midi": 43,
          "time": 230.25000000000367,
          "velocity": 0.7874015748031497,
          "duration": 0.15000000000000568
        },
        {
          "name": "D2",
          "midi": 38,
          "time": 230.40000000000367,
          "velocity": 0.7874015748031497,
          "duration": 0.30000000000001137
        },
        {
          "name": "A2",
          "midi": 45,
          "time": 230.40000000000367,
          "velocity": 0.7874015748031497,
          "duration": 0.30000000000001137
        },
        {
          "name": "A#2",
          "midi": 46,
          "time": 231.0000000000037,
          "velocity": 0.7874015748031497,
          "duration": 0.15000000000000568
        },
        {
          "name": "F3",
          "midi": 53,
          "time": 231.0000000000037,
          "velocity": 0.7874015748031497,
          "duration": 0.15000000000000568
        },
        {
          "name": "A#2",
          "midi": 46,
          "time": 231.1500000000037,
          "velocity": 0.7874015748031497,
          "duration": 0.15000000000000568
        },
        {
          "name": "F3",
          "midi": 53,
          "time": 231.1500000000037,
          "velocity": 0.7874015748031497,
          "duration": 0.15000000000000568
        },
        {
          "name": "A#2",
          "midi": 46,
          "time": 231.4500000000037,
          "velocity": 0.7874015748031497,
          "duration": 0.15000000000000568
        },
        {
          "name": "F3",
          "midi": 53,
          "time": 231.4500000000037,
          "velocity": 0.7874015748031497,
          "duration": 0.15000000000000568
        },
        {
          "name": "F2",
          "midi": 41,
          "time": 231.60000000000372,
          "velocity": 0.7874015748031497,
          "duration": 0.15000000000000568
        },
        {
          "name": "C3",
          "midi": 48,
          "time": 231.60000000000372,
          "velocity": 0.7874015748031497,
          "duration": 0.15000000000000568
        },
        {
          "name": "F2",
          "midi": 41,
          "time": 231.75000000000372,
          "velocity": 0.7874015748031497,
          "duration": 0.15000000000000568
        },
        {
          "name": "C3",
          "midi": 48,
          "time": 231.75000000000372,
          "velocity": 0.7874015748031497,
          "duration": 0.15000000000000568
        },
        {
          "name": "F2",
          "midi": 41,
          "time": 232.05000000000373,
          "velocity": 0.7874015748031497,
          "duration": 0.15000000000000568
        },
        {
          "name": "C3",
          "midi": 48,
          "time": 232.05000000000373,
          "velocity": 0.7874015748031497,
          "duration": 0.15000000000000568
        },
        {
          "name": "G2",
          "midi": 43,
          "time": 232.20000000000374,
          "velocity": 0.7874015748031497,
          "duration": 0.15000000000000568
        },
        {
          "name": "D3",
          "midi": 50,
          "time": 232.20000000000374,
          "velocity": 0.7874015748031497,
          "duration": 0.15000000000000568
        },
        {
          "name": "G2",
          "midi": 43,
          "time": 232.35000000000375,
          "velocity": 0.7874015748031497,
          "duration": 0.15000000000000568
        },
        {
          "name": "D3",
          "midi": 50,
          "time": 232.35000000000375,
          "velocity": 0.7874015748031497,
          "duration": 0.15000000000000568
        },
        {
          "name": "G2",
          "midi": 43,
          "time": 232.65000000000376,
          "velocity": 0.7874015748031497,
          "duration": 0.15000000000000568
        },
        {
          "name": "D3",
          "midi": 50,
          "time": 232.65000000000376,
          "velocity": 0.7874015748031497,
          "duration": 0.15000000000000568
        },
        {
          "name": "G2",
          "midi": 43,
          "time": 232.79875000000376,
          "velocity": 0.7874015748031497,
          "duration": 0.30125000000001023
        },
        {
          "name": "D3",
          "midi": 50,
          "time": 232.80000000000376,
          "velocity": 0.7874015748031497,
          "duration": 0.30000000000001137
        },
        {
          "name": "G2",
          "midi": 43,
          "time": 233.10000000000377,
          "velocity": 0.7874015748031497,
          "duration": 0.14875000000000682
        },
        {
          "name": "D3",
          "midi": 50,
          "time": 233.10000000000377,
          "velocity": 0.7874015748031497,
          "duration": 0.15000000000000568
        },
        {
          "name": "F2",
          "midi": 41,
          "time": 233.25000000000378,
          "velocity": 0.7874015748031497,
          "duration": 0.15000000000000568
        },
        {
          "name": "C3",
          "midi": 48,
          "time": 233.25000000000378,
          "velocity": 0.7874015748031497,
          "duration": 0.15000000000000568
        },
        {
          "name": "D#2",
          "midi": 39,
          "time": 233.40000000000379,
          "velocity": 0.7874015748031497,
          "duration": 0.15000000000000568
        },
        {
          "name": "A#2",
          "midi": 46,
          "time": 233.40000000000379,
          "velocity": 0.7874015748031497,
          "duration": 0.15000000000000568
        },
        {
          "name": "D#2",
          "midi": 39,
          "time": 233.5500000000038,
          "velocity": 0.7874015748031497,
          "duration": 0.15000000000000568
        },
        {
          "name": "D#2",
          "midi": 39,
          "time": 233.7000000000038,
          "velocity": 0.7874015748031497,
          "duration": 0.15000000000000568
        },
        {
          "name": "D#2",
          "midi": 39,
          "time": 233.8500000000038,
          "velocity": 0.7874015748031497,
          "duration": 0.15000000000000568
        },
        {
          "name": "F2",
          "midi": 41,
          "time": 234.0000000000038,
          "velocity": 0.7874015748031497,
          "duration": 0.15000000000000568
        },
        {
          "name": "C3",
          "midi": 48,
          "time": 234.0000000000038,
          "velocity": 0.7874015748031497,
          "duration": 0.15000000000000568
        },
        {
          "name": "F2",
          "midi": 41,
          "time": 234.1500000000038,
          "velocity": 0.7874015748031497,
          "duration": 0.15000000000000568
        },
        {
          "name": "F2",
          "midi": 41,
          "time": 234.30000000000382,
          "velocity": 0.7874015748031497,
          "duration": 0.15000000000000568
        },
        {
          "name": "F2",
          "midi": 41,
          "time": 234.45000000000383,
          "velocity": 0.7874015748031497,
          "duration": 0.15000000000000568
        },
        {
          "name": "A#2",
          "midi": 46,
          "time": 234.60000000000383,
          "velocity": 0.7874015748031497,
          "duration": 0.44999999999998863
        },
        {
          "name": "F3",
          "midi": 53,
          "time": 234.60000000000383,
          "velocity": 0.7874015748031497,
          "duration": 0.44999999999998863
        },
        {
          "name": "A2",
          "midi": 45,
          "time": 235.05000000000382,
          "velocity": 0.7874015748031497,
          "duration": 0.15000000000000568
        },
        {
          "name": "F3",
          "midi": 53,
          "time": 235.05000000000382,
          "velocity": 0.7874015748031497,
          "duration": 0.15000000000000568
        },
        {
          "name": "A#2",
          "midi": 46,
          "time": 235.20000000000383,
          "velocity": 0.7874015748031497,
          "duration": 0.44999999999998863
        },
        {
          "name": "F3",
          "midi": 53,
          "time": 235.20000000000383,
          "velocity": 0.7874015748031497,
          "duration": 0.44999999999998863
        },
        {
          "name": "G5",
          "midi": 79,
          "time": 235.80000000000382,
          "velocity": 0.7874015748031497,
          "duration": 0.15000000000000568
        },
        {
          "name": "G5",
          "midi": 79,
          "time": 235.95000000000383,
          "velocity": 0.7874015748031497,
          "duration": 0.07499999999998863
        },
        {
          "name": "G5",
          "midi": 79,
          "time": 236.0250000000038,
          "velocity": 0.7874015748031497,
          "duration": 0.07499999999998863
        },
        {
          "name": "G5",
          "midi": 79,
          "time": 236.1000000000038,
          "velocity": 0.7874015748031497,
          "duration": 0.15125000000000455
        },
        {
          "name": "D5",
          "midi": 74,
          "time": 236.2500000000038,
          "velocity": 0.7874015748031497,
          "duration": 0.15000000000000568
        },
        {
          "name": "D#5",
          "midi": 75,
          "time": 236.4012500000038,
          "velocity": 0.7874015748031497,
          "duration": 0.15000000000000568
        },
        {
          "name": "D#5",
          "midi": 75,
          "time": 236.55000000000382,
          "velocity": 0.7874015748031497,
          "duration": 0.15000000000000568
        },
        {
          "name": "D#5",
          "midi": 75,
          "time": 236.70000000000383,
          "velocity": 0.7874015748031497,
          "duration": 0.15000000000000568
        },
        {
          "name": "D5",
          "midi": 74,
          "time": 236.85000000000383,
          "velocity": 0.7874015748031497,
          "duration": 0.15000000000000568
        },
        {
          "name": "F5",
          "midi": 77,
          "time": 237.00000000000384,
          "velocity": 0.7874015748031497,
          "duration": 0.15000000000000568
        },
        {
          "name": "F5",
          "midi": 77,
          "time": 237.15000000000384,
          "velocity": 0.7874015748031497,
          "duration": 0.07499999999998863
        },
        {
          "name": "F5",
          "midi": 77,
          "time": 237.22500000000383,
          "velocity": 0.7874015748031497,
          "duration": 0.07499999999998863
        },
        {
          "name": "F5",
          "midi": 77,
          "time": 237.30000000000382,
          "velocity": 0.7874015748031497,
          "duration": 0.15125000000000455
        },
        {
          "name": "C5",
          "midi": 72,
          "time": 237.45000000000383,
          "velocity": 0.7874015748031497,
          "duration": 0.15000000000000568
        },
        {
          "name": "D5",
          "midi": 74,
          "time": 237.60000000000383,
          "velocity": 0.7874015748031497,
          "duration": 0.15000000000000568
        },
        {
          "name": "D5",
          "midi": 74,
          "time": 237.74875000000384,
          "velocity": 0.7874015748031497,
          "duration": 0.15000000000000568
        },
        {
          "name": "D5",
          "midi": 74,
          "time": 237.89875000000384,
          "velocity": 0.7874015748031497,
          "duration": 0.15000000000000568
        },
        {
          "name": "C5",
          "midi": 72,
          "time": 238.05000000000385,
          "velocity": 0.7874015748031497,
          "duration": 0.15000000000000568
        },
        {
          "name": "D#5",
          "midi": 75,
          "time": 238.20000000000385,
          "velocity": 0.7874015748031497,
          "duration": 0.15000000000000568
        },
        {
          "name": "D#5",
          "midi": 75,
          "time": 238.35000000000386,
          "velocity": 0.7874015748031497,
          "duration": 0.07499999999998863
        },
        {
          "name": "D#5",
          "midi": 75,
          "time": 238.42500000000385,
          "velocity": 0.7874015748031497,
          "duration": 0.07499999999998863
        },
        {
          "name": "D#5",
          "midi": 75,
          "time": 238.50000000000384,
          "velocity": 0.7874015748031497,
          "duration": 0.15125000000000455
        },
        {
          "name": "A#4",
          "midi": 70,
          "time": 238.65000000000384,
          "velocity": 0.7874015748031497,
          "duration": 0.15000000000000568
        },
        {
          "name": "C5",
          "midi": 72,
          "time": 238.80000000000385,
          "velocity": 0.7874015748031497,
          "duration": 0.15000000000000568
        },
        {
          "name": "C5",
          "midi": 72,
          "time": 238.94875000000386,
          "velocity": 0.7874015748031497,
          "duration": 0.15000000000000568
        },
        {
          "name": "C5",
          "midi": 72,
          "time": 239.09875000000386,
          "velocity": 0.7874015748031497,
          "duration": 0.15000000000000568
        },
        {
          "name": "C5",
          "midi": 72,
          "time": 239.25000000000387,
          "velocity": 0.7874015748031497,
          "duration": 0.15000000000000568
        },
        {
          "name": "A4",
          "midi": 69,
          "time": 239.40000000000387,
          "velocity": 0.7874015748031497,
          "duration": 0.22374999999999545
        },
        {
          "name": "F4",
          "midi": 65,
          "time": 239.70000000000385,
          "velocity": 0.7874015748031497,
          "duration": 0.22499999999999432
        },
        {
          "name": "G4",
          "midi": 67,
          "time": 240.00000000000384,
          "velocity": 0.7874015748031497,
          "duration": 0.5999999999999943
        }
      ],
      "controlChanges": {},
      "id": 1,
      "name": "Midi Advanced Dentalist",
      "channelNumber": 0,
      "isPercussion": false
    }
  ]
}