{
  "header": {
    "PPQ": 480,
    "timeSignature": [
      4,
      4
    ],
    "bpm": 100,
    "name": "Dentalist Beginner Midi Git"
  },
  "tempo": [
    {
      "absoluteTime": 0,
      "seconds": 0,
      "bpm": 100
    },
    {
      "absoluteTime": 36960,
      "seconds": 46.199999999999996,
      "bpm": 100
    },
    {
      "absoluteTime": 65280,
      "seconds": 81.6,
      "bpm": 100
    },
    {
      "absoluteTime": 124800,
      "seconds": 156,
      "bpm": 100
    },
    {
      "absoluteTime": 153600,
      "seconds": 192,
      "bpm": 100
    },
    {
      "absoluteTime": 157440,
      "seconds": 196.8,
      "bpm": 100
    },
    {
      "absoluteTime": 176640,
      "seconds": 220.8,
      "bpm": 100
    }
  ],
  "timeSignature": [
    {
      "absoluteTime": 0,
      "seconds": 0,
      "numerator": 4,
      "denominator": 2,
      "click": 24,
      "notesQ": 8
    },
    {
      "absoluteTime": 65280,
      "seconds": 81.6,
      "numerator": 4,
      "denominator": 2,
      "click": 24,
      "notesQ": 8
    },
    {
      "absoluteTime": 124800,
      "seconds": 156,
      "numerator": 4,
      "denominator": 2,
      "click": 24,
      "notesQ": 8
    },
    {
      "absoluteTime": 153600,
      "seconds": 192,
      "numerator": 4,
      "denominator": 2,
      "click": 24,
      "notesQ": 8
    },
    {
      "absoluteTime": 157440,
      "seconds": 196.8,
      "numerator": 4,
      "denominator": 2,
      "click": 24,
      "notesQ": 8
    },
    {
      "absoluteTime": 176640,
      "seconds": 220.8,
      "numerator": 4,
      "denominator": 2,
      "click": 24,
      "notesQ": 8
    }
  ],
  "startTime": 0,
  "duration": 240.60000000000008,
  "tracks": [
    {
      "startTime": 0,
      "duration": 0,
      "length": 0,
      "notes": [],
      "controlChanges": {},
      "id": 0,
      "name": "Dentalist Beginner Midi Git"
    },
    {
      "startTime": 3,
      "duration": 240.60000000000008,
      "length": 401,
      "notes": [
        {
          "name": "G3",
          "midi": 55,
          "time": 3,
          "velocity": 0.7874015748031497,
          "duration": 0.1499999999999999
        },
        {
          "name": "G4",
          "midi": 67,
          "time": 3.5999999999999996,
          "velocity": 0.7874015748031497,
          "duration": 0.1499999999999999
        },
        {
          "name": "G4",
          "midi": 67,
          "time": 4.199999999999999,
          "velocity": 0.7874015748031497,
          "duration": 0.15000000000000036
        },
        {
          "name": "F#4",
          "midi": 66,
          "time": 4.8,
          "velocity": 0.7874015748031497,
          "duration": 0.5999999999999996
        },
        {
          "name": "G3",
          "midi": 55,
          "time": 5.3999999999999995,
          "velocity": 0.7874015748031497,
          "duration": 0.15000000000000036
        },
        {
          "name": "G4",
          "midi": 67,
          "time": 6,
          "velocity": 0.7874015748031497,
          "duration": 0.15000000000000036
        },
        {
          "name": "G4",
          "midi": 67,
          "time": 6.6000000000000005,
          "velocity": 0.7874015748031497,
          "duration": 0.15000000000000036
        },
        {
          "name": "B4",
          "midi": 71,
          "time": 7.200000000000001,
          "velocity": 0.7874015748031497,
          "duration": 0.15000000000000036
        },
        {
          "name": "G3",
          "midi": 55,
          "time": 7.800000000000002,
          "velocity": 0.7874015748031497,
          "duration": 0.15000000000000036
        },
        {
          "name": "G4",
          "midi": 67,
          "time": 8.400000000000002,
          "velocity": 0.7874015748031497,
          "duration": 0.15000000000000036
        },
        {
          "name": "G4",
          "midi": 67,
          "time": 9.000000000000002,
          "velocity": 0.7874015748031497,
          "duration": 0.15000000000000036
        },
        {
          "name": "F#4",
          "midi": 66,
          "time": 9.600000000000001,
          "velocity": 0.7874015748031497,
          "duration": 0.5999999999999996
        },
        {
          "name": "G3",
          "midi": 55,
          "time": 10.200000000000001,
          "velocity": 0.7874015748031497,
          "duration": 0.15000000000000036
        },
        {
          "name": "G4",
          "midi": 67,
          "time": 10.8,
          "velocity": 0.7874015748031497,
          "duration": 0.15000000000000036
        },
        {
          "name": "G3",
          "midi": 55,
          "time": 11.4,
          "velocity": 0.7874015748031497,
          "duration": 0.15000000000000036
        },
        {
          "name": "D4",
          "midi": 62,
          "time": 12,
          "velocity": 0.7874015748031497,
          "duration": 0.15000000000000036
        },
        {
          "name": "G3",
          "midi": 55,
          "time": 12.6,
          "velocity": 0.7874015748031497,
          "duration": 0.15000000000000036
        },
        {
          "name": "G4",
          "midi": 67,
          "time": 13.2,
          "velocity": 0.7874015748031497,
          "duration": 0.15000000000000036
        },
        {
          "name": "G4",
          "midi": 67,
          "time": 13.799999999999999,
          "velocity": 0.7874015748031497,
          "duration": 0.15000000000000036
        },
        {
          "name": "F#4",
          "midi": 66,
          "time": 14.399999999999999,
          "velocity": 0.7874015748031497,
          "duration": 0.5999999999999996
        },
        {
          "name": "G3",
          "midi": 55,
          "time": 14.999999999999998,
          "velocity": 0.7874015748031497,
          "duration": 0.15000000000000036
        },
        {
          "name": "G4",
          "midi": 67,
          "time": 15.599999999999998,
          "velocity": 0.7874015748031497,
          "duration": 0.15000000000000036
        },
        {
          "name": "G4",
          "midi": 67,
          "time": 16.2,
          "velocity": 0.7874015748031497,
          "duration": 0.14999999999999858
        },
        {
          "name": "B4",
          "midi": 71,
          "time": 16.799999999999997,
          "velocity": 0.7874015748031497,
          "duration": 0.14999999999999858
        },
        {
          "name": "G3",
          "midi": 55,
          "time": 17.399999999999995,
          "velocity": 0.7874015748031497,
          "duration": 0.14999999999999858
        },
        {
          "name": "G4",
          "midi": 67,
          "time": 17.999999999999993,
          "velocity": 0.7874015748031497,
          "duration": 0.14999999999999858
        },
        {
          "name": "G4",
          "midi": 67,
          "time": 18.59999999999999,
          "velocity": 0.7874015748031497,
          "duration": 0.14999999999999858
        },
        {
          "name": "F#4",
          "midi": 66,
          "time": 19.19999999999999,
          "velocity": 0.7874015748031497,
          "duration": 0.6000000000000014
        },
        {
          "name": "G3",
          "midi": 55,
          "time": 19.79999999999999,
          "velocity": 0.7874015748031497,
          "duration": 0.14999999999999858
        },
        {
          "name": "G4",
          "midi": 67,
          "time": 20.399999999999988,
          "velocity": 0.7874015748031497,
          "duration": 0.14999999999999858
        },
        {
          "name": "G3",
          "midi": 55,
          "time": 20.999999999999986,
          "velocity": 0.7874015748031497,
          "duration": 0.14999999999999858
        },
        {
          "name": "D4",
          "midi": 62,
          "time": 21.599999999999984,
          "velocity": 0.7874015748031497,
          "duration": 0.14999999999999858
        },
        {
          "name": "G3",
          "midi": 55,
          "time": 22.19999999999998,
          "velocity": 0.7874015748031497,
          "duration": 0.14999999999999858
        },
        {
          "name": "E3",
          "midi": 52,
          "time": 22.79999999999998,
          "velocity": 0.7874015748031497,
          "duration": 0.3000000000000007
        },
        {
          "name": "G3",
          "midi": 55,
          "time": 23.39999999999998,
          "velocity": 0.7874015748031497,
          "duration": 0.14999999999999858
        },
        {
          "name": "E3",
          "midi": 52,
          "time": 23.99999999999998,
          "velocity": 0.7874015748031497,
          "duration": 0.3000000000000007
        },
        {
          "name": "G3",
          "midi": 55,
          "time": 24.59999999999998,
          "velocity": 0.7874015748031497,
          "duration": 0.14999999999999858
        },
        {
          "name": "F#3",
          "midi": 54,
          "time": 25.04999999999998,
          "velocity": 0.7874015748031497,
          "duration": 0.14999999999999858
        },
        {
          "name": "G3",
          "midi": 55,
          "time": 25.49999999999998,
          "velocity": 0.7874015748031497,
          "duration": 0.14999999999999858
        },
        {
          "name": "A3",
          "midi": 57,
          "time": 25.799999999999976,
          "velocity": 0.7874015748031497,
          "duration": 0.14999999999999858
        },
        {
          "name": "G3",
          "midi": 55,
          "time": 26.249999999999975,
          "velocity": 0.7874015748031497,
          "duration": 0.14999999999999858
        },
        {
          "name": "F#3",
          "midi": 54,
          "time": 26.699999999999974,
          "velocity": 0.7874015748031497,
          "duration": 0.14999999999999858
        },
        {
          "name": "G3",
          "midi": 55,
          "time": 26.99999999999997,
          "velocity": 0.7874015748031497,
          "duration": 0.14999999999999858
        },
        {
          "name": "E3",
          "midi": 52,
          "time": 27.59999999999997,
          "velocity": 0.7874015748031497,
          "duration": 0.3000000000000007
        },
        {
          "name": "G3",
          "midi": 55,
          "time": 28.19999999999997,
          "velocity": 0.7874015748031497,
          "duration": 0.14999999999999858
        },
        {
          "name": "E3",
          "midi": 52,
          "time": 28.79999999999997,
          "velocity": 0.7874015748031497,
          "duration": 0.3000000000000007
        },
        {
          "name": "G3",
          "midi": 55,
          "time": 29.39999999999997,
          "velocity": 0.7874015748031497,
          "duration": 0.14999999999999858
        },
        {
          "name": "F#3",
          "midi": 54,
          "time": 29.84999999999997,
          "velocity": 0.7874015748031497,
          "duration": 0.14999999999999858
        },
        {
          "name": "G3",
          "midi": 55,
          "time": 30.29999999999997,
          "velocity": 0.7874015748031497,
          "duration": 0.14999999999999858
        },
        {
          "name": "D3",
          "midi": 50,
          "time": 30.599999999999966,
          "velocity": 0.7874015748031497,
          "duration": 0.14999999999999858
        },
        {
          "name": "A3",
          "midi": 57,
          "time": 31.049999999999965,
          "velocity": 0.7874015748031497,
          "duration": 0.14999999999999858
        },
        {
          "name": "G3",
          "midi": 55,
          "time": 31.499999999999964,
          "velocity": 0.7874015748031497,
          "duration": 0.14999999999999858
        },
        {
          "name": "G3",
          "midi": 55,
          "time": 31.79999999999996,
          "velocity": 0.7874015748031497,
          "duration": 0.14999999999999858
        },
        {
          "name": "E3",
          "midi": 52,
          "time": 32.39999999999996,
          "velocity": 0.7874015748031497,
          "duration": 0.29999999999999716
        },
        {
          "name": "G3",
          "midi": 55,
          "time": 32.99999999999996,
          "velocity": 0.7874015748031497,
          "duration": 0.14999999999999858
        },
        {
          "name": "E3",
          "midi": 52,
          "time": 33.59999999999996,
          "velocity": 0.7874015748031497,
          "duration": 0.29999999999999716
        },
        {
          "name": "G3",
          "midi": 55,
          "time": 34.19999999999995,
          "velocity": 0.7874015748031497,
          "duration": 0.14999999999999858
        },
        {
          "name": "F#3",
          "midi": 54,
          "time": 34.64999999999995,
          "velocity": 0.7874015748031497,
          "duration": 0.14999999999999858
        },
        {
          "name": "G3",
          "midi": 55,
          "time": 35.099999999999945,
          "velocity": 0.7874015748031497,
          "duration": 0.14999999999999858
        },
        {
          "name": "A3",
          "midi": 57,
          "time": 35.39999999999994,
          "velocity": 0.7874015748031497,
          "duration": 0.14999999999999858
        },
        {
          "name": "G3",
          "midi": 55,
          "time": 35.84999999999994,
          "velocity": 0.7874015748031497,
          "duration": 0.14999999999999858
        },
        {
          "name": "F#3",
          "midi": 54,
          "time": 36.29999999999993,
          "velocity": 0.7874015748031497,
          "duration": 0.14999999999999858
        },
        {
          "name": "G3",
          "midi": 55,
          "time": 36.59999999999993,
          "velocity": 0.7874015748031497,
          "duration": 0.14999999999999858
        },
        {
          "name": "E3",
          "midi": 52,
          "time": 37.19999999999993,
          "velocity": 0.7874015748031497,
          "duration": 0.29999999999999716
        },
        {
          "name": "G3",
          "midi": 55,
          "time": 37.799999999999926,
          "velocity": 0.7874015748031497,
          "duration": 0.14999999999999858
        },
        {
          "name": "E3",
          "midi": 52,
          "time": 38.39999999999993,
          "velocity": 0.7874015748031497,
          "duration": 0.29999999999999716
        },
        {
          "name": "G3",
          "midi": 55,
          "time": 38.99999999999992,
          "velocity": 0.7874015748031497,
          "duration": 0.14999999999999858
        },
        {
          "name": "F#3",
          "midi": 54,
          "time": 39.44999999999992,
          "velocity": 0.7874015748031497,
          "duration": 0.14999999999999858
        },
        {
          "name": "G3",
          "midi": 55,
          "time": 39.89999999999991,
          "velocity": 0.7874015748031497,
          "duration": 0.14999999999999858
        },
        {
          "name": "D3",
          "midi": 50,
          "time": 40.19999999999991,
          "velocity": 0.7874015748031497,
          "duration": 0.14999999999999858
        },
        {
          "name": "A3",
          "midi": 57,
          "time": 40.649999999999906,
          "velocity": 0.7874015748031497,
          "duration": 0.14999999999999858
        },
        {
          "name": "G3",
          "midi": 55,
          "time": 41.0999999999999,
          "velocity": 0.7874015748031497,
          "duration": 0.14999999999999858
        },
        {
          "name": "A3",
          "midi": 57,
          "time": 41.3999999999999,
          "velocity": 0.7874015748031497,
          "duration": 0.14999999999999858
        },
        {
          "name": "F#3",
          "midi": 54,
          "time": 41.9999999999999,
          "velocity": 0.7874015748031497,
          "duration": 0.29999999999999716
        },
        {
          "name": "A3",
          "midi": 57,
          "time": 42.599999999999895,
          "velocity": 0.7874015748031497,
          "duration": 0.14999999999999858
        },
        {
          "name": "F#3",
          "midi": 54,
          "time": 43.199999999999896,
          "velocity": 0.7874015748031497,
          "duration": 0.29999999999999716
        },
        {
          "name": "A3",
          "midi": 57,
          "time": 43.79999999999989,
          "velocity": 0.7874015748031497,
          "duration": 0.14999999999999858
        },
        {
          "name": "G#3",
          "midi": 56,
          "time": 44.249999999999886,
          "velocity": 0.7874015748031497,
          "duration": 0.14999999999999858
        },
        {
          "name": "A3",
          "midi": 57,
          "time": 44.69999999999988,
          "velocity": 0.7874015748031497,
          "duration": 0.14999999999999858
        },
        {
          "name": "B3",
          "midi": 59,
          "time": 44.99999999999988,
          "velocity": 0.7874015748031497,
          "duration": 0.14999999999999858
        },
        {
          "name": "A3",
          "midi": 57,
          "time": 45.449999999999875,
          "velocity": 0.7874015748031497,
          "duration": 0.14999999999999858
        },
        {
          "name": "G#3",
          "midi": 56,
          "time": 45.89999999999987,
          "velocity": 0.7874015748031497,
          "duration": 0.14999999999999858
        },
        {
          "name": "A3",
          "midi": 57,
          "time": 46.19999999999987,
          "velocity": 0.7874015748031497,
          "duration": 0.14999999999999858
        },
        {
          "name": "F#3",
          "midi": 54,
          "time": 46.79999999999987,
          "velocity": 0.7874015748031497,
          "duration": 0.29999999999999716
        },
        {
          "name": "A3",
          "midi": 57,
          "time": 47.399999999999864,
          "velocity": 0.7874015748031497,
          "duration": 0.14999999999999858
        },
        {
          "name": "F#3",
          "midi": 54,
          "time": 47.999999999999865,
          "velocity": 0.7874015748031497,
          "duration": 0.29999999999999716
        },
        {
          "name": "A3",
          "midi": 57,
          "time": 48.59999999999986,
          "velocity": 0.7874015748031497,
          "duration": 0.14999999999999858
        },
        {
          "name": "G#3",
          "midi": 56,
          "time": 49.049999999999855,
          "velocity": 0.7874015748031497,
          "duration": 0.14999999999999858
        },
        {
          "name": "A3",
          "midi": 57,
          "time": 49.49999999999985,
          "velocity": 0.7874015748031497,
          "duration": 0.14999999999999858
        },
        {
          "name": "E3",
          "midi": 52,
          "time": 49.79999999999985,
          "velocity": 0.7874015748031497,
          "duration": 0.14999999999999858
        },
        {
          "name": "B3",
          "midi": 59,
          "time": 50.249999999999844,
          "velocity": 0.7874015748031497,
          "duration": 0.14999999999999858
        },
        {
          "name": "A3",
          "midi": 57,
          "time": 50.69999999999984,
          "velocity": 0.7874015748031497,
          "duration": 0.14999999999999858
        },
        {
          "name": "E3",
          "midi": 52,
          "time": 50.99999999999984,
          "velocity": 0.7874015748031497,
          "duration": 0.29999999999999716
        },
        {
          "name": "G3",
          "midi": 55,
          "time": 51.59999999999983,
          "velocity": 0.7874015748031497,
          "duration": 0.29999999999999716
        },
        {
          "name": "A3",
          "midi": 57,
          "time": 52.199999999999825,
          "velocity": 0.7874015748031497,
          "duration": 0.29999999999999716
        },
        {
          "name": "E3",
          "midi": 52,
          "time": 52.79999999999982,
          "velocity": 0.7874015748031497,
          "duration": 0.29999999999999716
        },
        {
          "name": "G2",
          "midi": 43,
          "time": 53.399999999999814,
          "velocity": 0.7874015748031497,
          "duration": 0.29999999999999716
        },
        {
          "name": "C3",
          "midi": 48,
          "time": 53.99999999999981,
          "velocity": 0.7874015748031497,
          "duration": 0.29999999999999716
        },
        {
          "name": "D3",
          "midi": 50,
          "time": 54.5999999999998,
          "velocity": 0.7874015748031497,
          "duration": 0.29999999999999716
        },
        {
          "name": "B2",
          "midi": 47,
          "time": 54.8999999999998,
          "velocity": 0.7874015748031497,
          "duration": 0.29999999999999716
        },
        {
          "name": "E3",
          "midi": 52,
          "time": 55.1999999999998,
          "velocity": 0.7874015748031497,
          "duration": 0.29999999999999716
        },
        {
          "name": "E3",
          "midi": 52,
          "time": 55.79999999999979,
          "velocity": 0.7874015748031497,
          "duration": 0.29999999999999716
        },
        {
          "name": "G3",
          "midi": 55,
          "time": 56.399999999999785,
          "velocity": 0.7874015748031497,
          "duration": 0.29999999999999716
        },
        {
          "name": "A3",
          "midi": 57,
          "time": 56.99999999999978,
          "velocity": 0.7874015748031497,
          "duration": 0.29999999999999716
        },
        {
          "name": "E3",
          "midi": 52,
          "time": 57.599999999999774,
          "velocity": 0.7874015748031497,
          "duration": 0.29999999999999716
        },
        {
          "name": "G2",
          "midi": 43,
          "time": 58.19999999999977,
          "velocity": 0.7874015748031497,
          "duration": 0.29999999999999716
        },
        {
          "name": "C3",
          "midi": 48,
          "time": 58.79999999999976,
          "velocity": 0.7874015748031497,
          "duration": 0.29999999999999716
        },
        {
          "name": "D3",
          "midi": 50,
          "time": 59.39999999999976,
          "velocity": 0.7874015748031497,
          "duration": 0.29999999999999716
        },
        {
          "name": "B2",
          "midi": 47,
          "time": 59.699999999999754,
          "velocity": 0.7874015748031497,
          "duration": 0.29999999999999716
        },
        {
          "name": "E3",
          "midi": 52,
          "time": 59.99999999999975,
          "velocity": 0.7874015748031497,
          "duration": 0.6000000000000014
        },
        {
          "name": "G3",
          "midi": 55,
          "time": 60.59999999999975,
          "velocity": 0.7874015748031497,
          "duration": 0.14999999999999858
        },
        {
          "name": "D3",
          "midi": 50,
          "time": 61.199999999999754,
          "velocity": 0.7874015748031497,
          "duration": 0.14999999999999858
        },
        {
          "name": "E3",
          "midi": 52,
          "time": 61.799999999999756,
          "velocity": 0.7874015748031497,
          "duration": 0.14999999999999858
        },
        {
          "name": "E3",
          "midi": 52,
          "time": 62.39874999999975,
          "velocity": 0.7874015748031497,
          "duration": 0.3012500000000031
        },
        {
          "name": "C3",
          "midi": 48,
          "time": 62.99999999999975,
          "velocity": 0.7874015748031497,
          "duration": 0.14999999999999858
        },
        {
          "name": "D3",
          "midi": 50,
          "time": 63.59999999999975,
          "velocity": 0.7874015748031497,
          "duration": 0.14999999999999858
        },
        {
          "name": "G3",
          "midi": 55,
          "time": 64.19999999999975,
          "velocity": 0.7874015748031497,
          "duration": 0.45000000000000284
        },
        {
          "name": "G3",
          "midi": 55,
          "time": 64.79999999999976,
          "velocity": 0.7874015748031497,
          "duration": 0.29999999999999716
        },
        {
          "name": "G3",
          "midi": 55,
          "time": 65.39999999999975,
          "velocity": 0.7874015748031497,
          "duration": 0.15000000000000568
        },
        {
          "name": "D3",
          "midi": 50,
          "time": 65.99999999999976,
          "velocity": 0.7874015748031497,
          "duration": 0.15000000000000568
        },
        {
          "name": "E3",
          "midi": 52,
          "time": 66.59999999999977,
          "velocity": 0.7874015748031497,
          "duration": 0.15000000000000568
        },
        {
          "name": "E3",
          "midi": 52,
          "time": 67.19874999999978,
          "velocity": 0.7874015748031497,
          "duration": 0.301249999999996
        },
        {
          "name": "C3",
          "midi": 48,
          "time": 67.79999999999977,
          "velocity": 0.7874015748031497,
          "duration": 0.15000000000000568
        },
        {
          "name": "B2",
          "midi": 47,
          "time": 68.39999999999978,
          "velocity": 0.7874015748031497,
          "duration": 0.15000000000000568
        },
        {
          "name": "E2",
          "midi": 40,
          "time": 68.99999999999979,
          "velocity": 0.7874015748031497,
          "duration": 0.15000000000000568
        },
        {
          "name": "E2",
          "midi": 40,
          "time": 69.5999999999998,
          "velocity": 0.7874015748031497,
          "duration": 0.5925000000000011
        },
        {
          "name": "G2",
          "midi": 43,
          "time": 70.19999999999979,
          "velocity": 0.7874015748031497,
          "duration": 0.15000000000000568
        },
        {
          "name": "D3",
          "midi": 50,
          "time": 71.39999999999979,
          "velocity": 0.7874015748031497,
          "duration": 0.15000000000000568
        },
        {
          "name": "E3",
          "midi": 52,
          "time": 72.5999999999998,
          "velocity": 0.7874015748031497,
          "duration": 0.15000000000000568
        },
        {
          "name": "B2",
          "midi": 47,
          "time": 73.7999999999998,
          "velocity": 0.7874015748031497,
          "duration": 0.45000000000000284
        },
        {
          "name": "B2",
          "midi": 47,
          "time": 74.3999999999998,
          "velocity": 0.7874015748031497,
          "duration": 0.29999999999999716
        },
        {
          "name": "G3",
          "midi": 55,
          "time": 74.9999999999998,
          "velocity": 0.7874015748031497,
          "duration": 0.15000000000000568
        },
        {
          "name": "D3",
          "midi": 50,
          "time": 75.59999999999981,
          "velocity": 0.7874015748031497,
          "duration": 0.15000000000000568
        },
        {
          "name": "E3",
          "midi": 52,
          "time": 76.19999999999982,
          "velocity": 0.7874015748031497,
          "duration": 0.15000000000000568
        },
        {
          "name": "E3",
          "midi": 52,
          "time": 76.79874999999983,
          "velocity": 0.7874015748031497,
          "duration": 0.301249999999996
        },
        {
          "name": "C3",
          "midi": 48,
          "time": 77.39999999999982,
          "velocity": 0.7874015748031497,
          "duration": 0.15000000000000568
        },
        {
          "name": "D3",
          "midi": 50,
          "time": 77.99999999999983,
          "velocity": 0.7874015748031497,
          "duration": 0.15000000000000568
        },
        {
          "name": "G3",
          "midi": 55,
          "time": 78.59999999999984,
          "velocity": 0.7874015748031497,
          "duration": 0.45000000000000284
        },
        {
          "name": "G3",
          "midi": 55,
          "time": 79.19999999999985,
          "velocity": 0.7874015748031497,
          "duration": 0.45000000000000284
        },
        {
          "name": "E5",
          "midi": 76,
          "time": 79.79999999999986,
          "velocity": 0.7874015748031497,
          "duration": 0.15000000000000568
        },
        {
          "name": "C5",
          "midi": 72,
          "time": 80.40124999999986,
          "velocity": 0.7874015748031497,
          "duration": 0.15000000000000568
        },
        {
          "name": "D5",
          "midi": 74,
          "time": 80.99999999999987,
          "velocity": 0.7874015748031497,
          "duration": 0.15000000000000568
        },
        {
          "name": "B4",
          "midi": 71,
          "time": 81.59999999999988,
          "velocity": 0.7874015748031497,
          "duration": 0.15000000000000568
        },
        {
          "name": "C5",
          "midi": 72,
          "time": 82.19999999999989,
          "velocity": 0.7874015748031497,
          "duration": 0.15000000000000568
        },
        {
          "name": "A4",
          "midi": 69,
          "time": 82.7999999999999,
          "velocity": 0.7874015748031497,
          "duration": 0.15000000000000568
        },
        {
          "name": "F#4",
          "midi": 66,
          "time": 83.3999999999999,
          "velocity": 0.7874015748031497,
          "duration": 0.22374999999999545
        },
        {
          "name": "D4",
          "midi": 62,
          "time": 83.6999999999999,
          "velocity": 0.7874015748031497,
          "duration": 0.22499999999999432
        },
        {
          "name": "E4",
          "midi": 64,
          "time": 83.9999999999999,
          "velocity": 0.7874015748031497,
          "duration": 0.375
        },
        {
          "name": "E5",
          "midi": 76,
          "time": 84.5999999999999,
          "velocity": 0.7874015748031497,
          "duration": 0.15000000000000568
        },
        {
          "name": "C5",
          "midi": 72,
          "time": 85.2012499999999,
          "velocity": 0.7874015748031497,
          "duration": 0.15000000000000568
        },
        {
          "name": "D5",
          "midi": 74,
          "time": 85.79999999999991,
          "velocity": 0.7874015748031497,
          "duration": 0.15000000000000568
        },
        {
          "name": "B4",
          "midi": 71,
          "time": 86.39999999999992,
          "velocity": 0.7874015748031497,
          "duration": 0.15000000000000568
        },
        {
          "name": "C5",
          "midi": 72,
          "time": 86.99999999999993,
          "velocity": 0.7874015748031497,
          "duration": 0.15000000000000568
        },
        {
          "name": "A4",
          "midi": 69,
          "time": 87.59999999999994,
          "velocity": 0.7874015748031497,
          "duration": 0.15000000000000568
        },
        {
          "name": "F#4",
          "midi": 66,
          "time": 88.19999999999995,
          "velocity": 0.7874015748031497,
          "duration": 0.22374999999999545
        },
        {
          "name": "D4",
          "midi": 62,
          "time": 88.49999999999994,
          "velocity": 0.7874015748031497,
          "duration": 0.22499999999999432
        },
        {
          "name": "E4",
          "midi": 64,
          "time": 88.79999999999994,
          "velocity": 0.7874015748031497,
          "duration": 0.45000000000000284
        },
        {
          "name": "G3",
          "midi": 55,
          "time": 89.39999999999995,
          "velocity": 0.7874015748031497,
          "duration": 0.15000000000000568
        },
        {
          "name": "E3",
          "midi": 52,
          "time": 89.99999999999996,
          "velocity": 0.7874015748031497,
          "duration": 0.29999999999999716
        },
        {
          "name": "G3",
          "midi": 55,
          "time": 90.59999999999995,
          "velocity": 0.7874015748031497,
          "duration": 0.15000000000000568
        },
        {
          "name": "E3",
          "midi": 52,
          "time": 91.19999999999996,
          "velocity": 0.7874015748031497,
          "duration": 0.29999999999999716
        },
        {
          "name": "G3",
          "midi": 55,
          "time": 91.79999999999995,
          "velocity": 0.7874015748031497,
          "duration": 0.15000000000000568
        },
        {
          "name": "F#3",
          "midi": 54,
          "time": 92.24999999999996,
          "velocity": 0.7874015748031497,
          "duration": 0.15000000000000568
        },
        {
          "name": "G3",
          "midi": 55,
          "time": 92.69999999999996,
          "velocity": 0.7874015748031497,
          "duration": 0.15000000000000568
        },
        {
          "name": "A3",
          "midi": 57,
          "time": 92.99999999999997,
          "velocity": 0.7874015748031497,
          "duration": 0.15000000000000568
        },
        {
          "name": "G3",
          "midi": 55,
          "time": 93.44999999999997,
          "velocity": 0.7874015748031497,
          "duration": 0.15000000000000568
        },
        {
          "name": "F#3",
          "midi": 54,
          "time": 93.89999999999998,
          "velocity": 0.7874015748031497,
          "duration": 0.15000000000000568
        },
        {
          "name": "G3",
          "midi": 55,
          "time": 94.19999999999999,
          "velocity": 0.7874015748031497,
          "duration": 0.15000000000000568
        },
        {
          "name": "E3",
          "midi": 52,
          "time": 94.8,
          "velocity": 0.7874015748031497,
          "duration": 0.29999999999999716
        },
        {
          "name": "G3",
          "midi": 55,
          "time": 95.39999999999999,
          "velocity": 0.7874015748031497,
          "duration": 0.15000000000000568
        },
        {
          "name": "E3",
          "midi": 52,
          "time": 96,
          "velocity": 0.7874015748031497,
          "duration": 0.29999999999999716
        },
        {
          "name": "G3",
          "midi": 55,
          "time": 96.6,
          "velocity": 0.7874015748031497,
          "duration": 0.15000000000000568
        },
        {
          "name": "F#3",
          "midi": 54,
          "time": 97.05,
          "velocity": 0.7874015748031497,
          "duration": 0.15000000000000568
        },
        {
          "name": "G3",
          "midi": 55,
          "time": 97.5,
          "velocity": 0.7874015748031497,
          "duration": 0.15000000000000568
        },
        {
          "name": "D3",
          "midi": 50,
          "time": 97.80000000000001,
          "velocity": 0.7874015748031497,
          "duration": 0.15000000000000568
        },
        {
          "name": "A3",
          "midi": 57,
          "time": 98.25000000000001,
          "velocity": 0.7874015748031497,
          "duration": 0.15000000000000568
        },
        {
          "name": "G3",
          "midi": 55,
          "time": 98.70000000000002,
          "velocity": 0.7874015748031497,
          "duration": 0.15000000000000568
        },
        {
          "name": "A3",
          "midi": 57,
          "time": 99.00000000000003,
          "velocity": 0.7874015748031497,
          "duration": 0.15000000000000568
        },
        {
          "name": "F#3",
          "midi": 54,
          "time": 99.60000000000004,
          "velocity": 0.7874015748031497,
          "duration": 0.29999999999999716
        },
        {
          "name": "A3",
          "midi": 57,
          "time": 100.20000000000003,
          "velocity": 0.7874015748031497,
          "duration": 0.15000000000000568
        },
        {
          "name": "F#3",
          "midi": 54,
          "time": 100.80000000000004,
          "velocity": 0.7874015748031497,
          "duration": 0.29999999999999716
        },
        {
          "name": "A3",
          "midi": 57,
          "time": 101.40000000000003,
          "velocity": 0.7874015748031497,
          "duration": 0.15000000000000568
        },
        {
          "name": "G#3",
          "midi": 56,
          "time": 101.85000000000004,
          "velocity": 0.7874015748031497,
          "duration": 0.15000000000000568
        },
        {
          "name": "A3",
          "midi": 57,
          "time": 102.30000000000004,
          "velocity": 0.7874015748031497,
          "duration": 0.15000000000000568
        },
        {
          "name": "B3",
          "midi": 59,
          "time": 102.60000000000005,
          "velocity": 0.7874015748031497,
          "duration": 0.15000000000000568
        },
        {
          "name": "A3",
          "midi": 57,
          "time": 103.05000000000005,
          "velocity": 0.7874015748031497,
          "duration": 0.15000000000000568
        },
        {
          "name": "G#3",
          "midi": 56,
          "time": 103.50000000000006,
          "velocity": 0.7874015748031497,
          "duration": 0.15000000000000568
        },
        {
          "name": "A3",
          "midi": 57,
          "time": 103.80000000000007,
          "velocity": 0.7874015748031497,
          "duration": 0.15000000000000568
        },
        {
          "name": "F#3",
          "midi": 54,
          "time": 104.40000000000008,
          "velocity": 0.7874015748031497,
          "duration": 0.29999999999999716
        },
        {
          "name": "A3",
          "midi": 57,
          "time": 105.00000000000007,
          "velocity": 0.7874015748031497,
          "duration": 0.15000000000000568
        },
        {
          "name": "F#3",
          "midi": 54,
          "time": 105.60000000000008,
          "velocity": 0.7874015748031497,
          "duration": 0.29999999999999716
        },
        {
          "name": "A3",
          "midi": 57,
          "time": 106.20000000000007,
          "velocity": 0.7874015748031497,
          "duration": 0.15000000000000568
        },
        {
          "name": "G#3",
          "midi": 56,
          "time": 106.65000000000008,
          "velocity": 0.7874015748031497,
          "duration": 0.15000000000000568
        },
        {
          "name": "A3",
          "midi": 57,
          "time": 107.10000000000008,
          "velocity": 0.7874015748031497,
          "duration": 0.15000000000000568
        },
        {
          "name": "E3",
          "midi": 52,
          "time": 107.40000000000009,
          "velocity": 0.7874015748031497,
          "duration": 0.15000000000000568
        },
        {
          "name": "B3",
          "midi": 59,
          "time": 107.8500000000001,
          "velocity": 0.7874015748031497,
          "duration": 0.15000000000000568
        },
        {
          "name": "A3",
          "midi": 57,
          "time": 108.3000000000001,
          "velocity": 0.7874015748031497,
          "duration": 0.15000000000000568
        },
        {
          "name": "E3",
          "midi": 52,
          "time": 108.60000000000011,
          "velocity": 0.7874015748031497,
          "duration": 0.29999999999999716
        },
        {
          "name": "G3",
          "midi": 55,
          "time": 109.2000000000001,
          "velocity": 0.7874015748031497,
          "duration": 0.29999999999999716
        },
        {
          "name": "A3",
          "midi": 57,
          "time": 109.8000000000001,
          "velocity": 0.7874015748031497,
          "duration": 0.29999999999999716
        },
        {
          "name": "E3",
          "midi": 52,
          "time": 110.40000000000009,
          "velocity": 0.7874015748031497,
          "duration": 0.29999999999999716
        },
        {
          "name": "G2",
          "midi": 43,
          "time": 111.00000000000009,
          "velocity": 0.7874015748031497,
          "duration": 0.29999999999999716
        },
        {
          "name": "C3",
          "midi": 48,
          "time": 111.60000000000008,
          "velocity": 0.7874015748031497,
          "duration": 0.29999999999999716
        },
        {
          "name": "D3",
          "midi": 50,
          "time": 112.20000000000007,
          "velocity": 0.7874015748031497,
          "duration": 0.29999999999999716
        },
        {
          "name": "B2",
          "midi": 47,
          "time": 112.50000000000007,
          "velocity": 0.7874015748031497,
          "duration": 0.29999999999999716
        },
        {
          "name": "E3",
          "midi": 52,
          "time": 112.80000000000007,
          "velocity": 0.7874015748031497,
          "duration": 0.29999999999999716
        },
        {
          "name": "E3",
          "midi": 52,
          "time": 113.40000000000006,
          "velocity": 0.7874015748031497,
          "duration": 0.29999999999999716
        },
        {
          "name": "G3",
          "midi": 55,
          "time": 114.00000000000006,
          "velocity": 0.7874015748031497,
          "duration": 0.29999999999999716
        },
        {
          "name": "A3",
          "midi": 57,
          "time": 114.60000000000005,
          "velocity": 0.7874015748031497,
          "duration": 0.29999999999999716
        },
        {
          "name": "E3",
          "midi": 52,
          "time": 115.20000000000005,
          "velocity": 0.7874015748031497,
          "duration": 0.29999999999999716
        },
        {
          "name": "G2",
          "midi": 43,
          "time": 115.80000000000004,
          "velocity": 0.7874015748031497,
          "duration": 0.29999999999999716
        },
        {
          "name": "C3",
          "midi": 48,
          "time": 116.40000000000003,
          "velocity": 0.7874015748031497,
          "duration": 0.29999999999999716
        },
        {
          "name": "D3",
          "midi": 50,
          "time": 117.00000000000003,
          "velocity": 0.7874015748031497,
          "duration": 0.29999999999999716
        },
        {
          "name": "B2",
          "midi": 47,
          "time": 117.30000000000003,
          "velocity": 0.7874015748031497,
          "duration": 0.29999999999999716
        },
        {
          "name": "E3",
          "midi": 52,
          "time": 117.60000000000002,
          "velocity": 0.7874015748031497,
          "duration": 0.5999999999999943
        },
        {
          "name": "G3",
          "midi": 55,
          "time": 118.20000000000002,
          "velocity": 0.7874015748031497,
          "duration": 0.15000000000000568
        },
        {
          "name": "D3",
          "midi": 50,
          "time": 118.80000000000003,
          "velocity": 0.7874015748031497,
          "duration": 0.15000000000000568
        },
        {
          "name": "E3",
          "midi": 52,
          "time": 119.40000000000003,
          "velocity": 0.7874015748031497,
          "duration": 0.15000000000000568
        },
        {
          "name": "E3",
          "midi": 52,
          "time": 119.99875000000004,
          "velocity": 0.7874015748031497,
          "duration": 0.301249999999996
        },
        {
          "name": "C3",
          "midi": 48,
          "time": 120.60000000000004,
          "velocity": 0.7874015748031497,
          "duration": 0.15000000000000568
        },
        {
          "name": "D3",
          "midi": 50,
          "time": 121.20000000000005,
          "velocity": 0.7874015748031497,
          "duration": 0.15000000000000568
        },
        {
          "name": "G3",
          "midi": 55,
          "time": 121.80000000000005,
          "velocity": 0.7874015748031497,
          "duration": 0.45000000000000284
        },
        {
          "name": "G3",
          "midi": 55,
          "time": 122.40000000000006,
          "velocity": 0.7874015748031497,
          "duration": 0.29999999999999716
        },
        {
          "name": "G3",
          "midi": 55,
          "time": 123.00000000000006,
          "velocity": 0.7874015748031497,
          "duration": 0.15000000000000568
        },
        {
          "name": "D3",
          "midi": 50,
          "time": 123.60000000000007,
          "velocity": 0.7874015748031497,
          "duration": 0.15000000000000568
        },
        {
          "name": "E3",
          "midi": 52,
          "time": 124.20000000000007,
          "velocity": 0.7874015748031497,
          "duration": 0.15000000000000568
        },
        {
          "name": "E3",
          "midi": 52,
          "time": 124.79875000000008,
          "velocity": 0.7874015748031497,
          "duration": 0.301249999999996
        },
        {
          "name": "C3",
          "midi": 48,
          "time": 125.40000000000008,
          "velocity": 0.7874015748031497,
          "duration": 0.15000000000000568
        },
        {
          "name": "B2",
          "midi": 47,
          "time": 126.00000000000009,
          "velocity": 0.7874015748031497,
          "duration": 0.15000000000000568
        },
        {
          "name": "E2",
          "midi": 40,
          "time": 126.6000000000001,
          "velocity": 0.7874015748031497,
          "duration": 0.15000000000000568
        },
        {
          "name": "E2",
          "midi": 40,
          "time": 127.2000000000001,
          "velocity": 0.7874015748031497,
          "duration": 0.5925000000000011
        },
        {
          "name": "G2",
          "midi": 43,
          "time": 127.8000000000001,
          "velocity": 0.7874015748031497,
          "duration": 0.15000000000000568
        },
        {
          "name": "D3",
          "midi": 50,
          "time": 129.0000000000001,
          "velocity": 0.7874015748031497,
          "duration": 0.15000000000000568
        },
        {
          "name": "E3",
          "midi": 52,
          "time": 130.20000000000013,
          "velocity": 0.7874015748031497,
          "duration": 0.15000000000000568
        },
        {
          "name": "B2",
          "midi": 47,
          "time": 131.40000000000015,
          "velocity": 0.7874015748031497,
          "duration": 0.44999999999998863
        },
        {
          "name": "B2",
          "midi": 47,
          "time": 132.00000000000014,
          "velocity": 0.7874015748031497,
          "duration": 0.30000000000001137
        },
        {
          "name": "G3",
          "midi": 55,
          "time": 132.60000000000016,
          "velocity": 0.7874015748031497,
          "duration": 0.15000000000000568
        },
        {
          "name": "D3",
          "midi": 50,
          "time": 133.20000000000016,
          "velocity": 0.7874015748031497,
          "duration": 0.15000000000000568
        },
        {
          "name": "E3",
          "midi": 52,
          "time": 133.80000000000015,
          "velocity": 0.7874015748031497,
          "duration": 0.15000000000000568
        },
        {
          "name": "E3",
          "midi": 52,
          "time": 134.39875000000015,
          "velocity": 0.7874015748031497,
          "duration": 0.30125000000001023
        },
        {
          "name": "C3",
          "midi": 48,
          "time": 135.00000000000017,
          "velocity": 0.7874015748031497,
          "duration": 0.15000000000000568
        },
        {
          "name": "D3",
          "midi": 50,
          "time": 135.60000000000016,
          "velocity": 0.7874015748031497,
          "duration": 0.15000000000000568
        },
        {
          "name": "G3",
          "midi": 55,
          "time": 136.20000000000016,
          "velocity": 0.7874015748031497,
          "duration": 0.44999999999998863
        },
        {
          "name": "G3",
          "midi": 55,
          "time": 136.80000000000015,
          "velocity": 0.7874015748031497,
          "duration": 0.44999999999998863
        },
        {
          "name": "E5",
          "midi": 76,
          "time": 137.40000000000015,
          "velocity": 0.7874015748031497,
          "duration": 0.15000000000000568
        },
        {
          "name": "C5",
          "midi": 72,
          "time": 138.00125000000014,
          "velocity": 0.7874015748031497,
          "duration": 0.15000000000000568
        },
        {
          "name": "D5",
          "midi": 74,
          "time": 138.60000000000014,
          "velocity": 0.7874015748031497,
          "duration": 0.15000000000000568
        },
        {
          "name": "B4",
          "midi": 71,
          "time": 139.20000000000013,
          "velocity": 0.7874015748031497,
          "duration": 0.15000000000000568
        },
        {
          "name": "C5",
          "midi": 72,
          "time": 139.80000000000013,
          "velocity": 0.7874015748031497,
          "duration": 0.15000000000000568
        },
        {
          "name": "A4",
          "midi": 69,
          "time": 140.40000000000012,
          "velocity": 0.7874015748031497,
          "duration": 0.15000000000000568
        },
        {
          "name": "F#4",
          "midi": 66,
          "time": 141.0000000000001,
          "velocity": 0.7874015748031497,
          "duration": 0.22374999999999545
        },
        {
          "name": "D4",
          "midi": 62,
          "time": 141.3000000000001,
          "velocity": 0.7874015748031497,
          "duration": 0.22499999999999432
        },
        {
          "name": "E4",
          "midi": 64,
          "time": 141.60000000000008,
          "velocity": 0.7874015748031497,
          "duration": 0.375
        },
        {
          "name": "E5",
          "midi": 76,
          "time": 142.20000000000007,
          "velocity": 0.7874015748031497,
          "duration": 0.15000000000000568
        },
        {
          "name": "C5",
          "midi": 72,
          "time": 142.80125000000007,
          "velocity": 0.7874015748031497,
          "duration": 0.15000000000000568
        },
        {
          "name": "D5",
          "midi": 74,
          "time": 143.40000000000006,
          "velocity": 0.7874015748031497,
          "duration": 0.15000000000000568
        },
        {
          "name": "B4",
          "midi": 71,
          "time": 144.00000000000006,
          "velocity": 0.7874015748031497,
          "duration": 0.15000000000000568
        },
        {
          "name": "C5",
          "midi": 72,
          "time": 144.60000000000005,
          "velocity": 0.7874015748031497,
          "duration": 0.15000000000000568
        },
        {
          "name": "A4",
          "midi": 69,
          "time": 145.20000000000005,
          "velocity": 0.7874015748031497,
          "duration": 0.15000000000000568
        },
        {
          "name": "F#4",
          "midi": 66,
          "time": 145.80000000000004,
          "velocity": 0.7874015748031497,
          "duration": 0.22374999999999545
        },
        {
          "name": "D4",
          "midi": 62,
          "time": 146.10000000000002,
          "velocity": 0.7874015748031497,
          "duration": 0.22499999999999432
        },
        {
          "name": "E4",
          "midi": 64,
          "time": 146.4,
          "velocity": 0.7874015748031497,
          "duration": 0.44999999999998863
        },
        {
          "name": "E3",
          "midi": 52,
          "time": 147,
          "velocity": 0.7874015748031497,
          "duration": 0.15000000000000568
        },
        {
          "name": "E3",
          "midi": 52,
          "time": 148.8,
          "velocity": 0.7874015748031497,
          "duration": 0.30000000000001137
        },
        {
          "name": "D3",
          "midi": 50,
          "time": 149.10000000000002,
          "velocity": 0.7874015748031497,
          "duration": 0.30000000000001137
        },
        {
          "name": "E3",
          "midi": 52,
          "time": 149.40000000000003,
          "velocity": 0.7874015748031497,
          "duration": 0.15000000000000568
        },
        {
          "name": "C3",
          "midi": 48,
          "time": 151.20000000000005,
          "velocity": 0.7874015748031497,
          "duration": 0.30000000000001137
        },
        {
          "name": "D3",
          "midi": 50,
          "time": 151.50000000000006,
          "velocity": 0.7874015748031497,
          "duration": 0.30000000000001137
        },
        {
          "name": "E3",
          "midi": 52,
          "time": 151.80000000000007,
          "velocity": 0.7874015748031497,
          "duration": 0.15000000000000568
        },
        {
          "name": "E3",
          "midi": 52,
          "time": 153.60000000000008,
          "velocity": 0.7874015748031497,
          "duration": 0.30000000000001137
        },
        {
          "name": "D3",
          "midi": 50,
          "time": 153.9000000000001,
          "velocity": 0.7874015748031497,
          "duration": 0.30000000000001137
        },
        {
          "name": "E3",
          "midi": 52,
          "time": 154.2000000000001,
          "velocity": 0.7874015748031497,
          "duration": 0.15000000000000568
        },
        {
          "name": "C3",
          "midi": 48,
          "time": 156.0000000000001,
          "velocity": 0.7874015748031497,
          "duration": 0.30000000000001137
        },
        {
          "name": "D3",
          "midi": 50,
          "time": 156.30000000000013,
          "velocity": 0.7874015748031497,
          "duration": 0.30000000000001137
        },
        {
          "name": "E3",
          "midi": 52,
          "time": 156.60000000000014,
          "velocity": 0.7874015748031497,
          "duration": 0.15000000000000568
        },
        {
          "name": "E3",
          "midi": 52,
          "time": 158.40000000000015,
          "velocity": 0.7874015748031497,
          "duration": 0.30000000000001137
        },
        {
          "name": "D3",
          "midi": 50,
          "time": 158.70000000000016,
          "velocity": 0.7874015748031497,
          "duration": 0.30000000000001137
        },
        {
          "name": "E3",
          "midi": 52,
          "time": 159.00000000000017,
          "velocity": 0.7874015748031497,
          "duration": 0.15000000000000568
        },
        {
          "name": "C3",
          "midi": 48,
          "time": 160.80000000000018,
          "velocity": 0.7874015748031497,
          "duration": 0.30000000000001137
        },
        {
          "name": "G3",
          "midi": 55,
          "time": 160.80000000000018,
          "velocity": 0.7874015748031497,
          "duration": 0.30000000000001137
        },
        {
          "name": "D3",
          "midi": 50,
          "time": 161.1000000000002,
          "velocity": 0.7874015748031497,
          "duration": 0.30000000000001137
        },
        {
          "name": "A3",
          "midi": 57,
          "time": 161.1000000000002,
          "velocity": 0.7874015748031497,
          "duration": 0.30000000000001137
        },
        {
          "name": "E3",
          "midi": 52,
          "time": 161.4000000000002,
          "velocity": 0.7874015748031497,
          "duration": 0.15000000000000568
        },
        {
          "name": "E3",
          "midi": 52,
          "time": 163.20000000000022,
          "velocity": 0.7874015748031497,
          "duration": 0.30000000000001137
        },
        {
          "name": "D3",
          "midi": 50,
          "time": 163.50000000000023,
          "velocity": 0.7874015748031497,
          "duration": 0.30000000000001137
        },
        {
          "name": "E3",
          "midi": 52,
          "time": 163.80000000000024,
          "velocity": 0.7874015748031497,
          "duration": 0.15000000000000568
        },
        {
          "name": "C3",
          "midi": 48,
          "time": 165.60000000000025,
          "velocity": 0.7874015748031497,
          "duration": 0.30000000000001137
        },
        {
          "name": "D3",
          "midi": 50,
          "time": 165.90000000000026,
          "velocity": 0.7874015748031497,
          "duration": 0.30000000000001137
        },
        {
          "name": "E5",
          "midi": 76,
          "time": 166.20000000000027,
          "velocity": 0.7874015748031497,
          "duration": 0.07499999999998863
        },
        {
          "name": "C#5",
          "midi": 73,
          "time": 166.80000000000027,
          "velocity": 0.7874015748031497,
          "duration": 1.5
        },
        {
          "name": "C#5",
          "midi": 73,
          "time": 168.45000000000027,
          "velocity": 0.7874015748031497,
          "duration": 0.15000000000000568
        },
        {
          "name": "D5",
          "midi": 74,
          "time": 168.60000000000028,
          "velocity": 0.7874015748031497,
          "duration": 0.9000000000000057
        },
        {
          "name": "E5",
          "midi": 76,
          "time": 169.8000000000003,
          "velocity": 0.7874015748031497,
          "duration": 1.1999999999999886
        },
        {
          "name": "F#5",
          "midi": 78,
          "time": 171.00000000000028,
          "velocity": 0.7874015748031497,
          "duration": 0.07499999999998863
        },
        {
          "name": "C#5",
          "midi": 73,
          "time": 171.60000000000028,
          "velocity": 0.7874015748031497,
          "duration": 1.5
        },
        {
          "name": "D5",
          "midi": 74,
          "time": 173.4000000000003,
          "velocity": 0.7874015748031497,
          "duration": 0.9000000000000057
        },
        {
          "name": "E5",
          "midi": 76,
          "time": 174.6000000000003,
          "velocity": 0.7874015748031497,
          "duration": 0.5999999999999943
        },
        {
          "name": "E5",
          "midi": 76,
          "time": 175.8000000000003,
          "velocity": 0.7874015748031497,
          "duration": 0.07499999999998863
        },
        {
          "name": "C#5",
          "midi": 73,
          "time": 176.4000000000003,
          "velocity": 0.7874015748031497,
          "duration": 1.5
        },
        {
          "name": "E4",
          "midi": 64,
          "time": 178.2000000000003,
          "velocity": 0.7874015748031497,
          "duration": 0.15125000000000455
        },
        {
          "name": "G4",
          "midi": 67,
          "time": 178.8000000000003,
          "velocity": 0.7874015748031497,
          "duration": 0.15000000000000568
        },
        {
          "name": "A4",
          "midi": 69,
          "time": 179.4000000000003,
          "velocity": 0.7874015748031497,
          "duration": 0.15000000000000568
        },
        {
          "name": "B4",
          "midi": 71,
          "time": 180.00000000000028,
          "velocity": 0.7874015748031497,
          "duration": 0.15000000000000568
        },
        {
          "name": "D5",
          "midi": 74,
          "time": 180.60000000000028,
          "velocity": 0.7874015748031497,
          "duration": 0.15000000000000568
        },
        {
          "name": "A4",
          "midi": 69,
          "time": 181.20000000000027,
          "velocity": 0.7874015748031497,
          "duration": 0.15000000000000568
        },
        {
          "name": "F#4",
          "midi": 66,
          "time": 181.80000000000027,
          "velocity": 0.7874015748031497,
          "duration": 0.14750000000000796
        },
        {
          "name": "E4",
          "midi": 64,
          "time": 182.40000000000026,
          "velocity": 0.7874015748031497,
          "duration": 0.15000000000000568
        },
        {
          "name": "E4",
          "midi": 64,
          "time": 183.00250000000025,
          "velocity": 0.7874015748031497,
          "duration": 0.15125000000000455
        },
        {
          "name": "G4",
          "midi": 67,
          "time": 183.60250000000025,
          "velocity": 0.7874015748031497,
          "duration": 0.15000000000000568
        },
        {
          "name": "A4",
          "midi": 69,
          "time": 184.20250000000024,
          "velocity": 0.7874015748031497,
          "duration": 0.15000000000000568
        },
        {
          "name": "B4",
          "midi": 71,
          "time": 184.80250000000024,
          "velocity": 0.7874015748031497,
          "duration": 0.15000000000000568
        },
        {
          "name": "D5",
          "midi": 74,
          "time": 185.40250000000023,
          "velocity": 0.7874015748031497,
          "duration": 0.15000000000000568
        },
        {
          "name": "A4",
          "midi": 69,
          "time": 186.00250000000023,
          "velocity": 0.7874015748031497,
          "duration": 0.15000000000000568
        },
        {
          "name": "F#4",
          "midi": 66,
          "time": 186.60250000000022,
          "velocity": 0.7874015748031497,
          "duration": 0.14750000000000796
        },
        {
          "name": "E4",
          "midi": 64,
          "time": 187.2025000000002,
          "velocity": 0.7874015748031497,
          "duration": 0.375
        },
        {
          "name": "E5",
          "midi": 76,
          "time": 187.8000000000002,
          "velocity": 0.7874015748031497,
          "duration": 0.15000000000000568
        },
        {
          "name": "C5",
          "midi": 72,
          "time": 188.4012500000002,
          "velocity": 0.7874015748031497,
          "duration": 0.15000000000000568
        },
        {
          "name": "D5",
          "midi": 74,
          "time": 189.0000000000002,
          "velocity": 0.7874015748031497,
          "duration": 0.15000000000000568
        },
        {
          "name": "B4",
          "midi": 71,
          "time": 189.6000000000002,
          "velocity": 0.7874015748031497,
          "duration": 0.15000000000000568
        },
        {
          "name": "C5",
          "midi": 72,
          "time": 190.2000000000002,
          "velocity": 0.7874015748031497,
          "duration": 0.15000000000000568
        },
        {
          "name": "A4",
          "midi": 69,
          "time": 190.80000000000018,
          "velocity": 0.7874015748031497,
          "duration": 0.15000000000000568
        },
        {
          "name": "F#4",
          "midi": 66,
          "time": 191.40000000000018,
          "velocity": 0.7874015748031497,
          "duration": 0.22374999999999545
        },
        {
          "name": "D4",
          "midi": 62,
          "time": 191.70000000000016,
          "velocity": 0.7874015748031497,
          "duration": 0.22499999999999432
        },
        {
          "name": "E4",
          "midi": 64,
          "time": 192.00000000000014,
          "velocity": 0.7874015748031497,
          "duration": 0.375
        },
        {
          "name": "E5",
          "midi": 76,
          "time": 192.60000000000014,
          "velocity": 0.7874015748031497,
          "duration": 0.15000000000000568
        },
        {
          "name": "C5",
          "midi": 72,
          "time": 193.20125000000013,
          "velocity": 0.7874015748031497,
          "duration": 0.15000000000000568
        },
        {
          "name": "D5",
          "midi": 74,
          "time": 193.80000000000013,
          "velocity": 0.7874015748031497,
          "duration": 0.15000000000000568
        },
        {
          "name": "B4",
          "midi": 71,
          "time": 194.40000000000012,
          "velocity": 0.7874015748031497,
          "duration": 0.15000000000000568
        },
        {
          "name": "C5",
          "midi": 72,
          "time": 195.0000000000001,
          "velocity": 0.7874015748031497,
          "duration": 0.15000000000000568
        },
        {
          "name": "A4",
          "midi": 69,
          "time": 195.6000000000001,
          "velocity": 0.7874015748031497,
          "duration": 0.15000000000000568
        },
        {
          "name": "F#4",
          "midi": 66,
          "time": 196.2000000000001,
          "velocity": 0.7874015748031497,
          "duration": 0.22374999999999545
        },
        {
          "name": "D4",
          "midi": 62,
          "time": 196.50000000000009,
          "velocity": 0.7874015748031497,
          "duration": 0.22499999999999432
        },
        {
          "name": "E4",
          "midi": 64,
          "time": 196.80000000000007,
          "velocity": 0.7874015748031497,
          "duration": 0.44999999999998863
        },
        {
          "name": "G3",
          "midi": 55,
          "time": 197.40000000000006,
          "velocity": 0.7874015748031497,
          "duration": 0.15000000000000568
        },
        {
          "name": "D3",
          "midi": 50,
          "time": 198.00000000000006,
          "velocity": 0.7874015748031497,
          "duration": 0.15000000000000568
        },
        {
          "name": "E3",
          "midi": 52,
          "time": 198.60000000000005,
          "velocity": 0.7874015748031497,
          "duration": 0.15000000000000568
        },
        {
          "name": "E3",
          "midi": 52,
          "time": 199.19875000000005,
          "velocity": 0.7874015748031497,
          "duration": 0.30125000000001023
        },
        {
          "name": "C3",
          "midi": 48,
          "time": 199.80000000000007,
          "velocity": 0.7874015748031497,
          "duration": 0.15000000000000568
        },
        {
          "name": "D3",
          "midi": 50,
          "time": 200.40000000000006,
          "velocity": 0.7874015748031497,
          "duration": 0.15000000000000568
        },
        {
          "name": "G3",
          "midi": 55,
          "time": 201.00000000000006,
          "velocity": 0.7874015748031497,
          "duration": 0.44999999999998863
        },
        {
          "name": "G3",
          "midi": 55,
          "time": 201.60000000000005,
          "velocity": 0.7874015748031497,
          "duration": 0.30000000000001137
        },
        {
          "name": "G3",
          "midi": 55,
          "time": 202.20000000000007,
          "velocity": 0.7874015748031497,
          "duration": 0.15000000000000568
        },
        {
          "name": "D3",
          "midi": 50,
          "time": 202.80000000000007,
          "velocity": 0.7874015748031497,
          "duration": 0.15000000000000568
        },
        {
          "name": "E3",
          "midi": 52,
          "time": 203.40000000000006,
          "velocity": 0.7874015748031497,
          "duration": 0.15000000000000568
        },
        {
          "name": "E3",
          "midi": 52,
          "time": 203.99875000000006,
          "velocity": 0.7874015748031497,
          "duration": 0.30125000000001023
        },
        {
          "name": "C3",
          "midi": 48,
          "time": 204.60000000000008,
          "velocity": 0.7874015748031497,
          "duration": 0.15000000000000568
        },
        {
          "name": "B2",
          "midi": 47,
          "time": 205.20000000000007,
          "velocity": 0.7874015748031497,
          "duration": 0.15000000000000568
        },
        {
          "name": "E2",
          "midi": 40,
          "time": 205.80000000000007,
          "velocity": 0.7874015748031497,
          "duration": 0.15000000000000568
        },
        {
          "name": "E2",
          "midi": 40,
          "time": 206.40000000000006,
          "velocity": 0.7874015748031497,
          "duration": 0.5925000000000011
        },
        {
          "name": "G2",
          "midi": 43,
          "time": 207.00000000000006,
          "velocity": 0.7874015748031497,
          "duration": 0.15000000000000568
        },
        {
          "name": "D3",
          "midi": 50,
          "time": 208.20000000000007,
          "velocity": 0.7874015748031497,
          "duration": 0.15000000000000568
        },
        {
          "name": "E3",
          "midi": 52,
          "time": 209.4000000000001,
          "velocity": 0.7874015748031497,
          "duration": 0.15000000000000568
        },
        {
          "name": "B2",
          "midi": 47,
          "time": 210.6000000000001,
          "velocity": 0.7874015748031497,
          "duration": 0.44999999999998863
        },
        {
          "name": "B2",
          "midi": 47,
          "time": 211.2000000000001,
          "velocity": 0.7874015748031497,
          "duration": 0.30000000000001137
        },
        {
          "name": "G3",
          "midi": 55,
          "time": 211.80000000000013,
          "velocity": 0.7874015748031497,
          "duration": 0.15000000000000568
        },
        {
          "name": "D3",
          "midi": 50,
          "time": 212.40000000000012,
          "velocity": 0.7874015748031497,
          "duration": 0.15000000000000568
        },
        {
          "name": "E3",
          "midi": 52,
          "time": 213.0000000000001,
          "velocity": 0.7874015748031497,
          "duration": 0.15000000000000568
        },
        {
          "name": "E3",
          "midi": 52,
          "time": 213.5987500000001,
          "velocity": 0.7874015748031497,
          "duration": 0.30125000000001023
        },
        {
          "name": "C3",
          "midi": 48,
          "time": 214.20000000000013,
          "velocity": 0.7874015748031497,
          "duration": 0.15000000000000568
        },
        {
          "name": "D3",
          "midi": 50,
          "time": 214.80000000000013,
          "velocity": 0.7874015748031497,
          "duration": 0.15000000000000568
        },
        {
          "name": "G3",
          "midi": 55,
          "time": 215.40000000000012,
          "velocity": 0.7874015748031497,
          "duration": 0.44999999999998863
        },
        {
          "name": "G3",
          "midi": 55,
          "time": 216.0000000000001,
          "velocity": 0.7874015748031497,
          "duration": 0.44999999999998863
        },
        {
          "name": "A#2",
          "midi": 46,
          "time": 216.6000000000001,
          "velocity": 0.7874015748031497,
          "duration": 0.15000000000000568
        },
        {
          "name": "F3",
          "midi": 53,
          "time": 216.6000000000001,
          "velocity": 0.7874015748031497,
          "duration": 0.15000000000000568
        },
        {
          "name": "F2",
          "midi": 41,
          "time": 217.2000000000001,
          "velocity": 0.7874015748031497,
          "duration": 0.15000000000000568
        },
        {
          "name": "G2",
          "midi": 43,
          "time": 217.8000000000001,
          "velocity": 0.7874015748031497,
          "duration": 0.15000000000000568
        },
        {
          "name": "G2",
          "midi": 43,
          "time": 218.3987500000001,
          "velocity": 0.7874015748031497,
          "duration": 0.30125000000001023
        },
        {
          "name": "D#2",
          "midi": 39,
          "time": 219.0000000000001,
          "velocity": 0.7874015748031497,
          "duration": 0.15000000000000568
        },
        {
          "name": "F2",
          "midi": 41,
          "time": 219.6000000000001,
          "velocity": 0.7874015748031497,
          "duration": 0.15000000000000568
        },
        {
          "name": "A#2",
          "midi": 46,
          "time": 220.2000000000001,
          "velocity": 0.7874015748031497,
          "duration": 0.44999999999998863
        },
        {
          "name": "A#2",
          "midi": 46,
          "time": 220.8000000000001,
          "velocity": 0.7874015748031497,
          "duration": 0.30000000000001137
        },
        {
          "name": "A#2",
          "midi": 46,
          "time": 221.40000000000012,
          "velocity": 0.7874015748031497,
          "duration": 0.15000000000000568
        },
        {
          "name": "F2",
          "midi": 41,
          "time": 222.0000000000001,
          "velocity": 0.7874015748031497,
          "duration": 0.15000000000000568
        },
        {
          "name": "G2",
          "midi": 43,
          "time": 222.6000000000001,
          "velocity": 0.7874015748031497,
          "duration": 0.15000000000000568
        },
        {
          "name": "G2",
          "midi": 43,
          "time": 223.1987500000001,
          "velocity": 0.7874015748031497,
          "duration": 0.30125000000001023
        },
        {
          "name": "D#2",
          "midi": 39,
          "time": 223.80000000000013,
          "velocity": 0.7874015748031497,
          "duration": 0.15000000000000568
        },
        {
          "name": "D2",
          "midi": 38,
          "time": 224.40000000000012,
          "velocity": 0.7874015748031497,
          "duration": 0.15000000000000568
        },
        {
          "name": "G1",
          "midi": 31,
          "time": 225.0000000000001,
          "velocity": 0.7874015748031497,
          "duration": 0.15000000000000568
        },
        {
          "name": "G1",
          "midi": 31,
          "time": 225.6000000000001,
          "velocity": 0.7874015748031497,
          "duration": 0.5925000000000011
        },
        {
          "name": "A#1",
          "midi": 34,
          "time": 226.2000000000001,
          "velocity": 0.7874015748031497,
          "duration": 0.15000000000000568
        },
        {
          "name": "F2",
          "midi": 41,
          "time": 227.40000000000012,
          "velocity": 0.7874015748031497,
          "duration": 0.15000000000000568
        },
        {
          "name": "G2",
          "midi": 43,
          "time": 228.60000000000014,
          "velocity": 0.7874015748031497,
          "duration": 0.15000000000000568
        },
        {
          "name": "D2",
          "midi": 38,
          "time": 229.80000000000015,
          "velocity": 0.7874015748031497,
          "duration": 0.44999999999998863
        },
        {
          "name": "D2",
          "midi": 38,
          "time": 230.40000000000015,
          "velocity": 0.7874015748031497,
          "duration": 0.30000000000001137
        },
        {
          "name": "A#2",
          "midi": 46,
          "time": 231.00000000000017,
          "velocity": 0.7874015748031497,
          "duration": 0.15000000000000568
        },
        {
          "name": "F2",
          "midi": 41,
          "time": 231.60000000000016,
          "velocity": 0.7874015748031497,
          "duration": 0.15000000000000568
        },
        {
          "name": "G2",
          "midi": 43,
          "time": 232.20000000000016,
          "velocity": 0.7874015748031497,
          "duration": 0.15000000000000568
        },
        {
          "name": "G2",
          "midi": 43,
          "time": 232.79875000000015,
          "velocity": 0.7874015748031497,
          "duration": 0.30125000000001023
        },
        {
          "name": "D#2",
          "midi": 39,
          "time": 233.40000000000018,
          "velocity": 0.7874015748031497,
          "duration": 0.15000000000000568
        },
        {
          "name": "F2",
          "midi": 41,
          "time": 234.00000000000017,
          "velocity": 0.7874015748031497,
          "duration": 0.15000000000000568
        },
        {
          "name": "A#2",
          "midi": 46,
          "time": 234.60000000000016,
          "velocity": 0.7874015748031497,
          "duration": 0.44999999999998863
        },
        {
          "name": "A#2",
          "midi": 46,
          "time": 235.20000000000016,
          "velocity": 0.7874015748031497,
          "duration": 0.44999999999998863
        },
        {
          "name": "G5",
          "midi": 79,
          "time": 235.80000000000015,
          "velocity": 0.7874015748031497,
          "duration": 0.15000000000000568
        },
        {
          "name": "D#5",
          "midi": 75,
          "time": 236.40125000000015,
          "velocity": 0.7874015748031497,
          "duration": 0.15000000000000568
        },
        {
          "name": "F5",
          "midi": 77,
          "time": 237.00000000000014,
          "velocity": 0.7874015748031497,
          "duration": 0.15000000000000568
        },
        {
          "name": "D5",
          "midi": 74,
          "time": 237.60000000000014,
          "velocity": 0.7874015748031497,
          "duration": 0.15000000000000568
        },
        {
          "name": "D#5",
          "midi": 75,
          "time": 238.20000000000013,
          "velocity": 0.7874015748031497,
          "duration": 0.15000000000000568
        },
        {
          "name": "C5",
          "midi": 72,
          "time": 238.80000000000013,
          "velocity": 0.7874015748031497,
          "duration": 0.15000000000000568
        },
        {
          "name": "A4",
          "midi": 69,
          "time": 239.40000000000012,
          "velocity": 0.7874015748031497,
          "duration": 0.22374999999999545
        },
        {
          "name": "F4",
          "midi": 65,
          "time": 239.7000000000001,
          "velocity": 0.7874015748031497,
          "duration": 0.22499999999999432
        },
        {
          "name": "G4",
          "midi": 67,
          "time": 240.00000000000009,
          "velocity": 0.7874015748031497,
          "duration": 0.5999999999999943
        }
      ],
      "controlChanges": {},
      "id": 1,
      "name": "Midi Beginner Dentalist",
      "channelNumber": 0,
      "isPercussion": false
    }
  ]
}