{
  "header": {
    "PPQ": 480,
    "timeSignature": [
      4,
      4
    ],
    "bpm": 100,
    "name": "Dentalist Beginner Midi Git"
  },
  "tempo": [
    {
      "absoluteTime": 0,
      "seconds": 0,
      "bpm": 100
    },
    {
      "absoluteTime": 36960,
      "seconds": 46.199999999999996,
      "bpm": 100
    },
    {
      "absoluteTime": 65280,
      "seconds": 81.6,
      "bpm": 100
    },
    {
      "absoluteTime": 124800,
      "seconds": 156,
      "bpm": 100
    },
    {
      "absoluteTime": 153600,
      "seconds": 192,
      "bpm": 100
    },
    {
      "absoluteTime": 157440,
      "seconds": 196.8,
      "bpm": 100
    },
    {
      "absoluteTime": 176640,
      "seconds": 220.8,
      "bpm": 100
    }
  ],
  "timeSignature": [
    {
      "absoluteTime": 0,
      "seconds": 0,
      "numerator": 4,
      "denominator": 2,
      "click": 24,
      "notesQ": 8
    },
    {
      "absoluteTime": 65280,
      "seconds": 81.6,
      "numerator": 4,
      "denominator": 2,
      "click": 24,
      "notesQ": 8
    },
    {
      "absoluteTime": 124800,
      "seconds": 156,
      "numerator": 4,
      "denominator": 2,
      "click": 24,
      "notesQ": 8
    },
    {
      "absoluteTime": 153600,
      "seconds": 192,
      "numerator": 4,
      "denominator": 2,
      "click": 24,
      "notesQ": 8
    },
    {
      "absoluteTime": 157440,
      "seconds": 196.8,
      "numerator": 4,
      "denominator": 2,
      "click": 24,
      "notesQ": 8
    },
    {
      "absoluteTime": 176640,
      "seconds": 220.8,
      "numerator": 4,
      "denominator": 2,
      "click": 24,
      "notesQ": 8
    }
  ],
  "startTime": 0,
  "duration": 240.60000000000088,
  "tracks": [
    {
      "startTime": 0,
      "duration": 0,
      "length": 0,
      "notes": [],
      "controlChanges": {},
      "id": 0,
      "name": "Dentalist Beginner Midi Git"
    },
    {
      "startTime": 3,
      "duration": 240.60000000000088,
      "length": 663,
      "notes": [
        {
          "name": "G3",
          "midi": 55,
          "time": 3,
          "velocity": 0.7874015748031497,
          "duration": 0.1499999999999999
        },
        {
          "name": "G4",
          "midi": 67,
          "time": 3.5999999999999996,
          "velocity": 0.7874015748031497,
          "duration": 0.1499999999999999
        },
        {
          "name": "G4",
          "midi": 67,
          "time": 4.199999999999999,
          "velocity": 0.7874015748031497,
          "duration": 0.15000000000000036
        },
        {
          "name": "F#4",
          "midi": 66,
          "time": 4.8,
          "velocity": 0.7874015748031497,
          "duration": 0.5999999999999996
        },
        {
          "name": "G3",
          "midi": 55,
          "time": 5.3999999999999995,
          "velocity": 0.7874015748031497,
          "duration": 0.15000000000000036
        },
        {
          "name": "G4",
          "midi": 67,
          "time": 6,
          "velocity": 0.7874015748031497,
          "duration": 0.15000000000000036
        },
        {
          "name": "G4",
          "midi": 67,
          "time": 6.6000000000000005,
          "velocity": 0.7874015748031497,
          "duration": 0.15000000000000036
        },
        {
          "name": "B4",
          "midi": 71,
          "time": 7.200000000000001,
          "velocity": 0.7874015748031497,
          "duration": 0.15000000000000036
        },
        {
          "name": "A4",
          "midi": 69,
          "time": 7.5012500000000015,
          "velocity": 0.7874015748031497,
          "duration": 0.15000000000000036
        },
        {
          "name": "G3",
          "midi": 55,
          "time": 7.800000000000002,
          "velocity": 0.7874015748031497,
          "duration": 0.15000000000000036
        },
        {
          "name": "G4",
          "midi": 67,
          "time": 8.400000000000002,
          "velocity": 0.7874015748031497,
          "duration": 0.15000000000000036
        },
        {
          "name": "G4",
          "midi": 67,
          "time": 9.000000000000002,
          "velocity": 0.7874015748031497,
          "duration": 0.15000000000000036
        },
        {
          "name": "F#4",
          "midi": 66,
          "time": 9.600000000000001,
          "velocity": 0.7874015748031497,
          "duration": 0.5999999999999996
        },
        {
          "name": "G3",
          "midi": 55,
          "time": 10.200000000000001,
          "velocity": 0.7874015748031497,
          "duration": 0.15000000000000036
        },
        {
          "name": "G4",
          "midi": 67,
          "time": 10.8,
          "velocity": 0.7874015748031497,
          "duration": 0.15000000000000036
        },
        {
          "name": "G3",
          "midi": 55,
          "time": 11.4,
          "velocity": 0.7874015748031497,
          "duration": 0.15000000000000036
        },
        {
          "name": "B3",
          "midi": 59,
          "time": 11.700000000000001,
          "velocity": 0.7874015748031497,
          "duration": 0.15000000000000036
        },
        {
          "name": "D4",
          "midi": 62,
          "time": 12.000000000000002,
          "velocity": 0.7874015748031497,
          "duration": 0.15000000000000036
        },
        {
          "name": "F#4",
          "midi": 66,
          "time": 12.300000000000002,
          "velocity": 0.7874015748031497,
          "duration": 0.15000000000000036
        },
        {
          "name": "G3",
          "midi": 55,
          "time": 12.600000000000003,
          "velocity": 0.7874015748031497,
          "duration": 0.15000000000000036
        },
        {
          "name": "G4",
          "midi": 67,
          "time": 13.200000000000003,
          "velocity": 0.7874015748031497,
          "duration": 0.15000000000000036
        },
        {
          "name": "G4",
          "midi": 67,
          "time": 13.800000000000002,
          "velocity": 0.7874015748031497,
          "duration": 0.15000000000000036
        },
        {
          "name": "F#4",
          "midi": 66,
          "time": 14.400000000000002,
          "velocity": 0.7874015748031497,
          "duration": 0.5999999999999996
        },
        {
          "name": "G3",
          "midi": 55,
          "time": 15.000000000000002,
          "velocity": 0.7874015748031497,
          "duration": 0.15000000000000036
        },
        {
          "name": "G4",
          "midi": 67,
          "time": 15.600000000000001,
          "velocity": 0.7874015748031497,
          "duration": 0.15000000000000036
        },
        {
          "name": "G4",
          "midi": 67,
          "time": 16.200000000000003,
          "velocity": 0.7874015748031497,
          "duration": 0.14999999999999858
        },
        {
          "name": "B4",
          "midi": 71,
          "time": 16.8,
          "velocity": 0.7874015748031497,
          "duration": 0.14999999999999858
        },
        {
          "name": "A4",
          "midi": 69,
          "time": 17.10125,
          "velocity": 0.7874015748031497,
          "duration": 0.14999999999999858
        },
        {
          "name": "G3",
          "midi": 55,
          "time": 17.4,
          "velocity": 0.7874015748031497,
          "duration": 0.14999999999999858
        },
        {
          "name": "G4",
          "midi": 67,
          "time": 17.999999999999996,
          "velocity": 0.7874015748031497,
          "duration": 0.14999999999999858
        },
        {
          "name": "G4",
          "midi": 67,
          "time": 18.599999999999994,
          "velocity": 0.7874015748031497,
          "duration": 0.14999999999999858
        },
        {
          "name": "F#4",
          "midi": 66,
          "time": 19.199999999999992,
          "velocity": 0.7874015748031497,
          "duration": 0.6000000000000014
        },
        {
          "name": "G3",
          "midi": 55,
          "time": 19.799999999999994,
          "velocity": 0.7874015748031497,
          "duration": 0.14999999999999858
        },
        {
          "name": "G4",
          "midi": 67,
          "time": 20.39999999999999,
          "velocity": 0.7874015748031497,
          "duration": 0.14999999999999858
        },
        {
          "name": "G3",
          "midi": 55,
          "time": 20.99999999999999,
          "velocity": 0.7874015748031497,
          "duration": 0.14999999999999858
        },
        {
          "name": "B3",
          "midi": 59,
          "time": 21.299999999999986,
          "velocity": 0.7874015748031497,
          "duration": 0.14999999999999858
        },
        {
          "name": "D4",
          "midi": 62,
          "time": 21.599999999999984,
          "velocity": 0.7874015748031497,
          "duration": 0.14999999999999858
        },
        {
          "name": "F#4",
          "midi": 66,
          "time": 21.89999999999998,
          "velocity": 0.7874015748031497,
          "duration": 0.14999999999999858
        },
        {
          "name": "G3",
          "midi": 55,
          "time": 22.199999999999978,
          "velocity": 0.7874015748031497,
          "duration": 0.14999999999999858
        },
        {
          "name": "E3",
          "midi": 52,
          "time": 22.799999999999976,
          "velocity": 0.7874015748031497,
          "duration": 0.3000000000000007
        },
        {
          "name": "B3",
          "midi": 59,
          "time": 22.799999999999976,
          "velocity": 0.7874015748031497,
          "duration": 0.3000000000000007
        },
        {
          "name": "G3",
          "midi": 55,
          "time": 23.399999999999977,
          "velocity": 0.7874015748031497,
          "duration": 0.14999999999999858
        },
        {
          "name": "E3",
          "midi": 52,
          "time": 23.999999999999975,
          "velocity": 0.7874015748031497,
          "duration": 0.3000000000000007
        },
        {
          "name": "B3",
          "midi": 59,
          "time": 23.999999999999975,
          "velocity": 0.7874015748031497,
          "duration": 0.3000000000000007
        },
        {
          "name": "G3",
          "midi": 55,
          "time": 24.599999999999977,
          "velocity": 0.7874015748031497,
          "duration": 0.14999999999999858
        },
        {
          "name": "F#3",
          "midi": 54,
          "time": 25.049999999999976,
          "velocity": 0.7874015748031497,
          "duration": 0.14999999999999858
        },
        {
          "name": "G3",
          "midi": 55,
          "time": 25.499999999999975,
          "velocity": 0.7874015748031497,
          "duration": 0.14999999999999858
        },
        {
          "name": "A3",
          "midi": 57,
          "time": 25.799999999999972,
          "velocity": 0.7874015748031497,
          "duration": 0.14999999999999858
        },
        {
          "name": "G3",
          "midi": 55,
          "time": 26.24999999999997,
          "velocity": 0.7874015748031497,
          "duration": 0.14999999999999858
        },
        {
          "name": "F#3",
          "midi": 54,
          "time": 26.69999999999997,
          "velocity": 0.7874015748031497,
          "duration": 0.14999999999999858
        },
        {
          "name": "G3",
          "midi": 55,
          "time": 26.999999999999968,
          "velocity": 0.7874015748031497,
          "duration": 0.14999999999999858
        },
        {
          "name": "E3",
          "midi": 52,
          "time": 27.599999999999966,
          "velocity": 0.7874015748031497,
          "duration": 0.3000000000000007
        },
        {
          "name": "B3",
          "midi": 59,
          "time": 27.599999999999966,
          "velocity": 0.7874015748031497,
          "duration": 0.3000000000000007
        },
        {
          "name": "G3",
          "midi": 55,
          "time": 28.199999999999967,
          "velocity": 0.7874015748031497,
          "duration": 0.14999999999999858
        },
        {
          "name": "E3",
          "midi": 52,
          "time": 28.799999999999965,
          "velocity": 0.7874015748031497,
          "duration": 0.3000000000000007
        },
        {
          "name": "B3",
          "midi": 59,
          "time": 28.799999999999965,
          "velocity": 0.7874015748031497,
          "duration": 0.3000000000000007
        },
        {
          "name": "G3",
          "midi": 55,
          "time": 29.399999999999967,
          "velocity": 0.7874015748031497,
          "duration": 0.14999999999999858
        },
        {
          "name": "F#3",
          "midi": 54,
          "time": 29.849999999999966,
          "velocity": 0.7874015748031497,
          "duration": 0.14999999999999858
        },
        {
          "name": "G3",
          "midi": 55,
          "time": 30.299999999999965,
          "velocity": 0.7874015748031497,
          "duration": 0.14999999999999858
        },
        {
          "name": "D3",
          "midi": 50,
          "time": 30.599999999999962,
          "velocity": 0.7874015748031497,
          "duration": 0.14999999999999858
        },
        {
          "name": "A3",
          "midi": 57,
          "time": 31.04999999999996,
          "velocity": 0.7874015748031497,
          "duration": 0.14999999999999858
        },
        {
          "name": "G3",
          "midi": 55,
          "time": 31.49999999999996,
          "velocity": 0.7874015748031497,
          "duration": 0.14999999999999858
        },
        {
          "name": "G3",
          "midi": 55,
          "time": 31.799999999999958,
          "velocity": 0.7874015748031497,
          "duration": 0.14999999999999858
        },
        {
          "name": "E3",
          "midi": 52,
          "time": 32.399999999999956,
          "velocity": 0.7874015748031497,
          "duration": 0.29999999999999716
        },
        {
          "name": "B3",
          "midi": 59,
          "time": 32.399999999999956,
          "velocity": 0.7874015748031497,
          "duration": 0.29999999999999716
        },
        {
          "name": "G3",
          "midi": 55,
          "time": 32.99999999999995,
          "velocity": 0.7874015748031497,
          "duration": 0.14999999999999858
        },
        {
          "name": "E3",
          "midi": 52,
          "time": 33.59999999999995,
          "velocity": 0.7874015748031497,
          "duration": 0.29999999999999716
        },
        {
          "name": "B3",
          "midi": 59,
          "time": 33.59999999999995,
          "velocity": 0.7874015748031497,
          "duration": 0.29999999999999716
        },
        {
          "name": "G3",
          "midi": 55,
          "time": 34.199999999999946,
          "velocity": 0.7874015748031497,
          "duration": 0.14999999999999858
        },
        {
          "name": "F#3",
          "midi": 54,
          "time": 34.64999999999994,
          "velocity": 0.7874015748031497,
          "duration": 0.14999999999999858
        },
        {
          "name": "G3",
          "midi": 55,
          "time": 35.09999999999994,
          "velocity": 0.7874015748031497,
          "duration": 0.14999999999999858
        },
        {
          "name": "A3",
          "midi": 57,
          "time": 35.399999999999935,
          "velocity": 0.7874015748031497,
          "duration": 0.14999999999999858
        },
        {
          "name": "G3",
          "midi": 55,
          "time": 35.84999999999993,
          "velocity": 0.7874015748031497,
          "duration": 0.14999999999999858
        },
        {
          "name": "F#3",
          "midi": 54,
          "time": 36.299999999999926,
          "velocity": 0.7874015748031497,
          "duration": 0.14999999999999858
        },
        {
          "name": "G3",
          "midi": 55,
          "time": 36.59999999999992,
          "velocity": 0.7874015748031497,
          "duration": 0.14999999999999858
        },
        {
          "name": "E3",
          "midi": 52,
          "time": 37.199999999999925,
          "velocity": 0.7874015748031497,
          "duration": 0.29999999999999716
        },
        {
          "name": "B3",
          "midi": 59,
          "time": 37.199999999999925,
          "velocity": 0.7874015748031497,
          "duration": 0.29999999999999716
        },
        {
          "name": "G3",
          "midi": 55,
          "time": 37.79999999999992,
          "velocity": 0.7874015748031497,
          "duration": 0.14999999999999858
        },
        {
          "name": "E3",
          "midi": 52,
          "time": 38.39999999999992,
          "velocity": 0.7874015748031497,
          "duration": 0.29999999999999716
        },
        {
          "name": "B3",
          "midi": 59,
          "time": 38.39999999999992,
          "velocity": 0.7874015748031497,
          "duration": 0.29999999999999716
        },
        {
          "name": "G3",
          "midi": 55,
          "time": 38.999999999999915,
          "velocity": 0.7874015748031497,
          "duration": 0.14999999999999858
        },
        {
          "name": "F#3",
          "midi": 54,
          "time": 39.44999999999991,
          "velocity": 0.7874015748031497,
          "duration": 0.14999999999999858
        },
        {
          "name": "G3",
          "midi": 55,
          "time": 39.899999999999906,
          "velocity": 0.7874015748031497,
          "duration": 0.14999999999999858
        },
        {
          "name": "D3",
          "midi": 50,
          "time": 40.1999999999999,
          "velocity": 0.7874015748031497,
          "duration": 0.14999999999999858
        },
        {
          "name": "A3",
          "midi": 57,
          "time": 40.6499999999999,
          "velocity": 0.7874015748031497,
          "duration": 0.14999999999999858
        },
        {
          "name": "G3",
          "midi": 55,
          "time": 41.099999999999895,
          "velocity": 0.7874015748031497,
          "duration": 0.14999999999999858
        },
        {
          "name": "A3",
          "midi": 57,
          "time": 41.39999999999989,
          "velocity": 0.7874015748031497,
          "duration": 0.14999999999999858
        },
        {
          "name": "F#3",
          "midi": 54,
          "time": 41.99999999999989,
          "velocity": 0.7874015748031497,
          "duration": 0.29999999999999716
        },
        {
          "name": "C#4",
          "midi": 61,
          "time": 41.99999999999989,
          "velocity": 0.7874015748031497,
          "duration": 0.29999999999999716
        },
        {
          "name": "A3",
          "midi": 57,
          "time": 42.59999999999989,
          "velocity": 0.7874015748031497,
          "duration": 0.14999999999999858
        },
        {
          "name": "F#3",
          "midi": 54,
          "time": 43.19999999999989,
          "velocity": 0.7874015748031497,
          "duration": 0.29999999999999716
        },
        {
          "name": "C#4",
          "midi": 61,
          "time": 43.19999999999989,
          "velocity": 0.7874015748031497,
          "duration": 0.29999999999999716
        },
        {
          "name": "A3",
          "midi": 57,
          "time": 43.79999999999988,
          "velocity": 0.7874015748031497,
          "duration": 0.14999999999999858
        },
        {
          "name": "G#3",
          "midi": 56,
          "time": 44.24999999999988,
          "velocity": 0.7874015748031497,
          "duration": 0.14999999999999858
        },
        {
          "name": "A3",
          "midi": 57,
          "time": 44.699999999999875,
          "velocity": 0.7874015748031497,
          "duration": 0.14999999999999858
        },
        {
          "name": "B3",
          "midi": 59,
          "time": 44.99999999999987,
          "velocity": 0.7874015748031497,
          "duration": 0.14999999999999858
        },
        {
          "name": "A3",
          "midi": 57,
          "time": 45.44999999999987,
          "velocity": 0.7874015748031497,
          "duration": 0.14999999999999858
        },
        {
          "name": "G#3",
          "midi": 56,
          "time": 45.899999999999864,
          "velocity": 0.7874015748031497,
          "duration": 0.14999999999999858
        },
        {
          "name": "A3",
          "midi": 57,
          "time": 46.19999999999986,
          "velocity": 0.7874015748031497,
          "duration": 0.14999999999999858
        },
        {
          "name": "F#3",
          "midi": 54,
          "time": 46.79999999999986,
          "velocity": 0.7874015748031497,
          "duration": 0.29999999999999716
        },
        {
          "name": "C#4",
          "midi": 61,
          "time": 46.79999999999986,
          "velocity": 0.7874015748031497,
          "duration": 0.29999999999999716
        },
        {
          "name": "A3",
          "midi": 57,
          "time": 47.39999999999986,
          "velocity": 0.7874015748031497,
          "duration": 0.14999999999999858
        },
        {
          "name": "F#3",
          "midi": 54,
          "time": 47.99999999999986,
          "velocity": 0.7874015748031497,
          "duration": 0.29999999999999716
        },
        {
          "name": "C#4",
          "midi": 61,
          "time": 47.99999999999986,
          "velocity": 0.7874015748031497,
          "duration": 0.29999999999999716
        },
        {
          "name": "A3",
          "midi": 57,
          "time": 48.59999999999985,
          "velocity": 0.7874015748031497,
          "duration": 0.14999999999999858
        },
        {
          "name": "G#3",
          "midi": 56,
          "time": 49.04999999999985,
          "velocity": 0.7874015748031497,
          "duration": 0.14999999999999858
        },
        {
          "name": "A3",
          "midi": 57,
          "time": 49.499999999999844,
          "velocity": 0.7874015748031497,
          "duration": 0.14999999999999858
        },
        {
          "name": "E3",
          "midi": 52,
          "time": 49.79999999999984,
          "velocity": 0.7874015748031497,
          "duration": 0.14999999999999858
        },
        {
          "name": "B3",
          "midi": 59,
          "time": 50.24999999999984,
          "velocity": 0.7874015748031497,
          "duration": 0.14999999999999858
        },
        {
          "name": "A3",
          "midi": 57,
          "time": 50.69999999999983,
          "velocity": 0.7874015748031497,
          "duration": 0.14999999999999858
        },
        {
          "name": "E3",
          "midi": 52,
          "time": 50.99999999999983,
          "velocity": 0.7874015748031497,
          "duration": 0.29999999999999716
        },
        {
          "name": "B3",
          "midi": 59,
          "time": 50.99999999999983,
          "velocity": 0.7874015748031497,
          "duration": 0.29999999999999716
        },
        {
          "name": "G3",
          "midi": 55,
          "time": 51.599999999999824,
          "velocity": 0.7874015748031497,
          "duration": 0.29999999999999716
        },
        {
          "name": "D4",
          "midi": 62,
          "time": 51.599999999999824,
          "velocity": 0.7874015748031497,
          "duration": 0.29999999999999716
        },
        {
          "name": "A3",
          "midi": 57,
          "time": 52.19999999999982,
          "velocity": 0.7874015748031497,
          "duration": 0.29999999999999716
        },
        {
          "name": "E4",
          "midi": 64,
          "time": 52.19999999999982,
          "velocity": 0.7874015748031497,
          "duration": 0.29999999999999716
        },
        {
          "name": "E3",
          "midi": 52,
          "time": 52.79999999999981,
          "velocity": 0.7874015748031497,
          "duration": 0.29999999999999716
        },
        {
          "name": "B3",
          "midi": 59,
          "time": 52.79999999999981,
          "velocity": 0.7874015748031497,
          "duration": 0.29999999999999716
        },
        {
          "name": "G2",
          "midi": 43,
          "time": 53.39999999999981,
          "velocity": 0.7874015748031497,
          "duration": 0.29999999999999716
        },
        {
          "name": "D3",
          "midi": 50,
          "time": 53.39999999999981,
          "velocity": 0.7874015748031497,
          "duration": 0.29999999999999716
        },
        {
          "name": "C3",
          "midi": 48,
          "time": 53.9999999999998,
          "velocity": 0.7874015748031497,
          "duration": 0.29999999999999716
        },
        {
          "name": "G3",
          "midi": 55,
          "time": 53.9999999999998,
          "velocity": 0.7874015748031497,
          "duration": 0.29999999999999716
        },
        {
          "name": "D3",
          "midi": 50,
          "time": 54.599999999999795,
          "velocity": 0.7874015748031497,
          "duration": 0.29999999999999716
        },
        {
          "name": "A3",
          "midi": 57,
          "time": 54.599999999999795,
          "velocity": 0.7874015748031497,
          "duration": 0.29999999999999716
        },
        {
          "name": "B2",
          "midi": 47,
          "time": 54.89999999999979,
          "velocity": 0.7874015748031497,
          "duration": 0.29999999999999716
        },
        {
          "name": "F#3",
          "midi": 54,
          "time": 54.89999999999979,
          "velocity": 0.7874015748031497,
          "duration": 0.29999999999999716
        },
        {
          "name": "E3",
          "midi": 52,
          "time": 55.19999999999979,
          "velocity": 0.7874015748031497,
          "duration": 0.29999999999999716
        },
        {
          "name": "B3",
          "midi": 59,
          "time": 55.19999999999979,
          "velocity": 0.7874015748031497,
          "duration": 0.29999999999999716
        },
        {
          "name": "E3",
          "midi": 52,
          "time": 55.799999999999784,
          "velocity": 0.7874015748031497,
          "duration": 0.29999999999999716
        },
        {
          "name": "B3",
          "midi": 59,
          "time": 55.799999999999784,
          "velocity": 0.7874015748031497,
          "duration": 0.29999999999999716
        },
        {
          "name": "G3",
          "midi": 55,
          "time": 56.39999999999978,
          "velocity": 0.7874015748031497,
          "duration": 0.29999999999999716
        },
        {
          "name": "D4",
          "midi": 62,
          "time": 56.39999999999978,
          "velocity": 0.7874015748031497,
          "duration": 0.29999999999999716
        },
        {
          "name": "A3",
          "midi": 57,
          "time": 56.99999999999977,
          "velocity": 0.7874015748031497,
          "duration": 0.29999999999999716
        },
        {
          "name": "E4",
          "midi": 64,
          "time": 56.99999999999977,
          "velocity": 0.7874015748031497,
          "duration": 0.29999999999999716
        },
        {
          "name": "E3",
          "midi": 52,
          "time": 57.59999999999977,
          "velocity": 0.7874015748031497,
          "duration": 0.29999999999999716
        },
        {
          "name": "B3",
          "midi": 59,
          "time": 57.59999999999977,
          "velocity": 0.7874015748031497,
          "duration": 0.29999999999999716
        },
        {
          "name": "G2",
          "midi": 43,
          "time": 58.19999999999976,
          "velocity": 0.7874015748031497,
          "duration": 0.29999999999999716
        },
        {
          "name": "D3",
          "midi": 50,
          "time": 58.19999999999976,
          "velocity": 0.7874015748031497,
          "duration": 0.29999999999999716
        },
        {
          "name": "C3",
          "midi": 48,
          "time": 58.799999999999756,
          "velocity": 0.7874015748031497,
          "duration": 0.29999999999999716
        },
        {
          "name": "G3",
          "midi": 55,
          "time": 58.799999999999756,
          "velocity": 0.7874015748031497,
          "duration": 0.29999999999999716
        },
        {
          "name": "D3",
          "midi": 50,
          "time": 59.39999999999975,
          "velocity": 0.7874015748031497,
          "duration": 0.29999999999999716
        },
        {
          "name": "A3",
          "midi": 57,
          "time": 59.39999999999975,
          "velocity": 0.7874015748031497,
          "duration": 0.29999999999999716
        },
        {
          "name": "B2",
          "midi": 47,
          "time": 59.69999999999975,
          "velocity": 0.7874015748031497,
          "duration": 0.29999999999999716
        },
        {
          "name": "F#3",
          "midi": 54,
          "time": 59.69999999999975,
          "velocity": 0.7874015748031497,
          "duration": 0.29999999999999716
        },
        {
          "name": "E3",
          "midi": 52,
          "time": 59.999999999999744,
          "velocity": 0.7874015748031497,
          "duration": 0.6000000000000014
        },
        {
          "name": "B3",
          "midi": 59,
          "time": 59.999999999999744,
          "velocity": 0.7874015748031497,
          "duration": 0.6000000000000014
        },
        {
          "name": "G3",
          "midi": 55,
          "time": 60.599999999999746,
          "velocity": 0.7874015748031497,
          "duration": 0.14999999999999858
        },
        {
          "name": "D4",
          "midi": 62,
          "time": 60.599999999999746,
          "velocity": 0.7874015748031497,
          "duration": 0.14999999999999858
        },
        {
          "name": "D3",
          "midi": 50,
          "time": 61.19999999999975,
          "velocity": 0.7874015748031497,
          "duration": 0.14999999999999858
        },
        {
          "name": "A3",
          "midi": 57,
          "time": 61.19999999999975,
          "velocity": 0.7874015748031497,
          "duration": 0.14999999999999858
        },
        {
          "name": "E3",
          "midi": 52,
          "time": 61.79999999999975,
          "velocity": 0.7874015748031497,
          "duration": 0.14999999999999858
        },
        {
          "name": "B3",
          "midi": 59,
          "time": 61.79999999999975,
          "velocity": 0.7874015748031497,
          "duration": 0.14999999999999858
        },
        {
          "name": "E3",
          "midi": 52,
          "time": 62.398749999999744,
          "velocity": 0.7874015748031497,
          "duration": 0.301249999999996
        },
        {
          "name": "B3",
          "midi": 59,
          "time": 62.39999999999974,
          "velocity": 0.7874015748031497,
          "duration": 0.29999999999999716
        },
        {
          "name": "C3",
          "midi": 48,
          "time": 62.99999999999974,
          "velocity": 0.7874015748031497,
          "duration": 0.14999999999999858
        },
        {
          "name": "G3",
          "midi": 55,
          "time": 62.99999999999974,
          "velocity": 0.7874015748031497,
          "duration": 0.14999999999999858
        },
        {
          "name": "D3",
          "midi": 50,
          "time": 63.59999999999974,
          "velocity": 0.7874015748031497,
          "duration": 0.14999999999999858
        },
        {
          "name": "A3",
          "midi": 57,
          "time": 63.59999999999974,
          "velocity": 0.7874015748031497,
          "duration": 0.14999999999999858
        },
        {
          "name": "G3",
          "midi": 55,
          "time": 64.19999999999973,
          "velocity": 0.7874015748031497,
          "duration": 0.45000000000000284
        },
        {
          "name": "D4",
          "midi": 62,
          "time": 64.19999999999973,
          "velocity": 0.7874015748031497,
          "duration": 0.45000000000000284
        },
        {
          "name": "G3",
          "midi": 55,
          "time": 64.79999999999974,
          "velocity": 0.7874015748031497,
          "duration": 0.29999999999999716
        },
        {
          "name": "D4",
          "midi": 62,
          "time": 64.79999999999974,
          "velocity": 0.7874015748031497,
          "duration": 0.29999999999999716
        },
        {
          "name": "G3",
          "midi": 55,
          "time": 65.39999999999974,
          "velocity": 0.7874015748031497,
          "duration": 0.15000000000000568
        },
        {
          "name": "D4",
          "midi": 62,
          "time": 65.39999999999974,
          "velocity": 0.7874015748031497,
          "duration": 0.15000000000000568
        },
        {
          "name": "D3",
          "midi": 50,
          "time": 65.99999999999974,
          "velocity": 0.7874015748031497,
          "duration": 0.15000000000000568
        },
        {
          "name": "A3",
          "midi": 57,
          "time": 65.99999999999974,
          "velocity": 0.7874015748031497,
          "duration": 0.15000000000000568
        },
        {
          "name": "E3",
          "midi": 52,
          "time": 66.59999999999975,
          "velocity": 0.7874015748031497,
          "duration": 0.15000000000000568
        },
        {
          "name": "B3",
          "midi": 59,
          "time": 66.59999999999975,
          "velocity": 0.7874015748031497,
          "duration": 0.15000000000000568
        },
        {
          "name": "E3",
          "midi": 52,
          "time": 67.19874999999976,
          "velocity": 0.7874015748031497,
          "duration": 0.301249999999996
        },
        {
          "name": "B3",
          "midi": 59,
          "time": 67.19999999999976,
          "velocity": 0.7874015748031497,
          "duration": 0.29999999999999716
        },
        {
          "name": "C3",
          "midi": 48,
          "time": 67.79999999999976,
          "velocity": 0.7874015748031497,
          "duration": 0.15000000000000568
        },
        {
          "name": "G3",
          "midi": 55,
          "time": 67.79999999999976,
          "velocity": 0.7874015748031497,
          "duration": 0.15000000000000568
        },
        {
          "name": "B2",
          "midi": 47,
          "time": 68.39999999999976,
          "velocity": 0.7874015748031497,
          "duration": 0.15000000000000568
        },
        {
          "name": "F#3",
          "midi": 54,
          "time": 68.39999999999976,
          "velocity": 0.7874015748031497,
          "duration": 0.15000000000000568
        },
        {
          "name": "E2",
          "midi": 40,
          "time": 68.99999999999977,
          "velocity": 0.7874015748031497,
          "duration": 0.15000000000000568
        },
        {
          "name": "E2",
          "midi": 40,
          "time": 69.59999999999978,
          "velocity": 0.7874015748031497,
          "duration": 0.5925000000000011
        },
        {
          "name": "B2",
          "midi": 47,
          "time": 69.59999999999978,
          "velocity": 0.7874015748031497,
          "duration": 0.5925000000000011
        },
        {
          "name": "G2",
          "midi": 43,
          "time": 70.19999999999978,
          "velocity": 0.7874015748031497,
          "duration": 0.15000000000000568
        },
        {
          "name": "G2",
          "midi": 43,
          "time": 70.79999999999978,
          "velocity": 0.7874015748031497,
          "duration": 0.15000000000000568
        },
        {
          "name": "D3",
          "midi": 50,
          "time": 71.39999999999979,
          "velocity": 0.7874015748031497,
          "duration": 0.15000000000000568
        },
        {
          "name": "D3",
          "midi": 50,
          "time": 71.9999999999998,
          "velocity": 0.7874015748031497,
          "duration": 0.15000000000000568
        },
        {
          "name": "E3",
          "midi": 52,
          "time": 72.59999999999981,
          "velocity": 0.7874015748031497,
          "duration": 0.15000000000000568
        },
        {
          "name": "E3",
          "midi": 52,
          "time": 73.19999999999982,
          "velocity": 0.7874015748031497,
          "duration": 0.15000000000000568
        },
        {
          "name": "B2",
          "midi": 47,
          "time": 73.79999999999983,
          "velocity": 0.7874015748031497,
          "duration": 0.45000000000000284
        },
        {
          "name": "F#3",
          "midi": 54,
          "time": 73.79999999999983,
          "velocity": 0.7874015748031497,
          "duration": 0.45000000000000284
        },
        {
          "name": "B2",
          "midi": 47,
          "time": 74.39999999999984,
          "velocity": 0.7874015748031497,
          "duration": 0.29999999999999716
        },
        {
          "name": "F#3",
          "midi": 54,
          "time": 74.39999999999984,
          "velocity": 0.7874015748031497,
          "duration": 0.29999999999999716
        },
        {
          "name": "G3",
          "midi": 55,
          "time": 74.99999999999983,
          "velocity": 0.7874015748031497,
          "duration": 0.15000000000000568
        },
        {
          "name": "D4",
          "midi": 62,
          "time": 74.99999999999983,
          "velocity": 0.7874015748031497,
          "duration": 0.15000000000000568
        },
        {
          "name": "D3",
          "midi": 50,
          "time": 75.59999999999984,
          "velocity": 0.7874015748031497,
          "duration": 0.15000000000000568
        },
        {
          "name": "A3",
          "midi": 57,
          "time": 75.59999999999984,
          "velocity": 0.7874015748031497,
          "duration": 0.15000000000000568
        },
        {
          "name": "E3",
          "midi": 52,
          "time": 76.19999999999985,
          "velocity": 0.7874015748031497,
          "duration": 0.15000000000000568
        },
        {
          "name": "B3",
          "midi": 59,
          "time": 76.19999999999985,
          "velocity": 0.7874015748031497,
          "duration": 0.15000000000000568
        },
        {
          "name": "E3",
          "midi": 52,
          "time": 76.79874999999986,
          "velocity": 0.7874015748031497,
          "duration": 0.301249999999996
        },
        {
          "name": "B3",
          "midi": 59,
          "time": 76.79999999999986,
          "velocity": 0.7874015748031497,
          "duration": 0.29999999999999716
        },
        {
          "name": "C3",
          "midi": 48,
          "time": 77.39999999999985,
          "velocity": 0.7874015748031497,
          "duration": 0.15000000000000568
        },
        {
          "name": "G3",
          "midi": 55,
          "time": 77.39999999999985,
          "velocity": 0.7874015748031497,
          "duration": 0.15000000000000568
        },
        {
          "name": "D3",
          "midi": 50,
          "time": 77.99999999999986,
          "velocity": 0.7874015748031497,
          "duration": 0.15000000000000568
        },
        {
          "name": "A3",
          "midi": 57,
          "time": 77.99999999999986,
          "velocity": 0.7874015748031497,
          "duration": 0.15000000000000568
        },
        {
          "name": "G3",
          "midi": 55,
          "time": 78.59999999999987,
          "velocity": 0.7874015748031497,
          "duration": 0.45000000000000284
        },
        {
          "name": "D4",
          "midi": 62,
          "time": 78.59999999999987,
          "velocity": 0.7874015748031497,
          "duration": 0.45000000000000284
        },
        {
          "name": "G3",
          "midi": 55,
          "time": 79.19999999999987,
          "velocity": 0.7874015748031497,
          "duration": 0.45000000000000284
        },
        {
          "name": "D4",
          "midi": 62,
          "time": 79.19999999999987,
          "velocity": 0.7874015748031497,
          "duration": 0.45000000000000284
        },
        {
          "name": "E5",
          "midi": 76,
          "time": 79.79999999999988,
          "velocity": 0.7874015748031497,
          "duration": 0.15000000000000568
        },
        {
          "name": "B4",
          "midi": 71,
          "time": 80.24999999999989,
          "velocity": 0.7874015748031497,
          "duration": 0.15000000000000568
        },
        {
          "name": "C5",
          "midi": 72,
          "time": 80.40124999999989,
          "velocity": 0.7874015748031497,
          "duration": 0.15000000000000568
        },
        {
          "name": "B4",
          "midi": 71,
          "time": 80.8499999999999,
          "velocity": 0.7874015748031497,
          "duration": 0.15000000000000568
        },
        {
          "name": "D5",
          "midi": 74,
          "time": 80.9999999999999,
          "velocity": 0.7874015748031497,
          "duration": 0.15000000000000568
        },
        {
          "name": "A4",
          "midi": 69,
          "time": 81.4499999999999,
          "velocity": 0.7874015748031497,
          "duration": 0.15000000000000568
        },
        {
          "name": "B4",
          "midi": 71,
          "time": 81.59999999999991,
          "velocity": 0.7874015748031497,
          "duration": 0.15000000000000568
        },
        {
          "name": "A4",
          "midi": 69,
          "time": 82.04999999999991,
          "velocity": 0.7874015748031497,
          "duration": 0.15000000000000568
        },
        {
          "name": "C5",
          "midi": 72,
          "time": 82.19999999999992,
          "velocity": 0.7874015748031497,
          "duration": 0.15000000000000568
        },
        {
          "name": "G4",
          "midi": 67,
          "time": 82.64999999999992,
          "velocity": 0.7874015748031497,
          "duration": 0.15000000000000568
        },
        {
          "name": "A4",
          "midi": 69,
          "time": 82.79999999999993,
          "velocity": 0.7874015748031497,
          "duration": 0.15000000000000568
        },
        {
          "name": "F#4",
          "midi": 66,
          "time": 83.39999999999993,
          "velocity": 0.7874015748031497,
          "duration": 0.22374999999999545
        },
        {
          "name": "D4",
          "midi": 62,
          "time": 83.69999999999993,
          "velocity": 0.7874015748031497,
          "duration": 0.22499999999999432
        },
        {
          "name": "E4",
          "midi": 64,
          "time": 83.99999999999993,
          "velocity": 0.7874015748031497,
          "duration": 0.375
        },
        {
          "name": "E5",
          "midi": 76,
          "time": 84.59999999999992,
          "velocity": 0.7874015748031497,
          "duration": 0.15000000000000568
        },
        {
          "name": "B4",
          "midi": 71,
          "time": 85.04999999999993,
          "velocity": 0.7874015748031497,
          "duration": 0.15000000000000568
        },
        {
          "name": "C5",
          "midi": 72,
          "time": 85.20124999999993,
          "velocity": 0.7874015748031497,
          "duration": 0.15000000000000568
        },
        {
          "name": "B4",
          "midi": 71,
          "time": 85.64999999999993,
          "velocity": 0.7874015748031497,
          "duration": 0.15000000000000568
        },
        {
          "name": "D5",
          "midi": 74,
          "time": 85.79999999999994,
          "velocity": 0.7874015748031497,
          "duration": 0.15000000000000568
        },
        {
          "name": "A4",
          "midi": 69,
          "time": 86.24999999999994,
          "velocity": 0.7874015748031497,
          "duration": 0.15000000000000568
        },
        {
          "name": "B4",
          "midi": 71,
          "time": 86.39999999999995,
          "velocity": 0.7874015748031497,
          "duration": 0.15000000000000568
        },
        {
          "name": "A4",
          "midi": 69,
          "time": 86.84999999999995,
          "velocity": 0.7874015748031497,
          "duration": 0.15000000000000568
        },
        {
          "name": "C5",
          "midi": 72,
          "time": 86.99999999999996,
          "velocity": 0.7874015748031497,
          "duration": 0.15000000000000568
        },
        {
          "name": "G4",
          "midi": 67,
          "time": 87.44999999999996,
          "velocity": 0.7874015748031497,
          "duration": 0.15000000000000568
        },
        {
          "name": "A4",
          "midi": 69,
          "time": 87.59999999999997,
          "velocity": 0.7874015748031497,
          "duration": 0.15000000000000568
        },
        {
          "name": "F#4",
          "midi": 66,
          "time": 88.19999999999997,
          "velocity": 0.7874015748031497,
          "duration": 0.22374999999999545
        },
        {
          "name": "D4",
          "midi": 62,
          "time": 88.49999999999997,
          "velocity": 0.7874015748031497,
          "duration": 0.22499999999999432
        },
        {
          "name": "E4",
          "midi": 64,
          "time": 88.79999999999997,
          "velocity": 0.7874015748031497,
          "duration": 0.45000000000000284
        },
        {
          "name": "G3",
          "midi": 55,
          "time": 89.39999999999998,
          "velocity": 0.7874015748031497,
          "duration": 0.15000000000000568
        },
        {
          "name": "E3",
          "midi": 52,
          "time": 89.99999999999999,
          "velocity": 0.7874015748031497,
          "duration": 0.29999999999999716
        },
        {
          "name": "B3",
          "midi": 59,
          "time": 89.99999999999999,
          "velocity": 0.7874015748031497,
          "duration": 0.29999999999999716
        },
        {
          "name": "G3",
          "midi": 55,
          "time": 90.59999999999998,
          "velocity": 0.7874015748031497,
          "duration": 0.15000000000000568
        },
        {
          "name": "E3",
          "midi": 52,
          "time": 91.19999999999999,
          "velocity": 0.7874015748031497,
          "duration": 0.29999999999999716
        },
        {
          "name": "B3",
          "midi": 59,
          "time": 91.19999999999999,
          "velocity": 0.7874015748031497,
          "duration": 0.29999999999999716
        },
        {
          "name": "G3",
          "midi": 55,
          "time": 91.79999999999998,
          "velocity": 0.7874015748031497,
          "duration": 0.15000000000000568
        },
        {
          "name": "F#3",
          "midi": 54,
          "time": 92.24999999999999,
          "velocity": 0.7874015748031497,
          "duration": 0.15000000000000568
        },
        {
          "name": "G3",
          "midi": 55,
          "time": 92.69999999999999,
          "velocity": 0.7874015748031497,
          "duration": 0.15000000000000568
        },
        {
          "name": "A3",
          "midi": 57,
          "time": 93,
          "velocity": 0.7874015748031497,
          "duration": 0.15000000000000568
        },
        {
          "name": "G3",
          "midi": 55,
          "time": 93.45,
          "velocity": 0.7874015748031497,
          "duration": 0.15000000000000568
        },
        {
          "name": "F#3",
          "midi": 54,
          "time": 93.9,
          "velocity": 0.7874015748031497,
          "duration": 0.15000000000000568
        },
        {
          "name": "G3",
          "midi": 55,
          "time": 94.20000000000002,
          "velocity": 0.7874015748031497,
          "duration": 0.15000000000000568
        },
        {
          "name": "E3",
          "midi": 52,
          "time": 94.80000000000003,
          "velocity": 0.7874015748031497,
          "duration": 0.29999999999999716
        },
        {
          "name": "B3",
          "midi": 59,
          "time": 94.80000000000003,
          "velocity": 0.7874015748031497,
          "duration": 0.29999999999999716
        },
        {
          "name": "G3",
          "midi": 55,
          "time": 95.40000000000002,
          "velocity": 0.7874015748031497,
          "duration": 0.15000000000000568
        },
        {
          "name": "E3",
          "midi": 52,
          "time": 96.00000000000003,
          "velocity": 0.7874015748031497,
          "duration": 0.29999999999999716
        },
        {
          "name": "B3",
          "midi": 59,
          "time": 96.00000000000003,
          "velocity": 0.7874015748031497,
          "duration": 0.29999999999999716
        },
        {
          "name": "G3",
          "midi": 55,
          "time": 96.60000000000002,
          "velocity": 0.7874015748031497,
          "duration": 0.15000000000000568
        },
        {
          "name": "F#3",
          "midi": 54,
          "time": 97.05000000000003,
          "velocity": 0.7874015748031497,
          "duration": 0.15000000000000568
        },
        {
          "name": "G3",
          "midi": 55,
          "time": 97.50000000000003,
          "velocity": 0.7874015748031497,
          "duration": 0.15000000000000568
        },
        {
          "name": "D3",
          "midi": 50,
          "time": 97.80000000000004,
          "velocity": 0.7874015748031497,
          "duration": 0.15000000000000568
        },
        {
          "name": "A3",
          "midi": 57,
          "time": 98.25000000000004,
          "velocity": 0.7874015748031497,
          "duration": 0.15000000000000568
        },
        {
          "name": "G3",
          "midi": 55,
          "time": 98.70000000000005,
          "velocity": 0.7874015748031497,
          "duration": 0.15000000000000568
        },
        {
          "name": "A3",
          "midi": 57,
          "time": 99.00000000000006,
          "velocity": 0.7874015748031497,
          "duration": 0.15000000000000568
        },
        {
          "name": "F#3",
          "midi": 54,
          "time": 99.60000000000007,
          "velocity": 0.7874015748031497,
          "duration": 0.29999999999999716
        },
        {
          "name": "C#4",
          "midi": 61,
          "time": 99.60000000000007,
          "velocity": 0.7874015748031497,
          "duration": 0.29999999999999716
        },
        {
          "name": "A3",
          "midi": 57,
          "time": 100.20000000000006,
          "velocity": 0.7874015748031497,
          "duration": 0.15000000000000568
        },
        {
          "name": "F#3",
          "midi": 54,
          "time": 100.80000000000007,
          "velocity": 0.7874015748031497,
          "duration": 0.29999999999999716
        },
        {
          "name": "C#4",
          "midi": 61,
          "time": 100.80000000000007,
          "velocity": 0.7874015748031497,
          "duration": 0.29999999999999716
        },
        {
          "name": "A3",
          "midi": 57,
          "time": 101.40000000000006,
          "velocity": 0.7874015748031497,
          "duration": 0.15000000000000568
        },
        {
          "name": "G#3",
          "midi": 56,
          "time": 101.85000000000007,
          "velocity": 0.7874015748031497,
          "duration": 0.15000000000000568
        },
        {
          "name": "A3",
          "midi": 57,
          "time": 102.30000000000007,
          "velocity": 0.7874015748031497,
          "duration": 0.15000000000000568
        },
        {
          "name": "B3",
          "midi": 59,
          "time": 102.60000000000008,
          "velocity": 0.7874015748031497,
          "duration": 0.15000000000000568
        },
        {
          "name": "A3",
          "midi": 57,
          "time": 103.05000000000008,
          "velocity": 0.7874015748031497,
          "duration": 0.15000000000000568
        },
        {
          "name": "G#3",
          "midi": 56,
          "time": 103.50000000000009,
          "velocity": 0.7874015748031497,
          "duration": 0.15000000000000568
        },
        {
          "name": "A3",
          "midi": 57,
          "time": 103.8000000000001,
          "velocity": 0.7874015748031497,
          "duration": 0.15000000000000568
        },
        {
          "name": "F#3",
          "midi": 54,
          "time": 104.4000000000001,
          "velocity": 0.7874015748031497,
          "duration": 0.29999999999999716
        },
        {
          "name": "C#4",
          "midi": 61,
          "time": 104.4000000000001,
          "velocity": 0.7874015748031497,
          "duration": 0.29999999999999716
        },
        {
          "name": "A3",
          "midi": 57,
          "time": 105.0000000000001,
          "velocity": 0.7874015748031497,
          "duration": 0.15000000000000568
        },
        {
          "name": "F#3",
          "midi": 54,
          "time": 105.60000000000011,
          "velocity": 0.7874015748031497,
          "duration": 0.29999999999999716
        },
        {
          "name": "C#4",
          "midi": 61,
          "time": 105.60000000000011,
          "velocity": 0.7874015748031497,
          "duration": 0.29999999999999716
        },
        {
          "name": "A3",
          "midi": 57,
          "time": 106.2000000000001,
          "velocity": 0.7874015748031497,
          "duration": 0.15000000000000568
        },
        {
          "name": "G#3",
          "midi": 56,
          "time": 106.6500000000001,
          "velocity": 0.7874015748031497,
          "duration": 0.15000000000000568
        },
        {
          "name": "A3",
          "midi": 57,
          "time": 107.10000000000011,
          "velocity": 0.7874015748031497,
          "duration": 0.15000000000000568
        },
        {
          "name": "E3",
          "midi": 52,
          "time": 107.40000000000012,
          "velocity": 0.7874015748031497,
          "duration": 0.15000000000000568
        },
        {
          "name": "B3",
          "midi": 59,
          "time": 107.85000000000012,
          "velocity": 0.7874015748031497,
          "duration": 0.15000000000000568
        },
        {
          "name": "A3",
          "midi": 57,
          "time": 108.30000000000013,
          "velocity": 0.7874015748031497,
          "duration": 0.15000000000000568
        },
        {
          "name": "E3",
          "midi": 52,
          "time": 108.60000000000014,
          "velocity": 0.7874015748031497,
          "duration": 0.29999999999999716
        },
        {
          "name": "B3",
          "midi": 59,
          "time": 108.60000000000014,
          "velocity": 0.7874015748031497,
          "duration": 0.29999999999999716
        },
        {
          "name": "G3",
          "midi": 55,
          "time": 109.20000000000013,
          "velocity": 0.7874015748031497,
          "duration": 0.29999999999999716
        },
        {
          "name": "D4",
          "midi": 62,
          "time": 109.20000000000013,
          "velocity": 0.7874015748031497,
          "duration": 0.29999999999999716
        },
        {
          "name": "A3",
          "midi": 57,
          "time": 109.80000000000013,
          "velocity": 0.7874015748031497,
          "duration": 0.29999999999999716
        },
        {
          "name": "E4",
          "midi": 64,
          "time": 109.80000000000013,
          "velocity": 0.7874015748031497,
          "duration": 0.29999999999999716
        },
        {
          "name": "E3",
          "midi": 52,
          "time": 110.40000000000012,
          "velocity": 0.7874015748031497,
          "duration": 0.29999999999999716
        },
        {
          "name": "B3",
          "midi": 59,
          "time": 110.40000000000012,
          "velocity": 0.7874015748031497,
          "duration": 0.29999999999999716
        },
        {
          "name": "G2",
          "midi": 43,
          "time": 111.00000000000011,
          "velocity": 0.7874015748031497,
          "duration": 0.29999999999999716
        },
        {
          "name": "D3",
          "midi": 50,
          "time": 111.00000000000011,
          "velocity": 0.7874015748031497,
          "duration": 0.29999999999999716
        },
        {
          "name": "C3",
          "midi": 48,
          "time": 111.60000000000011,
          "velocity": 0.7874015748031497,
          "duration": 0.29999999999999716
        },
        {
          "name": "G3",
          "midi": 55,
          "time": 111.60000000000011,
          "velocity": 0.7874015748031497,
          "duration": 0.29999999999999716
        },
        {
          "name": "D3",
          "midi": 50,
          "time": 112.2000000000001,
          "velocity": 0.7874015748031497,
          "duration": 0.29999999999999716
        },
        {
          "name": "A3",
          "midi": 57,
          "time": 112.2000000000001,
          "velocity": 0.7874015748031497,
          "duration": 0.29999999999999716
        },
        {
          "name": "B2",
          "midi": 47,
          "time": 112.5000000000001,
          "velocity": 0.7874015748031497,
          "duration": 0.29999999999999716
        },
        {
          "name": "F#3",
          "midi": 54,
          "time": 112.5000000000001,
          "velocity": 0.7874015748031497,
          "duration": 0.29999999999999716
        },
        {
          "name": "E3",
          "midi": 52,
          "time": 112.8000000000001,
          "velocity": 0.7874015748031497,
          "duration": 0.29999999999999716
        },
        {
          "name": "B3",
          "midi": 59,
          "time": 112.8000000000001,
          "velocity": 0.7874015748031497,
          "duration": 0.29999999999999716
        },
        {
          "name": "E3",
          "midi": 52,
          "time": 113.40000000000009,
          "velocity": 0.7874015748031497,
          "duration": 0.29999999999999716
        },
        {
          "name": "B3",
          "midi": 59,
          "time": 113.40000000000009,
          "velocity": 0.7874015748031497,
          "duration": 0.29999999999999716
        },
        {
          "name": "G3",
          "midi": 55,
          "time": 114.00000000000009,
          "velocity": 0.7874015748031497,
          "duration": 0.29999999999999716
        },
        {
          "name": "D4",
          "midi": 62,
          "time": 114.00000000000009,
          "velocity": 0.7874015748031497,
          "duration": 0.29999999999999716
        },
        {
          "name": "A3",
          "midi": 57,
          "time": 114.60000000000008,
          "velocity": 0.7874015748031497,
          "duration": 0.29999999999999716
        },
        {
          "name": "E4",
          "midi": 64,
          "time": 114.60000000000008,
          "velocity": 0.7874015748031497,
          "duration": 0.29999999999999716
        },
        {
          "name": "E3",
          "midi": 52,
          "time": 115.20000000000007,
          "velocity": 0.7874015748031497,
          "duration": 0.29999999999999716
        },
        {
          "name": "B3",
          "midi": 59,
          "time": 115.20000000000007,
          "velocity": 0.7874015748031497,
          "duration": 0.29999999999999716
        },
        {
          "name": "G2",
          "midi": 43,
          "time": 115.80000000000007,
          "velocity": 0.7874015748031497,
          "duration": 0.29999999999999716
        },
        {
          "name": "D3",
          "midi": 50,
          "time": 115.80000000000007,
          "velocity": 0.7874015748031497,
          "duration": 0.29999999999999716
        },
        {
          "name": "C3",
          "midi": 48,
          "time": 116.40000000000006,
          "velocity": 0.7874015748031497,
          "duration": 0.29999999999999716
        },
        {
          "name": "G3",
          "midi": 55,
          "time": 116.40000000000006,
          "velocity": 0.7874015748031497,
          "duration": 0.29999999999999716
        },
        {
          "name": "D3",
          "midi": 50,
          "time": 117.00000000000006,
          "velocity": 0.7874015748031497,
          "duration": 0.29999999999999716
        },
        {
          "name": "A3",
          "midi": 57,
          "time": 117.00000000000006,
          "velocity": 0.7874015748031497,
          "duration": 0.29999999999999716
        },
        {
          "name": "B2",
          "midi": 47,
          "time": 117.30000000000005,
          "velocity": 0.7874015748031497,
          "duration": 0.29999999999999716
        },
        {
          "name": "F#3",
          "midi": 54,
          "time": 117.30000000000005,
          "velocity": 0.7874015748031497,
          "duration": 0.29999999999999716
        },
        {
          "name": "E3",
          "midi": 52,
          "time": 117.60000000000005,
          "velocity": 0.7874015748031497,
          "duration": 0.5999999999999943
        },
        {
          "name": "B3",
          "midi": 59,
          "time": 117.60000000000005,
          "velocity": 0.7874015748031497,
          "duration": 0.5999999999999943
        },
        {
          "name": "G3",
          "midi": 55,
          "time": 118.20000000000005,
          "velocity": 0.7874015748031497,
          "duration": 0.15000000000000568
        },
        {
          "name": "D4",
          "midi": 62,
          "time": 118.20000000000005,
          "velocity": 0.7874015748031497,
          "duration": 0.15000000000000568
        },
        {
          "name": "D3",
          "midi": 50,
          "time": 118.80000000000005,
          "velocity": 0.7874015748031497,
          "duration": 0.15000000000000568
        },
        {
          "name": "A3",
          "midi": 57,
          "time": 118.80000000000005,
          "velocity": 0.7874015748031497,
          "duration": 0.15000000000000568
        },
        {
          "name": "E3",
          "midi": 52,
          "time": 119.40000000000006,
          "velocity": 0.7874015748031497,
          "duration": 0.15000000000000568
        },
        {
          "name": "B3",
          "midi": 59,
          "time": 119.40000000000006,
          "velocity": 0.7874015748031497,
          "duration": 0.15000000000000568
        },
        {
          "name": "E3",
          "midi": 52,
          "time": 119.99875000000007,
          "velocity": 0.7874015748031497,
          "duration": 0.301249999999996
        },
        {
          "name": "B3",
          "midi": 59,
          "time": 120.00000000000007,
          "velocity": 0.7874015748031497,
          "duration": 0.29999999999999716
        },
        {
          "name": "C3",
          "midi": 48,
          "time": 120.60000000000007,
          "velocity": 0.7874015748031497,
          "duration": 0.15000000000000568
        },
        {
          "name": "G3",
          "midi": 55,
          "time": 120.60000000000007,
          "velocity": 0.7874015748031497,
          "duration": 0.15000000000000568
        },
        {
          "name": "D3",
          "midi": 50,
          "time": 121.20000000000007,
          "velocity": 0.7874015748031497,
          "duration": 0.15000000000000568
        },
        {
          "name": "A3",
          "midi": 57,
          "time": 121.20000000000007,
          "velocity": 0.7874015748031497,
          "duration": 0.15000000000000568
        },
        {
          "name": "G3",
          "midi": 55,
          "time": 121.80000000000008,
          "velocity": 0.7874015748031497,
          "duration": 0.45000000000000284
        },
        {
          "name": "D4",
          "midi": 62,
          "time": 121.80000000000008,
          "velocity": 0.7874015748031497,
          "duration": 0.45000000000000284
        },
        {
          "name": "G3",
          "midi": 55,
          "time": 122.40000000000009,
          "velocity": 0.7874015748031497,
          "duration": 0.29999999999999716
        },
        {
          "name": "D4",
          "midi": 62,
          "time": 122.40000000000009,
          "velocity": 0.7874015748031497,
          "duration": 0.29999999999999716
        },
        {
          "name": "G3",
          "midi": 55,
          "time": 123.00000000000009,
          "velocity": 0.7874015748031497,
          "duration": 0.15000000000000568
        },
        {
          "name": "D4",
          "midi": 62,
          "time": 123.00000000000009,
          "velocity": 0.7874015748031497,
          "duration": 0.15000000000000568
        },
        {
          "name": "D3",
          "midi": 50,
          "time": 123.6000000000001,
          "velocity": 0.7874015748031497,
          "duration": 0.15000000000000568
        },
        {
          "name": "A3",
          "midi": 57,
          "time": 123.6000000000001,
          "velocity": 0.7874015748031497,
          "duration": 0.15000000000000568
        },
        {
          "name": "E3",
          "midi": 52,
          "time": 124.2000000000001,
          "velocity": 0.7874015748031497,
          "duration": 0.15000000000000568
        },
        {
          "name": "B3",
          "midi": 59,
          "time": 124.2000000000001,
          "velocity": 0.7874015748031497,
          "duration": 0.15000000000000568
        },
        {
          "name": "E3",
          "midi": 52,
          "time": 124.79875000000011,
          "velocity": 0.7874015748031497,
          "duration": 0.301249999999996
        },
        {
          "name": "B3",
          "midi": 59,
          "time": 124.80000000000011,
          "velocity": 0.7874015748031497,
          "duration": 0.29999999999999716
        },
        {
          "name": "C3",
          "midi": 48,
          "time": 125.4000000000001,
          "velocity": 0.7874015748031497,
          "duration": 0.15000000000000568
        },
        {
          "name": "G3",
          "midi": 55,
          "time": 125.4000000000001,
          "velocity": 0.7874015748031497,
          "duration": 0.15000000000000568
        },
        {
          "name": "B2",
          "midi": 47,
          "time": 126.00000000000011,
          "velocity": 0.7874015748031497,
          "duration": 0.15000000000000568
        },
        {
          "name": "F#3",
          "midi": 54,
          "time": 126.00000000000011,
          "velocity": 0.7874015748031497,
          "duration": 0.15000000000000568
        },
        {
          "name": "E2",
          "midi": 40,
          "time": 126.60000000000012,
          "velocity": 0.7874015748031497,
          "duration": 0.15000000000000568
        },
        {
          "name": "E2",
          "midi": 40,
          "time": 127.20000000000013,
          "velocity": 0.7874015748031497,
          "duration": 0.5925000000000011
        },
        {
          "name": "B2",
          "midi": 47,
          "time": 127.20000000000013,
          "velocity": 0.7874015748031497,
          "duration": 0.5925000000000011
        },
        {
          "name": "G2",
          "midi": 43,
          "time": 127.80000000000013,
          "velocity": 0.7874015748031497,
          "duration": 0.15000000000000568
        },
        {
          "name": "G2",
          "midi": 43,
          "time": 128.40000000000012,
          "velocity": 0.7874015748031497,
          "duration": 0.15000000000000568
        },
        {
          "name": "D3",
          "midi": 50,
          "time": 129.0000000000001,
          "velocity": 0.7874015748031497,
          "duration": 0.15000000000000568
        },
        {
          "name": "D3",
          "midi": 50,
          "time": 129.6000000000001,
          "velocity": 0.7874015748031497,
          "duration": 0.15000000000000568
        },
        {
          "name": "E3",
          "midi": 52,
          "time": 130.2000000000001,
          "velocity": 0.7874015748031497,
          "duration": 0.15000000000000568
        },
        {
          "name": "E3",
          "midi": 52,
          "time": 130.8000000000001,
          "velocity": 0.7874015748031497,
          "duration": 0.15000000000000568
        },
        {
          "name": "B2",
          "midi": 47,
          "time": 131.4000000000001,
          "velocity": 0.7874015748031497,
          "duration": 0.44999999999998863
        },
        {
          "name": "F#3",
          "midi": 54,
          "time": 131.4000000000001,
          "velocity": 0.7874015748031497,
          "duration": 0.44999999999998863
        },
        {
          "name": "B2",
          "midi": 47,
          "time": 132.00000000000009,
          "velocity": 0.7874015748031497,
          "duration": 0.30000000000001137
        },
        {
          "name": "F#3",
          "midi": 54,
          "time": 132.00000000000009,
          "velocity": 0.7874015748031497,
          "duration": 0.30000000000001137
        },
        {
          "name": "G3",
          "midi": 55,
          "time": 132.6000000000001,
          "velocity": 0.7874015748031497,
          "duration": 0.15000000000000568
        },
        {
          "name": "D4",
          "midi": 62,
          "time": 132.6000000000001,
          "velocity": 0.7874015748031497,
          "duration": 0.15000000000000568
        },
        {
          "name": "D3",
          "midi": 50,
          "time": 133.2000000000001,
          "velocity": 0.7874015748031497,
          "duration": 0.15000000000000568
        },
        {
          "name": "A3",
          "midi": 57,
          "time": 133.2000000000001,
          "velocity": 0.7874015748031497,
          "duration": 0.15000000000000568
        },
        {
          "name": "E3",
          "midi": 52,
          "time": 133.8000000000001,
          "velocity": 0.7874015748031497,
          "duration": 0.15000000000000568
        },
        {
          "name": "B3",
          "midi": 59,
          "time": 133.8000000000001,
          "velocity": 0.7874015748031497,
          "duration": 0.15000000000000568
        },
        {
          "name": "E3",
          "midi": 52,
          "time": 134.3987500000001,
          "velocity": 0.7874015748031497,
          "duration": 0.30125000000001023
        },
        {
          "name": "B3",
          "midi": 59,
          "time": 134.4000000000001,
          "velocity": 0.7874015748031497,
          "duration": 0.30000000000001137
        },
        {
          "name": "C3",
          "midi": 48,
          "time": 135.0000000000001,
          "velocity": 0.7874015748031497,
          "duration": 0.15000000000000568
        },
        {
          "name": "G3",
          "midi": 55,
          "time": 135.0000000000001,
          "velocity": 0.7874015748031497,
          "duration": 0.15000000000000568
        },
        {
          "name": "D3",
          "midi": 50,
          "time": 135.6000000000001,
          "velocity": 0.7874015748031497,
          "duration": 0.15000000000000568
        },
        {
          "name": "A3",
          "midi": 57,
          "time": 135.6000000000001,
          "velocity": 0.7874015748031497,
          "duration": 0.15000000000000568
        },
        {
          "name": "G3",
          "midi": 55,
          "time": 136.2000000000001,
          "velocity": 0.7874015748031497,
          "duration": 0.44999999999998863
        },
        {
          "name": "D4",
          "midi": 62,
          "time": 136.2000000000001,
          "velocity": 0.7874015748031497,
          "duration": 0.44999999999998863
        },
        {
          "name": "G3",
          "midi": 55,
          "time": 136.8000000000001,
          "velocity": 0.7874015748031497,
          "duration": 0.44999999999998863
        },
        {
          "name": "D4",
          "midi": 62,
          "time": 136.8000000000001,
          "velocity": 0.7874015748031497,
          "duration": 0.44999999999998863
        },
        {
          "name": "E5",
          "midi": 76,
          "time": 137.4000000000001,
          "velocity": 0.7874015748031497,
          "duration": 0.15000000000000568
        },
        {
          "name": "B4",
          "midi": 71,
          "time": 137.8500000000001,
          "velocity": 0.7874015748031497,
          "duration": 0.15000000000000568
        },
        {
          "name": "C5",
          "midi": 72,
          "time": 138.0012500000001,
          "velocity": 0.7874015748031497,
          "duration": 0.15000000000000568
        },
        {
          "name": "B4",
          "midi": 71,
          "time": 138.45000000000013,
          "velocity": 0.7874015748031497,
          "duration": 0.15000000000000568
        },
        {
          "name": "D5",
          "midi": 74,
          "time": 138.60000000000014,
          "velocity": 0.7874015748031497,
          "duration": 0.15000000000000568
        },
        {
          "name": "A4",
          "midi": 69,
          "time": 139.05000000000015,
          "velocity": 0.7874015748031497,
          "duration": 0.15000000000000568
        },
        {
          "name": "B4",
          "midi": 71,
          "time": 139.20000000000016,
          "velocity": 0.7874015748031497,
          "duration": 0.15000000000000568
        },
        {
          "name": "A4",
          "midi": 69,
          "time": 139.65000000000018,
          "velocity": 0.7874015748031497,
          "duration": 0.15000000000000568
        },
        {
          "name": "C5",
          "midi": 72,
          "time": 139.80000000000018,
          "velocity": 0.7874015748031497,
          "duration": 0.15000000000000568
        },
        {
          "name": "G4",
          "midi": 67,
          "time": 140.2500000000002,
          "velocity": 0.7874015748031497,
          "duration": 0.15000000000000568
        },
        {
          "name": "A4",
          "midi": 69,
          "time": 140.4000000000002,
          "velocity": 0.7874015748031497,
          "duration": 0.15000000000000568
        },
        {
          "name": "F#4",
          "midi": 66,
          "time": 141.0000000000002,
          "velocity": 0.7874015748031497,
          "duration": 0.22374999999999545
        },
        {
          "name": "D4",
          "midi": 62,
          "time": 141.30000000000018,
          "velocity": 0.7874015748031497,
          "duration": 0.22499999999999432
        },
        {
          "name": "E4",
          "midi": 64,
          "time": 141.60000000000016,
          "velocity": 0.7874015748031497,
          "duration": 0.375
        },
        {
          "name": "E5",
          "midi": 76,
          "time": 142.20000000000016,
          "velocity": 0.7874015748031497,
          "duration": 0.15000000000000568
        },
        {
          "name": "B4",
          "midi": 71,
          "time": 142.65000000000018,
          "velocity": 0.7874015748031497,
          "duration": 0.15000000000000568
        },
        {
          "name": "C5",
          "midi": 72,
          "time": 142.80125000000018,
          "velocity": 0.7874015748031497,
          "duration": 0.15000000000000568
        },
        {
          "name": "B4",
          "midi": 71,
          "time": 143.2500000000002,
          "velocity": 0.7874015748031497,
          "duration": 0.15000000000000568
        },
        {
          "name": "D5",
          "midi": 74,
          "time": 143.4000000000002,
          "velocity": 0.7874015748031497,
          "duration": 0.15000000000000568
        },
        {
          "name": "A4",
          "midi": 69,
          "time": 143.85000000000022,
          "velocity": 0.7874015748031497,
          "duration": 0.15000000000000568
        },
        {
          "name": "B4",
          "midi": 71,
          "time": 144.00000000000023,
          "velocity": 0.7874015748031497,
          "duration": 0.15000000000000568
        },
        {
          "name": "A4",
          "midi": 69,
          "time": 144.45000000000024,
          "velocity": 0.7874015748031497,
          "duration": 0.15000000000000568
        },
        {
          "name": "C5",
          "midi": 72,
          "time": 144.60000000000025,
          "velocity": 0.7874015748031497,
          "duration": 0.15000000000000568
        },
        {
          "name": "G4",
          "midi": 67,
          "time": 145.05000000000027,
          "velocity": 0.7874015748031497,
          "duration": 0.15000000000000568
        },
        {
          "name": "A4",
          "midi": 69,
          "time": 145.20000000000027,
          "velocity": 0.7874015748031497,
          "duration": 0.15000000000000568
        },
        {
          "name": "F#4",
          "midi": 66,
          "time": 145.80000000000027,
          "velocity": 0.7874015748031497,
          "duration": 0.22374999999999545
        },
        {
          "name": "D4",
          "midi": 62,
          "time": 146.10000000000025,
          "velocity": 0.7874015748031497,
          "duration": 0.22499999999999432
        },
        {
          "name": "E4",
          "midi": 64,
          "time": 146.40000000000023,
          "velocity": 0.7874015748031497,
          "duration": 0.44999999999998863
        },
        {
          "name": "E3",
          "midi": 52,
          "time": 147.00000000000023,
          "velocity": 0.7874015748031497,
          "duration": 0.15000000000000568
        },
        {
          "name": "B3",
          "midi": 59,
          "time": 147.00000000000023,
          "velocity": 0.7874015748031497,
          "duration": 0.15000000000000568
        },
        {
          "name": "E3",
          "midi": 52,
          "time": 147.90000000000023,
          "velocity": 0.7874015748031497,
          "duration": 0.15000000000000568
        },
        {
          "name": "B3",
          "midi": 59,
          "time": 147.90000000000023,
          "velocity": 0.7874015748031497,
          "duration": 0.15000000000000568
        },
        {
          "name": "E3",
          "midi": 52,
          "time": 148.80000000000024,
          "velocity": 0.7874015748031497,
          "duration": 0.30000000000001137
        },
        {
          "name": "B3",
          "midi": 59,
          "time": 148.80000000000024,
          "velocity": 0.7874015748031497,
          "duration": 0.30000000000001137
        },
        {
          "name": "D3",
          "midi": 50,
          "time": 149.10000000000025,
          "velocity": 0.7874015748031497,
          "duration": 0.30000000000001137
        },
        {
          "name": "A3",
          "midi": 57,
          "time": 149.10000000000025,
          "velocity": 0.7874015748031497,
          "duration": 0.30000000000001137
        },
        {
          "name": "E3",
          "midi": 52,
          "time": 149.40000000000026,
          "velocity": 0.7874015748031497,
          "duration": 0.15000000000000568
        },
        {
          "name": "B3",
          "midi": 59,
          "time": 149.40000000000026,
          "velocity": 0.7874015748031497,
          "duration": 0.15000000000000568
        },
        {
          "name": "E3",
          "midi": 52,
          "time": 150.30000000000027,
          "velocity": 0.7874015748031497,
          "duration": 0.15000000000000568
        },
        {
          "name": "B3",
          "midi": 59,
          "time": 150.30000000000027,
          "velocity": 0.7874015748031497,
          "duration": 0.15000000000000568
        },
        {
          "name": "C3",
          "midi": 48,
          "time": 151.20000000000027,
          "velocity": 0.7874015748031497,
          "duration": 0.30000000000001137
        },
        {
          "name": "G3",
          "midi": 55,
          "time": 151.20000000000027,
          "velocity": 0.7874015748031497,
          "duration": 0.30000000000001137
        },
        {
          "name": "D3",
          "midi": 50,
          "time": 151.50000000000028,
          "velocity": 0.7874015748031497,
          "duration": 0.30000000000001137
        },
        {
          "name": "A3",
          "midi": 57,
          "time": 151.50000000000028,
          "velocity": 0.7874015748031497,
          "duration": 0.30000000000001137
        },
        {
          "name": "E3",
          "midi": 52,
          "time": 151.8000000000003,
          "velocity": 0.7874015748031497,
          "duration": 0.15000000000000568
        },
        {
          "name": "B3",
          "midi": 59,
          "time": 151.8000000000003,
          "velocity": 0.7874015748031497,
          "duration": 0.15000000000000568
        },
        {
          "name": "E3",
          "midi": 52,
          "time": 152.7000000000003,
          "velocity": 0.7874015748031497,
          "duration": 0.15000000000000568
        },
        {
          "name": "B3",
          "midi": 59,
          "time": 152.7000000000003,
          "velocity": 0.7874015748031497,
          "duration": 0.15000000000000568
        },
        {
          "name": "E3",
          "midi": 52,
          "time": 153.6000000000003,
          "velocity": 0.7874015748031497,
          "duration": 0.30000000000001137
        },
        {
          "name": "B3",
          "midi": 59,
          "time": 153.6000000000003,
          "velocity": 0.7874015748031497,
          "duration": 0.30000000000001137
        },
        {
          "name": "D3",
          "midi": 50,
          "time": 153.90000000000032,
          "velocity": 0.7874015748031497,
          "duration": 0.30000000000001137
        },
        {
          "name": "A3",
          "midi": 57,
          "time": 153.90000000000032,
          "velocity": 0.7874015748031497,
          "duration": 0.30000000000001137
        },
        {
          "name": "E3",
          "midi": 52,
          "time": 154.20000000000033,
          "velocity": 0.7874015748031497,
          "duration": 0.15000000000000568
        },
        {
          "name": "B3",
          "midi": 59,
          "time": 154.20000000000033,
          "velocity": 0.7874015748031497,
          "duration": 0.15000000000000568
        },
        {
          "name": "E3",
          "midi": 52,
          "time": 155.10000000000034,
          "velocity": 0.7874015748031497,
          "duration": 0.15000000000000568
        },
        {
          "name": "B3",
          "midi": 59,
          "time": 155.10000000000034,
          "velocity": 0.7874015748031497,
          "duration": 0.15000000000000568
        },
        {
          "name": "C3",
          "midi": 48,
          "time": 156.00000000000034,
          "velocity": 0.7874015748031497,
          "duration": 0.30000000000001137
        },
        {
          "name": "G3",
          "midi": 55,
          "time": 156.00000000000034,
          "velocity": 0.7874015748031497,
          "duration": 0.30000000000001137
        },
        {
          "name": "D3",
          "midi": 50,
          "time": 156.30000000000035,
          "velocity": 0.7874015748031497,
          "duration": 0.30000000000001137
        },
        {
          "name": "A3",
          "midi": 57,
          "time": 156.30000000000035,
          "velocity": 0.7874015748031497,
          "duration": 0.30000000000001137
        },
        {
          "name": "E3",
          "midi": 52,
          "time": 156.60000000000036,
          "velocity": 0.7874015748031497,
          "duration": 0.15000000000000568
        },
        {
          "name": "B3",
          "midi": 59,
          "time": 156.60000000000036,
          "velocity": 0.7874015748031497,
          "duration": 0.15000000000000568
        },
        {
          "name": "E3",
          "midi": 52,
          "time": 157.50000000000037,
          "velocity": 0.7874015748031497,
          "duration": 0.15000000000000568
        },
        {
          "name": "B3",
          "midi": 59,
          "time": 157.50000000000037,
          "velocity": 0.7874015748031497,
          "duration": 0.15000000000000568
        },
        {
          "name": "E3",
          "midi": 52,
          "time": 158.40000000000038,
          "velocity": 0.7874015748031497,
          "duration": 0.30000000000001137
        },
        {
          "name": "B3",
          "midi": 59,
          "time": 158.40000000000038,
          "velocity": 0.7874015748031497,
          "duration": 0.30000000000001137
        },
        {
          "name": "D3",
          "midi": 50,
          "time": 158.7000000000004,
          "velocity": 0.7874015748031497,
          "duration": 0.30000000000001137
        },
        {
          "name": "A3",
          "midi": 57,
          "time": 158.7000000000004,
          "velocity": 0.7874015748031497,
          "duration": 0.30000000000001137
        },
        {
          "name": "E3",
          "midi": 52,
          "time": 159.0000000000004,
          "velocity": 0.7874015748031497,
          "duration": 0.15000000000000568
        },
        {
          "name": "B3",
          "midi": 59,
          "time": 159.0000000000004,
          "velocity": 0.7874015748031497,
          "duration": 0.15000000000000568
        },
        {
          "name": "E3",
          "midi": 52,
          "time": 159.9000000000004,
          "velocity": 0.7874015748031497,
          "duration": 0.15000000000000568
        },
        {
          "name": "B3",
          "midi": 59,
          "time": 159.9000000000004,
          "velocity": 0.7874015748031497,
          "duration": 0.15000000000000568
        },
        {
          "name": "C3",
          "midi": 48,
          "time": 160.8000000000004,
          "velocity": 0.7874015748031497,
          "duration": 0.30000000000001137
        },
        {
          "name": "G3",
          "midi": 55,
          "time": 160.8000000000004,
          "velocity": 0.7874015748031497,
          "duration": 0.30000000000001137
        },
        {
          "name": "D3",
          "midi": 50,
          "time": 161.10000000000042,
          "velocity": 0.7874015748031497,
          "duration": 0.30000000000001137
        },
        {
          "name": "A3",
          "midi": 57,
          "time": 161.10000000000042,
          "velocity": 0.7874015748031497,
          "duration": 0.30000000000001137
        },
        {
          "name": "E3",
          "midi": 52,
          "time": 161.40000000000043,
          "velocity": 0.7874015748031497,
          "duration": 0.15000000000000568
        },
        {
          "name": "B3",
          "midi": 59,
          "time": 161.40000000000043,
          "velocity": 0.7874015748031497,
          "duration": 0.15000000000000568
        },
        {
          "name": "E3",
          "midi": 52,
          "time": 162.30000000000044,
          "velocity": 0.7874015748031497,
          "duration": 0.15000000000000568
        },
        {
          "name": "B3",
          "midi": 59,
          "time": 162.30000000000044,
          "velocity": 0.7874015748031497,
          "duration": 0.15000000000000568
        },
        {
          "name": "E3",
          "midi": 52,
          "time": 163.20000000000044,
          "velocity": 0.7874015748031497,
          "duration": 0.30000000000001137
        },
        {
          "name": "B3",
          "midi": 59,
          "time": 163.20000000000044,
          "velocity": 0.7874015748031497,
          "duration": 0.30000000000001137
        },
        {
          "name": "D3",
          "midi": 50,
          "time": 163.50000000000045,
          "velocity": 0.7874015748031497,
          "duration": 0.30000000000001137
        },
        {
          "name": "A3",
          "midi": 57,
          "time": 163.50000000000045,
          "velocity": 0.7874015748031497,
          "duration": 0.30000000000001137
        },
        {
          "name": "E3",
          "midi": 52,
          "time": 163.80000000000047,
          "velocity": 0.7874015748031497,
          "duration": 0.15000000000000568
        },
        {
          "name": "B3",
          "midi": 59,
          "time": 163.80000000000047,
          "velocity": 0.7874015748031497,
          "duration": 0.15000000000000568
        },
        {
          "name": "E3",
          "midi": 52,
          "time": 164.70000000000047,
          "velocity": 0.7874015748031497,
          "duration": 0.15000000000000568
        },
        {
          "name": "B3",
          "midi": 59,
          "time": 164.70000000000047,
          "velocity": 0.7874015748031497,
          "duration": 0.15000000000000568
        },
        {
          "name": "C3",
          "midi": 48,
          "time": 165.60000000000048,
          "velocity": 0.7874015748031497,
          "duration": 0.30000000000001137
        },
        {
          "name": "G3",
          "midi": 55,
          "time": 165.60000000000048,
          "velocity": 0.7874015748031497,
          "duration": 0.30000000000001137
        },
        {
          "name": "D3",
          "midi": 50,
          "time": 165.9000000000005,
          "velocity": 0.7874015748031497,
          "duration": 0.30000000000001137
        },
        {
          "name": "A3",
          "midi": 57,
          "time": 165.9000000000005,
          "velocity": 0.7874015748031497,
          "duration": 0.30000000000001137
        },
        {
          "name": "E5",
          "midi": 76,
          "time": 166.2000000000005,
          "velocity": 0.7874015748031497,
          "duration": 0.07499999999998863
        },
        {
          "name": "C#5",
          "midi": 73,
          "time": 166.50000000000048,
          "velocity": 0.7874015748031497,
          "duration": 0.15000000000000568
        },
        {
          "name": "C#5",
          "midi": 73,
          "time": 166.8000000000005,
          "velocity": 0.7874015748031497,
          "duration": 1.5
        },
        {
          "name": "C#5",
          "midi": 73,
          "time": 168.4500000000005,
          "velocity": 0.7874015748031497,
          "duration": 0.15000000000000568
        },
        {
          "name": "D5",
          "midi": 74,
          "time": 168.6000000000005,
          "velocity": 0.7874015748031497,
          "duration": 0.9000000000000057
        },
        {
          "name": "E5",
          "midi": 76,
          "time": 169.80000000000052,
          "velocity": 0.7874015748031497,
          "duration": 1.1999999999999886
        },
        {
          "name": "F#5",
          "midi": 78,
          "time": 171.0000000000005,
          "velocity": 0.7874015748031497,
          "duration": 0.07499999999998863
        },
        {
          "name": "C#5",
          "midi": 73,
          "time": 171.3000000000005,
          "velocity": 0.7874015748031497,
          "duration": 0.15000000000000568
        },
        {
          "name": "C#5",
          "midi": 73,
          "time": 171.6000000000005,
          "velocity": 0.7874015748031497,
          "duration": 1.5
        },
        {
          "name": "D5",
          "midi": 74,
          "time": 173.40000000000052,
          "velocity": 0.7874015748031497,
          "duration": 0.9000000000000057
        },
        {
          "name": "E5",
          "midi": 76,
          "time": 174.60000000000053,
          "velocity": 0.7874015748031497,
          "duration": 0.5999999999999943
        },
        {
          "name": "E5",
          "midi": 76,
          "time": 175.80000000000052,
          "velocity": 0.7874015748031497,
          "duration": 0.07499999999998863
        },
        {
          "name": "C#5",
          "midi": 73,
          "time": 176.1000000000005,
          "velocity": 0.7874015748031497,
          "duration": 0.15000000000000568
        },
        {
          "name": "C#5",
          "midi": 73,
          "time": 176.40000000000052,
          "velocity": 0.7874015748031497,
          "duration": 1.5
        },
        {
          "name": "E4",
          "midi": 64,
          "time": 177.89750000000052,
          "velocity": 0.7874015748031497,
          "duration": 0.15000000000000568
        },
        {
          "name": "E4",
          "midi": 64,
          "time": 178.20000000000053,
          "velocity": 0.7874015748031497,
          "duration": 0.15125000000000455
        },
        {
          "name": "E4",
          "midi": 64,
          "time": 178.50000000000054,
          "velocity": 0.7874015748031497,
          "duration": 0.15000000000000568
        },
        {
          "name": "G4",
          "midi": 67,
          "time": 178.80000000000055,
          "velocity": 0.7874015748031497,
          "duration": 0.15000000000000568
        },
        {
          "name": "G4",
          "midi": 67,
          "time": 179.25000000000057,
          "velocity": 0.7874015748031497,
          "duration": 0.15000000000000568
        },
        {
          "name": "A4",
          "midi": 69,
          "time": 179.40000000000057,
          "velocity": 0.7874015748031497,
          "duration": 0.15000000000000568
        },
        {
          "name": "A4",
          "midi": 69,
          "time": 179.8500000000006,
          "velocity": 0.7874015748031497,
          "duration": 0.15000000000000568
        },
        {
          "name": "B4",
          "midi": 71,
          "time": 180.0000000000006,
          "velocity": 0.7874015748031497,
          "duration": 0.15000000000000568
        },
        {
          "name": "B4",
          "midi": 71,
          "time": 180.4500000000006,
          "velocity": 0.7874015748031497,
          "duration": 0.14750000000000796
        },
        {
          "name": "D5",
          "midi": 74,
          "time": 180.60000000000062,
          "velocity": 0.7874015748031497,
          "duration": 0.15000000000000568
        },
        {
          "name": "C5",
          "midi": 72,
          "time": 180.90000000000063,
          "velocity": 0.7874015748031497,
          "duration": 0.15000000000000568
        },
        {
          "name": "A4",
          "midi": 69,
          "time": 181.20000000000064,
          "velocity": 0.7874015748031497,
          "duration": 0.15000000000000568
        },
        {
          "name": "F#4",
          "midi": 66,
          "time": 181.80000000000064,
          "velocity": 0.7874015748031497,
          "duration": 0.14750000000000796
        },
        {
          "name": "E4",
          "midi": 64,
          "time": 182.40000000000063,
          "velocity": 0.7874015748031497,
          "duration": 0.15000000000000568
        },
        {
          "name": "E4",
          "midi": 64,
          "time": 182.70000000000064,
          "velocity": 0.7874015748031497,
          "duration": 0.15000000000000568
        },
        {
          "name": "E4",
          "midi": 64,
          "time": 183.00250000000065,
          "velocity": 0.7874015748031497,
          "duration": 0.15125000000000455
        },
        {
          "name": "E4",
          "midi": 64,
          "time": 183.30250000000066,
          "velocity": 0.7874015748031497,
          "duration": 0.15000000000000568
        },
        {
          "name": "G4",
          "midi": 67,
          "time": 183.60250000000067,
          "velocity": 0.7874015748031497,
          "duration": 0.15000000000000568
        },
        {
          "name": "G4",
          "midi": 67,
          "time": 184.0525000000007,
          "velocity": 0.7874015748031497,
          "duration": 0.15000000000000568
        },
        {
          "name": "A4",
          "midi": 69,
          "time": 184.2025000000007,
          "velocity": 0.7874015748031497,
          "duration": 0.15000000000000568
        },
        {
          "name": "A4",
          "midi": 69,
          "time": 184.6525000000007,
          "velocity": 0.7874015748031497,
          "duration": 0.15000000000000568
        },
        {
          "name": "B4",
          "midi": 71,
          "time": 184.80250000000072,
          "velocity": 0.7874015748031497,
          "duration": 0.15000000000000568
        },
        {
          "name": "B4",
          "midi": 71,
          "time": 185.25250000000074,
          "velocity": 0.7874015748031497,
          "duration": 0.14750000000000796
        },
        {
          "name": "D5",
          "midi": 74,
          "time": 185.40250000000074,
          "velocity": 0.7874015748031497,
          "duration": 0.15000000000000568
        },
        {
          "name": "C5",
          "midi": 72,
          "time": 185.70250000000075,
          "velocity": 0.7874015748031497,
          "duration": 0.15000000000000568
        },
        {
          "name": "A4",
          "midi": 69,
          "time": 186.00250000000077,
          "velocity": 0.7874015748031497,
          "duration": 0.15000000000000568
        },
        {
          "name": "F#4",
          "midi": 66,
          "time": 186.60250000000076,
          "velocity": 0.7874015748031497,
          "duration": 0.14750000000000796
        },
        {
          "name": "D4",
          "midi": 62,
          "time": 186.90250000000077,
          "velocity": 0.7874015748031497,
          "duration": 0.22499999999999432
        },
        {
          "name": "E4",
          "midi": 64,
          "time": 187.20250000000075,
          "velocity": 0.7874015748031497,
          "duration": 0.375
        },
        {
          "name": "E5",
          "midi": 76,
          "time": 187.80000000000075,
          "velocity": 0.7874015748031497,
          "duration": 0.15000000000000568
        },
        {
          "name": "B4",
          "midi": 71,
          "time": 188.25000000000077,
          "velocity": 0.7874015748031497,
          "duration": 0.15000000000000568
        },
        {
          "name": "C5",
          "midi": 72,
          "time": 188.40125000000077,
          "velocity": 0.7874015748031497,
          "duration": 0.15000000000000568
        },
        {
          "name": "B4",
          "midi": 71,
          "time": 188.8500000000008,
          "velocity": 0.7874015748031497,
          "duration": 0.15000000000000568
        },
        {
          "name": "D5",
          "midi": 74,
          "time": 189.0000000000008,
          "velocity": 0.7874015748031497,
          "duration": 0.15000000000000568
        },
        {
          "name": "A4",
          "midi": 69,
          "time": 189.4500000000008,
          "velocity": 0.7874015748031497,
          "duration": 0.15000000000000568
        },
        {
          "name": "B4",
          "midi": 71,
          "time": 189.60000000000082,
          "velocity": 0.7874015748031497,
          "duration": 0.15000000000000568
        },
        {
          "name": "A4",
          "midi": 69,
          "time": 190.05000000000084,
          "velocity": 0.7874015748031497,
          "duration": 0.15000000000000568
        },
        {
          "name": "C5",
          "midi": 72,
          "time": 190.20000000000084,
          "velocity": 0.7874015748031497,
          "duration": 0.15000000000000568
        },
        {
          "name": "G4",
          "midi": 67,
          "time": 190.65000000000086,
          "velocity": 0.7874015748031497,
          "duration": 0.15000000000000568
        },
        {
          "name": "A4",
          "midi": 69,
          "time": 190.80000000000086,
          "velocity": 0.7874015748031497,
          "duration": 0.15000000000000568
        },
        {
          "name": "F#4",
          "midi": 66,
          "time": 191.40000000000086,
          "velocity": 0.7874015748031497,
          "duration": 0.22374999999999545
        },
        {
          "name": "D4",
          "midi": 62,
          "time": 191.70000000000084,
          "velocity": 0.7874015748031497,
          "duration": 0.22499999999999432
        },
        {
          "name": "E4",
          "midi": 64,
          "time": 192.00000000000082,
          "velocity": 0.7874015748031497,
          "duration": 0.375
        },
        {
          "name": "E5",
          "midi": 76,
          "time": 192.60000000000082,
          "velocity": 0.7874015748031497,
          "duration": 0.15000000000000568
        },
        {
          "name": "B4",
          "midi": 71,
          "time": 193.05000000000084,
          "velocity": 0.7874015748031497,
          "duration": 0.15000000000000568
        },
        {
          "name": "C5",
          "midi": 72,
          "time": 193.20125000000084,
          "velocity": 0.7874015748031497,
          "duration": 0.15000000000000568
        },
        {
          "name": "B4",
          "midi": 71,
          "time": 193.65000000000086,
          "velocity": 0.7874015748031497,
          "duration": 0.15000000000000568
        },
        {
          "name": "D5",
          "midi": 74,
          "time": 193.80000000000086,
          "velocity": 0.7874015748031497,
          "duration": 0.15000000000000568
        },
        {
          "name": "A4",
          "midi": 69,
          "time": 194.25000000000088,
          "velocity": 0.7874015748031497,
          "duration": 0.15000000000000568
        },
        {
          "name": "B4",
          "midi": 71,
          "time": 194.4000000000009,
          "velocity": 0.7874015748031497,
          "duration": 0.15000000000000568
        },
        {
          "name": "A4",
          "midi": 69,
          "time": 194.8500000000009,
          "velocity": 0.7874015748031497,
          "duration": 0.15000000000000568
        },
        {
          "name": "C5",
          "midi": 72,
          "time": 195.0000000000009,
          "velocity": 0.7874015748031497,
          "duration": 0.15000000000000568
        },
        {
          "name": "G4",
          "midi": 67,
          "time": 195.45000000000093,
          "velocity": 0.7874015748031497,
          "duration": 0.15000000000000568
        },
        {
          "name": "A4",
          "midi": 69,
          "time": 195.60000000000093,
          "velocity": 0.7874015748031497,
          "duration": 0.15000000000000568
        },
        {
          "name": "F#4",
          "midi": 66,
          "time": 196.20000000000093,
          "velocity": 0.7874015748031497,
          "duration": 0.22374999999999545
        },
        {
          "name": "D4",
          "midi": 62,
          "time": 196.5000000000009,
          "velocity": 0.7874015748031497,
          "duration": 0.22499999999999432
        },
        {
          "name": "E4",
          "midi": 64,
          "time": 196.8000000000009,
          "velocity": 0.7874015748031497,
          "duration": 0.44999999999998863
        },
        {
          "name": "G3",
          "midi": 55,
          "time": 197.4000000000009,
          "velocity": 0.7874015748031497,
          "duration": 0.15000000000000568
        },
        {
          "name": "D4",
          "midi": 62,
          "time": 197.4000000000009,
          "velocity": 0.7874015748031497,
          "duration": 0.15000000000000568
        },
        {
          "name": "D3",
          "midi": 50,
          "time": 198.00000000000088,
          "velocity": 0.7874015748031497,
          "duration": 0.15000000000000568
        },
        {
          "name": "A3",
          "midi": 57,
          "time": 198.00000000000088,
          "velocity": 0.7874015748031497,
          "duration": 0.15000000000000568
        },
        {
          "name": "E3",
          "midi": 52,
          "time": 198.60000000000088,
          "velocity": 0.7874015748031497,
          "duration": 0.15000000000000568
        },
        {
          "name": "B3",
          "midi": 59,
          "time": 198.60000000000088,
          "velocity": 0.7874015748031497,
          "duration": 0.15000000000000568
        },
        {
          "name": "E3",
          "midi": 52,
          "time": 199.19875000000087,
          "velocity": 0.7874015748031497,
          "duration": 0.30125000000001023
        },
        {
          "name": "B3",
          "midi": 59,
          "time": 199.20000000000087,
          "velocity": 0.7874015748031497,
          "duration": 0.30000000000001137
        },
        {
          "name": "C3",
          "midi": 48,
          "time": 199.8000000000009,
          "velocity": 0.7874015748031497,
          "duration": 0.15000000000000568
        },
        {
          "name": "G3",
          "midi": 55,
          "time": 199.8000000000009,
          "velocity": 0.7874015748031497,
          "duration": 0.15000000000000568
        },
        {
          "name": "D3",
          "midi": 50,
          "time": 200.4000000000009,
          "velocity": 0.7874015748031497,
          "duration": 0.15000000000000568
        },
        {
          "name": "A3",
          "midi": 57,
          "time": 200.4000000000009,
          "velocity": 0.7874015748031497,
          "duration": 0.15000000000000568
        },
        {
          "name": "G3",
          "midi": 55,
          "time": 201.00000000000088,
          "velocity": 0.7874015748031497,
          "duration": 0.44999999999998863
        },
        {
          "name": "D4",
          "midi": 62,
          "time": 201.00000000000088,
          "velocity": 0.7874015748031497,
          "duration": 0.44999999999998863
        },
        {
          "name": "G3",
          "midi": 55,
          "time": 201.60000000000088,
          "velocity": 0.7874015748031497,
          "duration": 0.30000000000001137
        },
        {
          "name": "D4",
          "midi": 62,
          "time": 201.60000000000088,
          "velocity": 0.7874015748031497,
          "duration": 0.30000000000001137
        },
        {
          "name": "G3",
          "midi": 55,
          "time": 202.2000000000009,
          "velocity": 0.7874015748031497,
          "duration": 0.15000000000000568
        },
        {
          "name": "D4",
          "midi": 62,
          "time": 202.2000000000009,
          "velocity": 0.7874015748031497,
          "duration": 0.15000000000000568
        },
        {
          "name": "D3",
          "midi": 50,
          "time": 202.8000000000009,
          "velocity": 0.7874015748031497,
          "duration": 0.15000000000000568
        },
        {
          "name": "A3",
          "midi": 57,
          "time": 202.8000000000009,
          "velocity": 0.7874015748031497,
          "duration": 0.15000000000000568
        },
        {
          "name": "E3",
          "midi": 52,
          "time": 203.4000000000009,
          "velocity": 0.7874015748031497,
          "duration": 0.15000000000000568
        },
        {
          "name": "B3",
          "midi": 59,
          "time": 203.4000000000009,
          "velocity": 0.7874015748031497,
          "duration": 0.15000000000000568
        },
        {
          "name": "E3",
          "midi": 52,
          "time": 203.99875000000088,
          "velocity": 0.7874015748031497,
          "duration": 0.30125000000001023
        },
        {
          "name": "B3",
          "midi": 59,
          "time": 204.00000000000088,
          "velocity": 0.7874015748031497,
          "duration": 0.30000000000001137
        },
        {
          "name": "C3",
          "midi": 48,
          "time": 204.6000000000009,
          "velocity": 0.7874015748031497,
          "duration": 0.15000000000000568
        },
        {
          "name": "G3",
          "midi": 55,
          "time": 204.6000000000009,
          "velocity": 0.7874015748031497,
          "duration": 0.15000000000000568
        },
        {
          "name": "B2",
          "midi": 47,
          "time": 205.2000000000009,
          "velocity": 0.7874015748031497,
          "duration": 0.15000000000000568
        },
        {
          "name": "F#3",
          "midi": 54,
          "time": 205.2000000000009,
          "velocity": 0.7874015748031497,
          "duration": 0.15000000000000568
        },
        {
          "name": "E2",
          "midi": 40,
          "time": 205.8000000000009,
          "velocity": 0.7874015748031497,
          "duration": 0.15000000000000568
        },
        {
          "name": "E2",
          "midi": 40,
          "time": 206.4000000000009,
          "velocity": 0.7874015748031497,
          "duration": 0.5925000000000011
        },
        {
          "name": "B2",
          "midi": 47,
          "time": 206.4000000000009,
          "velocity": 0.7874015748031497,
          "duration": 0.5925000000000011
        },
        {
          "name": "G2",
          "midi": 43,
          "time": 207.00000000000088,
          "velocity": 0.7874015748031497,
          "duration": 0.15000000000000568
        },
        {
          "name": "G2",
          "midi": 43,
          "time": 207.60000000000088,
          "velocity": 0.7874015748031497,
          "duration": 0.15000000000000568
        },
        {
          "name": "D3",
          "midi": 50,
          "time": 208.20000000000087,
          "velocity": 0.7874015748031497,
          "duration": 0.15000000000000568
        },
        {
          "name": "D3",
          "midi": 50,
          "time": 208.80000000000086,
          "velocity": 0.7874015748031497,
          "duration": 0.15000000000000568
        },
        {
          "name": "E3",
          "midi": 52,
          "time": 209.40000000000086,
          "velocity": 0.7874015748031497,
          "duration": 0.15000000000000568
        },
        {
          "name": "E3",
          "midi": 52,
          "time": 210.00000000000085,
          "velocity": 0.7874015748031497,
          "duration": 0.15000000000000568
        },
        {
          "name": "B2",
          "midi": 47,
          "time": 210.60000000000085,
          "velocity": 0.7874015748031497,
          "duration": 0.44999999999998863
        },
        {
          "name": "F#3",
          "midi": 54,
          "time": 210.60000000000085,
          "velocity": 0.7874015748031497,
          "duration": 0.44999999999998863
        },
        {
          "name": "B2",
          "midi": 47,
          "time": 211.20000000000084,
          "velocity": 0.7874015748031497,
          "duration": 0.30000000000001137
        },
        {
          "name": "F#3",
          "midi": 54,
          "time": 211.20000000000084,
          "velocity": 0.7874015748031497,
          "duration": 0.30000000000001137
        },
        {
          "name": "G3",
          "midi": 55,
          "time": 211.80000000000086,
          "velocity": 0.7874015748031497,
          "duration": 0.15000000000000568
        },
        {
          "name": "D4",
          "midi": 62,
          "time": 211.80000000000086,
          "velocity": 0.7874015748031497,
          "duration": 0.15000000000000568
        },
        {
          "name": "D3",
          "midi": 50,
          "time": 212.40000000000086,
          "velocity": 0.7874015748031497,
          "duration": 0.15000000000000568
        },
        {
          "name": "A3",
          "midi": 57,
          "time": 212.40000000000086,
          "velocity": 0.7874015748031497,
          "duration": 0.15000000000000568
        },
        {
          "name": "E3",
          "midi": 52,
          "time": 213.00000000000085,
          "velocity": 0.7874015748031497,
          "duration": 0.15000000000000568
        },
        {
          "name": "B3",
          "midi": 59,
          "time": 213.00000000000085,
          "velocity": 0.7874015748031497,
          "duration": 0.15000000000000568
        },
        {
          "name": "E3",
          "midi": 52,
          "time": 213.59875000000085,
          "velocity": 0.7874015748031497,
          "duration": 0.30125000000001023
        },
        {
          "name": "B3",
          "midi": 59,
          "time": 213.60000000000085,
          "velocity": 0.7874015748031497,
          "duration": 0.30000000000001137
        },
        {
          "name": "C3",
          "midi": 48,
          "time": 214.20000000000087,
          "velocity": 0.7874015748031497,
          "duration": 0.15000000000000568
        },
        {
          "name": "G3",
          "midi": 55,
          "time": 214.20000000000087,
          "velocity": 0.7874015748031497,
          "duration": 0.15000000000000568
        },
        {
          "name": "D3",
          "midi": 50,
          "time": 214.80000000000086,
          "velocity": 0.7874015748031497,
          "duration": 0.15000000000000568
        },
        {
          "name": "A3",
          "midi": 57,
          "time": 214.80000000000086,
          "velocity": 0.7874015748031497,
          "duration": 0.15000000000000568
        },
        {
          "name": "G3",
          "midi": 55,
          "time": 215.40000000000086,
          "velocity": 0.7874015748031497,
          "duration": 0.44999999999998863
        },
        {
          "name": "D4",
          "midi": 62,
          "time": 215.40000000000086,
          "velocity": 0.7874015748031497,
          "duration": 0.44999999999998863
        },
        {
          "name": "G3",
          "midi": 55,
          "time": 216.00000000000085,
          "velocity": 0.7874015748031497,
          "duration": 0.44999999999998863
        },
        {
          "name": "D4",
          "midi": 62,
          "time": 216.00000000000085,
          "velocity": 0.7874015748031497,
          "duration": 0.44999999999998863
        },
        {
          "name": "A#2",
          "midi": 46,
          "time": 216.60000000000085,
          "velocity": 0.7874015748031497,
          "duration": 0.15000000000000568
        },
        {
          "name": "F3",
          "midi": 53,
          "time": 216.60000000000085,
          "velocity": 0.7874015748031497,
          "duration": 0.15000000000000568
        },
        {
          "name": "F2",
          "midi": 41,
          "time": 217.20000000000084,
          "velocity": 0.7874015748031497,
          "duration": 0.15000000000000568
        },
        {
          "name": "C3",
          "midi": 48,
          "time": 217.20000000000084,
          "velocity": 0.7874015748031497,
          "duration": 0.15000000000000568
        },
        {
          "name": "G2",
          "midi": 43,
          "time": 217.80000000000084,
          "velocity": 0.7874015748031497,
          "duration": 0.15000000000000568
        },
        {
          "name": "D3",
          "midi": 50,
          "time": 217.80000000000084,
          "velocity": 0.7874015748031497,
          "duration": 0.15000000000000568
        },
        {
          "name": "G2",
          "midi": 43,
          "time": 218.39875000000083,
          "velocity": 0.7874015748031497,
          "duration": 0.30125000000001023
        },
        {
          "name": "D3",
          "midi": 50,
          "time": 218.40000000000083,
          "velocity": 0.7874015748031497,
          "duration": 0.30000000000001137
        },
        {
          "name": "D#2",
          "midi": 39,
          "time": 219.00000000000085,
          "velocity": 0.7874015748031497,
          "duration": 0.15000000000000568
        },
        {
          "name": "A#2",
          "midi": 46,
          "time": 219.00000000000085,
          "velocity": 0.7874015748031497,
          "duration": 0.15000000000000568
        },
        {
          "name": "F2",
          "midi": 41,
          "time": 219.60000000000085,
          "velocity": 0.7874015748031497,
          "duration": 0.15000000000000568
        },
        {
          "name": "C3",
          "midi": 48,
          "time": 219.60000000000085,
          "velocity": 0.7874015748031497,
          "duration": 0.15000000000000568
        },
        {
          "name": "A#2",
          "midi": 46,
          "time": 220.20000000000084,
          "velocity": 0.7874015748031497,
          "duration": 0.44999999999998863
        },
        {
          "name": "F3",
          "midi": 53,
          "time": 220.20000000000084,
          "velocity": 0.7874015748031497,
          "duration": 0.44999999999998863
        },
        {
          "name": "A#2",
          "midi": 46,
          "time": 220.80000000000084,
          "velocity": 0.7874015748031497,
          "duration": 0.30000000000001137
        },
        {
          "name": "F3",
          "midi": 53,
          "time": 220.80000000000084,
          "velocity": 0.7874015748031497,
          "duration": 0.30000000000001137
        },
        {
          "name": "A#2",
          "midi": 46,
          "time": 221.40000000000086,
          "velocity": 0.7874015748031497,
          "duration": 0.15000000000000568
        },
        {
          "name": "F3",
          "midi": 53,
          "time": 221.40000000000086,
          "velocity": 0.7874015748031497,
          "duration": 0.15000000000000568
        },
        {
          "name": "F2",
          "midi": 41,
          "time": 222.00000000000085,
          "velocity": 0.7874015748031497,
          "duration": 0.15000000000000568
        },
        {
          "name": "C3",
          "midi": 48,
          "time": 222.00000000000085,
          "velocity": 0.7874015748031497,
          "duration": 0.15000000000000568
        },
        {
          "name": "G2",
          "midi": 43,
          "time": 222.60000000000085,
          "velocity": 0.7874015748031497,
          "duration": 0.15000000000000568
        },
        {
          "name": "D3",
          "midi": 50,
          "time": 222.60000000000085,
          "velocity": 0.7874015748031497,
          "duration": 0.15000000000000568
        },
        {
          "name": "G2",
          "midi": 43,
          "time": 223.19875000000084,
          "velocity": 0.7874015748031497,
          "duration": 0.30125000000001023
        },
        {
          "name": "D3",
          "midi": 50,
          "time": 223.20000000000084,
          "velocity": 0.7874015748031497,
          "duration": 0.30000000000001137
        },
        {
          "name": "D#2",
          "midi": 39,
          "time": 223.80000000000086,
          "velocity": 0.7874015748031497,
          "duration": 0.15000000000000568
        },
        {
          "name": "A#2",
          "midi": 46,
          "time": 223.80000000000086,
          "velocity": 0.7874015748031497,
          "duration": 0.15000000000000568
        },
        {
          "name": "D2",
          "midi": 38,
          "time": 224.40000000000086,
          "velocity": 0.7874015748031497,
          "duration": 0.15000000000000568
        },
        {
          "name": "A2",
          "midi": 45,
          "time": 224.40000000000086,
          "velocity": 0.7874015748031497,
          "duration": 0.15000000000000568
        },
        {
          "name": "G1",
          "midi": 31,
          "time": 225.00000000000085,
          "velocity": 0.7874015748031497,
          "duration": 0.15000000000000568
        },
        {
          "name": "G1",
          "midi": 31,
          "time": 225.60000000000085,
          "velocity": 0.7874015748031497,
          "duration": 0.5925000000000011
        },
        {
          "name": "D2",
          "midi": 38,
          "time": 225.60000000000085,
          "velocity": 0.7874015748031497,
          "duration": 0.5925000000000011
        },
        {
          "name": "A#1",
          "midi": 34,
          "time": 226.20000000000084,
          "velocity": 0.7874015748031497,
          "duration": 0.15000000000000568
        },
        {
          "name": "A#1",
          "midi": 34,
          "time": 226.80000000000084,
          "velocity": 0.7874015748031497,
          "duration": 0.15000000000000568
        },
        {
          "name": "F2",
          "midi": 41,
          "time": 227.40000000000083,
          "velocity": 0.7874015748031497,
          "duration": 0.15000000000000568
        },
        {
          "name": "F2",
          "midi": 41,
          "time": 228.00000000000082,
          "velocity": 0.7874015748031497,
          "duration": 0.15000000000000568
        },
        {
          "name": "G2",
          "midi": 43,
          "time": 228.60000000000082,
          "velocity": 0.7874015748031497,
          "duration": 0.15000000000000568
        },
        {
          "name": "G2",
          "midi": 43,
          "time": 229.2000000000008,
          "velocity": 0.7874015748031497,
          "duration": 0.15000000000000568
        },
        {
          "name": "D2",
          "midi": 38,
          "time": 229.8000000000008,
          "velocity": 0.7874015748031497,
          "duration": 0.44999999999998863
        },
        {
          "name": "A2",
          "midi": 45,
          "time": 229.8000000000008,
          "velocity": 0.7874015748031497,
          "duration": 0.44999999999998863
        },
        {
          "name": "D2",
          "midi": 38,
          "time": 230.4000000000008,
          "velocity": 0.7874015748031497,
          "duration": 0.30000000000001137
        },
        {
          "name": "A2",
          "midi": 45,
          "time": 230.4000000000008,
          "velocity": 0.7874015748031497,
          "duration": 0.30000000000001137
        },
        {
          "name": "A#2",
          "midi": 46,
          "time": 231.00000000000082,
          "velocity": 0.7874015748031497,
          "duration": 0.15000000000000568
        },
        {
          "name": "F3",
          "midi": 53,
          "time": 231.00000000000082,
          "velocity": 0.7874015748031497,
          "duration": 0.15000000000000568
        },
        {
          "name": "F2",
          "midi": 41,
          "time": 231.60000000000082,
          "velocity": 0.7874015748031497,
          "duration": 0.15000000000000568
        },
        {
          "name": "C3",
          "midi": 48,
          "time": 231.60000000000082,
          "velocity": 0.7874015748031497,
          "duration": 0.15000000000000568
        },
        {
          "name": "G2",
          "midi": 43,
          "time": 232.2000000000008,
          "velocity": 0.7874015748031497,
          "duration": 0.15000000000000568
        },
        {
          "name": "D3",
          "midi": 50,
          "time": 232.2000000000008,
          "velocity": 0.7874015748031497,
          "duration": 0.15000000000000568
        },
        {
          "name": "G2",
          "midi": 43,
          "time": 232.7987500000008,
          "velocity": 0.7874015748031497,
          "duration": 0.30125000000001023
        },
        {
          "name": "D3",
          "midi": 50,
          "time": 232.8000000000008,
          "velocity": 0.7874015748031497,
          "duration": 0.30000000000001137
        },
        {
          "name": "D#2",
          "midi": 39,
          "time": 233.40000000000083,
          "velocity": 0.7874015748031497,
          "duration": 0.15000000000000568
        },
        {
          "name": "A#2",
          "midi": 46,
          "time": 233.40000000000083,
          "velocity": 0.7874015748031497,
          "duration": 0.15000000000000568
        },
        {
          "name": "F2",
          "midi": 41,
          "time": 234.00000000000082,
          "velocity": 0.7874015748031497,
          "duration": 0.15000000000000568
        },
        {
          "name": "C3",
          "midi": 48,
          "time": 234.00000000000082,
          "velocity": 0.7874015748031497,
          "duration": 0.15000000000000568
        },
        {
          "name": "A#2",
          "midi": 46,
          "time": 234.60000000000082,
          "velocity": 0.7874015748031497,
          "duration": 0.44999999999998863
        },
        {
          "name": "F3",
          "midi": 53,
          "time": 234.60000000000082,
          "velocity": 0.7874015748031497,
          "duration": 0.44999999999998863
        },
        {
          "name": "A#2",
          "midi": 46,
          "time": 235.2000000000008,
          "velocity": 0.7874015748031497,
          "duration": 0.44999999999998863
        },
        {
          "name": "F3",
          "midi": 53,
          "time": 235.2000000000008,
          "velocity": 0.7874015748031497,
          "duration": 0.44999999999998863
        },
        {
          "name": "G5",
          "midi": 79,
          "time": 235.8000000000008,
          "velocity": 0.7874015748031497,
          "duration": 0.15000000000000568
        },
        {
          "name": "D5",
          "midi": 74,
          "time": 236.25000000000082,
          "velocity": 0.7874015748031497,
          "duration": 0.15000000000000568
        },
        {
          "name": "D#5",
          "midi": 75,
          "time": 236.40125000000083,
          "velocity": 0.7874015748031497,
          "duration": 0.15000000000000568
        },
        {
          "name": "D5",
          "midi": 74,
          "time": 236.85000000000085,
          "velocity": 0.7874015748031497,
          "duration": 0.15000000000000568
        },
        {
          "name": "F5",
          "midi": 77,
          "time": 237.00000000000085,
          "velocity": 0.7874015748031497,
          "duration": 0.15000000000000568
        },
        {
          "name": "C5",
          "midi": 72,
          "time": 237.45000000000087,
          "velocity": 0.7874015748031497,
          "duration": 0.15000000000000568
        },
        {
          "name": "D5",
          "midi": 74,
          "time": 237.60000000000088,
          "velocity": 0.7874015748031497,
          "duration": 0.15000000000000568
        },
        {
          "name": "C5",
          "midi": 72,
          "time": 238.0500000000009,
          "velocity": 0.7874015748031497,
          "duration": 0.15000000000000568
        },
        {
          "name": "D#5",
          "midi": 75,
          "time": 238.2000000000009,
          "velocity": 0.7874015748031497,
          "duration": 0.15000000000000568
        },
        {
          "name": "A#4",
          "midi": 70,
          "time": 238.65000000000092,
          "velocity": 0.7874015748031497,
          "duration": 0.15000000000000568
        },
        {
          "name": "C5",
          "midi": 72,
          "time": 238.80000000000092,
          "velocity": 0.7874015748031497,
          "duration": 0.15000000000000568
        },
        {
          "name": "A4",
          "midi": 69,
          "time": 239.40000000000092,
          "velocity": 0.7874015748031497,
          "duration": 0.22374999999999545
        },
        {
          "name": "F4",
          "midi": 65,
          "time": 239.7000000000009,
          "velocity": 0.7874015748031497,
          "duration": 0.22499999999999432
        },
        {
          "name": "G4",
          "midi": 67,
          "time": 240.00000000000088,
          "velocity": 0.7874015748031497,
          "duration": 0.5999999999999943
        }
      ],
      "controlChanges": {},
      "id": 1,
      "name": "Midi Intermediate Dentalist",
      "channelNumber": 0,
      "isPercussion": false
    }
  ]
}