{
  "header": {
    "PPQ": 480,
    "bpm": 150,
    "timeSignature": [
      4,
      4
    ],
    "name": "Dentalist Beginner Midi Git"
  },
  "tempo": [
    {
      "absoluteTime": 0,
      "seconds": 0,
      "bpm": 150
    }
  ],
  "timeSignature": [
    {
      "absoluteTime": 0,
      "seconds": 0,
      "numerator": 1,
      "denominator": 2,
      "click": 24,
      "notesQ": 8
    },
    {
      "absoluteTime": 1920,
      "seconds": 1.6,
      "numerator": 4,
      "denominator": 2,
      "click": 24,
      "notesQ": 8
    },
    {
      "absoluteTime": 38400,
      "seconds": 32,
      "numerator": 4,
      "denominator": 2,
      "click": 24,
      "notesQ": 8
    },
    {
      "absoluteTime": 59520,
      "seconds": 49.6,
      "numerator": 4,
      "denominator": 2,
      "click": 24,
      "notesQ": 8
    },
    {
      "absoluteTime": 119040,
      "seconds": 99.2,
      "numerator": 4,
      "denominator": 2,
      "click": 24,
      "notesQ": 8
    },
    {
      "absoluteTime": 147840,
      "seconds": 123.2,
      "numerator": 4,
      "denominator": 2,
      "click": 24,
      "notesQ": 8
    },
    {
      "absoluteTime": 151680,
      "seconds": 126.4,
      "numerator": 4,
      "denominator": 2,
      "click": 24,
      "notesQ": 8
    },
    {
      "absoluteTime": 170880,
      "seconds": 142.4,
      "numerator": 4,
      "denominator": 2,
      "click": 24,
      "notesQ": 8
    }
  ],
  "startTime": 0,
  "duration": 332.8000000000041,
  "tracks": [
    {
      "startTime": 0,
      "duration": 0,
      "length": 0,
      "notes": [],
      "controlChanges": {},
      "id": 0,
      "name": "Dentalist Beginner Midi Git"
    },
    {
      "startTime": 3,
      "duration": 332.8000000000041,
      "length": 2188,
      "notes": [
        {
          "name": "A4",
          "midi": 69,
          "time": 3,
          "velocity": 0.7874015748031497,
          "duration": 0.20000000000000018
        },
        {
          "name": "A4",
          "midi": 69,
          "time": 3.2,
          "velocity": 0.7874015748031497,
          "duration": 0.3999999999999999
        },
        {
          "name": "A#4",
          "midi": 70,
          "time": 3.6,
          "velocity": 0.7874015748031497,
          "duration": 0.06666666666666687
        },
        {
          "name": "A#4",
          "midi": 70,
          "time": 3.666666666666667,
          "velocity": 0.7874015748031497,
          "duration": 0.06666666666666687
        },
        {
          "name": "A#4",
          "midi": 70,
          "time": 3.733333333333334,
          "velocity": 0.7874015748031497,
          "duration": 0.06666666666666687
        },
        {
          "name": "A#4",
          "midi": 70,
          "time": 3.8000000000000007,
          "velocity": 0.7874015748031497,
          "duration": 0.06666666666666687
        },
        {
          "name": "A#4",
          "midi": 70,
          "time": 3.8666666666666676,
          "velocity": 0.7874015748031497,
          "duration": 0.1333333333333333
        },
        {
          "name": "C5",
          "midi": 72,
          "time": 4.000000000000001,
          "velocity": 0.7874015748031497,
          "duration": 0.06666666666666643
        },
        {
          "name": "C5",
          "midi": 72,
          "time": 4.066666666666667,
          "velocity": 0.7874015748031497,
          "duration": 0.06666666666666643
        },
        {
          "name": "C5",
          "midi": 72,
          "time": 4.133333333333334,
          "velocity": 0.7874015748031497,
          "duration": 0.06666666666666643
        },
        {
          "name": "C5",
          "midi": 72,
          "time": 4.2,
          "velocity": 0.7874015748031497,
          "duration": 0.06666666666666643
        },
        {
          "name": "C5",
          "midi": 72,
          "time": 4.266666666666667,
          "velocity": 0.7874015748031497,
          "duration": 0.13333333333333375
        },
        {
          "name": "A#4",
          "midi": 70,
          "time": 4.4,
          "velocity": 0.7874015748031497,
          "duration": 0.20000000000000018
        },
        {
          "name": "A4",
          "midi": 69,
          "time": 4.6000000000000005,
          "velocity": 0.7874015748031497,
          "duration": 0.20000000000000018
        },
        {
          "name": "A4",
          "midi": 69,
          "time": 4.800000000000001,
          "velocity": 0.7874015748031497,
          "duration": 0.40000000000000036
        },
        {
          "name": "A#4",
          "midi": 70,
          "time": 5.200000000000001,
          "velocity": 0.7874015748031497,
          "duration": 0.06666666666666643
        },
        {
          "name": "A#4",
          "midi": 70,
          "time": 5.2666666666666675,
          "velocity": 0.7874015748031497,
          "duration": 0.06666666666666643
        },
        {
          "name": "A#4",
          "midi": 70,
          "time": 5.333333333333334,
          "velocity": 0.7874015748031497,
          "duration": 0.06666666666666643
        },
        {
          "name": "A#4",
          "midi": 70,
          "time": 5.4,
          "velocity": 0.7874015748031497,
          "duration": 0.06666666666666643
        },
        {
          "name": "A#4",
          "midi": 70,
          "time": 5.466666666666667,
          "velocity": 0.7874015748031497,
          "duration": 0.13333333333333375
        },
        {
          "name": "C5",
          "midi": 72,
          "time": 5.6000000000000005,
          "velocity": 0.7874015748031497,
          "duration": 0.06666666666666643
        },
        {
          "name": "C5",
          "midi": 72,
          "time": 5.666666666666667,
          "velocity": 0.7874015748031497,
          "duration": 0.06666666666666643
        },
        {
          "name": "C5",
          "midi": 72,
          "time": 5.733333333333333,
          "velocity": 0.7874015748031497,
          "duration": 0.06666666666666643
        },
        {
          "name": "C5",
          "midi": 72,
          "time": 5.8,
          "velocity": 0.7874015748031497,
          "duration": 0.06666666666666643
        },
        {
          "name": "C5",
          "midi": 72,
          "time": 5.866666666666666,
          "velocity": 0.7874015748031497,
          "duration": 0.13333333333333375
        },
        {
          "name": "A#4",
          "midi": 70,
          "time": 6,
          "velocity": 0.7874015748031497,
          "duration": 0.20000000000000018
        },
        {
          "name": "A4",
          "midi": 69,
          "time": 6.2,
          "velocity": 0.7874015748031497,
          "duration": 0.20000000000000018
        },
        {
          "name": "A4",
          "midi": 69,
          "time": 6.4,
          "velocity": 0.7874015748031497,
          "duration": 0.40000000000000036
        },
        {
          "name": "A#4",
          "midi": 70,
          "time": 6.800000000000001,
          "velocity": 0.7874015748031497,
          "duration": 0.06666666666666643
        },
        {
          "name": "A#4",
          "midi": 70,
          "time": 6.866666666666667,
          "velocity": 0.7874015748031497,
          "duration": 0.06666666666666643
        },
        {
          "name": "A#4",
          "midi": 70,
          "time": 6.933333333333334,
          "velocity": 0.7874015748031497,
          "duration": 0.06666666666666643
        },
        {
          "name": "A#4",
          "midi": 70,
          "time": 7,
          "velocity": 0.7874015748031497,
          "duration": 0.06666666666666643
        },
        {
          "name": "A#4",
          "midi": 70,
          "time": 7.066666666666666,
          "velocity": 0.7874015748031497,
          "duration": 0.13333333333333375
        },
        {
          "name": "D5",
          "midi": 74,
          "time": 7.2,
          "velocity": 0.7874015748031497,
          "duration": 0.06666666666666643
        },
        {
          "name": "D5",
          "midi": 74,
          "time": 7.266666666666667,
          "velocity": 0.7874015748031497,
          "duration": 0.06666666666666643
        },
        {
          "name": "D5",
          "midi": 74,
          "time": 7.333333333333333,
          "velocity": 0.7874015748031497,
          "duration": 0.06666666666666643
        },
        {
          "name": "D5",
          "midi": 74,
          "time": 7.3999999999999995,
          "velocity": 0.7874015748031497,
          "duration": 0.06666666666666643
        },
        {
          "name": "D5",
          "midi": 74,
          "time": 7.466666666666666,
          "velocity": 0.7874015748031497,
          "duration": 0.13333333333333375
        },
        {
          "name": "A#4",
          "midi": 70,
          "time": 7.6,
          "velocity": 0.7874015748031497,
          "duration": 0.20000000000000018
        },
        {
          "name": "A4",
          "midi": 69,
          "time": 7.8,
          "velocity": 0.7874015748031497,
          "duration": 0.20000000000000018
        },
        {
          "name": "A4",
          "midi": 69,
          "time": 8,
          "velocity": 0.7874015748031497,
          "duration": 0.40000000000000036
        },
        {
          "name": "A#4",
          "midi": 70,
          "time": 8.4,
          "velocity": 0.7874015748031497,
          "duration": 0.06666666666666643
        },
        {
          "name": "A#4",
          "midi": 70,
          "time": 8.466666666666667,
          "velocity": 0.7874015748031497,
          "duration": 0.06666666666666643
        },
        {
          "name": "A#4",
          "midi": 70,
          "time": 8.533333333333333,
          "velocity": 0.7874015748031497,
          "duration": 0.06666666666666643
        },
        {
          "name": "A#4",
          "midi": 70,
          "time": 8.6,
          "velocity": 0.7874015748031497,
          "duration": 0.06666666666666643
        },
        {
          "name": "A#4",
          "midi": 70,
          "time": 8.666666666666666,
          "velocity": 0.7874015748031497,
          "duration": 0.13333333333333286
        },
        {
          "name": "D5",
          "midi": 74,
          "time": 8.799999999999999,
          "velocity": 0.7874015748031497,
          "duration": 0.06666666666666643
        },
        {
          "name": "D5",
          "midi": 74,
          "time": 8.866666666666665,
          "velocity": 0.7874015748031497,
          "duration": 0.06666666666666643
        },
        {
          "name": "D5",
          "midi": 74,
          "time": 8.933333333333332,
          "velocity": 0.7874015748031497,
          "duration": 0.06666666666666643
        },
        {
          "name": "D5",
          "midi": 74,
          "time": 8.999999999999998,
          "velocity": 0.7874015748031497,
          "duration": 0.06666666666666643
        },
        {
          "name": "D5",
          "midi": 74,
          "time": 9.066666666666665,
          "velocity": 0.7874015748031497,
          "duration": 0.13333333333333286
        },
        {
          "name": "A#4",
          "midi": 70,
          "time": 9.199999999999998,
          "velocity": 0.7874015748031497,
          "duration": 0.1999999999999993
        },
        {
          "name": "A4",
          "midi": 69,
          "time": 9.399999999999997,
          "velocity": 0.7874015748031497,
          "duration": 0.1999999999999993
        },
        {
          "name": "A4",
          "midi": 69,
          "time": 9.599999999999996,
          "velocity": 0.7874015748031497,
          "duration": 0.40000000000000036
        },
        {
          "name": "A#4",
          "midi": 70,
          "time": 9.999999999999996,
          "velocity": 0.7874015748031497,
          "duration": 0.06666666666666643
        },
        {
          "name": "A#4",
          "midi": 70,
          "time": 10.066666666666663,
          "velocity": 0.7874015748031497,
          "duration": 0.06666666666666643
        },
        {
          "name": "A#4",
          "midi": 70,
          "time": 10.13333333333333,
          "velocity": 0.7874015748031497,
          "duration": 0.06666666666666643
        },
        {
          "name": "A#4",
          "midi": 70,
          "time": 10.199999999999996,
          "velocity": 0.7874015748031497,
          "duration": 0.06666666666666643
        },
        {
          "name": "A#4",
          "midi": 70,
          "time": 10.266666666666662,
          "velocity": 0.7874015748031497,
          "duration": 0.13333333333333286
        },
        {
          "name": "C5",
          "midi": 72,
          "time": 10.399999999999995,
          "velocity": 0.7874015748031497,
          "duration": 0.06666666666666643
        },
        {
          "name": "C5",
          "midi": 72,
          "time": 10.466666666666661,
          "velocity": 0.7874015748031497,
          "duration": 0.06666666666666643
        },
        {
          "name": "C5",
          "midi": 72,
          "time": 10.533333333333328,
          "velocity": 0.7874015748031497,
          "duration": 0.06666666666666643
        },
        {
          "name": "C5",
          "midi": 72,
          "time": 10.599999999999994,
          "velocity": 0.7874015748031497,
          "duration": 0.06666666666666643
        },
        {
          "name": "C5",
          "midi": 72,
          "time": 10.66666666666666,
          "velocity": 0.7874015748031497,
          "duration": 0.13250000000000028
        },
        {
          "name": "A#4",
          "midi": 70,
          "time": 10.799999999999994,
          "velocity": 0.7874015748031497,
          "duration": 0.20083333333333186
        },
        {
          "name": "A4",
          "midi": 69,
          "time": 10.999999999999993,
          "velocity": 0.7874015748031497,
          "duration": 0.1999999999999993
        },
        {
          "name": "A4",
          "midi": 69,
          "time": 11.199999999999992,
          "velocity": 0.7874015748031497,
          "duration": 0.3999999999999986
        },
        {
          "name": "A#4",
          "midi": 70,
          "time": 11.599166666666658,
          "velocity": 0.7874015748031497,
          "duration": 0.067499999999999
        },
        {
          "name": "A#4",
          "midi": 70,
          "time": 11.666666666666657,
          "velocity": 0.7874015748031497,
          "duration": 0.06666666666666643
        },
        {
          "name": "A#4",
          "midi": 70,
          "time": 11.733333333333324,
          "velocity": 0.7874015748031497,
          "duration": 0.06666666666666643
        },
        {
          "name": "A#4",
          "midi": 70,
          "time": 11.79999999999999,
          "velocity": 0.7874015748031497,
          "duration": 0.06666666666666643
        },
        {
          "name": "A#4",
          "midi": 70,
          "time": 11.866666666666656,
          "velocity": 0.7874015748031497,
          "duration": 0.13250000000000028
        },
        {
          "name": "C5",
          "midi": 72,
          "time": 11.991666666666656,
          "velocity": 0.7874015748031497,
          "duration": 0.07500000000000107
        },
        {
          "name": "C5",
          "midi": 72,
          "time": 12.066666666666658,
          "velocity": 0.7874015748031497,
          "duration": 0.06666666666666643
        },
        {
          "name": "C5",
          "midi": 72,
          "time": 12.133333333333324,
          "velocity": 0.7874015748031497,
          "duration": 0.06666666666666643
        },
        {
          "name": "C5",
          "midi": 72,
          "time": 12.19999999999999,
          "velocity": 0.7874015748031497,
          "duration": 0.06666666666666643
        },
        {
          "name": "C5",
          "midi": 72,
          "time": 12.266666666666657,
          "velocity": 0.7874015748031497,
          "duration": 0.13333333333333286
        },
        {
          "name": "A#4",
          "midi": 70,
          "time": 12.39999999999999,
          "velocity": 0.7874015748031497,
          "duration": 0.40000000000000036
        },
        {
          "name": "G4",
          "midi": 67,
          "time": 12.798333333333323,
          "velocity": 0.7874015748031497,
          "duration": 3
        },
        {
          "name": "A4",
          "midi": 69,
          "time": 15.79999999999999,
          "velocity": 0.7874015748031497,
          "duration": 0.1999999999999993
        },
        {
          "name": "A4",
          "midi": 69,
          "time": 15.99999999999999,
          "velocity": 0.7874015748031497,
          "duration": 0.3999999999999986
        },
        {
          "name": "A#4",
          "midi": 70,
          "time": 16.399999999999988,
          "velocity": 0.7874015748031497,
          "duration": 0.06666666666666643
        },
        {
          "name": "A#4",
          "midi": 70,
          "time": 16.466666666666654,
          "velocity": 0.7874015748031497,
          "duration": 0.06666666666666643
        },
        {
          "name": "A#4",
          "midi": 70,
          "time": 16.53333333333332,
          "velocity": 0.7874015748031497,
          "duration": 0.06666666666666643
        },
        {
          "name": "A#4",
          "midi": 70,
          "time": 16.599999999999987,
          "velocity": 0.7874015748031497,
          "duration": 0.06666666666666643
        },
        {
          "name": "A#4",
          "midi": 70,
          "time": 16.666666666666654,
          "velocity": 0.7874015748031497,
          "duration": 0.13333333333333286
        },
        {
          "name": "C5",
          "midi": 72,
          "time": 16.799999999999986,
          "velocity": 0.7874015748031497,
          "duration": 0.06666666666666643
        },
        {
          "name": "C5",
          "midi": 72,
          "time": 16.866666666666653,
          "velocity": 0.7874015748031497,
          "duration": 0.06666666666666643
        },
        {
          "name": "C5",
          "midi": 72,
          "time": 16.93333333333332,
          "velocity": 0.7874015748031497,
          "duration": 0.06666666666666643
        },
        {
          "name": "C5",
          "midi": 72,
          "time": 16.999999999999986,
          "velocity": 0.7874015748031497,
          "duration": 0.06666666666666643
        },
        {
          "name": "C5",
          "midi": 72,
          "time": 17.066666666666652,
          "velocity": 0.7874015748031497,
          "duration": 0.13333333333333286
        },
        {
          "name": "A#4",
          "midi": 70,
          "time": 17.199999999999985,
          "velocity": 0.7874015748031497,
          "duration": 0.1999999999999993
        },
        {
          "name": "A4",
          "midi": 69,
          "time": 17.399999999999984,
          "velocity": 0.7874015748031497,
          "duration": 0.1999999999999993
        },
        {
          "name": "A4",
          "midi": 69,
          "time": 17.599999999999984,
          "velocity": 0.7874015748031497,
          "duration": 0.3999999999999986
        },
        {
          "name": "A#4",
          "midi": 70,
          "time": 17.999999999999982,
          "velocity": 0.7874015748031497,
          "duration": 0.06666666666666643
        },
        {
          "name": "A#4",
          "midi": 70,
          "time": 18.06666666666665,
          "velocity": 0.7874015748031497,
          "duration": 0.06666666666666643
        },
        {
          "name": "A#4",
          "midi": 70,
          "time": 18.133333333333315,
          "velocity": 0.7874015748031497,
          "duration": 0.06666666666666643
        },
        {
          "name": "A#4",
          "midi": 70,
          "time": 18.19999999999998,
          "velocity": 0.7874015748031497,
          "duration": 0.06666666666666643
        },
        {
          "name": "A#4",
          "midi": 70,
          "time": 18.266666666666648,
          "velocity": 0.7874015748031497,
          "duration": 0.13333333333333286
        },
        {
          "name": "C5",
          "midi": 72,
          "time": 18.39999999999998,
          "velocity": 0.7874015748031497,
          "duration": 0.06666666666666643
        },
        {
          "name": "C5",
          "midi": 72,
          "time": 18.466666666666647,
          "velocity": 0.7874015748031497,
          "duration": 0.06666666666666643
        },
        {
          "name": "C5",
          "midi": 72,
          "time": 18.533333333333314,
          "velocity": 0.7874015748031497,
          "duration": 0.06666666666666643
        },
        {
          "name": "C5",
          "midi": 72,
          "time": 18.59999999999998,
          "velocity": 0.7874015748031497,
          "duration": 0.06666666666666643
        },
        {
          "name": "C5",
          "midi": 72,
          "time": 18.666666666666647,
          "velocity": 0.7874015748031497,
          "duration": 0.13333333333333286
        },
        {
          "name": "A#4",
          "midi": 70,
          "time": 18.79999999999998,
          "velocity": 0.7874015748031497,
          "duration": 0.1999999999999993
        },
        {
          "name": "A4",
          "midi": 69,
          "time": 18.99999999999998,
          "velocity": 0.7874015748031497,
          "duration": 0.1999999999999993
        },
        {
          "name": "A4",
          "midi": 69,
          "time": 19.199999999999978,
          "velocity": 0.7874015748031497,
          "duration": 0.3999999999999986
        },
        {
          "name": "A#4",
          "midi": 70,
          "time": 19.599999999999977,
          "velocity": 0.7874015748031497,
          "duration": 0.06666666666666643
        },
        {
          "name": "A#4",
          "midi": 70,
          "time": 19.666666666666643,
          "velocity": 0.7874015748031497,
          "duration": 0.06666666666666643
        },
        {
          "name": "A#4",
          "midi": 70,
          "time": 19.73333333333331,
          "velocity": 0.7874015748031497,
          "duration": 0.06666666666666643
        },
        {
          "name": "A#4",
          "midi": 70,
          "time": 19.799999999999976,
          "velocity": 0.7874015748031497,
          "duration": 0.06666666666666643
        },
        {
          "name": "A#4",
          "midi": 70,
          "time": 19.866666666666642,
          "velocity": 0.7874015748031497,
          "duration": 0.13333333333333286
        },
        {
          "name": "D5",
          "midi": 74,
          "time": 19.999999999999975,
          "velocity": 0.7874015748031497,
          "duration": 0.06666666666666643
        },
        {
          "name": "D5",
          "midi": 74,
          "time": 20.06666666666664,
          "velocity": 0.7874015748031497,
          "duration": 0.06666666666666643
        },
        {
          "name": "D5",
          "midi": 74,
          "time": 20.133333333333308,
          "velocity": 0.7874015748031497,
          "duration": 0.06666666666666643
        },
        {
          "name": "D5",
          "midi": 74,
          "time": 20.199999999999974,
          "velocity": 0.7874015748031497,
          "duration": 0.06666666666666643
        },
        {
          "name": "D5",
          "midi": 74,
          "time": 20.26666666666664,
          "velocity": 0.7874015748031497,
          "duration": 0.13333333333333286
        },
        {
          "name": "A#4",
          "midi": 70,
          "time": 20.399999999999974,
          "velocity": 0.7874015748031497,
          "duration": 0.1999999999999993
        },
        {
          "name": "A4",
          "midi": 69,
          "time": 20.599999999999973,
          "velocity": 0.7874015748031497,
          "duration": 0.1999999999999993
        },
        {
          "name": "A4",
          "midi": 69,
          "time": 20.799999999999972,
          "velocity": 0.7874015748031497,
          "duration": 0.3999999999999986
        },
        {
          "name": "A#4",
          "midi": 70,
          "time": 21.19999999999997,
          "velocity": 0.7874015748031497,
          "duration": 0.06666666666666643
        },
        {
          "name": "A#4",
          "midi": 70,
          "time": 21.266666666666637,
          "velocity": 0.7874015748031497,
          "duration": 0.06666666666666643
        },
        {
          "name": "A#4",
          "midi": 70,
          "time": 21.333333333333304,
          "velocity": 0.7874015748031497,
          "duration": 0.06666666666666643
        },
        {
          "name": "A#4",
          "midi": 70,
          "time": 21.39999999999997,
          "velocity": 0.7874015748031497,
          "duration": 0.06666666666666643
        },
        {
          "name": "A#4",
          "midi": 70,
          "time": 21.466666666666637,
          "velocity": 0.7874015748031497,
          "duration": 0.13333333333333286
        },
        {
          "name": "D5",
          "midi": 74,
          "time": 21.59999999999997,
          "velocity": 0.7874015748031497,
          "duration": 0.06666666666666643
        },
        {
          "name": "D5",
          "midi": 74,
          "time": 21.666666666666636,
          "velocity": 0.7874015748031497,
          "duration": 0.06666666666666643
        },
        {
          "name": "D5",
          "midi": 74,
          "time": 21.733333333333302,
          "velocity": 0.7874015748031497,
          "duration": 0.06666666666666643
        },
        {
          "name": "D5",
          "midi": 74,
          "time": 21.79999999999997,
          "velocity": 0.7874015748031497,
          "duration": 0.06666666666666643
        },
        {
          "name": "D5",
          "midi": 74,
          "time": 21.866666666666635,
          "velocity": 0.7874015748031497,
          "duration": 0.13333333333333286
        },
        {
          "name": "A#4",
          "midi": 70,
          "time": 21.999999999999968,
          "velocity": 0.7874015748031497,
          "duration": 0.1999999999999993
        },
        {
          "name": "A4",
          "midi": 69,
          "time": 22.199999999999967,
          "velocity": 0.7874015748031497,
          "duration": 0.1999999999999993
        },
        {
          "name": "A4",
          "midi": 69,
          "time": 22.399999999999967,
          "velocity": 0.7874015748031497,
          "duration": 0.3999999999999986
        },
        {
          "name": "A#4",
          "midi": 70,
          "time": 22.799999999999965,
          "velocity": 0.7874015748031497,
          "duration": 0.06666666666666643
        },
        {
          "name": "A#4",
          "midi": 70,
          "time": 22.86666666666663,
          "velocity": 0.7874015748031497,
          "duration": 0.06666666666666643
        },
        {
          "name": "A#4",
          "midi": 70,
          "time": 22.933333333333298,
          "velocity": 0.7874015748031497,
          "duration": 0.06666666666666643
        },
        {
          "name": "A#4",
          "midi": 70,
          "time": 22.999999999999964,
          "velocity": 0.7874015748031497,
          "duration": 0.06666666666666643
        },
        {
          "name": "A#4",
          "midi": 70,
          "time": 23.06666666666663,
          "velocity": 0.7874015748031497,
          "duration": 0.13333333333333286
        },
        {
          "name": "C5",
          "midi": 72,
          "time": 23.199999999999964,
          "velocity": 0.7874015748031497,
          "duration": 0.06666666666666643
        },
        {
          "name": "C5",
          "midi": 72,
          "time": 23.26666666666663,
          "velocity": 0.7874015748031497,
          "duration": 0.06666666666666643
        },
        {
          "name": "C5",
          "midi": 72,
          "time": 23.333333333333297,
          "velocity": 0.7874015748031497,
          "duration": 0.06666666666666643
        },
        {
          "name": "C5",
          "midi": 72,
          "time": 23.399999999999963,
          "velocity": 0.7874015748031497,
          "duration": 0.06666666666666643
        },
        {
          "name": "C5",
          "midi": 72,
          "time": 23.46666666666663,
          "velocity": 0.7874015748031497,
          "duration": 0.13250000000000028
        },
        {
          "name": "A#4",
          "midi": 70,
          "time": 23.599999999999962,
          "velocity": 0.7874015748031497,
          "duration": 0.20083333333333186
        },
        {
          "name": "A4",
          "midi": 69,
          "time": 23.79999999999996,
          "velocity": 0.7874015748031497,
          "duration": 0.1999999999999993
        },
        {
          "name": "A4",
          "midi": 69,
          "time": 23.99999999999996,
          "velocity": 0.7874015748031497,
          "duration": 0.3999999999999986
        },
        {
          "name": "A#4",
          "midi": 70,
          "time": 24.399166666666627,
          "velocity": 0.7874015748031497,
          "duration": 0.067499999999999
        },
        {
          "name": "A#4",
          "midi": 70,
          "time": 24.466666666666626,
          "velocity": 0.7874015748031497,
          "duration": 0.06666666666666643
        },
        {
          "name": "A#4",
          "midi": 70,
          "time": 24.533333333333292,
          "velocity": 0.7874015748031497,
          "duration": 0.06666666666666643
        },
        {
          "name": "A#4",
          "midi": 70,
          "time": 24.59999999999996,
          "velocity": 0.7874015748031497,
          "duration": 0.06666666666666643
        },
        {
          "name": "A#4",
          "midi": 70,
          "time": 24.666666666666625,
          "velocity": 0.7874015748031497,
          "duration": 0.13250000000000028
        },
        {
          "name": "C5",
          "midi": 72,
          "time": 24.791666666666625,
          "velocity": 0.7874015748031497,
          "duration": 0.07499999999999929
        },
        {
          "name": "C5",
          "midi": 72,
          "time": 24.866666666666625,
          "velocity": 0.7874015748031497,
          "duration": 0.06666666666666643
        },
        {
          "name": "C5",
          "midi": 72,
          "time": 24.93333333333329,
          "velocity": 0.7874015748031497,
          "duration": 0.06666666666666643
        },
        {
          "name": "C5",
          "midi": 72,
          "time": 24.999999999999957,
          "velocity": 0.7874015748031497,
          "duration": 0.06666666666666643
        },
        {
          "name": "C5",
          "midi": 72,
          "time": 25.066666666666624,
          "velocity": 0.7874015748031497,
          "duration": 0.13333333333333286
        },
        {
          "name": "A#4",
          "midi": 70,
          "time": 25.199999999999957,
          "velocity": 0.7874015748031497,
          "duration": 0.3999999999999986
        },
        {
          "name": "G4",
          "midi": 67,
          "time": 25.59833333333329,
          "velocity": 0.7874015748031497,
          "duration": 1.5999999999999979
        },
        {
          "name": "G2",
          "midi": 43,
          "time": 27.199999999999953,
          "velocity": 0.7874015748031497,
          "duration": 0.10000000000000142
        },
        {
          "name": "G2",
          "midi": 43,
          "time": 27.299999999999955,
          "velocity": 0.7874015748031497,
          "duration": 0.10000000000000142
        },
        {
          "name": "G2",
          "midi": 43,
          "time": 27.399999999999956,
          "velocity": 0.7874015748031497,
          "duration": 0.10000000000000142
        },
        {
          "name": "G2",
          "midi": 43,
          "time": 27.499999999999957,
          "velocity": 0.7874015748031497,
          "duration": 0.10000000000000142
        },
        {
          "name": "A2",
          "midi": 45,
          "time": 27.59999999999996,
          "velocity": 0.7874015748031497,
          "duration": 0.10000000000000142
        },
        {
          "name": "A2",
          "midi": 45,
          "time": 27.69999999999996,
          "velocity": 0.7874015748031497,
          "duration": 0.13583333333333414
        },
        {
          "name": "A2",
          "midi": 45,
          "time": 27.79999999999996,
          "velocity": 0.7874015748031497,
          "duration": 0.09999999999999787
        },
        {
          "name": "A2",
          "midi": 45,
          "time": 27.89999999999996,
          "velocity": 0.7874015748031497,
          "duration": 0.10000000000000142
        },
        {
          "name": "A#2",
          "midi": 46,
          "time": 27.99999999999996,
          "velocity": 0.7874015748031497,
          "duration": 0.10000000000000142
        },
        {
          "name": "A#2",
          "midi": 46,
          "time": 28.099999999999962,
          "velocity": 0.7874015748031497,
          "duration": 0.10000000000000142
        },
        {
          "name": "A#2",
          "midi": 46,
          "time": 28.199999999999964,
          "velocity": 0.7874015748031497,
          "duration": 0.10000000000000142
        },
        {
          "name": "A#2",
          "midi": 46,
          "time": 28.299999999999965,
          "velocity": 0.7874015748031497,
          "duration": 0.10000000000000142
        },
        {
          "name": "C3",
          "midi": 48,
          "time": 28.399999999999967,
          "velocity": 0.7874015748031497,
          "duration": 0.10000000000000142
        },
        {
          "name": "C3",
          "midi": 48,
          "time": 28.499999999999968,
          "velocity": 0.7874015748031497,
          "duration": 0.10000000000000142
        },
        {
          "name": "C3",
          "midi": 48,
          "time": 28.59999999999997,
          "velocity": 0.7874015748031497,
          "duration": 0.10000000000000142
        },
        {
          "name": "C3",
          "midi": 48,
          "time": 28.69999999999997,
          "velocity": 0.7874015748031497,
          "duration": 0.10000000000000142
        },
        {
          "name": "D3",
          "midi": 50,
          "time": 28.799999999999972,
          "velocity": 0.7874015748031497,
          "duration": 0.1999999999999993
        },
        {
          "name": "G2",
          "midi": 43,
          "time": 28.99999999999997,
          "velocity": 0.7874015748031497,
          "duration": 0.10000000000000142
        },
        {
          "name": "G2",
          "midi": 43,
          "time": 29.099999999999973,
          "velocity": 0.7874015748031497,
          "duration": 0.09916666666666529
        },
        {
          "name": "G2",
          "midi": 43,
          "time": 29.19916666666664,
          "velocity": 0.7874015748031497,
          "duration": 0.20416666666666572
        },
        {
          "name": "D3",
          "midi": 50,
          "time": 29.39999999999997,
          "velocity": 0.7874015748031497,
          "duration": 0.20083333333333542
        },
        {
          "name": "G2",
          "midi": 43,
          "time": 29.600833333333306,
          "velocity": 0.7874015748031497,
          "duration": 0.09999999999999787
        },
        {
          "name": "G2",
          "midi": 43,
          "time": 29.69999999999997,
          "velocity": 0.7874015748031497,
          "duration": 0.09999999999999787
        },
        {
          "name": "G2",
          "midi": 43,
          "time": 29.79999999999997,
          "velocity": 0.7874015748031497,
          "duration": 0.10000000000000142
        },
        {
          "name": "G2",
          "midi": 43,
          "time": 29.89999999999997,
          "velocity": 0.7874015748031497,
          "duration": 0.10000000000000142
        },
        {
          "name": "D3",
          "midi": 50,
          "time": 29.99999999999997,
          "velocity": 0.7874015748031497,
          "duration": 0.1999999999999993
        },
        {
          "name": "D#3",
          "midi": 51,
          "time": 30.19999999999997,
          "velocity": 0.7874015748031497,
          "duration": 0.1999999999999993
        },
        {
          "name": "D3",
          "midi": 50,
          "time": 30.39999999999997,
          "velocity": 0.7874015748031497,
          "duration": 0.1999999999999993
        },
        {
          "name": "G2",
          "midi": 43,
          "time": 30.59999999999997,
          "velocity": 0.7874015748031497,
          "duration": 0.10000000000000142
        },
        {
          "name": "G2",
          "midi": 43,
          "time": 30.69999999999997,
          "velocity": 0.7874015748031497,
          "duration": 0.10000000000000142
        },
        {
          "name": "G2",
          "midi": 43,
          "time": 30.799999999999972,
          "velocity": 0.7874015748031497,
          "duration": 0.1999999999999993
        },
        {
          "name": "D3",
          "midi": 50,
          "time": 30.99999999999997,
          "velocity": 0.7874015748031497,
          "duration": 0.1999999999999993
        },
        {
          "name": "G2",
          "midi": 43,
          "time": 31.19999999999997,
          "velocity": 0.7874015748031497,
          "duration": 0.10000000000000142
        },
        {
          "name": "G2",
          "midi": 43,
          "time": 31.299999999999972,
          "velocity": 0.7874015748031497,
          "duration": 0.10000000000000142
        },
        {
          "name": "G2",
          "midi": 43,
          "time": 31.399999999999974,
          "velocity": 0.7874015748031497,
          "duration": 0.10000000000000142
        },
        {
          "name": "G2",
          "midi": 43,
          "time": 31.499999999999975,
          "velocity": 0.7874015748031497,
          "duration": 0.10000000000000142
        },
        {
          "name": "G3",
          "midi": 55,
          "time": 31.599999999999977,
          "velocity": 0.7874015748031497,
          "duration": 0.1999999999999993
        },
        {
          "name": "D#3",
          "midi": 51,
          "time": 31.799999999999976,
          "velocity": 0.7874015748031497,
          "duration": 0.1999999999999993
        },
        {
          "name": "D3",
          "midi": 50,
          "time": 32.00333333333331,
          "velocity": 0.7874015748031497,
          "duration": 0.19999999999999574
        },
        {
          "name": "G2",
          "midi": 43,
          "time": 32.199999999999974,
          "velocity": 0.7874015748031497,
          "duration": 0.09999999999999432
        },
        {
          "name": "G2",
          "midi": 43,
          "time": 32.29999999999997,
          "velocity": 0.7874015748031497,
          "duration": 0.10000000000000142
        },
        {
          "name": "G2",
          "midi": 43,
          "time": 32.39999999999997,
          "velocity": 0.7874015748031497,
          "duration": 0.20000000000000284
        },
        {
          "name": "D3",
          "midi": 50,
          "time": 32.59999999999997,
          "velocity": 0.7874015748031497,
          "duration": 0.20000000000000284
        },
        {
          "name": "G2",
          "midi": 43,
          "time": 32.799999999999976,
          "velocity": 0.7874015748031497,
          "duration": 0.10000000000000142
        },
        {
          "name": "G2",
          "midi": 43,
          "time": 32.89999999999998,
          "velocity": 0.7874015748031497,
          "duration": 0.10000000000000142
        },
        {
          "name": "G2",
          "midi": 43,
          "time": 32.99999999999998,
          "velocity": 0.7874015748031497,
          "duration": 0.10000000000000142
        },
        {
          "name": "G2",
          "midi": 43,
          "time": 33.09999999999998,
          "velocity": 0.7874015748031497,
          "duration": 0.10000000000000142
        },
        {
          "name": "D3",
          "midi": 50,
          "time": 33.19999999999998,
          "velocity": 0.7874015748031497,
          "duration": 0.20000000000000284
        },
        {
          "name": "G2",
          "midi": 43,
          "time": 33.399999999999984,
          "velocity": 0.7874015748031497,
          "duration": 0.20000000000000284
        },
        {
          "name": "F3",
          "midi": 53,
          "time": 33.59999999999999,
          "velocity": 0.7874015748031497,
          "duration": 0.10000000000000142
        },
        {
          "name": "F3",
          "midi": 53,
          "time": 33.69999999999999,
          "velocity": 0.7874015748031497,
          "duration": 0.10000000000000142
        },
        {
          "name": "F3",
          "midi": 53,
          "time": 33.79999999999999,
          "velocity": 0.7874015748031497,
          "duration": 0.10000000000000142
        },
        {
          "name": "F3",
          "midi": 53,
          "time": 33.89999999999999,
          "velocity": 0.7874015748031497,
          "duration": 0.10000000000000142
        },
        {
          "name": "D#3",
          "midi": 51,
          "time": 33.99999999999999,
          "velocity": 0.7874015748031497,
          "duration": 0.10000000000000142
        },
        {
          "name": "D#3",
          "midi": 51,
          "time": 34.099999999999994,
          "velocity": 0.7874015748031497,
          "duration": 0.10000000000000142
        },
        {
          "name": "D#3",
          "midi": 51,
          "time": 34.199999999999996,
          "velocity": 0.7874015748031497,
          "duration": 0.10000000000000142
        },
        {
          "name": "D#3",
          "midi": 51,
          "time": 34.3,
          "velocity": 0.7874015748031497,
          "duration": 0.10000000000000142
        },
        {
          "name": "D3",
          "midi": 50,
          "time": 34.4,
          "velocity": 0.7874015748031497,
          "duration": 0.10000000000000142
        },
        {
          "name": "D3",
          "midi": 50,
          "time": 34.5,
          "velocity": 0.7874015748031497,
          "duration": 0.10000000000000142
        },
        {
          "name": "D3",
          "midi": 50,
          "time": 34.6,
          "velocity": 0.7874015748031497,
          "duration": 0.10000000000000142
        },
        {
          "name": "D3",
          "midi": 50,
          "time": 34.7,
          "velocity": 0.7874015748031497,
          "duration": 0.10000000000000142
        },
        {
          "name": "C3",
          "midi": 48,
          "time": 34.800000000000004,
          "velocity": 0.7874015748031497,
          "duration": 0.10000000000000142
        },
        {
          "name": "C3",
          "midi": 48,
          "time": 34.900000000000006,
          "velocity": 0.7874015748031497,
          "duration": 0.10000000000000142
        },
        {
          "name": "C3",
          "midi": 48,
          "time": 35.00000000000001,
          "velocity": 0.7874015748031497,
          "duration": 0.10000000000000142
        },
        {
          "name": "C3",
          "midi": 48,
          "time": 35.10000000000001,
          "velocity": 0.7874015748031497,
          "duration": 0.10000000000000142
        },
        {
          "name": "D3",
          "midi": 50,
          "time": 35.20000000000001,
          "velocity": 0.7874015748031497,
          "duration": 0.20000000000000284
        },
        {
          "name": "G2",
          "midi": 43,
          "time": 35.40000000000001,
          "velocity": 0.7874015748031497,
          "duration": 0.10000000000000142
        },
        {
          "name": "G2",
          "midi": 43,
          "time": 35.500000000000014,
          "velocity": 0.7874015748031497,
          "duration": 0.09916666666666885
        },
        {
          "name": "G2",
          "midi": 43,
          "time": 35.59916666666668,
          "velocity": 0.7874015748031497,
          "duration": 0.20416666666666572
        },
        {
          "name": "D3",
          "midi": 50,
          "time": 35.80000000000002,
          "velocity": 0.7874015748031497,
          "duration": 0.2008333333333283
        },
        {
          "name": "G2",
          "midi": 43,
          "time": 36.00083333333335,
          "velocity": 0.7874015748031497,
          "duration": 0.10000000000000142
        },
        {
          "name": "G2",
          "midi": 43,
          "time": 36.100000000000016,
          "velocity": 0.7874015748031497,
          "duration": 0.10000000000000142
        },
        {
          "name": "G2",
          "midi": 43,
          "time": 36.20000000000002,
          "velocity": 0.7874015748031497,
          "duration": 0.10000000000000142
        },
        {
          "name": "G2",
          "midi": 43,
          "time": 36.30000000000002,
          "velocity": 0.7874015748031497,
          "duration": 0.10000000000000142
        },
        {
          "name": "D3",
          "midi": 50,
          "time": 36.40000000000002,
          "velocity": 0.7874015748031497,
          "duration": 0.20000000000000284
        },
        {
          "name": "D#3",
          "midi": 51,
          "time": 36.60000000000002,
          "velocity": 0.7874015748031497,
          "duration": 0.20000000000000284
        },
        {
          "name": "D3",
          "midi": 50,
          "time": 36.800000000000026,
          "velocity": 0.7874015748031497,
          "duration": 0.20000000000000284
        },
        {
          "name": "G2",
          "midi": 43,
          "time": 37.00000000000003,
          "velocity": 0.7874015748031497,
          "duration": 0.10000000000000142
        },
        {
          "name": "G2",
          "midi": 43,
          "time": 37.10000000000003,
          "velocity": 0.7874015748031497,
          "duration": 0.10000000000000142
        },
        {
          "name": "G2",
          "midi": 43,
          "time": 37.20000000000003,
          "velocity": 0.7874015748031497,
          "duration": 0.20000000000000284
        },
        {
          "name": "D3",
          "midi": 50,
          "time": 37.400000000000034,
          "velocity": 0.7874015748031497,
          "duration": 0.20000000000000284
        },
        {
          "name": "G2",
          "midi": 43,
          "time": 37.60000000000004,
          "velocity": 0.7874015748031497,
          "duration": 0.10000000000000142
        },
        {
          "name": "G2",
          "midi": 43,
          "time": 37.70000000000004,
          "velocity": 0.7874015748031497,
          "duration": 0.10000000000000142
        },
        {
          "name": "G2",
          "midi": 43,
          "time": 37.80000000000004,
          "velocity": 0.7874015748031497,
          "duration": 0.10000000000000142
        },
        {
          "name": "G2",
          "midi": 43,
          "time": 37.90000000000004,
          "velocity": 0.7874015748031497,
          "duration": 0.10000000000000142
        },
        {
          "name": "G3",
          "midi": 55,
          "time": 38.00000000000004,
          "velocity": 0.7874015748031497,
          "duration": 0.20000000000000284
        },
        {
          "name": "D#3",
          "midi": 51,
          "time": 38.200000000000045,
          "velocity": 0.7874015748031497,
          "duration": 0.20000000000000284
        },
        {
          "name": "D3",
          "midi": 50,
          "time": 38.40416666666672,
          "velocity": 0.7874015748031497,
          "duration": 0.20000000000000284
        },
        {
          "name": "G2",
          "midi": 43,
          "time": 38.60000000000005,
          "velocity": 0.7874015748031497,
          "duration": 0.10000000000000142
        },
        {
          "name": "G2",
          "midi": 43,
          "time": 38.70000000000005,
          "velocity": 0.7874015748031497,
          "duration": 0.10000000000000142
        },
        {
          "name": "G2",
          "midi": 43,
          "time": 38.800000000000054,
          "velocity": 0.7874015748031497,
          "duration": 0.20000000000000284
        },
        {
          "name": "D3",
          "midi": 50,
          "time": 39.00000000000006,
          "velocity": 0.7874015748031497,
          "duration": 0.20000000000000284
        },
        {
          "name": "G2",
          "midi": 43,
          "time": 39.20000000000006,
          "velocity": 0.7874015748031497,
          "duration": 0.10000000000000142
        },
        {
          "name": "G2",
          "midi": 43,
          "time": 39.30000000000006,
          "velocity": 0.7874015748031497,
          "duration": 0.10000000000000142
        },
        {
          "name": "G2",
          "midi": 43,
          "time": 39.40000000000006,
          "velocity": 0.7874015748031497,
          "duration": 0.10000000000000142
        },
        {
          "name": "G2",
          "midi": 43,
          "time": 39.500000000000064,
          "velocity": 0.7874015748031497,
          "duration": 0.10000000000000142
        },
        {
          "name": "D3",
          "midi": 50,
          "time": 39.600000000000065,
          "velocity": 0.7874015748031497,
          "duration": 0.20000000000000284
        },
        {
          "name": "G2",
          "midi": 43,
          "time": 39.80000000000007,
          "velocity": 0.7874015748031497,
          "duration": 0.20000000000000284
        },
        {
          "name": "A#2",
          "midi": 46,
          "time": 40.00000000000007,
          "velocity": 0.7874015748031497,
          "duration": 0.3999999999999986
        },
        {
          "name": "D3",
          "midi": 50,
          "time": 40.00000000000007,
          "velocity": 0.7874015748031497,
          "duration": 0.3999999999999986
        },
        {
          "name": "A2",
          "midi": 45,
          "time": 40.40000000000007,
          "velocity": 0.7874015748031497,
          "duration": 0.3999999999999986
        },
        {
          "name": "C3",
          "midi": 48,
          "time": 40.40000000000007,
          "velocity": 0.7874015748031497,
          "duration": 0.3999999999999986
        },
        {
          "name": "G2",
          "midi": 43,
          "time": 40.80000000000007,
          "velocity": 0.7874015748031497,
          "duration": 0.3999999999999986
        },
        {
          "name": "A#2",
          "midi": 46,
          "time": 40.80000000000007,
          "velocity": 0.7874015748031497,
          "duration": 0.3999999999999986
        },
        {
          "name": "F2",
          "midi": 41,
          "time": 41.20000000000007,
          "velocity": 0.7874015748031497,
          "duration": 0.3999999999999986
        },
        {
          "name": "A2",
          "midi": 45,
          "time": 41.20000000000007,
          "velocity": 0.7874015748031497,
          "duration": 0.3999999999999986
        },
        {
          "name": "D3",
          "midi": 50,
          "time": 41.600000000000065,
          "velocity": 0.7874015748031497,
          "duration": 0.20000000000000284
        },
        {
          "name": "G2",
          "midi": 43,
          "time": 41.80000000000007,
          "velocity": 0.7874015748031497,
          "duration": 0.10000000000000142
        },
        {
          "name": "G2",
          "midi": 43,
          "time": 41.90000000000007,
          "velocity": 0.7874015748031497,
          "duration": 0.09916666666666885
        },
        {
          "name": "G2",
          "midi": 43,
          "time": 41.99916666666674,
          "velocity": 0.7874015748031497,
          "duration": 0.20416666666666572
        },
        {
          "name": "D3",
          "midi": 50,
          "time": 42.200000000000074,
          "velocity": 0.7874015748031497,
          "duration": 0.2008333333333283
        },
        {
          "name": "G2",
          "midi": 43,
          "time": 42.4008333333334,
          "velocity": 0.7874015748031497,
          "duration": 0.10000000000000142
        },
        {
          "name": "G2",
          "midi": 43,
          "time": 42.50000000000007,
          "velocity": 0.7874015748031497,
          "duration": 0.10000000000000142
        },
        {
          "name": "G2",
          "midi": 43,
          "time": 42.60000000000007,
          "velocity": 0.7874015748031497,
          "duration": 0.10000000000000142
        },
        {
          "name": "G2",
          "midi": 43,
          "time": 42.700000000000074,
          "velocity": 0.7874015748031497,
          "duration": 0.10000000000000142
        },
        {
          "name": "D3",
          "midi": 50,
          "time": 42.800000000000075,
          "velocity": 0.7874015748031497,
          "duration": 0.20000000000000284
        },
        {
          "name": "D#3",
          "midi": 51,
          "time": 43.00000000000008,
          "velocity": 0.7874015748031497,
          "duration": 0.20000000000000284
        },
        {
          "name": "D3",
          "midi": 50,
          "time": 43.20000000000008,
          "velocity": 0.7874015748031497,
          "duration": 0.20000000000000284
        },
        {
          "name": "G2",
          "midi": 43,
          "time": 43.400000000000084,
          "velocity": 0.7874015748031497,
          "duration": 0.10000000000000142
        },
        {
          "name": "G2",
          "midi": 43,
          "time": 43.500000000000085,
          "velocity": 0.7874015748031497,
          "duration": 0.10000000000000142
        },
        {
          "name": "G2",
          "midi": 43,
          "time": 43.60000000000009,
          "velocity": 0.7874015748031497,
          "duration": 0.20000000000000284
        },
        {
          "name": "D3",
          "midi": 50,
          "time": 43.80000000000009,
          "velocity": 0.7874015748031497,
          "duration": 0.20000000000000284
        },
        {
          "name": "G2",
          "midi": 43,
          "time": 44.00000000000009,
          "velocity": 0.7874015748031497,
          "duration": 0.10000000000000142
        },
        {
          "name": "G2",
          "midi": 43,
          "time": 44.100000000000094,
          "velocity": 0.7874015748031497,
          "duration": 0.10000000000000142
        },
        {
          "name": "G2",
          "midi": 43,
          "time": 44.200000000000095,
          "velocity": 0.7874015748031497,
          "duration": 0.10000000000000142
        },
        {
          "name": "G2",
          "midi": 43,
          "time": 44.3000000000001,
          "velocity": 0.7874015748031497,
          "duration": 0.10000000000000142
        },
        {
          "name": "G3",
          "midi": 55,
          "time": 44.4000000000001,
          "velocity": 0.7874015748031497,
          "duration": 0.20000000000000284
        },
        {
          "name": "D#3",
          "midi": 51,
          "time": 44.6000000000001,
          "velocity": 0.7874015748031497,
          "duration": 0.20000000000000284
        },
        {
          "name": "D3",
          "midi": 50,
          "time": 44.804166666666774,
          "velocity": 0.7874015748031497,
          "duration": 0.20000000000000284
        },
        {
          "name": "G2",
          "midi": 43,
          "time": 45.00000000000011,
          "velocity": 0.7874015748031497,
          "duration": 0.10000000000000142
        },
        {
          "name": "G2",
          "midi": 43,
          "time": 45.10000000000011,
          "velocity": 0.7874015748031497,
          "duration": 0.10000000000000142
        },
        {
          "name": "G2",
          "midi": 43,
          "time": 45.20000000000011,
          "velocity": 0.7874015748031497,
          "duration": 0.20000000000000284
        },
        {
          "name": "D3",
          "midi": 50,
          "time": 45.40000000000011,
          "velocity": 0.7874015748031497,
          "duration": 0.20000000000000284
        },
        {
          "name": "G2",
          "midi": 43,
          "time": 45.600000000000115,
          "velocity": 0.7874015748031497,
          "duration": 0.10000000000000142
        },
        {
          "name": "G2",
          "midi": 43,
          "time": 45.70000000000012,
          "velocity": 0.7874015748031497,
          "duration": 0.10000000000000142
        },
        {
          "name": "G2",
          "midi": 43,
          "time": 45.80000000000012,
          "velocity": 0.7874015748031497,
          "duration": 0.10000000000000142
        },
        {
          "name": "G2",
          "midi": 43,
          "time": 45.90000000000012,
          "velocity": 0.7874015748031497,
          "duration": 0.10000000000000142
        },
        {
          "name": "D3",
          "midi": 50,
          "time": 46.00000000000012,
          "velocity": 0.7874015748031497,
          "duration": 0.20000000000000284
        },
        {
          "name": "G2",
          "midi": 43,
          "time": 46.200000000000124,
          "velocity": 0.7874015748031497,
          "duration": 0.20000000000000284
        },
        {
          "name": "F3",
          "midi": 53,
          "time": 46.40000000000013,
          "velocity": 0.7874015748031497,
          "duration": 0.10000000000000142
        },
        {
          "name": "F3",
          "midi": 53,
          "time": 46.50000000000013,
          "velocity": 0.7874015748031497,
          "duration": 0.10000000000000142
        },
        {
          "name": "F3",
          "midi": 53,
          "time": 46.60000000000013,
          "velocity": 0.7874015748031497,
          "duration": 0.10000000000000142
        },
        {
          "name": "F3",
          "midi": 53,
          "time": 46.70000000000013,
          "velocity": 0.7874015748031497,
          "duration": 0.10000000000000142
        },
        {
          "name": "D#3",
          "midi": 51,
          "time": 46.80000000000013,
          "velocity": 0.7874015748031497,
          "duration": 0.10000000000000142
        },
        {
          "name": "D#3",
          "midi": 51,
          "time": 46.900000000000134,
          "velocity": 0.7874015748031497,
          "duration": 0.10000000000000142
        },
        {
          "name": "D#3",
          "midi": 51,
          "time": 47.000000000000135,
          "velocity": 0.7874015748031497,
          "duration": 0.10000000000000142
        },
        {
          "name": "D#3",
          "midi": 51,
          "time": 47.100000000000136,
          "velocity": 0.7874015748031497,
          "duration": 0.10000000000000142
        },
        {
          "name": "D3",
          "midi": 50,
          "time": 47.20000000000014,
          "velocity": 0.7874015748031497,
          "duration": 0.10000000000000142
        },
        {
          "name": "D3",
          "midi": 50,
          "time": 47.30000000000014,
          "velocity": 0.7874015748031497,
          "duration": 0.10000000000000142
        },
        {
          "name": "D3",
          "midi": 50,
          "time": 47.40000000000014,
          "velocity": 0.7874015748031497,
          "duration": 0.10000000000000142
        },
        {
          "name": "D3",
          "midi": 50,
          "time": 47.50000000000014,
          "velocity": 0.7874015748031497,
          "duration": 0.10000000000000142
        },
        {
          "name": "C3",
          "midi": 48,
          "time": 47.60000000000014,
          "velocity": 0.7874015748031497,
          "duration": 0.10000000000000142
        },
        {
          "name": "C3",
          "midi": 48,
          "time": 47.700000000000145,
          "velocity": 0.7874015748031497,
          "duration": 0.10000000000000142
        },
        {
          "name": "C3",
          "midi": 48,
          "time": 47.800000000000146,
          "velocity": 0.7874015748031497,
          "duration": 0.10000000000000142
        },
        {
          "name": "C3",
          "midi": 48,
          "time": 47.90000000000015,
          "velocity": 0.7874015748031497,
          "duration": 0.10000000000000142
        },
        {
          "name": "D3",
          "midi": 50,
          "time": 48.00000000000015,
          "velocity": 0.7874015748031497,
          "duration": 0.20000000000000284
        },
        {
          "name": "G2",
          "midi": 43,
          "time": 48.200833333333485,
          "velocity": 0.7874015748031497,
          "duration": 0.10000000000000142
        },
        {
          "name": "G2",
          "midi": 43,
          "time": 48.300833333333486,
          "velocity": 0.7874015748031497,
          "duration": 0.09916666666666885
        },
        {
          "name": "G2",
          "midi": 43,
          "time": 48.400000000000155,
          "velocity": 0.7874015748031497,
          "duration": 0.20416666666666572
        },
        {
          "name": "D3",
          "midi": 50,
          "time": 48.60083333333349,
          "velocity": 0.7874015748031497,
          "duration": 0.2008333333333283
        },
        {
          "name": "G2",
          "midi": 43,
          "time": 48.80166666666682,
          "velocity": 0.7874015748031497,
          "duration": 0.10000000000000142
        },
        {
          "name": "G2",
          "midi": 43,
          "time": 48.90083333333349,
          "velocity": 0.7874015748031497,
          "duration": 0.10000000000000142
        },
        {
          "name": "G2",
          "midi": 43,
          "time": 49.00083333333349,
          "velocity": 0.7874015748031497,
          "duration": 0.10000000000000142
        },
        {
          "name": "G2",
          "midi": 43,
          "time": 49.10083333333349,
          "velocity": 0.7874015748031497,
          "duration": 0.10000000000000142
        },
        {
          "name": "D3",
          "midi": 50,
          "time": 49.20083333333349,
          "velocity": 0.7874015748031497,
          "duration": 0.20000000000000284
        },
        {
          "name": "D#3",
          "midi": 51,
          "time": 49.400833333333495,
          "velocity": 0.7874015748031497,
          "duration": 0.20000000000000284
        },
        {
          "name": "D3",
          "midi": 50,
          "time": 49.6008333333335,
          "velocity": 0.7874015748031497,
          "duration": 0.20000000000000284
        },
        {
          "name": "G2",
          "midi": 43,
          "time": 49.8008333333335,
          "velocity": 0.7874015748031497,
          "duration": 0.10000000000000142
        },
        {
          "name": "G2",
          "midi": 43,
          "time": 49.9008333333335,
          "velocity": 0.7874015748031497,
          "duration": 0.10000000000000142
        },
        {
          "name": "G2",
          "midi": 43,
          "time": 50.0008333333335,
          "velocity": 0.7874015748031497,
          "duration": 0.20000000000000284
        },
        {
          "name": "D3",
          "midi": 50,
          "time": 50.200833333333506,
          "velocity": 0.7874015748031497,
          "duration": 0.20000000000000284
        },
        {
          "name": "G2",
          "midi": 43,
          "time": 50.40083333333351,
          "velocity": 0.7874015748031497,
          "duration": 0.10000000000000142
        },
        {
          "name": "G2",
          "midi": 43,
          "time": 50.50083333333351,
          "velocity": 0.7874015748031497,
          "duration": 0.10000000000000142
        },
        {
          "name": "G2",
          "midi": 43,
          "time": 50.60083333333351,
          "velocity": 0.7874015748031497,
          "duration": 0.10000000000000142
        },
        {
          "name": "G2",
          "midi": 43,
          "time": 50.70083333333351,
          "velocity": 0.7874015748031497,
          "duration": 0.10000000000000142
        },
        {
          "name": "G3",
          "midi": 55,
          "time": 50.800833333333514,
          "velocity": 0.7874015748031497,
          "duration": 0.20000000000000284
        },
        {
          "name": "D#3",
          "midi": 51,
          "time": 51.00083333333352,
          "velocity": 0.7874015748031497,
          "duration": 0.20000000000000284
        },
        {
          "name": "D3",
          "midi": 50,
          "time": 51.20416666666685,
          "velocity": 0.7874015748031497,
          "duration": 0.19999999999999574
        },
        {
          "name": "G2",
          "midi": 43,
          "time": 51.400833333333516,
          "velocity": 0.7874015748031497,
          "duration": 0.09999999999999432
        },
        {
          "name": "G2",
          "midi": 43,
          "time": 51.50083333333351,
          "velocity": 0.7874015748031497,
          "duration": 0.10000000000000142
        },
        {
          "name": "G2",
          "midi": 43,
          "time": 51.60083333333351,
          "velocity": 0.7874015748031497,
          "duration": 0.20000000000000284
        },
        {
          "name": "D3",
          "midi": 50,
          "time": 51.800833333333514,
          "velocity": 0.7874015748031497,
          "duration": 0.20000000000000284
        },
        {
          "name": "G2",
          "midi": 43,
          "time": 52.00083333333352,
          "velocity": 0.7874015748031497,
          "duration": 0.10000000000000142
        },
        {
          "name": "G2",
          "midi": 43,
          "time": 52.10083333333352,
          "velocity": 0.7874015748031497,
          "duration": 0.10000000000000142
        },
        {
          "name": "G2",
          "midi": 43,
          "time": 52.20083333333352,
          "velocity": 0.7874015748031497,
          "duration": 0.10000000000000142
        },
        {
          "name": "G2",
          "midi": 43,
          "time": 52.30083333333352,
          "velocity": 0.7874015748031497,
          "duration": 0.10000000000000142
        },
        {
          "name": "D3",
          "midi": 50,
          "time": 52.40083333333352,
          "velocity": 0.7874015748031497,
          "duration": 0.20000000000000284
        },
        {
          "name": "G2",
          "midi": 43,
          "time": 52.600833333333526,
          "velocity": 0.7874015748031497,
          "duration": 0.19999999999999574
        },
        {
          "name": "C3",
          "midi": 48,
          "time": 52.80000000000019,
          "velocity": 0.7874015748031497,
          "duration": 0.3999999999999986
        },
        {
          "name": "D#3",
          "midi": 51,
          "time": 52.80000000000019,
          "velocity": 0.7874015748031497,
          "duration": 0.3999999999999986
        },
        {
          "name": "A#2",
          "midi": 46,
          "time": 53.20000000000019,
          "velocity": 0.7874015748031497,
          "duration": 0.3999999999999986
        },
        {
          "name": "D3",
          "midi": 50,
          "time": 53.20000000000019,
          "velocity": 0.7874015748031497,
          "duration": 0.3999999999999986
        },
        {
          "name": "A2",
          "midi": 45,
          "time": 53.600000000000186,
          "velocity": 0.7874015748031497,
          "duration": 0.3999999999999986
        },
        {
          "name": "C3",
          "midi": 48,
          "time": 53.600000000000186,
          "velocity": 0.7874015748031497,
          "duration": 0.3999999999999986
        },
        {
          "name": "G2",
          "midi": 43,
          "time": 54.000000000000185,
          "velocity": 0.7874015748031497,
          "duration": 0.4024999999999963
        },
        {
          "name": "A#2",
          "midi": 46,
          "time": 54.000000000000185,
          "velocity": 0.7874015748031497,
          "duration": 0.3999999999999986
        },
        {
          "name": "A#2",
          "midi": 46,
          "time": 54.40000000000018,
          "velocity": 0.7874015748031497,
          "duration": 0.19999999999999574
        },
        {
          "name": "A#2",
          "midi": 46,
          "time": 54.66666666666685,
          "velocity": 0.7874015748031497,
          "duration": 0.13250000000000028
        },
        {
          "name": "A2",
          "midi": 45,
          "time": 54.80000000000018,
          "velocity": 0.7874015748031497,
          "duration": 0.13333333333333286
        },
        {
          "name": "G2",
          "midi": 43,
          "time": 54.933333333333515,
          "velocity": 0.7874015748031497,
          "duration": 0.13583333333333059
        },
        {
          "name": "F2",
          "midi": 41,
          "time": 55.06666666666685,
          "velocity": 0.7874015748031497,
          "duration": 0.13333333333333286
        },
        {
          "name": "F2",
          "midi": 41,
          "time": 55.20000000000018,
          "velocity": 0.7874015748031497,
          "duration": 0.13333333333333286
        },
        {
          "name": "G2",
          "midi": 43,
          "time": 55.33333333333351,
          "velocity": 0.7874015748031497,
          "duration": 0.13333333333333286
        },
        {
          "name": "A2",
          "midi": 45,
          "time": 55.466666666666846,
          "velocity": 0.7874015748031497,
          "duration": 0.13333333333333286
        },
        {
          "name": "A#2",
          "midi": 46,
          "time": 55.60000000000018,
          "velocity": 0.7874015748031497,
          "duration": 0.13333333333333286
        },
        {
          "name": "C3",
          "midi": 48,
          "time": 55.73333333333351,
          "velocity": 0.7874015748031497,
          "duration": 0.13333333333333286
        },
        {
          "name": "D3",
          "midi": 50,
          "time": 55.866666666666845,
          "velocity": 0.7874015748031497,
          "duration": 0.13333333333333286
        },
        {
          "name": "D#3",
          "midi": 51,
          "time": 56.00000000000018,
          "velocity": 0.7874015748031497,
          "duration": 0.6000000000000014
        },
        {
          "name": "G3",
          "midi": 55,
          "time": 56.00000000000018,
          "velocity": 0.7874015748031497,
          "duration": 0.6000000000000014
        },
        {
          "name": "D#3",
          "midi": 51,
          "time": 56.60000000000018,
          "velocity": 0.7874015748031497,
          "duration": 0.6000000000000014
        },
        {
          "name": "A3",
          "midi": 57,
          "time": 56.60000000000018,
          "velocity": 0.7874015748031497,
          "duration": 0.6000000000000014
        },
        {
          "name": "D#3",
          "midi": 51,
          "time": 57.20000000000018,
          "velocity": 0.7874015748031497,
          "duration": 0.3999999999999986
        },
        {
          "name": "A#3",
          "midi": 58,
          "time": 57.20000000000018,
          "velocity": 0.7874015748031497,
          "duration": 0.3999999999999986
        },
        {
          "name": "D#3",
          "midi": 51,
          "time": 57.60000000000018,
          "velocity": 0.7874015748031497,
          "duration": 0.6000000000000014
        },
        {
          "name": "G3",
          "midi": 55,
          "time": 57.60000000000018,
          "velocity": 0.7874015748031497,
          "duration": 0.6000000000000014
        },
        {
          "name": "D#3",
          "midi": 51,
          "time": 58.20000000000018,
          "velocity": 0.7874015748031497,
          "duration": 0.6000000000000014
        },
        {
          "name": "A3",
          "midi": 57,
          "time": 58.20000000000018,
          "velocity": 0.7874015748031497,
          "duration": 0.6000000000000014
        },
        {
          "name": "D#3",
          "midi": 51,
          "time": 58.80000000000018,
          "velocity": 0.7874015748031497,
          "duration": 0.3999999999999986
        },
        {
          "name": "A#3",
          "midi": 58,
          "time": 58.80000000000018,
          "velocity": 0.7874015748031497,
          "duration": 0.3999999999999986
        },
        {
          "name": "F3",
          "midi": 53,
          "time": 59.20000000000018,
          "velocity": 0.7874015748031497,
          "duration": 0.6000000000000014
        },
        {
          "name": "A3",
          "midi": 57,
          "time": 59.20000000000018,
          "velocity": 0.7874015748031497,
          "duration": 0.6000000000000014
        },
        {
          "name": "F3",
          "midi": 53,
          "time": 59.80000000000018,
          "velocity": 0.7874015748031497,
          "duration": 0.6000000000000014
        },
        {
          "name": "A#3",
          "midi": 58,
          "time": 59.80000000000018,
          "velocity": 0.7874015748031497,
          "duration": 0.6000000000000014
        },
        {
          "name": "F3",
          "midi": 53,
          "time": 60.40000000000018,
          "velocity": 0.7874015748031497,
          "duration": 0.3999999999999986
        },
        {
          "name": "C4",
          "midi": 60,
          "time": 60.40000000000018,
          "velocity": 0.7874015748031497,
          "duration": 0.3999999999999986
        },
        {
          "name": "F3",
          "midi": 53,
          "time": 60.80000000000018,
          "velocity": 0.7874015748031497,
          "duration": 0.13333333333333286
        },
        {
          "name": "F3",
          "midi": 53,
          "time": 60.933333333333515,
          "velocity": 0.7874015748031497,
          "duration": 0.13333333333333286
        },
        {
          "name": "F3",
          "midi": 53,
          "time": 61.06666666666685,
          "velocity": 0.7874015748031497,
          "duration": 0.13333333333333286
        },
        {
          "name": "F3",
          "midi": 53,
          "time": 61.20000000000018,
          "velocity": 0.7874015748031497,
          "duration": 0.13333333333333286
        },
        {
          "name": "F3",
          "midi": 53,
          "time": 61.33333333333351,
          "velocity": 0.7874015748031497,
          "duration": 0.13333333333333286
        },
        {
          "name": "F3",
          "midi": 53,
          "time": 61.466666666666846,
          "velocity": 0.7874015748031497,
          "duration": 0.13333333333333286
        },
        {
          "name": "F3",
          "midi": 53,
          "time": 61.60000000000018,
          "velocity": 0.7874015748031497,
          "duration": 0.13333333333333286
        },
        {
          "name": "F3",
          "midi": 53,
          "time": 61.73333333333351,
          "velocity": 0.7874015748031497,
          "duration": 0.13333333333333286
        },
        {
          "name": "F3",
          "midi": 53,
          "time": 61.866666666666845,
          "velocity": 0.7874015748031497,
          "duration": 0.13333333333333286
        },
        {
          "name": "F3",
          "midi": 53,
          "time": 62.00000000000018,
          "velocity": 0.7874015748031497,
          "duration": 0.13333333333333286
        },
        {
          "name": "F3",
          "midi": 53,
          "time": 62.13333333333351,
          "velocity": 0.7874015748031497,
          "duration": 0.13333333333333286
        },
        {
          "name": "F3",
          "midi": 53,
          "time": 62.26666666666684,
          "velocity": 0.7874015748031497,
          "duration": 0.13333333333333286
        },
        {
          "name": "D#3",
          "midi": 51,
          "time": 62.400000000000176,
          "velocity": 0.7874015748031497,
          "duration": 0.6000000000000014
        },
        {
          "name": "G3",
          "midi": 55,
          "time": 62.400000000000176,
          "velocity": 0.7874015748031497,
          "duration": 0.6000000000000014
        },
        {
          "name": "D#3",
          "midi": 51,
          "time": 63.00000000000018,
          "velocity": 0.7874015748031497,
          "duration": 0.6000000000000014
        },
        {
          "name": "A3",
          "midi": 57,
          "time": 63.00000000000018,
          "velocity": 0.7874015748031497,
          "duration": 0.6000000000000014
        },
        {
          "name": "D#3",
          "midi": 51,
          "time": 63.60000000000018,
          "velocity": 0.7874015748031497,
          "duration": 0.4000000000000057
        },
        {
          "name": "A#3",
          "midi": 58,
          "time": 63.60000000000018,
          "velocity": 0.7874015748031497,
          "duration": 0.4000000000000057
        },
        {
          "name": "D#3",
          "midi": 51,
          "time": 64.00000000000018,
          "velocity": 0.7874015748031497,
          "duration": 0.5999999999999943
        },
        {
          "name": "G3",
          "midi": 55,
          "time": 64.00000000000018,
          "velocity": 0.7874015748031497,
          "duration": 0.5999999999999943
        },
        {
          "name": "D#3",
          "midi": 51,
          "time": 64.60000000000018,
          "velocity": 0.7874015748031497,
          "duration": 0.5999999999999943
        },
        {
          "name": "A3",
          "midi": 57,
          "time": 64.60000000000018,
          "velocity": 0.7874015748031497,
          "duration": 0.5999999999999943
        },
        {
          "name": "D#3",
          "midi": 51,
          "time": 65.20000000000017,
          "velocity": 0.7874015748031497,
          "duration": 0.4000000000000057
        },
        {
          "name": "A#3",
          "midi": 58,
          "time": 65.20000000000017,
          "velocity": 0.7874015748031497,
          "duration": 0.4000000000000057
        },
        {
          "name": "F3",
          "midi": 53,
          "time": 65.60000000000018,
          "velocity": 0.7874015748031497,
          "duration": 0.5999999999999943
        },
        {
          "name": "A3",
          "midi": 57,
          "time": 65.60000000000018,
          "velocity": 0.7874015748031497,
          "duration": 0.5999999999999943
        },
        {
          "name": "F3",
          "midi": 53,
          "time": 66.20000000000017,
          "velocity": 0.7874015748031497,
          "duration": 0.5999999999999943
        },
        {
          "name": "A#3",
          "midi": 58,
          "time": 66.20000000000017,
          "velocity": 0.7874015748031497,
          "duration": 0.5999999999999943
        },
        {
          "name": "F3",
          "midi": 53,
          "time": 66.80000000000017,
          "velocity": 0.7874015748031497,
          "duration": 0.4000000000000057
        },
        {
          "name": "C4",
          "midi": 60,
          "time": 66.80000000000017,
          "velocity": 0.7874015748031497,
          "duration": 0.4000000000000057
        },
        {
          "name": "F#2",
          "midi": 42,
          "time": 67.20000000000017,
          "velocity": 0.7874015748031497,
          "duration": 0.13333333333332575
        },
        {
          "name": "G2",
          "midi": 43,
          "time": 67.33166666666683,
          "velocity": 0.7874015748031497,
          "duration": 0.13333333333332575
        },
        {
          "name": "A2",
          "midi": 45,
          "time": 67.46666666666682,
          "velocity": 0.7874015748031497,
          "duration": 0.13333333333333997
        },
        {
          "name": "A#2",
          "midi": 46,
          "time": 67.60000000000016,
          "velocity": 0.7874015748031497,
          "duration": 0.13333333333333997
        },
        {
          "name": "C3",
          "midi": 48,
          "time": 67.7333333333335,
          "velocity": 0.7874015748031497,
          "duration": 0.13333333333333997
        },
        {
          "name": "D3",
          "midi": 50,
          "time": 67.86666666666684,
          "velocity": 0.7874015748031497,
          "duration": 0.13333333333333997
        },
        {
          "name": "D#3",
          "midi": 51,
          "time": 68.00000000000018,
          "velocity": 0.7874015748031497,
          "duration": 0.13333333333333997
        },
        {
          "name": "D3",
          "midi": 50,
          "time": 68.13333333333352,
          "velocity": 0.7874015748031497,
          "duration": 0.13333333333333997
        },
        {
          "name": "C3",
          "midi": 48,
          "time": 68.26666666666686,
          "velocity": 0.7874015748031497,
          "duration": 0.13416666666667254
        },
        {
          "name": "A#2",
          "midi": 46,
          "time": 68.40083333333354,
          "velocity": 0.7874015748031497,
          "duration": 0.13333333333332575
        },
        {
          "name": "A2",
          "midi": 45,
          "time": 68.5300000000002,
          "velocity": 0.7874015748031497,
          "duration": 0.13333333333332575
        },
        {
          "name": "F#2",
          "midi": 42,
          "time": 68.66666666666686,
          "velocity": 0.7874015748031497,
          "duration": 0.13666666666667027
        },
        {
          "name": "A#2",
          "midi": 46,
          "time": 68.8000000000002,
          "velocity": 0.7874015748031497,
          "duration": 0.09999999999999432
        },
        {
          "name": "F3",
          "midi": 53,
          "time": 68.8000000000002,
          "velocity": 0.7874015748031497,
          "duration": 0.19999999999998863
        },
        {
          "name": "A#2",
          "midi": 46,
          "time": 68.90000000000019,
          "velocity": 0.7874015748031497,
          "duration": 0.09999999999999432
        },
        {
          "name": "A#2",
          "midi": 46,
          "time": 69.00000000000018,
          "velocity": 0.7874015748031497,
          "duration": 0.09999999999999432
        },
        {
          "name": "A#2",
          "midi": 46,
          "time": 69.10000000000018,
          "velocity": 0.7874015748031497,
          "duration": 0.09999999999999432
        },
        {
          "name": "A#2",
          "midi": 46,
          "time": 69.20000000000017,
          "velocity": 0.7874015748031497,
          "duration": 0.09999999999999432
        },
        {
          "name": "A#2",
          "midi": 46,
          "time": 69.30000000000017,
          "velocity": 0.7874015748031497,
          "duration": 0.09999999999999432
        },
        {
          "name": "A#2",
          "midi": 46,
          "time": 69.40000000000016,
          "velocity": 0.7874015748031497,
          "duration": 0.09999999999999432
        },
        {
          "name": "A#2",
          "midi": 46,
          "time": 69.50000000000016,
          "velocity": 0.7874015748031497,
          "duration": 0.09999999999999432
        },
        {
          "name": "A#2",
          "midi": 46,
          "time": 69.60000000000015,
          "velocity": 0.7874015748031497,
          "duration": 0.09999999999999432
        },
        {
          "name": "A#2",
          "midi": 46,
          "time": 69.70000000000014,
          "velocity": 0.7874015748031497,
          "duration": 0.09999999999999432
        },
        {
          "name": "A#2",
          "midi": 46,
          "time": 69.80000000000014,
          "velocity": 0.7874015748031497,
          "duration": 0.09999999999999432
        },
        {
          "name": "A#2",
          "midi": 46,
          "time": 69.90000000000013,
          "velocity": 0.7874015748031497,
          "duration": 0.09999999999999432
        },
        {
          "name": "A#2",
          "midi": 46,
          "time": 70.00000000000013,
          "velocity": 0.7874015748031497,
          "duration": 0.09999999999999432
        },
        {
          "name": "A#2",
          "midi": 46,
          "time": 70.10000000000012,
          "velocity": 0.7874015748031497,
          "duration": 0.09999999999999432
        },
        {
          "name": "A#2",
          "midi": 46,
          "time": 70.20000000000012,
          "velocity": 0.7874015748031497,
          "duration": 0.09999999999999432
        },
        {
          "name": "A#2",
          "midi": 46,
          "time": 70.30000000000011,
          "velocity": 0.7874015748031497,
          "duration": 0.10333333333332462
        },
        {
          "name": "F2",
          "midi": 41,
          "time": 70.4000000000001,
          "velocity": 0.7874015748031497,
          "duration": 0.09999999999999432
        },
        {
          "name": "C3",
          "midi": 48,
          "time": 70.4000000000001,
          "velocity": 0.7874015748031497,
          "duration": 0.19999999999998863
        },
        {
          "name": "F2",
          "midi": 41,
          "time": 70.5000000000001,
          "velocity": 0.7874015748031497,
          "duration": 0.09999999999999432
        },
        {
          "name": "F2",
          "midi": 41,
          "time": 70.6000000000001,
          "velocity": 0.7874015748031497,
          "duration": 0.09999999999999432
        },
        {
          "name": "F2",
          "midi": 41,
          "time": 70.70000000000009,
          "velocity": 0.7874015748031497,
          "duration": 0.09999999999999432
        },
        {
          "name": "F2",
          "midi": 41,
          "time": 70.80000000000008,
          "velocity": 0.7874015748031497,
          "duration": 0.09999999999999432
        },
        {
          "name": "F2",
          "midi": 41,
          "time": 70.90000000000008,
          "velocity": 0.7874015748031497,
          "duration": 0.09999999999999432
        },
        {
          "name": "F2",
          "midi": 41,
          "time": 71.00000000000007,
          "velocity": 0.7874015748031497,
          "duration": 0.09999999999999432
        },
        {
          "name": "F2",
          "midi": 41,
          "time": 71.10000000000007,
          "velocity": 0.7874015748031497,
          "duration": 0.09999999999999432
        },
        {
          "name": "F2",
          "midi": 41,
          "time": 71.20000000000006,
          "velocity": 0.7874015748031497,
          "duration": 0.09999999999999432
        },
        {
          "name": "F2",
          "midi": 41,
          "time": 71.30000000000005,
          "velocity": 0.7874015748031497,
          "duration": 0.09999999999999432
        },
        {
          "name": "F2",
          "midi": 41,
          "time": 71.40000000000005,
          "velocity": 0.7874015748031497,
          "duration": 0.09999999999999432
        },
        {
          "name": "F2",
          "midi": 41,
          "time": 71.50000000000004,
          "velocity": 0.7874015748031497,
          "duration": 0.09999999999999432
        },
        {
          "name": "F2",
          "midi": 41,
          "time": 71.60000000000004,
          "velocity": 0.7874015748031497,
          "duration": 0.09999999999999432
        },
        {
          "name": "F2",
          "midi": 41,
          "time": 71.70000000000003,
          "velocity": 0.7874015748031497,
          "duration": 0.09999999999999432
        },
        {
          "name": "F2",
          "midi": 41,
          "time": 71.80000000000003,
          "velocity": 0.7874015748031497,
          "duration": 0.09999999999999432
        },
        {
          "name": "F2",
          "midi": 41,
          "time": 71.90000000000002,
          "velocity": 0.7874015748031497,
          "duration": 0.09999999999999432
        },
        {
          "name": "G2",
          "midi": 43,
          "time": 72.00000000000001,
          "velocity": 0.7874015748031497,
          "duration": 0.09999999999999432
        },
        {
          "name": "D3",
          "midi": 50,
          "time": 72.00000000000001,
          "velocity": 0.7874015748031497,
          "duration": 0.19999999999998863
        },
        {
          "name": "G2",
          "midi": 43,
          "time": 72.10000000000001,
          "velocity": 0.7874015748031497,
          "duration": 0.09999999999999432
        },
        {
          "name": "G2",
          "midi": 43,
          "time": 72.2,
          "velocity": 0.7874015748031497,
          "duration": 0.09999999999999432
        },
        {
          "name": "G2",
          "midi": 43,
          "time": 72.3,
          "velocity": 0.7874015748031497,
          "duration": 0.09999999999999432
        },
        {
          "name": "G2",
          "midi": 43,
          "time": 72.39999999999999,
          "velocity": 0.7874015748031497,
          "duration": 0.09999999999999432
        },
        {
          "name": "G2",
          "midi": 43,
          "time": 72.49999999999999,
          "velocity": 0.7874015748031497,
          "duration": 0.09999999999999432
        },
        {
          "name": "G2",
          "midi": 43,
          "time": 72.59999999999998,
          "velocity": 0.7874015748031497,
          "duration": 0.09999999999999432
        },
        {
          "name": "G2",
          "midi": 43,
          "time": 72.69999999999997,
          "velocity": 0.7874015748031497,
          "duration": 0.09999999999999432
        },
        {
          "name": "G2",
          "midi": 43,
          "time": 72.79999999999997,
          "velocity": 0.7874015748031497,
          "duration": 0.09999999999999432
        },
        {
          "name": "G2",
          "midi": 43,
          "time": 72.89999999999996,
          "velocity": 0.7874015748031497,
          "duration": 0.09999999999999432
        },
        {
          "name": "G2",
          "midi": 43,
          "time": 72.99999999999996,
          "velocity": 0.7874015748031497,
          "duration": 0.09999999999999432
        },
        {
          "name": "G2",
          "midi": 43,
          "time": 73.09999999999995,
          "velocity": 0.7874015748031497,
          "duration": 0.09999999999999432
        },
        {
          "name": "G2",
          "midi": 43,
          "time": 73.19999999999995,
          "velocity": 0.7874015748031497,
          "duration": 0.09999999999999432
        },
        {
          "name": "G2",
          "midi": 43,
          "time": 73.29999999999994,
          "velocity": 0.7874015748031497,
          "duration": 0.09999999999999432
        },
        {
          "name": "G2",
          "midi": 43,
          "time": 73.39999999999993,
          "velocity": 0.7874015748031497,
          "duration": 0.09999999999999432
        },
        {
          "name": "G2",
          "midi": 43,
          "time": 73.49999999999993,
          "velocity": 0.7874015748031497,
          "duration": 0.09999999999999432
        },
        {
          "name": "D3",
          "midi": 50,
          "time": 73.59999999999992,
          "velocity": 0.7874015748031497,
          "duration": 0.09999999999999432
        },
        {
          "name": "A3",
          "midi": 57,
          "time": 73.59999999999992,
          "velocity": 0.7874015748031497,
          "duration": 0.19999999999998863
        },
        {
          "name": "D3",
          "midi": 50,
          "time": 73.69999999999992,
          "velocity": 0.7874015748031497,
          "duration": 0.09999999999999432
        },
        {
          "name": "D3",
          "midi": 50,
          "time": 73.79999999999991,
          "velocity": 0.7874015748031497,
          "duration": 0.09999999999999432
        },
        {
          "name": "D3",
          "midi": 50,
          "time": 73.8999999999999,
          "velocity": 0.7874015748031497,
          "duration": 0.09999999999999432
        },
        {
          "name": "D3",
          "midi": 50,
          "time": 73.9999999999999,
          "velocity": 0.7874015748031497,
          "duration": 0.09999999999999432
        },
        {
          "name": "D3",
          "midi": 50,
          "time": 74.0999999999999,
          "velocity": 0.7874015748031497,
          "duration": 0.09999999999999432
        },
        {
          "name": "D3",
          "midi": 50,
          "time": 74.19999999999989,
          "velocity": 0.7874015748031497,
          "duration": 0.09999999999999432
        },
        {
          "name": "D3",
          "midi": 50,
          "time": 74.29999999999988,
          "velocity": 0.7874015748031497,
          "duration": 0.09999999999999432
        },
        {
          "name": "D3",
          "midi": 50,
          "time": 74.39999999999988,
          "velocity": 0.7874015748031497,
          "duration": 0.09999999999999432
        },
        {
          "name": "D3",
          "midi": 50,
          "time": 74.49999999999987,
          "velocity": 0.7874015748031497,
          "duration": 0.09999999999999432
        },
        {
          "name": "D3",
          "midi": 50,
          "time": 74.59999999999987,
          "velocity": 0.7874015748031497,
          "duration": 0.09999999999999432
        },
        {
          "name": "D3",
          "midi": 50,
          "time": 74.69999999999986,
          "velocity": 0.7874015748031497,
          "duration": 0.09999999999999432
        },
        {
          "name": "D3",
          "midi": 50,
          "time": 74.79999999999986,
          "velocity": 0.7874015748031497,
          "duration": 0.09999999999999432
        },
        {
          "name": "D3",
          "midi": 50,
          "time": 74.89999999999985,
          "velocity": 0.7874015748031497,
          "duration": 0.09999999999999432
        },
        {
          "name": "D3",
          "midi": 50,
          "time": 74.99999999999984,
          "velocity": 0.7874015748031497,
          "duration": 0.09999999999999432
        },
        {
          "name": "D3",
          "midi": 50,
          "time": 75.09999999999984,
          "velocity": 0.7874015748031497,
          "duration": 0.09999999999999432
        },
        {
          "name": "D#3",
          "midi": 51,
          "time": 75.19999999999983,
          "velocity": 0.7874015748031497,
          "duration": 0.09999999999999432
        },
        {
          "name": "A#3",
          "midi": 58,
          "time": 75.19999999999983,
          "velocity": 0.7874015748031497,
          "duration": 0.19999999999998863
        },
        {
          "name": "D#3",
          "midi": 51,
          "time": 75.29999999999983,
          "velocity": 0.7874015748031497,
          "duration": 0.09999999999999432
        },
        {
          "name": "D#3",
          "midi": 51,
          "time": 75.39999999999982,
          "velocity": 0.7874015748031497,
          "duration": 0.09999999999999432
        },
        {
          "name": "D#3",
          "midi": 51,
          "time": 75.49999999999982,
          "velocity": 0.7874015748031497,
          "duration": 0.09999999999999432
        },
        {
          "name": "D#3",
          "midi": 51,
          "time": 75.59999999999981,
          "velocity": 0.7874015748031497,
          "duration": 0.09999999999999432
        },
        {
          "name": "D#3",
          "midi": 51,
          "time": 75.6999999999998,
          "velocity": 0.7874015748031497,
          "duration": 0.09999999999999432
        },
        {
          "name": "D#3",
          "midi": 51,
          "time": 75.7999999999998,
          "velocity": 0.7874015748031497,
          "duration": 0.09999999999999432
        },
        {
          "name": "D#3",
          "midi": 51,
          "time": 75.89999999999979,
          "velocity": 0.7874015748031497,
          "duration": 0.09999999999999432
        },
        {
          "name": "D#3",
          "midi": 51,
          "time": 75.99999999999979,
          "velocity": 0.7874015748031497,
          "duration": 0.09999999999999432
        },
        {
          "name": "D#3",
          "midi": 51,
          "time": 76.09999999999978,
          "velocity": 0.7874015748031497,
          "duration": 0.09999999999999432
        },
        {
          "name": "D#3",
          "midi": 51,
          "time": 76.19999999999978,
          "velocity": 0.7874015748031497,
          "duration": 0.09999999999999432
        },
        {
          "name": "D#3",
          "midi": 51,
          "time": 76.29999999999977,
          "velocity": 0.7874015748031497,
          "duration": 0.09999999999999432
        },
        {
          "name": "D#3",
          "midi": 51,
          "time": 76.39999999999976,
          "velocity": 0.7874015748031497,
          "duration": 0.09999999999999432
        },
        {
          "name": "D#3",
          "midi": 51,
          "time": 76.49999999999976,
          "velocity": 0.7874015748031497,
          "duration": 0.09999999999999432
        },
        {
          "name": "D#3",
          "midi": 51,
          "time": 76.59999999999975,
          "velocity": 0.7874015748031497,
          "duration": 0.09999999999999432
        },
        {
          "name": "D#3",
          "midi": 51,
          "time": 76.69999999999975,
          "velocity": 0.7874015748031497,
          "duration": 0.09999999999999432
        },
        {
          "name": "A#2",
          "midi": 46,
          "time": 76.79999999999974,
          "velocity": 0.7874015748031497,
          "duration": 0.09999999999999432
        },
        {
          "name": "F3",
          "midi": 53,
          "time": 76.79999999999974,
          "velocity": 0.7874015748031497,
          "duration": 0.19999999999998863
        },
        {
          "name": "A#2",
          "midi": 46,
          "time": 76.89999999999974,
          "velocity": 0.7874015748031497,
          "duration": 0.09999999999999432
        },
        {
          "name": "A#2",
          "midi": 46,
          "time": 76.99999999999973,
          "velocity": 0.7874015748031497,
          "duration": 0.09999999999999432
        },
        {
          "name": "A#2",
          "midi": 46,
          "time": 77.09999999999972,
          "velocity": 0.7874015748031497,
          "duration": 0.09999999999999432
        },
        {
          "name": "A#2",
          "midi": 46,
          "time": 77.19999999999972,
          "velocity": 0.7874015748031497,
          "duration": 0.09999999999999432
        },
        {
          "name": "A#2",
          "midi": 46,
          "time": 77.29999999999971,
          "velocity": 0.7874015748031497,
          "duration": 0.09999999999999432
        },
        {
          "name": "A#2",
          "midi": 46,
          "time": 77.39999999999971,
          "velocity": 0.7874015748031497,
          "duration": 0.09999999999999432
        },
        {
          "name": "A#2",
          "midi": 46,
          "time": 77.4999999999997,
          "velocity": 0.7874015748031497,
          "duration": 0.09999999999999432
        },
        {
          "name": "A#2",
          "midi": 46,
          "time": 77.5999999999997,
          "velocity": 0.7874015748031497,
          "duration": 0.09999999999999432
        },
        {
          "name": "A#2",
          "midi": 46,
          "time": 77.69999999999969,
          "velocity": 0.7874015748031497,
          "duration": 0.09999999999999432
        },
        {
          "name": "A#2",
          "midi": 46,
          "time": 77.79999999999968,
          "velocity": 0.7874015748031497,
          "duration": 0.09999999999999432
        },
        {
          "name": "A#2",
          "midi": 46,
          "time": 77.89999999999968,
          "velocity": 0.7874015748031497,
          "duration": 0.09999999999999432
        },
        {
          "name": "A#2",
          "midi": 46,
          "time": 77.99999999999967,
          "velocity": 0.7874015748031497,
          "duration": 0.09999999999999432
        },
        {
          "name": "A#2",
          "midi": 46,
          "time": 78.09999999999967,
          "velocity": 0.7874015748031497,
          "duration": 0.09999999999999432
        },
        {
          "name": "A#2",
          "midi": 46,
          "time": 78.19999999999966,
          "velocity": 0.7874015748031497,
          "duration": 0.09999999999999432
        },
        {
          "name": "A#2",
          "midi": 46,
          "time": 78.29999999999966,
          "velocity": 0.7874015748031497,
          "duration": 0.09999999999999432
        },
        {
          "name": "F3",
          "midi": 53,
          "time": 78.39999999999965,
          "velocity": 0.7874015748031497,
          "duration": 0.5999999999999943
        },
        {
          "name": "C4",
          "midi": 60,
          "time": 78.39999999999965,
          "velocity": 0.7874015748031497,
          "duration": 0.5999999999999943
        },
        {
          "name": "F3",
          "midi": 53,
          "time": 78.99999999999964,
          "velocity": 0.7874015748031497,
          "duration": 0.5999999999999943
        },
        {
          "name": "C4",
          "midi": 60,
          "time": 78.99999999999964,
          "velocity": 0.7874015748031497,
          "duration": 0.5999999999999943
        },
        {
          "name": "F3",
          "midi": 53,
          "time": 79.59999999999964,
          "velocity": 0.7874015748031497,
          "duration": 0.20000000000000284
        },
        {
          "name": "C4",
          "midi": 60,
          "time": 79.59999999999964,
          "velocity": 0.7874015748031497,
          "duration": 0.20000000000000284
        },
        {
          "name": "F3",
          "midi": 53,
          "time": 79.79999999999964,
          "velocity": 0.7874015748031497,
          "duration": 0.20000000000000284
        },
        {
          "name": "C4",
          "midi": 60,
          "time": 79.79999999999964,
          "velocity": 0.7874015748031497,
          "duration": 0.20000000000000284
        },
        {
          "name": "F3",
          "midi": 53,
          "time": 79.99999999999964,
          "velocity": 0.7874015748031497,
          "duration": 0.5999999999999943
        },
        {
          "name": "C4",
          "midi": 60,
          "time": 79.99999999999964,
          "velocity": 0.7874015748031497,
          "duration": 0.5999999999999943
        },
        {
          "name": "F3",
          "midi": 53,
          "time": 80.59999999999964,
          "velocity": 0.7874015748031497,
          "duration": 0.20000000000000284
        },
        {
          "name": "C4",
          "midi": 60,
          "time": 80.59999999999964,
          "velocity": 0.7874015748031497,
          "duration": 0.20000000000000284
        },
        {
          "name": "F3",
          "midi": 53,
          "time": 80.79999999999964,
          "velocity": 0.7874015748031497,
          "duration": 0.7999999999999972
        },
        {
          "name": "C4",
          "midi": 60,
          "time": 80.79999999999964,
          "velocity": 0.7874015748031497,
          "duration": 0.7999999999999972
        },
        {
          "name": "G2",
          "midi": 43,
          "time": 81.59999999999964,
          "velocity": 0.7874015748031497,
          "duration": 0.09999999999999432
        },
        {
          "name": "D3",
          "midi": 50,
          "time": 81.59999999999964,
          "velocity": 0.7874015748031497,
          "duration": 0.19999999999998863
        },
        {
          "name": "G2",
          "midi": 43,
          "time": 81.69999999999963,
          "velocity": 0.7874015748031497,
          "duration": 0.09999999999999432
        },
        {
          "name": "G2",
          "midi": 43,
          "time": 81.79999999999963,
          "velocity": 0.7874015748031497,
          "duration": 0.09999999999999432
        },
        {
          "name": "G2",
          "midi": 43,
          "time": 81.89999999999962,
          "velocity": 0.7874015748031497,
          "duration": 0.09999999999999432
        },
        {
          "name": "G2",
          "midi": 43,
          "time": 81.99999999999962,
          "velocity": 0.7874015748031497,
          "duration": 0.09999999999999432
        },
        {
          "name": "G2",
          "midi": 43,
          "time": 82.09999999999961,
          "velocity": 0.7874015748031497,
          "duration": 0.09999999999999432
        },
        {
          "name": "G2",
          "midi": 43,
          "time": 82.1999999999996,
          "velocity": 0.7874015748031497,
          "duration": 0.09999999999999432
        },
        {
          "name": "G2",
          "midi": 43,
          "time": 82.2999999999996,
          "velocity": 0.7874015748031497,
          "duration": 0.09999999999999432
        },
        {
          "name": "G2",
          "midi": 43,
          "time": 82.3999999999996,
          "velocity": 0.7874015748031497,
          "duration": 0.09999999999999432
        },
        {
          "name": "G2",
          "midi": 43,
          "time": 82.49999999999959,
          "velocity": 0.7874015748031497,
          "duration": 0.09999999999999432
        },
        {
          "name": "G2",
          "midi": 43,
          "time": 82.59999999999958,
          "velocity": 0.7874015748031497,
          "duration": 0.09999999999999432
        },
        {
          "name": "G2",
          "midi": 43,
          "time": 82.69999999999958,
          "velocity": 0.7874015748031497,
          "duration": 0.09999999999999432
        },
        {
          "name": "G2",
          "midi": 43,
          "time": 82.79999999999957,
          "velocity": 0.7874015748031497,
          "duration": 0.09999999999999432
        },
        {
          "name": "G2",
          "midi": 43,
          "time": 82.89999999999957,
          "velocity": 0.7874015748031497,
          "duration": 0.09999999999999432
        },
        {
          "name": "G2",
          "midi": 43,
          "time": 82.99999999999956,
          "velocity": 0.7874015748031497,
          "duration": 0.09999999999999432
        },
        {
          "name": "G2",
          "midi": 43,
          "time": 83.09999999999955,
          "velocity": 0.7874015748031497,
          "duration": 0.09999999999999432
        },
        {
          "name": "D3",
          "midi": 50,
          "time": 83.19999999999955,
          "velocity": 0.7874015748031497,
          "duration": 0.09999999999999432
        },
        {
          "name": "A3",
          "midi": 57,
          "time": 83.19999999999955,
          "velocity": 0.7874015748031497,
          "duration": 0.19999999999998863
        },
        {
          "name": "D3",
          "midi": 50,
          "time": 83.29999999999954,
          "velocity": 0.7874015748031497,
          "duration": 0.09999999999999432
        },
        {
          "name": "D3",
          "midi": 50,
          "time": 83.39999999999954,
          "velocity": 0.7874015748031497,
          "duration": 0.09999999999999432
        },
        {
          "name": "D3",
          "midi": 50,
          "time": 83.49999999999953,
          "velocity": 0.7874015748031497,
          "duration": 0.09999999999999432
        },
        {
          "name": "D3",
          "midi": 50,
          "time": 83.59999999999953,
          "velocity": 0.7874015748031497,
          "duration": 0.09999999999999432
        },
        {
          "name": "D3",
          "midi": 50,
          "time": 83.69999999999952,
          "velocity": 0.7874015748031497,
          "duration": 0.09999999999999432
        },
        {
          "name": "D3",
          "midi": 50,
          "time": 83.79999999999951,
          "velocity": 0.7874015748031497,
          "duration": 0.09999999999999432
        },
        {
          "name": "D3",
          "midi": 50,
          "time": 83.89999999999951,
          "velocity": 0.7874015748031497,
          "duration": 0.09999999999999432
        },
        {
          "name": "D3",
          "midi": 50,
          "time": 83.9999999999995,
          "velocity": 0.7874015748031497,
          "duration": 0.09999999999999432
        },
        {
          "name": "D3",
          "midi": 50,
          "time": 84.0999999999995,
          "velocity": 0.7874015748031497,
          "duration": 0.09999999999999432
        },
        {
          "name": "D3",
          "midi": 50,
          "time": 84.19999999999949,
          "velocity": 0.7874015748031497,
          "duration": 0.09999999999999432
        },
        {
          "name": "D3",
          "midi": 50,
          "time": 84.29999999999949,
          "velocity": 0.7874015748031497,
          "duration": 0.09999999999999432
        },
        {
          "name": "D3",
          "midi": 50,
          "time": 84.39999999999948,
          "velocity": 0.7874015748031497,
          "duration": 0.09999999999999432
        },
        {
          "name": "D3",
          "midi": 50,
          "time": 84.49999999999947,
          "velocity": 0.7874015748031497,
          "duration": 0.09999999999999432
        },
        {
          "name": "D3",
          "midi": 50,
          "time": 84.59999999999947,
          "velocity": 0.7874015748031497,
          "duration": 0.09999999999999432
        },
        {
          "name": "D3",
          "midi": 50,
          "time": 84.69999999999946,
          "velocity": 0.7874015748031497,
          "duration": 0.09999999999999432
        },
        {
          "name": "D#3",
          "midi": 51,
          "time": 84.79999999999946,
          "velocity": 0.7874015748031497,
          "duration": 0.09999999999999432
        },
        {
          "name": "A#3",
          "midi": 58,
          "time": 84.79999999999946,
          "velocity": 0.7874015748031497,
          "duration": 0.19999999999998863
        },
        {
          "name": "D#3",
          "midi": 51,
          "time": 84.89999999999945,
          "velocity": 0.7874015748031497,
          "duration": 0.09999999999999432
        },
        {
          "name": "D#3",
          "midi": 51,
          "time": 84.99999999999945,
          "velocity": 0.7874015748031497,
          "duration": 0.09999999999999432
        },
        {
          "name": "D#3",
          "midi": 51,
          "time": 85.09999999999944,
          "velocity": 0.7874015748031497,
          "duration": 0.09999999999999432
        },
        {
          "name": "D#3",
          "midi": 51,
          "time": 85.19999999999943,
          "velocity": 0.7874015748031497,
          "duration": 0.09999999999999432
        },
        {
          "name": "D#3",
          "midi": 51,
          "time": 85.29999999999943,
          "velocity": 0.7874015748031497,
          "duration": 0.09999999999999432
        },
        {
          "name": "D#3",
          "midi": 51,
          "time": 85.39999999999942,
          "velocity": 0.7874015748031497,
          "duration": 0.09999999999999432
        },
        {
          "name": "D#3",
          "midi": 51,
          "time": 85.49999999999942,
          "velocity": 0.7874015748031497,
          "duration": 0.09999999999999432
        },
        {
          "name": "D#3",
          "midi": 51,
          "time": 85.59999999999941,
          "velocity": 0.7874015748031497,
          "duration": 0.09999999999999432
        },
        {
          "name": "D#3",
          "midi": 51,
          "time": 85.6999999999994,
          "velocity": 0.7874015748031497,
          "duration": 0.09999999999999432
        },
        {
          "name": "D#3",
          "midi": 51,
          "time": 85.7999999999994,
          "velocity": 0.7874015748031497,
          "duration": 0.09999999999999432
        },
        {
          "name": "D#3",
          "midi": 51,
          "time": 85.8999999999994,
          "velocity": 0.7874015748031497,
          "duration": 0.09999999999999432
        },
        {
          "name": "D#3",
          "midi": 51,
          "time": 85.99999999999939,
          "velocity": 0.7874015748031497,
          "duration": 0.09999999999999432
        },
        {
          "name": "D#3",
          "midi": 51,
          "time": 86.09999999999938,
          "velocity": 0.7874015748031497,
          "duration": 0.09999999999999432
        },
        {
          "name": "D#3",
          "midi": 51,
          "time": 86.19999999999938,
          "velocity": 0.7874015748031497,
          "duration": 0.09999999999999432
        },
        {
          "name": "D#3",
          "midi": 51,
          "time": 86.29999999999937,
          "velocity": 0.7874015748031497,
          "duration": 0.09999999999999432
        },
        {
          "name": "A#2",
          "midi": 46,
          "time": 86.39999999999937,
          "velocity": 0.7874015748031497,
          "duration": 0.09999999999999432
        },
        {
          "name": "F3",
          "midi": 53,
          "time": 86.39999999999937,
          "velocity": 0.7874015748031497,
          "duration": 0.19999999999998863
        },
        {
          "name": "A#2",
          "midi": 46,
          "time": 86.49999999999936,
          "velocity": 0.7874015748031497,
          "duration": 0.09999999999999432
        },
        {
          "name": "A#2",
          "midi": 46,
          "time": 86.59999999999935,
          "velocity": 0.7874015748031497,
          "duration": 0.09999999999999432
        },
        {
          "name": "A#2",
          "midi": 46,
          "time": 86.69999999999935,
          "velocity": 0.7874015748031497,
          "duration": 0.09999999999999432
        },
        {
          "name": "A#2",
          "midi": 46,
          "time": 86.79999999999934,
          "velocity": 0.7874015748031497,
          "duration": 0.09999999999999432
        },
        {
          "name": "A#2",
          "midi": 46,
          "time": 86.89999999999934,
          "velocity": 0.7874015748031497,
          "duration": 0.09999999999999432
        },
        {
          "name": "A#2",
          "midi": 46,
          "time": 86.99999999999933,
          "velocity": 0.7874015748031497,
          "duration": 0.09999999999999432
        },
        {
          "name": "A#2",
          "midi": 46,
          "time": 87.09999999999933,
          "velocity": 0.7874015748031497,
          "duration": 0.09999999999999432
        },
        {
          "name": "A#2",
          "midi": 46,
          "time": 87.19999999999932,
          "velocity": 0.7874015748031497,
          "duration": 0.09999999999999432
        },
        {
          "name": "A#2",
          "midi": 46,
          "time": 87.29999999999932,
          "velocity": 0.7874015748031497,
          "duration": 0.09999999999999432
        },
        {
          "name": "A#2",
          "midi": 46,
          "time": 87.39999999999931,
          "velocity": 0.7874015748031497,
          "duration": 0.09999999999999432
        },
        {
          "name": "A#2",
          "midi": 46,
          "time": 87.4999999999993,
          "velocity": 0.7874015748031497,
          "duration": 0.09999999999999432
        },
        {
          "name": "A#2",
          "midi": 46,
          "time": 87.5999999999993,
          "velocity": 0.7874015748031497,
          "duration": 0.09999999999999432
        },
        {
          "name": "A#2",
          "midi": 46,
          "time": 87.69999999999929,
          "velocity": 0.7874015748031497,
          "duration": 0.09999999999999432
        },
        {
          "name": "A#2",
          "midi": 46,
          "time": 87.79999999999929,
          "velocity": 0.7874015748031497,
          "duration": 0.09999999999999432
        },
        {
          "name": "A#2",
          "midi": 46,
          "time": 87.89999999999928,
          "velocity": 0.7874015748031497,
          "duration": 0.09999999999999432
        },
        {
          "name": "D#3",
          "midi": 51,
          "time": 87.99999999999928,
          "velocity": 0.7874015748031497,
          "duration": 0.09999999999999432
        },
        {
          "name": "A#3",
          "midi": 58,
          "time": 87.99999999999928,
          "velocity": 0.7874015748031497,
          "duration": 0.19999999999998863
        },
        {
          "name": "D#3",
          "midi": 51,
          "time": 88.09999999999927,
          "velocity": 0.7874015748031497,
          "duration": 0.09999999999999432
        },
        {
          "name": "D#3",
          "midi": 51,
          "time": 88.19999999999926,
          "velocity": 0.7874015748031497,
          "duration": 0.09999999999999432
        },
        {
          "name": "D#3",
          "midi": 51,
          "time": 88.29999999999926,
          "velocity": 0.7874015748031497,
          "duration": 0.09999999999999432
        },
        {
          "name": "D#3",
          "midi": 51,
          "time": 88.39999999999925,
          "velocity": 0.7874015748031497,
          "duration": 0.09999999999999432
        },
        {
          "name": "D#3",
          "midi": 51,
          "time": 88.49999999999925,
          "velocity": 0.7874015748031497,
          "duration": 0.09999999999999432
        },
        {
          "name": "D#3",
          "midi": 51,
          "time": 88.59999999999924,
          "velocity": 0.7874015748031497,
          "duration": 0.09999999999999432
        },
        {
          "name": "D#3",
          "midi": 51,
          "time": 88.69999999999924,
          "velocity": 0.7874015748031497,
          "duration": 0.09999999999999432
        },
        {
          "name": "D#3",
          "midi": 51,
          "time": 88.79999999999923,
          "velocity": 0.7874015748031497,
          "duration": 0.09999999999999432
        },
        {
          "name": "D#3",
          "midi": 51,
          "time": 88.89999999999922,
          "velocity": 0.7874015748031497,
          "duration": 0.09999999999999432
        },
        {
          "name": "D#3",
          "midi": 51,
          "time": 88.99999999999922,
          "velocity": 0.7874015748031497,
          "duration": 0.09999999999999432
        },
        {
          "name": "D#3",
          "midi": 51,
          "time": 89.09999999999921,
          "velocity": 0.7874015748031497,
          "duration": 0.09999999999999432
        },
        {
          "name": "D#3",
          "midi": 51,
          "time": 89.1999999999992,
          "velocity": 0.7874015748031497,
          "duration": 0.09999999999999432
        },
        {
          "name": "D#3",
          "midi": 51,
          "time": 89.2999999999992,
          "velocity": 0.7874015748031497,
          "duration": 0.09999999999999432
        },
        {
          "name": "D#3",
          "midi": 51,
          "time": 89.3999999999992,
          "velocity": 0.7874015748031497,
          "duration": 0.09999999999999432
        },
        {
          "name": "D#3",
          "midi": 51,
          "time": 89.49999999999919,
          "velocity": 0.7874015748031497,
          "duration": 0.09499999999999886
        },
        {
          "name": "A#2",
          "midi": 46,
          "time": 89.59999999999918,
          "velocity": 0.7874015748031497,
          "duration": 0.09999999999999432
        },
        {
          "name": "F3",
          "midi": 53,
          "time": 89.59999999999918,
          "velocity": 0.7874015748031497,
          "duration": 0.19999999999998863
        },
        {
          "name": "A#2",
          "midi": 46,
          "time": 89.69999999999918,
          "velocity": 0.7874015748031497,
          "duration": 0.09999999999999432
        },
        {
          "name": "A#2",
          "midi": 46,
          "time": 89.79999999999917,
          "velocity": 0.7874015748031497,
          "duration": 0.09999999999999432
        },
        {
          "name": "A#2",
          "midi": 46,
          "time": 89.89999999999917,
          "velocity": 0.7874015748031497,
          "duration": 0.09999999999999432
        },
        {
          "name": "A#2",
          "midi": 46,
          "time": 89.99999999999916,
          "velocity": 0.7874015748031497,
          "duration": 0.09999999999999432
        },
        {
          "name": "A#2",
          "midi": 46,
          "time": 90.09999999999916,
          "velocity": 0.7874015748031497,
          "duration": 0.09999999999999432
        },
        {
          "name": "A#2",
          "midi": 46,
          "time": 90.19999999999915,
          "velocity": 0.7874015748031497,
          "duration": 0.09999999999999432
        },
        {
          "name": "A#2",
          "midi": 46,
          "time": 90.29999999999914,
          "velocity": 0.7874015748031497,
          "duration": 0.09999999999999432
        },
        {
          "name": "A#2",
          "midi": 46,
          "time": 90.39999999999914,
          "velocity": 0.7874015748031497,
          "duration": 0.09999999999999432
        },
        {
          "name": "A#2",
          "midi": 46,
          "time": 90.49999999999913,
          "velocity": 0.7874015748031497,
          "duration": 0.09999999999999432
        },
        {
          "name": "A#2",
          "midi": 46,
          "time": 90.59999999999913,
          "velocity": 0.7874015748031497,
          "duration": 0.09999999999999432
        },
        {
          "name": "A#2",
          "midi": 46,
          "time": 90.69999999999912,
          "velocity": 0.7874015748031497,
          "duration": 0.09999999999999432
        },
        {
          "name": "A#2",
          "midi": 46,
          "time": 90.79999999999912,
          "velocity": 0.7874015748031497,
          "duration": 0.09999999999999432
        },
        {
          "name": "A#2",
          "midi": 46,
          "time": 90.89999999999911,
          "velocity": 0.7874015748031497,
          "duration": 0.09999999999999432
        },
        {
          "name": "A#2",
          "midi": 46,
          "time": 90.9999999999991,
          "velocity": 0.7874015748031497,
          "duration": 0.09999999999999432
        },
        {
          "name": "A#2",
          "midi": 46,
          "time": 91.0999999999991,
          "velocity": 0.7874015748031497,
          "duration": 0.09999999999999432
        },
        {
          "name": "F3",
          "midi": 53,
          "time": 91.1999999999991,
          "velocity": 0.7874015748031497,
          "duration": 0.5999999999999943
        },
        {
          "name": "C4",
          "midi": 60,
          "time": 91.1999999999991,
          "velocity": 0.7874015748031497,
          "duration": 0.5999999999999943
        },
        {
          "name": "F3",
          "midi": 53,
          "time": 91.79999999999909,
          "velocity": 0.7874015748031497,
          "duration": 0.5999999999999943
        },
        {
          "name": "C4",
          "midi": 60,
          "time": 91.79999999999909,
          "velocity": 0.7874015748031497,
          "duration": 0.5999999999999943
        },
        {
          "name": "F3",
          "midi": 53,
          "time": 92.39999999999908,
          "velocity": 0.7874015748031497,
          "duration": 0.20000000000000284
        },
        {
          "name": "C4",
          "midi": 60,
          "time": 92.39999999999908,
          "velocity": 0.7874015748031497,
          "duration": 0.20000000000000284
        },
        {
          "name": "F3",
          "midi": 53,
          "time": 92.59999999999908,
          "velocity": 0.7874015748031497,
          "duration": 0.20000000000000284
        },
        {
          "name": "C4",
          "midi": 60,
          "time": 92.59999999999908,
          "velocity": 0.7874015748031497,
          "duration": 0.20000000000000284
        },
        {
          "name": "F3",
          "midi": 53,
          "time": 92.79999999999909,
          "velocity": 0.7874015748031497,
          "duration": 0.5999999999999943
        },
        {
          "name": "C4",
          "midi": 60,
          "time": 92.79999999999909,
          "velocity": 0.7874015748031497,
          "duration": 0.5999999999999943
        },
        {
          "name": "F3",
          "midi": 53,
          "time": 93.39999999999908,
          "velocity": 0.7874015748031497,
          "duration": 0.5999999999999943
        },
        {
          "name": "C4",
          "midi": 60,
          "time": 93.39999999999908,
          "velocity": 0.7874015748031497,
          "duration": 0.5999999999999943
        },
        {
          "name": "F3",
          "midi": 53,
          "time": 93.99999999999908,
          "velocity": 0.7874015748031497,
          "duration": 0.4000000000000057
        },
        {
          "name": "C4",
          "midi": 60,
          "time": 93.99999999999908,
          "velocity": 0.7874015748031497,
          "duration": 0.4000000000000057
        },
        {
          "name": "A#2",
          "midi": 46,
          "time": 94.39999999999908,
          "velocity": 0.7874015748031497,
          "duration": 0.09999999999999432
        },
        {
          "name": "A#2",
          "midi": 46,
          "time": 94.49999999999908,
          "velocity": 0.7874015748031497,
          "duration": 0.09999999999999432
        },
        {
          "name": "A#2",
          "midi": 46,
          "time": 94.59999999999907,
          "velocity": 0.7874015748031497,
          "duration": 0.09999999999999432
        },
        {
          "name": "A#2",
          "midi": 46,
          "time": 94.69999999999906,
          "velocity": 0.7874015748031497,
          "duration": 0.09999999999999432
        },
        {
          "name": "A2",
          "midi": 45,
          "time": 94.79999999999906,
          "velocity": 0.7874015748031497,
          "duration": 0.09999999999999432
        },
        {
          "name": "A2",
          "midi": 45,
          "time": 94.89999999999905,
          "velocity": 0.7874015748031497,
          "duration": 0.09999999999999432
        },
        {
          "name": "A2",
          "midi": 45,
          "time": 94.99999999999905,
          "velocity": 0.7874015748031497,
          "duration": 0.09999999999999432
        },
        {
          "name": "A2",
          "midi": 45,
          "time": 95.09999999999904,
          "velocity": 0.7874015748031497,
          "duration": 0.09999999999999432
        },
        {
          "name": "G2",
          "midi": 43,
          "time": 95.19999999999904,
          "velocity": 0.7874015748031497,
          "duration": 0.09999999999999432
        },
        {
          "name": "G2",
          "midi": 43,
          "time": 95.29999999999903,
          "velocity": 0.7874015748031497,
          "duration": 0.09999999999999432
        },
        {
          "name": "G2",
          "midi": 43,
          "time": 95.39999999999903,
          "velocity": 0.7874015748031497,
          "duration": 0.09999999999999432
        },
        {
          "name": "G2",
          "midi": 43,
          "time": 95.49999999999902,
          "velocity": 0.7874015748031497,
          "duration": 0.09999999999999432
        },
        {
          "name": "F2",
          "midi": 41,
          "time": 95.59999999999901,
          "velocity": 0.7874015748031497,
          "duration": 0.09999999999999432
        },
        {
          "name": "F2",
          "midi": 41,
          "time": 95.69999999999901,
          "velocity": 0.7874015748031497,
          "duration": 0.09999999999999432
        },
        {
          "name": "F2",
          "midi": 41,
          "time": 95.799999999999,
          "velocity": 0.7874015748031497,
          "duration": 0.09999999999999432
        },
        {
          "name": "F2",
          "midi": 41,
          "time": 95.899999999999,
          "velocity": 0.7874015748031497,
          "duration": 0.10249999999999204
        },
        {
          "name": "A#2",
          "midi": 46,
          "time": 95.99999999999899,
          "velocity": 0.7874015748031497,
          "duration": 0.3999999999999915
        },
        {
          "name": "D#3",
          "midi": 51,
          "time": 95.99999999999899,
          "velocity": 0.7874015748031497,
          "duration": 0.3999999999999915
        },
        {
          "name": "C3",
          "midi": 48,
          "time": 96.39999999999898,
          "velocity": 0.7874015748031497,
          "duration": 0.4000000000000057
        },
        {
          "name": "F3",
          "midi": 53,
          "time": 96.39999999999898,
          "velocity": 0.7874015748031497,
          "duration": 0.4000000000000057
        },
        {
          "name": "G4",
          "midi": 67,
          "time": 96.79999999999899,
          "velocity": 0.7874015748031497,
          "duration": 0.20000000000000284
        },
        {
          "name": "G4",
          "midi": 67,
          "time": 96.99999999999899,
          "velocity": 0.7874015748031497,
          "duration": 0.09999999999999432
        },
        {
          "name": "G4",
          "midi": 67,
          "time": 97.09999999999899,
          "velocity": 0.7874015748031497,
          "duration": 0.09999999999999432
        },
        {
          "name": "A4",
          "midi": 69,
          "time": 97.19999999999898,
          "velocity": 0.7874015748031497,
          "duration": 0.19916666666667027
        },
        {
          "name": "G4",
          "midi": 67,
          "time": 97.39999999999898,
          "velocity": 0.7874015748031497,
          "duration": 0.09999999999999432
        },
        {
          "name": "G4",
          "midi": 67,
          "time": 97.49999999999898,
          "velocity": 0.7874015748031497,
          "duration": 0.09999999999999432
        },
        {
          "name": "A#4",
          "midi": 70,
          "time": 97.59999999999897,
          "velocity": 0.7874015748031497,
          "duration": 0.20000000000000284
        },
        {
          "name": "G4",
          "midi": 67,
          "time": 97.79999999999897,
          "velocity": 0.7874015748031497,
          "duration": 0.09999999999999432
        },
        {
          "name": "G4",
          "midi": 67,
          "time": 97.89999999999897,
          "velocity": 0.7874015748031497,
          "duration": 0.09999999999999432
        },
        {
          "name": "G4",
          "midi": 67,
          "time": 97.99999999999896,
          "velocity": 0.7874015748031497,
          "duration": 0.20000000000000284
        },
        {
          "name": "G4",
          "midi": 67,
          "time": 98.19999999999897,
          "velocity": 0.7874015748031497,
          "duration": 0.10499999999998977
        },
        {
          "name": "G4",
          "midi": 67,
          "time": 98.29999999999896,
          "velocity": 0.7874015748031497,
          "duration": 0.09999999999999432
        },
        {
          "name": "C5",
          "midi": 72,
          "time": 98.39999999999895,
          "velocity": 0.7874015748031497,
          "duration": 0.20000000000000284
        },
        {
          "name": "G4",
          "midi": 67,
          "time": 98.59999999999896,
          "velocity": 0.7874015748031497,
          "duration": 0.09999999999999432
        },
        {
          "name": "G4",
          "midi": 67,
          "time": 98.69999999999895,
          "velocity": 0.7874015748031497,
          "duration": 0.09999999999999432
        },
        {
          "name": "A4",
          "midi": 69,
          "time": 98.79999999999895,
          "velocity": 0.7874015748031497,
          "duration": 0.20000000000000284
        },
        {
          "name": "G4",
          "midi": 67,
          "time": 98.99999999999895,
          "velocity": 0.7874015748031497,
          "duration": 0.09999999999999432
        },
        {
          "name": "G4",
          "midi": 67,
          "time": 99.09999999999894,
          "velocity": 0.7874015748031497,
          "duration": 0.09999999999999432
        },
        {
          "name": "A#4",
          "midi": 70,
          "time": 99.2016666666656,
          "velocity": 0.7874015748031497,
          "duration": 0.20000000000000284
        },
        {
          "name": "G4",
          "midi": 67,
          "time": 99.39999999999894,
          "velocity": 0.7874015748031497,
          "duration": 0.09999999999999432
        },
        {
          "name": "G4",
          "midi": 67,
          "time": 99.49999999999893,
          "velocity": 0.7874015748031497,
          "duration": 0.09999999999999432
        },
        {
          "name": "G4",
          "midi": 67,
          "time": 99.59999999999893,
          "velocity": 0.7874015748031497,
          "duration": 0.20333333333333314
        },
        {
          "name": "G4",
          "midi": 67,
          "time": 99.79999999999893,
          "velocity": 0.7874015748031497,
          "duration": 0.09999999999999432
        },
        {
          "name": "G4",
          "midi": 67,
          "time": 99.89999999999893,
          "velocity": 0.7874015748031497,
          "duration": 0.09999999999999432
        },
        {
          "name": "G4",
          "midi": 67,
          "time": 99.99999999999892,
          "velocity": 0.7874015748031497,
          "duration": 0.20000000000000284
        },
        {
          "name": "G4",
          "midi": 67,
          "time": 100.19999999999892,
          "velocity": 0.7874015748031497,
          "duration": 0.09999999999999432
        },
        {
          "name": "G4",
          "midi": 67,
          "time": 100.29999999999892,
          "velocity": 0.7874015748031497,
          "duration": 0.09999999999999432
        },
        {
          "name": "A4",
          "midi": 69,
          "time": 100.39999999999891,
          "velocity": 0.7874015748031497,
          "duration": 0.19916666666667027
        },
        {
          "name": "G4",
          "midi": 67,
          "time": 100.59999999999891,
          "velocity": 0.7874015748031497,
          "duration": 0.09999999999999432
        },
        {
          "name": "G4",
          "midi": 67,
          "time": 100.69999999999891,
          "velocity": 0.7874015748031497,
          "duration": 0.09999999999999432
        },
        {
          "name": "A#4",
          "midi": 70,
          "time": 100.7999999999989,
          "velocity": 0.7874015748031497,
          "duration": 0.20000000000000284
        },
        {
          "name": "G4",
          "midi": 67,
          "time": 100.9999999999989,
          "velocity": 0.7874015748031497,
          "duration": 0.09999999999999432
        },
        {
          "name": "G4",
          "midi": 67,
          "time": 101.0999999999989,
          "velocity": 0.7874015748031497,
          "duration": 0.09999999999999432
        },
        {
          "name": "G4",
          "midi": 67,
          "time": 101.1999999999989,
          "velocity": 0.7874015748031497,
          "duration": 0.20000000000000284
        },
        {
          "name": "G4",
          "midi": 67,
          "time": 101.3999999999989,
          "velocity": 0.7874015748031497,
          "duration": 0.10499999999998977
        },
        {
          "name": "G4",
          "midi": 67,
          "time": 101.49999999999889,
          "velocity": 0.7874015748031497,
          "duration": 0.09999999999999432
        },
        {
          "name": "A#4",
          "midi": 70,
          "time": 101.59833333333222,
          "velocity": 0.7874015748031497,
          "duration": 0.39333333333333087
        },
        {
          "name": "C5",
          "midi": 72,
          "time": 101.99999999999889,
          "velocity": 0.7874015748031497,
          "duration": 0.4100000000000108
        },
        {
          "name": "D5",
          "midi": 74,
          "time": 102.3999999999989,
          "velocity": 0.7874015748031497,
          "duration": 0.39750000000000796
        },
        {
          "name": "F5",
          "midi": 77,
          "time": 102.7999999999989,
          "velocity": 0.7874015748031497,
          "duration": 0.4000000000000057
        },
        {
          "name": "D3",
          "midi": 50,
          "time": 103.19999999999891,
          "velocity": 0.7874015748031497,
          "duration": 0.20000000000000284
        },
        {
          "name": "G2",
          "midi": 43,
          "time": 103.39999999999891,
          "velocity": 0.7874015748031497,
          "duration": 0.09999999999999432
        },
        {
          "name": "G2",
          "midi": 43,
          "time": 103.4999999999989,
          "velocity": 0.7874015748031497,
          "duration": 0.09916666666666174
        },
        {
          "name": "G2",
          "midi": 43,
          "time": 103.59916666666557,
          "velocity": 0.7874015748031497,
          "duration": 0.20416666666666572
        },
        {
          "name": "D3",
          "midi": 50,
          "time": 103.7999999999989,
          "velocity": 0.7874015748031497,
          "duration": 0.20083333333333542
        },
        {
          "name": "G2",
          "midi": 43,
          "time": 104.00083333333224,
          "velocity": 0.7874015748031497,
          "duration": 0.09999999999999432
        },
        {
          "name": "G2",
          "midi": 43,
          "time": 104.0999999999989,
          "velocity": 0.7874015748031497,
          "duration": 0.09999999999999432
        },
        {
          "name": "G2",
          "midi": 43,
          "time": 104.1999999999989,
          "velocity": 0.7874015748031497,
          "duration": 0.09999999999999432
        },
        {
          "name": "G2",
          "midi": 43,
          "time": 104.29999999999889,
          "velocity": 0.7874015748031497,
          "duration": 0.09999999999999432
        },
        {
          "name": "D3",
          "midi": 50,
          "time": 104.39999999999888,
          "velocity": 0.7874015748031497,
          "duration": 0.20000000000000284
        },
        {
          "name": "D#3",
          "midi": 51,
          "time": 104.59999999999889,
          "velocity": 0.7874015748031497,
          "duration": 0.20000000000000284
        },
        {
          "name": "D3",
          "midi": 50,
          "time": 104.79999999999889,
          "velocity": 0.7874015748031497,
          "duration": 0.20000000000000284
        },
        {
          "name": "G2",
          "midi": 43,
          "time": 104.99999999999889,
          "velocity": 0.7874015748031497,
          "duration": 0.09999999999999432
        },
        {
          "name": "G2",
          "midi": 43,
          "time": 105.09999999999889,
          "velocity": 0.7874015748031497,
          "duration": 0.09999999999999432
        },
        {
          "name": "G2",
          "midi": 43,
          "time": 105.19999999999888,
          "velocity": 0.7874015748031497,
          "duration": 0.20000000000000284
        },
        {
          "name": "D3",
          "midi": 50,
          "time": 105.39999999999888,
          "velocity": 0.7874015748031497,
          "duration": 0.20000000000000284
        },
        {
          "name": "G2",
          "midi": 43,
          "time": 105.59999999999889,
          "velocity": 0.7874015748031497,
          "duration": 0.09999999999999432
        },
        {
          "name": "G2",
          "midi": 43,
          "time": 105.69999999999888,
          "velocity": 0.7874015748031497,
          "duration": 0.09999999999999432
        },
        {
          "name": "G2",
          "midi": 43,
          "time": 105.79999999999887,
          "velocity": 0.7874015748031497,
          "duration": 0.09999999999999432
        },
        {
          "name": "G2",
          "midi": 43,
          "time": 105.89999999999887,
          "velocity": 0.7874015748031497,
          "duration": 0.09999999999999432
        },
        {
          "name": "G3",
          "midi": 55,
          "time": 105.99999999999886,
          "velocity": 0.7874015748031497,
          "duration": 0.20000000000000284
        },
        {
          "name": "D#3",
          "midi": 51,
          "time": 106.19999999999887,
          "velocity": 0.7874015748031497,
          "duration": 0.20000000000000284
        },
        {
          "name": "D3",
          "midi": 50,
          "time": 106.40416666666553,
          "velocity": 0.7874015748031497,
          "duration": 0.20000000000000284
        },
        {
          "name": "G2",
          "midi": 43,
          "time": 106.59999999999887,
          "velocity": 0.7874015748031497,
          "duration": 0.09999999999999432
        },
        {
          "name": "G2",
          "midi": 43,
          "time": 106.69999999999887,
          "velocity": 0.7874015748031497,
          "duration": 0.09999999999999432
        },
        {
          "name": "G2",
          "midi": 43,
          "time": 106.79999999999886,
          "velocity": 0.7874015748031497,
          "duration": 0.20000000000000284
        },
        {
          "name": "D3",
          "midi": 50,
          "time": 106.99999999999886,
          "velocity": 0.7874015748031497,
          "duration": 0.20000000000000284
        },
        {
          "name": "G2",
          "midi": 43,
          "time": 107.19999999999887,
          "velocity": 0.7874015748031497,
          "duration": 0.09999999999999432
        },
        {
          "name": "G2",
          "midi": 43,
          "time": 107.29999999999886,
          "velocity": 0.7874015748031497,
          "duration": 0.09999999999999432
        },
        {
          "name": "G2",
          "midi": 43,
          "time": 107.39999999999885,
          "velocity": 0.7874015748031497,
          "duration": 0.09999999999999432
        },
        {
          "name": "G2",
          "midi": 43,
          "time": 107.49999999999885,
          "velocity": 0.7874015748031497,
          "duration": 0.09999999999999432
        },
        {
          "name": "D3",
          "midi": 50,
          "time": 107.59999999999884,
          "velocity": 0.7874015748031497,
          "duration": 0.20000000000000284
        },
        {
          "name": "G2",
          "midi": 43,
          "time": 107.79999999999885,
          "velocity": 0.7874015748031497,
          "duration": 0.20000000000000284
        },
        {
          "name": "F3",
          "midi": 53,
          "time": 107.99999999999885,
          "velocity": 0.7874015748031497,
          "duration": 0.09999999999999432
        },
        {
          "name": "F3",
          "midi": 53,
          "time": 108.09999999999884,
          "velocity": 0.7874015748031497,
          "duration": 0.09999999999999432
        },
        {
          "name": "F3",
          "midi": 53,
          "time": 108.19999999999884,
          "velocity": 0.7874015748031497,
          "duration": 0.09999999999999432
        },
        {
          "name": "F3",
          "midi": 53,
          "time": 108.29999999999883,
          "velocity": 0.7874015748031497,
          "duration": 0.09999999999999432
        },
        {
          "name": "D#3",
          "midi": 51,
          "time": 108.39999999999883,
          "velocity": 0.7874015748031497,
          "duration": 0.09999999999999432
        },
        {
          "name": "D#3",
          "midi": 51,
          "time": 108.49999999999882,
          "velocity": 0.7874015748031497,
          "duration": 0.09999999999999432
        },
        {
          "name": "D#3",
          "midi": 51,
          "time": 108.59999999999881,
          "velocity": 0.7874015748031497,
          "duration": 0.09999999999999432
        },
        {
          "name": "D#3",
          "midi": 51,
          "time": 108.69999999999881,
          "velocity": 0.7874015748031497,
          "duration": 0.09999999999999432
        },
        {
          "name": "D3",
          "midi": 50,
          "time": 108.7999999999988,
          "velocity": 0.7874015748031497,
          "duration": 0.09999999999999432
        },
        {
          "name": "D3",
          "midi": 50,
          "time": 108.8999999999988,
          "velocity": 0.7874015748031497,
          "duration": 0.09999999999999432
        },
        {
          "name": "D3",
          "midi": 50,
          "time": 108.99999999999879,
          "velocity": 0.7874015748031497,
          "duration": 0.09999999999999432
        },
        {
          "name": "D3",
          "midi": 50,
          "time": 109.09999999999879,
          "velocity": 0.7874015748031497,
          "duration": 0.09999999999999432
        },
        {
          "name": "C3",
          "midi": 48,
          "time": 109.19999999999878,
          "velocity": 0.7874015748031497,
          "duration": 0.09999999999999432
        },
        {
          "name": "C3",
          "midi": 48,
          "time": 109.29999999999878,
          "velocity": 0.7874015748031497,
          "duration": 0.09999999999999432
        },
        {
          "name": "C3",
          "midi": 48,
          "time": 109.39999999999877,
          "velocity": 0.7874015748031497,
          "duration": 0.09999999999999432
        },
        {
          "name": "C3",
          "midi": 48,
          "time": 109.49999999999876,
          "velocity": 0.7874015748031497,
          "duration": 0.09999999999999432
        },
        {
          "name": "D3",
          "midi": 50,
          "time": 109.59999999999876,
          "velocity": 0.7874015748031497,
          "duration": 0.20000000000000284
        },
        {
          "name": "G2",
          "midi": 43,
          "time": 109.8008333333321,
          "velocity": 0.7874015748031497,
          "duration": 0.09999999999999432
        },
        {
          "name": "G2",
          "midi": 43,
          "time": 109.90083333333209,
          "velocity": 0.7874015748031497,
          "duration": 0.09916666666666174
        },
        {
          "name": "G2",
          "midi": 43,
          "time": 109.99999999999875,
          "velocity": 0.7874015748031497,
          "duration": 0.20416666666666572
        },
        {
          "name": "D3",
          "midi": 50,
          "time": 110.20083333333208,
          "velocity": 0.7874015748031497,
          "duration": 0.20083333333333542
        },
        {
          "name": "G2",
          "midi": 43,
          "time": 110.40166666666542,
          "velocity": 0.7874015748031497,
          "duration": 0.09999999999999432
        },
        {
          "name": "G2",
          "midi": 43,
          "time": 110.50083333333208,
          "velocity": 0.7874015748031497,
          "duration": 0.09999999999999432
        },
        {
          "name": "G2",
          "midi": 43,
          "time": 110.60083333333208,
          "velocity": 0.7874015748031497,
          "duration": 0.09999999999999432
        },
        {
          "name": "G2",
          "midi": 43,
          "time": 110.70083333333207,
          "velocity": 0.7874015748031497,
          "duration": 0.09999999999999432
        },
        {
          "name": "D3",
          "midi": 50,
          "time": 110.80083333333206,
          "velocity": 0.7874015748031497,
          "duration": 0.20000000000000284
        },
        {
          "name": "D#3",
          "midi": 51,
          "time": 111.00083333333207,
          "velocity": 0.7874015748031497,
          "duration": 0.20000000000000284
        },
        {
          "name": "D3",
          "midi": 50,
          "time": 111.20083333333207,
          "velocity": 0.7874015748031497,
          "duration": 0.20000000000000284
        },
        {
          "name": "G2",
          "midi": 43,
          "time": 111.40083333333207,
          "velocity": 0.7874015748031497,
          "duration": 0.09999999999999432
        },
        {
          "name": "G2",
          "midi": 43,
          "time": 111.50083333333207,
          "velocity": 0.7874015748031497,
          "duration": 0.09999999999999432
        },
        {
          "name": "G2",
          "midi": 43,
          "time": 111.60083333333206,
          "velocity": 0.7874015748031497,
          "duration": 0.20000000000000284
        },
        {
          "name": "D3",
          "midi": 50,
          "time": 111.80083333333206,
          "velocity": 0.7874015748031497,
          "duration": 0.20000000000000284
        },
        {
          "name": "G2",
          "midi": 43,
          "time": 112.00083333333207,
          "velocity": 0.7874015748031497,
          "duration": 0.09999999999999432
        },
        {
          "name": "G2",
          "midi": 43,
          "time": 112.10083333333206,
          "velocity": 0.7874015748031497,
          "duration": 0.09999999999999432
        },
        {
          "name": "G2",
          "midi": 43,
          "time": 112.20083333333206,
          "velocity": 0.7874015748031497,
          "duration": 0.09999999999999432
        },
        {
          "name": "G2",
          "midi": 43,
          "time": 112.30083333333205,
          "velocity": 0.7874015748031497,
          "duration": 0.09999999999999432
        },
        {
          "name": "G3",
          "midi": 55,
          "time": 112.40083333333205,
          "velocity": 0.7874015748031497,
          "duration": 0.20000000000000284
        },
        {
          "name": "D#3",
          "midi": 51,
          "time": 112.60083333333205,
          "velocity": 0.7874015748031497,
          "duration": 0.20000000000000284
        },
        {
          "name": "D3",
          "midi": 50,
          "time": 112.80416666666538,
          "velocity": 0.7874015748031497,
          "duration": 0.20000000000000284
        },
        {
          "name": "G2",
          "midi": 43,
          "time": 113.00083333333205,
          "velocity": 0.7874015748031497,
          "duration": 0.09999999999999432
        },
        {
          "name": "G2",
          "midi": 43,
          "time": 113.10083333333205,
          "velocity": 0.7874015748031497,
          "duration": 0.09999999999999432
        },
        {
          "name": "G2",
          "midi": 43,
          "time": 113.20083333333204,
          "velocity": 0.7874015748031497,
          "duration": 0.20000000000000284
        },
        {
          "name": "D3",
          "midi": 50,
          "time": 113.40083333333205,
          "velocity": 0.7874015748031497,
          "duration": 0.20000000000000284
        },
        {
          "name": "G2",
          "midi": 43,
          "time": 113.60083333333205,
          "velocity": 0.7874015748031497,
          "duration": 0.09999999999999432
        },
        {
          "name": "G2",
          "midi": 43,
          "time": 113.70083333333204,
          "velocity": 0.7874015748031497,
          "duration": 0.09999999999999432
        },
        {
          "name": "G2",
          "midi": 43,
          "time": 113.80083333333204,
          "velocity": 0.7874015748031497,
          "duration": 0.09999999999999432
        },
        {
          "name": "G2",
          "midi": 43,
          "time": 113.90083333333203,
          "velocity": 0.7874015748031497,
          "duration": 0.09999999999999432
        },
        {
          "name": "D3",
          "midi": 50,
          "time": 114.00083333333203,
          "velocity": 0.7874015748031497,
          "duration": 0.20000000000000284
        },
        {
          "name": "G2",
          "midi": 43,
          "time": 114.20083333333203,
          "velocity": 0.7874015748031497,
          "duration": 0.20000000000000284
        },
        {
          "name": "A#2",
          "midi": 46,
          "time": 114.3999999999987,
          "velocity": 0.7874015748031497,
          "duration": 0.4000000000000057
        },
        {
          "name": "D3",
          "midi": 50,
          "time": 114.3999999999987,
          "velocity": 0.7874015748031497,
          "duration": 0.4000000000000057
        },
        {
          "name": "A2",
          "midi": 45,
          "time": 114.7999999999987,
          "velocity": 0.7874015748031497,
          "duration": 0.4000000000000057
        },
        {
          "name": "C3",
          "midi": 48,
          "time": 114.7999999999987,
          "velocity": 0.7874015748031497,
          "duration": 0.4000000000000057
        },
        {
          "name": "G2",
          "midi": 43,
          "time": 115.19999999999871,
          "velocity": 0.7874015748031497,
          "duration": 0.4000000000000057
        },
        {
          "name": "A#2",
          "midi": 46,
          "time": 115.19999999999871,
          "velocity": 0.7874015748031497,
          "duration": 0.4000000000000057
        },
        {
          "name": "F2",
          "midi": 41,
          "time": 115.59999999999872,
          "velocity": 0.7874015748031497,
          "duration": 0.4000000000000057
        },
        {
          "name": "A2",
          "midi": 45,
          "time": 115.59999999999872,
          "velocity": 0.7874015748031497,
          "duration": 0.4000000000000057
        },
        {
          "name": "D3",
          "midi": 50,
          "time": 115.99999999999872,
          "velocity": 0.7874015748031497,
          "duration": 0.20000000000000284
        },
        {
          "name": "G2",
          "midi": 43,
          "time": 116.20083333333206,
          "velocity": 0.7874015748031497,
          "duration": 0.09999999999999432
        },
        {
          "name": "G2",
          "midi": 43,
          "time": 116.30083333333205,
          "velocity": 0.7874015748031497,
          "duration": 0.09916666666666174
        },
        {
          "name": "G2",
          "midi": 43,
          "time": 116.39999999999871,
          "velocity": 0.7874015748031497,
          "duration": 0.20416666666666572
        },
        {
          "name": "D3",
          "midi": 50,
          "time": 116.60083333333205,
          "velocity": 0.7874015748031497,
          "duration": 0.20083333333333542
        },
        {
          "name": "G2",
          "midi": 43,
          "time": 116.80166666666538,
          "velocity": 0.7874015748031497,
          "duration": 0.09999999999999432
        },
        {
          "name": "G2",
          "midi": 43,
          "time": 116.90083333333205,
          "velocity": 0.7874015748031497,
          "duration": 0.09999999999999432
        },
        {
          "name": "G2",
          "midi": 43,
          "time": 117.00083333333204,
          "velocity": 0.7874015748031497,
          "duration": 0.09999999999999432
        },
        {
          "name": "G2",
          "midi": 43,
          "time": 117.10083333333203,
          "velocity": 0.7874015748031497,
          "duration": 0.09999999999999432
        },
        {
          "name": "D3",
          "midi": 50,
          "time": 117.20083333333203,
          "velocity": 0.7874015748031497,
          "duration": 0.20000000000000284
        },
        {
          "name": "D#3",
          "midi": 51,
          "time": 117.40083333333203,
          "velocity": 0.7874015748031497,
          "duration": 0.20000000000000284
        },
        {
          "name": "D3",
          "midi": 50,
          "time": 117.60083333333203,
          "velocity": 0.7874015748031497,
          "duration": 0.20000000000000284
        },
        {
          "name": "G2",
          "midi": 43,
          "time": 117.80083333333204,
          "velocity": 0.7874015748031497,
          "duration": 0.09999999999999432
        },
        {
          "name": "G2",
          "midi": 43,
          "time": 117.90083333333203,
          "velocity": 0.7874015748031497,
          "duration": 0.09999999999999432
        },
        {
          "name": "G2",
          "midi": 43,
          "time": 118.00083333333203,
          "velocity": 0.7874015748031497,
          "duration": 0.20000000000000284
        },
        {
          "name": "D3",
          "midi": 50,
          "time": 118.20083333333203,
          "velocity": 0.7874015748031497,
          "duration": 0.20000000000000284
        },
        {
          "name": "G2",
          "midi": 43,
          "time": 118.40083333333203,
          "velocity": 0.7874015748031497,
          "duration": 0.09999999999999432
        },
        {
          "name": "G2",
          "midi": 43,
          "time": 118.50083333333203,
          "velocity": 0.7874015748031497,
          "duration": 0.09999999999999432
        },
        {
          "name": "G2",
          "midi": 43,
          "time": 118.60083333333202,
          "velocity": 0.7874015748031497,
          "duration": 0.09999999999999432
        },
        {
          "name": "G2",
          "midi": 43,
          "time": 118.70083333333201,
          "velocity": 0.7874015748031497,
          "duration": 0.09999999999999432
        },
        {
          "name": "G3",
          "midi": 55,
          "time": 118.80083333333201,
          "velocity": 0.7874015748031497,
          "duration": 0.20000000000000284
        },
        {
          "name": "D#3",
          "midi": 51,
          "time": 119.00083333333201,
          "velocity": 0.7874015748031497,
          "duration": 0.20000000000000284
        },
        {
          "name": "D3",
          "midi": 50,
          "time": 119.20416666666534,
          "velocity": 0.7874015748031497,
          "duration": 0.20000000000000284
        },
        {
          "name": "G2",
          "midi": 43,
          "time": 119.40083333333202,
          "velocity": 0.7874015748031497,
          "duration": 0.09999999999999432
        },
        {
          "name": "G2",
          "midi": 43,
          "time": 119.50083333333201,
          "velocity": 0.7874015748031497,
          "duration": 0.09999999999999432
        },
        {
          "name": "G2",
          "midi": 43,
          "time": 119.600833333332,
          "velocity": 0.7874015748031497,
          "duration": 0.20000000000000284
        },
        {
          "name": "D3",
          "midi": 50,
          "time": 119.80083333333201,
          "velocity": 0.7874015748031497,
          "duration": 0.20000000000000284
        },
        {
          "name": "G2",
          "midi": 43,
          "time": 120.00083333333201,
          "velocity": 0.7874015748031497,
          "duration": 0.09999999999999432
        },
        {
          "name": "G2",
          "midi": 43,
          "time": 120.100833333332,
          "velocity": 0.7874015748031497,
          "duration": 0.09999999999999432
        },
        {
          "name": "G2",
          "midi": 43,
          "time": 120.200833333332,
          "velocity": 0.7874015748031497,
          "duration": 0.09999999999999432
        },
        {
          "name": "G2",
          "midi": 43,
          "time": 120.300833333332,
          "velocity": 0.7874015748031497,
          "duration": 0.09999999999999432
        },
        {
          "name": "D3",
          "midi": 50,
          "time": 120.40083333333199,
          "velocity": 0.7874015748031497,
          "duration": 0.20000000000000284
        },
        {
          "name": "G2",
          "midi": 43,
          "time": 120.60083333333199,
          "velocity": 0.7874015748031497,
          "duration": 0.20000000000000284
        },
        {
          "name": "F3",
          "midi": 53,
          "time": 120.800833333332,
          "velocity": 0.7874015748031497,
          "duration": 0.09999999999999432
        },
        {
          "name": "F3",
          "midi": 53,
          "time": 120.90083333333199,
          "velocity": 0.7874015748031497,
          "duration": 0.09999999999999432
        },
        {
          "name": "F3",
          "midi": 53,
          "time": 121.00083333333198,
          "velocity": 0.7874015748031497,
          "duration": 0.09999999999999432
        },
        {
          "name": "F3",
          "midi": 53,
          "time": 121.10083333333198,
          "velocity": 0.7874015748031497,
          "duration": 0.09999999999999432
        },
        {
          "name": "D#3",
          "midi": 51,
          "time": 121.20083333333197,
          "velocity": 0.7874015748031497,
          "duration": 0.09999999999999432
        },
        {
          "name": "D#3",
          "midi": 51,
          "time": 121.30083333333197,
          "velocity": 0.7874015748031497,
          "duration": 0.09999999999999432
        },
        {
          "name": "D#3",
          "midi": 51,
          "time": 121.40083333333196,
          "velocity": 0.7874015748031497,
          "duration": 0.09999999999999432
        },
        {
          "name": "D#3",
          "midi": 51,
          "time": 121.50083333333195,
          "velocity": 0.7874015748031497,
          "duration": 0.09999999999999432
        },
        {
          "name": "D3",
          "midi": 50,
          "time": 121.60083333333195,
          "velocity": 0.7874015748031497,
          "duration": 0.09999999999999432
        },
        {
          "name": "D3",
          "midi": 50,
          "time": 121.70083333333194,
          "velocity": 0.7874015748031497,
          "duration": 0.09999999999999432
        },
        {
          "name": "D3",
          "midi": 50,
          "time": 121.80083333333194,
          "velocity": 0.7874015748031497,
          "duration": 0.09999999999999432
        },
        {
          "name": "D3",
          "midi": 50,
          "time": 121.90083333333193,
          "velocity": 0.7874015748031497,
          "duration": 0.09999999999999432
        },
        {
          "name": "C3",
          "midi": 48,
          "time": 122.00083333333193,
          "velocity": 0.7874015748031497,
          "duration": 0.09999999999999432
        },
        {
          "name": "C3",
          "midi": 48,
          "time": 122.10083333333192,
          "velocity": 0.7874015748031497,
          "duration": 0.09999999999999432
        },
        {
          "name": "C3",
          "midi": 48,
          "time": 122.20083333333191,
          "velocity": 0.7874015748031497,
          "duration": 0.09999999999999432
        },
        {
          "name": "C3",
          "midi": 48,
          "time": 122.30083333333191,
          "velocity": 0.7874015748031497,
          "duration": 0.09999999999999432
        },
        {
          "name": "D3",
          "midi": 50,
          "time": 122.4008333333319,
          "velocity": 0.7874015748031497,
          "duration": 0.20000000000000284
        },
        {
          "name": "G2",
          "midi": 43,
          "time": 122.6008333333319,
          "velocity": 0.7874015748031497,
          "duration": 0.09999999999999432
        },
        {
          "name": "G2",
          "midi": 43,
          "time": 122.7008333333319,
          "velocity": 0.7874015748031497,
          "duration": 0.09916666666666174
        },
        {
          "name": "G2",
          "midi": 43,
          "time": 122.79999999999856,
          "velocity": 0.7874015748031497,
          "duration": 0.20416666666666572
        },
        {
          "name": "D3",
          "midi": 50,
          "time": 123.0008333333319,
          "velocity": 0.7874015748031497,
          "duration": 0.20083333333333542
        },
        {
          "name": "G2",
          "midi": 43,
          "time": 123.20166666666523,
          "velocity": 0.7874015748031497,
          "duration": 0.09999999999999432
        },
        {
          "name": "G2",
          "midi": 43,
          "time": 123.3008333333319,
          "velocity": 0.7874015748031497,
          "duration": 0.09999999999999432
        },
        {
          "name": "G2",
          "midi": 43,
          "time": 123.40083333333189,
          "velocity": 0.7874015748031497,
          "duration": 0.09999999999999432
        },
        {
          "name": "G2",
          "midi": 43,
          "time": 123.50083333333188,
          "velocity": 0.7874015748031497,
          "duration": 0.09999999999999432
        },
        {
          "name": "D3",
          "midi": 50,
          "time": 123.60083333333188,
          "velocity": 0.7874015748031497,
          "duration": 0.20000000000000284
        },
        {
          "name": "D#3",
          "midi": 51,
          "time": 123.80083333333188,
          "velocity": 0.7874015748031497,
          "duration": 0.20000000000000284
        },
        {
          "name": "D3",
          "midi": 50,
          "time": 124.00083333333188,
          "velocity": 0.7874015748031497,
          "duration": 0.20000000000000284
        },
        {
          "name": "G2",
          "midi": 43,
          "time": 124.20083333333189,
          "velocity": 0.7874015748031497,
          "duration": 0.09999999999999432
        },
        {
          "name": "G2",
          "midi": 43,
          "time": 124.30083333333188,
          "velocity": 0.7874015748031497,
          "duration": 0.09999999999999432
        },
        {
          "name": "G2",
          "midi": 43,
          "time": 124.40083333333187,
          "velocity": 0.7874015748031497,
          "duration": 0.20000000000000284
        },
        {
          "name": "D3",
          "midi": 50,
          "time": 124.60083333333188,
          "velocity": 0.7874015748031497,
          "duration": 0.20000000000000284
        },
        {
          "name": "G2",
          "midi": 43,
          "time": 124.80083333333188,
          "velocity": 0.7874015748031497,
          "duration": 0.09999999999999432
        },
        {
          "name": "G2",
          "midi": 43,
          "time": 124.90083333333187,
          "velocity": 0.7874015748031497,
          "duration": 0.09999999999999432
        },
        {
          "name": "G2",
          "midi": 43,
          "time": 125.00083333333187,
          "velocity": 0.7874015748031497,
          "duration": 0.09999999999999432
        },
        {
          "name": "G2",
          "midi": 43,
          "time": 125.10083333333186,
          "velocity": 0.7874015748031497,
          "duration": 0.09999999999999432
        },
        {
          "name": "G3",
          "midi": 55,
          "time": 125.20083333333186,
          "velocity": 0.7874015748031497,
          "duration": 0.20000000000000284
        },
        {
          "name": "D#3",
          "midi": 51,
          "time": 125.40083333333186,
          "velocity": 0.7874015748031497,
          "duration": 0.20000000000000284
        },
        {
          "name": "D3",
          "midi": 50,
          "time": 125.60499999999853,
          "velocity": 0.7874015748031497,
          "duration": 0.20000000000000284
        },
        {
          "name": "G2",
          "midi": 43,
          "time": 125.80083333333187,
          "velocity": 0.7874015748031497,
          "duration": 0.09999999999999432
        },
        {
          "name": "G2",
          "midi": 43,
          "time": 125.90083333333186,
          "velocity": 0.7874015748031497,
          "duration": 0.09999999999999432
        },
        {
          "name": "G2",
          "midi": 43,
          "time": 126.00083333333185,
          "velocity": 0.7874015748031497,
          "duration": 0.20000000000000284
        },
        {
          "name": "D3",
          "midi": 50,
          "time": 126.20083333333186,
          "velocity": 0.7874015748031497,
          "duration": 0.20000000000000284
        },
        {
          "name": "G2",
          "midi": 43,
          "time": 126.40083333333186,
          "velocity": 0.7874015748031497,
          "duration": 0.09999999999999432
        },
        {
          "name": "G2",
          "midi": 43,
          "time": 126.50083333333185,
          "velocity": 0.7874015748031497,
          "duration": 0.09999999999999432
        },
        {
          "name": "G2",
          "midi": 43,
          "time": 126.60083333333185,
          "velocity": 0.7874015748031497,
          "duration": 0.09999999999999432
        },
        {
          "name": "G2",
          "midi": 43,
          "time": 126.70083333333184,
          "velocity": 0.7874015748031497,
          "duration": 0.09999999999999432
        },
        {
          "name": "D3",
          "midi": 50,
          "time": 126.80083333333184,
          "velocity": 0.7874015748031497,
          "duration": 0.20000000000000284
        },
        {
          "name": "G2",
          "midi": 43,
          "time": 127.00083333333184,
          "velocity": 0.7874015748031497,
          "duration": 0.20000000000000284
        },
        {
          "name": "C3",
          "midi": 48,
          "time": 127.19999999999851,
          "velocity": 0.7874015748031497,
          "duration": 0.4000000000000057
        },
        {
          "name": "D#3",
          "midi": 51,
          "time": 127.19999999999851,
          "velocity": 0.7874015748031497,
          "duration": 0.4000000000000057
        },
        {
          "name": "A#2",
          "midi": 46,
          "time": 127.59999999999852,
          "velocity": 0.7874015748031497,
          "duration": 0.4000000000000057
        },
        {
          "name": "D3",
          "midi": 50,
          "time": 127.59999999999852,
          "velocity": 0.7874015748031497,
          "duration": 0.4000000000000057
        },
        {
          "name": "A2",
          "midi": 45,
          "time": 127.99999999999852,
          "velocity": 0.7874015748031497,
          "duration": 0.4000000000000057
        },
        {
          "name": "C3",
          "midi": 48,
          "time": 127.99999999999852,
          "velocity": 0.7874015748031497,
          "duration": 0.4000000000000057
        },
        {
          "name": "G2",
          "midi": 43,
          "time": 128.39999999999853,
          "velocity": 0.7874015748031497,
          "duration": 0.4025000000000034
        },
        {
          "name": "A#2",
          "midi": 46,
          "time": 128.39999999999853,
          "velocity": 0.7874015748031497,
          "duration": 0.4000000000000057
        },
        {
          "name": "A#2",
          "midi": 46,
          "time": 128.79999999999853,
          "velocity": 0.7874015748031497,
          "duration": 0.4000000000000057
        },
        {
          "name": "D3",
          "midi": 50,
          "time": 128.79999999999853,
          "velocity": 0.7874015748031497,
          "duration": 0.4000000000000057
        },
        {
          "name": "A2",
          "midi": 45,
          "time": 129.19999999999854,
          "velocity": 0.7874015748031497,
          "duration": 0.4000000000000057
        },
        {
          "name": "C3",
          "midi": 48,
          "time": 129.19999999999854,
          "velocity": 0.7874015748031497,
          "duration": 0.4000000000000057
        },
        {
          "name": "G2",
          "midi": 43,
          "time": 129.59999999999854,
          "velocity": 0.7874015748031497,
          "duration": 0.30000000000001137
        },
        {
          "name": "A#2",
          "midi": 46,
          "time": 129.59999999999854,
          "velocity": 0.7874015748031497,
          "duration": 0.29750000000001364
        },
        {
          "name": "F2",
          "midi": 41,
          "time": 129.89999999999856,
          "velocity": 0.7874015748031497,
          "duration": 0.09999999999999432
        },
        {
          "name": "A2",
          "midi": 45,
          "time": 129.99999999999855,
          "velocity": 0.7874015748031497,
          "duration": 0.13333333333332575
        },
        {
          "name": "G2",
          "midi": 43,
          "time": 130.13333333333188,
          "velocity": 0.7874015748031497,
          "duration": 0.13333333333332575
        },
        {
          "name": "F2",
          "midi": 41,
          "time": 130.2666666666652,
          "velocity": 0.7874015748031497,
          "duration": 0.13333333333332575
        },
        {
          "name": "D#3",
          "midi": 51,
          "time": 130.39999999999853,
          "velocity": 0.7874015748031497,
          "duration": 0.5999999999999943
        },
        {
          "name": "G3",
          "midi": 55,
          "time": 130.39999999999853,
          "velocity": 0.7874015748031497,
          "duration": 0.5999999999999943
        },
        {
          "name": "D#3",
          "midi": 51,
          "time": 130.99999999999852,
          "velocity": 0.7874015748031497,
          "duration": 0.5999999999999943
        },
        {
          "name": "A3",
          "midi": 57,
          "time": 130.99999999999852,
          "velocity": 0.7874015748031497,
          "duration": 0.5999999999999943
        },
        {
          "name": "D#3",
          "midi": 51,
          "time": 131.59999999999852,
          "velocity": 0.7874015748031497,
          "duration": 0.4000000000000057
        },
        {
          "name": "A#3",
          "midi": 58,
          "time": 131.59999999999852,
          "velocity": 0.7874015748031497,
          "duration": 0.4000000000000057
        },
        {
          "name": "D#3",
          "midi": 51,
          "time": 131.99999999999852,
          "velocity": 0.7874015748031497,
          "duration": 0.5999999999999943
        },
        {
          "name": "G3",
          "midi": 55,
          "time": 131.99999999999852,
          "velocity": 0.7874015748031497,
          "duration": 0.5999999999999943
        },
        {
          "name": "D#3",
          "midi": 51,
          "time": 132.59999999999852,
          "velocity": 0.7874015748031497,
          "duration": 0.5999999999999943
        },
        {
          "name": "A3",
          "midi": 57,
          "time": 132.59999999999852,
          "velocity": 0.7874015748031497,
          "duration": 0.5999999999999943
        },
        {
          "name": "D#3",
          "midi": 51,
          "time": 133.1999999999985,
          "velocity": 0.7874015748031497,
          "duration": 0.4000000000000057
        },
        {
          "name": "A#3",
          "midi": 58,
          "time": 133.1999999999985,
          "velocity": 0.7874015748031497,
          "duration": 0.4000000000000057
        },
        {
          "name": "F3",
          "midi": 53,
          "time": 133.59999999999852,
          "velocity": 0.7874015748031497,
          "duration": 0.5999999999999943
        },
        {
          "name": "A3",
          "midi": 57,
          "time": 133.59999999999852,
          "velocity": 0.7874015748031497,
          "duration": 0.5999999999999943
        },
        {
          "name": "F3",
          "midi": 53,
          "time": 134.1999999999985,
          "velocity": 0.7874015748031497,
          "duration": 0.5999999999999943
        },
        {
          "name": "A#3",
          "midi": 58,
          "time": 134.1999999999985,
          "velocity": 0.7874015748031497,
          "duration": 0.5999999999999943
        },
        {
          "name": "F3",
          "midi": 53,
          "time": 134.7999999999985,
          "velocity": 0.7874015748031497,
          "duration": 0.4000000000000057
        },
        {
          "name": "C4",
          "midi": 60,
          "time": 134.7999999999985,
          "velocity": 0.7874015748031497,
          "duration": 0.4000000000000057
        },
        {
          "name": "F3",
          "midi": 53,
          "time": 135.1999999999985,
          "velocity": 0.7874015748031497,
          "duration": 0.13333333333332575
        },
        {
          "name": "F3",
          "midi": 53,
          "time": 135.33333333333184,
          "velocity": 0.7874015748031497,
          "duration": 0.13333333333332575
        },
        {
          "name": "F3",
          "midi": 53,
          "time": 135.46666666666516,
          "velocity": 0.7874015748031497,
          "duration": 0.13333333333332575
        },
        {
          "name": "F3",
          "midi": 53,
          "time": 135.5999999999985,
          "velocity": 0.7874015748031497,
          "duration": 0.13333333333332575
        },
        {
          "name": "F3",
          "midi": 53,
          "time": 135.7333333333318,
          "velocity": 0.7874015748031497,
          "duration": 0.13333333333332575
        },
        {
          "name": "F3",
          "midi": 53,
          "time": 135.86666666666514,
          "velocity": 0.7874015748031497,
          "duration": 0.13333333333332575
        },
        {
          "name": "F3",
          "midi": 53,
          "time": 135.99999999999847,
          "velocity": 0.7874015748031497,
          "duration": 0.13333333333332575
        },
        {
          "name": "F3",
          "midi": 53,
          "time": 136.1333333333318,
          "velocity": 0.7874015748031497,
          "duration": 0.13333333333332575
        },
        {
          "name": "F3",
          "midi": 53,
          "time": 136.26666666666512,
          "velocity": 0.7874015748031497,
          "duration": 0.13333333333332575
        },
        {
          "name": "F3",
          "midi": 53,
          "time": 136.39999999999844,
          "velocity": 0.7874015748031497,
          "duration": 0.13333333333332575
        },
        {
          "name": "F3",
          "midi": 53,
          "time": 136.53333333333177,
          "velocity": 0.7874015748031497,
          "duration": 0.13333333333332575
        },
        {
          "name": "F3",
          "midi": 53,
          "time": 136.6666666666651,
          "velocity": 0.7874015748031497,
          "duration": 0.13333333333332575
        },
        {
          "name": "D#3",
          "midi": 51,
          "time": 136.79999999999842,
          "velocity": 0.7874015748031497,
          "duration": 0.5999999999999943
        },
        {
          "name": "G3",
          "midi": 55,
          "time": 136.79999999999842,
          "velocity": 0.7874015748031497,
          "duration": 0.5999999999999943
        },
        {
          "name": "D#3",
          "midi": 51,
          "time": 137.3999999999984,
          "velocity": 0.7874015748031497,
          "duration": 0.5999999999999943
        },
        {
          "name": "A3",
          "midi": 57,
          "time": 137.3999999999984,
          "velocity": 0.7874015748031497,
          "duration": 0.5999999999999943
        },
        {
          "name": "D#3",
          "midi": 51,
          "time": 137.9999999999984,
          "velocity": 0.7874015748031497,
          "duration": 0.4000000000000057
        },
        {
          "name": "A#3",
          "midi": 58,
          "time": 137.9999999999984,
          "velocity": 0.7874015748031497,
          "duration": 0.4000000000000057
        },
        {
          "name": "D#3",
          "midi": 51,
          "time": 138.3999999999984,
          "velocity": 0.7874015748031497,
          "duration": 0.5999999999999943
        },
        {
          "name": "G3",
          "midi": 55,
          "time": 138.3999999999984,
          "velocity": 0.7874015748031497,
          "duration": 0.5999999999999943
        },
        {
          "name": "D#3",
          "midi": 51,
          "time": 138.9999999999984,
          "velocity": 0.7874015748031497,
          "duration": 0.5999999999999943
        },
        {
          "name": "A3",
          "midi": 57,
          "time": 138.9999999999984,
          "velocity": 0.7874015748031497,
          "duration": 0.5999999999999943
        },
        {
          "name": "D#3",
          "midi": 51,
          "time": 139.5999999999984,
          "velocity": 0.7874015748031497,
          "duration": 0.4000000000000057
        },
        {
          "name": "A#3",
          "midi": 58,
          "time": 139.5999999999984,
          "velocity": 0.7874015748031497,
          "duration": 0.4000000000000057
        },
        {
          "name": "F3",
          "midi": 53,
          "time": 139.9999999999984,
          "velocity": 0.7874015748031497,
          "duration": 0.5999999999999943
        },
        {
          "name": "A3",
          "midi": 57,
          "time": 139.9999999999984,
          "velocity": 0.7874015748031497,
          "duration": 0.5999999999999943
        },
        {
          "name": "F3",
          "midi": 53,
          "time": 140.5999999999984,
          "velocity": 0.7874015748031497,
          "duration": 0.5999999999999943
        },
        {
          "name": "A#3",
          "midi": 58,
          "time": 140.5999999999984,
          "velocity": 0.7874015748031497,
          "duration": 0.5999999999999943
        },
        {
          "name": "F3",
          "midi": 53,
          "time": 141.1999999999984,
          "velocity": 0.7874015748031497,
          "duration": 0.4000000000000057
        },
        {
          "name": "C4",
          "midi": 60,
          "time": 141.1999999999984,
          "velocity": 0.7874015748031497,
          "duration": 0.4000000000000057
        },
        {
          "name": "F#2",
          "midi": 42,
          "time": 141.5999999999984,
          "velocity": 0.7874015748031497,
          "duration": 0.13333333333332575
        },
        {
          "name": "G2",
          "midi": 43,
          "time": 141.73916666666506,
          "velocity": 0.7874015748031497,
          "duration": 0.13333333333332575
        },
        {
          "name": "A2",
          "midi": 45,
          "time": 141.86666666666505,
          "velocity": 0.7874015748031497,
          "duration": 0.13333333333332575
        },
        {
          "name": "A#2",
          "midi": 46,
          "time": 142.01166666666504,
          "velocity": 0.7874015748031497,
          "duration": 0.13333333333332575
        },
        {
          "name": "C3",
          "midi": 48,
          "time": 142.13666666666504,
          "velocity": 0.7874015748031497,
          "duration": 0.13333333333332575
        },
        {
          "name": "D3",
          "midi": 50,
          "time": 142.26666666666503,
          "velocity": 0.7874015748031497,
          "duration": 0.13333333333332575
        },
        {
          "name": "D#3",
          "midi": 51,
          "time": 142.39999999999836,
          "velocity": 0.7874015748031497,
          "duration": 0.2083333333333428
        },
        {
          "name": "F#2",
          "midi": 42,
          "time": 142.79999999999836,
          "velocity": 0.7874015748031497,
          "duration": 0.19999999999998863
        },
        {
          "name": "A#2",
          "midi": 46,
          "time": 143.19999999999834,
          "velocity": 0.7874015748031497,
          "duration": 0.09999999999999432
        },
        {
          "name": "F3",
          "midi": 53,
          "time": 143.19999999999834,
          "velocity": 0.7874015748031497,
          "duration": 0.19999999999998863
        },
        {
          "name": "A#2",
          "midi": 46,
          "time": 143.29999999999833,
          "velocity": 0.7874015748031497,
          "duration": 0.09999999999999432
        },
        {
          "name": "A#2",
          "midi": 46,
          "time": 143.39999999999833,
          "velocity": 0.7874015748031497,
          "duration": 0.09999999999999432
        },
        {
          "name": "A#2",
          "midi": 46,
          "time": 143.49999999999832,
          "velocity": 0.7874015748031497,
          "duration": 0.09999999999999432
        },
        {
          "name": "A#2",
          "midi": 46,
          "time": 143.59999999999832,
          "velocity": 0.7874015748031497,
          "duration": 0.09999999999999432
        },
        {
          "name": "A#2",
          "midi": 46,
          "time": 143.6999999999983,
          "velocity": 0.7874015748031497,
          "duration": 0.09999999999999432
        },
        {
          "name": "A#2",
          "midi": 46,
          "time": 143.7999999999983,
          "velocity": 0.7874015748031497,
          "duration": 0.09999999999999432
        },
        {
          "name": "A#2",
          "midi": 46,
          "time": 143.8999999999983,
          "velocity": 0.7874015748031497,
          "duration": 0.09999999999999432
        },
        {
          "name": "A#2",
          "midi": 46,
          "time": 143.9999999999983,
          "velocity": 0.7874015748031497,
          "duration": 0.09999999999999432
        },
        {
          "name": "A#2",
          "midi": 46,
          "time": 144.0999999999983,
          "velocity": 0.7874015748031497,
          "duration": 0.09999999999999432
        },
        {
          "name": "A#2",
          "midi": 46,
          "time": 144.19999999999828,
          "velocity": 0.7874015748031497,
          "duration": 0.09999999999999432
        },
        {
          "name": "A#2",
          "midi": 46,
          "time": 144.29999999999828,
          "velocity": 0.7874015748031497,
          "duration": 0.09999999999999432
        },
        {
          "name": "A#2",
          "midi": 46,
          "time": 144.39999999999827,
          "velocity": 0.7874015748031497,
          "duration": 0.09999999999999432
        },
        {
          "name": "A#2",
          "midi": 46,
          "time": 144.49999999999827,
          "velocity": 0.7874015748031497,
          "duration": 0.09999999999999432
        },
        {
          "name": "A#2",
          "midi": 46,
          "time": 144.59999999999826,
          "velocity": 0.7874015748031497,
          "duration": 0.09999999999999432
        },
        {
          "name": "A#2",
          "midi": 46,
          "time": 144.69999999999825,
          "velocity": 0.7874015748031497,
          "duration": 0.10333333333332462
        },
        {
          "name": "F2",
          "midi": 41,
          "time": 144.79999999999825,
          "velocity": 0.7874015748031497,
          "duration": 0.09999999999999432
        },
        {
          "name": "C3",
          "midi": 48,
          "time": 144.79999999999825,
          "velocity": 0.7874015748031497,
          "duration": 0.19999999999998863
        },
        {
          "name": "F2",
          "midi": 41,
          "time": 144.89999999999824,
          "velocity": 0.7874015748031497,
          "duration": 0.09999999999999432
        },
        {
          "name": "F2",
          "midi": 41,
          "time": 144.99999999999824,
          "velocity": 0.7874015748031497,
          "duration": 0.09999999999999432
        },
        {
          "name": "F2",
          "midi": 41,
          "time": 145.09999999999823,
          "velocity": 0.7874015748031497,
          "duration": 0.09999999999999432
        },
        {
          "name": "F2",
          "midi": 41,
          "time": 145.19999999999823,
          "velocity": 0.7874015748031497,
          "duration": 0.09999999999999432
        },
        {
          "name": "F2",
          "midi": 41,
          "time": 145.29999999999822,
          "velocity": 0.7874015748031497,
          "duration": 0.09999999999999432
        },
        {
          "name": "F2",
          "midi": 41,
          "time": 145.39999999999822,
          "velocity": 0.7874015748031497,
          "duration": 0.09999999999999432
        },
        {
          "name": "F2",
          "midi": 41,
          "time": 145.4999999999982,
          "velocity": 0.7874015748031497,
          "duration": 0.09999999999999432
        },
        {
          "name": "F2",
          "midi": 41,
          "time": 145.5999999999982,
          "velocity": 0.7874015748031497,
          "duration": 0.09999999999999432
        },
        {
          "name": "F2",
          "midi": 41,
          "time": 145.6999999999982,
          "velocity": 0.7874015748031497,
          "duration": 0.09999999999999432
        },
        {
          "name": "F2",
          "midi": 41,
          "time": 145.7999999999982,
          "velocity": 0.7874015748031497,
          "duration": 0.09999999999999432
        },
        {
          "name": "F2",
          "midi": 41,
          "time": 145.8999999999982,
          "velocity": 0.7874015748031497,
          "duration": 0.09999999999999432
        },
        {
          "name": "F2",
          "midi": 41,
          "time": 145.99999999999818,
          "velocity": 0.7874015748031497,
          "duration": 0.09999999999999432
        },
        {
          "name": "F2",
          "midi": 41,
          "time": 146.09999999999818,
          "velocity": 0.7874015748031497,
          "duration": 0.09999999999999432
        },
        {
          "name": "F2",
          "midi": 41,
          "time": 146.19999999999817,
          "velocity": 0.7874015748031497,
          "duration": 0.09999999999999432
        },
        {
          "name": "F2",
          "midi": 41,
          "time": 146.29999999999816,
          "velocity": 0.7874015748031497,
          "duration": 0.09999999999999432
        },
        {
          "name": "G2",
          "midi": 43,
          "time": 146.39999999999816,
          "velocity": 0.7874015748031497,
          "duration": 0.09999999999999432
        },
        {
          "name": "D3",
          "midi": 50,
          "time": 146.39999999999816,
          "velocity": 0.7874015748031497,
          "duration": 0.19999999999998863
        },
        {
          "name": "G2",
          "midi": 43,
          "time": 146.49999999999815,
          "velocity": 0.7874015748031497,
          "duration": 0.09999999999999432
        },
        {
          "name": "G2",
          "midi": 43,
          "time": 146.59999999999815,
          "velocity": 0.7874015748031497,
          "duration": 0.09999999999999432
        },
        {
          "name": "G2",
          "midi": 43,
          "time": 146.69999999999814,
          "velocity": 0.7874015748031497,
          "duration": 0.09999999999999432
        },
        {
          "name": "G2",
          "midi": 43,
          "time": 146.79999999999814,
          "velocity": 0.7874015748031497,
          "duration": 0.09999999999999432
        },
        {
          "name": "G2",
          "midi": 43,
          "time": 146.89999999999813,
          "velocity": 0.7874015748031497,
          "duration": 0.09999999999999432
        },
        {
          "name": "G2",
          "midi": 43,
          "time": 146.99999999999812,
          "velocity": 0.7874015748031497,
          "duration": 0.09999999999999432
        },
        {
          "name": "G2",
          "midi": 43,
          "time": 147.09999999999812,
          "velocity": 0.7874015748031497,
          "duration": 0.09999999999999432
        },
        {
          "name": "G2",
          "midi": 43,
          "time": 147.1999999999981,
          "velocity": 0.7874015748031497,
          "duration": 0.09999999999999432
        },
        {
          "name": "G2",
          "midi": 43,
          "time": 147.2999999999981,
          "velocity": 0.7874015748031497,
          "duration": 0.09999999999999432
        },
        {
          "name": "G2",
          "midi": 43,
          "time": 147.3999999999981,
          "velocity": 0.7874015748031497,
          "duration": 0.09999999999999432
        },
        {
          "name": "G2",
          "midi": 43,
          "time": 147.4999999999981,
          "velocity": 0.7874015748031497,
          "duration": 0.09999999999999432
        },
        {
          "name": "G2",
          "midi": 43,
          "time": 147.5999999999981,
          "velocity": 0.7874015748031497,
          "duration": 0.09999999999999432
        },
        {
          "name": "G2",
          "midi": 43,
          "time": 147.69999999999808,
          "velocity": 0.7874015748031497,
          "duration": 0.09999999999999432
        },
        {
          "name": "G2",
          "midi": 43,
          "time": 147.79999999999808,
          "velocity": 0.7874015748031497,
          "duration": 0.09999999999999432
        },
        {
          "name": "G2",
          "midi": 43,
          "time": 147.89999999999807,
          "velocity": 0.7874015748031497,
          "duration": 0.09999999999999432
        },
        {
          "name": "D3",
          "midi": 50,
          "time": 147.99999999999807,
          "velocity": 0.7874015748031497,
          "duration": 0.09999999999999432
        },
        {
          "name": "A3",
          "midi": 57,
          "time": 147.99999999999807,
          "velocity": 0.7874015748031497,
          "duration": 0.19999999999998863
        },
        {
          "name": "D3",
          "midi": 50,
          "time": 148.09999999999806,
          "velocity": 0.7874015748031497,
          "duration": 0.09999999999999432
        },
        {
          "name": "D3",
          "midi": 50,
          "time": 148.19999999999806,
          "velocity": 0.7874015748031497,
          "duration": 0.09999999999999432
        },
        {
          "name": "D3",
          "midi": 50,
          "time": 148.29999999999805,
          "velocity": 0.7874015748031497,
          "duration": 0.09999999999999432
        },
        {
          "name": "D3",
          "midi": 50,
          "time": 148.39999999999804,
          "velocity": 0.7874015748031497,
          "duration": 0.09999999999999432
        },
        {
          "name": "D3",
          "midi": 50,
          "time": 148.49999999999804,
          "velocity": 0.7874015748031497,
          "duration": 0.09999999999999432
        },
        {
          "name": "D3",
          "midi": 50,
          "time": 148.59999999999803,
          "velocity": 0.7874015748031497,
          "duration": 0.09999999999999432
        },
        {
          "name": "D3",
          "midi": 50,
          "time": 148.69999999999803,
          "velocity": 0.7874015748031497,
          "duration": 0.09999999999999432
        },
        {
          "name": "D3",
          "midi": 50,
          "time": 148.79999999999802,
          "velocity": 0.7874015748031497,
          "duration": 0.09999999999999432
        },
        {
          "name": "D3",
          "midi": 50,
          "time": 148.89999999999802,
          "velocity": 0.7874015748031497,
          "duration": 0.09999999999999432
        },
        {
          "name": "D3",
          "midi": 50,
          "time": 148.999999999998,
          "velocity": 0.7874015748031497,
          "duration": 0.09999999999999432
        },
        {
          "name": "D3",
          "midi": 50,
          "time": 149.099999999998,
          "velocity": 0.7874015748031497,
          "duration": 0.09999999999999432
        },
        {
          "name": "D3",
          "midi": 50,
          "time": 149.199999999998,
          "velocity": 0.7874015748031497,
          "duration": 0.09999999999999432
        },
        {
          "name": "D3",
          "midi": 50,
          "time": 149.299999999998,
          "velocity": 0.7874015748031497,
          "duration": 0.09999999999999432
        },
        {
          "name": "D3",
          "midi": 50,
          "time": 149.399999999998,
          "velocity": 0.7874015748031497,
          "duration": 0.09999999999999432
        },
        {
          "name": "D3",
          "midi": 50,
          "time": 149.49999999999798,
          "velocity": 0.7874015748031497,
          "duration": 0.09999999999999432
        },
        {
          "name": "D#3",
          "midi": 51,
          "time": 149.59999999999798,
          "velocity": 0.7874015748031497,
          "duration": 0.09999999999999432
        },
        {
          "name": "A#3",
          "midi": 58,
          "time": 149.59999999999798,
          "velocity": 0.7874015748031497,
          "duration": 0.19999999999998863
        },
        {
          "name": "D#3",
          "midi": 51,
          "time": 149.69999999999797,
          "velocity": 0.7874015748031497,
          "duration": 0.09999999999999432
        },
        {
          "name": "D#3",
          "midi": 51,
          "time": 149.79999999999797,
          "velocity": 0.7874015748031497,
          "duration": 0.09999999999999432
        },
        {
          "name": "D#3",
          "midi": 51,
          "time": 149.89999999999796,
          "velocity": 0.7874015748031497,
          "duration": 0.09999999999999432
        },
        {
          "name": "D#3",
          "midi": 51,
          "time": 149.99999999999795,
          "velocity": 0.7874015748031497,
          "duration": 0.09999999999999432
        },
        {
          "name": "D#3",
          "midi": 51,
          "time": 150.09999999999795,
          "velocity": 0.7874015748031497,
          "duration": 0.09999999999999432
        },
        {
          "name": "D#3",
          "midi": 51,
          "time": 150.19999999999794,
          "velocity": 0.7874015748031497,
          "duration": 0.09999999999999432
        },
        {
          "name": "D#3",
          "midi": 51,
          "time": 150.29999999999794,
          "velocity": 0.7874015748031497,
          "duration": 0.09999999999999432
        },
        {
          "name": "D#3",
          "midi": 51,
          "time": 150.39999999999793,
          "velocity": 0.7874015748031497,
          "duration": 0.09999999999999432
        },
        {
          "name": "D#3",
          "midi": 51,
          "time": 150.49999999999793,
          "velocity": 0.7874015748031497,
          "duration": 0.09999999999999432
        },
        {
          "name": "D#3",
          "midi": 51,
          "time": 150.59999999999792,
          "velocity": 0.7874015748031497,
          "duration": 0.09999999999999432
        },
        {
          "name": "D#3",
          "midi": 51,
          "time": 150.6999999999979,
          "velocity": 0.7874015748031497,
          "duration": 0.09999999999999432
        },
        {
          "name": "D#3",
          "midi": 51,
          "time": 150.7999999999979,
          "velocity": 0.7874015748031497,
          "duration": 0.09999999999999432
        },
        {
          "name": "D#3",
          "midi": 51,
          "time": 150.8999999999979,
          "velocity": 0.7874015748031497,
          "duration": 0.09999999999999432
        },
        {
          "name": "D#3",
          "midi": 51,
          "time": 150.9999999999979,
          "velocity": 0.7874015748031497,
          "duration": 0.09999999999999432
        },
        {
          "name": "D#3",
          "midi": 51,
          "time": 151.0999999999979,
          "velocity": 0.7874015748031497,
          "duration": 0.09999999999999432
        },
        {
          "name": "A#2",
          "midi": 46,
          "time": 151.19999999999789,
          "velocity": 0.7874015748031497,
          "duration": 0.09999999999999432
        },
        {
          "name": "F3",
          "midi": 53,
          "time": 151.19999999999789,
          "velocity": 0.7874015748031497,
          "duration": 0.19999999999998863
        },
        {
          "name": "A#2",
          "midi": 46,
          "time": 151.29999999999788,
          "velocity": 0.7874015748031497,
          "duration": 0.09999999999999432
        },
        {
          "name": "A#2",
          "midi": 46,
          "time": 151.39999999999787,
          "velocity": 0.7874015748031497,
          "duration": 0.09999999999999432
        },
        {
          "name": "A#2",
          "midi": 46,
          "time": 151.49999999999787,
          "velocity": 0.7874015748031497,
          "duration": 0.09999999999999432
        },
        {
          "name": "A#2",
          "midi": 46,
          "time": 151.59999999999786,
          "velocity": 0.7874015748031497,
          "duration": 0.09999999999999432
        },
        {
          "name": "A#2",
          "midi": 46,
          "time": 151.69999999999786,
          "velocity": 0.7874015748031497,
          "duration": 0.09999999999999432
        },
        {
          "name": "A#2",
          "midi": 46,
          "time": 151.79999999999785,
          "velocity": 0.7874015748031497,
          "duration": 0.09999999999999432
        },
        {
          "name": "A#2",
          "midi": 46,
          "time": 151.89999999999785,
          "velocity": 0.7874015748031497,
          "duration": 0.09999999999999432
        },
        {
          "name": "A#2",
          "midi": 46,
          "time": 151.99999999999784,
          "velocity": 0.7874015748031497,
          "duration": 0.09999999999999432
        },
        {
          "name": "A#2",
          "midi": 46,
          "time": 152.09999999999783,
          "velocity": 0.7874015748031497,
          "duration": 0.09999999999999432
        },
        {
          "name": "A#2",
          "midi": 46,
          "time": 152.19999999999783,
          "velocity": 0.7874015748031497,
          "duration": 0.09999999999999432
        },
        {
          "name": "A#2",
          "midi": 46,
          "time": 152.29999999999782,
          "velocity": 0.7874015748031497,
          "duration": 0.09999999999999432
        },
        {
          "name": "A#2",
          "midi": 46,
          "time": 152.39999999999782,
          "velocity": 0.7874015748031497,
          "duration": 0.09999999999999432
        },
        {
          "name": "A#2",
          "midi": 46,
          "time": 152.4999999999978,
          "velocity": 0.7874015748031497,
          "duration": 0.09999999999999432
        },
        {
          "name": "A#2",
          "midi": 46,
          "time": 152.5999999999978,
          "velocity": 0.7874015748031497,
          "duration": 0.09999999999999432
        },
        {
          "name": "A#2",
          "midi": 46,
          "time": 152.6999999999978,
          "velocity": 0.7874015748031497,
          "duration": 0.09999999999999432
        },
        {
          "name": "F3",
          "midi": 53,
          "time": 152.7999999999978,
          "velocity": 0.7874015748031497,
          "duration": 0.5999999999999943
        },
        {
          "name": "C4",
          "midi": 60,
          "time": 152.7999999999978,
          "velocity": 0.7874015748031497,
          "duration": 0.5999999999999943
        },
        {
          "name": "F3",
          "midi": 53,
          "time": 153.3999999999978,
          "velocity": 0.7874015748031497,
          "duration": 0.5999999999999943
        },
        {
          "name": "C4",
          "midi": 60,
          "time": 153.3999999999978,
          "velocity": 0.7874015748031497,
          "duration": 0.5999999999999943
        },
        {
          "name": "F3",
          "midi": 53,
          "time": 153.99999999999778,
          "velocity": 0.7874015748031497,
          "duration": 0.19999999999998863
        },
        {
          "name": "C4",
          "midi": 60,
          "time": 153.99999999999778,
          "velocity": 0.7874015748031497,
          "duration": 0.19999999999998863
        },
        {
          "name": "F3",
          "midi": 53,
          "time": 154.19999999999777,
          "velocity": 0.7874015748031497,
          "duration": 0.19999999999998863
        },
        {
          "name": "C4",
          "midi": 60,
          "time": 154.19999999999777,
          "velocity": 0.7874015748031497,
          "duration": 0.19999999999998863
        },
        {
          "name": "F3",
          "midi": 53,
          "time": 154.39999999999776,
          "velocity": 0.7874015748031497,
          "duration": 0.5999999999999943
        },
        {
          "name": "C4",
          "midi": 60,
          "time": 154.39999999999776,
          "velocity": 0.7874015748031497,
          "duration": 0.5999999999999943
        },
        {
          "name": "F3",
          "midi": 53,
          "time": 154.99999999999775,
          "velocity": 0.7874015748031497,
          "duration": 1
        },
        {
          "name": "C4",
          "midi": 60,
          "time": 154.99999999999775,
          "velocity": 0.7874015748031497,
          "duration": 1
        },
        {
          "name": "G2",
          "midi": 43,
          "time": 155.99999999999775,
          "velocity": 0.7874015748031497,
          "duration": 0.09999999999999432
        },
        {
          "name": "D3",
          "midi": 50,
          "time": 155.99999999999775,
          "velocity": 0.7874015748031497,
          "duration": 0.19999999999998863
        },
        {
          "name": "G2",
          "midi": 43,
          "time": 156.09999999999775,
          "velocity": 0.7874015748031497,
          "duration": 0.09999999999999432
        },
        {
          "name": "G2",
          "midi": 43,
          "time": 156.19999999999774,
          "velocity": 0.7874015748031497,
          "duration": 0.09999999999999432
        },
        {
          "name": "G2",
          "midi": 43,
          "time": 156.29999999999774,
          "velocity": 0.7874015748031497,
          "duration": 0.09999999999999432
        },
        {
          "name": "G2",
          "midi": 43,
          "time": 156.39999999999773,
          "velocity": 0.7874015748031497,
          "duration": 0.09999999999999432
        },
        {
          "name": "G2",
          "midi": 43,
          "time": 156.49999999999773,
          "velocity": 0.7874015748031497,
          "duration": 0.09999999999999432
        },
        {
          "name": "G2",
          "midi": 43,
          "time": 156.59999999999772,
          "velocity": 0.7874015748031497,
          "duration": 0.09999999999999432
        },
        {
          "name": "G2",
          "midi": 43,
          "time": 156.69999999999771,
          "velocity": 0.7874015748031497,
          "duration": 0.09999999999999432
        },
        {
          "name": "G2",
          "midi": 43,
          "time": 156.7999999999977,
          "velocity": 0.7874015748031497,
          "duration": 0.09999999999999432
        },
        {
          "name": "G2",
          "midi": 43,
          "time": 156.8999999999977,
          "velocity": 0.7874015748031497,
          "duration": 0.09999999999999432
        },
        {
          "name": "G2",
          "midi": 43,
          "time": 156.9999999999977,
          "velocity": 0.7874015748031497,
          "duration": 0.09999999999999432
        },
        {
          "name": "G2",
          "midi": 43,
          "time": 157.0999999999977,
          "velocity": 0.7874015748031497,
          "duration": 0.09999999999999432
        },
        {
          "name": "G2",
          "midi": 43,
          "time": 157.1999999999977,
          "velocity": 0.7874015748031497,
          "duration": 0.09999999999999432
        },
        {
          "name": "G2",
          "midi": 43,
          "time": 157.29999999999768,
          "velocity": 0.7874015748031497,
          "duration": 0.09999999999999432
        },
        {
          "name": "G2",
          "midi": 43,
          "time": 157.39999999999768,
          "velocity": 0.7874015748031497,
          "duration": 0.09999999999999432
        },
        {
          "name": "G2",
          "midi": 43,
          "time": 157.49999999999767,
          "velocity": 0.7874015748031497,
          "duration": 0.09999999999999432
        },
        {
          "name": "D3",
          "midi": 50,
          "time": 157.59999999999766,
          "velocity": 0.7874015748031497,
          "duration": 0.09999999999999432
        },
        {
          "name": "A3",
          "midi": 57,
          "time": 157.59999999999766,
          "velocity": 0.7874015748031497,
          "duration": 0.19999999999998863
        },
        {
          "name": "D3",
          "midi": 50,
          "time": 157.69999999999766,
          "velocity": 0.7874015748031497,
          "duration": 0.09999999999999432
        },
        {
          "name": "D3",
          "midi": 50,
          "time": 157.79999999999765,
          "velocity": 0.7874015748031497,
          "duration": 0.09999999999999432
        },
        {
          "name": "D3",
          "midi": 50,
          "time": 157.89999999999765,
          "velocity": 0.7874015748031497,
          "duration": 0.09999999999999432
        },
        {
          "name": "D3",
          "midi": 50,
          "time": 157.99999999999764,
          "velocity": 0.7874015748031497,
          "duration": 0.09999999999999432
        },
        {
          "name": "D3",
          "midi": 50,
          "time": 158.09999999999764,
          "velocity": 0.7874015748031497,
          "duration": 0.09999999999999432
        },
        {
          "name": "D3",
          "midi": 50,
          "time": 158.19999999999763,
          "velocity": 0.7874015748031497,
          "duration": 0.09999999999999432
        },
        {
          "name": "D3",
          "midi": 50,
          "time": 158.29999999999762,
          "velocity": 0.7874015748031497,
          "duration": 0.09999999999999432
        },
        {
          "name": "D3",
          "midi": 50,
          "time": 158.39999999999762,
          "velocity": 0.7874015748031497,
          "duration": 0.09999999999999432
        },
        {
          "name": "D3",
          "midi": 50,
          "time": 158.4999999999976,
          "velocity": 0.7874015748031497,
          "duration": 0.09999999999999432
        },
        {
          "name": "D3",
          "midi": 50,
          "time": 158.5999999999976,
          "velocity": 0.7874015748031497,
          "duration": 0.09999999999999432
        },
        {
          "name": "D3",
          "midi": 50,
          "time": 158.6999999999976,
          "velocity": 0.7874015748031497,
          "duration": 0.09999999999999432
        },
        {
          "name": "D3",
          "midi": 50,
          "time": 158.7999999999976,
          "velocity": 0.7874015748031497,
          "duration": 0.09999999999999432
        },
        {
          "name": "D3",
          "midi": 50,
          "time": 158.8999999999976,
          "velocity": 0.7874015748031497,
          "duration": 0.09999999999999432
        },
        {
          "name": "D3",
          "midi": 50,
          "time": 158.99999999999758,
          "velocity": 0.7874015748031497,
          "duration": 0.09999999999999432
        },
        {
          "name": "D3",
          "midi": 50,
          "time": 159.09999999999758,
          "velocity": 0.7874015748031497,
          "duration": 0.09999999999999432
        },
        {
          "name": "D#3",
          "midi": 51,
          "time": 159.19999999999757,
          "velocity": 0.7874015748031497,
          "duration": 0.09999999999999432
        },
        {
          "name": "A#3",
          "midi": 58,
          "time": 159.19999999999757,
          "velocity": 0.7874015748031497,
          "duration": 0.19999999999998863
        },
        {
          "name": "D#3",
          "midi": 51,
          "time": 159.29999999999757,
          "velocity": 0.7874015748031497,
          "duration": 0.09999999999999432
        },
        {
          "name": "D#3",
          "midi": 51,
          "time": 159.39999999999756,
          "velocity": 0.7874015748031497,
          "duration": 0.09999999999999432
        },
        {
          "name": "D#3",
          "midi": 51,
          "time": 159.49999999999756,
          "velocity": 0.7874015748031497,
          "duration": 0.09999999999999432
        },
        {
          "name": "D#3",
          "midi": 51,
          "time": 159.59999999999755,
          "velocity": 0.7874015748031497,
          "duration": 0.09999999999999432
        },
        {
          "name": "D#3",
          "midi": 51,
          "time": 159.69999999999754,
          "velocity": 0.7874015748031497,
          "duration": 0.09999999999999432
        },
        {
          "name": "D#3",
          "midi": 51,
          "time": 159.79999999999754,
          "velocity": 0.7874015748031497,
          "duration": 0.09999999999999432
        },
        {
          "name": "D#3",
          "midi": 51,
          "time": 159.89999999999753,
          "velocity": 0.7874015748031497,
          "duration": 0.09999999999999432
        },
        {
          "name": "D#3",
          "midi": 51,
          "time": 159.99999999999753,
          "velocity": 0.7874015748031497,
          "duration": 0.09999999999999432
        },
        {
          "name": "D#3",
          "midi": 51,
          "time": 160.09999999999752,
          "velocity": 0.7874015748031497,
          "duration": 0.09999999999999432
        },
        {
          "name": "D#3",
          "midi": 51,
          "time": 160.19999999999752,
          "velocity": 0.7874015748031497,
          "duration": 0.09999999999999432
        },
        {
          "name": "D#3",
          "midi": 51,
          "time": 160.2999999999975,
          "velocity": 0.7874015748031497,
          "duration": 0.09999999999999432
        },
        {
          "name": "D#3",
          "midi": 51,
          "time": 160.3999999999975,
          "velocity": 0.7874015748031497,
          "duration": 0.09999999999999432
        },
        {
          "name": "D#3",
          "midi": 51,
          "time": 160.4999999999975,
          "velocity": 0.7874015748031497,
          "duration": 0.09999999999999432
        },
        {
          "name": "D#3",
          "midi": 51,
          "time": 160.5999999999975,
          "velocity": 0.7874015748031497,
          "duration": 0.09999999999999432
        },
        {
          "name": "D#3",
          "midi": 51,
          "time": 160.6999999999975,
          "velocity": 0.7874015748031497,
          "duration": 0.09999999999999432
        },
        {
          "name": "A#2",
          "midi": 46,
          "time": 160.79999999999748,
          "velocity": 0.7874015748031497,
          "duration": 0.09999999999999432
        },
        {
          "name": "F3",
          "midi": 53,
          "time": 160.79999999999748,
          "velocity": 0.7874015748031497,
          "duration": 0.19999999999998863
        },
        {
          "name": "A#2",
          "midi": 46,
          "time": 160.89999999999748,
          "velocity": 0.7874015748031497,
          "duration": 0.09999999999999432
        },
        {
          "name": "A#2",
          "midi": 46,
          "time": 160.99999999999747,
          "velocity": 0.7874015748031497,
          "duration": 0.09999999999999432
        },
        {
          "name": "A#2",
          "midi": 46,
          "time": 161.09999999999746,
          "velocity": 0.7874015748031497,
          "duration": 0.09999999999999432
        },
        {
          "name": "A#2",
          "midi": 46,
          "time": 161.19999999999746,
          "velocity": 0.7874015748031497,
          "duration": 0.09999999999999432
        },
        {
          "name": "A#2",
          "midi": 46,
          "time": 161.29999999999745,
          "velocity": 0.7874015748031497,
          "duration": 0.09999999999999432
        },
        {
          "name": "A#2",
          "midi": 46,
          "time": 161.39999999999745,
          "velocity": 0.7874015748031497,
          "duration": 0.09999999999999432
        },
        {
          "name": "A#2",
          "midi": 46,
          "time": 161.49999999999744,
          "velocity": 0.7874015748031497,
          "duration": 0.09999999999999432
        },
        {
          "name": "A#2",
          "midi": 46,
          "time": 161.59999999999744,
          "velocity": 0.7874015748031497,
          "duration": 0.09999999999999432
        },
        {
          "name": "A#2",
          "midi": 46,
          "time": 161.69999999999743,
          "velocity": 0.7874015748031497,
          "duration": 0.09999999999999432
        },
        {
          "name": "A#2",
          "midi": 46,
          "time": 161.79999999999742,
          "velocity": 0.7874015748031497,
          "duration": 0.09999999999999432
        },
        {
          "name": "A#2",
          "midi": 46,
          "time": 161.89999999999742,
          "velocity": 0.7874015748031497,
          "duration": 0.09999999999999432
        },
        {
          "name": "A#2",
          "midi": 46,
          "time": 161.9999999999974,
          "velocity": 0.7874015748031497,
          "duration": 0.09999999999999432
        },
        {
          "name": "A#2",
          "midi": 46,
          "time": 162.0999999999974,
          "velocity": 0.7874015748031497,
          "duration": 0.09999999999999432
        },
        {
          "name": "A#2",
          "midi": 46,
          "time": 162.1999999999974,
          "velocity": 0.7874015748031497,
          "duration": 0.09999999999999432
        },
        {
          "name": "A#2",
          "midi": 46,
          "time": 162.2999999999974,
          "velocity": 0.7874015748031497,
          "duration": 0.09999999999999432
        },
        {
          "name": "D#3",
          "midi": 51,
          "time": 162.3999999999974,
          "velocity": 0.7874015748031497,
          "duration": 0.09999999999999432
        },
        {
          "name": "A#3",
          "midi": 58,
          "time": 162.3999999999974,
          "velocity": 0.7874015748031497,
          "duration": 0.19999999999998863
        },
        {
          "name": "D#3",
          "midi": 51,
          "time": 162.49999999999739,
          "velocity": 0.7874015748031497,
          "duration": 0.09999999999999432
        },
        {
          "name": "D#3",
          "midi": 51,
          "time": 162.59999999999738,
          "velocity": 0.7874015748031497,
          "duration": 0.09999999999999432
        },
        {
          "name": "D#3",
          "midi": 51,
          "time": 162.69999999999737,
          "velocity": 0.7874015748031497,
          "duration": 0.09999999999999432
        },
        {
          "name": "D#3",
          "midi": 51,
          "time": 162.79999999999737,
          "velocity": 0.7874015748031497,
          "duration": 0.09999999999999432
        },
        {
          "name": "D#3",
          "midi": 51,
          "time": 162.89999999999736,
          "velocity": 0.7874015748031497,
          "duration": 0.09999999999999432
        },
        {
          "name": "D#3",
          "midi": 51,
          "time": 162.99999999999736,
          "velocity": 0.7874015748031497,
          "duration": 0.09999999999999432
        },
        {
          "name": "D#3",
          "midi": 51,
          "time": 163.09999999999735,
          "velocity": 0.7874015748031497,
          "duration": 0.09999999999999432
        },
        {
          "name": "D#3",
          "midi": 51,
          "time": 163.19999999999735,
          "velocity": 0.7874015748031497,
          "duration": 0.09999999999999432
        },
        {
          "name": "D#3",
          "midi": 51,
          "time": 163.29999999999734,
          "velocity": 0.7874015748031497,
          "duration": 0.09999999999999432
        },
        {
          "name": "D#3",
          "midi": 51,
          "time": 163.39999999999733,
          "velocity": 0.7874015748031497,
          "duration": 0.09999999999999432
        },
        {
          "name": "D#3",
          "midi": 51,
          "time": 163.49999999999733,
          "velocity": 0.7874015748031497,
          "duration": 0.09999999999999432
        },
        {
          "name": "D#3",
          "midi": 51,
          "time": 163.59999999999732,
          "velocity": 0.7874015748031497,
          "duration": 0.09999999999999432
        },
        {
          "name": "D#3",
          "midi": 51,
          "time": 163.69999999999732,
          "velocity": 0.7874015748031497,
          "duration": 0.09999999999999432
        },
        {
          "name": "D#3",
          "midi": 51,
          "time": 163.7999999999973,
          "velocity": 0.7874015748031497,
          "duration": 0.09999999999999432
        },
        {
          "name": "D#3",
          "midi": 51,
          "time": 163.8999999999973,
          "velocity": 0.7874015748031497,
          "duration": 0.09499999999999886
        },
        {
          "name": "A#2",
          "midi": 46,
          "time": 163.9999999999973,
          "velocity": 0.7874015748031497,
          "duration": 0.09999999999999432
        },
        {
          "name": "F3",
          "midi": 53,
          "time": 163.9999999999973,
          "velocity": 0.7874015748031497,
          "duration": 0.19999999999998863
        },
        {
          "name": "A#2",
          "midi": 46,
          "time": 164.0999999999973,
          "velocity": 0.7874015748031497,
          "duration": 0.09999999999999432
        },
        {
          "name": "A#2",
          "midi": 46,
          "time": 164.1999999999973,
          "velocity": 0.7874015748031497,
          "duration": 0.09999999999999432
        },
        {
          "name": "A#2",
          "midi": 46,
          "time": 164.29999999999728,
          "velocity": 0.7874015748031497,
          "duration": 0.09999999999999432
        },
        {
          "name": "A#2",
          "midi": 46,
          "time": 164.39999999999728,
          "velocity": 0.7874015748031497,
          "duration": 0.09999999999999432
        },
        {
          "name": "A#2",
          "midi": 46,
          "time": 164.49999999999727,
          "velocity": 0.7874015748031497,
          "duration": 0.09999999999999432
        },
        {
          "name": "A#2",
          "midi": 46,
          "time": 164.59999999999727,
          "velocity": 0.7874015748031497,
          "duration": 0.09999999999999432
        },
        {
          "name": "A#2",
          "midi": 46,
          "time": 164.69999999999726,
          "velocity": 0.7874015748031497,
          "duration": 0.09999999999999432
        },
        {
          "name": "A#2",
          "midi": 46,
          "time": 164.79999999999725,
          "velocity": 0.7874015748031497,
          "duration": 0.09999999999999432
        },
        {
          "name": "A#2",
          "midi": 46,
          "time": 164.89999999999725,
          "velocity": 0.7874015748031497,
          "duration": 0.09999999999999432
        },
        {
          "name": "A#2",
          "midi": 46,
          "time": 164.99999999999724,
          "velocity": 0.7874015748031497,
          "duration": 0.09999999999999432
        },
        {
          "name": "A#2",
          "midi": 46,
          "time": 165.09999999999724,
          "velocity": 0.7874015748031497,
          "duration": 0.09999999999999432
        },
        {
          "name": "A#2",
          "midi": 46,
          "time": 165.19999999999723,
          "velocity": 0.7874015748031497,
          "duration": 0.09999999999999432
        },
        {
          "name": "A#2",
          "midi": 46,
          "time": 165.29999999999723,
          "velocity": 0.7874015748031497,
          "duration": 0.09999999999999432
        },
        {
          "name": "A#2",
          "midi": 46,
          "time": 165.39999999999722,
          "velocity": 0.7874015748031497,
          "duration": 0.09999999999999432
        },
        {
          "name": "A#2",
          "midi": 46,
          "time": 165.49999999999721,
          "velocity": 0.7874015748031497,
          "duration": 0.09999999999999432
        },
        {
          "name": "F3",
          "midi": 53,
          "time": 165.5999999999972,
          "velocity": 0.7874015748031497,
          "duration": 0.5999999999999943
        },
        {
          "name": "C4",
          "midi": 60,
          "time": 165.5999999999972,
          "velocity": 0.7874015748031497,
          "duration": 0.5999999999999943
        },
        {
          "name": "F3",
          "midi": 53,
          "time": 166.1999999999972,
          "velocity": 0.7874015748031497,
          "duration": 0.5999999999999943
        },
        {
          "name": "C4",
          "midi": 60,
          "time": 166.1999999999972,
          "velocity": 0.7874015748031497,
          "duration": 0.5999999999999943
        },
        {
          "name": "F3",
          "midi": 53,
          "time": 166.7999999999972,
          "velocity": 0.7874015748031497,
          "duration": 0.19999999999998863
        },
        {
          "name": "C4",
          "midi": 60,
          "time": 166.7999999999972,
          "velocity": 0.7874015748031497,
          "duration": 0.19999999999998863
        },
        {
          "name": "F3",
          "midi": 53,
          "time": 166.9999999999972,
          "velocity": 0.7874015748031497,
          "duration": 0.19999999999998863
        },
        {
          "name": "C4",
          "midi": 60,
          "time": 166.9999999999972,
          "velocity": 0.7874015748031497,
          "duration": 0.19999999999998863
        },
        {
          "name": "F3",
          "midi": 53,
          "time": 167.19999999999717,
          "velocity": 0.7874015748031497,
          "duration": 0.5999999999999943
        },
        {
          "name": "C4",
          "midi": 60,
          "time": 167.19999999999717,
          "velocity": 0.7874015748031497,
          "duration": 0.5999999999999943
        },
        {
          "name": "F3",
          "midi": 53,
          "time": 167.79999999999717,
          "velocity": 0.7874015748031497,
          "duration": 0.5999999999999943
        },
        {
          "name": "C4",
          "midi": 60,
          "time": 167.79999999999717,
          "velocity": 0.7874015748031497,
          "duration": 0.5999999999999943
        },
        {
          "name": "F3",
          "midi": 53,
          "time": 168.39999999999716,
          "velocity": 0.7874015748031497,
          "duration": 0.4000000000000057
        },
        {
          "name": "C4",
          "midi": 60,
          "time": 168.39999999999716,
          "velocity": 0.7874015748031497,
          "duration": 0.4000000000000057
        },
        {
          "name": "C3",
          "midi": 48,
          "time": 168.79999999999717,
          "velocity": 0.7874015748031497,
          "duration": 0.4000000000000057
        },
        {
          "name": "D#3",
          "midi": 51,
          "time": 168.79999999999717,
          "velocity": 0.7874015748031497,
          "duration": 0.4000000000000057
        },
        {
          "name": "A#2",
          "midi": 46,
          "time": 169.19999999999717,
          "velocity": 0.7874015748031497,
          "duration": 0.4000000000000057
        },
        {
          "name": "D3",
          "midi": 50,
          "time": 169.19999999999717,
          "velocity": 0.7874015748031497,
          "duration": 0.4000000000000057
        },
        {
          "name": "A2",
          "midi": 45,
          "time": 169.59999999999718,
          "velocity": 0.7874015748031497,
          "duration": 0.4000000000000057
        },
        {
          "name": "C3",
          "midi": 48,
          "time": 169.59999999999718,
          "velocity": 0.7874015748031497,
          "duration": 0.4000000000000057
        },
        {
          "name": "G2",
          "midi": 43,
          "time": 169.9999999999972,
          "velocity": 0.7874015748031497,
          "duration": 0.4000000000000057
        },
        {
          "name": "A#2",
          "midi": 46,
          "time": 169.9999999999972,
          "velocity": 0.7874015748031497,
          "duration": 0.4000000000000057
        },
        {
          "name": "A#2",
          "midi": 46,
          "time": 170.3999999999972,
          "velocity": 0.7874015748031497,
          "duration": 0.09999999999999432
        },
        {
          "name": "A#2",
          "midi": 46,
          "time": 170.4999999999972,
          "velocity": 0.7874015748031497,
          "duration": 0.09999999999999432
        },
        {
          "name": "A#2",
          "midi": 46,
          "time": 170.59999999999718,
          "velocity": 0.7874015748031497,
          "duration": 0.09999999999999432
        },
        {
          "name": "A#2",
          "midi": 46,
          "time": 170.69999999999717,
          "velocity": 0.7874015748031497,
          "duration": 0.09999999999999432
        },
        {
          "name": "A2",
          "midi": 45,
          "time": 170.79999999999717,
          "velocity": 0.7874015748031497,
          "duration": 0.09999999999999432
        },
        {
          "name": "A2",
          "midi": 45,
          "time": 170.89999999999716,
          "velocity": 0.7874015748031497,
          "duration": 0.09999999999999432
        },
        {
          "name": "A2",
          "midi": 45,
          "time": 170.99999999999716,
          "velocity": 0.7874015748031497,
          "duration": 0.09999999999999432
        },
        {
          "name": "A2",
          "midi": 45,
          "time": 171.09999999999715,
          "velocity": 0.7874015748031497,
          "duration": 0.09999999999999432
        },
        {
          "name": "G2",
          "midi": 43,
          "time": 171.19999999999715,
          "velocity": 0.7874015748031497,
          "duration": 0.09999999999999432
        },
        {
          "name": "G2",
          "midi": 43,
          "time": 171.29999999999714,
          "velocity": 0.7874015748031497,
          "duration": 0.09999999999999432
        },
        {
          "name": "G2",
          "midi": 43,
          "time": 171.39999999999714,
          "velocity": 0.7874015748031497,
          "duration": 0.09999999999999432
        },
        {
          "name": "G2",
          "midi": 43,
          "time": 171.49999999999713,
          "velocity": 0.7874015748031497,
          "duration": 0.09999999999999432
        },
        {
          "name": "F2",
          "midi": 41,
          "time": 171.59999999999712,
          "velocity": 0.7874015748031497,
          "duration": 0.09999999999999432
        },
        {
          "name": "F2",
          "midi": 41,
          "time": 171.69999999999712,
          "velocity": 0.7874015748031497,
          "duration": 0.09999999999999432
        },
        {
          "name": "F2",
          "midi": 41,
          "time": 171.7999999999971,
          "velocity": 0.7874015748031497,
          "duration": 0.09999999999999432
        },
        {
          "name": "F2",
          "midi": 41,
          "time": 171.8999999999971,
          "velocity": 0.7874015748031497,
          "duration": 0.10249999999999204
        },
        {
          "name": "G4",
          "midi": 67,
          "time": 171.9999999999971,
          "velocity": 0.7874015748031497,
          "duration": 0.19999999999998863
        },
        {
          "name": "G4",
          "midi": 67,
          "time": 172.1999999999971,
          "velocity": 0.7874015748031497,
          "duration": 0.09999999999999432
        },
        {
          "name": "G4",
          "midi": 67,
          "time": 172.29999999999708,
          "velocity": 0.7874015748031497,
          "duration": 0.09999999999999432
        },
        {
          "name": "A4",
          "midi": 69,
          "time": 172.39999999999708,
          "velocity": 0.7874015748031497,
          "duration": 0.19916666666665606
        },
        {
          "name": "G4",
          "midi": 67,
          "time": 172.59999999999707,
          "velocity": 0.7874015748031497,
          "duration": 0.09999999999999432
        },
        {
          "name": "G4",
          "midi": 67,
          "time": 172.69999999999706,
          "velocity": 0.7874015748031497,
          "duration": 0.09999999999999432
        },
        {
          "name": "A#4",
          "midi": 70,
          "time": 172.79999999999706,
          "velocity": 0.7874015748031497,
          "duration": 0.19999999999998863
        },
        {
          "name": "G4",
          "midi": 67,
          "time": 172.99999999999704,
          "velocity": 0.7874015748031497,
          "duration": 0.09999999999999432
        },
        {
          "name": "G4",
          "midi": 67,
          "time": 173.09999999999704,
          "velocity": 0.7874015748031497,
          "duration": 0.09999999999999432
        },
        {
          "name": "G4",
          "midi": 67,
          "time": 173.19999999999703,
          "velocity": 0.7874015748031497,
          "duration": 0.19999999999998863
        },
        {
          "name": "G4",
          "midi": 67,
          "time": 173.39999999999702,
          "velocity": 0.7874015748031497,
          "duration": 0.10499999999998977
        },
        {
          "name": "G4",
          "midi": 67,
          "time": 173.49999999999702,
          "velocity": 0.7874015748031497,
          "duration": 0.09999999999999432
        },
        {
          "name": "C5",
          "midi": 72,
          "time": 173.599999999997,
          "velocity": 0.7874015748031497,
          "duration": 0.19999999999998863
        },
        {
          "name": "G4",
          "midi": 67,
          "time": 173.799999999997,
          "velocity": 0.7874015748031497,
          "duration": 0.09999999999999432
        },
        {
          "name": "G4",
          "midi": 67,
          "time": 173.899999999997,
          "velocity": 0.7874015748031497,
          "duration": 0.09999999999999432
        },
        {
          "name": "A4",
          "midi": 69,
          "time": 173.999999999997,
          "velocity": 0.7874015748031497,
          "duration": 0.19999999999998863
        },
        {
          "name": "G4",
          "midi": 67,
          "time": 174.19999999999698,
          "velocity": 0.7874015748031497,
          "duration": 0.09999999999999432
        },
        {
          "name": "G4",
          "midi": 67,
          "time": 174.29999999999697,
          "velocity": 0.7874015748031497,
          "duration": 0.09999999999999432
        },
        {
          "name": "A#4",
          "midi": 70,
          "time": 174.40166666666363,
          "velocity": 0.7874015748031497,
          "duration": 0.19999999999998863
        },
        {
          "name": "G4",
          "midi": 67,
          "time": 174.59999999999695,
          "velocity": 0.7874015748031497,
          "duration": 0.09999999999999432
        },
        {
          "name": "G4",
          "midi": 67,
          "time": 174.69999999999695,
          "velocity": 0.7874015748031497,
          "duration": 0.09999999999999432
        },
        {
          "name": "G4",
          "midi": 67,
          "time": 174.79999999999694,
          "velocity": 0.7874015748031497,
          "duration": 0.20333333333331893
        },
        {
          "name": "G4",
          "midi": 67,
          "time": 174.99999999999693,
          "velocity": 0.7874015748031497,
          "duration": 0.09999999999999432
        },
        {
          "name": "G4",
          "midi": 67,
          "time": 175.09999999999692,
          "velocity": 0.7874015748031497,
          "duration": 0.09999999999999432
        },
        {
          "name": "G4",
          "midi": 67,
          "time": 175.19999999999692,
          "velocity": 0.7874015748031497,
          "duration": 0.19999999999998863
        },
        {
          "name": "G4",
          "midi": 67,
          "time": 175.3999999999969,
          "velocity": 0.7874015748031497,
          "duration": 0.09999999999999432
        },
        {
          "name": "G4",
          "midi": 67,
          "time": 175.4999999999969,
          "velocity": 0.7874015748031497,
          "duration": 0.09999999999999432
        },
        {
          "name": "A4",
          "midi": 69,
          "time": 175.5999999999969,
          "velocity": 0.7874015748031497,
          "duration": 0.19916666666665606
        },
        {
          "name": "G4",
          "midi": 67,
          "time": 175.79999999999688,
          "velocity": 0.7874015748031497,
          "duration": 0.09999999999999432
        },
        {
          "name": "G4",
          "midi": 67,
          "time": 175.89999999999688,
          "velocity": 0.7874015748031497,
          "duration": 0.09999999999999432
        },
        {
          "name": "A#4",
          "midi": 70,
          "time": 175.99999999999687,
          "velocity": 0.7874015748031497,
          "duration": 0.19999999999998863
        },
        {
          "name": "G4",
          "midi": 67,
          "time": 176.19999999999686,
          "velocity": 0.7874015748031497,
          "duration": 0.09999999999999432
        },
        {
          "name": "G4",
          "midi": 67,
          "time": 176.29999999999686,
          "velocity": 0.7874015748031497,
          "duration": 0.09999999999999432
        },
        {
          "name": "G4",
          "midi": 67,
          "time": 176.39999999999685,
          "velocity": 0.7874015748031497,
          "duration": 0.19999999999998863
        },
        {
          "name": "G4",
          "midi": 67,
          "time": 176.59999999999684,
          "velocity": 0.7874015748031497,
          "duration": 0.10499999999998977
        },
        {
          "name": "G4",
          "midi": 67,
          "time": 176.69999999999683,
          "velocity": 0.7874015748031497,
          "duration": 0.09999999999999432
        },
        {
          "name": "C5",
          "midi": 72,
          "time": 176.79999999999683,
          "velocity": 0.7874015748031497,
          "duration": 0.4000000000000057
        },
        {
          "name": "A#4",
          "midi": 70,
          "time": 177.19999999999683,
          "velocity": 0.7874015748031497,
          "duration": 0.4000000000000057
        },
        {
          "name": "A4",
          "midi": 69,
          "time": 177.59999999999684,
          "velocity": 0.7874015748031497,
          "duration": 0.4000000000000057
        },
        {
          "name": "G4",
          "midi": 67,
          "time": 178.00333333333018,
          "velocity": 0.7874015748031497,
          "duration": 0.4000000000000057
        },
        {
          "name": "F4",
          "midi": 65,
          "time": 178.39999999999685,
          "velocity": 0.7874015748031497,
          "duration": 0.19999999999998863
        },
        {
          "name": "F4",
          "midi": 65,
          "time": 178.59999999999684,
          "velocity": 0.7874015748031497,
          "duration": 0.09999999999999432
        },
        {
          "name": "F4",
          "midi": 65,
          "time": 178.69999999999683,
          "velocity": 0.7874015748031497,
          "duration": 0.09999999999999432
        },
        {
          "name": "G4",
          "midi": 67,
          "time": 178.79999999999683,
          "velocity": 0.7874015748031497,
          "duration": 0.19916666666665606
        },
        {
          "name": "F4",
          "midi": 65,
          "time": 178.99999999999682,
          "velocity": 0.7874015748031497,
          "duration": 0.09999999999999432
        },
        {
          "name": "F4",
          "midi": 65,
          "time": 179.0999999999968,
          "velocity": 0.7874015748031497,
          "duration": 0.09999999999999432
        },
        {
          "name": "A4",
          "midi": 69,
          "time": 179.1999999999968,
          "velocity": 0.7874015748031497,
          "duration": 0.19999999999998863
        },
        {
          "name": "F4",
          "midi": 65,
          "time": 179.3999999999968,
          "velocity": 0.7874015748031497,
          "duration": 0.09999999999999432
        },
        {
          "name": "F4",
          "midi": 65,
          "time": 179.4999999999968,
          "velocity": 0.7874015748031497,
          "duration": 0.09999999999999432
        },
        {
          "name": "F4",
          "midi": 65,
          "time": 179.59999999999678,
          "velocity": 0.7874015748031497,
          "duration": 0.19999999999998863
        },
        {
          "name": "F4",
          "midi": 65,
          "time": 179.79999999999677,
          "velocity": 0.7874015748031497,
          "duration": 0.10499999999998977
        },
        {
          "name": "F4",
          "midi": 65,
          "time": 179.89999999999677,
          "velocity": 0.7874015748031497,
          "duration": 0.09999999999999432
        },
        {
          "name": "C5",
          "midi": 72,
          "time": 179.99999999999676,
          "velocity": 0.7874015748031497,
          "duration": 0.19999999999998863
        },
        {
          "name": "F4",
          "midi": 65,
          "time": 180.19999999999675,
          "velocity": 0.7874015748031497,
          "duration": 0.09999999999999432
        },
        {
          "name": "F4",
          "midi": 65,
          "time": 180.29999999999674,
          "velocity": 0.7874015748031497,
          "duration": 0.09999999999999432
        },
        {
          "name": "G4",
          "midi": 67,
          "time": 180.39999999999674,
          "velocity": 0.7874015748031497,
          "duration": 0.19999999999998863
        },
        {
          "name": "F4",
          "midi": 65,
          "time": 180.59999999999673,
          "velocity": 0.7874015748031497,
          "duration": 0.09999999999999432
        },
        {
          "name": "F4",
          "midi": 65,
          "time": 180.69999999999672,
          "velocity": 0.7874015748031497,
          "duration": 0.09999999999999432
        },
        {
          "name": "A4",
          "midi": 69,
          "time": 180.80166666666338,
          "velocity": 0.7874015748031497,
          "duration": 0.19999999999998863
        },
        {
          "name": "F4",
          "midi": 65,
          "time": 180.9999999999967,
          "velocity": 0.7874015748031497,
          "duration": 0.09999999999999432
        },
        {
          "name": "F4",
          "midi": 65,
          "time": 181.0999999999967,
          "velocity": 0.7874015748031497,
          "duration": 0.09999999999999432
        },
        {
          "name": "F4",
          "midi": 65,
          "time": 181.1999999999967,
          "velocity": 0.7874015748031497,
          "duration": 0.20333333333331893
        },
        {
          "name": "F4",
          "midi": 65,
          "time": 181.39999999999668,
          "velocity": 0.7874015748031497,
          "duration": 0.09999999999999432
        },
        {
          "name": "F4",
          "midi": 65,
          "time": 181.49999999999667,
          "velocity": 0.7874015748031497,
          "duration": 0.09999999999999432
        },
        {
          "name": "F4",
          "midi": 65,
          "time": 181.59999999999667,
          "velocity": 0.7874015748031497,
          "duration": 0.19999999999998863
        },
        {
          "name": "F4",
          "midi": 65,
          "time": 181.79999999999666,
          "velocity": 0.7874015748031497,
          "duration": 0.09999999999999432
        },
        {
          "name": "F4",
          "midi": 65,
          "time": 181.89999999999665,
          "velocity": 0.7874015748031497,
          "duration": 0.09999999999999432
        },
        {
          "name": "G4",
          "midi": 67,
          "time": 181.99999999999665,
          "velocity": 0.7874015748031497,
          "duration": 0.19916666666665606
        },
        {
          "name": "F4",
          "midi": 65,
          "time": 182.19999999999663,
          "velocity": 0.7874015748031497,
          "duration": 0.09999999999999432
        },
        {
          "name": "F4",
          "midi": 65,
          "time": 182.29999999999663,
          "velocity": 0.7874015748031497,
          "duration": 0.09999999999999432
        },
        {
          "name": "A4",
          "midi": 69,
          "time": 182.39999999999662,
          "velocity": 0.7874015748031497,
          "duration": 0.19999999999998863
        },
        {
          "name": "F4",
          "midi": 65,
          "time": 182.5999999999966,
          "velocity": 0.7874015748031497,
          "duration": 0.09999999999999432
        },
        {
          "name": "F4",
          "midi": 65,
          "time": 182.6999999999966,
          "velocity": 0.7874015748031497,
          "duration": 0.09999999999999432
        },
        {
          "name": "F4",
          "midi": 65,
          "time": 182.7999999999966,
          "velocity": 0.7874015748031497,
          "duration": 0.19999999999998863
        },
        {
          "name": "F4",
          "midi": 65,
          "time": 182.9999999999966,
          "velocity": 0.7874015748031497,
          "duration": 0.10499999999998977
        },
        {
          "name": "F4",
          "midi": 65,
          "time": 183.09999999999658,
          "velocity": 0.7874015748031497,
          "duration": 0.09999999999999432
        },
        {
          "name": "F4",
          "midi": 65,
          "time": 183.19999999999658,
          "velocity": 0.7874015748031497,
          "duration": 0.4000000000000057
        },
        {
          "name": "G4",
          "midi": 67,
          "time": 183.59999999999658,
          "velocity": 0.7874015748031497,
          "duration": 0.4000000000000057
        },
        {
          "name": "A4",
          "midi": 69,
          "time": 183.9999999999966,
          "velocity": 0.7874015748031497,
          "duration": 0.4000000000000057
        },
        {
          "name": "A#4",
          "midi": 70,
          "time": 184.3999999999966,
          "velocity": 0.7874015748031497,
          "duration": 0.4000000000000057
        },
        {
          "name": "A4",
          "midi": 69,
          "time": 184.7999999999966,
          "velocity": 0.7874015748031497,
          "duration": 0.4000000000000057
        },
        {
          "name": "B4",
          "midi": 71,
          "time": 185.1999999999966,
          "velocity": 0.7874015748031497,
          "duration": 0.4000000000000057
        },
        {
          "name": "C5",
          "midi": 72,
          "time": 185.5999999999966,
          "velocity": 0.7874015748031497,
          "duration": 0.4000000000000057
        },
        {
          "name": "A4",
          "midi": 69,
          "time": 185.99999999999662,
          "velocity": 0.7874015748031497,
          "duration": 0.4000000000000057
        },
        {
          "name": "D5",
          "midi": 74,
          "time": 186.39999999999662,
          "velocity": 0.7874015748031497,
          "duration": 0.4000000000000057
        },
        {
          "name": "B4",
          "midi": 71,
          "time": 186.79999999999663,
          "velocity": 0.7874015748031497,
          "duration": 0.4000000000000057
        },
        {
          "name": "C5",
          "midi": 72,
          "time": 187.19999999999663,
          "velocity": 0.7874015748031497,
          "duration": 0.4000000000000057
        },
        {
          "name": "A4",
          "midi": 69,
          "time": 187.59999999999664,
          "velocity": 0.7874015748031497,
          "duration": 0.4000000000000057
        },
        {
          "name": "A4",
          "midi": 69,
          "time": 187.99999999999665,
          "velocity": 0.7874015748031497,
          "duration": 0.4000000000000057
        },
        {
          "name": "B4",
          "midi": 71,
          "time": 188.39999999999665,
          "velocity": 0.7874015748031497,
          "duration": 0.4000000000000057
        },
        {
          "name": "C5",
          "midi": 72,
          "time": 188.79999999999666,
          "velocity": 0.7874015748031497,
          "duration": 0.4000000000000057
        },
        {
          "name": "A4",
          "midi": 69,
          "time": 189.19999999999666,
          "velocity": 0.7874015748031497,
          "duration": 0.4000000000000057
        },
        {
          "name": "D5",
          "midi": 74,
          "time": 189.59999999999667,
          "velocity": 0.7874015748031497,
          "duration": 0.4000000000000057
        },
        {
          "name": "C5",
          "midi": 72,
          "time": 189.99999999999667,
          "velocity": 0.7874015748031497,
          "duration": 0.4000000000000057
        },
        {
          "name": "B4",
          "midi": 71,
          "time": 190.39999999999668,
          "velocity": 0.7874015748031497,
          "duration": 0.4000000000000057
        },
        {
          "name": "A4",
          "midi": 69,
          "time": 190.7999999999967,
          "velocity": 0.7874015748031497,
          "duration": 0.4000000000000057
        },
        {
          "name": "G4",
          "midi": 67,
          "time": 191.1999999999967,
          "velocity": 0.7874015748031497,
          "duration": 0.4000000000000057
        },
        {
          "name": "A4",
          "midi": 69,
          "time": 191.5999999999967,
          "velocity": 0.7874015748031497,
          "duration": 0.4000000000000057
        },
        {
          "name": "B4",
          "midi": 71,
          "time": 191.9999999999967,
          "velocity": 0.7874015748031497,
          "duration": 0.4000000000000057
        },
        {
          "name": "G4",
          "midi": 67,
          "time": 192.3999999999967,
          "velocity": 0.7874015748031497,
          "duration": 0.4000000000000057
        },
        {
          "name": "D5",
          "midi": 74,
          "time": 192.79999999999671,
          "velocity": 0.7874015748031497,
          "duration": 0.4000000000000057
        },
        {
          "name": "A4",
          "midi": 69,
          "time": 193.19999999999672,
          "velocity": 0.7874015748031497,
          "duration": 0.4000000000000057
        },
        {
          "name": "B4",
          "midi": 71,
          "time": 193.59999999999673,
          "velocity": 0.7874015748031497,
          "duration": 0.4000000000000057
        },
        {
          "name": "G4",
          "midi": 67,
          "time": 193.99999999999673,
          "velocity": 0.7874015748031497,
          "duration": 0.40166666666667084
        },
        {
          "name": "G4",
          "midi": 67,
          "time": 194.39999999999674,
          "velocity": 0.7874015748031497,
          "duration": 0.4000000000000057
        },
        {
          "name": "A4",
          "midi": 69,
          "time": 194.79999999999674,
          "velocity": 0.7874015748031497,
          "duration": 0.4000000000000057
        },
        {
          "name": "B4",
          "midi": 71,
          "time": 195.19999999999675,
          "velocity": 0.7874015748031497,
          "duration": 0.4000000000000057
        },
        {
          "name": "G4",
          "midi": 67,
          "time": 195.59999999999675,
          "velocity": 0.7874015748031497,
          "duration": 0.4000000000000057
        },
        {
          "name": "D4",
          "midi": 62,
          "time": 195.99999999999676,
          "velocity": 0.7874015748031497,
          "duration": 0.09999999999999432
        },
        {
          "name": "D#4",
          "midi": 63,
          "time": 196.09999999999675,
          "velocity": 0.7874015748031497,
          "duration": 0.09999999999999432
        },
        {
          "name": "F4",
          "midi": 65,
          "time": 196.19999999999675,
          "velocity": 0.7874015748031497,
          "duration": 0.09999999999999432
        },
        {
          "name": "G4",
          "midi": 67,
          "time": 196.29999999999674,
          "velocity": 0.7874015748031497,
          "duration": 0.09999999999999432
        },
        {
          "name": "G#4",
          "midi": 68,
          "time": 196.39999999999674,
          "velocity": 0.7874015748031497,
          "duration": 0.09999999999999432
        },
        {
          "name": "G4",
          "midi": 67,
          "time": 196.49999999999673,
          "velocity": 0.7874015748031497,
          "duration": 0.10416666666665719
        },
        {
          "name": "G#4",
          "midi": 68,
          "time": 196.59999999999673,
          "velocity": 0.7874015748031497,
          "duration": 0.09999999999999432
        },
        {
          "name": "A#4",
          "midi": 70,
          "time": 196.69999999999672,
          "velocity": 0.7874015748031497,
          "duration": 0.09999999999999432
        },
        {
          "name": "C5",
          "midi": 72,
          "time": 196.79999999999671,
          "velocity": 0.7874015748031497,
          "duration": 0.09999999999999432
        },
        {
          "name": "D5",
          "midi": 74,
          "time": 196.8999999999967,
          "velocity": 0.7874015748031497,
          "duration": 0.09999999999999432
        },
        {
          "name": "C5",
          "midi": 72,
          "time": 196.9999999999967,
          "velocity": 0.7874015748031497,
          "duration": 0.09999999999999432
        },
        {
          "name": "D5",
          "midi": 74,
          "time": 197.0999999999967,
          "velocity": 0.7874015748031497,
          "duration": 0.09999999999999432
        },
        {
          "name": "D#5",
          "midi": 75,
          "time": 197.1999999999967,
          "velocity": 0.7874015748031497,
          "duration": 0.13333333333332575
        },
        {
          "name": "F5",
          "midi": 77,
          "time": 197.39999999999668,
          "velocity": 0.7874015748031497,
          "duration": 0.19999999999998863
        },
        {
          "name": "C5",
          "midi": 72,
          "time": 197.59999999999667,
          "velocity": 0.7874015748031497,
          "duration": 0.4000000000000057
        },
        {
          "name": "F5",
          "midi": 77,
          "time": 197.59999999999667,
          "velocity": 0.7874015748031497,
          "duration": 0.0008333333333325754
        },
        {
          "name": "D5",
          "midi": 74,
          "time": 197.99999999999667,
          "velocity": 0.7874015748031497,
          "duration": 0.4000000000000057
        },
        {
          "name": "D#5",
          "midi": 75,
          "time": 198.39999999999668,
          "velocity": 0.7874015748031497,
          "duration": 0.4000000000000057
        },
        {
          "name": "C5",
          "midi": 72,
          "time": 198.7999999999967,
          "velocity": 0.7874015748031497,
          "duration": 0.4000000000000057
        },
        {
          "name": "F5",
          "midi": 77,
          "time": 199.1999999999967,
          "velocity": 0.7874015748031497,
          "duration": 0.4000000000000057
        },
        {
          "name": "D5",
          "midi": 74,
          "time": 199.5999999999967,
          "velocity": 0.7874015748031497,
          "duration": 0.4000000000000057
        },
        {
          "name": "D#5",
          "midi": 75,
          "time": 199.9999999999967,
          "velocity": 0.7874015748031497,
          "duration": 0.4000000000000057
        },
        {
          "name": "C5",
          "midi": 72,
          "time": 200.3999999999967,
          "velocity": 0.7874015748031497,
          "duration": 0.4000000000000057
        },
        {
          "name": "C5",
          "midi": 72,
          "time": 200.79999999999671,
          "velocity": 0.7874015748031497,
          "duration": 0.4000000000000057
        },
        {
          "name": "D5",
          "midi": 74,
          "time": 201.19999999999672,
          "velocity": 0.7874015748031497,
          "duration": 0.4000000000000057
        },
        {
          "name": "D#5",
          "midi": 75,
          "time": 201.59999999999673,
          "velocity": 0.7874015748031497,
          "duration": 0.4000000000000057
        },
        {
          "name": "C5",
          "midi": 72,
          "time": 201.99999999999673,
          "velocity": 0.7874015748031497,
          "duration": 0.4000000000000057
        },
        {
          "name": "F5",
          "midi": 77,
          "time": 202.39999999999674,
          "velocity": 0.7874015748031497,
          "duration": 0.4000000000000057
        },
        {
          "name": "D#5",
          "midi": 75,
          "time": 202.79999999999674,
          "velocity": 0.7874015748031497,
          "duration": 0.4000000000000057
        },
        {
          "name": "D5",
          "midi": 74,
          "time": 203.19999999999675,
          "velocity": 0.7874015748031497,
          "duration": 0.4000000000000057
        },
        {
          "name": "C5",
          "midi": 72,
          "time": 203.59999999999675,
          "velocity": 0.7874015748031497,
          "duration": 0.4000000000000057
        },
        {
          "name": "D#5",
          "midi": 75,
          "time": 203.99999999999676,
          "velocity": 0.7874015748031497,
          "duration": 0.4000000000000057
        },
        {
          "name": "F5",
          "midi": 77,
          "time": 204.39999999999677,
          "velocity": 0.7874015748031497,
          "duration": 0.4000000000000057
        },
        {
          "name": "F#5",
          "midi": 78,
          "time": 204.79999999999677,
          "velocity": 0.7874015748031497,
          "duration": 0.4000000000000057
        },
        {
          "name": "D#5",
          "midi": 75,
          "time": 205.19999999999678,
          "velocity": 0.7874015748031497,
          "duration": 0.4000000000000057
        },
        {
          "name": "G#5",
          "midi": 80,
          "time": 205.59999999999678,
          "velocity": 0.7874015748031497,
          "duration": 0.4000000000000057
        },
        {
          "name": "F5",
          "midi": 77,
          "time": 205.9999999999968,
          "velocity": 0.7874015748031497,
          "duration": 0.4000000000000057
        },
        {
          "name": "F#5",
          "midi": 78,
          "time": 206.3999999999968,
          "velocity": 0.7874015748031497,
          "duration": 0.4000000000000057
        },
        {
          "name": "D#5",
          "midi": 75,
          "time": 206.7999999999968,
          "velocity": 0.7874015748031497,
          "duration": 0.4000000000000057
        },
        {
          "name": "D#5",
          "midi": 75,
          "time": 207.1999999999968,
          "velocity": 0.7874015748031497,
          "duration": 0.4000000000000057
        },
        {
          "name": "F5",
          "midi": 77,
          "time": 207.5999999999968,
          "velocity": 0.7874015748031497,
          "duration": 0.4000000000000057
        },
        {
          "name": "F#5",
          "midi": 78,
          "time": 207.99999999999682,
          "velocity": 0.7874015748031497,
          "duration": 0.4000000000000057
        },
        {
          "name": "D#5",
          "midi": 75,
          "time": 208.39999999999682,
          "velocity": 0.7874015748031497,
          "duration": 0.4000000000000057
        },
        {
          "name": "G#5",
          "midi": 80,
          "time": 208.79999999999683,
          "velocity": 0.7874015748031497,
          "duration": 0.4000000000000057
        },
        {
          "name": "F#5",
          "midi": 78,
          "time": 209.19999999999683,
          "velocity": 0.7874015748031497,
          "duration": 0.4000000000000057
        },
        {
          "name": "F5",
          "midi": 77,
          "time": 209.59999999999684,
          "velocity": 0.7874015748031497,
          "duration": 0.4000000000000057
        },
        {
          "name": "D#5",
          "midi": 75,
          "time": 209.99999999999685,
          "velocity": 0.7874015748031497,
          "duration": 0.4000000000000057
        },
        {
          "name": "C5",
          "midi": 72,
          "time": 210.39999999999685,
          "velocity": 0.7874015748031497,
          "duration": 0.39750000000000796
        },
        {
          "name": "F4",
          "midi": 65,
          "time": 210.79999999999686,
          "velocity": 0.7874015748031497,
          "duration": 0.25
        },
        {
          "name": "C5",
          "midi": 72,
          "time": 211.04999999999686,
          "velocity": 0.7874015748031497,
          "duration": 0.3499999999999943
        },
        {
          "name": "F4",
          "midi": 65,
          "time": 211.39999999999685,
          "velocity": 0.7874015748031497,
          "duration": 0.19999999999998863
        },
        {
          "name": "C5",
          "midi": 72,
          "time": 211.59999999999684,
          "velocity": 0.7874015748031497,
          "duration": 0.19999999999998863
        },
        {
          "name": "C#5",
          "midi": 73,
          "time": 211.79999999999683,
          "velocity": 0.7874015748031497,
          "duration": 0.214999999999975
        },
        {
          "name": "C5",
          "midi": 72,
          "time": 211.99999999999682,
          "velocity": 0.7874015748031497,
          "duration": 0.39999999999997726
        },
        {
          "name": "F4",
          "midi": 65,
          "time": 212.3999999999968,
          "velocity": 0.7874015748031497,
          "duration": 0.19999999999998863
        },
        {
          "name": "C5",
          "midi": 72,
          "time": 212.59999999999678,
          "velocity": 0.7874015748031497,
          "duration": 1
        },
        {
          "name": "F5",
          "midi": 77,
          "time": 213.59999999999678,
          "velocity": 0.7874015748031497,
          "duration": 0.09749999999999659
        },
        {
          "name": "G#5",
          "midi": 80,
          "time": 213.69999999999678,
          "velocity": 0.7874015748031497,
          "duration": 0.09999999999999432
        },
        {
          "name": "F5",
          "midi": 77,
          "time": 213.79999999999677,
          "velocity": 0.7874015748031497,
          "duration": 0.09999999999999432
        },
        {
          "name": "G#5",
          "midi": 80,
          "time": 213.89999999999677,
          "velocity": 0.7874015748031497,
          "duration": 0.09999999999999432
        },
        {
          "name": "C5",
          "midi": 72,
          "time": 213.99999999999676,
          "velocity": 0.7874015748031497,
          "duration": 0.09999999999999432
        },
        {
          "name": "D#5",
          "midi": 75,
          "time": 214.09999999999675,
          "velocity": 0.7874015748031497,
          "duration": 0.10083333333332689
        },
        {
          "name": "C5",
          "midi": 72,
          "time": 214.19999999999675,
          "velocity": 0.7874015748031497,
          "duration": 0.09999999999999432
        },
        {
          "name": "D#5",
          "midi": 75,
          "time": 214.29999999999674,
          "velocity": 0.7874015748031497,
          "duration": 0.09999999999999432
        },
        {
          "name": "G#4",
          "midi": 68,
          "time": 214.39999999999674,
          "velocity": 0.7874015748031497,
          "duration": 0.09999999999999432
        },
        {
          "name": "A#4",
          "midi": 70,
          "time": 214.49999999999673,
          "velocity": 0.7874015748031497,
          "duration": 0.09999999999999432
        },
        {
          "name": "G#4",
          "midi": 68,
          "time": 214.59999999999673,
          "velocity": 0.7874015748031497,
          "duration": 0.09999999999999432
        },
        {
          "name": "A#4",
          "midi": 70,
          "time": 214.69999999999672,
          "velocity": 0.7874015748031497,
          "duration": 0.09999999999999432
        },
        {
          "name": "D#4",
          "midi": 63,
          "time": 214.79999999999671,
          "velocity": 0.7874015748031497,
          "duration": 0.09999999999999432
        },
        {
          "name": "F4",
          "midi": 65,
          "time": 214.8999999999967,
          "velocity": 0.7874015748031497,
          "duration": 0.09999999999999432
        },
        {
          "name": "D#4",
          "midi": 63,
          "time": 214.9999999999967,
          "velocity": 0.7874015748031497,
          "duration": 0.09999999999999432
        },
        {
          "name": "F4",
          "midi": 65,
          "time": 215.0999999999967,
          "velocity": 0.7874015748031497,
          "duration": 0.09999999999999432
        },
        {
          "name": "F4",
          "midi": 65,
          "time": 215.1999999999967,
          "velocity": 0.7874015748031497,
          "duration": 0.4000000000000057
        },
        {
          "name": "G4",
          "midi": 67,
          "time": 215.5999999999967,
          "velocity": 0.7874015748031497,
          "duration": 0.4000000000000057
        },
        {
          "name": "G#4",
          "midi": 68,
          "time": 215.9999999999967,
          "velocity": 0.7874015748031497,
          "duration": 0.4000000000000057
        },
        {
          "name": "A#4",
          "midi": 70,
          "time": 216.3999999999967,
          "velocity": 0.7874015748031497,
          "duration": 0.25
        },
        {
          "name": "C5",
          "midi": 72,
          "time": 216.69999999999672,
          "velocity": 0.7874015748031497,
          "duration": 0.09999999999999432
        },
        {
          "name": "G#5",
          "midi": 80,
          "time": 216.79999999999671,
          "velocity": 0.7874015748031497,
          "duration": 0.09999999999999432
        },
        {
          "name": "F5",
          "midi": 77,
          "time": 216.8999999999967,
          "velocity": 0.7874015748031497,
          "duration": 0.09999999999999432
        },
        {
          "name": "C5",
          "midi": 72,
          "time": 216.9999999999967,
          "velocity": 0.7874015748031497,
          "duration": 0.09999999999999432
        },
        {
          "name": "G#4",
          "midi": 68,
          "time": 217.0999999999967,
          "velocity": 0.7874015748031497,
          "duration": 0.09999999999999432
        },
        {
          "name": "C5",
          "midi": 72,
          "time": 217.1999999999967,
          "velocity": 0.7874015748031497,
          "duration": 0.09666666666666401
        },
        {
          "name": "F5",
          "midi": 77,
          "time": 217.2999999999967,
          "velocity": 0.7874015748031497,
          "duration": 0.09999999999999432
        },
        {
          "name": "G#5",
          "midi": 80,
          "time": 217.39999999999668,
          "velocity": 0.7874015748031497,
          "duration": 0.09999999999999432
        },
        {
          "name": "F5",
          "midi": 77,
          "time": 217.49999999999667,
          "velocity": 0.7874015748031497,
          "duration": 0.09999999999999432
        },
        {
          "name": "G5",
          "midi": 79,
          "time": 217.59999999999667,
          "velocity": 0.7874015748031497,
          "duration": 0.09999999999999432
        },
        {
          "name": "E5",
          "midi": 76,
          "time": 217.69999999999666,
          "velocity": 0.7874015748031497,
          "duration": 0.09999999999999432
        },
        {
          "name": "C5",
          "midi": 72,
          "time": 217.79999999999666,
          "velocity": 0.7874015748031497,
          "duration": 0.09999999999999432
        },
        {
          "name": "G4",
          "midi": 67,
          "time": 217.89999999999665,
          "velocity": 0.7874015748031497,
          "duration": 0.09999999999999432
        },
        {
          "name": "C5",
          "midi": 72,
          "time": 217.99999999999665,
          "velocity": 0.7874015748031497,
          "duration": 0.09999999999999432
        },
        {
          "name": "E5",
          "midi": 76,
          "time": 218.09499999999665,
          "velocity": 0.7874015748031497,
          "duration": 0.09999999999999432
        },
        {
          "name": "G5",
          "midi": 79,
          "time": 218.19999999999663,
          "velocity": 0.7874015748031497,
          "duration": 0.09999999999999432
        },
        {
          "name": "E5",
          "midi": 76,
          "time": 218.29999999999663,
          "velocity": 0.7874015748031497,
          "duration": 0.09999999999999432
        },
        {
          "name": "A#5",
          "midi": 82,
          "time": 218.39999999999662,
          "velocity": 0.7874015748031497,
          "duration": 0.09999999999999432
        },
        {
          "name": "G5",
          "midi": 79,
          "time": 218.49999999999662,
          "velocity": 0.7874015748031497,
          "duration": 0.09999999999999432
        },
        {
          "name": "E5",
          "midi": 76,
          "time": 218.5999999999966,
          "velocity": 0.7874015748031497,
          "duration": 0.09999999999999432
        },
        {
          "name": "C#5",
          "midi": 73,
          "time": 218.6999999999966,
          "velocity": 0.7874015748031497,
          "duration": 0.1074999999999875
        },
        {
          "name": "E5",
          "midi": 76,
          "time": 218.7999999999966,
          "velocity": 0.7874015748031497,
          "duration": 0.09999999999999432
        },
        {
          "name": "G5",
          "midi": 79,
          "time": 218.8924999999966,
          "velocity": 0.7874015748031497,
          "duration": 0.09999999999999432
        },
        {
          "name": "A#5",
          "midi": 82,
          "time": 218.9999999999966,
          "velocity": 0.7874015748031497,
          "duration": 0.09583333333333144
        },
        {
          "name": "G5",
          "midi": 79,
          "time": 219.09999999999658,
          "velocity": 0.7874015748031497,
          "duration": 0.09999999999999432
        },
        {
          "name": "G#5",
          "midi": 80,
          "time": 219.19999999999658,
          "velocity": 0.7874015748031497,
          "duration": 0.09999999999999432
        },
        {
          "name": "F5",
          "midi": 77,
          "time": 219.29999999999657,
          "velocity": 0.7874015748031497,
          "duration": 0.09999999999999432
        },
        {
          "name": "C5",
          "midi": 72,
          "time": 219.39999999999657,
          "velocity": 0.7874015748031497,
          "duration": 0.09999999999999432
        },
        {
          "name": "G#4",
          "midi": 68,
          "time": 219.49999999999656,
          "velocity": 0.7874015748031497,
          "duration": 0.09999999999999432
        },
        {
          "name": "C5",
          "midi": 72,
          "time": 219.59999999999656,
          "velocity": 0.7874015748031497,
          "duration": 0.09666666666666401
        },
        {
          "name": "F5",
          "midi": 77,
          "time": 219.69999999999655,
          "velocity": 0.7874015748031497,
          "duration": 0.09999999999999432
        },
        {
          "name": "G#5",
          "midi": 80,
          "time": 219.79999999999654,
          "velocity": 0.7874015748031497,
          "duration": 0.09999999999999432
        },
        {
          "name": "F5",
          "midi": 77,
          "time": 219.89999999999654,
          "velocity": 0.7874015748031497,
          "duration": 0.09999999999999432
        },
        {
          "name": "F4",
          "midi": 65,
          "time": 220.0016666666632,
          "velocity": 0.7874015748031497,
          "duration": 0.06499999999999773
        },
        {
          "name": "F4",
          "midi": 65,
          "time": 220.0666666666632,
          "velocity": 0.7874015748031497,
          "duration": 0.06666666666666288
        },
        {
          "name": "F4",
          "midi": 65,
          "time": 220.13333333332986,
          "velocity": 0.7874015748031497,
          "duration": 0.06666666666666288
        },
        {
          "name": "F4",
          "midi": 65,
          "time": 220.19999999999652,
          "velocity": 0.7874015748031497,
          "duration": 0.06666666666666288
        },
        {
          "name": "F4",
          "midi": 65,
          "time": 220.26666666666318,
          "velocity": 0.7874015748031497,
          "duration": 0.06666666666666288
        },
        {
          "name": "F4",
          "midi": 65,
          "time": 220.33333333332985,
          "velocity": 0.7874015748031497,
          "duration": 0.06833333333332803
        },
        {
          "name": "G4",
          "midi": 67,
          "time": 220.3999999999965,
          "velocity": 0.7874015748031497,
          "duration": 0.06666666666666288
        },
        {
          "name": "G4",
          "midi": 67,
          "time": 220.46666666666317,
          "velocity": 0.7874015748031497,
          "duration": 0.06666666666666288
        },
        {
          "name": "G4",
          "midi": 67,
          "time": 220.53333333332984,
          "velocity": 0.7874015748031497,
          "duration": 0.06666666666666288
        },
        {
          "name": "G4",
          "midi": 67,
          "time": 220.5999999999965,
          "velocity": 0.7874015748031497,
          "duration": 0.06666666666666288
        },
        {
          "name": "G4",
          "midi": 67,
          "time": 220.66666666666316,
          "velocity": 0.7874015748031497,
          "duration": 0.06666666666666288
        },
        {
          "name": "G4",
          "midi": 67,
          "time": 220.73333333332982,
          "velocity": 0.7874015748031497,
          "duration": 0.06666666666666288
        },
        {
          "name": "G#4",
          "midi": 68,
          "time": 220.7999999999965,
          "velocity": 0.7874015748031497,
          "duration": 0.06666666666666288
        },
        {
          "name": "G#4",
          "midi": 68,
          "time": 220.86666666666315,
          "velocity": 0.7874015748031497,
          "duration": 0.06666666666666288
        },
        {
          "name": "G#4",
          "midi": 68,
          "time": 220.9333333333298,
          "velocity": 0.7874015748031497,
          "duration": 0.06666666666666288
        },
        {
          "name": "G#4",
          "midi": 68,
          "time": 220.99999999999648,
          "velocity": 0.7874015748031497,
          "duration": 0.06666666666666288
        },
        {
          "name": "G#4",
          "midi": 68,
          "time": 221.06666666666314,
          "velocity": 0.7874015748031497,
          "duration": 0.06666666666666288
        },
        {
          "name": "G#4",
          "midi": 68,
          "time": 221.1333333333298,
          "velocity": 0.7874015748031497,
          "duration": 0.06666666666666288
        },
        {
          "name": "A#4",
          "midi": 70,
          "time": 221.19999999999646,
          "velocity": 0.7874015748031497,
          "duration": 0.4000000000000057
        },
        {
          "name": "A#4",
          "midi": 70,
          "time": 221.59999999999647,
          "velocity": 0.7874015748031497,
          "duration": 0.09499999999999886
        },
        {
          "name": "C5",
          "midi": 72,
          "time": 221.69499999999647,
          "velocity": 0.7874015748031497,
          "duration": 0.09999999999999432
        },
        {
          "name": "G#4",
          "midi": 68,
          "time": 221.80666666666312,
          "velocity": 0.7874015748031497,
          "duration": 0.09000000000000341
        },
        {
          "name": "C5",
          "midi": 72,
          "time": 221.89999999999645,
          "velocity": 0.7874015748031497,
          "duration": 0.09333333333333371
        },
        {
          "name": "G#4",
          "midi": 68,
          "time": 221.99583333332978,
          "velocity": 0.7874015748031497,
          "duration": 0.09833333333332916
        },
        {
          "name": "A#4",
          "midi": 70,
          "time": 222.0941666666631,
          "velocity": 0.7874015748031497,
          "duration": 0.09833333333332916
        },
        {
          "name": "G4",
          "midi": 67,
          "time": 222.20249999999643,
          "velocity": 0.7874015748031497,
          "duration": 0.09999999999999432
        },
        {
          "name": "A#4",
          "midi": 70,
          "time": 222.29999999999643,
          "velocity": 0.7874015748031497,
          "duration": 0.09999999999999432
        },
        {
          "name": "G4",
          "midi": 67,
          "time": 222.39749999999643,
          "velocity": 0.7874015748031497,
          "duration": 0.11416666666667652
        },
        {
          "name": "G#4",
          "midi": 68,
          "time": 222.5116666666631,
          "velocity": 0.7874015748031497,
          "duration": 0.09999999999999432
        },
        {
          "name": "F4",
          "midi": 65,
          "time": 222.6116666666631,
          "velocity": 0.7874015748031497,
          "duration": 0.09999999999999432
        },
        {
          "name": "G#4",
          "midi": 68,
          "time": 222.69999999999644,
          "velocity": 0.7874015748031497,
          "duration": 0.5
        },
        {
          "name": "G4",
          "midi": 67,
          "time": 223.20499999999643,
          "velocity": 0.7874015748031497,
          "duration": 0.4000000000000057
        },
        {
          "name": "F4",
          "midi": 65,
          "time": 223.59999999999644,
          "velocity": 0.7874015748031497,
          "duration": 0.2041666666666515
        },
        {
          "name": "G4",
          "midi": 67,
          "time": 223.8041666666631,
          "velocity": 0.7874015748031497,
          "duration": 0.4000000000000057
        },
        {
          "name": "F4",
          "midi": 65,
          "time": 224.19499999999644,
          "velocity": 0.7874015748031497,
          "duration": 0.19999999999998863
        },
        {
          "name": "G4",
          "midi": 67,
          "time": 224.39999999999642,
          "velocity": 0.7874015748031497,
          "duration": 0.19999999999998863
        },
        {
          "name": "A4",
          "midi": 69,
          "time": 224.5999999999964,
          "velocity": 0.7874015748031497,
          "duration": 0.19999999999998863
        },
        {
          "name": "A#4",
          "midi": 70,
          "time": 224.7999999999964,
          "velocity": 0.7874015748031497,
          "duration": 0.19999999999998863
        },
        {
          "name": "A4",
          "midi": 69,
          "time": 224.9999999999964,
          "velocity": 0.7874015748031497,
          "duration": 0.19999999999998863
        },
        {
          "name": "G4",
          "midi": 67,
          "time": 225.1983333333297,
          "velocity": 0.7874015748031497,
          "duration": 0.19999999999998863
        },
        {
          "name": "G4",
          "midi": 67,
          "time": 225.39999999999637,
          "velocity": 0.7874015748031497,
          "duration": 1
        },
        {
          "name": "A4",
          "midi": 69,
          "time": 226.4008333333297,
          "velocity": 0.7874015748031497,
          "duration": 0.4000000000000057
        },
        {
          "name": "G4",
          "midi": 67,
          "time": 226.79999999999637,
          "velocity": 0.7874015748031497,
          "duration": 0.19999999999998863
        },
        {
          "name": "A4",
          "midi": 69,
          "time": 226.99999999999636,
          "velocity": 0.7874015748031497,
          "duration": 0.4000000000000057
        },
        {
          "name": "G4",
          "midi": 67,
          "time": 227.39999999999637,
          "velocity": 0.7874015748031497,
          "duration": 0.19999999999998863
        },
        {
          "name": "A4",
          "midi": 69,
          "time": 227.59999999999636,
          "velocity": 0.7874015748031497,
          "duration": 0.19999999999998863
        },
        {
          "name": "A#4",
          "midi": 70,
          "time": 227.79999999999634,
          "velocity": 0.7874015748031497,
          "duration": 0.19999999999998863
        },
        {
          "name": "C5",
          "midi": 72,
          "time": 227.99999999999633,
          "velocity": 0.7874015748031497,
          "duration": 0.19999999999998863
        },
        {
          "name": "A#4",
          "midi": 70,
          "time": 228.19999999999632,
          "velocity": 0.7874015748031497,
          "duration": 0.19999999999998863
        },
        {
          "name": "A4",
          "midi": 69,
          "time": 228.3999999999963,
          "velocity": 0.7874015748031497,
          "duration": 0.19999999999998863
        },
        {
          "name": "D5",
          "midi": 74,
          "time": 228.5999999999963,
          "velocity": 0.7874015748031497,
          "duration": 1
        },
        {
          "name": "D#4",
          "midi": 63,
          "time": 229.5999999999963,
          "velocity": 0.7874015748031497,
          "duration": 0.13333333333332575
        },
        {
          "name": "G4",
          "midi": 67,
          "time": 229.73333333332963,
          "velocity": 0.7874015748031497,
          "duration": 0.13333333333332575
        },
        {
          "name": "A#4",
          "midi": 70,
          "time": 229.86666666666295,
          "velocity": 0.7874015748031497,
          "duration": 0.13583333333332348
        },
        {
          "name": "D#5",
          "midi": 75,
          "time": 229.99999999999628,
          "velocity": 0.7874015748031497,
          "duration": 0.12666666666666515
        },
        {
          "name": "A#4",
          "midi": 70,
          "time": 230.13249999999627,
          "velocity": 0.7874015748031497,
          "duration": 0.13333333333332575
        },
        {
          "name": "G4",
          "midi": 67,
          "time": 230.26666666666293,
          "velocity": 0.7874015748031497,
          "duration": 0.1458333333333428
        },
        {
          "name": "G4",
          "midi": 67,
          "time": 230.41416666666294,
          "velocity": 0.7874015748031497,
          "duration": 0.13333333333332575
        },
        {
          "name": "A#4",
          "midi": 70,
          "time": 230.5333333333296,
          "velocity": 0.7874015748031497,
          "duration": 0.13333333333332575
        },
        {
          "name": "D#5",
          "midi": 75,
          "time": 230.66666666666293,
          "velocity": 0.7874015748031497,
          "duration": 0.13333333333332575
        },
        {
          "name": "G5",
          "midi": 79,
          "time": 230.79166666666293,
          "velocity": 0.7874015748031497,
          "duration": 0.13333333333332575
        },
        {
          "name": "D#5",
          "midi": 75,
          "time": 230.93333333332959,
          "velocity": 0.7874015748031497,
          "duration": 0.13333333333332575
        },
        {
          "name": "A#4",
          "midi": 70,
          "time": 231.0666666666629,
          "velocity": 0.7874015748031497,
          "duration": 0.13333333333332575
        },
        {
          "name": "A#4",
          "midi": 70,
          "time": 231.19999999999624,
          "velocity": 0.7874015748031497,
          "duration": 0.12000000000000455
        },
        {
          "name": "D#5",
          "midi": 75,
          "time": 231.33333333332956,
          "velocity": 0.7874015748031497,
          "duration": 0.13333333333332575
        },
        {
          "name": "G5",
          "midi": 79,
          "time": 231.4666666666629,
          "velocity": 0.7874015748031497,
          "duration": 0.13333333333332575
        },
        {
          "name": "A#5",
          "midi": 82,
          "time": 231.59999999999621,
          "velocity": 0.7874015748031497,
          "duration": 0.13333333333332575
        },
        {
          "name": "G5",
          "midi": 79,
          "time": 231.73333333332954,
          "velocity": 0.7874015748031497,
          "duration": 0.13333333333332575
        },
        {
          "name": "D#5",
          "midi": 75,
          "time": 231.86666666666287,
          "velocity": 0.7874015748031497,
          "duration": 0.13333333333332575
        },
        {
          "name": "A#4",
          "midi": 70,
          "time": 231.9999999999962,
          "velocity": 0.7874015748031497,
          "duration": 0.8000000000000114
        },
        {
          "name": "F4",
          "midi": 65,
          "time": 232.7999999999962,
          "velocity": 0.7874015748031497,
          "duration": 0.13333333333332575
        },
        {
          "name": "A4",
          "midi": 69,
          "time": 232.93333333332953,
          "velocity": 0.7874015748031497,
          "duration": 0.13333333333332575
        },
        {
          "name": "C5",
          "midi": 72,
          "time": 233.06666666666285,
          "velocity": 0.7874015748031497,
          "duration": 0.13583333333332348
        },
        {
          "name": "F5",
          "midi": 77,
          "time": 233.19999999999618,
          "velocity": 0.7874015748031497,
          "duration": 0.12666666666666515
        },
        {
          "name": "C5",
          "midi": 72,
          "time": 233.33249999999617,
          "velocity": 0.7874015748031497,
          "duration": 0.13333333333332575
        },
        {
          "name": "A4",
          "midi": 69,
          "time": 233.46666666666283,
          "velocity": 0.7874015748031497,
          "duration": 0.1458333333333428
        },
        {
          "name": "A4",
          "midi": 69,
          "time": 233.61416666666284,
          "velocity": 0.7874015748031497,
          "duration": 0.13333333333332575
        },
        {
          "name": "C5",
          "midi": 72,
          "time": 233.7333333333295,
          "velocity": 0.7874015748031497,
          "duration": 0.13333333333332575
        },
        {
          "name": "F5",
          "midi": 77,
          "time": 233.86666666666284,
          "velocity": 0.7874015748031497,
          "duration": 0.13333333333332575
        },
        {
          "name": "A5",
          "midi": 81,
          "time": 233.99166666666284,
          "velocity": 0.7874015748031497,
          "duration": 0.13333333333332575
        },
        {
          "name": "F5",
          "midi": 77,
          "time": 234.1333333333295,
          "velocity": 0.7874015748031497,
          "duration": 0.13333333333332575
        },
        {
          "name": "C5",
          "midi": 72,
          "time": 234.26666666666281,
          "velocity": 0.7874015748031497,
          "duration": 0.13333333333332575
        },
        {
          "name": "D#5",
          "midi": 75,
          "time": 234.39999999999614,
          "velocity": 0.7874015748031497,
          "duration": 0.11666666666667425
        },
        {
          "name": "F#5",
          "midi": 78,
          "time": 234.53499999999616,
          "velocity": 0.7874015748031497,
          "duration": 0.13333333333332575
        },
        {
          "name": "A5",
          "midi": 81,
          "time": 234.66666666666282,
          "velocity": 0.7874015748031497,
          "duration": 0.13416666666665833
        },
        {
          "name": "C6",
          "midi": 84,
          "time": 234.79999999999615,
          "velocity": 0.7874015748031497,
          "duration": 0.13333333333332575
        },
        {
          "name": "A5",
          "midi": 81,
          "time": 234.93333333332947,
          "velocity": 0.7874015748031497,
          "duration": 0.13333333333332575
        },
        {
          "name": "F#5",
          "midi": 78,
          "time": 235.0666666666628,
          "velocity": 0.7874015748031497,
          "duration": 0.13333333333332575
        },
        {
          "name": "D6",
          "midi": 86,
          "time": 235.19999999999612,
          "velocity": 0.7874015748031497,
          "duration": 0.806666666666672
        },
        {
          "name": "A#4",
          "midi": 70,
          "time": 235.99999999999613,
          "velocity": 0.7874015748031497,
          "duration": 0.4000000000000057
        },
        {
          "name": "A4",
          "midi": 69,
          "time": 236.39999999999614,
          "velocity": 0.7874015748031497,
          "duration": 0.4000000000000057
        },
        {
          "name": "G4",
          "midi": 67,
          "time": 236.79999999999615,
          "velocity": 0.7874015748031497,
          "duration": 0.4000000000000057
        },
        {
          "name": "F4",
          "midi": 65,
          "time": 237.20749999999614,
          "velocity": 0.7874015748031497,
          "duration": 0.4000000000000057
        },
        {
          "name": "G4",
          "midi": 67,
          "time": 237.59999999999616,
          "velocity": 0.7874015748031497,
          "duration": 0.19999999999998863
        },
        {
          "name": "G4",
          "midi": 67,
          "time": 237.79999999999615,
          "velocity": 0.7874015748031497,
          "duration": 0.09999999999999432
        },
        {
          "name": "G4",
          "midi": 67,
          "time": 237.89999999999614,
          "velocity": 0.7874015748031497,
          "duration": 0.09999999999999432
        },
        {
          "name": "A4",
          "midi": 69,
          "time": 237.99999999999613,
          "velocity": 0.7874015748031497,
          "duration": 0.19916666666665606
        },
        {
          "name": "G4",
          "midi": 67,
          "time": 238.19999999999612,
          "velocity": 0.7874015748031497,
          "duration": 0.09999999999999432
        },
        {
          "name": "G4",
          "midi": 67,
          "time": 238.29999999999612,
          "velocity": 0.7874015748031497,
          "duration": 0.09999999999999432
        },
        {
          "name": "A#4",
          "midi": 70,
          "time": 238.3999999999961,
          "velocity": 0.7874015748031497,
          "duration": 0.19999999999998863
        },
        {
          "name": "G4",
          "midi": 67,
          "time": 238.5999999999961,
          "velocity": 0.7874015748031497,
          "duration": 0.09999999999999432
        },
        {
          "name": "G4",
          "midi": 67,
          "time": 238.6999999999961,
          "velocity": 0.7874015748031497,
          "duration": 0.09999999999999432
        },
        {
          "name": "G4",
          "midi": 67,
          "time": 238.7999999999961,
          "velocity": 0.7874015748031497,
          "duration": 0.19999999999998863
        },
        {
          "name": "G4",
          "midi": 67,
          "time": 238.99999999999608,
          "velocity": 0.7874015748031497,
          "duration": 0.10499999999998977
        },
        {
          "name": "G4",
          "midi": 67,
          "time": 239.09999999999607,
          "velocity": 0.7874015748031497,
          "duration": 0.09999999999999432
        },
        {
          "name": "C5",
          "midi": 72,
          "time": 239.19999999999607,
          "velocity": 0.7874015748031497,
          "duration": 0.19999999999998863
        },
        {
          "name": "G4",
          "midi": 67,
          "time": 239.39999999999606,
          "velocity": 0.7874015748031497,
          "duration": 0.09999999999999432
        },
        {
          "name": "G4",
          "midi": 67,
          "time": 239.49999999999605,
          "velocity": 0.7874015748031497,
          "duration": 0.09999999999999432
        },
        {
          "name": "A4",
          "midi": 69,
          "time": 239.59999999999604,
          "velocity": 0.7874015748031497,
          "duration": 0.19999999999998863
        },
        {
          "name": "G4",
          "midi": 67,
          "time": 239.79999999999603,
          "velocity": 0.7874015748031497,
          "duration": 0.09999999999999432
        },
        {
          "name": "G4",
          "midi": 67,
          "time": 239.89999999999603,
          "velocity": 0.7874015748031497,
          "duration": 0.09999999999999432
        },
        {
          "name": "A#4",
          "midi": 70,
          "time": 240.0016666666627,
          "velocity": 0.7874015748031497,
          "duration": 0.19999999999998863
        },
        {
          "name": "G4",
          "midi": 67,
          "time": 240.199999999996,
          "velocity": 0.7874015748031497,
          "duration": 0.09999999999999432
        },
        {
          "name": "G4",
          "midi": 67,
          "time": 240.299999999996,
          "velocity": 0.7874015748031497,
          "duration": 0.09999999999999432
        },
        {
          "name": "G4",
          "midi": 67,
          "time": 240.399999999996,
          "velocity": 0.7874015748031497,
          "duration": 0.20333333333331893
        },
        {
          "name": "G4",
          "midi": 67,
          "time": 240.599999999996,
          "velocity": 0.7874015748031497,
          "duration": 0.09999999999999432
        },
        {
          "name": "G4",
          "midi": 67,
          "time": 240.69999999999598,
          "velocity": 0.7874015748031497,
          "duration": 0.09999999999999432
        },
        {
          "name": "G4",
          "midi": 67,
          "time": 240.79999999999598,
          "velocity": 0.7874015748031497,
          "duration": 0.19999999999998863
        },
        {
          "name": "G4",
          "midi": 67,
          "time": 240.99999999999596,
          "velocity": 0.7874015748031497,
          "duration": 0.09999999999999432
        },
        {
          "name": "G4",
          "midi": 67,
          "time": 241.09999999999596,
          "velocity": 0.7874015748031497,
          "duration": 0.09999999999999432
        },
        {
          "name": "A4",
          "midi": 69,
          "time": 241.19999999999595,
          "velocity": 0.7874015748031497,
          "duration": 0.19916666666665606
        },
        {
          "name": "G4",
          "midi": 67,
          "time": 241.39999999999594,
          "velocity": 0.7874015748031497,
          "duration": 0.09999999999999432
        },
        {
          "name": "G4",
          "midi": 67,
          "time": 241.49999999999594,
          "velocity": 0.7874015748031497,
          "duration": 0.09999999999999432
        },
        {
          "name": "A#4",
          "midi": 70,
          "time": 241.59999999999593,
          "velocity": 0.7874015748031497,
          "duration": 0.19999999999998863
        },
        {
          "name": "G4",
          "midi": 67,
          "time": 241.79999999999592,
          "velocity": 0.7874015748031497,
          "duration": 0.09999999999999432
        },
        {
          "name": "G4",
          "midi": 67,
          "time": 241.8999999999959,
          "velocity": 0.7874015748031497,
          "duration": 0.09999999999999432
        },
        {
          "name": "G4",
          "midi": 67,
          "time": 241.9999999999959,
          "velocity": 0.7874015748031497,
          "duration": 0.19999999999998863
        },
        {
          "name": "G4",
          "midi": 67,
          "time": 242.1999999999959,
          "velocity": 0.7874015748031497,
          "duration": 0.10499999999998977
        },
        {
          "name": "G4",
          "midi": 67,
          "time": 242.2999999999959,
          "velocity": 0.7874015748031497,
          "duration": 0.09999999999999432
        },
        {
          "name": "C5",
          "midi": 72,
          "time": 242.39999999999588,
          "velocity": 0.7874015748031497,
          "duration": 0.4000000000000057
        },
        {
          "name": "A#4",
          "midi": 70,
          "time": 242.7999999999959,
          "velocity": 0.7874015748031497,
          "duration": 0.4000000000000057
        },
        {
          "name": "A4",
          "midi": 69,
          "time": 243.1999999999959,
          "velocity": 0.7874015748031497,
          "duration": 0.4000000000000057
        },
        {
          "name": "G4",
          "midi": 67,
          "time": 243.60333333332923,
          "velocity": 0.7874015748031497,
          "duration": 0.4000000000000057
        },
        {
          "name": "F4",
          "midi": 65,
          "time": 243.9999999999959,
          "velocity": 0.7874015748031497,
          "duration": 0.4000000000000057
        },
        {
          "name": "G4",
          "midi": 67,
          "time": 244.3999999999959,
          "velocity": 0.7874015748031497,
          "duration": 0.4000000000000057
        },
        {
          "name": "A4",
          "midi": 69,
          "time": 244.79999999999592,
          "velocity": 0.7874015748031497,
          "duration": 0.4000000000000057
        },
        {
          "name": "F4",
          "midi": 65,
          "time": 245.19999999999592,
          "velocity": 0.7874015748031497,
          "duration": 0.4000000000000057
        },
        {
          "name": "C5",
          "midi": 72,
          "time": 245.59999999999593,
          "velocity": 0.7874015748031497,
          "duration": 0.4000000000000057
        },
        {
          "name": "G4",
          "midi": 67,
          "time": 245.99999999999594,
          "velocity": 0.7874015748031497,
          "duration": 0.4000000000000057
        },
        {
          "name": "A4",
          "midi": 69,
          "time": 246.4016666666626,
          "velocity": 0.7874015748031497,
          "duration": 0.4000000000000057
        },
        {
          "name": "F4",
          "midi": 65,
          "time": 246.79999999999595,
          "velocity": 0.7874015748031497,
          "duration": 0.4000000000000057
        },
        {
          "name": "F4",
          "midi": 65,
          "time": 247.19999999999595,
          "velocity": 0.7874015748031497,
          "duration": 0.4000000000000057
        },
        {
          "name": "G4",
          "midi": 67,
          "time": 247.59999999999596,
          "velocity": 0.7874015748031497,
          "duration": 0.4000000000000057
        },
        {
          "name": "A4",
          "midi": 69,
          "time": 247.99999999999596,
          "velocity": 0.7874015748031497,
          "duration": 0.4000000000000057
        },
        {
          "name": "F4",
          "midi": 65,
          "time": 248.39999999999597,
          "velocity": 0.7874015748031497,
          "duration": 0.4000000000000057
        },
        {
          "name": "F4",
          "midi": 65,
          "time": 248.79999999999598,
          "velocity": 0.7874015748031497,
          "duration": 0.13333333333332575
        },
        {
          "name": "F4",
          "midi": 65,
          "time": 248.9333333333293,
          "velocity": 0.7874015748031497,
          "duration": 0.13333333333332575
        },
        {
          "name": "F4",
          "midi": 65,
          "time": 249.06666666666263,
          "velocity": 0.7874015748031497,
          "duration": 0.13333333333332575
        },
        {
          "name": "G4",
          "midi": 67,
          "time": 249.19999999999595,
          "velocity": 0.7874015748031497,
          "duration": 0.13333333333332575
        },
        {
          "name": "G4",
          "midi": 67,
          "time": 249.33333333332928,
          "velocity": 0.7874015748031497,
          "duration": 0.13333333333332575
        },
        {
          "name": "G4",
          "midi": 67,
          "time": 249.4666666666626,
          "velocity": 0.7874015748031497,
          "duration": 0.13333333333332575
        },
        {
          "name": "A4",
          "midi": 69,
          "time": 249.59999999999593,
          "velocity": 0.7874015748031497,
          "duration": 0.13333333333332575
        },
        {
          "name": "A4",
          "midi": 69,
          "time": 249.73333333332926,
          "velocity": 0.7874015748031497,
          "duration": 0.13333333333332575
        },
        {
          "name": "A4",
          "midi": 69,
          "time": 249.86666666666258,
          "velocity": 0.7874015748031497,
          "duration": 0.13333333333332575
        },
        {
          "name": "A#4",
          "midi": 70,
          "time": 249.9999999999959,
          "velocity": 0.7874015748031497,
          "duration": 0.13333333333332575
        },
        {
          "name": "A#4",
          "midi": 70,
          "time": 250.13333333332923,
          "velocity": 0.7874015748031497,
          "duration": 0.13333333333332575
        },
        {
          "name": "A#4",
          "midi": 70,
          "time": 250.26666666666256,
          "velocity": 0.7874015748031497,
          "duration": 0.13333333333332575
        },
        {
          "name": "D#3",
          "midi": 51,
          "time": 250.39999999999588,
          "velocity": 0.7874015748031497,
          "duration": 0.5999999999999943
        },
        {
          "name": "G3",
          "midi": 55,
          "time": 250.39999999999588,
          "velocity": 0.7874015748031497,
          "duration": 0.5999999999999943
        },
        {
          "name": "D#3",
          "midi": 51,
          "time": 250.99999999999588,
          "velocity": 0.7874015748031497,
          "duration": 0.5999999999999943
        },
        {
          "name": "A3",
          "midi": 57,
          "time": 250.99999999999588,
          "velocity": 0.7874015748031497,
          "duration": 0.5999999999999943
        },
        {
          "name": "D#3",
          "midi": 51,
          "time": 251.59999999999587,
          "velocity": 0.7874015748031497,
          "duration": 0.4000000000000057
        },
        {
          "name": "A#3",
          "midi": 58,
          "time": 251.59999999999587,
          "velocity": 0.7874015748031497,
          "duration": 0.4000000000000057
        },
        {
          "name": "D#3",
          "midi": 51,
          "time": 251.99999999999588,
          "velocity": 0.7874015748031497,
          "duration": 0.5999999999999943
        },
        {
          "name": "G3",
          "midi": 55,
          "time": 251.99999999999588,
          "velocity": 0.7874015748031497,
          "duration": 0.5999999999999943
        },
        {
          "name": "D#3",
          "midi": 51,
          "time": 252.59999999999587,
          "velocity": 0.7874015748031497,
          "duration": 0.5999999999999943
        },
        {
          "name": "A3",
          "midi": 57,
          "time": 252.59999999999587,
          "velocity": 0.7874015748031497,
          "duration": 0.5999999999999943
        },
        {
          "name": "D#3",
          "midi": 51,
          "time": 253.19999999999587,
          "velocity": 0.7874015748031497,
          "duration": 0.4000000000000057
        },
        {
          "name": "A#3",
          "midi": 58,
          "time": 253.19999999999587,
          "velocity": 0.7874015748031497,
          "duration": 0.4000000000000057
        },
        {
          "name": "F3",
          "midi": 53,
          "time": 253.59999999999587,
          "velocity": 0.7874015748031497,
          "duration": 0.13333333333332575
        },
        {
          "name": "F3",
          "midi": 53,
          "time": 253.7333333333292,
          "velocity": 0.7874015748031497,
          "duration": 0.13333333333332575
        },
        {
          "name": "F3",
          "midi": 53,
          "time": 253.86666666666252,
          "velocity": 0.7874015748031497,
          "duration": 0.13333333333332575
        },
        {
          "name": "F3",
          "midi": 53,
          "time": 253.99999999999585,
          "velocity": 0.7874015748031497,
          "duration": 0.13333333333332575
        },
        {
          "name": "F3",
          "midi": 53,
          "time": 254.13333333332918,
          "velocity": 0.7874015748031497,
          "duration": 0.13333333333332575
        },
        {
          "name": "F3",
          "midi": 53,
          "time": 254.2666666666625,
          "velocity": 0.7874015748031497,
          "duration": 0.13333333333332575
        },
        {
          "name": "F3",
          "midi": 53,
          "time": 254.39999999999583,
          "velocity": 0.7874015748031497,
          "duration": 0.13333333333332575
        },
        {
          "name": "F3",
          "midi": 53,
          "time": 254.53333333332915,
          "velocity": 0.7874015748031497,
          "duration": 0.13333333333332575
        },
        {
          "name": "F3",
          "midi": 53,
          "time": 254.66666666666248,
          "velocity": 0.7874015748031497,
          "duration": 0.13333333333332575
        },
        {
          "name": "F3",
          "midi": 53,
          "time": 254.7999999999958,
          "velocity": 0.7874015748031497,
          "duration": 0.13333333333332575
        },
        {
          "name": "F3",
          "midi": 53,
          "time": 254.93333333332913,
          "velocity": 0.7874015748031497,
          "duration": 0.13333333333332575
        },
        {
          "name": "F3",
          "midi": 53,
          "time": 255.06666666666246,
          "velocity": 0.7874015748031497,
          "duration": 0.13333333333332575
        },
        {
          "name": "F3",
          "midi": 53,
          "time": 255.19999999999578,
          "velocity": 0.7874015748031497,
          "duration": 0.13333333333332575
        },
        {
          "name": "F3",
          "midi": 53,
          "time": 255.3333333333291,
          "velocity": 0.7874015748031497,
          "duration": 0.13333333333332575
        },
        {
          "name": "F3",
          "midi": 53,
          "time": 255.46666666666243,
          "velocity": 0.7874015748031497,
          "duration": 0.13333333333332575
        },
        {
          "name": "F3",
          "midi": 53,
          "time": 255.59999999999576,
          "velocity": 0.7874015748031497,
          "duration": 0.13333333333332575
        },
        {
          "name": "F3",
          "midi": 53,
          "time": 255.73333333332909,
          "velocity": 0.7874015748031497,
          "duration": 0.13333333333332575
        },
        {
          "name": "F3",
          "midi": 53,
          "time": 255.8666666666624,
          "velocity": 0.7874015748031497,
          "duration": 0.13333333333332575
        },
        {
          "name": "F3",
          "midi": 53,
          "time": 255.99999999999574,
          "velocity": 0.7874015748031497,
          "duration": 0.13333333333332575
        },
        {
          "name": "F3",
          "midi": 53,
          "time": 256.13333333332906,
          "velocity": 0.7874015748031497,
          "duration": 0.13333333333332575
        },
        {
          "name": "F3",
          "midi": 53,
          "time": 256.2666666666624,
          "velocity": 0.7874015748031497,
          "duration": 0.13333333333332575
        },
        {
          "name": "F3",
          "midi": 53,
          "time": 256.3999999999957,
          "velocity": 0.7874015748031497,
          "duration": 0.39999999999997726
        },
        {
          "name": "A3",
          "midi": 57,
          "time": 256.4024999999957,
          "velocity": 0.7874015748031497,
          "duration": 0.39999999999997726
        },
        {
          "name": "D#3",
          "midi": 51,
          "time": 256.7999999999957,
          "velocity": 0.7874015748031497,
          "duration": 0.10000000000002274
        },
        {
          "name": "G3",
          "midi": 55,
          "time": 256.7999999999957,
          "velocity": 0.7874015748031497,
          "duration": 0.3000000000000682
        },
        {
          "name": "D#3",
          "midi": 51,
          "time": 256.8999999999957,
          "velocity": 0.7874015748031497,
          "duration": 0.10000000000002274
        },
        {
          "name": "D#3",
          "midi": 51,
          "time": 256.99999999999574,
          "velocity": 0.7874015748031497,
          "duration": 0.10000000000002274
        },
        {
          "name": "D#3",
          "midi": 51,
          "time": 257.09999999999576,
          "velocity": 0.7874015748031497,
          "duration": 0.10000000000002274
        },
        {
          "name": "D#3",
          "midi": 51,
          "time": 257.1999999999958,
          "velocity": 0.7874015748031497,
          "duration": 0.10000000000002274
        },
        {
          "name": "D#3",
          "midi": 51,
          "time": 257.2999999999958,
          "velocity": 0.7874015748031497,
          "duration": 0.10000000000002274
        },
        {
          "name": "D#3",
          "midi": 51,
          "time": 257.3999999999958,
          "velocity": 0.7874015748031497,
          "duration": 0.10000000000002274
        },
        {
          "name": "A3",
          "midi": 57,
          "time": 257.3999999999958,
          "velocity": 0.7874015748031497,
          "duration": 0.3000000000000682
        },
        {
          "name": "D#3",
          "midi": 51,
          "time": 257.49999999999585,
          "velocity": 0.7874015748031497,
          "duration": 0.10000000000002274
        },
        {
          "name": "D#3",
          "midi": 51,
          "time": 257.5999999999959,
          "velocity": 0.7874015748031497,
          "duration": 0.10000000000002274
        },
        {
          "name": "D#3",
          "midi": 51,
          "time": 257.6999999999959,
          "velocity": 0.7874015748031497,
          "duration": 0.10000000000002274
        },
        {
          "name": "D#3",
          "midi": 51,
          "time": 257.7999999999959,
          "velocity": 0.7874015748031497,
          "duration": 0.10000000000002274
        },
        {
          "name": "D#3",
          "midi": 51,
          "time": 257.89999999999594,
          "velocity": 0.7874015748031497,
          "duration": 0.10000000000002274
        },
        {
          "name": "D#3",
          "midi": 51,
          "time": 257.99999999999596,
          "velocity": 0.7874015748031497,
          "duration": 0.10000000000002274
        },
        {
          "name": "A#3",
          "midi": 58,
          "time": 257.99999999999596,
          "velocity": 0.7874015748031497,
          "duration": 0.3000000000000682
        },
        {
          "name": "D#3",
          "midi": 51,
          "time": 258.099999999996,
          "velocity": 0.7874015748031497,
          "duration": 0.10000000000002274
        },
        {
          "name": "D#3",
          "midi": 51,
          "time": 258.199999999996,
          "velocity": 0.7874015748031497,
          "duration": 0.10000000000002274
        },
        {
          "name": "D#3",
          "midi": 51,
          "time": 258.29999999999603,
          "velocity": 0.7874015748031497,
          "duration": 0.10000000000002274
        },
        {
          "name": "D#3",
          "midi": 51,
          "time": 258.39999999999606,
          "velocity": 0.7874015748031497,
          "duration": 0.10000000000002274
        },
        {
          "name": "G3",
          "midi": 55,
          "time": 258.39999999999606,
          "velocity": 0.7874015748031497,
          "duration": 0.3000000000000682
        },
        {
          "name": "D#3",
          "midi": 51,
          "time": 258.4999999999961,
          "velocity": 0.7874015748031497,
          "duration": 0.10000000000002274
        },
        {
          "name": "D#3",
          "midi": 51,
          "time": 258.5999999999961,
          "velocity": 0.7874015748031497,
          "duration": 0.10000000000002274
        },
        {
          "name": "D#3",
          "midi": 51,
          "time": 258.6999999999961,
          "velocity": 0.7874015748031497,
          "duration": 0.10000000000002274
        },
        {
          "name": "D#3",
          "midi": 51,
          "time": 258.79999999999615,
          "velocity": 0.7874015748031497,
          "duration": 0.10000000000002274
        },
        {
          "name": "D#3",
          "midi": 51,
          "time": 258.89999999999617,
          "velocity": 0.7874015748031497,
          "duration": 0.10000000000002274
        },
        {
          "name": "D#3",
          "midi": 51,
          "time": 258.9999999999962,
          "velocity": 0.7874015748031497,
          "duration": 0.10000000000002274
        },
        {
          "name": "A3",
          "midi": 57,
          "time": 258.9999999999962,
          "velocity": 0.7874015748031497,
          "duration": 0.3000000000000682
        },
        {
          "name": "D#3",
          "midi": 51,
          "time": 259.0999999999962,
          "velocity": 0.7874015748031497,
          "duration": 0.10000000000002274
        },
        {
          "name": "D#3",
          "midi": 51,
          "time": 259.19999999999624,
          "velocity": 0.7874015748031497,
          "duration": 0.10000000000002274
        },
        {
          "name": "D#3",
          "midi": 51,
          "time": 259.29999999999626,
          "velocity": 0.7874015748031497,
          "duration": 0.10000000000002274
        },
        {
          "name": "D#3",
          "midi": 51,
          "time": 259.3999999999963,
          "velocity": 0.7874015748031497,
          "duration": 0.10000000000002274
        },
        {
          "name": "D#3",
          "midi": 51,
          "time": 259.4999999999963,
          "velocity": 0.7874015748031497,
          "duration": 0.10000000000002274
        },
        {
          "name": "D#3",
          "midi": 51,
          "time": 259.5999999999963,
          "velocity": 0.7874015748031497,
          "duration": 0.10000000000002274
        },
        {
          "name": "A#3",
          "midi": 58,
          "time": 259.5999999999963,
          "velocity": 0.7874015748031497,
          "duration": 0.3000000000000682
        },
        {
          "name": "D#3",
          "midi": 51,
          "time": 259.69999999999635,
          "velocity": 0.7874015748031497,
          "duration": 0.10000000000002274
        },
        {
          "name": "D#3",
          "midi": 51,
          "time": 259.7999999999964,
          "velocity": 0.7874015748031497,
          "duration": 0.10000000000002274
        },
        {
          "name": "D#3",
          "midi": 51,
          "time": 259.8999999999964,
          "velocity": 0.7874015748031497,
          "duration": 0.10000000000002274
        },
        {
          "name": "F3",
          "midi": 53,
          "time": 259.9999999999964,
          "velocity": 0.7874015748031497,
          "duration": 0.10000000000002274
        },
        {
          "name": "A3",
          "midi": 57,
          "time": 259.9999999999964,
          "velocity": 0.7874015748031497,
          "duration": 0.3000000000000682
        },
        {
          "name": "F3",
          "midi": 53,
          "time": 260.09999999999644,
          "velocity": 0.7874015748031497,
          "duration": 0.10000000000002274
        },
        {
          "name": "F3",
          "midi": 53,
          "time": 260.19999999999646,
          "velocity": 0.7874015748031497,
          "duration": 0.10000000000002274
        },
        {
          "name": "F3",
          "midi": 53,
          "time": 260.2999999999965,
          "velocity": 0.7874015748031497,
          "duration": 0.10000000000002274
        },
        {
          "name": "F3",
          "midi": 53,
          "time": 260.3999999999965,
          "velocity": 0.7874015748031497,
          "duration": 0.10000000000002274
        },
        {
          "name": "F3",
          "midi": 53,
          "time": 260.49999999999653,
          "velocity": 0.7874015748031497,
          "duration": 0.10000000000002274
        },
        {
          "name": "F3",
          "midi": 53,
          "time": 260.59999999999656,
          "velocity": 0.7874015748031497,
          "duration": 0.10000000000002274
        },
        {
          "name": "A#3",
          "midi": 58,
          "time": 260.59999999999656,
          "velocity": 0.7874015748031497,
          "duration": 0.3000000000000682
        },
        {
          "name": "F3",
          "midi": 53,
          "time": 260.6999999999966,
          "velocity": 0.7874015748031497,
          "duration": 0.10000000000002274
        },
        {
          "name": "F3",
          "midi": 53,
          "time": 260.7999999999966,
          "velocity": 0.7874015748031497,
          "duration": 0.10000000000002274
        },
        {
          "name": "F3",
          "midi": 53,
          "time": 260.8999999999966,
          "velocity": 0.7874015748031497,
          "duration": 0.10000000000002274
        },
        {
          "name": "F3",
          "midi": 53,
          "time": 260.99999999999665,
          "velocity": 0.7874015748031497,
          "duration": 0.10000000000002274
        },
        {
          "name": "F3",
          "midi": 53,
          "time": 261.09999999999667,
          "velocity": 0.7874015748031497,
          "duration": 0.10000000000002274
        },
        {
          "name": "F3",
          "midi": 53,
          "time": 261.1999999999967,
          "velocity": 0.7874015748031497,
          "duration": 0.10000000000002274
        },
        {
          "name": "C4",
          "midi": 60,
          "time": 261.1999999999967,
          "velocity": 0.7874015748031497,
          "duration": 0.3000000000000682
        },
        {
          "name": "F3",
          "midi": 53,
          "time": 261.2999999999967,
          "velocity": 0.7874015748031497,
          "duration": 0.10000000000002274
        },
        {
          "name": "F3",
          "midi": 53,
          "time": 261.39999999999674,
          "velocity": 0.7874015748031497,
          "duration": 0.10000000000002274
        },
        {
          "name": "F3",
          "midi": 53,
          "time": 261.49999999999676,
          "velocity": 0.7874015748031497,
          "duration": 0.10000000000002274
        },
        {
          "name": "F#2",
          "midi": 42,
          "time": 261.5999999999968,
          "velocity": 0.7874015748031497,
          "duration": 0.10000000000002274
        },
        {
          "name": "G2",
          "midi": 43,
          "time": 261.6999999999968,
          "velocity": 0.7874015748031497,
          "duration": 0.10000000000002274
        },
        {
          "name": "A2",
          "midi": 45,
          "time": 261.7999999999968,
          "velocity": 0.7874015748031497,
          "duration": 0.10000000000002274
        },
        {
          "name": "A#2",
          "midi": 46,
          "time": 261.89999999999685,
          "velocity": 0.7874015748031497,
          "duration": 0.10000000000002274
        },
        {
          "name": "C3",
          "midi": 48,
          "time": 261.9999999999969,
          "velocity": 0.7874015748031497,
          "duration": 0.10000000000002274
        },
        {
          "name": "A#2",
          "midi": 46,
          "time": 262.0999999999969,
          "velocity": 0.7874015748031497,
          "duration": 0.10000000000002274
        },
        {
          "name": "A2",
          "midi": 45,
          "time": 262.1999999999969,
          "velocity": 0.7874015748031497,
          "duration": 0.10000000000002274
        },
        {
          "name": "G2",
          "midi": 43,
          "time": 262.29999999999694,
          "velocity": 0.7874015748031497,
          "duration": 0.10000000000002274
        },
        {
          "name": "D3",
          "midi": 50,
          "time": 262.39999999999696,
          "velocity": 0.7874015748031497,
          "duration": 0.19999999999998863
        },
        {
          "name": "D3",
          "midi": 50,
          "time": 262.79999999999694,
          "velocity": 0.7874015748031497,
          "duration": 0.30000000000001137
        },
        {
          "name": "A#2",
          "midi": 46,
          "time": 263.199999999997,
          "velocity": 0.7874015748031497,
          "duration": 1.5749999999999886
        },
        {
          "name": "F3",
          "midi": 53,
          "time": 263.199999999997,
          "velocity": 0.7874015748031497,
          "duration": 1.599999999999966
        },
        {
          "name": "F2",
          "midi": 41,
          "time": 264.79999999999694,
          "velocity": 0.7874015748031497,
          "duration": 1.6000000000000227
        },
        {
          "name": "C3",
          "midi": 48,
          "time": 264.79999999999694,
          "velocity": 0.7874015748031497,
          "duration": 1.6000000000000227
        },
        {
          "name": "G2",
          "midi": 43,
          "time": 266.39999999999696,
          "velocity": 0.7874015748031497,
          "duration": 1.6000000000000227
        },
        {
          "name": "D3",
          "midi": 50,
          "time": 266.39999999999696,
          "velocity": 0.7874015748031497,
          "duration": 1.6000000000000227
        },
        {
          "name": "D3",
          "midi": 50,
          "time": 267.999999999997,
          "velocity": 0.7874015748031497,
          "duration": 0.6000000000000227
        },
        {
          "name": "A3",
          "midi": 57,
          "time": 267.999999999997,
          "velocity": 0.7874015748031497,
          "duration": 0.6000000000000227
        },
        {
          "name": "D3",
          "midi": 50,
          "time": 268.599999999997,
          "velocity": 0.7874015748031497,
          "duration": 0.19999999999998863
        },
        {
          "name": "D3",
          "midi": 50,
          "time": 268.799999999997,
          "velocity": 0.7874015748031497,
          "duration": 0.10000000000002274
        },
        {
          "name": "D3",
          "midi": 50,
          "time": 268.899999999997,
          "velocity": 0.7874015748031497,
          "duration": 0.10000000000002274
        },
        {
          "name": "D3",
          "midi": 50,
          "time": 268.99999999999704,
          "velocity": 0.7874015748031497,
          "duration": 0.10000000000002274
        },
        {
          "name": "D3",
          "midi": 50,
          "time": 269.09999999999707,
          "velocity": 0.7874015748031497,
          "duration": 0.10000000000002274
        },
        {
          "name": "D3",
          "midi": 50,
          "time": 269.1999999999971,
          "velocity": 0.7874015748031497,
          "duration": 0.10000000000002274
        },
        {
          "name": "D3",
          "midi": 50,
          "time": 269.2999999999971,
          "velocity": 0.7874015748031497,
          "duration": 0.10000000000002274
        },
        {
          "name": "D3",
          "midi": 50,
          "time": 269.39999999999714,
          "velocity": 0.7874015748031497,
          "duration": 0.10000000000002274
        },
        {
          "name": "D3",
          "midi": 50,
          "time": 269.49999999999716,
          "velocity": 0.7874015748031497,
          "duration": 0.10000000000002274
        },
        {
          "name": "D#3",
          "midi": 51,
          "time": 269.5999999999972,
          "velocity": 0.7874015748031497,
          "duration": 1.6000000000000227
        },
        {
          "name": "A#3",
          "midi": 58,
          "time": 269.5999999999972,
          "velocity": 0.7874015748031497,
          "duration": 1.6000000000000227
        },
        {
          "name": "A#2",
          "midi": 46,
          "time": 271.1999999999972,
          "velocity": 0.7874015748031497,
          "duration": 1.6000000000000227
        },
        {
          "name": "F3",
          "midi": 53,
          "time": 271.1999999999972,
          "velocity": 0.7874015748031497,
          "duration": 1.6000000000000227
        },
        {
          "name": "F3",
          "midi": 53,
          "time": 272.7999999999972,
          "velocity": 0.7874015748031497,
          "duration": 0.6000000000000227
        },
        {
          "name": "C4",
          "midi": 60,
          "time": 272.7999999999972,
          "velocity": 0.7874015748031497,
          "duration": 0.6000000000000227
        },
        {
          "name": "F3",
          "midi": 53,
          "time": 273.39999999999725,
          "velocity": 0.7874015748031497,
          "duration": 0.6000000000000227
        },
        {
          "name": "C4",
          "midi": 60,
          "time": 273.39999999999725,
          "velocity": 0.7874015748031497,
          "duration": 0.6000000000000227
        },
        {
          "name": "F3",
          "midi": 53,
          "time": 273.99999999999727,
          "velocity": 0.7874015748031497,
          "duration": 0.19999999999998863
        },
        {
          "name": "C4",
          "midi": 60,
          "time": 273.99999999999727,
          "velocity": 0.7874015748031497,
          "duration": 0.19999999999998863
        },
        {
          "name": "F3",
          "midi": 53,
          "time": 274.19999999999726,
          "velocity": 0.7874015748031497,
          "duration": 0.19999999999998863
        },
        {
          "name": "C4",
          "midi": 60,
          "time": 274.19999999999726,
          "velocity": 0.7874015748031497,
          "duration": 0.19999999999998863
        },
        {
          "name": "F3",
          "midi": 53,
          "time": 274.39999999999725,
          "velocity": 0.7874015748031497,
          "duration": 0.5
        },
        {
          "name": "C4",
          "midi": 60,
          "time": 274.39999999999725,
          "velocity": 0.7874015748031497,
          "duration": 0.5
        },
        {
          "name": "F3",
          "midi": 53,
          "time": 274.99999999999727,
          "velocity": 0.7874015748031497,
          "duration": 0.10000000000002274
        },
        {
          "name": "C4",
          "midi": 60,
          "time": 274.99999999999727,
          "velocity": 0.7874015748031497,
          "duration": 0.10000000000002274
        },
        {
          "name": "F3",
          "midi": 53,
          "time": 275.0999999999973,
          "velocity": 0.7874015748031497,
          "duration": 0.10000000000002274
        },
        {
          "name": "C4",
          "midi": 60,
          "time": 275.0999999999973,
          "velocity": 0.7874015748031497,
          "duration": 0.10000000000002274
        },
        {
          "name": "F3",
          "midi": 53,
          "time": 275.1999999999973,
          "velocity": 0.7874015748031497,
          "duration": 0.10000000000002274
        },
        {
          "name": "C4",
          "midi": 60,
          "time": 275.1999999999973,
          "velocity": 0.7874015748031497,
          "duration": 0.10000000000002274
        },
        {
          "name": "F3",
          "midi": 53,
          "time": 275.29999999999734,
          "velocity": 0.7874015748031497,
          "duration": 0.10000000000002274
        },
        {
          "name": "C4",
          "midi": 60,
          "time": 275.29999999999734,
          "velocity": 0.7874015748031497,
          "duration": 0.10000000000002274
        },
        {
          "name": "F3",
          "midi": 53,
          "time": 275.39999999999736,
          "velocity": 0.7874015748031497,
          "duration": 0.10000000000002274
        },
        {
          "name": "C4",
          "midi": 60,
          "time": 275.39999999999736,
          "velocity": 0.7874015748031497,
          "duration": 0.10000000000002274
        },
        {
          "name": "F3",
          "midi": 53,
          "time": 275.4999999999974,
          "velocity": 0.7874015748031497,
          "duration": 0.10000000000002274
        },
        {
          "name": "C4",
          "midi": 60,
          "time": 275.4999999999974,
          "velocity": 0.7874015748031497,
          "duration": 0.10000000000002274
        },
        {
          "name": "F3",
          "midi": 53,
          "time": 275.5999999999974,
          "velocity": 0.7874015748031497,
          "duration": 0.10000000000002274
        },
        {
          "name": "C4",
          "midi": 60,
          "time": 275.5999999999974,
          "velocity": 0.7874015748031497,
          "duration": 0.10000000000002274
        },
        {
          "name": "F3",
          "midi": 53,
          "time": 275.69999999999743,
          "velocity": 0.7874015748031497,
          "duration": 0.10000000000002274
        },
        {
          "name": "C4",
          "midi": 60,
          "time": 275.69999999999743,
          "velocity": 0.7874015748031497,
          "duration": 0.10000000000002274
        },
        {
          "name": "F3",
          "midi": 53,
          "time": 275.79999999999745,
          "velocity": 0.7874015748031497,
          "duration": 0.10000000000002274
        },
        {
          "name": "C4",
          "midi": 60,
          "time": 275.79999999999745,
          "velocity": 0.7874015748031497,
          "duration": 0.10000000000002274
        },
        {
          "name": "F3",
          "midi": 53,
          "time": 275.8999999999975,
          "velocity": 0.7874015748031497,
          "duration": 0.10000000000002274
        },
        {
          "name": "C4",
          "midi": 60,
          "time": 275.8999999999975,
          "velocity": 0.7874015748031497,
          "duration": 0.10000000000002274
        },
        {
          "name": "G2",
          "midi": 43,
          "time": 275.9999999999975,
          "velocity": 0.7874015748031497,
          "duration": 1.6000000000000227
        },
        {
          "name": "D3",
          "midi": 50,
          "time": 275.9999999999975,
          "velocity": 0.7874015748031497,
          "duration": 1.6000000000000227
        },
        {
          "name": "D3",
          "midi": 50,
          "time": 277.5999999999975,
          "velocity": 0.7874015748031497,
          "duration": 1.6000000000000227
        },
        {
          "name": "A3",
          "midi": 57,
          "time": 277.5999999999975,
          "velocity": 0.7874015748031497,
          "duration": 1.6000000000000227
        },
        {
          "name": "D#3",
          "midi": 51,
          "time": 279.19999999999754,
          "velocity": 0.7874015748031497,
          "duration": 1.6000000000000227
        },
        {
          "name": "A#3",
          "midi": 58,
          "time": 279.19999999999754,
          "velocity": 0.7874015748031497,
          "duration": 1.6000000000000227
        },
        {
          "name": "A#2",
          "midi": 46,
          "time": 280.79999999999757,
          "velocity": 0.7874015748031497,
          "duration": 0.6000000000000227
        },
        {
          "name": "F3",
          "midi": 53,
          "time": 280.79999999999757,
          "velocity": 0.7874015748031497,
          "duration": 0.6000000000000227
        },
        {
          "name": "A#2",
          "midi": 46,
          "time": 281.3999999999976,
          "velocity": 0.7874015748031497,
          "duration": 0.19999999999998863
        },
        {
          "name": "A#2",
          "midi": 46,
          "time": 281.5999999999976,
          "velocity": 0.7874015748031497,
          "duration": 0.10000000000002274
        },
        {
          "name": "A#2",
          "midi": 46,
          "time": 281.6999999999976,
          "velocity": 0.7874015748031497,
          "duration": 0.10000000000002274
        },
        {
          "name": "A#2",
          "midi": 46,
          "time": 281.7999999999976,
          "velocity": 0.7874015748031497,
          "duration": 0.10000000000002274
        },
        {
          "name": "A#2",
          "midi": 46,
          "time": 281.89999999999765,
          "velocity": 0.7874015748031497,
          "duration": 0.10000000000002274
        },
        {
          "name": "A#2",
          "midi": 46,
          "time": 281.99999999999767,
          "velocity": 0.7874015748031497,
          "duration": 0.10000000000002274
        },
        {
          "name": "A#2",
          "midi": 46,
          "time": 282.0999999999977,
          "velocity": 0.7874015748031497,
          "duration": 0.10000000000002274
        },
        {
          "name": "A#2",
          "midi": 46,
          "time": 282.1999999999977,
          "velocity": 0.7874015748031497,
          "duration": 0.10000000000002274
        },
        {
          "name": "A#2",
          "midi": 46,
          "time": 282.29999999999774,
          "velocity": 0.7874015748031497,
          "duration": 0.10000000000002274
        },
        {
          "name": "D#3",
          "midi": 51,
          "time": 282.39999999999776,
          "velocity": 0.7874015748031497,
          "duration": 0.6000000000000227
        },
        {
          "name": "A#3",
          "midi": 58,
          "time": 282.39999999999776,
          "velocity": 0.7874015748031497,
          "duration": 0.6000000000000227
        },
        {
          "name": "D#3",
          "midi": 51,
          "time": 282.9999999999978,
          "velocity": 0.7874015748031497,
          "duration": 0.6000000000000227
        },
        {
          "name": "A#3",
          "midi": 58,
          "time": 282.9999999999978,
          "velocity": 0.7874015748031497,
          "duration": 0.6000000000000227
        },
        {
          "name": "D3",
          "midi": 50,
          "time": 283.5999999999978,
          "velocity": 0.7874015748031497,
          "duration": 0.39999999999997726
        },
        {
          "name": "A#3",
          "midi": 58,
          "time": 283.5999999999978,
          "velocity": 0.7874015748031497,
          "duration": 0.39999999999997726
        },
        {
          "name": "A#2",
          "midi": 46,
          "time": 283.9999999999978,
          "velocity": 0.7874015748031497,
          "duration": 0.6000000000000227
        },
        {
          "name": "F3",
          "midi": 53,
          "time": 283.9999999999978,
          "velocity": 0.7874015748031497,
          "duration": 0.6000000000000227
        },
        {
          "name": "A#2",
          "midi": 46,
          "time": 284.5999999999978,
          "velocity": 0.7874015748031497,
          "duration": 0.6000000000000227
        },
        {
          "name": "F3",
          "midi": 53,
          "time": 284.5999999999978,
          "velocity": 0.7874015748031497,
          "duration": 0.6000000000000227
        },
        {
          "name": "A#2",
          "midi": 46,
          "time": 285.19999999999783,
          "velocity": 0.7874015748031497,
          "duration": 0.39999999999997726
        },
        {
          "name": "D#3",
          "midi": 51,
          "time": 285.19999999999783,
          "velocity": 0.7874015748031497,
          "duration": 0.39999999999997726
        },
        {
          "name": "F3",
          "midi": 53,
          "time": 285.5999999999978,
          "velocity": 0.7874015748031497,
          "duration": 0.19999999999998863
        },
        {
          "name": "C4",
          "midi": 60,
          "time": 285.5999999999978,
          "velocity": 0.7874015748031497,
          "duration": 0.6000000000000796
        },
        {
          "name": "F3",
          "midi": 53,
          "time": 285.7999999999978,
          "velocity": 0.7874015748031497,
          "duration": 0.10000000000002274
        },
        {
          "name": "F3",
          "midi": 53,
          "time": 285.8999999999978,
          "velocity": 0.7874015748031497,
          "duration": 0.10000000000002274
        },
        {
          "name": "F3",
          "midi": 53,
          "time": 285.99999999999784,
          "velocity": 0.7874015748031497,
          "duration": 0.10000000000002274
        },
        {
          "name": "F3",
          "midi": 53,
          "time": 286.09999999999786,
          "velocity": 0.7874015748031497,
          "duration": 0.10000000000002274
        },
        {
          "name": "F3",
          "midi": 53,
          "time": 286.1999999999979,
          "velocity": 0.7874015748031497,
          "duration": 0.19999999999998863
        },
        {
          "name": "C4",
          "midi": 60,
          "time": 286.1999999999979,
          "velocity": 0.7874015748031497,
          "duration": 0.6000000000000796
        },
        {
          "name": "F3",
          "midi": 53,
          "time": 286.3999999999979,
          "velocity": 0.7874015748031497,
          "duration": 0.10000000000002274
        },
        {
          "name": "F3",
          "midi": 53,
          "time": 286.4999999999979,
          "velocity": 0.7874015748031497,
          "duration": 0.10000000000002274
        },
        {
          "name": "F3",
          "midi": 53,
          "time": 286.5999999999979,
          "velocity": 0.7874015748031497,
          "duration": 0.10000000000002274
        },
        {
          "name": "F3",
          "midi": 53,
          "time": 286.69999999999794,
          "velocity": 0.7874015748031497,
          "duration": 0.10000000000002274
        },
        {
          "name": "F3",
          "midi": 53,
          "time": 286.79999999999797,
          "velocity": 0.7874015748031497,
          "duration": 0.19999999999998863
        },
        {
          "name": "C4",
          "midi": 60,
          "time": 286.79999999999797,
          "velocity": 0.7874015748031497,
          "duration": 0.19999999999998863
        },
        {
          "name": "F3",
          "midi": 53,
          "time": 286.99999999999795,
          "velocity": 0.7874015748031497,
          "duration": 0.19999999999998863
        },
        {
          "name": "C4",
          "midi": 60,
          "time": 286.99999999999795,
          "velocity": 0.7874015748031497,
          "duration": 0.19999999999998863
        },
        {
          "name": "F3",
          "midi": 53,
          "time": 287.19999999999794,
          "velocity": 0.7874015748031497,
          "duration": 0.19999999999998863
        },
        {
          "name": "C4",
          "midi": 60,
          "time": 287.19999999999794,
          "velocity": 0.7874015748031497,
          "duration": 0.6000000000000796
        },
        {
          "name": "F3",
          "midi": 53,
          "time": 287.39999999999793,
          "velocity": 0.7874015748031497,
          "duration": 0.10000000000002274
        },
        {
          "name": "F3",
          "midi": 53,
          "time": 287.49999999999795,
          "velocity": 0.7874015748031497,
          "duration": 0.10000000000002274
        },
        {
          "name": "F3",
          "midi": 53,
          "time": 287.599999999998,
          "velocity": 0.7874015748031497,
          "duration": 0.10000000000002274
        },
        {
          "name": "F3",
          "midi": 53,
          "time": 287.699999999998,
          "velocity": 0.7874015748031497,
          "duration": 0.10000000000002274
        },
        {
          "name": "F3",
          "midi": 53,
          "time": 287.799999999998,
          "velocity": 0.7874015748031497,
          "duration": 0.19999999999998863
        },
        {
          "name": "C4",
          "midi": 60,
          "time": 287.799999999998,
          "velocity": 0.7874015748031497,
          "duration": 0.6000000000000227
        },
        {
          "name": "F3",
          "midi": 53,
          "time": 287.999999999998,
          "velocity": 0.7874015748031497,
          "duration": 0.10000000000002274
        },
        {
          "name": "F3",
          "midi": 53,
          "time": 288.09999999999803,
          "velocity": 0.7874015748031497,
          "duration": 0.10000000000002274
        },
        {
          "name": "F3",
          "midi": 53,
          "time": 288.19999999999806,
          "velocity": 0.7874015748031497,
          "duration": 0.19999999999998863
        },
        {
          "name": "F3",
          "midi": 53,
          "time": 288.39999999999804,
          "velocity": 0.7874015748031497,
          "duration": 0.19999999999998863
        },
        {
          "name": "C4",
          "midi": 60,
          "time": 288.39999999999804,
          "velocity": 0.7874015748031497,
          "duration": 0.4000000000000341
        },
        {
          "name": "F3",
          "midi": 53,
          "time": 288.59999999999803,
          "velocity": 0.7874015748031497,
          "duration": 0.10000000000002274
        },
        {
          "name": "F3",
          "midi": 53,
          "time": 288.69999999999806,
          "velocity": 0.7874015748031497,
          "duration": 0.10000000000002274
        },
        {
          "name": "F2",
          "midi": 41,
          "time": 288.7999999999981,
          "velocity": 0.7874015748031497,
          "duration": 0.10000000000002274
        },
        {
          "name": "C3",
          "midi": 48,
          "time": 288.7999999999981,
          "velocity": 0.7874015748031497,
          "duration": 0.20000000000004547
        },
        {
          "name": "F2",
          "midi": 41,
          "time": 288.8999999999981,
          "velocity": 0.7874015748031497,
          "duration": 0.10000000000002274
        },
        {
          "name": "F2",
          "midi": 41,
          "time": 288.9999999999981,
          "velocity": 0.7874015748031497,
          "duration": 0.10000000000002274
        },
        {
          "name": "F2",
          "midi": 41,
          "time": 289.09999999999815,
          "velocity": 0.7874015748031497,
          "duration": 0.10000000000002274
        },
        {
          "name": "F2",
          "midi": 41,
          "time": 289.19999999999817,
          "velocity": 0.7874015748031497,
          "duration": 0.10000000000002274
        },
        {
          "name": "F2",
          "midi": 41,
          "time": 289.2999999999982,
          "velocity": 0.7874015748031497,
          "duration": 0.10000000000002274
        },
        {
          "name": "F2",
          "midi": 41,
          "time": 289.3999999999982,
          "velocity": 0.7874015748031497,
          "duration": 0.10000000000002274
        },
        {
          "name": "F2",
          "midi": 41,
          "time": 289.49999999999824,
          "velocity": 0.7874015748031497,
          "duration": 0.10000000000002274
        },
        {
          "name": "F2",
          "midi": 41,
          "time": 289.59999999999826,
          "velocity": 0.7874015748031497,
          "duration": 0.10000000000002274
        },
        {
          "name": "F2",
          "midi": 41,
          "time": 289.6999999999983,
          "velocity": 0.7874015748031497,
          "duration": 0.10000000000002274
        },
        {
          "name": "F2",
          "midi": 41,
          "time": 289.7999999999983,
          "velocity": 0.7874015748031497,
          "duration": 0.10000000000002274
        },
        {
          "name": "F2",
          "midi": 41,
          "time": 289.89999999999833,
          "velocity": 0.7874015748031497,
          "duration": 0.10000000000002274
        },
        {
          "name": "F2",
          "midi": 41,
          "time": 289.99999999999835,
          "velocity": 0.7874015748031497,
          "duration": 0.10000000000002274
        },
        {
          "name": "F2",
          "midi": 41,
          "time": 290.0999999999984,
          "velocity": 0.7874015748031497,
          "duration": 0.10000000000002274
        },
        {
          "name": "F2",
          "midi": 41,
          "time": 290.1999999999984,
          "velocity": 0.7874015748031497,
          "duration": 0.10000000000002274
        },
        {
          "name": "F2",
          "midi": 41,
          "time": 290.2999999999984,
          "velocity": 0.7874015748031497,
          "duration": 0.10000000000002274
        },
        {
          "name": "G3",
          "midi": 55,
          "time": 290.39999999999844,
          "velocity": 0.7874015748031497,
          "duration": 0.20000000000004547
        },
        {
          "name": "C3",
          "midi": 48,
          "time": 290.4033333333318,
          "velocity": 0.7874015748031497,
          "duration": 0.09666666666669244
        },
        {
          "name": "C3",
          "midi": 48,
          "time": 290.49999999999847,
          "velocity": 0.7874015748031497,
          "duration": 0.10000000000002274
        },
        {
          "name": "C3",
          "midi": 48,
          "time": 290.5999999999985,
          "velocity": 0.7874015748031497,
          "duration": 0.10000000000002274
        },
        {
          "name": "C3",
          "midi": 48,
          "time": 290.6999999999985,
          "velocity": 0.7874015748031497,
          "duration": 0.10000000000002274
        },
        {
          "name": "C3",
          "midi": 48,
          "time": 290.79999999999853,
          "velocity": 0.7874015748031497,
          "duration": 0.10000000000002274
        },
        {
          "name": "C3",
          "midi": 48,
          "time": 290.89999999999856,
          "velocity": 0.7874015748031497,
          "duration": 0.10000000000002274
        },
        {
          "name": "C3",
          "midi": 48,
          "time": 290.9999999999986,
          "velocity": 0.7874015748031497,
          "duration": 0.10000000000002274
        },
        {
          "name": "C3",
          "midi": 48,
          "time": 291.0999999999986,
          "velocity": 0.7874015748031497,
          "duration": 0.10000000000002274
        },
        {
          "name": "C3",
          "midi": 48,
          "time": 291.1999999999986,
          "velocity": 0.7874015748031497,
          "duration": 0.10000000000002274
        },
        {
          "name": "C3",
          "midi": 48,
          "time": 291.29999999999865,
          "velocity": 0.7874015748031497,
          "duration": 0.10000000000002274
        },
        {
          "name": "C3",
          "midi": 48,
          "time": 291.39999999999867,
          "velocity": 0.7874015748031497,
          "duration": 0.10000000000002274
        },
        {
          "name": "C3",
          "midi": 48,
          "time": 291.4999999999987,
          "velocity": 0.7874015748031497,
          "duration": 0.10000000000002274
        },
        {
          "name": "C3",
          "midi": 48,
          "time": 291.5999999999987,
          "velocity": 0.7874015748031497,
          "duration": 0.10000000000002274
        },
        {
          "name": "C3",
          "midi": 48,
          "time": 291.69999999999874,
          "velocity": 0.7874015748031497,
          "duration": 0.10000000000002274
        },
        {
          "name": "C3",
          "midi": 48,
          "time": 291.79999999999876,
          "velocity": 0.7874015748031497,
          "duration": 0.10000000000002274
        },
        {
          "name": "C3",
          "midi": 48,
          "time": 291.8999999999988,
          "velocity": 0.7874015748031497,
          "duration": 0.10333333333335304
        },
        {
          "name": "C#3",
          "midi": 49,
          "time": 291.9999999999988,
          "velocity": 0.7874015748031497,
          "duration": 0.10000000000002274
        },
        {
          "name": "G#3",
          "midi": 56,
          "time": 291.9999999999988,
          "velocity": 0.7874015748031497,
          "duration": 0.20000000000004547
        },
        {
          "name": "C#3",
          "midi": 49,
          "time": 292.09999999999883,
          "velocity": 0.7874015748031497,
          "duration": 0.10000000000002274
        },
        {
          "name": "C#3",
          "midi": 49,
          "time": 292.19999999999885,
          "velocity": 0.7874015748031497,
          "duration": 0.10000000000002274
        },
        {
          "name": "C#3",
          "midi": 49,
          "time": 292.2999999999989,
          "velocity": 0.7874015748031497,
          "duration": 0.10000000000002274
        },
        {
          "name": "C#3",
          "midi": 49,
          "time": 292.3999999999989,
          "velocity": 0.7874015748031497,
          "duration": 0.10000000000002274
        },
        {
          "name": "C#3",
          "midi": 49,
          "time": 292.4999999999989,
          "velocity": 0.7874015748031497,
          "duration": 0.10000000000002274
        },
        {
          "name": "C#3",
          "midi": 49,
          "time": 292.59999999999894,
          "velocity": 0.7874015748031497,
          "duration": 0.10000000000002274
        },
        {
          "name": "C#3",
          "midi": 49,
          "time": 292.69999999999897,
          "velocity": 0.7874015748031497,
          "duration": 0.10000000000002274
        },
        {
          "name": "C#3",
          "midi": 49,
          "time": 292.799999999999,
          "velocity": 0.7874015748031497,
          "duration": 0.10000000000002274
        },
        {
          "name": "C#3",
          "midi": 49,
          "time": 292.899999999999,
          "velocity": 0.7874015748031497,
          "duration": 0.10000000000002274
        },
        {
          "name": "C#3",
          "midi": 49,
          "time": 292.99999999999903,
          "velocity": 0.7874015748031497,
          "duration": 0.10000000000002274
        },
        {
          "name": "C#3",
          "midi": 49,
          "time": 293.09999999999906,
          "velocity": 0.7874015748031497,
          "duration": 0.10000000000002274
        },
        {
          "name": "C#3",
          "midi": 49,
          "time": 293.1999999999991,
          "velocity": 0.7874015748031497,
          "duration": 0.10000000000002274
        },
        {
          "name": "C#3",
          "midi": 49,
          "time": 293.2999999999991,
          "velocity": 0.7874015748031497,
          "duration": 0.10000000000002274
        },
        {
          "name": "C#3",
          "midi": 49,
          "time": 293.3999999999991,
          "velocity": 0.7874015748031497,
          "duration": 0.10000000000002274
        },
        {
          "name": "C#3",
          "midi": 49,
          "time": 293.49999999999915,
          "velocity": 0.7874015748031497,
          "duration": 0.10000000000002274
        },
        {
          "name": "G#2",
          "midi": 44,
          "time": 293.59999999999917,
          "velocity": 0.7874015748031497,
          "duration": 0.10000000000002274
        },
        {
          "name": "D#3",
          "midi": 51,
          "time": 293.59999999999917,
          "velocity": 0.7874015748031497,
          "duration": 0.20000000000004547
        },
        {
          "name": "G#2",
          "midi": 44,
          "time": 293.6999999999992,
          "velocity": 0.7874015748031497,
          "duration": 0.10000000000002274
        },
        {
          "name": "G#2",
          "midi": 44,
          "time": 293.7999999999992,
          "velocity": 0.7874015748031497,
          "duration": 0.10000000000002274
        },
        {
          "name": "G#2",
          "midi": 44,
          "time": 293.89999999999924,
          "velocity": 0.7874015748031497,
          "duration": 0.10000000000002274
        },
        {
          "name": "G#2",
          "midi": 44,
          "time": 293.99999999999926,
          "velocity": 0.7874015748031497,
          "duration": 0.10000000000002274
        },
        {
          "name": "G#2",
          "midi": 44,
          "time": 294.0999999999993,
          "velocity": 0.7874015748031497,
          "duration": 0.10000000000002274
        },
        {
          "name": "G#2",
          "midi": 44,
          "time": 294.1999999999993,
          "velocity": 0.7874015748031497,
          "duration": 0.10000000000002274
        },
        {
          "name": "G#2",
          "midi": 44,
          "time": 294.29999999999933,
          "velocity": 0.7874015748031497,
          "duration": 0.10000000000002274
        },
        {
          "name": "G#2",
          "midi": 44,
          "time": 294.39999999999935,
          "velocity": 0.7874015748031497,
          "duration": 0.10000000000002274
        },
        {
          "name": "G#2",
          "midi": 44,
          "time": 294.4999999999994,
          "velocity": 0.7874015748031497,
          "duration": 0.10000000000002274
        },
        {
          "name": "G#2",
          "midi": 44,
          "time": 294.5999999999994,
          "velocity": 0.7874015748031497,
          "duration": 0.10000000000002274
        },
        {
          "name": "G#2",
          "midi": 44,
          "time": 294.6999999999994,
          "velocity": 0.7874015748031497,
          "duration": 0.10000000000002274
        },
        {
          "name": "G#2",
          "midi": 44,
          "time": 294.79999999999944,
          "velocity": 0.7874015748031497,
          "duration": 0.10000000000002274
        },
        {
          "name": "G#2",
          "midi": 44,
          "time": 294.89999999999947,
          "velocity": 0.7874015748031497,
          "duration": 0.10000000000002274
        },
        {
          "name": "G#2",
          "midi": 44,
          "time": 294.9999999999995,
          "velocity": 0.7874015748031497,
          "duration": 0.10000000000002274
        },
        {
          "name": "G#2",
          "midi": 44,
          "time": 295.0999999999995,
          "velocity": 0.7874015748031497,
          "duration": 0.10000000000002274
        },
        {
          "name": "C#3",
          "midi": 49,
          "time": 295.19999999999953,
          "velocity": 0.7874015748031497,
          "duration": 0.10000000000002274
        },
        {
          "name": "G#3",
          "midi": 56,
          "time": 295.19999999999953,
          "velocity": 0.7874015748031497,
          "duration": 0.20000000000004547
        },
        {
          "name": "C#3",
          "midi": 49,
          "time": 295.29999999999956,
          "velocity": 0.7874015748031497,
          "duration": 0.10000000000002274
        },
        {
          "name": "C#3",
          "midi": 49,
          "time": 295.3999999999996,
          "velocity": 0.7874015748031497,
          "duration": 0.10000000000002274
        },
        {
          "name": "C#3",
          "midi": 49,
          "time": 295.4999999999996,
          "velocity": 0.7874015748031497,
          "duration": 0.10000000000002274
        },
        {
          "name": "C#3",
          "midi": 49,
          "time": 295.5999999999996,
          "velocity": 0.7874015748031497,
          "duration": 0.10000000000002274
        },
        {
          "name": "C#3",
          "midi": 49,
          "time": 295.69999999999965,
          "velocity": 0.7874015748031497,
          "duration": 0.10000000000002274
        },
        {
          "name": "C#3",
          "midi": 49,
          "time": 295.79999999999967,
          "velocity": 0.7874015748031497,
          "duration": 0.10000000000002274
        },
        {
          "name": "C#3",
          "midi": 49,
          "time": 295.8999999999997,
          "velocity": 0.7874015748031497,
          "duration": 0.10000000000002274
        },
        {
          "name": "C#3",
          "midi": 49,
          "time": 295.9999999999997,
          "velocity": 0.7874015748031497,
          "duration": 0.10000000000002274
        },
        {
          "name": "C#3",
          "midi": 49,
          "time": 296.09999999999974,
          "velocity": 0.7874015748031497,
          "duration": 0.10000000000002274
        },
        {
          "name": "C#3",
          "midi": 49,
          "time": 296.19999999999976,
          "velocity": 0.7874015748031497,
          "duration": 0.10000000000002274
        },
        {
          "name": "C#3",
          "midi": 49,
          "time": 296.2999999999998,
          "velocity": 0.7874015748031497,
          "duration": 0.10000000000002274
        },
        {
          "name": "C#3",
          "midi": 49,
          "time": 296.3999999999998,
          "velocity": 0.7874015748031497,
          "duration": 0.10000000000002274
        },
        {
          "name": "C#3",
          "midi": 49,
          "time": 296.49999999999983,
          "velocity": 0.7874015748031497,
          "duration": 0.10000000000002274
        },
        {
          "name": "C#3",
          "midi": 49,
          "time": 296.59999999999985,
          "velocity": 0.7874015748031497,
          "duration": 0.10000000000002274
        },
        {
          "name": "C#3",
          "midi": 49,
          "time": 296.6999999999999,
          "velocity": 0.7874015748031497,
          "duration": 0.10000000000002274
        },
        {
          "name": "G#2",
          "midi": 44,
          "time": 296.7999999999999,
          "velocity": 0.7874015748031497,
          "duration": 0.10000000000002274
        },
        {
          "name": "D#3",
          "midi": 51,
          "time": 296.7999999999999,
          "velocity": 0.7874015748031497,
          "duration": 0.20000000000004547
        },
        {
          "name": "G#2",
          "midi": 44,
          "time": 296.8999999999999,
          "velocity": 0.7874015748031497,
          "duration": 0.10000000000002274
        },
        {
          "name": "G#2",
          "midi": 44,
          "time": 296.99999999999994,
          "velocity": 0.7874015748031497,
          "duration": 0.10000000000002274
        },
        {
          "name": "G#2",
          "midi": 44,
          "time": 297.09999999999997,
          "velocity": 0.7874015748031497,
          "duration": 0.10000000000002274
        },
        {
          "name": "G#2",
          "midi": 44,
          "time": 297.2,
          "velocity": 0.7874015748031497,
          "duration": 0.10000000000002274
        },
        {
          "name": "G#2",
          "midi": 44,
          "time": 297.3,
          "velocity": 0.7874015748031497,
          "duration": 0.10000000000002274
        },
        {
          "name": "G#2",
          "midi": 44,
          "time": 297.40000000000003,
          "velocity": 0.7874015748031497,
          "duration": 0.10000000000002274
        },
        {
          "name": "G#2",
          "midi": 44,
          "time": 297.50000000000006,
          "velocity": 0.7874015748031497,
          "duration": 0.10000000000002274
        },
        {
          "name": "G#2",
          "midi": 44,
          "time": 297.6000000000001,
          "velocity": 0.7874015748031497,
          "duration": 0.10000000000002274
        },
        {
          "name": "G#2",
          "midi": 44,
          "time": 297.7000000000001,
          "velocity": 0.7874015748031497,
          "duration": 0.10000000000002274
        },
        {
          "name": "G#2",
          "midi": 44,
          "time": 297.8000000000001,
          "velocity": 0.7874015748031497,
          "duration": 0.10000000000002274
        },
        {
          "name": "G#2",
          "midi": 44,
          "time": 297.90000000000015,
          "velocity": 0.7874015748031497,
          "duration": 0.10000000000002274
        },
        {
          "name": "G#2",
          "midi": 44,
          "time": 298.00000000000017,
          "velocity": 0.7874015748031497,
          "duration": 0.10000000000002274
        },
        {
          "name": "G#2",
          "midi": 44,
          "time": 298.1000000000002,
          "velocity": 0.7874015748031497,
          "duration": 0.10000000000002274
        },
        {
          "name": "G#2",
          "midi": 44,
          "time": 298.2000000000002,
          "velocity": 0.7874015748031497,
          "duration": 0.10000000000002274
        },
        {
          "name": "G#2",
          "midi": 44,
          "time": 298.30000000000024,
          "velocity": 0.7874015748031497,
          "duration": 0.10000000000002274
        },
        {
          "name": "D#3",
          "midi": 51,
          "time": 298.40000000000026,
          "velocity": 0.7874015748031497,
          "duration": 0.19999999999998863
        },
        {
          "name": "A#3",
          "midi": 58,
          "time": 298.40000000000026,
          "velocity": 0.7874015748031497,
          "duration": 0.6000000000000796
        },
        {
          "name": "D#3",
          "midi": 51,
          "time": 298.60000000000025,
          "velocity": 0.7874015748031497,
          "duration": 0.10000000000002274
        },
        {
          "name": "D#3",
          "midi": 51,
          "time": 298.7000000000003,
          "velocity": 0.7874015748031497,
          "duration": 0.10000000000002274
        },
        {
          "name": "D#3",
          "midi": 51,
          "time": 298.8000000000003,
          "velocity": 0.7874015748031497,
          "duration": 0.10000000000002274
        },
        {
          "name": "D#3",
          "midi": 51,
          "time": 298.9000000000003,
          "velocity": 0.7874015748031497,
          "duration": 0.10000000000002274
        },
        {
          "name": "D#3",
          "midi": 51,
          "time": 299.00000000000034,
          "velocity": 0.7874015748031497,
          "duration": 0.19999999999998863
        },
        {
          "name": "A#3",
          "midi": 58,
          "time": 299.00000000000034,
          "velocity": 0.7874015748031497,
          "duration": 0.6000000000000796
        },
        {
          "name": "D#3",
          "midi": 51,
          "time": 299.20000000000033,
          "velocity": 0.7874015748031497,
          "duration": 0.10000000000002274
        },
        {
          "name": "D#3",
          "midi": 51,
          "time": 299.30000000000035,
          "velocity": 0.7874015748031497,
          "duration": 0.10000000000002274
        },
        {
          "name": "D#3",
          "midi": 51,
          "time": 299.4000000000004,
          "velocity": 0.7874015748031497,
          "duration": 0.10000000000002274
        },
        {
          "name": "D#3",
          "midi": 51,
          "time": 299.5000000000004,
          "velocity": 0.7874015748031497,
          "duration": 0.10000000000002274
        },
        {
          "name": "D#3",
          "midi": 51,
          "time": 299.6000000000004,
          "velocity": 0.7874015748031497,
          "duration": 0.19999999999998863
        },
        {
          "name": "A#3",
          "midi": 58,
          "time": 299.6000000000004,
          "velocity": 0.7874015748031497,
          "duration": 0.19999999999998863
        },
        {
          "name": "D#3",
          "midi": 51,
          "time": 299.8000000000004,
          "velocity": 0.7874015748031497,
          "duration": 0.19999999999998863
        },
        {
          "name": "A#3",
          "midi": 58,
          "time": 299.8000000000004,
          "velocity": 0.7874015748031497,
          "duration": 0.19999999999998863
        },
        {
          "name": "D#3",
          "midi": 51,
          "time": 300.0000000000004,
          "velocity": 0.7874015748031497,
          "duration": 0.19999999999998863
        },
        {
          "name": "A#3",
          "midi": 58,
          "time": 300.0000000000004,
          "velocity": 0.7874015748031497,
          "duration": 0.6000000000000796
        },
        {
          "name": "D#3",
          "midi": 51,
          "time": 300.2000000000004,
          "velocity": 0.7874015748031497,
          "duration": 0.10000000000002274
        },
        {
          "name": "D#3",
          "midi": 51,
          "time": 300.3000000000004,
          "velocity": 0.7874015748031497,
          "duration": 0.10000000000002274
        },
        {
          "name": "D#3",
          "midi": 51,
          "time": 300.40000000000043,
          "velocity": 0.7874015748031497,
          "duration": 0.10000000000002274
        },
        {
          "name": "D#3",
          "midi": 51,
          "time": 300.50000000000045,
          "velocity": 0.7874015748031497,
          "duration": 0.10000000000002274
        },
        {
          "name": "D#3",
          "midi": 51,
          "time": 300.6000000000005,
          "velocity": 0.7874015748031497,
          "duration": 0.19999999999998863
        },
        {
          "name": "A#3",
          "midi": 58,
          "time": 300.6000000000005,
          "velocity": 0.7874015748031497,
          "duration": 0.6000000000000796
        },
        {
          "name": "D#3",
          "midi": 51,
          "time": 300.80000000000047,
          "velocity": 0.7874015748031497,
          "duration": 0.10000000000002274
        },
        {
          "name": "D#3",
          "midi": 51,
          "time": 300.9000000000005,
          "velocity": 0.7874015748031497,
          "duration": 0.10000000000002274
        },
        {
          "name": "D#3",
          "midi": 51,
          "time": 301.0000000000005,
          "velocity": 0.7874015748031497,
          "duration": 0.10000000000002274
        },
        {
          "name": "D#3",
          "midi": 51,
          "time": 301.10000000000053,
          "velocity": 0.7874015748031497,
          "duration": 0.10000000000002274
        },
        {
          "name": "D#3",
          "midi": 51,
          "time": 301.20000000000056,
          "velocity": 0.7874015748031497,
          "duration": 0.39999999999997726
        },
        {
          "name": "A#3",
          "midi": 58,
          "time": 301.20000000000056,
          "velocity": 0.7874015748031497,
          "duration": 0.39999999999997726
        },
        {
          "name": "F2",
          "midi": 41,
          "time": 301.60000000000053,
          "velocity": 0.7874015748031497,
          "duration": 0.10000000000002274
        },
        {
          "name": "C3",
          "midi": 48,
          "time": 301.60000000000053,
          "velocity": 0.7874015748031497,
          "duration": 0.20000000000004547
        },
        {
          "name": "F2",
          "midi": 41,
          "time": 301.70000000000056,
          "velocity": 0.7874015748031497,
          "duration": 0.10000000000002274
        },
        {
          "name": "F2",
          "midi": 41,
          "time": 301.8000000000006,
          "velocity": 0.7874015748031497,
          "duration": 0.10000000000002274
        },
        {
          "name": "F2",
          "midi": 41,
          "time": 301.9000000000006,
          "velocity": 0.7874015748031497,
          "duration": 0.10000000000002274
        },
        {
          "name": "F2",
          "midi": 41,
          "time": 302.0000000000006,
          "velocity": 0.7874015748031497,
          "duration": 0.10000000000002274
        },
        {
          "name": "F2",
          "midi": 41,
          "time": 302.10000000000065,
          "velocity": 0.7874015748031497,
          "duration": 0.10000000000002274
        },
        {
          "name": "F2",
          "midi": 41,
          "time": 302.20000000000067,
          "velocity": 0.7874015748031497,
          "duration": 0.10000000000002274
        },
        {
          "name": "F2",
          "midi": 41,
          "time": 302.3000000000007,
          "velocity": 0.7874015748031497,
          "duration": 0.10000000000002274
        },
        {
          "name": "F2",
          "midi": 41,
          "time": 302.4000000000007,
          "velocity": 0.7874015748031497,
          "duration": 0.10000000000002274
        },
        {
          "name": "F2",
          "midi": 41,
          "time": 302.50000000000074,
          "velocity": 0.7874015748031497,
          "duration": 0.10000000000002274
        },
        {
          "name": "F2",
          "midi": 41,
          "time": 302.60000000000076,
          "velocity": 0.7874015748031497,
          "duration": 0.10000000000002274
        },
        {
          "name": "F2",
          "midi": 41,
          "time": 302.7000000000008,
          "velocity": 0.7874015748031497,
          "duration": 0.10000000000002274
        },
        {
          "name": "F2",
          "midi": 41,
          "time": 302.8000000000008,
          "velocity": 0.7874015748031497,
          "duration": 0.10000000000002274
        },
        {
          "name": "F2",
          "midi": 41,
          "time": 302.90000000000083,
          "velocity": 0.7874015748031497,
          "duration": 0.10000000000002274
        },
        {
          "name": "F2",
          "midi": 41,
          "time": 303.00000000000085,
          "velocity": 0.7874015748031497,
          "duration": 0.10000000000002274
        },
        {
          "name": "F2",
          "midi": 41,
          "time": 303.1000000000009,
          "velocity": 0.7874015748031497,
          "duration": 0.08666666666664469
        },
        {
          "name": "C3",
          "midi": 48,
          "time": 303.20000000000084,
          "velocity": 0.7874015748031497,
          "duration": 0.10000000000002274
        },
        {
          "name": "G3",
          "midi": 55,
          "time": 303.20000000000084,
          "velocity": 0.7874015748031497,
          "duration": 0.20000000000004547
        },
        {
          "name": "C3",
          "midi": 48,
          "time": 303.30000000000086,
          "velocity": 0.7874015748031497,
          "duration": 0.10000000000002274
        },
        {
          "name": "C3",
          "midi": 48,
          "time": 303.4000000000009,
          "velocity": 0.7874015748031497,
          "duration": 0.10000000000002274
        },
        {
          "name": "C3",
          "midi": 48,
          "time": 303.5000000000009,
          "velocity": 0.7874015748031497,
          "duration": 0.10000000000002274
        },
        {
          "name": "C3",
          "midi": 48,
          "time": 303.60000000000093,
          "velocity": 0.7874015748031497,
          "duration": 0.10000000000002274
        },
        {
          "name": "C3",
          "midi": 48,
          "time": 303.70000000000095,
          "velocity": 0.7874015748031497,
          "duration": 0.10000000000002274
        },
        {
          "name": "C3",
          "midi": 48,
          "time": 303.800000000001,
          "velocity": 0.7874015748031497,
          "duration": 0.10000000000002274
        },
        {
          "name": "C3",
          "midi": 48,
          "time": 303.900000000001,
          "velocity": 0.7874015748031497,
          "duration": 0.10000000000002274
        },
        {
          "name": "C3",
          "midi": 48,
          "time": 304.000000000001,
          "velocity": 0.7874015748031497,
          "duration": 0.10000000000002274
        },
        {
          "name": "C3",
          "midi": 48,
          "time": 304.10000000000105,
          "velocity": 0.7874015748031497,
          "duration": 0.10000000000002274
        },
        {
          "name": "C3",
          "midi": 48,
          "time": 304.20000000000107,
          "velocity": 0.7874015748031497,
          "duration": 0.10000000000002274
        },
        {
          "name": "C3",
          "midi": 48,
          "time": 304.3000000000011,
          "velocity": 0.7874015748031497,
          "duration": 0.10000000000002274
        },
        {
          "name": "C3",
          "midi": 48,
          "time": 304.4000000000011,
          "velocity": 0.7874015748031497,
          "duration": 0.10000000000002274
        },
        {
          "name": "C3",
          "midi": 48,
          "time": 304.50000000000114,
          "velocity": 0.7874015748031497,
          "duration": 0.10000000000002274
        },
        {
          "name": "C3",
          "midi": 48,
          "time": 304.60000000000116,
          "velocity": 0.7874015748031497,
          "duration": 0.10000000000002274
        },
        {
          "name": "C3",
          "midi": 48,
          "time": 304.7000000000012,
          "velocity": 0.7874015748031497,
          "duration": 0.10000000000002274
        },
        {
          "name": "C#3",
          "midi": 49,
          "time": 304.8000000000012,
          "velocity": 0.7874015748031497,
          "duration": 0.10000000000002274
        },
        {
          "name": "G#3",
          "midi": 56,
          "time": 304.8000000000012,
          "velocity": 0.7874015748031497,
          "duration": 0.20000000000004547
        },
        {
          "name": "C#3",
          "midi": 49,
          "time": 304.9000000000012,
          "velocity": 0.7874015748031497,
          "duration": 0.10000000000002274
        },
        {
          "name": "C#3",
          "midi": 49,
          "time": 305.00000000000125,
          "velocity": 0.7874015748031497,
          "duration": 0.10000000000002274
        },
        {
          "name": "C#3",
          "midi": 49,
          "time": 305.1000000000013,
          "velocity": 0.7874015748031497,
          "duration": 0.10000000000002274
        },
        {
          "name": "C#3",
          "midi": 49,
          "time": 305.2000000000013,
          "velocity": 0.7874015748031497,
          "duration": 0.10000000000002274
        },
        {
          "name": "C#3",
          "midi": 49,
          "time": 305.3000000000013,
          "velocity": 0.7874015748031497,
          "duration": 0.10000000000002274
        },
        {
          "name": "C#3",
          "midi": 49,
          "time": 305.40000000000134,
          "velocity": 0.7874015748031497,
          "duration": 0.10000000000002274
        },
        {
          "name": "C#3",
          "midi": 49,
          "time": 305.50000000000136,
          "velocity": 0.7874015748031497,
          "duration": 0.10000000000002274
        },
        {
          "name": "C#3",
          "midi": 49,
          "time": 305.6000000000014,
          "velocity": 0.7874015748031497,
          "duration": 0.10000000000002274
        },
        {
          "name": "C#3",
          "midi": 49,
          "time": 305.7000000000014,
          "velocity": 0.7874015748031497,
          "duration": 0.10000000000002274
        },
        {
          "name": "C#3",
          "midi": 49,
          "time": 305.80000000000143,
          "velocity": 0.7874015748031497,
          "duration": 0.10000000000002274
        },
        {
          "name": "C#3",
          "midi": 49,
          "time": 305.90000000000146,
          "velocity": 0.7874015748031497,
          "duration": 0.10000000000002274
        },
        {
          "name": "C#3",
          "midi": 49,
          "time": 306.0000000000015,
          "velocity": 0.7874015748031497,
          "duration": 0.10000000000002274
        },
        {
          "name": "C#3",
          "midi": 49,
          "time": 306.1000000000015,
          "velocity": 0.7874015748031497,
          "duration": 0.10000000000002274
        },
        {
          "name": "C#3",
          "midi": 49,
          "time": 306.2000000000015,
          "velocity": 0.7874015748031497,
          "duration": 0.10000000000002274
        },
        {
          "name": "C#3",
          "midi": 49,
          "time": 306.30000000000155,
          "velocity": 0.7874015748031497,
          "duration": 0.10000000000002274
        },
        {
          "name": "G#2",
          "midi": 44,
          "time": 306.40000000000157,
          "velocity": 0.7874015748031497,
          "duration": 0.10000000000002274
        },
        {
          "name": "D#3",
          "midi": 51,
          "time": 306.40000000000157,
          "velocity": 0.7874015748031497,
          "duration": 0.20000000000004547
        },
        {
          "name": "G#2",
          "midi": 44,
          "time": 306.5000000000016,
          "velocity": 0.7874015748031497,
          "duration": 0.10000000000002274
        },
        {
          "name": "G#2",
          "midi": 44,
          "time": 306.6000000000016,
          "velocity": 0.7874015748031497,
          "duration": 0.10000000000002274
        },
        {
          "name": "G#2",
          "midi": 44,
          "time": 306.70000000000164,
          "velocity": 0.7874015748031497,
          "duration": 0.10000000000002274
        },
        {
          "name": "G#2",
          "midi": 44,
          "time": 306.80000000000166,
          "velocity": 0.7874015748031497,
          "duration": 0.10000000000002274
        },
        {
          "name": "G#2",
          "midi": 44,
          "time": 306.9000000000017,
          "velocity": 0.7874015748031497,
          "duration": 0.10000000000002274
        },
        {
          "name": "G#2",
          "midi": 44,
          "time": 307.0000000000017,
          "velocity": 0.7874015748031497,
          "duration": 0.10000000000002274
        },
        {
          "name": "G#2",
          "midi": 44,
          "time": 307.1000000000017,
          "velocity": 0.7874015748031497,
          "duration": 0.10000000000002274
        },
        {
          "name": "G#2",
          "midi": 44,
          "time": 307.20000000000175,
          "velocity": 0.7874015748031497,
          "duration": 0.10000000000002274
        },
        {
          "name": "G#2",
          "midi": 44,
          "time": 307.3000000000018,
          "velocity": 0.7874015748031497,
          "duration": 0.10000000000002274
        },
        {
          "name": "G#2",
          "midi": 44,
          "time": 307.4000000000018,
          "velocity": 0.7874015748031497,
          "duration": 0.10000000000002274
        },
        {
          "name": "G#2",
          "midi": 44,
          "time": 307.5000000000018,
          "velocity": 0.7874015748031497,
          "duration": 0.10000000000002274
        },
        {
          "name": "G#2",
          "midi": 44,
          "time": 307.60000000000184,
          "velocity": 0.7874015748031497,
          "duration": 0.10000000000002274
        },
        {
          "name": "G#2",
          "midi": 44,
          "time": 307.70000000000186,
          "velocity": 0.7874015748031497,
          "duration": 0.10000000000002274
        },
        {
          "name": "G#2",
          "midi": 44,
          "time": 307.8000000000019,
          "velocity": 0.7874015748031497,
          "duration": 0.10000000000002274
        },
        {
          "name": "G#2",
          "midi": 44,
          "time": 307.9000000000019,
          "velocity": 0.7874015748031497,
          "duration": 0.10000000000002274
        },
        {
          "name": "C#3",
          "midi": 49,
          "time": 308.00000000000193,
          "velocity": 0.7874015748031497,
          "duration": 0.10000000000002274
        },
        {
          "name": "G#3",
          "midi": 56,
          "time": 308.00000000000193,
          "velocity": 0.7874015748031497,
          "duration": 0.20000000000004547
        },
        {
          "name": "C#3",
          "midi": 49,
          "time": 308.10000000000196,
          "velocity": 0.7874015748031497,
          "duration": 0.10000000000002274
        },
        {
          "name": "C#3",
          "midi": 49,
          "time": 308.200000000002,
          "velocity": 0.7874015748031497,
          "duration": 0.10000000000002274
        },
        {
          "name": "C#3",
          "midi": 49,
          "time": 308.300000000002,
          "velocity": 0.7874015748031497,
          "duration": 0.10000000000002274
        },
        {
          "name": "C#3",
          "midi": 49,
          "time": 308.400000000002,
          "velocity": 0.7874015748031497,
          "duration": 0.10000000000002274
        },
        {
          "name": "C#3",
          "midi": 49,
          "time": 308.50000000000205,
          "velocity": 0.7874015748031497,
          "duration": 0.10000000000002274
        },
        {
          "name": "C#3",
          "midi": 49,
          "time": 308.60000000000207,
          "velocity": 0.7874015748031497,
          "duration": 0.10000000000002274
        },
        {
          "name": "C#3",
          "midi": 49,
          "time": 308.7000000000021,
          "velocity": 0.7874015748031497,
          "duration": 0.10000000000002274
        },
        {
          "name": "C#3",
          "midi": 49,
          "time": 308.8000000000021,
          "velocity": 0.7874015748031497,
          "duration": 0.10000000000002274
        },
        {
          "name": "C#3",
          "midi": 49,
          "time": 308.90000000000214,
          "velocity": 0.7874015748031497,
          "duration": 0.10000000000002274
        },
        {
          "name": "C#3",
          "midi": 49,
          "time": 309.00000000000216,
          "velocity": 0.7874015748031497,
          "duration": 0.10000000000002274
        },
        {
          "name": "C#3",
          "midi": 49,
          "time": 309.1000000000022,
          "velocity": 0.7874015748031497,
          "duration": 0.10000000000002274
        },
        {
          "name": "C#3",
          "midi": 49,
          "time": 309.2000000000022,
          "velocity": 0.7874015748031497,
          "duration": 0.10000000000002274
        },
        {
          "name": "C#3",
          "midi": 49,
          "time": 309.3000000000022,
          "velocity": 0.7874015748031497,
          "duration": 0.10000000000002274
        },
        {
          "name": "C#3",
          "midi": 49,
          "time": 309.40000000000225,
          "velocity": 0.7874015748031497,
          "duration": 0.10000000000002274
        },
        {
          "name": "C#3",
          "midi": 49,
          "time": 309.5000000000023,
          "velocity": 0.7874015748031497,
          "duration": 0.10000000000002274
        },
        {
          "name": "G#2",
          "midi": 44,
          "time": 309.6000000000023,
          "velocity": 0.7874015748031497,
          "duration": 0.10000000000002274
        },
        {
          "name": "D#3",
          "midi": 51,
          "time": 309.6000000000023,
          "velocity": 0.7874015748031497,
          "duration": 0.20000000000004547
        },
        {
          "name": "G#2",
          "midi": 44,
          "time": 309.7000000000023,
          "velocity": 0.7874015748031497,
          "duration": 0.10000000000002274
        },
        {
          "name": "G#2",
          "midi": 44,
          "time": 309.80000000000234,
          "velocity": 0.7874015748031497,
          "duration": 0.10000000000002274
        },
        {
          "name": "G#2",
          "midi": 44,
          "time": 309.90000000000236,
          "velocity": 0.7874015748031497,
          "duration": 0.10000000000002274
        },
        {
          "name": "G#2",
          "midi": 44,
          "time": 310.0000000000024,
          "velocity": 0.7874015748031497,
          "duration": 0.10000000000002274
        },
        {
          "name": "G#2",
          "midi": 44,
          "time": 310.1000000000024,
          "velocity": 0.7874015748031497,
          "duration": 0.10000000000002274
        },
        {
          "name": "G#2",
          "midi": 44,
          "time": 310.20000000000243,
          "velocity": 0.7874015748031497,
          "duration": 0.10000000000002274
        },
        {
          "name": "G#2",
          "midi": 44,
          "time": 310.30000000000246,
          "velocity": 0.7874015748031497,
          "duration": 0.10000000000002274
        },
        {
          "name": "G#2",
          "midi": 44,
          "time": 310.4000000000025,
          "velocity": 0.7874015748031497,
          "duration": 0.10000000000002274
        },
        {
          "name": "G#2",
          "midi": 44,
          "time": 310.5000000000025,
          "velocity": 0.7874015748031497,
          "duration": 0.10000000000002274
        },
        {
          "name": "G#2",
          "midi": 44,
          "time": 310.6000000000025,
          "velocity": 0.7874015748031497,
          "duration": 0.10000000000002274
        },
        {
          "name": "G#2",
          "midi": 44,
          "time": 310.70000000000255,
          "velocity": 0.7874015748031497,
          "duration": 0.10000000000002274
        },
        {
          "name": "G#2",
          "midi": 44,
          "time": 310.80000000000257,
          "velocity": 0.7874015748031497,
          "duration": 0.10000000000002274
        },
        {
          "name": "G#2",
          "midi": 44,
          "time": 310.9000000000026,
          "velocity": 0.7874015748031497,
          "duration": 0.10000000000002274
        },
        {
          "name": "G#2",
          "midi": 44,
          "time": 311.0000000000026,
          "velocity": 0.7874015748031497,
          "duration": 0.10000000000002274
        },
        {
          "name": "G#2",
          "midi": 44,
          "time": 311.10000000000264,
          "velocity": 0.7874015748031497,
          "duration": 0.10000000000002274
        },
        {
          "name": "D#3",
          "midi": 51,
          "time": 311.20000000000266,
          "velocity": 0.7874015748031497,
          "duration": 0.19999999999998863
        },
        {
          "name": "A#3",
          "midi": 58,
          "time": 311.20000000000266,
          "velocity": 0.7874015748031497,
          "duration": 0.6000000000000796
        },
        {
          "name": "D#3",
          "midi": 51,
          "time": 311.40000000000265,
          "velocity": 0.7874015748031497,
          "duration": 0.10000000000002274
        },
        {
          "name": "D#3",
          "midi": 51,
          "time": 311.5000000000027,
          "velocity": 0.7874015748031497,
          "duration": 0.10000000000002274
        },
        {
          "name": "D#3",
          "midi": 51,
          "time": 311.6000000000027,
          "velocity": 0.7874015748031497,
          "duration": 0.10000000000002274
        },
        {
          "name": "D#3",
          "midi": 51,
          "time": 311.7000000000027,
          "velocity": 0.7874015748031497,
          "duration": 0.10000000000002274
        },
        {
          "name": "D#3",
          "midi": 51,
          "time": 311.80000000000274,
          "velocity": 0.7874015748031497,
          "duration": 0.19999999999998863
        },
        {
          "name": "A#3",
          "midi": 58,
          "time": 311.80000000000274,
          "velocity": 0.7874015748031497,
          "duration": 0.6000000000000796
        },
        {
          "name": "D#3",
          "midi": 51,
          "time": 312.00000000000273,
          "velocity": 0.7874015748031497,
          "duration": 0.10000000000002274
        },
        {
          "name": "D#3",
          "midi": 51,
          "time": 312.10000000000275,
          "velocity": 0.7874015748031497,
          "duration": 0.10000000000002274
        },
        {
          "name": "D#3",
          "midi": 51,
          "time": 312.2000000000028,
          "velocity": 0.7874015748031497,
          "duration": 0.10000000000002274
        },
        {
          "name": "D#3",
          "midi": 51,
          "time": 312.3000000000028,
          "velocity": 0.7874015748031497,
          "duration": 0.10000000000002274
        },
        {
          "name": "D#3",
          "midi": 51,
          "time": 312.4000000000028,
          "velocity": 0.7874015748031497,
          "duration": 0.19999999999998863
        },
        {
          "name": "A#3",
          "midi": 58,
          "time": 312.4000000000028,
          "velocity": 0.7874015748031497,
          "duration": 0.19999999999998863
        },
        {
          "name": "D#3",
          "midi": 51,
          "time": 312.6000000000028,
          "velocity": 0.7874015748031497,
          "duration": 0.19999999999998863
        },
        {
          "name": "A#3",
          "midi": 58,
          "time": 312.6000000000028,
          "velocity": 0.7874015748031497,
          "duration": 0.19999999999998863
        },
        {
          "name": "D#3",
          "midi": 51,
          "time": 312.8000000000028,
          "velocity": 0.7874015748031497,
          "duration": 0.19999999999998863
        },
        {
          "name": "A#3",
          "midi": 58,
          "time": 312.8000000000028,
          "velocity": 0.7874015748031497,
          "duration": 0.6000000000000796
        },
        {
          "name": "D#3",
          "midi": 51,
          "time": 313.0000000000028,
          "velocity": 0.7874015748031497,
          "duration": 0.10000000000002274
        },
        {
          "name": "D#3",
          "midi": 51,
          "time": 313.1000000000028,
          "velocity": 0.7874015748031497,
          "duration": 0.10000000000002274
        },
        {
          "name": "D#3",
          "midi": 51,
          "time": 313.20000000000283,
          "velocity": 0.7874015748031497,
          "duration": 0.10000000000002274
        },
        {
          "name": "D#3",
          "midi": 51,
          "time": 313.30000000000285,
          "velocity": 0.7874015748031497,
          "duration": 0.10000000000002274
        },
        {
          "name": "D#3",
          "midi": 51,
          "time": 313.4000000000029,
          "velocity": 0.7874015748031497,
          "duration": 0.19999999999998863
        },
        {
          "name": "A#3",
          "midi": 58,
          "time": 313.4000000000029,
          "velocity": 0.7874015748031497,
          "duration": 0.6000000000000796
        },
        {
          "name": "D#3",
          "midi": 51,
          "time": 313.60000000000286,
          "velocity": 0.7874015748031497,
          "duration": 0.10000000000002274
        },
        {
          "name": "D#3",
          "midi": 51,
          "time": 313.7000000000029,
          "velocity": 0.7874015748031497,
          "duration": 0.10000000000002274
        },
        {
          "name": "D#3",
          "midi": 51,
          "time": 313.8000000000029,
          "velocity": 0.7874015748031497,
          "duration": 0.10000000000002274
        },
        {
          "name": "D#3",
          "midi": 51,
          "time": 313.90000000000293,
          "velocity": 0.7874015748031497,
          "duration": 0.10000000000002274
        },
        {
          "name": "D#3",
          "midi": 51,
          "time": 314.00000000000296,
          "velocity": 0.7874015748031497,
          "duration": 0.19999999999998863
        },
        {
          "name": "A#3",
          "midi": 58,
          "time": 314.00000000000296,
          "velocity": 0.7874015748031497,
          "duration": 0.19999999999998863
        },
        {
          "name": "D#3",
          "midi": 51,
          "time": 314.20000000000294,
          "velocity": 0.7874015748031497,
          "duration": 0.19999999999998863
        },
        {
          "name": "A#3",
          "midi": 58,
          "time": 314.20000000000294,
          "velocity": 0.7874015748031497,
          "duration": 0.19999999999998863
        },
        {
          "name": "C#3",
          "midi": 49,
          "time": 314.40000000000293,
          "velocity": 0.7874015748031497,
          "duration": 0.19999999999998863
        },
        {
          "name": "G#3",
          "midi": 56,
          "time": 314.40000000000293,
          "velocity": 0.7874015748031497,
          "duration": 0.6000000000000796
        },
        {
          "name": "C#3",
          "midi": 49,
          "time": 314.6000000000029,
          "velocity": 0.7874015748031497,
          "duration": 0.10000000000002274
        },
        {
          "name": "C#3",
          "midi": 49,
          "time": 314.70000000000294,
          "velocity": 0.7874015748031497,
          "duration": 0.10000000000002274
        },
        {
          "name": "C#3",
          "midi": 49,
          "time": 314.80000000000297,
          "velocity": 0.7874015748031497,
          "duration": 0.10000000000002274
        },
        {
          "name": "C#3",
          "midi": 49,
          "time": 314.900000000003,
          "velocity": 0.7874015748031497,
          "duration": 0.10000000000002274
        },
        {
          "name": "C#3",
          "midi": 49,
          "time": 315.000000000003,
          "velocity": 0.7874015748031497,
          "duration": 0.19999999999998863
        },
        {
          "name": "G#3",
          "midi": 56,
          "time": 315.000000000003,
          "velocity": 0.7874015748031497,
          "duration": 0.6000000000000796
        },
        {
          "name": "C#3",
          "midi": 49,
          "time": 315.200000000003,
          "velocity": 0.7874015748031497,
          "duration": 0.10000000000002274
        },
        {
          "name": "C#3",
          "midi": 49,
          "time": 315.300000000003,
          "velocity": 0.7874015748031497,
          "duration": 0.10000000000002274
        },
        {
          "name": "C#3",
          "midi": 49,
          "time": 315.40000000000305,
          "velocity": 0.7874015748031497,
          "duration": 0.10000000000002274
        },
        {
          "name": "C#3",
          "midi": 49,
          "time": 315.50000000000307,
          "velocity": 0.7874015748031497,
          "duration": 0.10000000000002274
        },
        {
          "name": "C#3",
          "midi": 49,
          "time": 315.6000000000031,
          "velocity": 0.7874015748031497,
          "duration": 0.19999999999998863
        },
        {
          "name": "G#3",
          "midi": 56,
          "time": 315.6000000000031,
          "velocity": 0.7874015748031497,
          "duration": 0.19999999999998863
        },
        {
          "name": "C#3",
          "midi": 49,
          "time": 315.8000000000031,
          "velocity": 0.7874015748031497,
          "duration": 0.19999999999998863
        },
        {
          "name": "G#3",
          "midi": 56,
          "time": 315.8000000000031,
          "velocity": 0.7874015748031497,
          "duration": 0.19999999999998863
        },
        {
          "name": "G#2",
          "midi": 44,
          "time": 316.00000000000307,
          "velocity": 0.7874015748031497,
          "duration": 0.19999999999998863
        },
        {
          "name": "D#3",
          "midi": 51,
          "time": 316.00000000000307,
          "velocity": 0.7874015748031497,
          "duration": 0.6000000000000796
        },
        {
          "name": "G#2",
          "midi": 44,
          "time": 316.20000000000306,
          "velocity": 0.7874015748031497,
          "duration": 0.10000000000002274
        },
        {
          "name": "G#2",
          "midi": 44,
          "time": 316.3000000000031,
          "velocity": 0.7874015748031497,
          "duration": 0.10000000000002274
        },
        {
          "name": "G#2",
          "midi": 44,
          "time": 316.4000000000031,
          "velocity": 0.7874015748031497,
          "duration": 0.10000000000002274
        },
        {
          "name": "G#2",
          "midi": 44,
          "time": 316.5000000000031,
          "velocity": 0.7874015748031497,
          "duration": 0.10000000000002274
        },
        {
          "name": "G#2",
          "midi": 44,
          "time": 316.60000000000315,
          "velocity": 0.7874015748031497,
          "duration": 0.19999999999998863
        },
        {
          "name": "D#3",
          "midi": 51,
          "time": 316.60000000000315,
          "velocity": 0.7874015748031497,
          "duration": 0.6000000000000796
        },
        {
          "name": "G#2",
          "midi": 44,
          "time": 316.80000000000314,
          "velocity": 0.7874015748031497,
          "duration": 0.10000000000002274
        },
        {
          "name": "G#2",
          "midi": 44,
          "time": 316.90000000000316,
          "velocity": 0.7874015748031497,
          "duration": 0.10000000000002274
        },
        {
          "name": "G#2",
          "midi": 44,
          "time": 317.0000000000032,
          "velocity": 0.7874015748031497,
          "duration": 0.10000000000002274
        },
        {
          "name": "G#2",
          "midi": 44,
          "time": 317.1000000000032,
          "velocity": 0.7874015748031497,
          "duration": 0.10000000000002274
        },
        {
          "name": "G#2",
          "midi": 44,
          "time": 317.20000000000323,
          "velocity": 0.7874015748031497,
          "duration": 0.19999999999998863
        },
        {
          "name": "D#3",
          "midi": 51,
          "time": 317.20000000000323,
          "velocity": 0.7874015748031497,
          "duration": 0.19999999999998863
        },
        {
          "name": "G#2",
          "midi": 44,
          "time": 317.4000000000032,
          "velocity": 0.7874015748031497,
          "duration": 0.19999999999998863
        },
        {
          "name": "D#3",
          "midi": 51,
          "time": 317.4000000000032,
          "velocity": 0.7874015748031497,
          "duration": 0.19999999999998863
        },
        {
          "name": "D#3",
          "midi": 51,
          "time": 317.6000000000032,
          "velocity": 0.7874015748031497,
          "duration": 0.19999999999998863
        },
        {
          "name": "A#3",
          "midi": 58,
          "time": 317.6000000000032,
          "velocity": 0.7874015748031497,
          "duration": 0.6000000000000796
        },
        {
          "name": "D#3",
          "midi": 51,
          "time": 317.8000000000032,
          "velocity": 0.7874015748031497,
          "duration": 0.10000000000002274
        },
        {
          "name": "D#3",
          "midi": 51,
          "time": 317.9000000000032,
          "velocity": 0.7874015748031497,
          "duration": 0.10000000000002274
        },
        {
          "name": "D#3",
          "midi": 51,
          "time": 318.00000000000324,
          "velocity": 0.7874015748031497,
          "duration": 0.10000000000002274
        },
        {
          "name": "D#3",
          "midi": 51,
          "time": 318.10000000000326,
          "velocity": 0.7874015748031497,
          "duration": 0.10000000000002274
        },
        {
          "name": "D#3",
          "midi": 51,
          "time": 318.2000000000033,
          "velocity": 0.7874015748031497,
          "duration": 0.19999999999998863
        },
        {
          "name": "A#3",
          "midi": 58,
          "time": 318.2000000000033,
          "velocity": 0.7874015748031497,
          "duration": 0.6000000000000796
        },
        {
          "name": "D#3",
          "midi": 51,
          "time": 318.4000000000033,
          "velocity": 0.7874015748031497,
          "duration": 0.10000000000002274
        },
        {
          "name": "D#3",
          "midi": 51,
          "time": 318.5000000000033,
          "velocity": 0.7874015748031497,
          "duration": 0.10000000000002274
        },
        {
          "name": "D#3",
          "midi": 51,
          "time": 318.6000000000033,
          "velocity": 0.7874015748031497,
          "duration": 0.10000000000002274
        },
        {
          "name": "D#3",
          "midi": 51,
          "time": 318.70000000000334,
          "velocity": 0.7874015748031497,
          "duration": 0.10000000000002274
        },
        {
          "name": "D#3",
          "midi": 51,
          "time": 318.80000000000337,
          "velocity": 0.7874015748031497,
          "duration": 0.19999999999998863
        },
        {
          "name": "A#3",
          "midi": 58,
          "time": 318.80000000000337,
          "velocity": 0.7874015748031497,
          "duration": 0.19999999999998863
        },
        {
          "name": "D#3",
          "midi": 51,
          "time": 319.00000000000335,
          "velocity": 0.7874015748031497,
          "duration": 0.19999999999998863
        },
        {
          "name": "A#3",
          "midi": 58,
          "time": 319.00000000000335,
          "velocity": 0.7874015748031497,
          "duration": 0.19999999999998863
        },
        {
          "name": "D#3",
          "midi": 51,
          "time": 319.20000000000334,
          "velocity": 0.7874015748031497,
          "duration": 0.19999999999998863
        },
        {
          "name": "A#3",
          "midi": 58,
          "time": 319.20000000000334,
          "velocity": 0.7874015748031497,
          "duration": 0.6000000000000796
        },
        {
          "name": "D#3",
          "midi": 51,
          "time": 319.40000000000333,
          "velocity": 0.7874015748031497,
          "duration": 0.10000000000002274
        },
        {
          "name": "D#3",
          "midi": 51,
          "time": 319.50000000000335,
          "velocity": 0.7874015748031497,
          "duration": 0.10000000000002274
        },
        {
          "name": "D#3",
          "midi": 51,
          "time": 319.6000000000034,
          "velocity": 0.7874015748031497,
          "duration": 0.10000000000002274
        },
        {
          "name": "D#3",
          "midi": 51,
          "time": 319.7000000000034,
          "velocity": 0.7874015748031497,
          "duration": 0.10000000000002274
        },
        {
          "name": "D#3",
          "midi": 51,
          "time": 319.8000000000034,
          "velocity": 0.7874015748031497,
          "duration": 0.19999999999998863
        },
        {
          "name": "A#3",
          "midi": 58,
          "time": 319.8000000000034,
          "velocity": 0.7874015748031497,
          "duration": 0.6000000000000796
        },
        {
          "name": "D#3",
          "midi": 51,
          "time": 320.0000000000034,
          "velocity": 0.7874015748031497,
          "duration": 0.10000000000002274
        },
        {
          "name": "D#3",
          "midi": 51,
          "time": 320.10000000000343,
          "velocity": 0.7874015748031497,
          "duration": 0.10000000000002274
        },
        {
          "name": "D#3",
          "midi": 51,
          "time": 320.20000000000346,
          "velocity": 0.7874015748031497,
          "duration": 0.10000000000002274
        },
        {
          "name": "D#3",
          "midi": 51,
          "time": 320.3000000000035,
          "velocity": 0.7874015748031497,
          "duration": 0.10000000000002274
        },
        {
          "name": "D#3",
          "midi": 51,
          "time": 320.4000000000035,
          "velocity": 0.7874015748031497,
          "duration": 0.39999999999997726
        },
        {
          "name": "A#3",
          "midi": 58,
          "time": 320.4000000000035,
          "velocity": 0.7874015748031497,
          "duration": 0.39999999999997726
        },
        {
          "name": "A#2",
          "midi": 46,
          "time": 320.8000000000035,
          "velocity": 0.7874015748031497,
          "duration": 1.6000000000000227
        },
        {
          "name": "F3",
          "midi": 53,
          "time": 320.8000000000035,
          "velocity": 0.7874015748031497,
          "duration": 1.6000000000000227
        },
        {
          "name": "D#3",
          "midi": 51,
          "time": 322.4000000000035,
          "velocity": 0.7874015748031497,
          "duration": 1.6000000000000227
        },
        {
          "name": "A#3",
          "midi": 58,
          "time": 322.4000000000035,
          "velocity": 0.7874015748031497,
          "duration": 1.6000000000000227
        },
        {
          "name": "C3",
          "midi": 48,
          "time": 324.0000000000035,
          "velocity": 0.7874015748031497,
          "duration": 0.19999999999998863
        },
        {
          "name": "F2",
          "midi": 41,
          "time": 324.2000000000035,
          "velocity": 0.7874015748031497,
          "duration": 0.10000000000002274
        },
        {
          "name": "F2",
          "midi": 41,
          "time": 324.30000000000354,
          "velocity": 0.7874015748031497,
          "duration": 0.09916666666669016
        },
        {
          "name": "F2",
          "midi": 41,
          "time": 324.3991666666702,
          "velocity": 0.7874015748031497,
          "duration": 0.2041666666666515
        },
        {
          "name": "C3",
          "midi": 48,
          "time": 324.60000000000355,
          "velocity": 0.7874015748031497,
          "duration": 0.2008333333333212
        },
        {
          "name": "F2",
          "midi": 41,
          "time": 324.80083333333687,
          "velocity": 0.7874015748031497,
          "duration": 0.10000000000002274
        },
        {
          "name": "F2",
          "midi": 41,
          "time": 324.90000000000356,
          "velocity": 0.7874015748031497,
          "duration": 0.10000000000002274
        },
        {
          "name": "F2",
          "midi": 41,
          "time": 325.0000000000036,
          "velocity": 0.7874015748031497,
          "duration": 0.10000000000002274
        },
        {
          "name": "F2",
          "midi": 41,
          "time": 325.1000000000036,
          "velocity": 0.7874015748031497,
          "duration": 0.10000000000002274
        },
        {
          "name": "C3",
          "midi": 48,
          "time": 325.2000000000036,
          "velocity": 0.7874015748031497,
          "duration": 0.19999999999998863
        },
        {
          "name": "C#3",
          "midi": 49,
          "time": 325.4000000000036,
          "velocity": 0.7874015748031497,
          "duration": 0.19999999999998863
        },
        {
          "name": "C3",
          "midi": 48,
          "time": 325.6000000000036,
          "velocity": 0.7874015748031497,
          "duration": 0.19999999999998863
        },
        {
          "name": "F2",
          "midi": 41,
          "time": 325.8000000000036,
          "velocity": 0.7874015748031497,
          "duration": 0.10000000000002274
        },
        {
          "name": "F2",
          "midi": 41,
          "time": 325.9000000000036,
          "velocity": 0.7874015748031497,
          "duration": 0.10000000000002274
        },
        {
          "name": "F2",
          "midi": 41,
          "time": 326.00000000000364,
          "velocity": 0.7874015748031497,
          "duration": 0.19999999999998863
        },
        {
          "name": "C3",
          "midi": 48,
          "time": 326.2000000000036,
          "velocity": 0.7874015748031497,
          "duration": 0.19999999999998863
        },
        {
          "name": "F2",
          "midi": 41,
          "time": 326.4000000000036,
          "velocity": 0.7874015748031497,
          "duration": 0.10000000000002274
        },
        {
          "name": "F2",
          "midi": 41,
          "time": 326.50000000000364,
          "velocity": 0.7874015748031497,
          "duration": 0.10000000000002274
        },
        {
          "name": "F2",
          "midi": 41,
          "time": 326.60000000000366,
          "velocity": 0.7874015748031497,
          "duration": 0.10000000000002274
        },
        {
          "name": "F2",
          "midi": 41,
          "time": 326.7000000000037,
          "velocity": 0.7874015748031497,
          "duration": 0.10000000000002274
        },
        {
          "name": "F3",
          "midi": 53,
          "time": 326.8000000000037,
          "velocity": 0.7874015748031497,
          "duration": 0.19999999999998863
        },
        {
          "name": "C#3",
          "midi": 49,
          "time": 327.0000000000037,
          "velocity": 0.7874015748031497,
          "duration": 0.19999999999998863
        },
        {
          "name": "C3",
          "midi": 48,
          "time": 327.20416666667035,
          "velocity": 0.7874015748031497,
          "duration": 0.19999999999998863
        },
        {
          "name": "F2",
          "midi": 41,
          "time": 327.4000000000037,
          "velocity": 0.7874015748031497,
          "duration": 0.10000000000002274
        },
        {
          "name": "F2",
          "midi": 41,
          "time": 327.5000000000037,
          "velocity": 0.7874015748031497,
          "duration": 0.10000000000002274
        },
        {
          "name": "F2",
          "midi": 41,
          "time": 327.6000000000037,
          "velocity": 0.7874015748031497,
          "duration": 0.19999999999998863
        },
        {
          "name": "C3",
          "midi": 48,
          "time": 327.8000000000037,
          "velocity": 0.7874015748031497,
          "duration": 0.19999999999998863
        },
        {
          "name": "F2",
          "midi": 41,
          "time": 328.0000000000037,
          "velocity": 0.7874015748031497,
          "duration": 0.10000000000002274
        },
        {
          "name": "F2",
          "midi": 41,
          "time": 328.1000000000037,
          "velocity": 0.7874015748031497,
          "duration": 0.10000000000002274
        },
        {
          "name": "F2",
          "midi": 41,
          "time": 328.20000000000374,
          "velocity": 0.7874015748031497,
          "duration": 0.10000000000002274
        },
        {
          "name": "F2",
          "midi": 41,
          "time": 328.30000000000376,
          "velocity": 0.7874015748031497,
          "duration": 0.10000000000002274
        },
        {
          "name": "C3",
          "midi": 48,
          "time": 328.4000000000038,
          "velocity": 0.7874015748031497,
          "duration": 0.19999999999998863
        },
        {
          "name": "F2",
          "midi": 41,
          "time": 328.6000000000038,
          "velocity": 0.7874015748031497,
          "duration": 0.19999999999998863
        },
        {
          "name": "D#3",
          "midi": 51,
          "time": 328.80000000000376,
          "velocity": 0.7874015748031497,
          "duration": 0.10000000000002274
        },
        {
          "name": "D#3",
          "midi": 51,
          "time": 328.9000000000038,
          "velocity": 0.7874015748031497,
          "duration": 0.10000000000002274
        },
        {
          "name": "D#3",
          "midi": 51,
          "time": 329.0000000000038,
          "velocity": 0.7874015748031497,
          "duration": 0.10000000000002274
        },
        {
          "name": "D#3",
          "midi": 51,
          "time": 329.10000000000383,
          "velocity": 0.7874015748031497,
          "duration": 0.10000000000002274
        },
        {
          "name": "C#3",
          "midi": 49,
          "time": 329.20000000000385,
          "velocity": 0.7874015748031497,
          "duration": 0.10000000000002274
        },
        {
          "name": "C#3",
          "midi": 49,
          "time": 329.3000000000039,
          "velocity": 0.7874015748031497,
          "duration": 0.10000000000002274
        },
        {
          "name": "C#3",
          "midi": 49,
          "time": 329.4000000000039,
          "velocity": 0.7874015748031497,
          "duration": 0.10000000000002274
        },
        {
          "name": "C#3",
          "midi": 49,
          "time": 329.5000000000039,
          "velocity": 0.7874015748031497,
          "duration": 0.10000000000002274
        },
        {
          "name": "C3",
          "midi": 48,
          "time": 329.60000000000394,
          "velocity": 0.7874015748031497,
          "duration": 0.10000000000002274
        },
        {
          "name": "C3",
          "midi": 48,
          "time": 329.70000000000397,
          "velocity": 0.7874015748031497,
          "duration": 0.10000000000002274
        },
        {
          "name": "C3",
          "midi": 48,
          "time": 329.800000000004,
          "velocity": 0.7874015748031497,
          "duration": 0.10000000000002274
        },
        {
          "name": "C3",
          "midi": 48,
          "time": 329.900000000004,
          "velocity": 0.7874015748031497,
          "duration": 0.10000000000002274
        },
        {
          "name": "A#2",
          "midi": 46,
          "time": 330.00000000000404,
          "velocity": 0.7874015748031497,
          "duration": 0.10000000000002274
        },
        {
          "name": "A#2",
          "midi": 46,
          "time": 330.10000000000406,
          "velocity": 0.7874015748031497,
          "duration": 0.10000000000002274
        },
        {
          "name": "A#2",
          "midi": 46,
          "time": 330.2000000000041,
          "velocity": 0.7874015748031497,
          "duration": 0.10000000000002274
        },
        {
          "name": "A#2",
          "midi": 46,
          "time": 330.3000000000041,
          "velocity": 0.7874015748031497,
          "duration": 0.10000000000002274
        },
        {
          "name": "G#2",
          "midi": 44,
          "time": 330.4000000000041,
          "velocity": 0.7874015748031497,
          "duration": 2.3999999999999773
        },
        {
          "name": "C3",
          "midi": 48,
          "time": 330.4000000000041,
          "velocity": 0.7874015748031497,
          "duration": 2.3999999999999773
        },
        {
          "name": "D#3",
          "midi": 51,
          "time": 330.4000000000041,
          "velocity": 0.7874015748031497,
          "duration": 2.3999999999999773
        }
      ],
      "controlChanges": {},
      "id": 1,
      "name": "Midi Advanced JITU",
      "channelNumber": 0,
      "isPercussion": false
    }
  ]
}