{
  "header": {
    "PPQ": 480,
    "bpm": 150,
    "timeSignature": [
      4,
      4
    ],
    "name": "Dentalist Beginner Midi Git"
  },
  "tempo": [
    {
      "absoluteTime": 0,
      "seconds": 0,
      "bpm": 150
    }
  ],
  "timeSignature": [
    {
      "absoluteTime": 0,
      "seconds": 0,
      "numerator": 1,
      "denominator": 2,
      "click": 24,
      "notesQ": 8
    },
    {
      "absoluteTime": 1920,
      "seconds": 1.6,
      "numerator": 4,
      "denominator": 2,
      "click": 24,
      "notesQ": 8
    },
    {
      "absoluteTime": 38400,
      "seconds": 32,
      "numerator": 4,
      "denominator": 2,
      "click": 24,
      "notesQ": 8
    },
    {
      "absoluteTime": 59520,
      "seconds": 49.6,
      "numerator": 4,
      "denominator": 2,
      "click": 24,
      "notesQ": 8
    },
    {
      "absoluteTime": 119040,
      "seconds": 99.2,
      "numerator": 4,
      "denominator": 2,
      "click": 24,
      "notesQ": 8
    },
    {
      "absoluteTime": 147840,
      "seconds": 123.2,
      "numerator": 4,
      "denominator": 2,
      "click": 24,
      "notesQ": 8
    },
    {
      "absoluteTime": 151680,
      "seconds": 126.4,
      "numerator": 4,
      "denominator": 2,
      "click": 24,
      "notesQ": 8
    },
    {
      "absoluteTime": 170880,
      "seconds": 142.4,
      "numerator": 4,
      "denominator": 2,
      "click": 24,
      "notesQ": 8
    }
  ],
  "startTime": 0,
  "duration": 332.80000000000086,
  "tracks": [
    {
      "startTime": 0,
      "duration": 0,
      "length": 0,
      "notes": [],
      "controlChanges": {},
      "id": 0,
      "name": "Dentalist Beginner Midi Git"
    },
    {
      "startTime": 3,
      "duration": 332.80000000000086,
      "length": 425,
      "notes": [
        {
          "name": "A4",
          "midi": 69,
          "time": 3,
          "velocity": 0.7874015748031497,
          "duration": 0.20000000000000018
        },
        {
          "name": "A4",
          "midi": 69,
          "time": 3.2,
          "velocity": 0.7874015748031497,
          "duration": 0.3999999999999999
        },
        {
          "name": "A4",
          "midi": 69,
          "time": 4.6,
          "velocity": 0.7874015748031497,
          "duration": 0.20000000000000018
        },
        {
          "name": "A4",
          "midi": 69,
          "time": 6.2,
          "velocity": 0.7874015748031497,
          "duration": 0.20000000000000018
        },
        {
          "name": "A4",
          "midi": 69,
          "time": 6.4,
          "velocity": 0.7874015748031497,
          "duration": 0.40000000000000036
        },
        {
          "name": "A4",
          "midi": 69,
          "time": 7.800000000000001,
          "velocity": 0.7874015748031497,
          "duration": 0.1999999999999993
        },
        {
          "name": "A4",
          "midi": 69,
          "time": 8,
          "velocity": 0.7874015748031497,
          "duration": 0.40000000000000036
        },
        {
          "name": "A4",
          "midi": 69,
          "time": 9.4,
          "velocity": 0.7874015748031497,
          "duration": 0.1999999999999993
        },
        {
          "name": "A4",
          "midi": 69,
          "time": 9.6,
          "velocity": 0.7874015748031497,
          "duration": 0.40000000000000036
        },
        {
          "name": "A4",
          "midi": 69,
          "time": 11,
          "velocity": 0.7874015748031497,
          "duration": 0.1999999999999993
        },
        {
          "name": "A4",
          "midi": 69,
          "time": 11.2,
          "velocity": 0.7874015748031497,
          "duration": 0.40000000000000036
        },
        {
          "name": "A#4",
          "midi": 70,
          "time": 12.4,
          "velocity": 0.7874015748031497,
          "duration": 0.40000000000000036
        },
        {
          "name": "G4",
          "midi": 67,
          "time": 12.798333333333334,
          "velocity": 0.7874015748031497,
          "duration": 3
        },
        {
          "name": "A4",
          "midi": 69,
          "time": 15.8,
          "velocity": 0.7874015748031497,
          "duration": 0.1999999999999993
        },
        {
          "name": "A4",
          "midi": 69,
          "time": 16,
          "velocity": 0.7874015748031497,
          "duration": 0.3999999999999986
        },
        {
          "name": "A4",
          "midi": 69,
          "time": 17.4,
          "velocity": 0.7874015748031497,
          "duration": 0.1999999999999993
        },
        {
          "name": "A4",
          "midi": 69,
          "time": 17.599999999999998,
          "velocity": 0.7874015748031497,
          "duration": 0.3999999999999986
        },
        {
          "name": "A4",
          "midi": 69,
          "time": 18.999999999999996,
          "velocity": 0.7874015748031497,
          "duration": 0.1999999999999993
        },
        {
          "name": "A4",
          "midi": 69,
          "time": 19.199999999999996,
          "velocity": 0.7874015748031497,
          "duration": 0.3999999999999986
        },
        {
          "name": "A4",
          "midi": 69,
          "time": 20.599999999999994,
          "velocity": 0.7874015748031497,
          "duration": 0.1999999999999993
        },
        {
          "name": "A4",
          "midi": 69,
          "time": 20.799999999999994,
          "velocity": 0.7874015748031497,
          "duration": 0.3999999999999986
        },
        {
          "name": "A4",
          "midi": 69,
          "time": 22.199999999999992,
          "velocity": 0.7874015748031497,
          "duration": 0.1999999999999993
        },
        {
          "name": "A4",
          "midi": 69,
          "time": 22.39999999999999,
          "velocity": 0.7874015748031497,
          "duration": 0.3999999999999986
        },
        {
          "name": "A4",
          "midi": 69,
          "time": 23.79999999999999,
          "velocity": 0.7874015748031497,
          "duration": 0.1999999999999993
        },
        {
          "name": "A4",
          "midi": 69,
          "time": 23.99999999999999,
          "velocity": 0.7874015748031497,
          "duration": 0.3999999999999986
        },
        {
          "name": "A#4",
          "midi": 70,
          "time": 25.19999999999999,
          "velocity": 0.7874015748031497,
          "duration": 0.3999999999999986
        },
        {
          "name": "G4",
          "midi": 67,
          "time": 25.598333333333322,
          "velocity": 0.7874015748031497,
          "duration": 1.5999999999999979
        },
        {
          "name": "G2",
          "midi": 43,
          "time": 27.199999999999985,
          "velocity": 0.7874015748031497,
          "duration": 0.10000000000000142
        },
        {
          "name": "A2",
          "midi": 45,
          "time": 27.599999999999987,
          "velocity": 0.7874015748031497,
          "duration": 0.10000000000000142
        },
        {
          "name": "A#2",
          "midi": 46,
          "time": 27.99999999999999,
          "velocity": 0.7874015748031497,
          "duration": 0.10000000000000142
        },
        {
          "name": "C3",
          "midi": 48,
          "time": 28.39999999999999,
          "velocity": 0.7874015748031497,
          "duration": 0.10000000000000142
        },
        {
          "name": "D3",
          "midi": 50,
          "time": 28.799999999999994,
          "velocity": 0.7874015748031497,
          "duration": 0.1999999999999993
        },
        {
          "name": "D3",
          "midi": 50,
          "time": 29.39999999999999,
          "velocity": 0.7874015748031497,
          "duration": 0.20083333333333186
        },
        {
          "name": "D3",
          "midi": 50,
          "time": 30.39999999999999,
          "velocity": 0.7874015748031497,
          "duration": 0.1999999999999993
        },
        {
          "name": "D3",
          "midi": 50,
          "time": 30.99999999999999,
          "velocity": 0.7874015748031497,
          "duration": 0.1999999999999993
        },
        {
          "name": "D3",
          "midi": 50,
          "time": 32.00333333333332,
          "velocity": 0.7874015748031497,
          "duration": 0.20000000000000284
        },
        {
          "name": "D3",
          "midi": 50,
          "time": 32.599999999999994,
          "velocity": 0.7874015748031497,
          "duration": 0.20000000000000284
        },
        {
          "name": "F3",
          "midi": 53,
          "time": 33.599999999999994,
          "velocity": 0.7874015748031497,
          "duration": 0.10000000000000142
        },
        {
          "name": "D#3",
          "midi": 51,
          "time": 33.99999999999999,
          "velocity": 0.7874015748031497,
          "duration": 0.10000000000000142
        },
        {
          "name": "D3",
          "midi": 50,
          "time": 34.39999999999999,
          "velocity": 0.7874015748031497,
          "duration": 0.10000000000000142
        },
        {
          "name": "C3",
          "midi": 48,
          "time": 34.79999999999999,
          "velocity": 0.7874015748031497,
          "duration": 0.10000000000000142
        },
        {
          "name": "D3",
          "midi": 50,
          "time": 35.19999999999999,
          "velocity": 0.7874015748031497,
          "duration": 0.20000000000000284
        },
        {
          "name": "D3",
          "midi": 50,
          "time": 35.79999999999999,
          "velocity": 0.7874015748031497,
          "duration": 0.20083333333333542
        },
        {
          "name": "D3",
          "midi": 50,
          "time": 36.79999999999999,
          "velocity": 0.7874015748031497,
          "duration": 0.20000000000000284
        },
        {
          "name": "D3",
          "midi": 50,
          "time": 37.39999999999999,
          "velocity": 0.7874015748031497,
          "duration": 0.20000000000000284
        },
        {
          "name": "D3",
          "midi": 50,
          "time": 38.40416666666666,
          "velocity": 0.7874015748031497,
          "duration": 0.20000000000000284
        },
        {
          "name": "D3",
          "midi": 50,
          "time": 39,
          "velocity": 0.7874015748031497,
          "duration": 0.20000000000000284
        },
        {
          "name": "A#2",
          "midi": 46,
          "time": 40,
          "velocity": 0.7874015748031497,
          "duration": 0.3999999999999986
        },
        {
          "name": "A2",
          "midi": 45,
          "time": 40.4,
          "velocity": 0.7874015748031497,
          "duration": 0.3999999999999986
        },
        {
          "name": "G2",
          "midi": 43,
          "time": 40.8,
          "velocity": 0.7874015748031497,
          "duration": 0.3999999999999986
        },
        {
          "name": "F2",
          "midi": 41,
          "time": 41.199999999999996,
          "velocity": 0.7874015748031497,
          "duration": 0.3999999999999986
        },
        {
          "name": "D3",
          "midi": 50,
          "time": 41.599999999999994,
          "velocity": 0.7874015748031497,
          "duration": 0.20000000000000284
        },
        {
          "name": "D3",
          "midi": 50,
          "time": 42.199999999999996,
          "velocity": 0.7874015748031497,
          "duration": 0.20083333333333542
        },
        {
          "name": "D3",
          "midi": 50,
          "time": 43.199999999999996,
          "velocity": 0.7874015748031497,
          "duration": 0.20000000000000284
        },
        {
          "name": "D3",
          "midi": 50,
          "time": 43.8,
          "velocity": 0.7874015748031497,
          "duration": 0.20000000000000284
        },
        {
          "name": "D3",
          "midi": 50,
          "time": 44.80416666666667,
          "velocity": 0.7874015748031497,
          "duration": 0.20000000000000284
        },
        {
          "name": "D3",
          "midi": 50,
          "time": 45.400000000000006,
          "velocity": 0.7874015748031497,
          "duration": 0.20000000000000284
        },
        {
          "name": "F3",
          "midi": 53,
          "time": 46.400000000000006,
          "velocity": 0.7874015748031497,
          "duration": 0.10000000000000142
        },
        {
          "name": "D#3",
          "midi": 51,
          "time": 46.800000000000004,
          "velocity": 0.7874015748031497,
          "duration": 0.10000000000000142
        },
        {
          "name": "D3",
          "midi": 50,
          "time": 47.2,
          "velocity": 0.7874015748031497,
          "duration": 0.10000000000000142
        },
        {
          "name": "C3",
          "midi": 48,
          "time": 47.6,
          "velocity": 0.7874015748031497,
          "duration": 0.10000000000000142
        },
        {
          "name": "D3",
          "midi": 50,
          "time": 48,
          "velocity": 0.7874015748031497,
          "duration": 0.20000000000000284
        },
        {
          "name": "D3",
          "midi": 50,
          "time": 48.600833333333334,
          "velocity": 0.7874015748031497,
          "duration": 0.20083333333333542
        },
        {
          "name": "D3",
          "midi": 50,
          "time": 49.600833333333334,
          "velocity": 0.7874015748031497,
          "duration": 0.20000000000000284
        },
        {
          "name": "D3",
          "midi": 50,
          "time": 50.200833333333335,
          "velocity": 0.7874015748031497,
          "duration": 0.20000000000000284
        },
        {
          "name": "D3",
          "midi": 50,
          "time": 51.20416666666667,
          "velocity": 0.7874015748031497,
          "duration": 0.20000000000000284
        },
        {
          "name": "D3",
          "midi": 50,
          "time": 51.800833333333344,
          "velocity": 0.7874015748031497,
          "duration": 0.20000000000000284
        },
        {
          "name": "C3",
          "midi": 48,
          "time": 52.80000000000001,
          "velocity": 0.7874015748031497,
          "duration": 0.3999999999999986
        },
        {
          "name": "A#2",
          "midi": 46,
          "time": 53.20000000000001,
          "velocity": 0.7874015748031497,
          "duration": 0.3999999999999986
        },
        {
          "name": "A2",
          "midi": 45,
          "time": 53.60000000000001,
          "velocity": 0.7874015748031497,
          "duration": 0.3999999999999986
        },
        {
          "name": "G2",
          "midi": 43,
          "time": 54.00000000000001,
          "velocity": 0.7874015748031497,
          "duration": 0.4024999999999963
        },
        {
          "name": "A#2",
          "midi": 46,
          "time": 54.400000000000006,
          "velocity": 0.7874015748031497,
          "duration": 0.19999999999999574
        },
        {
          "name": "F2",
          "midi": 41,
          "time": 55.2,
          "velocity": 0.7874015748031497,
          "duration": 0.13333333333333286
        },
        {
          "name": "D#3",
          "midi": 51,
          "time": 56,
          "velocity": 0.7874015748031497,
          "duration": 0.6000000000000014
        },
        {
          "name": "D#3",
          "midi": 51,
          "time": 56.6,
          "velocity": 0.7874015748031497,
          "duration": 0.6000000000000014
        },
        {
          "name": "D#3",
          "midi": 51,
          "time": 57.2,
          "velocity": 0.7874015748031497,
          "duration": 0.3999999999999986
        },
        {
          "name": "D#3",
          "midi": 51,
          "time": 57.6,
          "velocity": 0.7874015748031497,
          "duration": 0.6000000000000014
        },
        {
          "name": "D#3",
          "midi": 51,
          "time": 58.2,
          "velocity": 0.7874015748031497,
          "duration": 0.6000000000000014
        },
        {
          "name": "D#3",
          "midi": 51,
          "time": 58.800000000000004,
          "velocity": 0.7874015748031497,
          "duration": 0.3999999999999986
        },
        {
          "name": "F3",
          "midi": 53,
          "time": 59.2,
          "velocity": 0.7874015748031497,
          "duration": 0.6000000000000014
        },
        {
          "name": "F3",
          "midi": 53,
          "time": 59.800000000000004,
          "velocity": 0.7874015748031497,
          "duration": 0.6000000000000014
        },
        {
          "name": "F3",
          "midi": 53,
          "time": 60.400000000000006,
          "velocity": 0.7874015748031497,
          "duration": 0.3999999999999986
        },
        {
          "name": "F3",
          "midi": 53,
          "time": 60.800000000000004,
          "velocity": 0.7874015748031497,
          "duration": 0.13333333333333286
        },
        {
          "name": "D#3",
          "midi": 51,
          "time": 62.400000000000006,
          "velocity": 0.7874015748031497,
          "duration": 0.6000000000000014
        },
        {
          "name": "D#3",
          "midi": 51,
          "time": 63.00000000000001,
          "velocity": 0.7874015748031497,
          "duration": 0.6000000000000014
        },
        {
          "name": "D#3",
          "midi": 51,
          "time": 63.60000000000001,
          "velocity": 0.7874015748031497,
          "duration": 0.4000000000000057
        },
        {
          "name": "D#3",
          "midi": 51,
          "time": 64.00000000000001,
          "velocity": 0.7874015748031497,
          "duration": 0.5999999999999943
        },
        {
          "name": "D#3",
          "midi": 51,
          "time": 64.60000000000001,
          "velocity": 0.7874015748031497,
          "duration": 0.5999999999999943
        },
        {
          "name": "D#3",
          "midi": 51,
          "time": 65.2,
          "velocity": 0.7874015748031497,
          "duration": 0.4000000000000057
        },
        {
          "name": "F3",
          "midi": 53,
          "time": 65.60000000000001,
          "velocity": 0.7874015748031497,
          "duration": 0.5999999999999943
        },
        {
          "name": "F3",
          "midi": 53,
          "time": 66.2,
          "velocity": 0.7874015748031497,
          "duration": 0.5999999999999943
        },
        {
          "name": "F3",
          "midi": 53,
          "time": 66.8,
          "velocity": 0.7874015748031497,
          "duration": 0.4000000000000057
        },
        {
          "name": "F#2",
          "midi": 42,
          "time": 67.2,
          "velocity": 0.7874015748031497,
          "duration": 0.13333333333333997
        },
        {
          "name": "D#3",
          "midi": 51,
          "time": 68.00000000000001,
          "velocity": 0.7874015748031497,
          "duration": 0.13333333333333997
        },
        {
          "name": "A#2",
          "midi": 46,
          "time": 68.80000000000003,
          "velocity": 0.7874015748031497,
          "duration": 0.09999999999999432
        },
        {
          "name": "F3",
          "midi": 53,
          "time": 68.80000000000003,
          "velocity": 0.7874015748031497,
          "duration": 0.19999999999998863
        },
        {
          "name": "F2",
          "midi": 41,
          "time": 70.40000000000002,
          "velocity": 0.7874015748031497,
          "duration": 0.09999999999999432
        },
        {
          "name": "C3",
          "midi": 48,
          "time": 70.40000000000002,
          "velocity": 0.7874015748031497,
          "duration": 0.19999999999998863
        },
        {
          "name": "G2",
          "midi": 43,
          "time": 72.00000000000001,
          "velocity": 0.7874015748031497,
          "duration": 0.09999999999999432
        },
        {
          "name": "D3",
          "midi": 50,
          "time": 72.00000000000001,
          "velocity": 0.7874015748031497,
          "duration": 0.19999999999998863
        },
        {
          "name": "D3",
          "midi": 50,
          "time": 73.60000000000001,
          "velocity": 0.7874015748031497,
          "duration": 0.09999999999999432
        },
        {
          "name": "A3",
          "midi": 57,
          "time": 73.60000000000001,
          "velocity": 0.7874015748031497,
          "duration": 0.19999999999998863
        },
        {
          "name": "D#3",
          "midi": 51,
          "time": 75.2,
          "velocity": 0.7874015748031497,
          "duration": 0.09999999999999432
        },
        {
          "name": "A#3",
          "midi": 58,
          "time": 75.2,
          "velocity": 0.7874015748031497,
          "duration": 0.19999999999998863
        },
        {
          "name": "A#2",
          "midi": 46,
          "time": 76.8,
          "velocity": 0.7874015748031497,
          "duration": 0.09999999999999432
        },
        {
          "name": "F3",
          "midi": 53,
          "time": 76.8,
          "velocity": 0.7874015748031497,
          "duration": 0.19999999999998863
        },
        {
          "name": "F3",
          "midi": 53,
          "time": 78.39999999999999,
          "velocity": 0.7874015748031497,
          "duration": 0.5999999999999943
        },
        {
          "name": "C4",
          "midi": 60,
          "time": 78.39999999999999,
          "velocity": 0.7874015748031497,
          "duration": 0.5999999999999943
        },
        {
          "name": "F3",
          "midi": 53,
          "time": 79.99999999999999,
          "velocity": 0.7874015748031497,
          "duration": 0.5999999999999943
        },
        {
          "name": "C4",
          "midi": 60,
          "time": 79.99999999999999,
          "velocity": 0.7874015748031497,
          "duration": 0.5999999999999943
        },
        {
          "name": "G2",
          "midi": 43,
          "time": 81.59999999999998,
          "velocity": 0.7874015748031497,
          "duration": 0.09999999999999432
        },
        {
          "name": "D3",
          "midi": 50,
          "time": 81.59999999999998,
          "velocity": 0.7874015748031497,
          "duration": 0.19999999999998863
        },
        {
          "name": "D3",
          "midi": 50,
          "time": 83.19999999999997,
          "velocity": 0.7874015748031497,
          "duration": 0.09999999999999432
        },
        {
          "name": "A3",
          "midi": 57,
          "time": 83.19999999999997,
          "velocity": 0.7874015748031497,
          "duration": 0.19999999999998863
        },
        {
          "name": "D#3",
          "midi": 51,
          "time": 84.79999999999997,
          "velocity": 0.7874015748031497,
          "duration": 0.09999999999999432
        },
        {
          "name": "A#3",
          "midi": 58,
          "time": 84.79999999999997,
          "velocity": 0.7874015748031497,
          "duration": 0.19999999999998863
        },
        {
          "name": "A#2",
          "midi": 46,
          "time": 86.39999999999996,
          "velocity": 0.7874015748031497,
          "duration": 0.09999999999999432
        },
        {
          "name": "F3",
          "midi": 53,
          "time": 86.39999999999996,
          "velocity": 0.7874015748031497,
          "duration": 0.19999999999998863
        },
        {
          "name": "D#3",
          "midi": 51,
          "time": 87.99999999999996,
          "velocity": 0.7874015748031497,
          "duration": 0.09999999999999432
        },
        {
          "name": "A#3",
          "midi": 58,
          "time": 87.99999999999996,
          "velocity": 0.7874015748031497,
          "duration": 0.19999999999998863
        },
        {
          "name": "A#2",
          "midi": 46,
          "time": 89.59999999999995,
          "velocity": 0.7874015748031497,
          "duration": 0.09999999999999432
        },
        {
          "name": "F3",
          "midi": 53,
          "time": 89.59999999999995,
          "velocity": 0.7874015748031497,
          "duration": 0.19999999999998863
        },
        {
          "name": "F3",
          "midi": 53,
          "time": 91.19999999999995,
          "velocity": 0.7874015748031497,
          "duration": 0.5999999999999943
        },
        {
          "name": "C4",
          "midi": 60,
          "time": 91.19999999999995,
          "velocity": 0.7874015748031497,
          "duration": 0.5999999999999943
        },
        {
          "name": "F3",
          "midi": 53,
          "time": 92.79999999999994,
          "velocity": 0.7874015748031497,
          "duration": 0.5999999999999943
        },
        {
          "name": "C4",
          "midi": 60,
          "time": 92.79999999999994,
          "velocity": 0.7874015748031497,
          "duration": 0.5999999999999943
        },
        {
          "name": "A#2",
          "midi": 46,
          "time": 94.39999999999993,
          "velocity": 0.7874015748031497,
          "duration": 0.09999999999999432
        },
        {
          "name": "A2",
          "midi": 45,
          "time": 94.79999999999993,
          "velocity": 0.7874015748031497,
          "duration": 0.09999999999999432
        },
        {
          "name": "G2",
          "midi": 43,
          "time": 95.19999999999992,
          "velocity": 0.7874015748031497,
          "duration": 0.09999999999999432
        },
        {
          "name": "F2",
          "midi": 41,
          "time": 95.59999999999991,
          "velocity": 0.7874015748031497,
          "duration": 0.09999999999999432
        },
        {
          "name": "A#2",
          "midi": 46,
          "time": 95.9999999999999,
          "velocity": 0.7874015748031497,
          "duration": 0.4000000000000057
        },
        {
          "name": "C3",
          "midi": 48,
          "time": 96.3999999999999,
          "velocity": 0.7874015748031497,
          "duration": 0.4000000000000057
        },
        {
          "name": "G4",
          "midi": 67,
          "time": 96.79999999999991,
          "velocity": 0.7874015748031497,
          "duration": 0.20000000000000284
        },
        {
          "name": "C5",
          "midi": 72,
          "time": 98.39999999999992,
          "velocity": 0.7874015748031497,
          "duration": 0.20000000000000284
        },
        {
          "name": "G4",
          "midi": 67,
          "time": 99.99999999999993,
          "velocity": 0.7874015748031497,
          "duration": 0.20000000000000284
        },
        {
          "name": "A#4",
          "midi": 70,
          "time": 101.59833333333327,
          "velocity": 0.7874015748031497,
          "duration": 0.39333333333333087
        },
        {
          "name": "C5",
          "midi": 72,
          "time": 101.99999999999994,
          "velocity": 0.7874015748031497,
          "duration": 0.4100000000000108
        },
        {
          "name": "D5",
          "midi": 74,
          "time": 102.39999999999995,
          "velocity": 0.7874015748031497,
          "duration": 0.39750000000000796
        },
        {
          "name": "F5",
          "midi": 77,
          "time": 102.79999999999995,
          "velocity": 0.7874015748031497,
          "duration": 0.4000000000000057
        },
        {
          "name": "D3",
          "midi": 50,
          "time": 103.19999999999996,
          "velocity": 0.7874015748031497,
          "duration": 0.20000000000000284
        },
        {
          "name": "D3",
          "midi": 50,
          "time": 103.79999999999997,
          "velocity": 0.7874015748031497,
          "duration": 0.20083333333333542
        },
        {
          "name": "D3",
          "midi": 50,
          "time": 104.79999999999997,
          "velocity": 0.7874015748031497,
          "duration": 0.20000000000000284
        },
        {
          "name": "D3",
          "midi": 50,
          "time": 105.39999999999998,
          "velocity": 0.7874015748031497,
          "duration": 0.20000000000000284
        },
        {
          "name": "D3",
          "midi": 50,
          "time": 106.40416666666664,
          "velocity": 0.7874015748031497,
          "duration": 0.20000000000000284
        },
        {
          "name": "D3",
          "midi": 50,
          "time": 106.99999999999997,
          "velocity": 0.7874015748031497,
          "duration": 0.20000000000000284
        },
        {
          "name": "F3",
          "midi": 53,
          "time": 107.99999999999997,
          "velocity": 0.7874015748031497,
          "duration": 0.09999999999999432
        },
        {
          "name": "D#3",
          "midi": 51,
          "time": 108.39999999999996,
          "velocity": 0.7874015748031497,
          "duration": 0.09999999999999432
        },
        {
          "name": "D3",
          "midi": 50,
          "time": 108.79999999999995,
          "velocity": 0.7874015748031497,
          "duration": 0.09999999999999432
        },
        {
          "name": "C3",
          "midi": 48,
          "time": 109.19999999999995,
          "velocity": 0.7874015748031497,
          "duration": 0.09999999999999432
        },
        {
          "name": "D3",
          "midi": 50,
          "time": 109.59999999999994,
          "velocity": 0.7874015748031497,
          "duration": 0.20000000000000284
        },
        {
          "name": "D3",
          "midi": 50,
          "time": 110.20083333333328,
          "velocity": 0.7874015748031497,
          "duration": 0.20083333333333542
        },
        {
          "name": "D3",
          "midi": 50,
          "time": 111.20083333333328,
          "velocity": 0.7874015748031497,
          "duration": 0.20000000000000284
        },
        {
          "name": "D3",
          "midi": 50,
          "time": 111.80083333333329,
          "velocity": 0.7874015748031497,
          "duration": 0.20000000000000284
        },
        {
          "name": "D3",
          "midi": 50,
          "time": 112.80416666666662,
          "velocity": 0.7874015748031497,
          "duration": 0.20000000000000284
        },
        {
          "name": "D3",
          "midi": 50,
          "time": 113.40083333333328,
          "velocity": 0.7874015748031497,
          "duration": 0.20000000000000284
        },
        {
          "name": "A#2",
          "midi": 46,
          "time": 114.39999999999995,
          "velocity": 0.7874015748031497,
          "duration": 0.4000000000000057
        },
        {
          "name": "A2",
          "midi": 45,
          "time": 114.79999999999995,
          "velocity": 0.7874015748031497,
          "duration": 0.4000000000000057
        },
        {
          "name": "G2",
          "midi": 43,
          "time": 115.19999999999996,
          "velocity": 0.7874015748031497,
          "duration": 0.4000000000000057
        },
        {
          "name": "F2",
          "midi": 41,
          "time": 115.59999999999997,
          "velocity": 0.7874015748031497,
          "duration": 0.4000000000000057
        },
        {
          "name": "D3",
          "midi": 50,
          "time": 115.99999999999997,
          "velocity": 0.7874015748031497,
          "duration": 0.20000000000000284
        },
        {
          "name": "D3",
          "midi": 50,
          "time": 116.60083333333331,
          "velocity": 0.7874015748031497,
          "duration": 0.20083333333333542
        },
        {
          "name": "D3",
          "midi": 50,
          "time": 117.60083333333331,
          "velocity": 0.7874015748031497,
          "duration": 0.20000000000000284
        },
        {
          "name": "D3",
          "midi": 50,
          "time": 118.20083333333332,
          "velocity": 0.7874015748031497,
          "duration": 0.20000000000000284
        },
        {
          "name": "D3",
          "midi": 50,
          "time": 119.20416666666665,
          "velocity": 0.7874015748031497,
          "duration": 0.20000000000000284
        },
        {
          "name": "D3",
          "midi": 50,
          "time": 119.80083333333332,
          "velocity": 0.7874015748031497,
          "duration": 0.20000000000000284
        },
        {
          "name": "F3",
          "midi": 53,
          "time": 120.80083333333332,
          "velocity": 0.7874015748031497,
          "duration": 0.09999999999999432
        },
        {
          "name": "D#3",
          "midi": 51,
          "time": 121.2008333333333,
          "velocity": 0.7874015748031497,
          "duration": 0.09999999999999432
        },
        {
          "name": "D3",
          "midi": 50,
          "time": 121.6008333333333,
          "velocity": 0.7874015748031497,
          "duration": 0.09999999999999432
        },
        {
          "name": "C3",
          "midi": 48,
          "time": 122.00083333333329,
          "velocity": 0.7874015748031497,
          "duration": 0.09999999999999432
        },
        {
          "name": "D3",
          "midi": 50,
          "time": 122.40083333333328,
          "velocity": 0.7874015748031497,
          "duration": 0.20000000000000284
        },
        {
          "name": "D3",
          "midi": 50,
          "time": 123.00083333333329,
          "velocity": 0.7874015748031497,
          "duration": 0.20083333333333542
        },
        {
          "name": "D3",
          "midi": 50,
          "time": 124.00083333333329,
          "velocity": 0.7874015748031497,
          "duration": 0.20000000000000284
        },
        {
          "name": "D3",
          "midi": 50,
          "time": 124.6008333333333,
          "velocity": 0.7874015748031497,
          "duration": 0.20000000000000284
        },
        {
          "name": "D3",
          "midi": 50,
          "time": 125.60499999999996,
          "velocity": 0.7874015748031497,
          "duration": 0.20000000000000284
        },
        {
          "name": "D3",
          "midi": 50,
          "time": 126.20083333333329,
          "velocity": 0.7874015748031497,
          "duration": 0.20000000000000284
        },
        {
          "name": "C3",
          "midi": 48,
          "time": 127.19999999999996,
          "velocity": 0.7874015748031497,
          "duration": 0.4000000000000057
        },
        {
          "name": "A#2",
          "midi": 46,
          "time": 127.59999999999997,
          "velocity": 0.7874015748031497,
          "duration": 0.4000000000000057
        },
        {
          "name": "A2",
          "midi": 45,
          "time": 127.99999999999997,
          "velocity": 0.7874015748031497,
          "duration": 0.4000000000000057
        },
        {
          "name": "G2",
          "midi": 43,
          "time": 128.39999999999998,
          "velocity": 0.7874015748031497,
          "duration": 0.4025000000000034
        },
        {
          "name": "A#2",
          "midi": 46,
          "time": 128.79999999999998,
          "velocity": 0.7874015748031497,
          "duration": 0.4000000000000057
        },
        {
          "name": "A2",
          "midi": 45,
          "time": 129.2,
          "velocity": 0.7874015748031497,
          "duration": 0.4000000000000057
        },
        {
          "name": "G2",
          "midi": 43,
          "time": 129.6,
          "velocity": 0.7874015748031497,
          "duration": 0.30000000000001137
        },
        {
          "name": "A2",
          "midi": 45,
          "time": 130,
          "velocity": 0.7874015748031497,
          "duration": 0.13333333333332575
        },
        {
          "name": "D#3",
          "midi": 51,
          "time": 130.4,
          "velocity": 0.7874015748031497,
          "duration": 0.5999999999999943
        },
        {
          "name": "D#3",
          "midi": 51,
          "time": 131,
          "velocity": 0.7874015748031497,
          "duration": 0.5999999999999943
        },
        {
          "name": "D#3",
          "midi": 51,
          "time": 131.6,
          "velocity": 0.7874015748031497,
          "duration": 0.4000000000000057
        },
        {
          "name": "D#3",
          "midi": 51,
          "time": 132,
          "velocity": 0.7874015748031497,
          "duration": 0.5999999999999943
        },
        {
          "name": "D#3",
          "midi": 51,
          "time": 132.6,
          "velocity": 0.7874015748031497,
          "duration": 0.5999999999999943
        },
        {
          "name": "D#3",
          "midi": 51,
          "time": 133.2,
          "velocity": 0.7874015748031497,
          "duration": 0.4000000000000057
        },
        {
          "name": "F3",
          "midi": 53,
          "time": 133.6,
          "velocity": 0.7874015748031497,
          "duration": 0.5999999999999943
        },
        {
          "name": "F3",
          "midi": 53,
          "time": 134.2,
          "velocity": 0.7874015748031497,
          "duration": 0.5999999999999943
        },
        {
          "name": "F3",
          "midi": 53,
          "time": 134.79999999999998,
          "velocity": 0.7874015748031497,
          "duration": 0.4000000000000057
        },
        {
          "name": "F3",
          "midi": 53,
          "time": 135.2,
          "velocity": 0.7874015748031497,
          "duration": 0.13333333333332575
        },
        {
          "name": "D#3",
          "midi": 51,
          "time": 136.79999999999998,
          "velocity": 0.7874015748031497,
          "duration": 0.5999999999999943
        },
        {
          "name": "D#3",
          "midi": 51,
          "time": 137.39999999999998,
          "velocity": 0.7874015748031497,
          "duration": 0.5999999999999943
        },
        {
          "name": "D#3",
          "midi": 51,
          "time": 137.99999999999997,
          "velocity": 0.7874015748031497,
          "duration": 0.4000000000000057
        },
        {
          "name": "D#3",
          "midi": 51,
          "time": 138.39999999999998,
          "velocity": 0.7874015748031497,
          "duration": 0.5999999999999943
        },
        {
          "name": "D#3",
          "midi": 51,
          "time": 138.99999999999997,
          "velocity": 0.7874015748031497,
          "duration": 0.5999999999999943
        },
        {
          "name": "D#3",
          "midi": 51,
          "time": 139.59999999999997,
          "velocity": 0.7874015748031497,
          "duration": 0.4000000000000057
        },
        {
          "name": "F3",
          "midi": 53,
          "time": 139.99999999999997,
          "velocity": 0.7874015748031497,
          "duration": 0.5999999999999943
        },
        {
          "name": "F3",
          "midi": 53,
          "time": 140.59999999999997,
          "velocity": 0.7874015748031497,
          "duration": 0.5999999999999943
        },
        {
          "name": "F3",
          "midi": 53,
          "time": 141.19999999999996,
          "velocity": 0.7874015748031497,
          "duration": 0.4000000000000057
        },
        {
          "name": "F#2",
          "midi": 42,
          "time": 141.59999999999997,
          "velocity": 0.7874015748031497,
          "duration": 0.13333333333332575
        },
        {
          "name": "D#3",
          "midi": 51,
          "time": 142.39999999999995,
          "velocity": 0.7874015748031497,
          "duration": 0.2083333333333428
        },
        {
          "name": "A#2",
          "midi": 46,
          "time": 143.19999999999996,
          "velocity": 0.7874015748031497,
          "duration": 0.09999999999999432
        },
        {
          "name": "F3",
          "midi": 53,
          "time": 143.19999999999996,
          "velocity": 0.7874015748031497,
          "duration": 0.19999999999998863
        },
        {
          "name": "F2",
          "midi": 41,
          "time": 144.79999999999995,
          "velocity": 0.7874015748031497,
          "duration": 0.09999999999999432
        },
        {
          "name": "C3",
          "midi": 48,
          "time": 144.79999999999995,
          "velocity": 0.7874015748031497,
          "duration": 0.19999999999998863
        },
        {
          "name": "G2",
          "midi": 43,
          "time": 146.39999999999995,
          "velocity": 0.7874015748031497,
          "duration": 0.09999999999999432
        },
        {
          "name": "D3",
          "midi": 50,
          "time": 146.39999999999995,
          "velocity": 0.7874015748031497,
          "duration": 0.19999999999998863
        },
        {
          "name": "D3",
          "midi": 50,
          "time": 147.99999999999994,
          "velocity": 0.7874015748031497,
          "duration": 0.09999999999999432
        },
        {
          "name": "A3",
          "midi": 57,
          "time": 147.99999999999994,
          "velocity": 0.7874015748031497,
          "duration": 0.19999999999998863
        },
        {
          "name": "D#3",
          "midi": 51,
          "time": 149.59999999999994,
          "velocity": 0.7874015748031497,
          "duration": 0.09999999999999432
        },
        {
          "name": "A#3",
          "midi": 58,
          "time": 149.59999999999994,
          "velocity": 0.7874015748031497,
          "duration": 0.19999999999998863
        },
        {
          "name": "A#2",
          "midi": 46,
          "time": 151.19999999999993,
          "velocity": 0.7874015748031497,
          "duration": 0.09999999999999432
        },
        {
          "name": "F3",
          "midi": 53,
          "time": 151.19999999999993,
          "velocity": 0.7874015748031497,
          "duration": 0.19999999999998863
        },
        {
          "name": "F3",
          "midi": 53,
          "time": 152.79999999999993,
          "velocity": 0.7874015748031497,
          "duration": 0.5999999999999943
        },
        {
          "name": "C4",
          "midi": 60,
          "time": 152.79999999999993,
          "velocity": 0.7874015748031497,
          "duration": 0.5999999999999943
        },
        {
          "name": "F3",
          "midi": 53,
          "time": 154.39999999999992,
          "velocity": 0.7874015748031497,
          "duration": 0.5999999999999943
        },
        {
          "name": "C4",
          "midi": 60,
          "time": 154.39999999999992,
          "velocity": 0.7874015748031497,
          "duration": 0.5999999999999943
        },
        {
          "name": "G2",
          "midi": 43,
          "time": 155.99999999999991,
          "velocity": 0.7874015748031497,
          "duration": 0.09999999999999432
        },
        {
          "name": "D3",
          "midi": 50,
          "time": 155.99999999999991,
          "velocity": 0.7874015748031497,
          "duration": 0.19999999999998863
        },
        {
          "name": "D3",
          "midi": 50,
          "time": 157.5999999999999,
          "velocity": 0.7874015748031497,
          "duration": 0.09999999999999432
        },
        {
          "name": "A3",
          "midi": 57,
          "time": 157.5999999999999,
          "velocity": 0.7874015748031497,
          "duration": 0.19999999999998863
        },
        {
          "name": "D#3",
          "midi": 51,
          "time": 159.1999999999999,
          "velocity": 0.7874015748031497,
          "duration": 0.09999999999999432
        },
        {
          "name": "A#3",
          "midi": 58,
          "time": 159.1999999999999,
          "velocity": 0.7874015748031497,
          "duration": 0.19999999999998863
        },
        {
          "name": "A#2",
          "midi": 46,
          "time": 160.7999999999999,
          "velocity": 0.7874015748031497,
          "duration": 0.09999999999999432
        },
        {
          "name": "F3",
          "midi": 53,
          "time": 160.7999999999999,
          "velocity": 0.7874015748031497,
          "duration": 0.19999999999998863
        },
        {
          "name": "D#3",
          "midi": 51,
          "time": 162.3999999999999,
          "velocity": 0.7874015748031497,
          "duration": 0.09999999999999432
        },
        {
          "name": "A#3",
          "midi": 58,
          "time": 162.3999999999999,
          "velocity": 0.7874015748031497,
          "duration": 0.19999999999998863
        },
        {
          "name": "A#2",
          "midi": 46,
          "time": 163.9999999999999,
          "velocity": 0.7874015748031497,
          "duration": 0.09999999999999432
        },
        {
          "name": "F3",
          "midi": 53,
          "time": 163.9999999999999,
          "velocity": 0.7874015748031497,
          "duration": 0.19999999999998863
        },
        {
          "name": "F3",
          "midi": 53,
          "time": 165.59999999999988,
          "velocity": 0.7874015748031497,
          "duration": 0.5999999999999943
        },
        {
          "name": "C4",
          "midi": 60,
          "time": 165.59999999999988,
          "velocity": 0.7874015748031497,
          "duration": 0.5999999999999943
        },
        {
          "name": "F3",
          "midi": 53,
          "time": 167.19999999999987,
          "velocity": 0.7874015748031497,
          "duration": 0.5999999999999943
        },
        {
          "name": "C4",
          "midi": 60,
          "time": 167.19999999999987,
          "velocity": 0.7874015748031497,
          "duration": 0.5999999999999943
        },
        {
          "name": "C3",
          "midi": 48,
          "time": 168.79999999999987,
          "velocity": 0.7874015748031497,
          "duration": 0.4000000000000057
        },
        {
          "name": "A#2",
          "midi": 46,
          "time": 169.19999999999987,
          "velocity": 0.7874015748031497,
          "duration": 0.4000000000000057
        },
        {
          "name": "A2",
          "midi": 45,
          "time": 169.59999999999988,
          "velocity": 0.7874015748031497,
          "duration": 0.4000000000000057
        },
        {
          "name": "G2",
          "midi": 43,
          "time": 169.9999999999999,
          "velocity": 0.7874015748031497,
          "duration": 0.4000000000000057
        },
        {
          "name": "A#2",
          "midi": 46,
          "time": 170.3999999999999,
          "velocity": 0.7874015748031497,
          "duration": 0.09999999999999432
        },
        {
          "name": "A2",
          "midi": 45,
          "time": 170.7999999999999,
          "velocity": 0.7874015748031497,
          "duration": 0.09999999999999432
        },
        {
          "name": "G2",
          "midi": 43,
          "time": 171.1999999999999,
          "velocity": 0.7874015748031497,
          "duration": 0.09999999999999432
        },
        {
          "name": "F2",
          "midi": 41,
          "time": 171.5999999999999,
          "velocity": 0.7874015748031497,
          "duration": 0.09999999999999432
        },
        {
          "name": "G4",
          "midi": 67,
          "time": 171.99999999999991,
          "velocity": 0.7874015748031497,
          "duration": 0.19999999999998863
        },
        {
          "name": "C5",
          "midi": 72,
          "time": 173.5999999999999,
          "velocity": 0.7874015748031497,
          "duration": 0.19999999999998863
        },
        {
          "name": "G4",
          "midi": 67,
          "time": 175.1999999999999,
          "velocity": 0.7874015748031497,
          "duration": 0.19999999999998863
        },
        {
          "name": "C5",
          "midi": 72,
          "time": 176.7999999999999,
          "velocity": 0.7874015748031497,
          "duration": 0.4000000000000057
        },
        {
          "name": "A#4",
          "midi": 70,
          "time": 177.1999999999999,
          "velocity": 0.7874015748031497,
          "duration": 0.4000000000000057
        },
        {
          "name": "A4",
          "midi": 69,
          "time": 177.5999999999999,
          "velocity": 0.7874015748031497,
          "duration": 0.4000000000000057
        },
        {
          "name": "G4",
          "midi": 67,
          "time": 178.00333333333325,
          "velocity": 0.7874015748031497,
          "duration": 0.4000000000000057
        },
        {
          "name": "F4",
          "midi": 65,
          "time": 178.39999999999992,
          "velocity": 0.7874015748031497,
          "duration": 0.19999999999998863
        },
        {
          "name": "C5",
          "midi": 72,
          "time": 179.99999999999991,
          "velocity": 0.7874015748031497,
          "duration": 0.19999999999998863
        },
        {
          "name": "F4",
          "midi": 65,
          "time": 181.5999999999999,
          "velocity": 0.7874015748031497,
          "duration": 0.19999999999998863
        },
        {
          "name": "F4",
          "midi": 65,
          "time": 183.1999999999999,
          "velocity": 0.7874015748031497,
          "duration": 0.4000000000000057
        },
        {
          "name": "G4",
          "midi": 67,
          "time": 183.5999999999999,
          "velocity": 0.7874015748031497,
          "duration": 0.4000000000000057
        },
        {
          "name": "A4",
          "midi": 69,
          "time": 183.99999999999991,
          "velocity": 0.7874015748031497,
          "duration": 0.4000000000000057
        },
        {
          "name": "A#4",
          "midi": 70,
          "time": 184.39999999999992,
          "velocity": 0.7874015748031497,
          "duration": 0.4000000000000057
        },
        {
          "name": "A4",
          "midi": 69,
          "time": 184.79999999999993,
          "velocity": 0.7874015748031497,
          "duration": 0.4000000000000057
        },
        {
          "name": "D5",
          "midi": 74,
          "time": 186.39999999999992,
          "velocity": 0.7874015748031497,
          "duration": 0.4000000000000057
        },
        {
          "name": "A4",
          "midi": 69,
          "time": 187.99999999999991,
          "velocity": 0.7874015748031497,
          "duration": 0.4000000000000057
        },
        {
          "name": "D5",
          "midi": 74,
          "time": 189.5999999999999,
          "velocity": 0.7874015748031497,
          "duration": 0.4000000000000057
        },
        {
          "name": "C5",
          "midi": 72,
          "time": 189.99999999999991,
          "velocity": 0.7874015748031497,
          "duration": 0.4000000000000057
        },
        {
          "name": "B4",
          "midi": 71,
          "time": 190.39999999999992,
          "velocity": 0.7874015748031497,
          "duration": 0.4000000000000057
        },
        {
          "name": "A4",
          "midi": 69,
          "time": 190.79999999999993,
          "velocity": 0.7874015748031497,
          "duration": 0.4000000000000057
        },
        {
          "name": "G4",
          "midi": 67,
          "time": 191.19999999999993,
          "velocity": 0.7874015748031497,
          "duration": 0.4000000000000057
        },
        {
          "name": "D5",
          "midi": 74,
          "time": 192.79999999999993,
          "velocity": 0.7874015748031497,
          "duration": 0.4000000000000057
        },
        {
          "name": "G4",
          "midi": 67,
          "time": 194.39999999999992,
          "velocity": 0.7874015748031497,
          "duration": 0.4000000000000057
        },
        {
          "name": "D4",
          "midi": 62,
          "time": 195.99999999999991,
          "velocity": 0.7874015748031497,
          "duration": 0.09999999999999432
        },
        {
          "name": "C5",
          "midi": 72,
          "time": 196.7999999999999,
          "velocity": 0.7874015748031497,
          "duration": 0.09999999999999432
        },
        {
          "name": "C5",
          "midi": 72,
          "time": 197.59999999999988,
          "velocity": 0.7874015748031497,
          "duration": 0.4000000000000057
        },
        {
          "name": "F5",
          "midi": 77,
          "time": 199.19999999999987,
          "velocity": 0.7874015748031497,
          "duration": 0.4000000000000057
        },
        {
          "name": "C5",
          "midi": 72,
          "time": 200.79999999999987,
          "velocity": 0.7874015748031497,
          "duration": 0.4000000000000057
        },
        {
          "name": "F5",
          "midi": 77,
          "time": 202.39999999999986,
          "velocity": 0.7874015748031497,
          "duration": 0.4000000000000057
        },
        {
          "name": "D#5",
          "midi": 75,
          "time": 202.79999999999987,
          "velocity": 0.7874015748031497,
          "duration": 0.4000000000000057
        },
        {
          "name": "D5",
          "midi": 74,
          "time": 203.19999999999987,
          "velocity": 0.7874015748031497,
          "duration": 0.4000000000000057
        },
        {
          "name": "C5",
          "midi": 72,
          "time": 203.59999999999988,
          "velocity": 0.7874015748031497,
          "duration": 0.4000000000000057
        },
        {
          "name": "D#5",
          "midi": 75,
          "time": 203.9999999999999,
          "velocity": 0.7874015748031497,
          "duration": 0.4000000000000057
        },
        {
          "name": "G#5",
          "midi": 80,
          "time": 205.59999999999988,
          "velocity": 0.7874015748031497,
          "duration": 0.4000000000000057
        },
        {
          "name": "D#5",
          "midi": 75,
          "time": 207.19999999999987,
          "velocity": 0.7874015748031497,
          "duration": 0.4000000000000057
        },
        {
          "name": "G#5",
          "midi": 80,
          "time": 208.79999999999987,
          "velocity": 0.7874015748031497,
          "duration": 0.4000000000000057
        },
        {
          "name": "F#5",
          "midi": 78,
          "time": 209.19999999999987,
          "velocity": 0.7874015748031497,
          "duration": 0.4000000000000057
        },
        {
          "name": "F5",
          "midi": 77,
          "time": 209.59999999999988,
          "velocity": 0.7874015748031497,
          "duration": 0.4000000000000057
        },
        {
          "name": "D#5",
          "midi": 75,
          "time": 209.9999999999999,
          "velocity": 0.7874015748031497,
          "duration": 0.4000000000000057
        },
        {
          "name": "C5",
          "midi": 72,
          "time": 210.3999999999999,
          "velocity": 0.7874015748031497,
          "duration": 0.39750000000000796
        },
        {
          "name": "C5",
          "midi": 72,
          "time": 211.9999999999999,
          "velocity": 0.7874015748031497,
          "duration": 0.4000000000000057
        },
        {
          "name": "F5",
          "midi": 77,
          "time": 213.59999999999988,
          "velocity": 0.7874015748031497,
          "duration": 0.09749999999999659
        },
        {
          "name": "F4",
          "midi": 65,
          "time": 215.19999999999987,
          "velocity": 0.7874015748031497,
          "duration": 0.4000000000000057
        },
        {
          "name": "G4",
          "midi": 67,
          "time": 215.59999999999988,
          "velocity": 0.7874015748031497,
          "duration": 0.4000000000000057
        },
        {
          "name": "G#4",
          "midi": 68,
          "time": 215.9999999999999,
          "velocity": 0.7874015748031497,
          "duration": 0.4000000000000057
        },
        {
          "name": "A#4",
          "midi": 70,
          "time": 216.3999999999999,
          "velocity": 0.7874015748031497,
          "duration": 0.25
        },
        {
          "name": "G#5",
          "midi": 80,
          "time": 216.7999999999999,
          "velocity": 0.7874015748031497,
          "duration": 0.09999999999999432
        },
        {
          "name": "G5",
          "midi": 79,
          "time": 217.59999999999988,
          "velocity": 0.7874015748031497,
          "duration": 0.09999999999999432
        },
        {
          "name": "A#5",
          "midi": 82,
          "time": 218.39999999999986,
          "velocity": 0.7874015748031497,
          "duration": 0.09999999999999432
        },
        {
          "name": "G#5",
          "midi": 80,
          "time": 219.19999999999985,
          "velocity": 0.7874015748031497,
          "duration": 0.09999999999999432
        },
        {
          "name": "F4",
          "midi": 65,
          "time": 220.0016666666665,
          "velocity": 0.7874015748031497,
          "duration": 0.06499999999999773
        },
        {
          "name": "G4",
          "midi": 67,
          "time": 220.39999999999984,
          "velocity": 0.7874015748031497,
          "duration": 0.06666666666666288
        },
        {
          "name": "G#4",
          "midi": 68,
          "time": 220.79999999999984,
          "velocity": 0.7874015748031497,
          "duration": 0.06666666666666288
        },
        {
          "name": "A#4",
          "midi": 70,
          "time": 221.19999999999985,
          "velocity": 0.7874015748031497,
          "duration": 0.4000000000000057
        },
        {
          "name": "A#4",
          "midi": 70,
          "time": 221.59999999999985,
          "velocity": 0.7874015748031497,
          "duration": 0.09499999999999886
        },
        {
          "name": "G#4",
          "midi": 68,
          "time": 222.69999999999985,
          "velocity": 0.7874015748031497,
          "duration": 0.5
        },
        {
          "name": "G4",
          "midi": 67,
          "time": 223.20499999999984,
          "velocity": 0.7874015748031497,
          "duration": 0.4000000000000057
        },
        {
          "name": "A#4",
          "midi": 70,
          "time": 224.79999999999984,
          "velocity": 0.7874015748031497,
          "duration": 0.19999999999998863
        },
        {
          "name": "A4",
          "midi": 69,
          "time": 226.40083333333317,
          "velocity": 0.7874015748031497,
          "duration": 0.4000000000000057
        },
        {
          "name": "C5",
          "midi": 72,
          "time": 227.99999999999983,
          "velocity": 0.7874015748031497,
          "duration": 0.19999999999998863
        },
        {
          "name": "D5",
          "midi": 74,
          "time": 228.59999999999982,
          "velocity": 0.7874015748031497,
          "duration": 1
        },
        {
          "name": "D#4",
          "midi": 63,
          "time": 229.59999999999982,
          "velocity": 0.7874015748031497,
          "duration": 0.13333333333332575
        },
        {
          "name": "G4",
          "midi": 67,
          "time": 230.4141666666665,
          "velocity": 0.7874015748031497,
          "duration": 0.13333333333332575
        },
        {
          "name": "A#4",
          "midi": 70,
          "time": 231.19999999999982,
          "velocity": 0.7874015748031497,
          "duration": 0.12000000000000455
        },
        {
          "name": "A#4",
          "midi": 70,
          "time": 231.99999999999983,
          "velocity": 0.7874015748031497,
          "duration": 0.8000000000000114
        },
        {
          "name": "F4",
          "midi": 65,
          "time": 232.79999999999984,
          "velocity": 0.7874015748031497,
          "duration": 0.13333333333332575
        },
        {
          "name": "A4",
          "midi": 69,
          "time": 233.6141666666665,
          "velocity": 0.7874015748031497,
          "duration": 0.13333333333332575
        },
        {
          "name": "D#5",
          "midi": 75,
          "time": 234.39999999999984,
          "velocity": 0.7874015748031497,
          "duration": 0.11666666666667425
        },
        {
          "name": "D6",
          "midi": 86,
          "time": 235.19999999999985,
          "velocity": 0.7874015748031497,
          "duration": 0.806666666666672
        },
        {
          "name": "A#4",
          "midi": 70,
          "time": 235.99999999999986,
          "velocity": 0.7874015748031497,
          "duration": 0.4000000000000057
        },
        {
          "name": "A4",
          "midi": 69,
          "time": 236.39999999999986,
          "velocity": 0.7874015748031497,
          "duration": 0.4000000000000057
        },
        {
          "name": "G4",
          "midi": 67,
          "time": 236.79999999999987,
          "velocity": 0.7874015748031497,
          "duration": 0.4000000000000057
        },
        {
          "name": "F4",
          "midi": 65,
          "time": 237.20749999999987,
          "velocity": 0.7874015748031497,
          "duration": 0.4000000000000057
        },
        {
          "name": "G4",
          "midi": 67,
          "time": 237.59999999999988,
          "velocity": 0.7874015748031497,
          "duration": 0.19999999999998863
        },
        {
          "name": "C5",
          "midi": 72,
          "time": 239.19999999999987,
          "velocity": 0.7874015748031497,
          "duration": 0.19999999999998863
        },
        {
          "name": "G4",
          "midi": 67,
          "time": 240.79999999999987,
          "velocity": 0.7874015748031497,
          "duration": 0.19999999999998863
        },
        {
          "name": "C5",
          "midi": 72,
          "time": 242.39999999999986,
          "velocity": 0.7874015748031497,
          "duration": 0.4000000000000057
        },
        {
          "name": "A#4",
          "midi": 70,
          "time": 242.79999999999987,
          "velocity": 0.7874015748031497,
          "duration": 0.4000000000000057
        },
        {
          "name": "A4",
          "midi": 69,
          "time": 243.19999999999987,
          "velocity": 0.7874015748031497,
          "duration": 0.4000000000000057
        },
        {
          "name": "G4",
          "midi": 67,
          "time": 243.6033333333332,
          "velocity": 0.7874015748031497,
          "duration": 0.4000000000000057
        },
        {
          "name": "F4",
          "midi": 65,
          "time": 243.9999999999999,
          "velocity": 0.7874015748031497,
          "duration": 0.4000000000000057
        },
        {
          "name": "C5",
          "midi": 72,
          "time": 245.59999999999988,
          "velocity": 0.7874015748031497,
          "duration": 0.4000000000000057
        },
        {
          "name": "F4",
          "midi": 65,
          "time": 247.19999999999987,
          "velocity": 0.7874015748031497,
          "duration": 0.4000000000000057
        },
        {
          "name": "F4",
          "midi": 65,
          "time": 248.79999999999987,
          "velocity": 0.7874015748031497,
          "duration": 0.13333333333332575
        },
        {
          "name": "G4",
          "midi": 67,
          "time": 249.19999999999987,
          "velocity": 0.7874015748031497,
          "duration": 0.13333333333332575
        },
        {
          "name": "A4",
          "midi": 69,
          "time": 249.59999999999988,
          "velocity": 0.7874015748031497,
          "duration": 0.13333333333332575
        },
        {
          "name": "A#4",
          "midi": 70,
          "time": 249.9999999999999,
          "velocity": 0.7874015748031497,
          "duration": 0.13333333333332575
        },
        {
          "name": "D#3",
          "midi": 51,
          "time": 250.3999999999999,
          "velocity": 0.7874015748031497,
          "duration": 0.5999999999999943
        },
        {
          "name": "D#3",
          "midi": 51,
          "time": 250.9999999999999,
          "velocity": 0.7874015748031497,
          "duration": 0.5999999999999943
        },
        {
          "name": "D#3",
          "midi": 51,
          "time": 251.59999999999988,
          "velocity": 0.7874015748031497,
          "duration": 0.4000000000000057
        },
        {
          "name": "D#3",
          "midi": 51,
          "time": 251.9999999999999,
          "velocity": 0.7874015748031497,
          "duration": 0.5999999999999943
        },
        {
          "name": "D#3",
          "midi": 51,
          "time": 252.59999999999988,
          "velocity": 0.7874015748031497,
          "duration": 0.5999999999999943
        },
        {
          "name": "D#3",
          "midi": 51,
          "time": 253.19999999999987,
          "velocity": 0.7874015748031497,
          "duration": 0.4000000000000057
        },
        {
          "name": "F3",
          "midi": 53,
          "time": 253.59999999999988,
          "velocity": 0.7874015748031497,
          "duration": 0.13333333333332575
        },
        {
          "name": "G3",
          "midi": 55,
          "time": 256.7999999999999,
          "velocity": 0.7874015748031497,
          "duration": 0.30000000000001137
        },
        {
          "name": "A3",
          "midi": 57,
          "time": 257.3999999999999,
          "velocity": 0.7874015748031497,
          "duration": 0.30000000000001137
        },
        {
          "name": "A#3",
          "midi": 58,
          "time": 257.99999999999994,
          "velocity": 0.7874015748031497,
          "duration": 0.30000000000001137
        },
        {
          "name": "G3",
          "midi": 55,
          "time": 258.4,
          "velocity": 0.7874015748031497,
          "duration": 0.30000000000001137
        },
        {
          "name": "A3",
          "midi": 57,
          "time": 259,
          "velocity": 0.7874015748031497,
          "duration": 0.30000000000001137
        },
        {
          "name": "A#3",
          "midi": 58,
          "time": 259.6,
          "velocity": 0.7874015748031497,
          "duration": 0.30000000000001137
        },
        {
          "name": "A3",
          "midi": 57,
          "time": 260.00000000000006,
          "velocity": 0.7874015748031497,
          "duration": 0.30000000000001137
        },
        {
          "name": "A#3",
          "midi": 58,
          "time": 260.6000000000001,
          "velocity": 0.7874015748031497,
          "duration": 0.30000000000001137
        },
        {
          "name": "C4",
          "midi": 60,
          "time": 261.2000000000001,
          "velocity": 0.7874015748031497,
          "duration": 0.30000000000001137
        },
        {
          "name": "F#2",
          "midi": 42,
          "time": 261.60000000000014,
          "velocity": 0.7874015748031497,
          "duration": 0.10000000000002274
        },
        {
          "name": "A#2",
          "midi": 46,
          "time": 263.20000000000016,
          "velocity": 0.7874015748031497,
          "duration": 1.5749999999999886
        },
        {
          "name": "F3",
          "midi": 53,
          "time": 263.20000000000016,
          "velocity": 0.7874015748031497,
          "duration": 1.599999999999966
        },
        {
          "name": "F2",
          "midi": 41,
          "time": 264.8000000000001,
          "velocity": 0.7874015748031497,
          "duration": 1.6000000000000227
        },
        {
          "name": "C3",
          "midi": 48,
          "time": 264.8000000000001,
          "velocity": 0.7874015748031497,
          "duration": 1.6000000000000227
        },
        {
          "name": "G2",
          "midi": 43,
          "time": 266.40000000000015,
          "velocity": 0.7874015748031497,
          "duration": 1.6000000000000227
        },
        {
          "name": "D3",
          "midi": 50,
          "time": 266.40000000000015,
          "velocity": 0.7874015748031497,
          "duration": 1.6000000000000227
        },
        {
          "name": "D3",
          "midi": 50,
          "time": 268.00000000000017,
          "velocity": 0.7874015748031497,
          "duration": 0.6000000000000227
        },
        {
          "name": "A3",
          "midi": 57,
          "time": 268.00000000000017,
          "velocity": 0.7874015748031497,
          "duration": 0.6000000000000227
        },
        {
          "name": "D#3",
          "midi": 51,
          "time": 269.6000000000002,
          "velocity": 0.7874015748031497,
          "duration": 1.6000000000000227
        },
        {
          "name": "A#3",
          "midi": 58,
          "time": 269.6000000000002,
          "velocity": 0.7874015748031497,
          "duration": 1.6000000000000227
        },
        {
          "name": "A#2",
          "midi": 46,
          "time": 271.2000000000002,
          "velocity": 0.7874015748031497,
          "duration": 1.6000000000000227
        },
        {
          "name": "F3",
          "midi": 53,
          "time": 271.2000000000002,
          "velocity": 0.7874015748031497,
          "duration": 1.6000000000000227
        },
        {
          "name": "F3",
          "midi": 53,
          "time": 272.80000000000024,
          "velocity": 0.7874015748031497,
          "duration": 0.6000000000000227
        },
        {
          "name": "C4",
          "midi": 60,
          "time": 272.80000000000024,
          "velocity": 0.7874015748031497,
          "duration": 0.6000000000000227
        },
        {
          "name": "F3",
          "midi": 53,
          "time": 274.40000000000026,
          "velocity": 0.7874015748031497,
          "duration": 0.5
        },
        {
          "name": "C4",
          "midi": 60,
          "time": 274.40000000000026,
          "velocity": 0.7874015748031497,
          "duration": 0.5
        },
        {
          "name": "G2",
          "midi": 43,
          "time": 276.0000000000003,
          "velocity": 0.7874015748031497,
          "duration": 1.6000000000000227
        },
        {
          "name": "D3",
          "midi": 50,
          "time": 276.0000000000003,
          "velocity": 0.7874015748031497,
          "duration": 1.6000000000000227
        },
        {
          "name": "D3",
          "midi": 50,
          "time": 277.6000000000003,
          "velocity": 0.7874015748031497,
          "duration": 1.6000000000000227
        },
        {
          "name": "A3",
          "midi": 57,
          "time": 277.6000000000003,
          "velocity": 0.7874015748031497,
          "duration": 1.6000000000000227
        },
        {
          "name": "D#3",
          "midi": 51,
          "time": 279.20000000000033,
          "velocity": 0.7874015748031497,
          "duration": 1.6000000000000227
        },
        {
          "name": "A#3",
          "midi": 58,
          "time": 279.20000000000033,
          "velocity": 0.7874015748031497,
          "duration": 1.6000000000000227
        },
        {
          "name": "A#2",
          "midi": 46,
          "time": 280.80000000000035,
          "velocity": 0.7874015748031497,
          "duration": 0.6000000000000227
        },
        {
          "name": "F3",
          "midi": 53,
          "time": 280.80000000000035,
          "velocity": 0.7874015748031497,
          "duration": 0.6000000000000227
        },
        {
          "name": "D#3",
          "midi": 51,
          "time": 282.4000000000004,
          "velocity": 0.7874015748031497,
          "duration": 0.6000000000000227
        },
        {
          "name": "A#3",
          "midi": 58,
          "time": 282.4000000000004,
          "velocity": 0.7874015748031497,
          "duration": 0.6000000000000227
        },
        {
          "name": "A#2",
          "midi": 46,
          "time": 284.0000000000004,
          "velocity": 0.7874015748031497,
          "duration": 0.6000000000000227
        },
        {
          "name": "F3",
          "midi": 53,
          "time": 284.0000000000004,
          "velocity": 0.7874015748031497,
          "duration": 0.6000000000000227
        },
        {
          "name": "F3",
          "midi": 53,
          "time": 285.6000000000004,
          "velocity": 0.7874015748031497,
          "duration": 0.19999999999998863
        },
        {
          "name": "C4",
          "midi": 60,
          "time": 285.6000000000004,
          "velocity": 0.7874015748031497,
          "duration": 0.5999999999999659
        },
        {
          "name": "F2",
          "midi": 41,
          "time": 288.8000000000004,
          "velocity": 0.7874015748031497,
          "duration": 0.10000000000002274
        },
        {
          "name": "C3",
          "midi": 48,
          "time": 288.8000000000004,
          "velocity": 0.7874015748031497,
          "duration": 0.20000000000004547
        },
        {
          "name": "G3",
          "midi": 55,
          "time": 290.40000000000043,
          "velocity": 0.7874015748031497,
          "duration": 0.20000000000004547
        },
        {
          "name": "C3",
          "midi": 48,
          "time": 290.40333333333376,
          "velocity": 0.7874015748031497,
          "duration": 0.09666666666669244
        },
        {
          "name": "C#3",
          "midi": 49,
          "time": 292.00000000000045,
          "velocity": 0.7874015748031497,
          "duration": 0.10000000000002274
        },
        {
          "name": "G#3",
          "midi": 56,
          "time": 292.00000000000045,
          "velocity": 0.7874015748031497,
          "duration": 0.20000000000004547
        },
        {
          "name": "G#2",
          "midi": 44,
          "time": 293.6000000000005,
          "velocity": 0.7874015748031497,
          "duration": 0.10000000000002274
        },
        {
          "name": "D#3",
          "midi": 51,
          "time": 293.6000000000005,
          "velocity": 0.7874015748031497,
          "duration": 0.20000000000004547
        },
        {
          "name": "C#3",
          "midi": 49,
          "time": 295.2000000000005,
          "velocity": 0.7874015748031497,
          "duration": 0.10000000000002274
        },
        {
          "name": "G#3",
          "midi": 56,
          "time": 295.2000000000005,
          "velocity": 0.7874015748031497,
          "duration": 0.20000000000004547
        },
        {
          "name": "G#2",
          "midi": 44,
          "time": 296.8000000000005,
          "velocity": 0.7874015748031497,
          "duration": 0.10000000000002274
        },
        {
          "name": "D#3",
          "midi": 51,
          "time": 296.8000000000005,
          "velocity": 0.7874015748031497,
          "duration": 0.20000000000004547
        },
        {
          "name": "A#3",
          "midi": 58,
          "time": 298.40000000000055,
          "velocity": 0.7874015748031497,
          "duration": 0.6000000000000227
        },
        {
          "name": "F2",
          "midi": 41,
          "time": 301.6000000000006,
          "velocity": 0.7874015748031497,
          "duration": 0.10000000000002274
        },
        {
          "name": "C3",
          "midi": 48,
          "time": 301.6000000000006,
          "velocity": 0.7874015748031497,
          "duration": 0.20000000000004547
        },
        {
          "name": "C3",
          "midi": 48,
          "time": 303.2000000000006,
          "velocity": 0.7874015748031497,
          "duration": 0.10000000000002274
        },
        {
          "name": "G3",
          "midi": 55,
          "time": 303.2000000000006,
          "velocity": 0.7874015748031497,
          "duration": 0.20000000000004547
        },
        {
          "name": "C#3",
          "midi": 49,
          "time": 304.80000000000064,
          "velocity": 0.7874015748031497,
          "duration": 0.10000000000002274
        },
        {
          "name": "G#3",
          "midi": 56,
          "time": 304.80000000000064,
          "velocity": 0.7874015748031497,
          "duration": 0.20000000000004547
        },
        {
          "name": "G#2",
          "midi": 44,
          "time": 306.40000000000066,
          "velocity": 0.7874015748031497,
          "duration": 0.10000000000002274
        },
        {
          "name": "D#3",
          "midi": 51,
          "time": 306.40000000000066,
          "velocity": 0.7874015748031497,
          "duration": 0.20000000000004547
        },
        {
          "name": "C#3",
          "midi": 49,
          "time": 308.0000000000007,
          "velocity": 0.7874015748031497,
          "duration": 0.10000000000002274
        },
        {
          "name": "G#3",
          "midi": 56,
          "time": 308.0000000000007,
          "velocity": 0.7874015748031497,
          "duration": 0.20000000000004547
        },
        {
          "name": "G#2",
          "midi": 44,
          "time": 309.6000000000007,
          "velocity": 0.7874015748031497,
          "duration": 0.10000000000002274
        },
        {
          "name": "D#3",
          "midi": 51,
          "time": 309.6000000000007,
          "velocity": 0.7874015748031497,
          "duration": 0.20000000000004547
        },
        {
          "name": "A#3",
          "midi": 58,
          "time": 311.2000000000007,
          "velocity": 0.7874015748031497,
          "duration": 0.6000000000000227
        },
        {
          "name": "G#3",
          "midi": 56,
          "time": 314.4000000000008,
          "velocity": 0.7874015748031497,
          "duration": 0.6000000000000227
        },
        {
          "name": "D#3",
          "midi": 51,
          "time": 316.0000000000008,
          "velocity": 0.7874015748031497,
          "duration": 0.6000000000000227
        },
        {
          "name": "D#3",
          "midi": 51,
          "time": 317.6000000000008,
          "velocity": 0.7874015748031497,
          "duration": 0.19999999999998863
        },
        {
          "name": "A#3",
          "midi": 58,
          "time": 317.6000000000008,
          "velocity": 0.7874015748031497,
          "duration": 0.5999999999999659
        },
        {
          "name": "A#2",
          "midi": 46,
          "time": 320.8000000000008,
          "velocity": 0.7874015748031497,
          "duration": 1.6000000000000227
        },
        {
          "name": "F3",
          "midi": 53,
          "time": 320.8000000000008,
          "velocity": 0.7874015748031497,
          "duration": 1.6000000000000227
        },
        {
          "name": "D#3",
          "midi": 51,
          "time": 322.40000000000083,
          "velocity": 0.7874015748031497,
          "duration": 1.6000000000000227
        },
        {
          "name": "A#3",
          "midi": 58,
          "time": 322.40000000000083,
          "velocity": 0.7874015748031497,
          "duration": 1.6000000000000227
        },
        {
          "name": "C3",
          "midi": 48,
          "time": 324.00000000000085,
          "velocity": 0.7874015748031497,
          "duration": 0.19999999999998863
        },
        {
          "name": "C3",
          "midi": 48,
          "time": 325.6000000000008,
          "velocity": 0.7874015748031497,
          "duration": 0.19999999999998863
        },
        {
          "name": "F3",
          "midi": 53,
          "time": 326.8000000000008,
          "velocity": 0.7874015748031497,
          "duration": 0.19999999999998863
        },
        {
          "name": "C3",
          "midi": 48,
          "time": 327.20416666666745,
          "velocity": 0.7874015748031497,
          "duration": 0.19999999999998863
        },
        {
          "name": "C3",
          "midi": 48,
          "time": 328.4000000000008,
          "velocity": 0.7874015748031497,
          "duration": 0.19999999999998863
        },
        {
          "name": "D#3",
          "midi": 51,
          "time": 328.80000000000075,
          "velocity": 0.7874015748031497,
          "duration": 0.10000000000002274
        },
        {
          "name": "C#3",
          "midi": 49,
          "time": 329.2000000000008,
          "velocity": 0.7874015748031497,
          "duration": 0.10000000000002274
        },
        {
          "name": "C3",
          "midi": 48,
          "time": 329.6000000000008,
          "velocity": 0.7874015748031497,
          "duration": 0.10000000000002274
        },
        {
          "name": "A#2",
          "midi": 46,
          "time": 330.00000000000085,
          "velocity": 0.7874015748031497,
          "duration": 0.10000000000002274
        },
        {
          "name": "G#2",
          "midi": 44,
          "time": 330.4000000000009,
          "velocity": 0.7874015748031497,
          "duration": 2.3999999999999773
        },
        {
          "name": "C3",
          "midi": 48,
          "time": 330.4000000000009,
          "velocity": 0.7874015748031497,
          "duration": 2.3999999999999773
        },
        {
          "name": "D#3",
          "midi": 51,
          "time": 330.4000000000009,
          "velocity": 0.7874015748031497,
          "duration": 2.3999999999999773
        }
      ],
      "controlChanges": {},
      "id": 1,
      "name": "Midi Beginner JITU",
      "channelNumber": 0,
      "isPercussion": false
    }
  ]
}