{
  "header": {
    "PPQ": 480,
    "bpm": 150,
    "timeSignature": [
      4,
      4
    ],
    "name": "Dentalist Beginner Midi Git"
  },
  "tempo": [
    {
      "absoluteTime": 0,
      "seconds": 0,
      "bpm": 150
    }
  ],
  "timeSignature": [
    {
      "absoluteTime": 0,
      "seconds": 0,
      "numerator": 1,
      "denominator": 2,
      "click": 24,
      "notesQ": 8
    },
    {
      "absoluteTime": 1920,
      "seconds": 1.6,
      "numerator": 4,
      "denominator": 2,
      "click": 24,
      "notesQ": 8
    },
    {
      "absoluteTime": 38400,
      "seconds": 32,
      "numerator": 4,
      "denominator": 2,
      "click": 24,
      "notesQ": 8
    },
    {
      "absoluteTime": 59520,
      "seconds": 49.6,
      "numerator": 4,
      "denominator": 2,
      "click": 24,
      "notesQ": 8
    },
    {
      "absoluteTime": 119040,
      "seconds": 99.2,
      "numerator": 4,
      "denominator": 2,
      "click": 24,
      "notesQ": 8
    },
    {
      "absoluteTime": 147840,
      "seconds": 123.2,
      "numerator": 4,
      "denominator": 2,
      "click": 24,
      "notesQ": 8
    },
    {
      "absoluteTime": 151680,
      "seconds": 126.4,
      "numerator": 4,
      "denominator": 2,
      "click": 24,
      "notesQ": 8
    },
    {
      "absoluteTime": 170880,
      "seconds": 142.4,
      "numerator": 4,
      "denominator": 2,
      "click": 24,
      "notesQ": 8
    }
  ],
  "startTime": 0,
  "duration": 332.8000000000026,
  "tracks": [
    {
      "startTime": 0,
      "duration": 0,
      "length": 0,
      "notes": [],
      "controlChanges": {},
      "id": 0,
      "name": "Dentalist Beginner Midi Git"
    },
    {
      "startTime": 3,
      "duration": 332.8000000000026,
      "length": 1120,
      "notes": [
        {
          "name": "A4",
          "midi": 69,
          "time": 3,
          "velocity": 0.7874015748031497,
          "duration": 0.20000000000000018
        },
        {
          "name": "A4",
          "midi": 69,
          "time": 3.2,
          "velocity": 0.7874015748031497,
          "duration": 0.3999999999999999
        },
        {
          "name": "A#4",
          "midi": 70,
          "time": 3.6,
          "velocity": 0.7874015748031497,
          "duration": 0.06666666666666687
        },
        {
          "name": "C5",
          "midi": 72,
          "time": 4,
          "velocity": 0.7874015748031497,
          "duration": 0.06666666666666643
        },
        {
          "name": "A#4",
          "midi": 70,
          "time": 4.3999999999999995,
          "velocity": 0.7874015748031497,
          "duration": 0.20000000000000018
        },
        {
          "name": "A4",
          "midi": 69,
          "time": 4.6,
          "velocity": 0.7874015748031497,
          "duration": 0.20000000000000018
        },
        {
          "name": "A4",
          "midi": 69,
          "time": 4.8,
          "velocity": 0.7874015748031497,
          "duration": 0.40000000000000036
        },
        {
          "name": "A#4",
          "midi": 70,
          "time": 5.2,
          "velocity": 0.7874015748031497,
          "duration": 0.06666666666666643
        },
        {
          "name": "C5",
          "midi": 72,
          "time": 5.6,
          "velocity": 0.7874015748031497,
          "duration": 0.06666666666666643
        },
        {
          "name": "A#4",
          "midi": 70,
          "time": 5.999999999999999,
          "velocity": 0.7874015748031497,
          "duration": 0.20000000000000018
        },
        {
          "name": "A4",
          "midi": 69,
          "time": 6.199999999999999,
          "velocity": 0.7874015748031497,
          "duration": 0.20000000000000018
        },
        {
          "name": "A4",
          "midi": 69,
          "time": 6.3999999999999995,
          "velocity": 0.7874015748031497,
          "duration": 0.40000000000000036
        },
        {
          "name": "A#4",
          "midi": 70,
          "time": 6.8,
          "velocity": 0.7874015748031497,
          "duration": 0.06666666666666643
        },
        {
          "name": "D5",
          "midi": 74,
          "time": 7.199999999999999,
          "velocity": 0.7874015748031497,
          "duration": 0.06666666666666643
        },
        {
          "name": "A#4",
          "midi": 70,
          "time": 7.599999999999999,
          "velocity": 0.7874015748031497,
          "duration": 0.20000000000000018
        },
        {
          "name": "A4",
          "midi": 69,
          "time": 7.799999999999999,
          "velocity": 0.7874015748031497,
          "duration": 0.20000000000000018
        },
        {
          "name": "A4",
          "midi": 69,
          "time": 7.999999999999999,
          "velocity": 0.7874015748031497,
          "duration": 0.39999999999999947
        },
        {
          "name": "A#4",
          "midi": 70,
          "time": 8.399999999999999,
          "velocity": 0.7874015748031497,
          "duration": 0.06666666666666643
        },
        {
          "name": "D5",
          "midi": 74,
          "time": 8.799999999999999,
          "velocity": 0.7874015748031497,
          "duration": 0.06666666666666643
        },
        {
          "name": "A#4",
          "midi": 70,
          "time": 9.2,
          "velocity": 0.7874015748031497,
          "duration": 0.1999999999999993
        },
        {
          "name": "A4",
          "midi": 69,
          "time": 9.399999999999999,
          "velocity": 0.7874015748031497,
          "duration": 0.1999999999999993
        },
        {
          "name": "A4",
          "midi": 69,
          "time": 9.599999999999998,
          "velocity": 0.7874015748031497,
          "duration": 0.40000000000000036
        },
        {
          "name": "A#4",
          "midi": 70,
          "time": 9.999999999999998,
          "velocity": 0.7874015748031497,
          "duration": 0.06666666666666643
        },
        {
          "name": "C5",
          "midi": 72,
          "time": 10.399999999999999,
          "velocity": 0.7874015748031497,
          "duration": 0.06666666666666643
        },
        {
          "name": "A#4",
          "midi": 70,
          "time": 10.799999999999999,
          "velocity": 0.7874015748031497,
          "duration": 0.20083333333333186
        },
        {
          "name": "A4",
          "midi": 69,
          "time": 10.999999999999998,
          "velocity": 0.7874015748031497,
          "duration": 0.1999999999999993
        },
        {
          "name": "A4",
          "midi": 69,
          "time": 11.199999999999998,
          "velocity": 0.7874015748031497,
          "duration": 0.3999999999999986
        },
        {
          "name": "A#4",
          "midi": 70,
          "time": 11.599166666666664,
          "velocity": 0.7874015748031497,
          "duration": 0.067499999999999
        },
        {
          "name": "C5",
          "midi": 72,
          "time": 11.991666666666662,
          "velocity": 0.7874015748031497,
          "duration": 0.07499999999999929
        },
        {
          "name": "A#4",
          "midi": 70,
          "time": 12.399999999999995,
          "velocity": 0.7874015748031497,
          "duration": 0.40000000000000036
        },
        {
          "name": "G4",
          "midi": 67,
          "time": 12.798333333333328,
          "velocity": 0.7874015748031497,
          "duration": 3
        },
        {
          "name": "A4",
          "midi": 69,
          "time": 15.799999999999995,
          "velocity": 0.7874015748031497,
          "duration": 0.1999999999999993
        },
        {
          "name": "A4",
          "midi": 69,
          "time": 15.999999999999995,
          "velocity": 0.7874015748031497,
          "duration": 0.40000000000000036
        },
        {
          "name": "A#4",
          "midi": 70,
          "time": 16.399999999999995,
          "velocity": 0.7874015748031497,
          "duration": 0.06666666666666643
        },
        {
          "name": "C5",
          "midi": 72,
          "time": 16.799999999999994,
          "velocity": 0.7874015748031497,
          "duration": 0.06666666666666643
        },
        {
          "name": "A#4",
          "midi": 70,
          "time": 17.199999999999992,
          "velocity": 0.7874015748031497,
          "duration": 0.1999999999999993
        },
        {
          "name": "A4",
          "midi": 69,
          "time": 17.39999999999999,
          "velocity": 0.7874015748031497,
          "duration": 0.1999999999999993
        },
        {
          "name": "A4",
          "midi": 69,
          "time": 17.59999999999999,
          "velocity": 0.7874015748031497,
          "duration": 0.3999999999999986
        },
        {
          "name": "A#4",
          "midi": 70,
          "time": 17.99999999999999,
          "velocity": 0.7874015748031497,
          "duration": 0.06666666666666643
        },
        {
          "name": "C5",
          "midi": 72,
          "time": 18.399999999999988,
          "velocity": 0.7874015748031497,
          "duration": 0.06666666666666643
        },
        {
          "name": "A#4",
          "midi": 70,
          "time": 18.799999999999986,
          "velocity": 0.7874015748031497,
          "duration": 0.1999999999999993
        },
        {
          "name": "A4",
          "midi": 69,
          "time": 18.999999999999986,
          "velocity": 0.7874015748031497,
          "duration": 0.1999999999999993
        },
        {
          "name": "A4",
          "midi": 69,
          "time": 19.199999999999985,
          "velocity": 0.7874015748031497,
          "duration": 0.3999999999999986
        },
        {
          "name": "A#4",
          "midi": 70,
          "time": 19.599999999999984,
          "velocity": 0.7874015748031497,
          "duration": 0.06666666666666643
        },
        {
          "name": "D5",
          "midi": 74,
          "time": 19.999999999999982,
          "velocity": 0.7874015748031497,
          "duration": 0.06666666666666643
        },
        {
          "name": "A#4",
          "midi": 70,
          "time": 20.39999999999998,
          "velocity": 0.7874015748031497,
          "duration": 0.1999999999999993
        },
        {
          "name": "A4",
          "midi": 69,
          "time": 20.59999999999998,
          "velocity": 0.7874015748031497,
          "duration": 0.1999999999999993
        },
        {
          "name": "A4",
          "midi": 69,
          "time": 20.79999999999998,
          "velocity": 0.7874015748031497,
          "duration": 0.3999999999999986
        },
        {
          "name": "A#4",
          "midi": 70,
          "time": 21.199999999999978,
          "velocity": 0.7874015748031497,
          "duration": 0.06666666666666643
        },
        {
          "name": "D5",
          "midi": 74,
          "time": 21.599999999999977,
          "velocity": 0.7874015748031497,
          "duration": 0.06666666666666643
        },
        {
          "name": "A#4",
          "midi": 70,
          "time": 21.999999999999975,
          "velocity": 0.7874015748031497,
          "duration": 0.1999999999999993
        },
        {
          "name": "A4",
          "midi": 69,
          "time": 22.199999999999974,
          "velocity": 0.7874015748031497,
          "duration": 0.1999999999999993
        },
        {
          "name": "A4",
          "midi": 69,
          "time": 22.399999999999974,
          "velocity": 0.7874015748031497,
          "duration": 0.3999999999999986
        },
        {
          "name": "A#4",
          "midi": 70,
          "time": 22.799999999999972,
          "velocity": 0.7874015748031497,
          "duration": 0.06666666666666643
        },
        {
          "name": "C5",
          "midi": 72,
          "time": 23.19999999999997,
          "velocity": 0.7874015748031497,
          "duration": 0.06666666666666643
        },
        {
          "name": "A#4",
          "midi": 70,
          "time": 23.59999999999997,
          "velocity": 0.7874015748031497,
          "duration": 0.20083333333333186
        },
        {
          "name": "A4",
          "midi": 69,
          "time": 23.79999999999997,
          "velocity": 0.7874015748031497,
          "duration": 0.1999999999999993
        },
        {
          "name": "A4",
          "midi": 69,
          "time": 23.999999999999968,
          "velocity": 0.7874015748031497,
          "duration": 0.3999999999999986
        },
        {
          "name": "A#4",
          "midi": 70,
          "time": 24.399166666666634,
          "velocity": 0.7874015748031497,
          "duration": 0.067499999999999
        },
        {
          "name": "C5",
          "midi": 72,
          "time": 24.791666666666632,
          "velocity": 0.7874015748031497,
          "duration": 0.07499999999999929
        },
        {
          "name": "A#4",
          "midi": 70,
          "time": 25.199999999999964,
          "velocity": 0.7874015748031497,
          "duration": 0.3999999999999986
        },
        {
          "name": "G4",
          "midi": 67,
          "time": 25.598333333333297,
          "velocity": 0.7874015748031497,
          "duration": 1.5999999999999979
        },
        {
          "name": "G2",
          "midi": 43,
          "time": 27.19999999999996,
          "velocity": 0.7874015748031497,
          "duration": 0.10000000000000142
        },
        {
          "name": "A2",
          "midi": 45,
          "time": 27.599999999999962,
          "velocity": 0.7874015748031497,
          "duration": 0.10000000000000142
        },
        {
          "name": "A#2",
          "midi": 46,
          "time": 27.999999999999964,
          "velocity": 0.7874015748031497,
          "duration": 0.10000000000000142
        },
        {
          "name": "C3",
          "midi": 48,
          "time": 28.399999999999967,
          "velocity": 0.7874015748031497,
          "duration": 0.10000000000000142
        },
        {
          "name": "D3",
          "midi": 50,
          "time": 28.79999999999997,
          "velocity": 0.7874015748031497,
          "duration": 0.1999999999999993
        },
        {
          "name": "G2",
          "midi": 43,
          "time": 29.199166666666635,
          "velocity": 0.7874015748031497,
          "duration": 0.20416666666666572
        },
        {
          "name": "D3",
          "midi": 50,
          "time": 29.399999999999967,
          "velocity": 0.7874015748031497,
          "duration": 0.20083333333333542
        },
        {
          "name": "D3",
          "midi": 50,
          "time": 29.999999999999968,
          "velocity": 0.7874015748031497,
          "duration": 0.1999999999999993
        },
        {
          "name": "D#3",
          "midi": 51,
          "time": 30.199999999999967,
          "velocity": 0.7874015748031497,
          "duration": 0.1999999999999993
        },
        {
          "name": "D3",
          "midi": 50,
          "time": 30.399999999999967,
          "velocity": 0.7874015748031497,
          "duration": 0.1999999999999993
        },
        {
          "name": "G2",
          "midi": 43,
          "time": 30.799999999999965,
          "velocity": 0.7874015748031497,
          "duration": 0.1999999999999993
        },
        {
          "name": "D3",
          "midi": 50,
          "time": 30.999999999999964,
          "velocity": 0.7874015748031497,
          "duration": 0.1999999999999993
        },
        {
          "name": "G3",
          "midi": 55,
          "time": 31.599999999999962,
          "velocity": 0.7874015748031497,
          "duration": 0.1999999999999993
        },
        {
          "name": "D#3",
          "midi": 51,
          "time": 31.79999999999996,
          "velocity": 0.7874015748031497,
          "duration": 0.1999999999999993
        },
        {
          "name": "D3",
          "midi": 50,
          "time": 32.003333333333295,
          "velocity": 0.7874015748031497,
          "duration": 0.20000000000000284
        },
        {
          "name": "G2",
          "midi": 43,
          "time": 32.39999999999996,
          "velocity": 0.7874015748031497,
          "duration": 0.20000000000000284
        },
        {
          "name": "D3",
          "midi": 50,
          "time": 32.599999999999966,
          "velocity": 0.7874015748031497,
          "duration": 0.20000000000000284
        },
        {
          "name": "D3",
          "midi": 50,
          "time": 33.19999999999997,
          "velocity": 0.7874015748031497,
          "duration": 0.20000000000000284
        },
        {
          "name": "G2",
          "midi": 43,
          "time": 33.39999999999997,
          "velocity": 0.7874015748031497,
          "duration": 0.20000000000000284
        },
        {
          "name": "F3",
          "midi": 53,
          "time": 33.59999999999997,
          "velocity": 0.7874015748031497,
          "duration": 0.10000000000000142
        },
        {
          "name": "D#3",
          "midi": 51,
          "time": 33.99999999999997,
          "velocity": 0.7874015748031497,
          "duration": 0.10000000000000142
        },
        {
          "name": "D3",
          "midi": 50,
          "time": 34.39999999999997,
          "velocity": 0.7874015748031497,
          "duration": 0.10000000000000142
        },
        {
          "name": "C3",
          "midi": 48,
          "time": 34.79999999999997,
          "velocity": 0.7874015748031497,
          "duration": 0.10000000000000142
        },
        {
          "name": "D3",
          "midi": 50,
          "time": 35.19999999999997,
          "velocity": 0.7874015748031497,
          "duration": 0.20000000000000284
        },
        {
          "name": "G2",
          "midi": 43,
          "time": 35.59916666666663,
          "velocity": 0.7874015748031497,
          "duration": 0.20416666666666572
        },
        {
          "name": "D3",
          "midi": 50,
          "time": 35.79999999999997,
          "velocity": 0.7874015748031497,
          "duration": 0.2008333333333283
        },
        {
          "name": "D3",
          "midi": 50,
          "time": 36.39999999999996,
          "velocity": 0.7874015748031497,
          "duration": 0.20000000000000284
        },
        {
          "name": "D#3",
          "midi": 51,
          "time": 36.599999999999966,
          "velocity": 0.7874015748031497,
          "duration": 0.20000000000000284
        },
        {
          "name": "D3",
          "midi": 50,
          "time": 36.79999999999997,
          "velocity": 0.7874015748031497,
          "duration": 0.20000000000000284
        },
        {
          "name": "G2",
          "midi": 43,
          "time": 37.199999999999974,
          "velocity": 0.7874015748031497,
          "duration": 0.20000000000000284
        },
        {
          "name": "D3",
          "midi": 50,
          "time": 37.39999999999998,
          "velocity": 0.7874015748031497,
          "duration": 0.20000000000000284
        },
        {
          "name": "G3",
          "midi": 55,
          "time": 37.99999999999998,
          "velocity": 0.7874015748031497,
          "duration": 0.20000000000000284
        },
        {
          "name": "D#3",
          "midi": 51,
          "time": 38.19999999999998,
          "velocity": 0.7874015748031497,
          "duration": 0.20000000000000284
        },
        {
          "name": "D3",
          "midi": 50,
          "time": 38.404166666666654,
          "velocity": 0.7874015748031497,
          "duration": 0.20000000000000284
        },
        {
          "name": "G2",
          "midi": 43,
          "time": 38.79999999999999,
          "velocity": 0.7874015748031497,
          "duration": 0.20000000000000284
        },
        {
          "name": "D3",
          "midi": 50,
          "time": 38.99999999999999,
          "velocity": 0.7874015748031497,
          "duration": 0.20000000000000284
        },
        {
          "name": "D3",
          "midi": 50,
          "time": 39.599999999999994,
          "velocity": 0.7874015748031497,
          "duration": 0.20000000000000284
        },
        {
          "name": "G2",
          "midi": 43,
          "time": 39.8,
          "velocity": 0.7874015748031497,
          "duration": 0.20000000000000284
        },
        {
          "name": "A#2",
          "midi": 46,
          "time": 40,
          "velocity": 0.7874015748031497,
          "duration": 0.3999999999999986
        },
        {
          "name": "D3",
          "midi": 50,
          "time": 40,
          "velocity": 0.7874015748031497,
          "duration": 0.3999999999999986
        },
        {
          "name": "A2",
          "midi": 45,
          "time": 40.4,
          "velocity": 0.7874015748031497,
          "duration": 0.3999999999999986
        },
        {
          "name": "C3",
          "midi": 48,
          "time": 40.4,
          "velocity": 0.7874015748031497,
          "duration": 0.3999999999999986
        },
        {
          "name": "G2",
          "midi": 43,
          "time": 40.8,
          "velocity": 0.7874015748031497,
          "duration": 0.3999999999999986
        },
        {
          "name": "A#2",
          "midi": 46,
          "time": 40.8,
          "velocity": 0.7874015748031497,
          "duration": 0.3999999999999986
        },
        {
          "name": "F2",
          "midi": 41,
          "time": 41.199999999999996,
          "velocity": 0.7874015748031497,
          "duration": 0.3999999999999986
        },
        {
          "name": "A2",
          "midi": 45,
          "time": 41.199999999999996,
          "velocity": 0.7874015748031497,
          "duration": 0.3999999999999986
        },
        {
          "name": "D3",
          "midi": 50,
          "time": 41.599999999999994,
          "velocity": 0.7874015748031497,
          "duration": 0.20000000000000284
        },
        {
          "name": "G2",
          "midi": 43,
          "time": 41.99916666666666,
          "velocity": 0.7874015748031497,
          "duration": 0.20416666666666572
        },
        {
          "name": "D3",
          "midi": 50,
          "time": 42.199999999999996,
          "velocity": 0.7874015748031497,
          "duration": 0.2008333333333283
        },
        {
          "name": "D3",
          "midi": 50,
          "time": 42.79999999999999,
          "velocity": 0.7874015748031497,
          "duration": 0.20000000000000284
        },
        {
          "name": "D#3",
          "midi": 51,
          "time": 42.99999999999999,
          "velocity": 0.7874015748031497,
          "duration": 0.20000000000000284
        },
        {
          "name": "D3",
          "midi": 50,
          "time": 43.199999999999996,
          "velocity": 0.7874015748031497,
          "duration": 0.20000000000000284
        },
        {
          "name": "G2",
          "midi": 43,
          "time": 43.6,
          "velocity": 0.7874015748031497,
          "duration": 0.20000000000000284
        },
        {
          "name": "D3",
          "midi": 50,
          "time": 43.800000000000004,
          "velocity": 0.7874015748031497,
          "duration": 0.20000000000000284
        },
        {
          "name": "G3",
          "midi": 55,
          "time": 44.400000000000006,
          "velocity": 0.7874015748031497,
          "duration": 0.20000000000000284
        },
        {
          "name": "D#3",
          "midi": 51,
          "time": 44.60000000000001,
          "velocity": 0.7874015748031497,
          "duration": 0.20000000000000284
        },
        {
          "name": "D3",
          "midi": 50,
          "time": 44.80416666666668,
          "velocity": 0.7874015748031497,
          "duration": 0.20000000000000284
        },
        {
          "name": "G2",
          "midi": 43,
          "time": 45.20000000000002,
          "velocity": 0.7874015748031497,
          "duration": 0.20000000000000284
        },
        {
          "name": "D3",
          "midi": 50,
          "time": 45.40000000000002,
          "velocity": 0.7874015748031497,
          "duration": 0.20000000000000284
        },
        {
          "name": "D3",
          "midi": 50,
          "time": 46.00000000000002,
          "velocity": 0.7874015748031497,
          "duration": 0.20000000000000284
        },
        {
          "name": "G2",
          "midi": 43,
          "time": 46.200000000000024,
          "velocity": 0.7874015748031497,
          "duration": 0.20000000000000284
        },
        {
          "name": "F3",
          "midi": 53,
          "time": 46.40000000000003,
          "velocity": 0.7874015748031497,
          "duration": 0.10000000000000142
        },
        {
          "name": "D#3",
          "midi": 51,
          "time": 46.800000000000026,
          "velocity": 0.7874015748031497,
          "duration": 0.10000000000000142
        },
        {
          "name": "D3",
          "midi": 50,
          "time": 47.200000000000024,
          "velocity": 0.7874015748031497,
          "duration": 0.10000000000000142
        },
        {
          "name": "C3",
          "midi": 48,
          "time": 47.60000000000002,
          "velocity": 0.7874015748031497,
          "duration": 0.10000000000000142
        },
        {
          "name": "D3",
          "midi": 50,
          "time": 48.00000000000002,
          "velocity": 0.7874015748031497,
          "duration": 0.20000000000000284
        },
        {
          "name": "G2",
          "midi": 43,
          "time": 48.40000000000003,
          "velocity": 0.7874015748031497,
          "duration": 0.20416666666666572
        },
        {
          "name": "D3",
          "midi": 50,
          "time": 48.60083333333336,
          "velocity": 0.7874015748031497,
          "duration": 0.2008333333333283
        },
        {
          "name": "D3",
          "midi": 50,
          "time": 49.20083333333336,
          "velocity": 0.7874015748031497,
          "duration": 0.20000000000000284
        },
        {
          "name": "D#3",
          "midi": 51,
          "time": 49.40083333333336,
          "velocity": 0.7874015748031497,
          "duration": 0.20000000000000284
        },
        {
          "name": "D3",
          "midi": 50,
          "time": 49.60083333333336,
          "velocity": 0.7874015748031497,
          "duration": 0.20000000000000284
        },
        {
          "name": "G2",
          "midi": 43,
          "time": 50.00083333333337,
          "velocity": 0.7874015748031497,
          "duration": 0.20000000000000284
        },
        {
          "name": "D3",
          "midi": 50,
          "time": 50.20083333333337,
          "velocity": 0.7874015748031497,
          "duration": 0.20000000000000284
        },
        {
          "name": "G3",
          "midi": 55,
          "time": 50.80083333333337,
          "velocity": 0.7874015748031497,
          "duration": 0.20000000000000284
        },
        {
          "name": "D#3",
          "midi": 51,
          "time": 51.000833333333375,
          "velocity": 0.7874015748031497,
          "duration": 0.20000000000000284
        },
        {
          "name": "D3",
          "midi": 50,
          "time": 51.20416666666671,
          "velocity": 0.7874015748031497,
          "duration": 0.20000000000000284
        },
        {
          "name": "G2",
          "midi": 43,
          "time": 51.60083333333338,
          "velocity": 0.7874015748031497,
          "duration": 0.20000000000000284
        },
        {
          "name": "D3",
          "midi": 50,
          "time": 51.80083333333338,
          "velocity": 0.7874015748031497,
          "duration": 0.20000000000000284
        },
        {
          "name": "D3",
          "midi": 50,
          "time": 52.40083333333338,
          "velocity": 0.7874015748031497,
          "duration": 0.20000000000000284
        },
        {
          "name": "G2",
          "midi": 43,
          "time": 52.600833333333384,
          "velocity": 0.7874015748031497,
          "duration": 0.19999999999999574
        },
        {
          "name": "C3",
          "midi": 48,
          "time": 52.80000000000005,
          "velocity": 0.7874015748031497,
          "duration": 0.3999999999999986
        },
        {
          "name": "D#3",
          "midi": 51,
          "time": 52.80000000000005,
          "velocity": 0.7874015748031497,
          "duration": 0.3999999999999986
        },
        {
          "name": "A#2",
          "midi": 46,
          "time": 53.200000000000045,
          "velocity": 0.7874015748031497,
          "duration": 0.3999999999999986
        },
        {
          "name": "D3",
          "midi": 50,
          "time": 53.200000000000045,
          "velocity": 0.7874015748031497,
          "duration": 0.3999999999999986
        },
        {
          "name": "A2",
          "midi": 45,
          "time": 53.600000000000044,
          "velocity": 0.7874015748031497,
          "duration": 0.3999999999999986
        },
        {
          "name": "C3",
          "midi": 48,
          "time": 53.600000000000044,
          "velocity": 0.7874015748031497,
          "duration": 0.3999999999999986
        },
        {
          "name": "G2",
          "midi": 43,
          "time": 54.00000000000004,
          "velocity": 0.7874015748031497,
          "duration": 0.4024999999999963
        },
        {
          "name": "A#2",
          "midi": 46,
          "time": 54.00000000000004,
          "velocity": 0.7874015748031497,
          "duration": 0.3999999999999986
        },
        {
          "name": "A#2",
          "midi": 46,
          "time": 54.40000000000004,
          "velocity": 0.7874015748031497,
          "duration": 0.19999999999999574
        },
        {
          "name": "A2",
          "midi": 45,
          "time": 54.80000000000004,
          "velocity": 0.7874015748031497,
          "duration": 0.13333333333333286
        },
        {
          "name": "F2",
          "midi": 41,
          "time": 55.20000000000004,
          "velocity": 0.7874015748031497,
          "duration": 0.13333333333333286
        },
        {
          "name": "A#2",
          "midi": 46,
          "time": 55.60000000000004,
          "velocity": 0.7874015748031497,
          "duration": 0.13333333333333286
        },
        {
          "name": "D#3",
          "midi": 51,
          "time": 56.000000000000036,
          "velocity": 0.7874015748031497,
          "duration": 0.6000000000000014
        },
        {
          "name": "G3",
          "midi": 55,
          "time": 56.000000000000036,
          "velocity": 0.7874015748031497,
          "duration": 0.6000000000000014
        },
        {
          "name": "D#3",
          "midi": 51,
          "time": 56.60000000000004,
          "velocity": 0.7874015748031497,
          "duration": 0.6000000000000014
        },
        {
          "name": "A3",
          "midi": 57,
          "time": 56.60000000000004,
          "velocity": 0.7874015748031497,
          "duration": 0.6000000000000014
        },
        {
          "name": "D#3",
          "midi": 51,
          "time": 57.20000000000004,
          "velocity": 0.7874015748031497,
          "duration": 0.3999999999999986
        },
        {
          "name": "A#3",
          "midi": 58,
          "time": 57.20000000000004,
          "velocity": 0.7874015748031497,
          "duration": 0.3999999999999986
        },
        {
          "name": "D#3",
          "midi": 51,
          "time": 57.60000000000004,
          "velocity": 0.7874015748031497,
          "duration": 0.6000000000000014
        },
        {
          "name": "G3",
          "midi": 55,
          "time": 57.60000000000004,
          "velocity": 0.7874015748031497,
          "duration": 0.6000000000000014
        },
        {
          "name": "D#3",
          "midi": 51,
          "time": 58.20000000000004,
          "velocity": 0.7874015748031497,
          "duration": 0.6000000000000014
        },
        {
          "name": "A3",
          "midi": 57,
          "time": 58.20000000000004,
          "velocity": 0.7874015748031497,
          "duration": 0.6000000000000014
        },
        {
          "name": "D#3",
          "midi": 51,
          "time": 58.80000000000004,
          "velocity": 0.7874015748031497,
          "duration": 0.3999999999999986
        },
        {
          "name": "A#3",
          "midi": 58,
          "time": 58.80000000000004,
          "velocity": 0.7874015748031497,
          "duration": 0.3999999999999986
        },
        {
          "name": "F3",
          "midi": 53,
          "time": 59.20000000000004,
          "velocity": 0.7874015748031497,
          "duration": 0.6000000000000014
        },
        {
          "name": "A3",
          "midi": 57,
          "time": 59.20000000000004,
          "velocity": 0.7874015748031497,
          "duration": 0.6000000000000014
        },
        {
          "name": "F3",
          "midi": 53,
          "time": 59.80000000000004,
          "velocity": 0.7874015748031497,
          "duration": 0.6000000000000014
        },
        {
          "name": "A#3",
          "midi": 58,
          "time": 59.80000000000004,
          "velocity": 0.7874015748031497,
          "duration": 0.6000000000000014
        },
        {
          "name": "F3",
          "midi": 53,
          "time": 60.40000000000004,
          "velocity": 0.7874015748031497,
          "duration": 0.3999999999999986
        },
        {
          "name": "C4",
          "midi": 60,
          "time": 60.40000000000004,
          "velocity": 0.7874015748031497,
          "duration": 0.3999999999999986
        },
        {
          "name": "F3",
          "midi": 53,
          "time": 60.80000000000004,
          "velocity": 0.7874015748031497,
          "duration": 0.13333333333333286
        },
        {
          "name": "F3",
          "midi": 53,
          "time": 61.066666666666706,
          "velocity": 0.7874015748031497,
          "duration": 0.13333333333333286
        },
        {
          "name": "F3",
          "midi": 53,
          "time": 61.33333333333337,
          "velocity": 0.7874015748031497,
          "duration": 0.13333333333333286
        },
        {
          "name": "F3",
          "midi": 53,
          "time": 61.60000000000004,
          "velocity": 0.7874015748031497,
          "duration": 0.13333333333333286
        },
        {
          "name": "F3",
          "midi": 53,
          "time": 61.8666666666667,
          "velocity": 0.7874015748031497,
          "duration": 0.13333333333333286
        },
        {
          "name": "F3",
          "midi": 53,
          "time": 62.13333333333337,
          "velocity": 0.7874015748031497,
          "duration": 0.13333333333333286
        },
        {
          "name": "D#3",
          "midi": 51,
          "time": 62.400000000000034,
          "velocity": 0.7874015748031497,
          "duration": 0.6000000000000014
        },
        {
          "name": "G3",
          "midi": 55,
          "time": 62.400000000000034,
          "velocity": 0.7874015748031497,
          "duration": 0.6000000000000014
        },
        {
          "name": "D#3",
          "midi": 51,
          "time": 63.000000000000036,
          "velocity": 0.7874015748031497,
          "duration": 0.6000000000000014
        },
        {
          "name": "A3",
          "midi": 57,
          "time": 63.000000000000036,
          "velocity": 0.7874015748031497,
          "duration": 0.6000000000000014
        },
        {
          "name": "D#3",
          "midi": 51,
          "time": 63.60000000000004,
          "velocity": 0.7874015748031497,
          "duration": 0.4000000000000057
        },
        {
          "name": "A#3",
          "midi": 58,
          "time": 63.60000000000004,
          "velocity": 0.7874015748031497,
          "duration": 0.4000000000000057
        },
        {
          "name": "D#3",
          "midi": 51,
          "time": 64.00000000000004,
          "velocity": 0.7874015748031497,
          "duration": 0.5999999999999943
        },
        {
          "name": "G3",
          "midi": 55,
          "time": 64.00000000000004,
          "velocity": 0.7874015748031497,
          "duration": 0.5999999999999943
        },
        {
          "name": "D#3",
          "midi": 51,
          "time": 64.60000000000004,
          "velocity": 0.7874015748031497,
          "duration": 0.5999999999999943
        },
        {
          "name": "A3",
          "midi": 57,
          "time": 64.60000000000004,
          "velocity": 0.7874015748031497,
          "duration": 0.5999999999999943
        },
        {
          "name": "D#3",
          "midi": 51,
          "time": 65.20000000000003,
          "velocity": 0.7874015748031497,
          "duration": 0.4000000000000057
        },
        {
          "name": "A#3",
          "midi": 58,
          "time": 65.20000000000003,
          "velocity": 0.7874015748031497,
          "duration": 0.4000000000000057
        },
        {
          "name": "F3",
          "midi": 53,
          "time": 65.60000000000004,
          "velocity": 0.7874015748031497,
          "duration": 0.5999999999999943
        },
        {
          "name": "A3",
          "midi": 57,
          "time": 65.60000000000004,
          "velocity": 0.7874015748031497,
          "duration": 0.5999999999999943
        },
        {
          "name": "F3",
          "midi": 53,
          "time": 66.20000000000003,
          "velocity": 0.7874015748031497,
          "duration": 0.5999999999999943
        },
        {
          "name": "A#3",
          "midi": 58,
          "time": 66.20000000000003,
          "velocity": 0.7874015748031497,
          "duration": 0.5999999999999943
        },
        {
          "name": "F3",
          "midi": 53,
          "time": 66.80000000000003,
          "velocity": 0.7874015748031497,
          "duration": 0.4000000000000057
        },
        {
          "name": "C4",
          "midi": 60,
          "time": 66.80000000000003,
          "velocity": 0.7874015748031497,
          "duration": 0.4000000000000057
        },
        {
          "name": "F#2",
          "midi": 42,
          "time": 67.20000000000003,
          "velocity": 0.7874015748031497,
          "duration": 0.13333333333333997
        },
        {
          "name": "A#2",
          "midi": 46,
          "time": 67.60000000000004,
          "velocity": 0.7874015748031497,
          "duration": 0.13333333333333997
        },
        {
          "name": "D#3",
          "midi": 51,
          "time": 68.00000000000004,
          "velocity": 0.7874015748031497,
          "duration": 0.13333333333333997
        },
        {
          "name": "A#2",
          "midi": 46,
          "time": 68.40083333333338,
          "velocity": 0.7874015748031497,
          "duration": 0.13333333333333997
        },
        {
          "name": "A#2",
          "midi": 46,
          "time": 68.80000000000005,
          "velocity": 0.7874015748031497,
          "duration": 0.09999999999999432
        },
        {
          "name": "F3",
          "midi": 53,
          "time": 68.80000000000005,
          "velocity": 0.7874015748031497,
          "duration": 0.19999999999998863
        },
        {
          "name": "A#2",
          "midi": 46,
          "time": 69.00000000000004,
          "velocity": 0.7874015748031497,
          "duration": 0.09999999999999432
        },
        {
          "name": "A#2",
          "midi": 46,
          "time": 69.20000000000003,
          "velocity": 0.7874015748031497,
          "duration": 0.09999999999999432
        },
        {
          "name": "A#2",
          "midi": 46,
          "time": 69.40000000000002,
          "velocity": 0.7874015748031497,
          "duration": 0.09999999999999432
        },
        {
          "name": "A#2",
          "midi": 46,
          "time": 69.60000000000001,
          "velocity": 0.7874015748031497,
          "duration": 0.09999999999999432
        },
        {
          "name": "A#2",
          "midi": 46,
          "time": 69.8,
          "velocity": 0.7874015748031497,
          "duration": 0.09999999999999432
        },
        {
          "name": "A#2",
          "midi": 46,
          "time": 69.99999999999999,
          "velocity": 0.7874015748031497,
          "duration": 0.09999999999999432
        },
        {
          "name": "A#2",
          "midi": 46,
          "time": 70.19999999999997,
          "velocity": 0.7874015748031497,
          "duration": 0.09999999999999432
        },
        {
          "name": "F2",
          "midi": 41,
          "time": 70.39999999999996,
          "velocity": 0.7874015748031497,
          "duration": 0.09999999999999432
        },
        {
          "name": "C3",
          "midi": 48,
          "time": 70.39999999999996,
          "velocity": 0.7874015748031497,
          "duration": 0.19999999999998863
        },
        {
          "name": "F2",
          "midi": 41,
          "time": 70.59999999999995,
          "velocity": 0.7874015748031497,
          "duration": 0.09999999999999432
        },
        {
          "name": "F2",
          "midi": 41,
          "time": 70.79999999999994,
          "velocity": 0.7874015748031497,
          "duration": 0.09999999999999432
        },
        {
          "name": "F2",
          "midi": 41,
          "time": 70.99999999999993,
          "velocity": 0.7874015748031497,
          "duration": 0.09999999999999432
        },
        {
          "name": "F2",
          "midi": 41,
          "time": 71.19999999999992,
          "velocity": 0.7874015748031497,
          "duration": 0.09999999999999432
        },
        {
          "name": "F2",
          "midi": 41,
          "time": 71.3999999999999,
          "velocity": 0.7874015748031497,
          "duration": 0.09999999999999432
        },
        {
          "name": "F2",
          "midi": 41,
          "time": 71.5999999999999,
          "velocity": 0.7874015748031497,
          "duration": 0.09999999999999432
        },
        {
          "name": "F2",
          "midi": 41,
          "time": 71.79999999999988,
          "velocity": 0.7874015748031497,
          "duration": 0.09999999999999432
        },
        {
          "name": "G2",
          "midi": 43,
          "time": 71.99999999999987,
          "velocity": 0.7874015748031497,
          "duration": 0.09999999999999432
        },
        {
          "name": "D3",
          "midi": 50,
          "time": 71.99999999999987,
          "velocity": 0.7874015748031497,
          "duration": 0.19999999999998863
        },
        {
          "name": "G2",
          "midi": 43,
          "time": 72.19999999999986,
          "velocity": 0.7874015748031497,
          "duration": 0.09999999999999432
        },
        {
          "name": "G2",
          "midi": 43,
          "time": 72.39999999999985,
          "velocity": 0.7874015748031497,
          "duration": 0.09999999999999432
        },
        {
          "name": "G2",
          "midi": 43,
          "time": 72.59999999999984,
          "velocity": 0.7874015748031497,
          "duration": 0.09999999999999432
        },
        {
          "name": "G2",
          "midi": 43,
          "time": 72.79999999999983,
          "velocity": 0.7874015748031497,
          "duration": 0.09999999999999432
        },
        {
          "name": "G2",
          "midi": 43,
          "time": 72.99999999999982,
          "velocity": 0.7874015748031497,
          "duration": 0.09999999999999432
        },
        {
          "name": "G2",
          "midi": 43,
          "time": 73.1999999999998,
          "velocity": 0.7874015748031497,
          "duration": 0.09999999999999432
        },
        {
          "name": "G2",
          "midi": 43,
          "time": 73.39999999999979,
          "velocity": 0.7874015748031497,
          "duration": 0.09999999999999432
        },
        {
          "name": "D3",
          "midi": 50,
          "time": 73.59999999999978,
          "velocity": 0.7874015748031497,
          "duration": 0.09999999999999432
        },
        {
          "name": "A3",
          "midi": 57,
          "time": 73.59999999999978,
          "velocity": 0.7874015748031497,
          "duration": 0.19999999999998863
        },
        {
          "name": "D3",
          "midi": 50,
          "time": 73.79999999999977,
          "velocity": 0.7874015748031497,
          "duration": 0.09999999999999432
        },
        {
          "name": "D3",
          "midi": 50,
          "time": 73.99999999999976,
          "velocity": 0.7874015748031497,
          "duration": 0.09999999999999432
        },
        {
          "name": "D3",
          "midi": 50,
          "time": 74.19999999999975,
          "velocity": 0.7874015748031497,
          "duration": 0.09999999999999432
        },
        {
          "name": "D3",
          "midi": 50,
          "time": 74.39999999999974,
          "velocity": 0.7874015748031497,
          "duration": 0.09999999999999432
        },
        {
          "name": "D3",
          "midi": 50,
          "time": 74.59999999999972,
          "velocity": 0.7874015748031497,
          "duration": 0.09999999999999432
        },
        {
          "name": "D3",
          "midi": 50,
          "time": 74.79999999999971,
          "velocity": 0.7874015748031497,
          "duration": 0.09999999999999432
        },
        {
          "name": "D3",
          "midi": 50,
          "time": 74.9999999999997,
          "velocity": 0.7874015748031497,
          "duration": 0.09999999999999432
        },
        {
          "name": "D#3",
          "midi": 51,
          "time": 75.19999999999969,
          "velocity": 0.7874015748031497,
          "duration": 0.09999999999999432
        },
        {
          "name": "A#3",
          "midi": 58,
          "time": 75.19999999999969,
          "velocity": 0.7874015748031497,
          "duration": 0.19999999999998863
        },
        {
          "name": "D#3",
          "midi": 51,
          "time": 75.39999999999968,
          "velocity": 0.7874015748031497,
          "duration": 0.09999999999999432
        },
        {
          "name": "D#3",
          "midi": 51,
          "time": 75.59999999999967,
          "velocity": 0.7874015748031497,
          "duration": 0.09999999999999432
        },
        {
          "name": "D#3",
          "midi": 51,
          "time": 75.79999999999966,
          "velocity": 0.7874015748031497,
          "duration": 0.09999999999999432
        },
        {
          "name": "D#3",
          "midi": 51,
          "time": 75.99999999999964,
          "velocity": 0.7874015748031497,
          "duration": 0.09999999999999432
        },
        {
          "name": "D#3",
          "midi": 51,
          "time": 76.19999999999963,
          "velocity": 0.7874015748031497,
          "duration": 0.09999999999999432
        },
        {
          "name": "D#3",
          "midi": 51,
          "time": 76.39999999999962,
          "velocity": 0.7874015748031497,
          "duration": 0.09999999999999432
        },
        {
          "name": "D#3",
          "midi": 51,
          "time": 76.59999999999961,
          "velocity": 0.7874015748031497,
          "duration": 0.09999999999999432
        },
        {
          "name": "A#2",
          "midi": 46,
          "time": 76.7999999999996,
          "velocity": 0.7874015748031497,
          "duration": 0.09999999999999432
        },
        {
          "name": "F3",
          "midi": 53,
          "time": 76.7999999999996,
          "velocity": 0.7874015748031497,
          "duration": 0.19999999999998863
        },
        {
          "name": "A#2",
          "midi": 46,
          "time": 76.99999999999959,
          "velocity": 0.7874015748031497,
          "duration": 0.09999999999999432
        },
        {
          "name": "A#2",
          "midi": 46,
          "time": 77.19999999999958,
          "velocity": 0.7874015748031497,
          "duration": 0.09999999999999432
        },
        {
          "name": "A#2",
          "midi": 46,
          "time": 77.39999999999957,
          "velocity": 0.7874015748031497,
          "duration": 0.09999999999999432
        },
        {
          "name": "A#2",
          "midi": 46,
          "time": 77.59999999999955,
          "velocity": 0.7874015748031497,
          "duration": 0.09999999999999432
        },
        {
          "name": "A#2",
          "midi": 46,
          "time": 77.79999999999954,
          "velocity": 0.7874015748031497,
          "duration": 0.09999999999999432
        },
        {
          "name": "A#2",
          "midi": 46,
          "time": 77.99999999999953,
          "velocity": 0.7874015748031497,
          "duration": 0.09999999999999432
        },
        {
          "name": "A#2",
          "midi": 46,
          "time": 78.19999999999952,
          "velocity": 0.7874015748031497,
          "duration": 0.09999999999999432
        },
        {
          "name": "F3",
          "midi": 53,
          "time": 78.39999999999951,
          "velocity": 0.7874015748031497,
          "duration": 0.5999999999999943
        },
        {
          "name": "C4",
          "midi": 60,
          "time": 78.39999999999951,
          "velocity": 0.7874015748031497,
          "duration": 0.5999999999999943
        },
        {
          "name": "F3",
          "midi": 53,
          "time": 78.9999999999995,
          "velocity": 0.7874015748031497,
          "duration": 0.5999999999999943
        },
        {
          "name": "C4",
          "midi": 60,
          "time": 78.9999999999995,
          "velocity": 0.7874015748031497,
          "duration": 0.5999999999999943
        },
        {
          "name": "F3",
          "midi": 53,
          "time": 79.5999999999995,
          "velocity": 0.7874015748031497,
          "duration": 0.20000000000000284
        },
        {
          "name": "C4",
          "midi": 60,
          "time": 79.5999999999995,
          "velocity": 0.7874015748031497,
          "duration": 0.20000000000000284
        },
        {
          "name": "F3",
          "midi": 53,
          "time": 79.7999999999995,
          "velocity": 0.7874015748031497,
          "duration": 0.20000000000000284
        },
        {
          "name": "C4",
          "midi": 60,
          "time": 79.7999999999995,
          "velocity": 0.7874015748031497,
          "duration": 0.20000000000000284
        },
        {
          "name": "F3",
          "midi": 53,
          "time": 79.9999999999995,
          "velocity": 0.7874015748031497,
          "duration": 0.5999999999999943
        },
        {
          "name": "C4",
          "midi": 60,
          "time": 79.9999999999995,
          "velocity": 0.7874015748031497,
          "duration": 0.5999999999999943
        },
        {
          "name": "F3",
          "midi": 53,
          "time": 80.5999999999995,
          "velocity": 0.7874015748031497,
          "duration": 0.20000000000000284
        },
        {
          "name": "C4",
          "midi": 60,
          "time": 80.5999999999995,
          "velocity": 0.7874015748031497,
          "duration": 0.20000000000000284
        },
        {
          "name": "F3",
          "midi": 53,
          "time": 80.7999999999995,
          "velocity": 0.7874015748031497,
          "duration": 0.7999999999999972
        },
        {
          "name": "C4",
          "midi": 60,
          "time": 80.7999999999995,
          "velocity": 0.7874015748031497,
          "duration": 0.7999999999999972
        },
        {
          "name": "G2",
          "midi": 43,
          "time": 81.5999999999995,
          "velocity": 0.7874015748031497,
          "duration": 0.09999999999999432
        },
        {
          "name": "D3",
          "midi": 50,
          "time": 81.5999999999995,
          "velocity": 0.7874015748031497,
          "duration": 0.19999999999998863
        },
        {
          "name": "G2",
          "midi": 43,
          "time": 81.79999999999949,
          "velocity": 0.7874015748031497,
          "duration": 0.09999999999999432
        },
        {
          "name": "G2",
          "midi": 43,
          "time": 81.99999999999947,
          "velocity": 0.7874015748031497,
          "duration": 0.09999999999999432
        },
        {
          "name": "G2",
          "midi": 43,
          "time": 82.19999999999946,
          "velocity": 0.7874015748031497,
          "duration": 0.09999999999999432
        },
        {
          "name": "G2",
          "midi": 43,
          "time": 82.39999999999945,
          "velocity": 0.7874015748031497,
          "duration": 0.09999999999999432
        },
        {
          "name": "G2",
          "midi": 43,
          "time": 82.59999999999944,
          "velocity": 0.7874015748031497,
          "duration": 0.09999999999999432
        },
        {
          "name": "G2",
          "midi": 43,
          "time": 82.79999999999943,
          "velocity": 0.7874015748031497,
          "duration": 0.09999999999999432
        },
        {
          "name": "G2",
          "midi": 43,
          "time": 82.99999999999942,
          "velocity": 0.7874015748031497,
          "duration": 0.09999999999999432
        },
        {
          "name": "D3",
          "midi": 50,
          "time": 83.1999999999994,
          "velocity": 0.7874015748031497,
          "duration": 0.09999999999999432
        },
        {
          "name": "A3",
          "midi": 57,
          "time": 83.1999999999994,
          "velocity": 0.7874015748031497,
          "duration": 0.19999999999998863
        },
        {
          "name": "D3",
          "midi": 50,
          "time": 83.3999999999994,
          "velocity": 0.7874015748031497,
          "duration": 0.09999999999999432
        },
        {
          "name": "D3",
          "midi": 50,
          "time": 83.59999999999938,
          "velocity": 0.7874015748031497,
          "duration": 0.09999999999999432
        },
        {
          "name": "D3",
          "midi": 50,
          "time": 83.79999999999937,
          "velocity": 0.7874015748031497,
          "duration": 0.09999999999999432
        },
        {
          "name": "D3",
          "midi": 50,
          "time": 83.99999999999936,
          "velocity": 0.7874015748031497,
          "duration": 0.09999999999999432
        },
        {
          "name": "D3",
          "midi": 50,
          "time": 84.19999999999935,
          "velocity": 0.7874015748031497,
          "duration": 0.09999999999999432
        },
        {
          "name": "D3",
          "midi": 50,
          "time": 84.39999999999934,
          "velocity": 0.7874015748031497,
          "duration": 0.09999999999999432
        },
        {
          "name": "D3",
          "midi": 50,
          "time": 84.59999999999933,
          "velocity": 0.7874015748031497,
          "duration": 0.09999999999999432
        },
        {
          "name": "D#3",
          "midi": 51,
          "time": 84.79999999999932,
          "velocity": 0.7874015748031497,
          "duration": 0.09999999999999432
        },
        {
          "name": "A#3",
          "midi": 58,
          "time": 84.79999999999932,
          "velocity": 0.7874015748031497,
          "duration": 0.19999999999998863
        },
        {
          "name": "D#3",
          "midi": 51,
          "time": 84.9999999999993,
          "velocity": 0.7874015748031497,
          "duration": 0.09999999999999432
        },
        {
          "name": "D#3",
          "midi": 51,
          "time": 85.19999999999929,
          "velocity": 0.7874015748031497,
          "duration": 0.09999999999999432
        },
        {
          "name": "D#3",
          "midi": 51,
          "time": 85.39999999999928,
          "velocity": 0.7874015748031497,
          "duration": 0.09999999999999432
        },
        {
          "name": "D#3",
          "midi": 51,
          "time": 85.59999999999927,
          "velocity": 0.7874015748031497,
          "duration": 0.09999999999999432
        },
        {
          "name": "D#3",
          "midi": 51,
          "time": 85.79999999999926,
          "velocity": 0.7874015748031497,
          "duration": 0.09999999999999432
        },
        {
          "name": "D#3",
          "midi": 51,
          "time": 85.99999999999925,
          "velocity": 0.7874015748031497,
          "duration": 0.09999999999999432
        },
        {
          "name": "D#3",
          "midi": 51,
          "time": 86.19999999999924,
          "velocity": 0.7874015748031497,
          "duration": 0.09999999999999432
        },
        {
          "name": "A#2",
          "midi": 46,
          "time": 86.39999999999922,
          "velocity": 0.7874015748031497,
          "duration": 0.09999999999999432
        },
        {
          "name": "F3",
          "midi": 53,
          "time": 86.39999999999922,
          "velocity": 0.7874015748031497,
          "duration": 0.19999999999998863
        },
        {
          "name": "A#2",
          "midi": 46,
          "time": 86.59999999999921,
          "velocity": 0.7874015748031497,
          "duration": 0.09999999999999432
        },
        {
          "name": "A#2",
          "midi": 46,
          "time": 86.7999999999992,
          "velocity": 0.7874015748031497,
          "duration": 0.09999999999999432
        },
        {
          "name": "A#2",
          "midi": 46,
          "time": 86.99999999999919,
          "velocity": 0.7874015748031497,
          "duration": 0.09999999999999432
        },
        {
          "name": "A#2",
          "midi": 46,
          "time": 87.19999999999918,
          "velocity": 0.7874015748031497,
          "duration": 0.09999999999999432
        },
        {
          "name": "A#2",
          "midi": 46,
          "time": 87.39999999999917,
          "velocity": 0.7874015748031497,
          "duration": 0.09999999999999432
        },
        {
          "name": "A#2",
          "midi": 46,
          "time": 87.59999999999916,
          "velocity": 0.7874015748031497,
          "duration": 0.09999999999999432
        },
        {
          "name": "A#2",
          "midi": 46,
          "time": 87.79999999999914,
          "velocity": 0.7874015748031497,
          "duration": 0.09999999999999432
        },
        {
          "name": "D#3",
          "midi": 51,
          "time": 87.99999999999913,
          "velocity": 0.7874015748031497,
          "duration": 0.09999999999999432
        },
        {
          "name": "A#3",
          "midi": 58,
          "time": 87.99999999999913,
          "velocity": 0.7874015748031497,
          "duration": 0.19999999999998863
        },
        {
          "name": "D#3",
          "midi": 51,
          "time": 88.19999999999912,
          "velocity": 0.7874015748031497,
          "duration": 0.09999999999999432
        },
        {
          "name": "D#3",
          "midi": 51,
          "time": 88.39999999999911,
          "velocity": 0.7874015748031497,
          "duration": 0.09999999999999432
        },
        {
          "name": "D#3",
          "midi": 51,
          "time": 88.5999999999991,
          "velocity": 0.7874015748031497,
          "duration": 0.09999999999999432
        },
        {
          "name": "D#3",
          "midi": 51,
          "time": 88.79999999999909,
          "velocity": 0.7874015748031497,
          "duration": 0.09999999999999432
        },
        {
          "name": "D#3",
          "midi": 51,
          "time": 88.99999999999908,
          "velocity": 0.7874015748031497,
          "duration": 0.09999999999999432
        },
        {
          "name": "D#3",
          "midi": 51,
          "time": 89.19999999999906,
          "velocity": 0.7874015748031497,
          "duration": 0.09999999999999432
        },
        {
          "name": "D#3",
          "midi": 51,
          "time": 89.39999999999905,
          "velocity": 0.7874015748031497,
          "duration": 0.09999999999999432
        },
        {
          "name": "A#2",
          "midi": 46,
          "time": 89.59999999999904,
          "velocity": 0.7874015748031497,
          "duration": 0.09999999999999432
        },
        {
          "name": "F3",
          "midi": 53,
          "time": 89.59999999999904,
          "velocity": 0.7874015748031497,
          "duration": 0.19999999999998863
        },
        {
          "name": "A#2",
          "midi": 46,
          "time": 89.79999999999903,
          "velocity": 0.7874015748031497,
          "duration": 0.09999999999999432
        },
        {
          "name": "A#2",
          "midi": 46,
          "time": 89.99999999999902,
          "velocity": 0.7874015748031497,
          "duration": 0.09999999999999432
        },
        {
          "name": "A#2",
          "midi": 46,
          "time": 90.19999999999901,
          "velocity": 0.7874015748031497,
          "duration": 0.09999999999999432
        },
        {
          "name": "A#2",
          "midi": 46,
          "time": 90.399999999999,
          "velocity": 0.7874015748031497,
          "duration": 0.09999999999999432
        },
        {
          "name": "A#2",
          "midi": 46,
          "time": 90.59999999999899,
          "velocity": 0.7874015748031497,
          "duration": 0.09999999999999432
        },
        {
          "name": "A#2",
          "midi": 46,
          "time": 90.79999999999897,
          "velocity": 0.7874015748031497,
          "duration": 0.09999999999999432
        },
        {
          "name": "A#2",
          "midi": 46,
          "time": 90.99999999999896,
          "velocity": 0.7874015748031497,
          "duration": 0.09999999999999432
        },
        {
          "name": "F3",
          "midi": 53,
          "time": 91.19999999999895,
          "velocity": 0.7874015748031497,
          "duration": 0.5999999999999943
        },
        {
          "name": "C4",
          "midi": 60,
          "time": 91.19999999999895,
          "velocity": 0.7874015748031497,
          "duration": 0.5999999999999943
        },
        {
          "name": "F3",
          "midi": 53,
          "time": 91.79999999999895,
          "velocity": 0.7874015748031497,
          "duration": 0.5999999999999943
        },
        {
          "name": "C4",
          "midi": 60,
          "time": 91.79999999999895,
          "velocity": 0.7874015748031497,
          "duration": 0.5999999999999943
        },
        {
          "name": "F3",
          "midi": 53,
          "time": 92.39999999999894,
          "velocity": 0.7874015748031497,
          "duration": 0.20000000000000284
        },
        {
          "name": "C4",
          "midi": 60,
          "time": 92.39999999999894,
          "velocity": 0.7874015748031497,
          "duration": 0.20000000000000284
        },
        {
          "name": "F3",
          "midi": 53,
          "time": 92.59999999999894,
          "velocity": 0.7874015748031497,
          "duration": 0.20000000000000284
        },
        {
          "name": "C4",
          "midi": 60,
          "time": 92.59999999999894,
          "velocity": 0.7874015748031497,
          "duration": 0.20000000000000284
        },
        {
          "name": "F3",
          "midi": 53,
          "time": 92.79999999999895,
          "velocity": 0.7874015748031497,
          "duration": 0.5999999999999943
        },
        {
          "name": "C4",
          "midi": 60,
          "time": 92.79999999999895,
          "velocity": 0.7874015748031497,
          "duration": 0.5999999999999943
        },
        {
          "name": "F3",
          "midi": 53,
          "time": 93.39999999999894,
          "velocity": 0.7874015748031497,
          "duration": 0.5999999999999943
        },
        {
          "name": "C4",
          "midi": 60,
          "time": 93.39999999999894,
          "velocity": 0.7874015748031497,
          "duration": 0.5999999999999943
        },
        {
          "name": "F3",
          "midi": 53,
          "time": 93.99999999999893,
          "velocity": 0.7874015748031497,
          "duration": 0.4000000000000057
        },
        {
          "name": "C4",
          "midi": 60,
          "time": 93.99999999999893,
          "velocity": 0.7874015748031497,
          "duration": 0.4000000000000057
        },
        {
          "name": "A#2",
          "midi": 46,
          "time": 94.39999999999894,
          "velocity": 0.7874015748031497,
          "duration": 0.09999999999999432
        },
        {
          "name": "A2",
          "midi": 45,
          "time": 94.79999999999893,
          "velocity": 0.7874015748031497,
          "duration": 0.09999999999999432
        },
        {
          "name": "G2",
          "midi": 43,
          "time": 95.19999999999892,
          "velocity": 0.7874015748031497,
          "duration": 0.09999999999999432
        },
        {
          "name": "F2",
          "midi": 41,
          "time": 95.59999999999891,
          "velocity": 0.7874015748031497,
          "duration": 0.09999999999999432
        },
        {
          "name": "A#2",
          "midi": 46,
          "time": 95.9999999999989,
          "velocity": 0.7874015748031497,
          "duration": 0.4000000000000057
        },
        {
          "name": "D#3",
          "midi": 51,
          "time": 95.9999999999989,
          "velocity": 0.7874015748031497,
          "duration": 0.4000000000000057
        },
        {
          "name": "C3",
          "midi": 48,
          "time": 96.39999999999891,
          "velocity": 0.7874015748031497,
          "duration": 0.4000000000000057
        },
        {
          "name": "F3",
          "midi": 53,
          "time": 96.39999999999891,
          "velocity": 0.7874015748031497,
          "duration": 0.4000000000000057
        },
        {
          "name": "G4",
          "midi": 67,
          "time": 96.79999999999892,
          "velocity": 0.7874015748031497,
          "duration": 0.20000000000000284
        },
        {
          "name": "A4",
          "midi": 69,
          "time": 97.19999999999892,
          "velocity": 0.7874015748031497,
          "duration": 0.19916666666667027
        },
        {
          "name": "A#4",
          "midi": 70,
          "time": 97.59999999999893,
          "velocity": 0.7874015748031497,
          "duration": 0.20000000000000284
        },
        {
          "name": "G4",
          "midi": 67,
          "time": 97.99999999999893,
          "velocity": 0.7874015748031497,
          "duration": 0.20000000000000284
        },
        {
          "name": "C5",
          "midi": 72,
          "time": 98.39999999999894,
          "velocity": 0.7874015748031497,
          "duration": 0.20000000000000284
        },
        {
          "name": "A4",
          "midi": 69,
          "time": 98.79999999999895,
          "velocity": 0.7874015748031497,
          "duration": 0.20000000000000284
        },
        {
          "name": "A#4",
          "midi": 70,
          "time": 99.20166666666562,
          "velocity": 0.7874015748031497,
          "duration": 0.20000000000000284
        },
        {
          "name": "G4",
          "midi": 67,
          "time": 99.59999999999896,
          "velocity": 0.7874015748031497,
          "duration": 0.20333333333333314
        },
        {
          "name": "G4",
          "midi": 67,
          "time": 99.99999999999896,
          "velocity": 0.7874015748031497,
          "duration": 0.20000000000000284
        },
        {
          "name": "A4",
          "midi": 69,
          "time": 100.39999999999897,
          "velocity": 0.7874015748031497,
          "duration": 0.19916666666667027
        },
        {
          "name": "A#4",
          "midi": 70,
          "time": 100.79999999999897,
          "velocity": 0.7874015748031497,
          "duration": 0.20000000000000284
        },
        {
          "name": "G4",
          "midi": 67,
          "time": 101.19999999999898,
          "velocity": 0.7874015748031497,
          "duration": 0.20000000000000284
        },
        {
          "name": "A#4",
          "midi": 70,
          "time": 101.59833333333232,
          "velocity": 0.7874015748031497,
          "duration": 0.39333333333333087
        },
        {
          "name": "C5",
          "midi": 72,
          "time": 101.99999999999899,
          "velocity": 0.7874015748031497,
          "duration": 0.4100000000000108
        },
        {
          "name": "D5",
          "midi": 74,
          "time": 102.399999999999,
          "velocity": 0.7874015748031497,
          "duration": 0.39750000000000796
        },
        {
          "name": "F5",
          "midi": 77,
          "time": 102.799999999999,
          "velocity": 0.7874015748031497,
          "duration": 0.4000000000000057
        },
        {
          "name": "D3",
          "midi": 50,
          "time": 103.19999999999901,
          "velocity": 0.7874015748031497,
          "duration": 0.20000000000000284
        },
        {
          "name": "G2",
          "midi": 43,
          "time": 103.59916666666568,
          "velocity": 0.7874015748031497,
          "duration": 0.20416666666666572
        },
        {
          "name": "D3",
          "midi": 50,
          "time": 103.79999999999902,
          "velocity": 0.7874015748031497,
          "duration": 0.20083333333333542
        },
        {
          "name": "D3",
          "midi": 50,
          "time": 104.39999999999903,
          "velocity": 0.7874015748031497,
          "duration": 0.20000000000000284
        },
        {
          "name": "D#3",
          "midi": 51,
          "time": 104.59999999999903,
          "velocity": 0.7874015748031497,
          "duration": 0.20000000000000284
        },
        {
          "name": "D3",
          "midi": 50,
          "time": 104.79999999999903,
          "velocity": 0.7874015748031497,
          "duration": 0.20000000000000284
        },
        {
          "name": "G2",
          "midi": 43,
          "time": 105.19999999999904,
          "velocity": 0.7874015748031497,
          "duration": 0.20000000000000284
        },
        {
          "name": "D3",
          "midi": 50,
          "time": 105.39999999999904,
          "velocity": 0.7874015748031497,
          "duration": 0.20000000000000284
        },
        {
          "name": "G3",
          "midi": 55,
          "time": 105.99999999999905,
          "velocity": 0.7874015748031497,
          "duration": 0.20000000000000284
        },
        {
          "name": "D#3",
          "midi": 51,
          "time": 106.19999999999905,
          "velocity": 0.7874015748031497,
          "duration": 0.20000000000000284
        },
        {
          "name": "D3",
          "midi": 50,
          "time": 106.40416666666572,
          "velocity": 0.7874015748031497,
          "duration": 0.20000000000000284
        },
        {
          "name": "G2",
          "midi": 43,
          "time": 106.79999999999906,
          "velocity": 0.7874015748031497,
          "duration": 0.20000000000000284
        },
        {
          "name": "D3",
          "midi": 50,
          "time": 106.99999999999906,
          "velocity": 0.7874015748031497,
          "duration": 0.20000000000000284
        },
        {
          "name": "D3",
          "midi": 50,
          "time": 107.59999999999907,
          "velocity": 0.7874015748031497,
          "duration": 0.20000000000000284
        },
        {
          "name": "G2",
          "midi": 43,
          "time": 107.79999999999907,
          "velocity": 0.7874015748031497,
          "duration": 0.20000000000000284
        },
        {
          "name": "F3",
          "midi": 53,
          "time": 107.99999999999908,
          "velocity": 0.7874015748031497,
          "duration": 0.09999999999999432
        },
        {
          "name": "D#3",
          "midi": 51,
          "time": 108.39999999999907,
          "velocity": 0.7874015748031497,
          "duration": 0.09999999999999432
        },
        {
          "name": "D3",
          "midi": 50,
          "time": 108.79999999999906,
          "velocity": 0.7874015748031497,
          "duration": 0.09999999999999432
        },
        {
          "name": "C3",
          "midi": 48,
          "time": 109.19999999999905,
          "velocity": 0.7874015748031497,
          "duration": 0.09999999999999432
        },
        {
          "name": "D3",
          "midi": 50,
          "time": 109.59999999999904,
          "velocity": 0.7874015748031497,
          "duration": 0.20000000000000284
        },
        {
          "name": "G2",
          "midi": 43,
          "time": 109.99999999999905,
          "velocity": 0.7874015748031497,
          "duration": 0.20416666666666572
        },
        {
          "name": "D3",
          "midi": 50,
          "time": 110.20083333333238,
          "velocity": 0.7874015748031497,
          "duration": 0.20083333333333542
        },
        {
          "name": "D3",
          "midi": 50,
          "time": 110.80083333333239,
          "velocity": 0.7874015748031497,
          "duration": 0.20000000000000284
        },
        {
          "name": "D#3",
          "midi": 51,
          "time": 111.0008333333324,
          "velocity": 0.7874015748031497,
          "duration": 0.20000000000000284
        },
        {
          "name": "D3",
          "midi": 50,
          "time": 111.2008333333324,
          "velocity": 0.7874015748031497,
          "duration": 0.20000000000000284
        },
        {
          "name": "G2",
          "midi": 43,
          "time": 111.6008333333324,
          "velocity": 0.7874015748031497,
          "duration": 0.20000000000000284
        },
        {
          "name": "D3",
          "midi": 50,
          "time": 111.8008333333324,
          "velocity": 0.7874015748031497,
          "duration": 0.20000000000000284
        },
        {
          "name": "G3",
          "midi": 55,
          "time": 112.40083333333241,
          "velocity": 0.7874015748031497,
          "duration": 0.20000000000000284
        },
        {
          "name": "D#3",
          "midi": 51,
          "time": 112.60083333333242,
          "velocity": 0.7874015748031497,
          "duration": 0.20000000000000284
        },
        {
          "name": "D3",
          "midi": 50,
          "time": 112.80416666666575,
          "velocity": 0.7874015748031497,
          "duration": 0.20000000000000284
        },
        {
          "name": "G2",
          "midi": 43,
          "time": 113.20083333333243,
          "velocity": 0.7874015748031497,
          "duration": 0.20000000000000284
        },
        {
          "name": "D3",
          "midi": 50,
          "time": 113.40083333333243,
          "velocity": 0.7874015748031497,
          "duration": 0.20000000000000284
        },
        {
          "name": "D3",
          "midi": 50,
          "time": 114.00083333333244,
          "velocity": 0.7874015748031497,
          "duration": 0.20000000000000284
        },
        {
          "name": "G2",
          "midi": 43,
          "time": 114.20083333333244,
          "velocity": 0.7874015748031497,
          "duration": 0.20000000000000284
        },
        {
          "name": "A#2",
          "midi": 46,
          "time": 114.39999999999911,
          "velocity": 0.7874015748031497,
          "duration": 0.4000000000000057
        },
        {
          "name": "D3",
          "midi": 50,
          "time": 114.39999999999911,
          "velocity": 0.7874015748031497,
          "duration": 0.4000000000000057
        },
        {
          "name": "A2",
          "midi": 45,
          "time": 114.79999999999912,
          "velocity": 0.7874015748031497,
          "duration": 0.4000000000000057
        },
        {
          "name": "C3",
          "midi": 48,
          "time": 114.79999999999912,
          "velocity": 0.7874015748031497,
          "duration": 0.4000000000000057
        },
        {
          "name": "G2",
          "midi": 43,
          "time": 115.19999999999912,
          "velocity": 0.7874015748031497,
          "duration": 0.4000000000000057
        },
        {
          "name": "A#2",
          "midi": 46,
          "time": 115.19999999999912,
          "velocity": 0.7874015748031497,
          "duration": 0.4000000000000057
        },
        {
          "name": "F2",
          "midi": 41,
          "time": 115.59999999999913,
          "velocity": 0.7874015748031497,
          "duration": 0.4000000000000057
        },
        {
          "name": "A2",
          "midi": 45,
          "time": 115.59999999999913,
          "velocity": 0.7874015748031497,
          "duration": 0.4000000000000057
        },
        {
          "name": "D3",
          "midi": 50,
          "time": 115.99999999999913,
          "velocity": 0.7874015748031497,
          "duration": 0.20000000000000284
        },
        {
          "name": "G2",
          "midi": 43,
          "time": 116.39999999999914,
          "velocity": 0.7874015748031497,
          "duration": 0.20416666666666572
        },
        {
          "name": "D3",
          "midi": 50,
          "time": 116.60083333333247,
          "velocity": 0.7874015748031497,
          "duration": 0.20083333333333542
        },
        {
          "name": "D3",
          "midi": 50,
          "time": 117.20083333333248,
          "velocity": 0.7874015748031497,
          "duration": 0.20000000000000284
        },
        {
          "name": "D#3",
          "midi": 51,
          "time": 117.40083333333249,
          "velocity": 0.7874015748031497,
          "duration": 0.20000000000000284
        },
        {
          "name": "D3",
          "midi": 50,
          "time": 117.60083333333249,
          "velocity": 0.7874015748031497,
          "duration": 0.20000000000000284
        },
        {
          "name": "G2",
          "midi": 43,
          "time": 118.0008333333325,
          "velocity": 0.7874015748031497,
          "duration": 0.20000000000000284
        },
        {
          "name": "D3",
          "midi": 50,
          "time": 118.2008333333325,
          "velocity": 0.7874015748031497,
          "duration": 0.20000000000000284
        },
        {
          "name": "G3",
          "midi": 55,
          "time": 118.8008333333325,
          "velocity": 0.7874015748031497,
          "duration": 0.20000000000000284
        },
        {
          "name": "D#3",
          "midi": 51,
          "time": 119.00083333333251,
          "velocity": 0.7874015748031497,
          "duration": 0.20000000000000284
        },
        {
          "name": "D3",
          "midi": 50,
          "time": 119.20416666666584,
          "velocity": 0.7874015748031497,
          "duration": 0.20000000000000284
        },
        {
          "name": "G2",
          "midi": 43,
          "time": 119.60083333333252,
          "velocity": 0.7874015748031497,
          "duration": 0.20000000000000284
        },
        {
          "name": "D3",
          "midi": 50,
          "time": 119.80083333333252,
          "velocity": 0.7874015748031497,
          "duration": 0.20000000000000284
        },
        {
          "name": "D3",
          "midi": 50,
          "time": 120.40083333333253,
          "velocity": 0.7874015748031497,
          "duration": 0.20000000000000284
        },
        {
          "name": "G2",
          "midi": 43,
          "time": 120.60083333333253,
          "velocity": 0.7874015748031497,
          "duration": 0.20000000000000284
        },
        {
          "name": "F3",
          "midi": 53,
          "time": 120.80083333333253,
          "velocity": 0.7874015748031497,
          "duration": 0.09999999999999432
        },
        {
          "name": "D#3",
          "midi": 51,
          "time": 121.20083333333253,
          "velocity": 0.7874015748031497,
          "duration": 0.09999999999999432
        },
        {
          "name": "D3",
          "midi": 50,
          "time": 121.60083333333252,
          "velocity": 0.7874015748031497,
          "duration": 0.09999999999999432
        },
        {
          "name": "C3",
          "midi": 48,
          "time": 122.00083333333251,
          "velocity": 0.7874015748031497,
          "duration": 0.09999999999999432
        },
        {
          "name": "D3",
          "midi": 50,
          "time": 122.4008333333325,
          "velocity": 0.7874015748031497,
          "duration": 0.20000000000000284
        },
        {
          "name": "G2",
          "midi": 43,
          "time": 122.79999999999917,
          "velocity": 0.7874015748031497,
          "duration": 0.20416666666666572
        },
        {
          "name": "D3",
          "midi": 50,
          "time": 123.00083333333251,
          "velocity": 0.7874015748031497,
          "duration": 0.20083333333333542
        },
        {
          "name": "D3",
          "midi": 50,
          "time": 123.60083333333252,
          "velocity": 0.7874015748031497,
          "duration": 0.20000000000000284
        },
        {
          "name": "D#3",
          "midi": 51,
          "time": 123.80083333333252,
          "velocity": 0.7874015748031497,
          "duration": 0.20000000000000284
        },
        {
          "name": "D3",
          "midi": 50,
          "time": 124.00083333333252,
          "velocity": 0.7874015748031497,
          "duration": 0.20000000000000284
        },
        {
          "name": "G2",
          "midi": 43,
          "time": 124.40083333333253,
          "velocity": 0.7874015748031497,
          "duration": 0.20000000000000284
        },
        {
          "name": "D3",
          "midi": 50,
          "time": 124.60083333333253,
          "velocity": 0.7874015748031497,
          "duration": 0.20000000000000284
        },
        {
          "name": "G3",
          "midi": 55,
          "time": 125.20083333333254,
          "velocity": 0.7874015748031497,
          "duration": 0.20000000000000284
        },
        {
          "name": "D#3",
          "midi": 51,
          "time": 125.40083333333254,
          "velocity": 0.7874015748031497,
          "duration": 0.20000000000000284
        },
        {
          "name": "D3",
          "midi": 50,
          "time": 125.60499999999921,
          "velocity": 0.7874015748031497,
          "duration": 0.20000000000000284
        },
        {
          "name": "G2",
          "midi": 43,
          "time": 126.00083333333255,
          "velocity": 0.7874015748031497,
          "duration": 0.20000000000000284
        },
        {
          "name": "D3",
          "midi": 50,
          "time": 126.20083333333255,
          "velocity": 0.7874015748031497,
          "duration": 0.20000000000000284
        },
        {
          "name": "D3",
          "midi": 50,
          "time": 126.80083333333256,
          "velocity": 0.7874015748031497,
          "duration": 0.20000000000000284
        },
        {
          "name": "G2",
          "midi": 43,
          "time": 127.00083333333257,
          "velocity": 0.7874015748031497,
          "duration": 0.20000000000000284
        },
        {
          "name": "C3",
          "midi": 48,
          "time": 127.19999999999924,
          "velocity": 0.7874015748031497,
          "duration": 0.4000000000000057
        },
        {
          "name": "D#3",
          "midi": 51,
          "time": 127.19999999999924,
          "velocity": 0.7874015748031497,
          "duration": 0.4000000000000057
        },
        {
          "name": "A#2",
          "midi": 46,
          "time": 127.59999999999924,
          "velocity": 0.7874015748031497,
          "duration": 0.4000000000000057
        },
        {
          "name": "D3",
          "midi": 50,
          "time": 127.59999999999924,
          "velocity": 0.7874015748031497,
          "duration": 0.4000000000000057
        },
        {
          "name": "A2",
          "midi": 45,
          "time": 127.99999999999925,
          "velocity": 0.7874015748031497,
          "duration": 0.3999999999999915
        },
        {
          "name": "C3",
          "midi": 48,
          "time": 127.99999999999925,
          "velocity": 0.7874015748031497,
          "duration": 0.3999999999999915
        },
        {
          "name": "G2",
          "midi": 43,
          "time": 128.39999999999924,
          "velocity": 0.7874015748031497,
          "duration": 0.4025000000000034
        },
        {
          "name": "A#2",
          "midi": 46,
          "time": 128.39999999999924,
          "velocity": 0.7874015748031497,
          "duration": 0.4000000000000057
        },
        {
          "name": "A#2",
          "midi": 46,
          "time": 128.79999999999924,
          "velocity": 0.7874015748031497,
          "duration": 0.4000000000000057
        },
        {
          "name": "D3",
          "midi": 50,
          "time": 128.79999999999924,
          "velocity": 0.7874015748031497,
          "duration": 0.4000000000000057
        },
        {
          "name": "A2",
          "midi": 45,
          "time": 129.19999999999925,
          "velocity": 0.7874015748031497,
          "duration": 0.4000000000000057
        },
        {
          "name": "C3",
          "midi": 48,
          "time": 129.19999999999925,
          "velocity": 0.7874015748031497,
          "duration": 0.4000000000000057
        },
        {
          "name": "G2",
          "midi": 43,
          "time": 129.59999999999926,
          "velocity": 0.7874015748031497,
          "duration": 0.30000000000001137
        },
        {
          "name": "A#2",
          "midi": 46,
          "time": 129.59999999999926,
          "velocity": 0.7874015748031497,
          "duration": 0.29750000000001364
        },
        {
          "name": "A2",
          "midi": 45,
          "time": 129.99999999999926,
          "velocity": 0.7874015748031497,
          "duration": 0.13333333333332575
        },
        {
          "name": "D#3",
          "midi": 51,
          "time": 130.39999999999927,
          "velocity": 0.7874015748031497,
          "duration": 0.5999999999999943
        },
        {
          "name": "G3",
          "midi": 55,
          "time": 130.39999999999927,
          "velocity": 0.7874015748031497,
          "duration": 0.5999999999999943
        },
        {
          "name": "D#3",
          "midi": 51,
          "time": 130.99999999999926,
          "velocity": 0.7874015748031497,
          "duration": 0.5999999999999943
        },
        {
          "name": "A3",
          "midi": 57,
          "time": 130.99999999999926,
          "velocity": 0.7874015748031497,
          "duration": 0.5999999999999943
        },
        {
          "name": "D#3",
          "midi": 51,
          "time": 131.59999999999926,
          "velocity": 0.7874015748031497,
          "duration": 0.4000000000000057
        },
        {
          "name": "A#3",
          "midi": 58,
          "time": 131.59999999999926,
          "velocity": 0.7874015748031497,
          "duration": 0.4000000000000057
        },
        {
          "name": "D#3",
          "midi": 51,
          "time": 131.99999999999926,
          "velocity": 0.7874015748031497,
          "duration": 0.5999999999999943
        },
        {
          "name": "G3",
          "midi": 55,
          "time": 131.99999999999926,
          "velocity": 0.7874015748031497,
          "duration": 0.5999999999999943
        },
        {
          "name": "D#3",
          "midi": 51,
          "time": 132.59999999999926,
          "velocity": 0.7874015748031497,
          "duration": 0.5999999999999943
        },
        {
          "name": "A3",
          "midi": 57,
          "time": 132.59999999999926,
          "velocity": 0.7874015748031497,
          "duration": 0.5999999999999943
        },
        {
          "name": "D#3",
          "midi": 51,
          "time": 133.19999999999925,
          "velocity": 0.7874015748031497,
          "duration": 0.4000000000000057
        },
        {
          "name": "A#3",
          "midi": 58,
          "time": 133.19999999999925,
          "velocity": 0.7874015748031497,
          "duration": 0.4000000000000057
        },
        {
          "name": "F3",
          "midi": 53,
          "time": 133.59999999999926,
          "velocity": 0.7874015748031497,
          "duration": 0.5999999999999943
        },
        {
          "name": "A3",
          "midi": 57,
          "time": 133.59999999999926,
          "velocity": 0.7874015748031497,
          "duration": 0.5999999999999943
        },
        {
          "name": "F3",
          "midi": 53,
          "time": 134.19999999999925,
          "velocity": 0.7874015748031497,
          "duration": 0.5999999999999943
        },
        {
          "name": "A#3",
          "midi": 58,
          "time": 134.19999999999925,
          "velocity": 0.7874015748031497,
          "duration": 0.5999999999999943
        },
        {
          "name": "F3",
          "midi": 53,
          "time": 134.79999999999924,
          "velocity": 0.7874015748031497,
          "duration": 0.4000000000000057
        },
        {
          "name": "C4",
          "midi": 60,
          "time": 134.79999999999924,
          "velocity": 0.7874015748031497,
          "duration": 0.4000000000000057
        },
        {
          "name": "F3",
          "midi": 53,
          "time": 135.19999999999925,
          "velocity": 0.7874015748031497,
          "duration": 0.13333333333332575
        },
        {
          "name": "F3",
          "midi": 53,
          "time": 135.4666666666659,
          "velocity": 0.7874015748031497,
          "duration": 0.13333333333332575
        },
        {
          "name": "F3",
          "midi": 53,
          "time": 135.73333333333255,
          "velocity": 0.7874015748031497,
          "duration": 0.13333333333332575
        },
        {
          "name": "F3",
          "midi": 53,
          "time": 135.9999999999992,
          "velocity": 0.7874015748031497,
          "duration": 0.13333333333332575
        },
        {
          "name": "F3",
          "midi": 53,
          "time": 136.26666666666586,
          "velocity": 0.7874015748031497,
          "duration": 0.13333333333332575
        },
        {
          "name": "F3",
          "midi": 53,
          "time": 136.5333333333325,
          "velocity": 0.7874015748031497,
          "duration": 0.13333333333332575
        },
        {
          "name": "D#3",
          "midi": 51,
          "time": 136.79999999999916,
          "velocity": 0.7874015748031497,
          "duration": 0.5999999999999943
        },
        {
          "name": "G3",
          "midi": 55,
          "time": 136.79999999999916,
          "velocity": 0.7874015748031497,
          "duration": 0.5999999999999943
        },
        {
          "name": "D#3",
          "midi": 51,
          "time": 137.39999999999915,
          "velocity": 0.7874015748031497,
          "duration": 0.5999999999999943
        },
        {
          "name": "A3",
          "midi": 57,
          "time": 137.39999999999915,
          "velocity": 0.7874015748031497,
          "duration": 0.5999999999999943
        },
        {
          "name": "D#3",
          "midi": 51,
          "time": 137.99999999999915,
          "velocity": 0.7874015748031497,
          "duration": 0.4000000000000057
        },
        {
          "name": "A#3",
          "midi": 58,
          "time": 137.99999999999915,
          "velocity": 0.7874015748031497,
          "duration": 0.4000000000000057
        },
        {
          "name": "D#3",
          "midi": 51,
          "time": 138.39999999999915,
          "velocity": 0.7874015748031497,
          "duration": 0.5999999999999943
        },
        {
          "name": "G3",
          "midi": 55,
          "time": 138.39999999999915,
          "velocity": 0.7874015748031497,
          "duration": 0.5999999999999943
        },
        {
          "name": "D#3",
          "midi": 51,
          "time": 138.99999999999915,
          "velocity": 0.7874015748031497,
          "duration": 0.5999999999999943
        },
        {
          "name": "A3",
          "midi": 57,
          "time": 138.99999999999915,
          "velocity": 0.7874015748031497,
          "duration": 0.5999999999999943
        },
        {
          "name": "D#3",
          "midi": 51,
          "time": 139.59999999999914,
          "velocity": 0.7874015748031497,
          "duration": 0.4000000000000057
        },
        {
          "name": "A#3",
          "midi": 58,
          "time": 139.59999999999914,
          "velocity": 0.7874015748031497,
          "duration": 0.4000000000000057
        },
        {
          "name": "F3",
          "midi": 53,
          "time": 139.99999999999915,
          "velocity": 0.7874015748031497,
          "duration": 0.5999999999999943
        },
        {
          "name": "A3",
          "midi": 57,
          "time": 139.99999999999915,
          "velocity": 0.7874015748031497,
          "duration": 0.5999999999999943
        },
        {
          "name": "F3",
          "midi": 53,
          "time": 140.59999999999914,
          "velocity": 0.7874015748031497,
          "duration": 0.5999999999999943
        },
        {
          "name": "A#3",
          "midi": 58,
          "time": 140.59999999999914,
          "velocity": 0.7874015748031497,
          "duration": 0.5999999999999943
        },
        {
          "name": "F3",
          "midi": 53,
          "time": 141.19999999999914,
          "velocity": 0.7874015748031497,
          "duration": 0.4000000000000057
        },
        {
          "name": "C4",
          "midi": 60,
          "time": 141.19999999999914,
          "velocity": 0.7874015748031497,
          "duration": 0.4000000000000057
        },
        {
          "name": "F#2",
          "midi": 42,
          "time": 141.59999999999914,
          "velocity": 0.7874015748031497,
          "duration": 0.13333333333332575
        },
        {
          "name": "A#2",
          "midi": 46,
          "time": 142.0116666666658,
          "velocity": 0.7874015748031497,
          "duration": 0.13333333333332575
        },
        {
          "name": "D#3",
          "midi": 51,
          "time": 142.39999999999912,
          "velocity": 0.7874015748031497,
          "duration": 0.2083333333333428
        },
        {
          "name": "F#2",
          "midi": 42,
          "time": 142.79999999999913,
          "velocity": 0.7874015748031497,
          "duration": 0.19999999999998863
        },
        {
          "name": "A#2",
          "midi": 46,
          "time": 143.1999999999991,
          "velocity": 0.7874015748031497,
          "duration": 0.09999999999999432
        },
        {
          "name": "F3",
          "midi": 53,
          "time": 143.1999999999991,
          "velocity": 0.7874015748031497,
          "duration": 0.19999999999998863
        },
        {
          "name": "A#2",
          "midi": 46,
          "time": 143.3999999999991,
          "velocity": 0.7874015748031497,
          "duration": 0.09999999999999432
        },
        {
          "name": "A#2",
          "midi": 46,
          "time": 143.59999999999908,
          "velocity": 0.7874015748031497,
          "duration": 0.09999999999999432
        },
        {
          "name": "A#2",
          "midi": 46,
          "time": 143.79999999999907,
          "velocity": 0.7874015748031497,
          "duration": 0.09999999999999432
        },
        {
          "name": "A#2",
          "midi": 46,
          "time": 143.99999999999906,
          "velocity": 0.7874015748031497,
          "duration": 0.09999999999999432
        },
        {
          "name": "A#2",
          "midi": 46,
          "time": 144.19999999999905,
          "velocity": 0.7874015748031497,
          "duration": 0.09999999999999432
        },
        {
          "name": "A#2",
          "midi": 46,
          "time": 144.39999999999904,
          "velocity": 0.7874015748031497,
          "duration": 0.09999999999999432
        },
        {
          "name": "A#2",
          "midi": 46,
          "time": 144.59999999999903,
          "velocity": 0.7874015748031497,
          "duration": 0.09999999999999432
        },
        {
          "name": "F2",
          "midi": 41,
          "time": 144.79999999999902,
          "velocity": 0.7874015748031497,
          "duration": 0.09999999999999432
        },
        {
          "name": "C3",
          "midi": 48,
          "time": 144.79999999999902,
          "velocity": 0.7874015748031497,
          "duration": 0.19999999999998863
        },
        {
          "name": "F2",
          "midi": 41,
          "time": 144.999999999999,
          "velocity": 0.7874015748031497,
          "duration": 0.09999999999999432
        },
        {
          "name": "F2",
          "midi": 41,
          "time": 145.199999999999,
          "velocity": 0.7874015748031497,
          "duration": 0.09999999999999432
        },
        {
          "name": "F2",
          "midi": 41,
          "time": 145.39999999999898,
          "velocity": 0.7874015748031497,
          "duration": 0.09999999999999432
        },
        {
          "name": "F2",
          "midi": 41,
          "time": 145.59999999999897,
          "velocity": 0.7874015748031497,
          "duration": 0.09999999999999432
        },
        {
          "name": "F2",
          "midi": 41,
          "time": 145.79999999999896,
          "velocity": 0.7874015748031497,
          "duration": 0.09999999999999432
        },
        {
          "name": "F2",
          "midi": 41,
          "time": 145.99999999999895,
          "velocity": 0.7874015748031497,
          "duration": 0.09999999999999432
        },
        {
          "name": "F2",
          "midi": 41,
          "time": 146.19999999999894,
          "velocity": 0.7874015748031497,
          "duration": 0.09999999999999432
        },
        {
          "name": "G2",
          "midi": 43,
          "time": 146.39999999999893,
          "velocity": 0.7874015748031497,
          "duration": 0.09999999999999432
        },
        {
          "name": "D3",
          "midi": 50,
          "time": 146.39999999999893,
          "velocity": 0.7874015748031497,
          "duration": 0.19999999999998863
        },
        {
          "name": "G2",
          "midi": 43,
          "time": 146.59999999999891,
          "velocity": 0.7874015748031497,
          "duration": 0.09999999999999432
        },
        {
          "name": "G2",
          "midi": 43,
          "time": 146.7999999999989,
          "velocity": 0.7874015748031497,
          "duration": 0.09999999999999432
        },
        {
          "name": "G2",
          "midi": 43,
          "time": 146.9999999999989,
          "velocity": 0.7874015748031497,
          "duration": 0.09999999999999432
        },
        {
          "name": "G2",
          "midi": 43,
          "time": 147.19999999999888,
          "velocity": 0.7874015748031497,
          "duration": 0.09999999999999432
        },
        {
          "name": "G2",
          "midi": 43,
          "time": 147.39999999999887,
          "velocity": 0.7874015748031497,
          "duration": 0.09999999999999432
        },
        {
          "name": "G2",
          "midi": 43,
          "time": 147.59999999999886,
          "velocity": 0.7874015748031497,
          "duration": 0.09999999999999432
        },
        {
          "name": "G2",
          "midi": 43,
          "time": 147.79999999999885,
          "velocity": 0.7874015748031497,
          "duration": 0.09999999999999432
        },
        {
          "name": "D3",
          "midi": 50,
          "time": 147.99999999999883,
          "velocity": 0.7874015748031497,
          "duration": 0.09999999999999432
        },
        {
          "name": "A3",
          "midi": 57,
          "time": 147.99999999999883,
          "velocity": 0.7874015748031497,
          "duration": 0.19999999999998863
        },
        {
          "name": "D3",
          "midi": 50,
          "time": 148.19999999999882,
          "velocity": 0.7874015748031497,
          "duration": 0.09999999999999432
        },
        {
          "name": "D3",
          "midi": 50,
          "time": 148.3999999999988,
          "velocity": 0.7874015748031497,
          "duration": 0.09999999999999432
        },
        {
          "name": "D3",
          "midi": 50,
          "time": 148.5999999999988,
          "velocity": 0.7874015748031497,
          "duration": 0.09999999999999432
        },
        {
          "name": "D3",
          "midi": 50,
          "time": 148.7999999999988,
          "velocity": 0.7874015748031497,
          "duration": 0.09999999999999432
        },
        {
          "name": "D3",
          "midi": 50,
          "time": 148.99999999999878,
          "velocity": 0.7874015748031497,
          "duration": 0.09999999999999432
        },
        {
          "name": "D3",
          "midi": 50,
          "time": 149.19999999999877,
          "velocity": 0.7874015748031497,
          "duration": 0.09999999999999432
        },
        {
          "name": "D3",
          "midi": 50,
          "time": 149.39999999999876,
          "velocity": 0.7874015748031497,
          "duration": 0.09999999999999432
        },
        {
          "name": "D#3",
          "midi": 51,
          "time": 149.59999999999874,
          "velocity": 0.7874015748031497,
          "duration": 0.09999999999999432
        },
        {
          "name": "A#3",
          "midi": 58,
          "time": 149.59999999999874,
          "velocity": 0.7874015748031497,
          "duration": 0.19999999999998863
        },
        {
          "name": "D#3",
          "midi": 51,
          "time": 149.79999999999873,
          "velocity": 0.7874015748031497,
          "duration": 0.09999999999999432
        },
        {
          "name": "D#3",
          "midi": 51,
          "time": 149.99999999999872,
          "velocity": 0.7874015748031497,
          "duration": 0.09999999999999432
        },
        {
          "name": "D#3",
          "midi": 51,
          "time": 150.1999999999987,
          "velocity": 0.7874015748031497,
          "duration": 0.09999999999999432
        },
        {
          "name": "D#3",
          "midi": 51,
          "time": 150.3999999999987,
          "velocity": 0.7874015748031497,
          "duration": 0.09999999999999432
        },
        {
          "name": "D#3",
          "midi": 51,
          "time": 150.5999999999987,
          "velocity": 0.7874015748031497,
          "duration": 0.09999999999999432
        },
        {
          "name": "D#3",
          "midi": 51,
          "time": 150.79999999999868,
          "velocity": 0.7874015748031497,
          "duration": 0.09999999999999432
        },
        {
          "name": "D#3",
          "midi": 51,
          "time": 150.99999999999866,
          "velocity": 0.7874015748031497,
          "duration": 0.09999999999999432
        },
        {
          "name": "A#2",
          "midi": 46,
          "time": 151.19999999999865,
          "velocity": 0.7874015748031497,
          "duration": 0.09999999999999432
        },
        {
          "name": "F3",
          "midi": 53,
          "time": 151.19999999999865,
          "velocity": 0.7874015748031497,
          "duration": 0.19999999999998863
        },
        {
          "name": "A#2",
          "midi": 46,
          "time": 151.39999999999864,
          "velocity": 0.7874015748031497,
          "duration": 0.09999999999999432
        },
        {
          "name": "A#2",
          "midi": 46,
          "time": 151.59999999999863,
          "velocity": 0.7874015748031497,
          "duration": 0.09999999999999432
        },
        {
          "name": "A#2",
          "midi": 46,
          "time": 151.79999999999862,
          "velocity": 0.7874015748031497,
          "duration": 0.09999999999999432
        },
        {
          "name": "A#2",
          "midi": 46,
          "time": 151.9999999999986,
          "velocity": 0.7874015748031497,
          "duration": 0.09999999999999432
        },
        {
          "name": "A#2",
          "midi": 46,
          "time": 152.1999999999986,
          "velocity": 0.7874015748031497,
          "duration": 0.09999999999999432
        },
        {
          "name": "A#2",
          "midi": 46,
          "time": 152.39999999999858,
          "velocity": 0.7874015748031497,
          "duration": 0.09999999999999432
        },
        {
          "name": "A#2",
          "midi": 46,
          "time": 152.59999999999857,
          "velocity": 0.7874015748031497,
          "duration": 0.09999999999999432
        },
        {
          "name": "F3",
          "midi": 53,
          "time": 152.79999999999856,
          "velocity": 0.7874015748031497,
          "duration": 0.5999999999999943
        },
        {
          "name": "C4",
          "midi": 60,
          "time": 152.79999999999856,
          "velocity": 0.7874015748031497,
          "duration": 0.5999999999999943
        },
        {
          "name": "F3",
          "midi": 53,
          "time": 153.39999999999856,
          "velocity": 0.7874015748031497,
          "duration": 0.5999999999999943
        },
        {
          "name": "C4",
          "midi": 60,
          "time": 153.39999999999856,
          "velocity": 0.7874015748031497,
          "duration": 0.5999999999999943
        },
        {
          "name": "F3",
          "midi": 53,
          "time": 153.99999999999855,
          "velocity": 0.7874015748031497,
          "duration": 0.19999999999998863
        },
        {
          "name": "C4",
          "midi": 60,
          "time": 153.99999999999855,
          "velocity": 0.7874015748031497,
          "duration": 0.19999999999998863
        },
        {
          "name": "F3",
          "midi": 53,
          "time": 154.19999999999854,
          "velocity": 0.7874015748031497,
          "duration": 0.19999999999998863
        },
        {
          "name": "C4",
          "midi": 60,
          "time": 154.19999999999854,
          "velocity": 0.7874015748031497,
          "duration": 0.19999999999998863
        },
        {
          "name": "F3",
          "midi": 53,
          "time": 154.39999999999853,
          "velocity": 0.7874015748031497,
          "duration": 0.5999999999999943
        },
        {
          "name": "C4",
          "midi": 60,
          "time": 154.39999999999853,
          "velocity": 0.7874015748031497,
          "duration": 0.5999999999999943
        },
        {
          "name": "F3",
          "midi": 53,
          "time": 154.99999999999852,
          "velocity": 0.7874015748031497,
          "duration": 1
        },
        {
          "name": "C4",
          "midi": 60,
          "time": 154.99999999999852,
          "velocity": 0.7874015748031497,
          "duration": 1
        },
        {
          "name": "G2",
          "midi": 43,
          "time": 155.99999999999852,
          "velocity": 0.7874015748031497,
          "duration": 0.09999999999999432
        },
        {
          "name": "D3",
          "midi": 50,
          "time": 155.99999999999852,
          "velocity": 0.7874015748031497,
          "duration": 0.19999999999998863
        },
        {
          "name": "G2",
          "midi": 43,
          "time": 156.1999999999985,
          "velocity": 0.7874015748031497,
          "duration": 0.09999999999999432
        },
        {
          "name": "G2",
          "midi": 43,
          "time": 156.3999999999985,
          "velocity": 0.7874015748031497,
          "duration": 0.09999999999999432
        },
        {
          "name": "G2",
          "midi": 43,
          "time": 156.5999999999985,
          "velocity": 0.7874015748031497,
          "duration": 0.09999999999999432
        },
        {
          "name": "G2",
          "midi": 43,
          "time": 156.79999999999848,
          "velocity": 0.7874015748031497,
          "duration": 0.09999999999999432
        },
        {
          "name": "G2",
          "midi": 43,
          "time": 156.99999999999847,
          "velocity": 0.7874015748031497,
          "duration": 0.09999999999999432
        },
        {
          "name": "G2",
          "midi": 43,
          "time": 157.19999999999845,
          "velocity": 0.7874015748031497,
          "duration": 0.09999999999999432
        },
        {
          "name": "G2",
          "midi": 43,
          "time": 157.39999999999844,
          "velocity": 0.7874015748031497,
          "duration": 0.09999999999999432
        },
        {
          "name": "D3",
          "midi": 50,
          "time": 157.59999999999843,
          "velocity": 0.7874015748031497,
          "duration": 0.09999999999999432
        },
        {
          "name": "A3",
          "midi": 57,
          "time": 157.59999999999843,
          "velocity": 0.7874015748031497,
          "duration": 0.19999999999998863
        },
        {
          "name": "D3",
          "midi": 50,
          "time": 157.79999999999842,
          "velocity": 0.7874015748031497,
          "duration": 0.09999999999999432
        },
        {
          "name": "D3",
          "midi": 50,
          "time": 157.9999999999984,
          "velocity": 0.7874015748031497,
          "duration": 0.09999999999999432
        },
        {
          "name": "D3",
          "midi": 50,
          "time": 158.1999999999984,
          "velocity": 0.7874015748031497,
          "duration": 0.09999999999999432
        },
        {
          "name": "D3",
          "midi": 50,
          "time": 158.39999999999839,
          "velocity": 0.7874015748031497,
          "duration": 0.09999999999999432
        },
        {
          "name": "D3",
          "midi": 50,
          "time": 158.59999999999837,
          "velocity": 0.7874015748031497,
          "duration": 0.09999999999999432
        },
        {
          "name": "D3",
          "midi": 50,
          "time": 158.79999999999836,
          "velocity": 0.7874015748031497,
          "duration": 0.09999999999999432
        },
        {
          "name": "D3",
          "midi": 50,
          "time": 158.99999999999835,
          "velocity": 0.7874015748031497,
          "duration": 0.09999999999999432
        },
        {
          "name": "D#3",
          "midi": 51,
          "time": 159.19999999999834,
          "velocity": 0.7874015748031497,
          "duration": 0.09999999999999432
        },
        {
          "name": "A#3",
          "midi": 58,
          "time": 159.19999999999834,
          "velocity": 0.7874015748031497,
          "duration": 0.19999999999998863
        },
        {
          "name": "D#3",
          "midi": 51,
          "time": 159.39999999999833,
          "velocity": 0.7874015748031497,
          "duration": 0.09999999999999432
        },
        {
          "name": "D#3",
          "midi": 51,
          "time": 159.59999999999832,
          "velocity": 0.7874015748031497,
          "duration": 0.09999999999999432
        },
        {
          "name": "D#3",
          "midi": 51,
          "time": 159.7999999999983,
          "velocity": 0.7874015748031497,
          "duration": 0.09999999999999432
        },
        {
          "name": "D#3",
          "midi": 51,
          "time": 159.9999999999983,
          "velocity": 0.7874015748031497,
          "duration": 0.09999999999999432
        },
        {
          "name": "D#3",
          "midi": 51,
          "time": 160.19999999999828,
          "velocity": 0.7874015748031497,
          "duration": 0.09999999999999432
        },
        {
          "name": "D#3",
          "midi": 51,
          "time": 160.39999999999827,
          "velocity": 0.7874015748031497,
          "duration": 0.09999999999999432
        },
        {
          "name": "D#3",
          "midi": 51,
          "time": 160.59999999999826,
          "velocity": 0.7874015748031497,
          "duration": 0.09999999999999432
        },
        {
          "name": "A#2",
          "midi": 46,
          "time": 160.79999999999825,
          "velocity": 0.7874015748031497,
          "duration": 0.09999999999999432
        },
        {
          "name": "F3",
          "midi": 53,
          "time": 160.79999999999825,
          "velocity": 0.7874015748031497,
          "duration": 0.19999999999998863
        },
        {
          "name": "A#2",
          "midi": 46,
          "time": 160.99999999999824,
          "velocity": 0.7874015748031497,
          "duration": 0.09999999999999432
        },
        {
          "name": "A#2",
          "midi": 46,
          "time": 161.19999999999823,
          "velocity": 0.7874015748031497,
          "duration": 0.09999999999999432
        },
        {
          "name": "A#2",
          "midi": 46,
          "time": 161.39999999999822,
          "velocity": 0.7874015748031497,
          "duration": 0.09999999999999432
        },
        {
          "name": "A#2",
          "midi": 46,
          "time": 161.5999999999982,
          "velocity": 0.7874015748031497,
          "duration": 0.09999999999999432
        },
        {
          "name": "A#2",
          "midi": 46,
          "time": 161.7999999999982,
          "velocity": 0.7874015748031497,
          "duration": 0.09999999999999432
        },
        {
          "name": "A#2",
          "midi": 46,
          "time": 161.99999999999818,
          "velocity": 0.7874015748031497,
          "duration": 0.09999999999999432
        },
        {
          "name": "A#2",
          "midi": 46,
          "time": 162.19999999999817,
          "velocity": 0.7874015748031497,
          "duration": 0.09999999999999432
        },
        {
          "name": "D#3",
          "midi": 51,
          "time": 162.39999999999816,
          "velocity": 0.7874015748031497,
          "duration": 0.09999999999999432
        },
        {
          "name": "A#3",
          "midi": 58,
          "time": 162.39999999999816,
          "velocity": 0.7874015748031497,
          "duration": 0.19999999999998863
        },
        {
          "name": "D#3",
          "midi": 51,
          "time": 162.59999999999815,
          "velocity": 0.7874015748031497,
          "duration": 0.09999999999999432
        },
        {
          "name": "D#3",
          "midi": 51,
          "time": 162.79999999999814,
          "velocity": 0.7874015748031497,
          "duration": 0.09999999999999432
        },
        {
          "name": "D#3",
          "midi": 51,
          "time": 162.99999999999812,
          "velocity": 0.7874015748031497,
          "duration": 0.09999999999999432
        },
        {
          "name": "D#3",
          "midi": 51,
          "time": 163.1999999999981,
          "velocity": 0.7874015748031497,
          "duration": 0.09999999999999432
        },
        {
          "name": "D#3",
          "midi": 51,
          "time": 163.3999999999981,
          "velocity": 0.7874015748031497,
          "duration": 0.09999999999999432
        },
        {
          "name": "D#3",
          "midi": 51,
          "time": 163.5999999999981,
          "velocity": 0.7874015748031497,
          "duration": 0.09999999999999432
        },
        {
          "name": "D#3",
          "midi": 51,
          "time": 163.79999999999808,
          "velocity": 0.7874015748031497,
          "duration": 0.09999999999999432
        },
        {
          "name": "A#2",
          "midi": 46,
          "time": 163.99999999999807,
          "velocity": 0.7874015748031497,
          "duration": 0.09999999999999432
        },
        {
          "name": "F3",
          "midi": 53,
          "time": 163.99999999999807,
          "velocity": 0.7874015748031497,
          "duration": 0.19999999999998863
        },
        {
          "name": "A#2",
          "midi": 46,
          "time": 164.19999999999806,
          "velocity": 0.7874015748031497,
          "duration": 0.09999999999999432
        },
        {
          "name": "A#2",
          "midi": 46,
          "time": 164.39999999999804,
          "velocity": 0.7874015748031497,
          "duration": 0.09999999999999432
        },
        {
          "name": "A#2",
          "midi": 46,
          "time": 164.59999999999803,
          "velocity": 0.7874015748031497,
          "duration": 0.09999999999999432
        },
        {
          "name": "A#2",
          "midi": 46,
          "time": 164.79999999999802,
          "velocity": 0.7874015748031497,
          "duration": 0.09999999999999432
        },
        {
          "name": "A#2",
          "midi": 46,
          "time": 164.999999999998,
          "velocity": 0.7874015748031497,
          "duration": 0.09999999999999432
        },
        {
          "name": "A#2",
          "midi": 46,
          "time": 165.199999999998,
          "velocity": 0.7874015748031497,
          "duration": 0.09999999999999432
        },
        {
          "name": "A#2",
          "midi": 46,
          "time": 165.399999999998,
          "velocity": 0.7874015748031497,
          "duration": 0.09999999999999432
        },
        {
          "name": "F3",
          "midi": 53,
          "time": 165.59999999999798,
          "velocity": 0.7874015748031497,
          "duration": 0.5999999999999943
        },
        {
          "name": "C4",
          "midi": 60,
          "time": 165.59999999999798,
          "velocity": 0.7874015748031497,
          "duration": 0.5999999999999943
        },
        {
          "name": "F3",
          "midi": 53,
          "time": 166.19999999999797,
          "velocity": 0.7874015748031497,
          "duration": 0.5999999999999943
        },
        {
          "name": "C4",
          "midi": 60,
          "time": 166.19999999999797,
          "velocity": 0.7874015748031497,
          "duration": 0.5999999999999943
        },
        {
          "name": "F3",
          "midi": 53,
          "time": 166.79999999999797,
          "velocity": 0.7874015748031497,
          "duration": 0.19999999999998863
        },
        {
          "name": "C4",
          "midi": 60,
          "time": 166.79999999999797,
          "velocity": 0.7874015748031497,
          "duration": 0.19999999999998863
        },
        {
          "name": "F3",
          "midi": 53,
          "time": 166.99999999999795,
          "velocity": 0.7874015748031497,
          "duration": 0.19999999999998863
        },
        {
          "name": "C4",
          "midi": 60,
          "time": 166.99999999999795,
          "velocity": 0.7874015748031497,
          "duration": 0.19999999999998863
        },
        {
          "name": "F3",
          "midi": 53,
          "time": 167.19999999999794,
          "velocity": 0.7874015748031497,
          "duration": 0.5999999999999943
        },
        {
          "name": "C4",
          "midi": 60,
          "time": 167.19999999999794,
          "velocity": 0.7874015748031497,
          "duration": 0.5999999999999943
        },
        {
          "name": "F3",
          "midi": 53,
          "time": 167.79999999999794,
          "velocity": 0.7874015748031497,
          "duration": 0.5999999999999943
        },
        {
          "name": "C4",
          "midi": 60,
          "time": 167.79999999999794,
          "velocity": 0.7874015748031497,
          "duration": 0.5999999999999943
        },
        {
          "name": "F3",
          "midi": 53,
          "time": 168.39999999999793,
          "velocity": 0.7874015748031497,
          "duration": 0.4000000000000057
        },
        {
          "name": "C4",
          "midi": 60,
          "time": 168.39999999999793,
          "velocity": 0.7874015748031497,
          "duration": 0.4000000000000057
        },
        {
          "name": "C3",
          "midi": 48,
          "time": 168.79999999999794,
          "velocity": 0.7874015748031497,
          "duration": 0.4000000000000057
        },
        {
          "name": "D#3",
          "midi": 51,
          "time": 168.79999999999794,
          "velocity": 0.7874015748031497,
          "duration": 0.4000000000000057
        },
        {
          "name": "A#2",
          "midi": 46,
          "time": 169.19999999999794,
          "velocity": 0.7874015748031497,
          "duration": 0.4000000000000057
        },
        {
          "name": "D3",
          "midi": 50,
          "time": 169.19999999999794,
          "velocity": 0.7874015748031497,
          "duration": 0.4000000000000057
        },
        {
          "name": "A2",
          "midi": 45,
          "time": 169.59999999999795,
          "velocity": 0.7874015748031497,
          "duration": 0.4000000000000057
        },
        {
          "name": "C3",
          "midi": 48,
          "time": 169.59999999999795,
          "velocity": 0.7874015748031497,
          "duration": 0.4000000000000057
        },
        {
          "name": "G2",
          "midi": 43,
          "time": 169.99999999999795,
          "velocity": 0.7874015748031497,
          "duration": 0.4000000000000057
        },
        {
          "name": "A#2",
          "midi": 46,
          "time": 169.99999999999795,
          "velocity": 0.7874015748031497,
          "duration": 0.4000000000000057
        },
        {
          "name": "A#2",
          "midi": 46,
          "time": 170.39999999999796,
          "velocity": 0.7874015748031497,
          "duration": 0.09999999999999432
        },
        {
          "name": "A2",
          "midi": 45,
          "time": 170.79999999999797,
          "velocity": 0.7874015748031497,
          "duration": 0.09999999999999432
        },
        {
          "name": "G2",
          "midi": 43,
          "time": 171.19999999999797,
          "velocity": 0.7874015748031497,
          "duration": 0.09999999999999432
        },
        {
          "name": "F2",
          "midi": 41,
          "time": 171.59999999999798,
          "velocity": 0.7874015748031497,
          "duration": 0.09999999999999432
        },
        {
          "name": "G4",
          "midi": 67,
          "time": 171.99999999999798,
          "velocity": 0.7874015748031497,
          "duration": 0.19999999999998863
        },
        {
          "name": "A4",
          "midi": 69,
          "time": 172.39999999999796,
          "velocity": 0.7874015748031497,
          "duration": 0.19916666666665606
        },
        {
          "name": "A#4",
          "midi": 70,
          "time": 172.79999999999794,
          "velocity": 0.7874015748031497,
          "duration": 0.19999999999998863
        },
        {
          "name": "G4",
          "midi": 67,
          "time": 173.1999999999979,
          "velocity": 0.7874015748031497,
          "duration": 0.19999999999998863
        },
        {
          "name": "C5",
          "midi": 72,
          "time": 173.5999999999979,
          "velocity": 0.7874015748031497,
          "duration": 0.19999999999998863
        },
        {
          "name": "A4",
          "midi": 69,
          "time": 173.99999999999787,
          "velocity": 0.7874015748031497,
          "duration": 0.19999999999998863
        },
        {
          "name": "A#4",
          "midi": 70,
          "time": 174.4016666666645,
          "velocity": 0.7874015748031497,
          "duration": 0.19999999999998863
        },
        {
          "name": "G4",
          "midi": 67,
          "time": 174.79999999999782,
          "velocity": 0.7874015748031497,
          "duration": 0.20333333333334735
        },
        {
          "name": "G4",
          "midi": 67,
          "time": 175.19999999999783,
          "velocity": 0.7874015748031497,
          "duration": 0.19999999999998863
        },
        {
          "name": "A4",
          "midi": 69,
          "time": 175.5999999999978,
          "velocity": 0.7874015748031497,
          "duration": 0.19916666666665606
        },
        {
          "name": "A#4",
          "midi": 70,
          "time": 175.99999999999778,
          "velocity": 0.7874015748031497,
          "duration": 0.19999999999998863
        },
        {
          "name": "G4",
          "midi": 67,
          "time": 176.39999999999776,
          "velocity": 0.7874015748031497,
          "duration": 0.19999999999998863
        },
        {
          "name": "C5",
          "midi": 72,
          "time": 176.79999999999774,
          "velocity": 0.7874015748031497,
          "duration": 0.4000000000000057
        },
        {
          "name": "A#4",
          "midi": 70,
          "time": 177.19999999999774,
          "velocity": 0.7874015748031497,
          "duration": 0.4000000000000057
        },
        {
          "name": "A4",
          "midi": 69,
          "time": 177.59999999999775,
          "velocity": 0.7874015748031497,
          "duration": 0.4000000000000057
        },
        {
          "name": "G4",
          "midi": 67,
          "time": 178.00333333333108,
          "velocity": 0.7874015748031497,
          "duration": 0.4000000000000057
        },
        {
          "name": "F4",
          "midi": 65,
          "time": 178.39999999999776,
          "velocity": 0.7874015748031497,
          "duration": 0.19999999999998863
        },
        {
          "name": "G4",
          "midi": 67,
          "time": 178.79999999999774,
          "velocity": 0.7874015748031497,
          "duration": 0.19916666666665606
        },
        {
          "name": "A4",
          "midi": 69,
          "time": 179.19999999999771,
          "velocity": 0.7874015748031497,
          "duration": 0.19999999999998863
        },
        {
          "name": "F4",
          "midi": 65,
          "time": 179.5999999999977,
          "velocity": 0.7874015748031497,
          "duration": 0.19999999999998863
        },
        {
          "name": "C5",
          "midi": 72,
          "time": 179.99999999999767,
          "velocity": 0.7874015748031497,
          "duration": 0.19999999999998863
        },
        {
          "name": "G4",
          "midi": 67,
          "time": 180.39999999999765,
          "velocity": 0.7874015748031497,
          "duration": 0.19999999999998863
        },
        {
          "name": "A4",
          "midi": 69,
          "time": 180.8016666666643,
          "velocity": 0.7874015748031497,
          "duration": 0.19999999999998863
        },
        {
          "name": "F4",
          "midi": 65,
          "time": 181.1999999999976,
          "velocity": 0.7874015748031497,
          "duration": 0.20333333333334735
        },
        {
          "name": "F4",
          "midi": 65,
          "time": 181.5999999999976,
          "velocity": 0.7874015748031497,
          "duration": 0.19999999999998863
        },
        {
          "name": "G4",
          "midi": 67,
          "time": 181.99999999999758,
          "velocity": 0.7874015748031497,
          "duration": 0.19916666666665606
        },
        {
          "name": "A4",
          "midi": 69,
          "time": 182.39999999999756,
          "velocity": 0.7874015748031497,
          "duration": 0.19999999999998863
        },
        {
          "name": "F4",
          "midi": 65,
          "time": 182.79999999999754,
          "velocity": 0.7874015748031497,
          "duration": 0.19999999999998863
        },
        {
          "name": "F4",
          "midi": 65,
          "time": 183.19999999999752,
          "velocity": 0.7874015748031497,
          "duration": 0.4000000000000057
        },
        {
          "name": "G4",
          "midi": 67,
          "time": 183.59999999999752,
          "velocity": 0.7874015748031497,
          "duration": 0.4000000000000057
        },
        {
          "name": "A4",
          "midi": 69,
          "time": 183.99999999999753,
          "velocity": 0.7874015748031497,
          "duration": 0.4000000000000057
        },
        {
          "name": "A#4",
          "midi": 70,
          "time": 184.39999999999753,
          "velocity": 0.7874015748031497,
          "duration": 0.4000000000000057
        },
        {
          "name": "A4",
          "midi": 69,
          "time": 184.79999999999754,
          "velocity": 0.7874015748031497,
          "duration": 0.4000000000000057
        },
        {
          "name": "B4",
          "midi": 71,
          "time": 185.19999999999754,
          "velocity": 0.7874015748031497,
          "duration": 0.4000000000000057
        },
        {
          "name": "C5",
          "midi": 72,
          "time": 185.59999999999755,
          "velocity": 0.7874015748031497,
          "duration": 0.4000000000000057
        },
        {
          "name": "A4",
          "midi": 69,
          "time": 185.99999999999756,
          "velocity": 0.7874015748031497,
          "duration": 0.4000000000000057
        },
        {
          "name": "D5",
          "midi": 74,
          "time": 186.39999999999756,
          "velocity": 0.7874015748031497,
          "duration": 0.4000000000000057
        },
        {
          "name": "B4",
          "midi": 71,
          "time": 186.79999999999757,
          "velocity": 0.7874015748031497,
          "duration": 0.4000000000000057
        },
        {
          "name": "C5",
          "midi": 72,
          "time": 187.19999999999757,
          "velocity": 0.7874015748031497,
          "duration": 0.4000000000000057
        },
        {
          "name": "A4",
          "midi": 69,
          "time": 187.59999999999758,
          "velocity": 0.7874015748031497,
          "duration": 0.4000000000000057
        },
        {
          "name": "A4",
          "midi": 69,
          "time": 187.99999999999758,
          "velocity": 0.7874015748031497,
          "duration": 0.4000000000000057
        },
        {
          "name": "B4",
          "midi": 71,
          "time": 188.3999999999976,
          "velocity": 0.7874015748031497,
          "duration": 0.4000000000000057
        },
        {
          "name": "C5",
          "midi": 72,
          "time": 188.7999999999976,
          "velocity": 0.7874015748031497,
          "duration": 0.4000000000000057
        },
        {
          "name": "A4",
          "midi": 69,
          "time": 189.1999999999976,
          "velocity": 0.7874015748031497,
          "duration": 0.4000000000000057
        },
        {
          "name": "D5",
          "midi": 74,
          "time": 189.5999999999976,
          "velocity": 0.7874015748031497,
          "duration": 0.4000000000000057
        },
        {
          "name": "C5",
          "midi": 72,
          "time": 189.9999999999976,
          "velocity": 0.7874015748031497,
          "duration": 0.4000000000000057
        },
        {
          "name": "B4",
          "midi": 71,
          "time": 190.39999999999762,
          "velocity": 0.7874015748031497,
          "duration": 0.4000000000000057
        },
        {
          "name": "A4",
          "midi": 69,
          "time": 190.79999999999762,
          "velocity": 0.7874015748031497,
          "duration": 0.4000000000000057
        },
        {
          "name": "G4",
          "midi": 67,
          "time": 191.19999999999763,
          "velocity": 0.7874015748031497,
          "duration": 0.4000000000000057
        },
        {
          "name": "A4",
          "midi": 69,
          "time": 191.59999999999764,
          "velocity": 0.7874015748031497,
          "duration": 0.4000000000000057
        },
        {
          "name": "B4",
          "midi": 71,
          "time": 191.99999999999764,
          "velocity": 0.7874015748031497,
          "duration": 0.4000000000000057
        },
        {
          "name": "G4",
          "midi": 67,
          "time": 192.39999999999765,
          "velocity": 0.7874015748031497,
          "duration": 0.4000000000000057
        },
        {
          "name": "D5",
          "midi": 74,
          "time": 192.79999999999765,
          "velocity": 0.7874015748031497,
          "duration": 0.4000000000000057
        },
        {
          "name": "A4",
          "midi": 69,
          "time": 193.19999999999766,
          "velocity": 0.7874015748031497,
          "duration": 0.4000000000000057
        },
        {
          "name": "B4",
          "midi": 71,
          "time": 193.59999999999766,
          "velocity": 0.7874015748031497,
          "duration": 0.4000000000000057
        },
        {
          "name": "G4",
          "midi": 67,
          "time": 193.99999999999767,
          "velocity": 0.7874015748031497,
          "duration": 0.40166666666667084
        },
        {
          "name": "G4",
          "midi": 67,
          "time": 194.39999999999768,
          "velocity": 0.7874015748031497,
          "duration": 0.4000000000000057
        },
        {
          "name": "A4",
          "midi": 69,
          "time": 194.79999999999768,
          "velocity": 0.7874015748031497,
          "duration": 0.4000000000000057
        },
        {
          "name": "B4",
          "midi": 71,
          "time": 195.1999999999977,
          "velocity": 0.7874015748031497,
          "duration": 0.4000000000000057
        },
        {
          "name": "G4",
          "midi": 67,
          "time": 195.5999999999977,
          "velocity": 0.7874015748031497,
          "duration": 0.4000000000000057
        },
        {
          "name": "D4",
          "midi": 62,
          "time": 195.9999999999977,
          "velocity": 0.7874015748031497,
          "duration": 0.09999999999999432
        },
        {
          "name": "G#4",
          "midi": 68,
          "time": 196.3999999999977,
          "velocity": 0.7874015748031497,
          "duration": 0.09999999999999432
        },
        {
          "name": "C5",
          "midi": 72,
          "time": 196.7999999999977,
          "velocity": 0.7874015748031497,
          "duration": 0.09999999999999432
        },
        {
          "name": "D#5",
          "midi": 75,
          "time": 197.19999999999771,
          "velocity": 0.7874015748031497,
          "duration": 0.13333333333332575
        },
        {
          "name": "C5",
          "midi": 72,
          "time": 197.59999999999772,
          "velocity": 0.7874015748031497,
          "duration": 0.4000000000000057
        },
        {
          "name": "D5",
          "midi": 74,
          "time": 197.99999999999773,
          "velocity": 0.7874015748031497,
          "duration": 0.4000000000000057
        },
        {
          "name": "D#5",
          "midi": 75,
          "time": 198.39999999999773,
          "velocity": 0.7874015748031497,
          "duration": 0.4000000000000057
        },
        {
          "name": "C5",
          "midi": 72,
          "time": 198.79999999999774,
          "velocity": 0.7874015748031497,
          "duration": 0.4000000000000057
        },
        {
          "name": "F5",
          "midi": 77,
          "time": 199.19999999999774,
          "velocity": 0.7874015748031497,
          "duration": 0.4000000000000057
        },
        {
          "name": "D5",
          "midi": 74,
          "time": 199.59999999999775,
          "velocity": 0.7874015748031497,
          "duration": 0.4000000000000057
        },
        {
          "name": "D#5",
          "midi": 75,
          "time": 199.99999999999775,
          "velocity": 0.7874015748031497,
          "duration": 0.4000000000000057
        },
        {
          "name": "C5",
          "midi": 72,
          "time": 200.39999999999776,
          "velocity": 0.7874015748031497,
          "duration": 0.4000000000000057
        },
        {
          "name": "C5",
          "midi": 72,
          "time": 200.79999999999777,
          "velocity": 0.7874015748031497,
          "duration": 0.4000000000000057
        },
        {
          "name": "D5",
          "midi": 74,
          "time": 201.19999999999777,
          "velocity": 0.7874015748031497,
          "duration": 0.4000000000000057
        },
        {
          "name": "D#5",
          "midi": 75,
          "time": 201.59999999999778,
          "velocity": 0.7874015748031497,
          "duration": 0.4000000000000057
        },
        {
          "name": "C5",
          "midi": 72,
          "time": 201.99999999999778,
          "velocity": 0.7874015748031497,
          "duration": 0.4000000000000057
        },
        {
          "name": "F5",
          "midi": 77,
          "time": 202.3999999999978,
          "velocity": 0.7874015748031497,
          "duration": 0.4000000000000057
        },
        {
          "name": "D#5",
          "midi": 75,
          "time": 202.7999999999978,
          "velocity": 0.7874015748031497,
          "duration": 0.4000000000000057
        },
        {
          "name": "D5",
          "midi": 74,
          "time": 203.1999999999978,
          "velocity": 0.7874015748031497,
          "duration": 0.4000000000000057
        },
        {
          "name": "C5",
          "midi": 72,
          "time": 203.5999999999978,
          "velocity": 0.7874015748031497,
          "duration": 0.4000000000000057
        },
        {
          "name": "D#5",
          "midi": 75,
          "time": 203.9999999999978,
          "velocity": 0.7874015748031497,
          "duration": 0.4000000000000057
        },
        {
          "name": "F5",
          "midi": 77,
          "time": 204.39999999999782,
          "velocity": 0.7874015748031497,
          "duration": 0.4000000000000057
        },
        {
          "name": "F#5",
          "midi": 78,
          "time": 204.79999999999782,
          "velocity": 0.7874015748031497,
          "duration": 0.4000000000000057
        },
        {
          "name": "D#5",
          "midi": 75,
          "time": 205.19999999999783,
          "velocity": 0.7874015748031497,
          "duration": 0.4000000000000057
        },
        {
          "name": "G#5",
          "midi": 80,
          "time": 205.59999999999783,
          "velocity": 0.7874015748031497,
          "duration": 0.4000000000000057
        },
        {
          "name": "F5",
          "midi": 77,
          "time": 205.99999999999784,
          "velocity": 0.7874015748031497,
          "duration": 0.4000000000000057
        },
        {
          "name": "F#5",
          "midi": 78,
          "time": 206.39999999999785,
          "velocity": 0.7874015748031497,
          "duration": 0.4000000000000057
        },
        {
          "name": "D#5",
          "midi": 75,
          "time": 206.79999999999785,
          "velocity": 0.7874015748031497,
          "duration": 0.4000000000000057
        },
        {
          "name": "D#5",
          "midi": 75,
          "time": 207.19999999999786,
          "velocity": 0.7874015748031497,
          "duration": 0.4000000000000057
        },
        {
          "name": "F5",
          "midi": 77,
          "time": 207.59999999999786,
          "velocity": 0.7874015748031497,
          "duration": 0.4000000000000057
        },
        {
          "name": "F#5",
          "midi": 78,
          "time": 207.99999999999787,
          "velocity": 0.7874015748031497,
          "duration": 0.4000000000000057
        },
        {
          "name": "D#5",
          "midi": 75,
          "time": 208.39999999999787,
          "velocity": 0.7874015748031497,
          "duration": 0.4000000000000057
        },
        {
          "name": "G#5",
          "midi": 80,
          "time": 208.79999999999788,
          "velocity": 0.7874015748031497,
          "duration": 0.4000000000000057
        },
        {
          "name": "F#5",
          "midi": 78,
          "time": 209.19999999999789,
          "velocity": 0.7874015748031497,
          "duration": 0.4000000000000057
        },
        {
          "name": "F5",
          "midi": 77,
          "time": 209.5999999999979,
          "velocity": 0.7874015748031497,
          "duration": 0.4000000000000057
        },
        {
          "name": "D#5",
          "midi": 75,
          "time": 209.9999999999979,
          "velocity": 0.7874015748031497,
          "duration": 0.4000000000000057
        },
        {
          "name": "C5",
          "midi": 72,
          "time": 210.3999999999979,
          "velocity": 0.7874015748031497,
          "duration": 0.39750000000000796
        },
        {
          "name": "F4",
          "midi": 65,
          "time": 210.7999999999979,
          "velocity": 0.7874015748031497,
          "duration": 0.25
        },
        {
          "name": "C5",
          "midi": 72,
          "time": 211.0499999999979,
          "velocity": 0.7874015748031497,
          "duration": 0.3499999999999943
        },
        {
          "name": "F4",
          "midi": 65,
          "time": 211.3999999999979,
          "velocity": 0.7874015748031497,
          "duration": 0.19999999999998863
        },
        {
          "name": "C5",
          "midi": 72,
          "time": 211.5999999999979,
          "velocity": 0.7874015748031497,
          "duration": 0.19999999999998863
        },
        {
          "name": "C#5",
          "midi": 73,
          "time": 211.79999999999788,
          "velocity": 0.7874015748031497,
          "duration": 0.214999999999975
        },
        {
          "name": "C5",
          "midi": 72,
          "time": 211.99999999999787,
          "velocity": 0.7874015748031497,
          "duration": 0.39999999999997726
        },
        {
          "name": "F4",
          "midi": 65,
          "time": 212.39999999999785,
          "velocity": 0.7874015748031497,
          "duration": 0.19999999999998863
        },
        {
          "name": "C5",
          "midi": 72,
          "time": 212.59999999999783,
          "velocity": 0.7874015748031497,
          "duration": 1
        },
        {
          "name": "F5",
          "midi": 77,
          "time": 213.59999999999783,
          "velocity": 0.7874015748031497,
          "duration": 0.09749999999999659
        },
        {
          "name": "C5",
          "midi": 72,
          "time": 213.99999999999784,
          "velocity": 0.7874015748031497,
          "duration": 0.09999999999999432
        },
        {
          "name": "G#4",
          "midi": 68,
          "time": 214.39999999999785,
          "velocity": 0.7874015748031497,
          "duration": 0.09999999999999432
        },
        {
          "name": "D#4",
          "midi": 63,
          "time": 214.79999999999785,
          "velocity": 0.7874015748031497,
          "duration": 0.09999999999999432
        },
        {
          "name": "F4",
          "midi": 65,
          "time": 215.19999999999786,
          "velocity": 0.7874015748031497,
          "duration": 0.4000000000000057
        },
        {
          "name": "G4",
          "midi": 67,
          "time": 215.59999999999786,
          "velocity": 0.7874015748031497,
          "duration": 0.4000000000000057
        },
        {
          "name": "G#4",
          "midi": 68,
          "time": 215.99999999999787,
          "velocity": 0.7874015748031497,
          "duration": 0.4000000000000057
        },
        {
          "name": "A#4",
          "midi": 70,
          "time": 216.39999999999787,
          "velocity": 0.7874015748031497,
          "duration": 0.25
        },
        {
          "name": "G#5",
          "midi": 80,
          "time": 216.79999999999788,
          "velocity": 0.7874015748031497,
          "duration": 0.09999999999999432
        },
        {
          "name": "C5",
          "midi": 72,
          "time": 217.19999999999789,
          "velocity": 0.7874015748031497,
          "duration": 0.09666666666666401
        },
        {
          "name": "G5",
          "midi": 79,
          "time": 217.5999999999979,
          "velocity": 0.7874015748031497,
          "duration": 0.09999999999999432
        },
        {
          "name": "C5",
          "midi": 72,
          "time": 217.9999999999979,
          "velocity": 0.7874015748031497,
          "duration": 0.09999999999999432
        },
        {
          "name": "A#5",
          "midi": 82,
          "time": 218.3999999999979,
          "velocity": 0.7874015748031497,
          "duration": 0.09999999999999432
        },
        {
          "name": "E5",
          "midi": 76,
          "time": 218.7999999999979,
          "velocity": 0.7874015748031497,
          "duration": 0.09999999999999432
        },
        {
          "name": "G#5",
          "midi": 80,
          "time": 219.1999999999979,
          "velocity": 0.7874015748031497,
          "duration": 0.09999999999999432
        },
        {
          "name": "C5",
          "midi": 72,
          "time": 219.59999999999792,
          "velocity": 0.7874015748031497,
          "duration": 0.09666666666666401
        },
        {
          "name": "F4",
          "midi": 65,
          "time": 220.0016666666646,
          "velocity": 0.7874015748031497,
          "duration": 0.06499999999999773
        },
        {
          "name": "G4",
          "midi": 67,
          "time": 220.39999999999793,
          "velocity": 0.7874015748031497,
          "duration": 0.06666666666666288
        },
        {
          "name": "G#4",
          "midi": 68,
          "time": 220.79999999999794,
          "velocity": 0.7874015748031497,
          "duration": 0.06666666666666288
        },
        {
          "name": "A#4",
          "midi": 70,
          "time": 221.19999999999794,
          "velocity": 0.7874015748031497,
          "duration": 0.4000000000000057
        },
        {
          "name": "A#4",
          "midi": 70,
          "time": 221.59999999999795,
          "velocity": 0.7874015748031497,
          "duration": 0.09499999999999886
        },
        {
          "name": "G#4",
          "midi": 68,
          "time": 221.9958333333313,
          "velocity": 0.7874015748031497,
          "duration": 0.09833333333332916
        },
        {
          "name": "G4",
          "midi": 67,
          "time": 222.39749999999796,
          "velocity": 0.7874015748031497,
          "duration": 0.11416666666667652
        },
        {
          "name": "G#4",
          "midi": 68,
          "time": 222.69999999999797,
          "velocity": 0.7874015748031497,
          "duration": 0.5
        },
        {
          "name": "G4",
          "midi": 67,
          "time": 223.20499999999797,
          "velocity": 0.7874015748031497,
          "duration": 0.4000000000000057
        },
        {
          "name": "F4",
          "midi": 65,
          "time": 223.59999999999798,
          "velocity": 0.7874015748031497,
          "duration": 0.2041666666666515
        },
        {
          "name": "G4",
          "midi": 67,
          "time": 223.80416666666463,
          "velocity": 0.7874015748031497,
          "duration": 0.4000000000000057
        },
        {
          "name": "F4",
          "midi": 65,
          "time": 224.19499999999798,
          "velocity": 0.7874015748031497,
          "duration": 0.19999999999998863
        },
        {
          "name": "G4",
          "midi": 67,
          "time": 224.39999999999796,
          "velocity": 0.7874015748031497,
          "duration": 0.19999999999998863
        },
        {
          "name": "A4",
          "midi": 69,
          "time": 224.59999999999795,
          "velocity": 0.7874015748031497,
          "duration": 0.19999999999998863
        },
        {
          "name": "A#4",
          "midi": 70,
          "time": 224.79999999999794,
          "velocity": 0.7874015748031497,
          "duration": 0.19999999999998863
        },
        {
          "name": "A4",
          "midi": 69,
          "time": 224.99999999999793,
          "velocity": 0.7874015748031497,
          "duration": 0.19999999999998863
        },
        {
          "name": "G4",
          "midi": 67,
          "time": 225.19833333333125,
          "velocity": 0.7874015748031497,
          "duration": 0.19999999999998863
        },
        {
          "name": "G4",
          "midi": 67,
          "time": 225.3999999999979,
          "velocity": 0.7874015748031497,
          "duration": 1
        },
        {
          "name": "A4",
          "midi": 69,
          "time": 226.40083333333124,
          "velocity": 0.7874015748031497,
          "duration": 0.4000000000000057
        },
        {
          "name": "G4",
          "midi": 67,
          "time": 226.7999999999979,
          "velocity": 0.7874015748031497,
          "duration": 0.19999999999998863
        },
        {
          "name": "A4",
          "midi": 69,
          "time": 226.9999999999979,
          "velocity": 0.7874015748031497,
          "duration": 0.4000000000000057
        },
        {
          "name": "G4",
          "midi": 67,
          "time": 227.3999999999979,
          "velocity": 0.7874015748031497,
          "duration": 0.19999999999998863
        },
        {
          "name": "A4",
          "midi": 69,
          "time": 227.5999999999979,
          "velocity": 0.7874015748031497,
          "duration": 0.19999999999998863
        },
        {
          "name": "A#4",
          "midi": 70,
          "time": 227.79999999999788,
          "velocity": 0.7874015748031497,
          "duration": 0.19999999999998863
        },
        {
          "name": "C5",
          "midi": 72,
          "time": 227.99999999999787,
          "velocity": 0.7874015748031497,
          "duration": 0.19999999999998863
        },
        {
          "name": "A#4",
          "midi": 70,
          "time": 228.19999999999786,
          "velocity": 0.7874015748031497,
          "duration": 0.19999999999998863
        },
        {
          "name": "A4",
          "midi": 69,
          "time": 228.39999999999785,
          "velocity": 0.7874015748031497,
          "duration": 0.19999999999998863
        },
        {
          "name": "D5",
          "midi": 74,
          "time": 228.59999999999783,
          "velocity": 0.7874015748031497,
          "duration": 1
        },
        {
          "name": "D#4",
          "midi": 63,
          "time": 229.59999999999783,
          "velocity": 0.7874015748031497,
          "duration": 0.13333333333332575
        },
        {
          "name": "D#5",
          "midi": 75,
          "time": 229.99999999999784,
          "velocity": 0.7874015748031497,
          "duration": 0.12666666666666515
        },
        {
          "name": "G4",
          "midi": 67,
          "time": 230.4141666666645,
          "velocity": 0.7874015748031497,
          "duration": 0.13333333333332575
        },
        {
          "name": "G5",
          "midi": 79,
          "time": 230.7916666666645,
          "velocity": 0.7874015748031497,
          "duration": 0.13333333333332575
        },
        {
          "name": "A#4",
          "midi": 70,
          "time": 231.19999999999783,
          "velocity": 0.7874015748031497,
          "duration": 0.12000000000000455
        },
        {
          "name": "A#5",
          "midi": 82,
          "time": 231.59999999999783,
          "velocity": 0.7874015748031497,
          "duration": 0.13333333333332575
        },
        {
          "name": "A#4",
          "midi": 70,
          "time": 231.99999999999784,
          "velocity": 0.7874015748031497,
          "duration": 0.8000000000000114
        },
        {
          "name": "F4",
          "midi": 65,
          "time": 232.79999999999785,
          "velocity": 0.7874015748031497,
          "duration": 0.13333333333332575
        },
        {
          "name": "F5",
          "midi": 77,
          "time": 233.19999999999786,
          "velocity": 0.7874015748031497,
          "duration": 0.12666666666666515
        },
        {
          "name": "A4",
          "midi": 69,
          "time": 233.61416666666452,
          "velocity": 0.7874015748031497,
          "duration": 0.13333333333332575
        },
        {
          "name": "A5",
          "midi": 81,
          "time": 233.9916666666645,
          "velocity": 0.7874015748031497,
          "duration": 0.13333333333332575
        },
        {
          "name": "D#5",
          "midi": 75,
          "time": 234.39999999999785,
          "velocity": 0.7874015748031497,
          "duration": 0.11666666666667425
        },
        {
          "name": "C6",
          "midi": 84,
          "time": 234.79999999999785,
          "velocity": 0.7874015748031497,
          "duration": 0.13333333333332575
        },
        {
          "name": "D6",
          "midi": 86,
          "time": 235.19999999999786,
          "velocity": 0.7874015748031497,
          "duration": 0.806666666666672
        },
        {
          "name": "A#4",
          "midi": 70,
          "time": 235.99999999999787,
          "velocity": 0.7874015748031497,
          "duration": 0.4000000000000057
        },
        {
          "name": "A4",
          "midi": 69,
          "time": 236.39999999999787,
          "velocity": 0.7874015748031497,
          "duration": 0.4000000000000057
        },
        {
          "name": "G4",
          "midi": 67,
          "time": 236.79999999999788,
          "velocity": 0.7874015748031497,
          "duration": 0.4000000000000057
        },
        {
          "name": "F4",
          "midi": 65,
          "time": 237.20749999999788,
          "velocity": 0.7874015748031497,
          "duration": 0.4000000000000057
        },
        {
          "name": "G4",
          "midi": 67,
          "time": 237.5999999999979,
          "velocity": 0.7874015748031497,
          "duration": 0.19999999999998863
        },
        {
          "name": "A4",
          "midi": 69,
          "time": 237.99999999999787,
          "velocity": 0.7874015748031497,
          "duration": 0.19916666666665606
        },
        {
          "name": "A#4",
          "midi": 70,
          "time": 238.39999999999785,
          "velocity": 0.7874015748031497,
          "duration": 0.19999999999998863
        },
        {
          "name": "G4",
          "midi": 67,
          "time": 238.79999999999782,
          "velocity": 0.7874015748031497,
          "duration": 0.19999999999998863
        },
        {
          "name": "C5",
          "midi": 72,
          "time": 239.1999999999978,
          "velocity": 0.7874015748031497,
          "duration": 0.19999999999998863
        },
        {
          "name": "A4",
          "midi": 69,
          "time": 239.59999999999778,
          "velocity": 0.7874015748031497,
          "duration": 0.19999999999998863
        },
        {
          "name": "A#4",
          "midi": 70,
          "time": 240.00166666666442,
          "velocity": 0.7874015748031497,
          "duration": 0.19999999999998863
        },
        {
          "name": "G4",
          "midi": 67,
          "time": 240.39999999999773,
          "velocity": 0.7874015748031497,
          "duration": 0.20333333333334735
        },
        {
          "name": "G4",
          "midi": 67,
          "time": 240.79999999999774,
          "velocity": 0.7874015748031497,
          "duration": 0.19999999999998863
        },
        {
          "name": "A4",
          "midi": 69,
          "time": 241.19999999999771,
          "velocity": 0.7874015748031497,
          "duration": 0.19916666666665606
        },
        {
          "name": "A#4",
          "midi": 70,
          "time": 241.5999999999977,
          "velocity": 0.7874015748031497,
          "duration": 0.19999999999998863
        },
        {
          "name": "G4",
          "midi": 67,
          "time": 241.99999999999767,
          "velocity": 0.7874015748031497,
          "duration": 0.19999999999998863
        },
        {
          "name": "C5",
          "midi": 72,
          "time": 242.39999999999765,
          "velocity": 0.7874015748031497,
          "duration": 0.4000000000000057
        },
        {
          "name": "A#4",
          "midi": 70,
          "time": 242.79999999999765,
          "velocity": 0.7874015748031497,
          "duration": 0.4000000000000057
        },
        {
          "name": "A4",
          "midi": 69,
          "time": 243.19999999999766,
          "velocity": 0.7874015748031497,
          "duration": 0.4000000000000057
        },
        {
          "name": "G4",
          "midi": 67,
          "time": 243.603333333331,
          "velocity": 0.7874015748031497,
          "duration": 0.4000000000000057
        },
        {
          "name": "F4",
          "midi": 65,
          "time": 243.99999999999767,
          "velocity": 0.7874015748031497,
          "duration": 0.4000000000000057
        },
        {
          "name": "G4",
          "midi": 67,
          "time": 244.39999999999768,
          "velocity": 0.7874015748031497,
          "duration": 0.4000000000000057
        },
        {
          "name": "A4",
          "midi": 69,
          "time": 244.79999999999768,
          "velocity": 0.7874015748031497,
          "duration": 0.4000000000000057
        },
        {
          "name": "F4",
          "midi": 65,
          "time": 245.1999999999977,
          "velocity": 0.7874015748031497,
          "duration": 0.4000000000000057
        },
        {
          "name": "C5",
          "midi": 72,
          "time": 245.5999999999977,
          "velocity": 0.7874015748031497,
          "duration": 0.4000000000000057
        },
        {
          "name": "G4",
          "midi": 67,
          "time": 245.9999999999977,
          "velocity": 0.7874015748031497,
          "duration": 0.4000000000000057
        },
        {
          "name": "A4",
          "midi": 69,
          "time": 246.40166666666437,
          "velocity": 0.7874015748031497,
          "duration": 0.4000000000000057
        },
        {
          "name": "F4",
          "midi": 65,
          "time": 246.7999999999977,
          "velocity": 0.7874015748031497,
          "duration": 0.4000000000000057
        },
        {
          "name": "F4",
          "midi": 65,
          "time": 247.19999999999771,
          "velocity": 0.7874015748031497,
          "duration": 0.4000000000000057
        },
        {
          "name": "G4",
          "midi": 67,
          "time": 247.59999999999772,
          "velocity": 0.7874015748031497,
          "duration": 0.4000000000000057
        },
        {
          "name": "A4",
          "midi": 69,
          "time": 247.99999999999773,
          "velocity": 0.7874015748031497,
          "duration": 0.4000000000000057
        },
        {
          "name": "F4",
          "midi": 65,
          "time": 248.39999999999773,
          "velocity": 0.7874015748031497,
          "duration": 0.4000000000000057
        },
        {
          "name": "F4",
          "midi": 65,
          "time": 248.79999999999774,
          "velocity": 0.7874015748031497,
          "duration": 0.13333333333332575
        },
        {
          "name": "G4",
          "midi": 67,
          "time": 249.19999999999774,
          "velocity": 0.7874015748031497,
          "duration": 0.13333333333332575
        },
        {
          "name": "A4",
          "midi": 69,
          "time": 249.59999999999775,
          "velocity": 0.7874015748031497,
          "duration": 0.13333333333332575
        },
        {
          "name": "A#4",
          "midi": 70,
          "time": 249.99999999999775,
          "velocity": 0.7874015748031497,
          "duration": 0.13333333333332575
        },
        {
          "name": "D#3",
          "midi": 51,
          "time": 250.39999999999776,
          "velocity": 0.7874015748031497,
          "duration": 0.5999999999999943
        },
        {
          "name": "G3",
          "midi": 55,
          "time": 250.39999999999776,
          "velocity": 0.7874015748031497,
          "duration": 0.5999999999999943
        },
        {
          "name": "D#3",
          "midi": 51,
          "time": 250.99999999999775,
          "velocity": 0.7874015748031497,
          "duration": 0.5999999999999943
        },
        {
          "name": "A3",
          "midi": 57,
          "time": 250.99999999999775,
          "velocity": 0.7874015748031497,
          "duration": 0.5999999999999943
        },
        {
          "name": "D#3",
          "midi": 51,
          "time": 251.59999999999775,
          "velocity": 0.7874015748031497,
          "duration": 0.4000000000000057
        },
        {
          "name": "A#3",
          "midi": 58,
          "time": 251.59999999999775,
          "velocity": 0.7874015748031497,
          "duration": 0.4000000000000057
        },
        {
          "name": "D#3",
          "midi": 51,
          "time": 251.99999999999775,
          "velocity": 0.7874015748031497,
          "duration": 0.5999999999999943
        },
        {
          "name": "G3",
          "midi": 55,
          "time": 251.99999999999775,
          "velocity": 0.7874015748031497,
          "duration": 0.5999999999999943
        },
        {
          "name": "D#3",
          "midi": 51,
          "time": 252.59999999999775,
          "velocity": 0.7874015748031497,
          "duration": 0.5999999999999943
        },
        {
          "name": "A3",
          "midi": 57,
          "time": 252.59999999999775,
          "velocity": 0.7874015748031497,
          "duration": 0.5999999999999943
        },
        {
          "name": "D#3",
          "midi": 51,
          "time": 253.19999999999774,
          "velocity": 0.7874015748031497,
          "duration": 0.4000000000000057
        },
        {
          "name": "A#3",
          "midi": 58,
          "time": 253.19999999999774,
          "velocity": 0.7874015748031497,
          "duration": 0.4000000000000057
        },
        {
          "name": "F3",
          "midi": 53,
          "time": 253.59999999999775,
          "velocity": 0.7874015748031497,
          "duration": 0.13333333333332575
        },
        {
          "name": "F3",
          "midi": 53,
          "time": 253.8666666666644,
          "velocity": 0.7874015748031497,
          "duration": 0.13333333333332575
        },
        {
          "name": "F3",
          "midi": 53,
          "time": 254.13333333333105,
          "velocity": 0.7874015748031497,
          "duration": 0.13333333333332575
        },
        {
          "name": "F3",
          "midi": 53,
          "time": 254.3999999999977,
          "velocity": 0.7874015748031497,
          "duration": 0.13333333333332575
        },
        {
          "name": "F3",
          "midi": 53,
          "time": 254.66666666666436,
          "velocity": 0.7874015748031497,
          "duration": 0.13333333333332575
        },
        {
          "name": "F3",
          "midi": 53,
          "time": 254.933333333331,
          "velocity": 0.7874015748031497,
          "duration": 0.13333333333332575
        },
        {
          "name": "F3",
          "midi": 53,
          "time": 255.19999999999766,
          "velocity": 0.7874015748031497,
          "duration": 0.13333333333332575
        },
        {
          "name": "F3",
          "midi": 53,
          "time": 255.4666666666643,
          "velocity": 0.7874015748031497,
          "duration": 0.13333333333332575
        },
        {
          "name": "F3",
          "midi": 53,
          "time": 255.73333333333096,
          "velocity": 0.7874015748031497,
          "duration": 0.13333333333332575
        },
        {
          "name": "F3",
          "midi": 53,
          "time": 255.9999999999976,
          "velocity": 0.7874015748031497,
          "duration": 0.13333333333332575
        },
        {
          "name": "F3",
          "midi": 53,
          "time": 256.3999999999976,
          "velocity": 0.7874015748031497,
          "duration": 0.39999999999997726
        },
        {
          "name": "A3",
          "midi": 57,
          "time": 256.4024999999976,
          "velocity": 0.7874015748031497,
          "duration": 0.39999999999997726
        },
        {
          "name": "G3",
          "midi": 55,
          "time": 256.79999999999757,
          "velocity": 0.7874015748031497,
          "duration": 0.30000000000001137
        },
        {
          "name": "A3",
          "midi": 57,
          "time": 257.3999999999976,
          "velocity": 0.7874015748031497,
          "duration": 0.30000000000001137
        },
        {
          "name": "A#3",
          "midi": 58,
          "time": 257.9999999999976,
          "velocity": 0.7874015748031497,
          "duration": 0.30000000000001137
        },
        {
          "name": "G3",
          "midi": 55,
          "time": 258.39999999999765,
          "velocity": 0.7874015748031497,
          "duration": 0.30000000000001137
        },
        {
          "name": "A3",
          "midi": 57,
          "time": 258.99999999999767,
          "velocity": 0.7874015748031497,
          "duration": 0.30000000000001137
        },
        {
          "name": "A#3",
          "midi": 58,
          "time": 259.5999999999977,
          "velocity": 0.7874015748031497,
          "duration": 0.30000000000001137
        },
        {
          "name": "A3",
          "midi": 57,
          "time": 259.9999999999977,
          "velocity": 0.7874015748031497,
          "duration": 0.30000000000001137
        },
        {
          "name": "A#3",
          "midi": 58,
          "time": 260.59999999999775,
          "velocity": 0.7874015748031497,
          "duration": 0.30000000000001137
        },
        {
          "name": "C4",
          "midi": 60,
          "time": 261.1999999999978,
          "velocity": 0.7874015748031497,
          "duration": 0.30000000000001137
        },
        {
          "name": "F#2",
          "midi": 42,
          "time": 261.5999999999978,
          "velocity": 0.7874015748031497,
          "duration": 0.10000000000002274
        },
        {
          "name": "C3",
          "midi": 48,
          "time": 261.99999999999784,
          "velocity": 0.7874015748031497,
          "duration": 0.10000000000002274
        },
        {
          "name": "D3",
          "midi": 50,
          "time": 262.3999999999979,
          "velocity": 0.7874015748031497,
          "duration": 0.19999999999998863
        },
        {
          "name": "D3",
          "midi": 50,
          "time": 262.79999999999785,
          "velocity": 0.7874015748031497,
          "duration": 0.30000000000001137
        },
        {
          "name": "A#2",
          "midi": 46,
          "time": 263.1999999999979,
          "velocity": 0.7874015748031497,
          "duration": 1.5749999999999886
        },
        {
          "name": "F3",
          "midi": 53,
          "time": 263.1999999999979,
          "velocity": 0.7874015748031497,
          "duration": 1.599999999999966
        },
        {
          "name": "F2",
          "midi": 41,
          "time": 264.79999999999785,
          "velocity": 0.7874015748031497,
          "duration": 1.6000000000000227
        },
        {
          "name": "C3",
          "midi": 48,
          "time": 264.79999999999785,
          "velocity": 0.7874015748031497,
          "duration": 1.6000000000000227
        },
        {
          "name": "G2",
          "midi": 43,
          "time": 266.3999999999979,
          "velocity": 0.7874015748031497,
          "duration": 1.6000000000000227
        },
        {
          "name": "D3",
          "midi": 50,
          "time": 266.3999999999979,
          "velocity": 0.7874015748031497,
          "duration": 1.6000000000000227
        },
        {
          "name": "D3",
          "midi": 50,
          "time": 267.9999999999979,
          "velocity": 0.7874015748031497,
          "duration": 0.6000000000000227
        },
        {
          "name": "A3",
          "midi": 57,
          "time": 267.9999999999979,
          "velocity": 0.7874015748031497,
          "duration": 0.6000000000000227
        },
        {
          "name": "D3",
          "midi": 50,
          "time": 268.7999999999979,
          "velocity": 0.7874015748031497,
          "duration": 0.10000000000002274
        },
        {
          "name": "D3",
          "midi": 50,
          "time": 268.99999999999795,
          "velocity": 0.7874015748031497,
          "duration": 0.10000000000002274
        },
        {
          "name": "D3",
          "midi": 50,
          "time": 269.199999999998,
          "velocity": 0.7874015748031497,
          "duration": 0.10000000000002274
        },
        {
          "name": "D3",
          "midi": 50,
          "time": 269.39999999999804,
          "velocity": 0.7874015748031497,
          "duration": 0.10000000000002274
        },
        {
          "name": "D#3",
          "midi": 51,
          "time": 269.5999999999981,
          "velocity": 0.7874015748031497,
          "duration": 1.6000000000000227
        },
        {
          "name": "A#3",
          "midi": 58,
          "time": 269.5999999999981,
          "velocity": 0.7874015748031497,
          "duration": 1.6000000000000227
        },
        {
          "name": "A#2",
          "midi": 46,
          "time": 271.1999999999981,
          "velocity": 0.7874015748031497,
          "duration": 1.6000000000000227
        },
        {
          "name": "F3",
          "midi": 53,
          "time": 271.1999999999981,
          "velocity": 0.7874015748031497,
          "duration": 1.6000000000000227
        },
        {
          "name": "F3",
          "midi": 53,
          "time": 272.79999999999814,
          "velocity": 0.7874015748031497,
          "duration": 0.6000000000000227
        },
        {
          "name": "C4",
          "midi": 60,
          "time": 272.79999999999814,
          "velocity": 0.7874015748031497,
          "duration": 0.6000000000000227
        },
        {
          "name": "F3",
          "midi": 53,
          "time": 273.39999999999816,
          "velocity": 0.7874015748031497,
          "duration": 0.6000000000000227
        },
        {
          "name": "C4",
          "midi": 60,
          "time": 273.39999999999816,
          "velocity": 0.7874015748031497,
          "duration": 0.6000000000000227
        },
        {
          "name": "F3",
          "midi": 53,
          "time": 273.9999999999982,
          "velocity": 0.7874015748031497,
          "duration": 0.19999999999998863
        },
        {
          "name": "C4",
          "midi": 60,
          "time": 273.9999999999982,
          "velocity": 0.7874015748031497,
          "duration": 0.19999999999998863
        },
        {
          "name": "F3",
          "midi": 53,
          "time": 274.19999999999817,
          "velocity": 0.7874015748031497,
          "duration": 0.19999999999998863
        },
        {
          "name": "C4",
          "midi": 60,
          "time": 274.19999999999817,
          "velocity": 0.7874015748031497,
          "duration": 0.19999999999998863
        },
        {
          "name": "F3",
          "midi": 53,
          "time": 274.39999999999816,
          "velocity": 0.7874015748031497,
          "duration": 0.5
        },
        {
          "name": "C4",
          "midi": 60,
          "time": 274.39999999999816,
          "velocity": 0.7874015748031497,
          "duration": 0.5
        },
        {
          "name": "F3",
          "midi": 53,
          "time": 274.9999999999982,
          "velocity": 0.7874015748031497,
          "duration": 0.10000000000002274
        },
        {
          "name": "C4",
          "midi": 60,
          "time": 274.9999999999982,
          "velocity": 0.7874015748031497,
          "duration": 0.10000000000002274
        },
        {
          "name": "F3",
          "midi": 53,
          "time": 275.1999999999982,
          "velocity": 0.7874015748031497,
          "duration": 0.10000000000002274
        },
        {
          "name": "C4",
          "midi": 60,
          "time": 275.1999999999982,
          "velocity": 0.7874015748031497,
          "duration": 0.10000000000002274
        },
        {
          "name": "F3",
          "midi": 53,
          "time": 275.3999999999983,
          "velocity": 0.7874015748031497,
          "duration": 0.10000000000002274
        },
        {
          "name": "C4",
          "midi": 60,
          "time": 275.3999999999983,
          "velocity": 0.7874015748031497,
          "duration": 0.10000000000002274
        },
        {
          "name": "F3",
          "midi": 53,
          "time": 275.5999999999983,
          "velocity": 0.7874015748031497,
          "duration": 0.10000000000002274
        },
        {
          "name": "C4",
          "midi": 60,
          "time": 275.5999999999983,
          "velocity": 0.7874015748031497,
          "duration": 0.10000000000002274
        },
        {
          "name": "F3",
          "midi": 53,
          "time": 275.79999999999836,
          "velocity": 0.7874015748031497,
          "duration": 0.10000000000002274
        },
        {
          "name": "C4",
          "midi": 60,
          "time": 275.79999999999836,
          "velocity": 0.7874015748031497,
          "duration": 0.10000000000002274
        },
        {
          "name": "G2",
          "midi": 43,
          "time": 275.9999999999984,
          "velocity": 0.7874015748031497,
          "duration": 1.6000000000000227
        },
        {
          "name": "D3",
          "midi": 50,
          "time": 275.9999999999984,
          "velocity": 0.7874015748031497,
          "duration": 1.6000000000000227
        },
        {
          "name": "D3",
          "midi": 50,
          "time": 277.59999999999843,
          "velocity": 0.7874015748031497,
          "duration": 1.6000000000000227
        },
        {
          "name": "A3",
          "midi": 57,
          "time": 277.59999999999843,
          "velocity": 0.7874015748031497,
          "duration": 1.6000000000000227
        },
        {
          "name": "D#3",
          "midi": 51,
          "time": 279.19999999999845,
          "velocity": 0.7874015748031497,
          "duration": 1.6000000000000227
        },
        {
          "name": "A#3",
          "midi": 58,
          "time": 279.19999999999845,
          "velocity": 0.7874015748031497,
          "duration": 1.6000000000000227
        },
        {
          "name": "A#2",
          "midi": 46,
          "time": 280.7999999999985,
          "velocity": 0.7874015748031497,
          "duration": 0.6000000000000227
        },
        {
          "name": "F3",
          "midi": 53,
          "time": 280.7999999999985,
          "velocity": 0.7874015748031497,
          "duration": 0.6000000000000227
        },
        {
          "name": "A#2",
          "midi": 46,
          "time": 281.5999999999985,
          "velocity": 0.7874015748031497,
          "duration": 0.10000000000002274
        },
        {
          "name": "A#2",
          "midi": 46,
          "time": 281.79999999999853,
          "velocity": 0.7874015748031497,
          "duration": 0.10000000000002274
        },
        {
          "name": "A#2",
          "midi": 46,
          "time": 281.9999999999986,
          "velocity": 0.7874015748031497,
          "duration": 0.10000000000002274
        },
        {
          "name": "A#2",
          "midi": 46,
          "time": 282.1999999999986,
          "velocity": 0.7874015748031497,
          "duration": 0.10000000000002274
        },
        {
          "name": "D#3",
          "midi": 51,
          "time": 282.39999999999867,
          "velocity": 0.7874015748031497,
          "duration": 0.6000000000000227
        },
        {
          "name": "A#3",
          "midi": 58,
          "time": 282.39999999999867,
          "velocity": 0.7874015748031497,
          "duration": 0.6000000000000227
        },
        {
          "name": "D#3",
          "midi": 51,
          "time": 282.9999999999987,
          "velocity": 0.7874015748031497,
          "duration": 0.6000000000000227
        },
        {
          "name": "A#3",
          "midi": 58,
          "time": 282.9999999999987,
          "velocity": 0.7874015748031497,
          "duration": 0.6000000000000227
        },
        {
          "name": "D3",
          "midi": 50,
          "time": 283.5999999999987,
          "velocity": 0.7874015748031497,
          "duration": 0.39999999999997726
        },
        {
          "name": "A#3",
          "midi": 58,
          "time": 283.5999999999987,
          "velocity": 0.7874015748031497,
          "duration": 0.39999999999997726
        },
        {
          "name": "A#2",
          "midi": 46,
          "time": 283.9999999999987,
          "velocity": 0.7874015748031497,
          "duration": 0.6000000000000227
        },
        {
          "name": "F3",
          "midi": 53,
          "time": 283.9999999999987,
          "velocity": 0.7874015748031497,
          "duration": 0.6000000000000227
        },
        {
          "name": "A#2",
          "midi": 46,
          "time": 284.5999999999987,
          "velocity": 0.7874015748031497,
          "duration": 0.6000000000000227
        },
        {
          "name": "F3",
          "midi": 53,
          "time": 284.5999999999987,
          "velocity": 0.7874015748031497,
          "duration": 0.6000000000000227
        },
        {
          "name": "A#2",
          "midi": 46,
          "time": 285.19999999999874,
          "velocity": 0.7874015748031497,
          "duration": 0.39999999999997726
        },
        {
          "name": "D#3",
          "midi": 51,
          "time": 285.19999999999874,
          "velocity": 0.7874015748031497,
          "duration": 0.39999999999997726
        },
        {
          "name": "F3",
          "midi": 53,
          "time": 285.5999999999987,
          "velocity": 0.7874015748031497,
          "duration": 0.19999999999998863
        },
        {
          "name": "C4",
          "midi": 60,
          "time": 285.5999999999987,
          "velocity": 0.7874015748031497,
          "duration": 0.5999999999999659
        },
        {
          "name": "C4",
          "midi": 60,
          "time": 286.1999999999987,
          "velocity": 0.7874015748031497,
          "duration": 0.6000000000000227
        },
        {
          "name": "C4",
          "midi": 60,
          "time": 286.7999999999987,
          "velocity": 0.7874015748031497,
          "duration": 0.19999999999998863
        },
        {
          "name": "C4",
          "midi": 60,
          "time": 286.9999999999987,
          "velocity": 0.7874015748031497,
          "duration": 0.19999999999998863
        },
        {
          "name": "F3",
          "midi": 53,
          "time": 287.1999999999987,
          "velocity": 0.7874015748031497,
          "duration": 0.19999999999998863
        },
        {
          "name": "C4",
          "midi": 60,
          "time": 287.1999999999987,
          "velocity": 0.7874015748031497,
          "duration": 0.5999999999999659
        },
        {
          "name": "C4",
          "midi": 60,
          "time": 287.79999999999865,
          "velocity": 0.7874015748031497,
          "duration": 0.6000000000000227
        },
        {
          "name": "C4",
          "midi": 60,
          "time": 288.39999999999867,
          "velocity": 0.7874015748031497,
          "duration": 0.39999999999997726
        },
        {
          "name": "F2",
          "midi": 41,
          "time": 288.79999999999865,
          "velocity": 0.7874015748031497,
          "duration": 0.10000000000002274
        },
        {
          "name": "C3",
          "midi": 48,
          "time": 288.79999999999865,
          "velocity": 0.7874015748031497,
          "duration": 0.20000000000004547
        },
        {
          "name": "F2",
          "midi": 41,
          "time": 288.9999999999987,
          "velocity": 0.7874015748031497,
          "duration": 0.10000000000002274
        },
        {
          "name": "F2",
          "midi": 41,
          "time": 289.19999999999874,
          "velocity": 0.7874015748031497,
          "duration": 0.10000000000002274
        },
        {
          "name": "F2",
          "midi": 41,
          "time": 289.3999999999988,
          "velocity": 0.7874015748031497,
          "duration": 0.10000000000002274
        },
        {
          "name": "F2",
          "midi": 41,
          "time": 289.59999999999883,
          "velocity": 0.7874015748031497,
          "duration": 0.10000000000002274
        },
        {
          "name": "F2",
          "midi": 41,
          "time": 289.7999999999989,
          "velocity": 0.7874015748031497,
          "duration": 0.10000000000002274
        },
        {
          "name": "F2",
          "midi": 41,
          "time": 289.9999999999989,
          "velocity": 0.7874015748031497,
          "duration": 0.10000000000002274
        },
        {
          "name": "F2",
          "midi": 41,
          "time": 290.19999999999897,
          "velocity": 0.7874015748031497,
          "duration": 0.10000000000002274
        },
        {
          "name": "G3",
          "midi": 55,
          "time": 290.399999999999,
          "velocity": 0.7874015748031497,
          "duration": 0.20000000000004547
        },
        {
          "name": "C3",
          "midi": 48,
          "time": 290.40333333333234,
          "velocity": 0.7874015748031497,
          "duration": 0.09666666666669244
        },
        {
          "name": "C3",
          "midi": 48,
          "time": 290.59999999999906,
          "velocity": 0.7874015748031497,
          "duration": 0.10000000000002274
        },
        {
          "name": "C3",
          "midi": 48,
          "time": 290.7999999999991,
          "velocity": 0.7874015748031497,
          "duration": 0.10000000000002274
        },
        {
          "name": "C3",
          "midi": 48,
          "time": 290.99999999999915,
          "velocity": 0.7874015748031497,
          "duration": 0.10000000000002274
        },
        {
          "name": "C3",
          "midi": 48,
          "time": 291.1999999999992,
          "velocity": 0.7874015748031497,
          "duration": 0.10000000000002274
        },
        {
          "name": "C3",
          "midi": 48,
          "time": 291.39999999999924,
          "velocity": 0.7874015748031497,
          "duration": 0.10000000000002274
        },
        {
          "name": "C3",
          "midi": 48,
          "time": 291.5999999999993,
          "velocity": 0.7874015748031497,
          "duration": 0.10000000000002274
        },
        {
          "name": "C3",
          "midi": 48,
          "time": 291.79999999999933,
          "velocity": 0.7874015748031497,
          "duration": 0.10000000000002274
        },
        {
          "name": "C#3",
          "midi": 49,
          "time": 291.9999999999994,
          "velocity": 0.7874015748031497,
          "duration": 0.10000000000002274
        },
        {
          "name": "G#3",
          "midi": 56,
          "time": 291.9999999999994,
          "velocity": 0.7874015748031497,
          "duration": 0.20000000000004547
        },
        {
          "name": "C#3",
          "midi": 49,
          "time": 292.1999999999994,
          "velocity": 0.7874015748031497,
          "duration": 0.10000000000002274
        },
        {
          "name": "C#3",
          "midi": 49,
          "time": 292.39999999999947,
          "velocity": 0.7874015748031497,
          "duration": 0.10000000000002274
        },
        {
          "name": "C#3",
          "midi": 49,
          "time": 292.5999999999995,
          "velocity": 0.7874015748031497,
          "duration": 0.10000000000002274
        },
        {
          "name": "C#3",
          "midi": 49,
          "time": 292.79999999999956,
          "velocity": 0.7874015748031497,
          "duration": 0.10000000000002274
        },
        {
          "name": "C#3",
          "midi": 49,
          "time": 292.9999999999996,
          "velocity": 0.7874015748031497,
          "duration": 0.10000000000002274
        },
        {
          "name": "C#3",
          "midi": 49,
          "time": 293.19999999999965,
          "velocity": 0.7874015748031497,
          "duration": 0.10000000000002274
        },
        {
          "name": "C#3",
          "midi": 49,
          "time": 293.3999999999997,
          "velocity": 0.7874015748031497,
          "duration": 0.10000000000002274
        },
        {
          "name": "G#2",
          "midi": 44,
          "time": 293.59999999999974,
          "velocity": 0.7874015748031497,
          "duration": 0.10000000000002274
        },
        {
          "name": "D#3",
          "midi": 51,
          "time": 293.59999999999974,
          "velocity": 0.7874015748031497,
          "duration": 0.20000000000004547
        },
        {
          "name": "G#2",
          "midi": 44,
          "time": 293.7999999999998,
          "velocity": 0.7874015748031497,
          "duration": 0.10000000000002274
        },
        {
          "name": "G#2",
          "midi": 44,
          "time": 293.99999999999983,
          "velocity": 0.7874015748031497,
          "duration": 0.10000000000002274
        },
        {
          "name": "G#2",
          "midi": 44,
          "time": 294.1999999999999,
          "velocity": 0.7874015748031497,
          "duration": 0.10000000000002274
        },
        {
          "name": "G#2",
          "midi": 44,
          "time": 294.3999999999999,
          "velocity": 0.7874015748031497,
          "duration": 0.10000000000002274
        },
        {
          "name": "G#2",
          "midi": 44,
          "time": 294.59999999999997,
          "velocity": 0.7874015748031497,
          "duration": 0.10000000000002274
        },
        {
          "name": "G#2",
          "midi": 44,
          "time": 294.8,
          "velocity": 0.7874015748031497,
          "duration": 0.10000000000002274
        },
        {
          "name": "G#2",
          "midi": 44,
          "time": 295.00000000000006,
          "velocity": 0.7874015748031497,
          "duration": 0.10000000000002274
        },
        {
          "name": "C#3",
          "midi": 49,
          "time": 295.2000000000001,
          "velocity": 0.7874015748031497,
          "duration": 0.10000000000002274
        },
        {
          "name": "G#3",
          "midi": 56,
          "time": 295.2000000000001,
          "velocity": 0.7874015748031497,
          "duration": 0.20000000000004547
        },
        {
          "name": "C#3",
          "midi": 49,
          "time": 295.40000000000015,
          "velocity": 0.7874015748031497,
          "duration": 0.10000000000002274
        },
        {
          "name": "C#3",
          "midi": 49,
          "time": 295.6000000000002,
          "velocity": 0.7874015748031497,
          "duration": 0.10000000000002274
        },
        {
          "name": "C#3",
          "midi": 49,
          "time": 295.80000000000024,
          "velocity": 0.7874015748031497,
          "duration": 0.10000000000002274
        },
        {
          "name": "C#3",
          "midi": 49,
          "time": 296.0000000000003,
          "velocity": 0.7874015748031497,
          "duration": 0.10000000000002274
        },
        {
          "name": "C#3",
          "midi": 49,
          "time": 296.20000000000033,
          "velocity": 0.7874015748031497,
          "duration": 0.10000000000002274
        },
        {
          "name": "C#3",
          "midi": 49,
          "time": 296.4000000000004,
          "velocity": 0.7874015748031497,
          "duration": 0.10000000000002274
        },
        {
          "name": "C#3",
          "midi": 49,
          "time": 296.6000000000004,
          "velocity": 0.7874015748031497,
          "duration": 0.10000000000002274
        },
        {
          "name": "G#2",
          "midi": 44,
          "time": 296.80000000000047,
          "velocity": 0.7874015748031497,
          "duration": 0.10000000000002274
        },
        {
          "name": "D#3",
          "midi": 51,
          "time": 296.80000000000047,
          "velocity": 0.7874015748031497,
          "duration": 0.20000000000004547
        },
        {
          "name": "G#2",
          "midi": 44,
          "time": 297.0000000000005,
          "velocity": 0.7874015748031497,
          "duration": 0.10000000000002274
        },
        {
          "name": "G#2",
          "midi": 44,
          "time": 297.20000000000056,
          "velocity": 0.7874015748031497,
          "duration": 0.10000000000002274
        },
        {
          "name": "G#2",
          "midi": 44,
          "time": 297.4000000000006,
          "velocity": 0.7874015748031497,
          "duration": 0.10000000000002274
        },
        {
          "name": "G#2",
          "midi": 44,
          "time": 297.60000000000065,
          "velocity": 0.7874015748031497,
          "duration": 0.10000000000002274
        },
        {
          "name": "G#2",
          "midi": 44,
          "time": 297.8000000000007,
          "velocity": 0.7874015748031497,
          "duration": 0.10000000000002274
        },
        {
          "name": "G#2",
          "midi": 44,
          "time": 298.00000000000074,
          "velocity": 0.7874015748031497,
          "duration": 0.10000000000002274
        },
        {
          "name": "G#2",
          "midi": 44,
          "time": 298.2000000000008,
          "velocity": 0.7874015748031497,
          "duration": 0.10000000000002274
        },
        {
          "name": "D#3",
          "midi": 51,
          "time": 298.40000000000083,
          "velocity": 0.7874015748031497,
          "duration": 0.19999999999998863
        },
        {
          "name": "A#3",
          "midi": 58,
          "time": 298.40000000000083,
          "velocity": 0.7874015748031497,
          "duration": 0.5999999999999659
        },
        {
          "name": "A#3",
          "midi": 58,
          "time": 299.0000000000008,
          "velocity": 0.7874015748031497,
          "duration": 0.6000000000000227
        },
        {
          "name": "A#3",
          "midi": 58,
          "time": 299.6000000000008,
          "velocity": 0.7874015748031497,
          "duration": 0.19999999999998863
        },
        {
          "name": "A#3",
          "midi": 58,
          "time": 299.8000000000008,
          "velocity": 0.7874015748031497,
          "duration": 0.19999999999998863
        },
        {
          "name": "D#3",
          "midi": 51,
          "time": 300.0000000000008,
          "velocity": 0.7874015748031497,
          "duration": 0.19999999999998863
        },
        {
          "name": "A#3",
          "midi": 58,
          "time": 300.0000000000008,
          "velocity": 0.7874015748031497,
          "duration": 0.5999999999999659
        },
        {
          "name": "A#3",
          "midi": 58,
          "time": 300.60000000000076,
          "velocity": 0.7874015748031497,
          "duration": 0.6000000000000227
        },
        {
          "name": "A#3",
          "midi": 58,
          "time": 301.2000000000008,
          "velocity": 0.7874015748031497,
          "duration": 0.39999999999997726
        },
        {
          "name": "F2",
          "midi": 41,
          "time": 301.60000000000076,
          "velocity": 0.7874015748031497,
          "duration": 0.10000000000002274
        },
        {
          "name": "C3",
          "midi": 48,
          "time": 301.60000000000076,
          "velocity": 0.7874015748031497,
          "duration": 0.20000000000004547
        },
        {
          "name": "F2",
          "midi": 41,
          "time": 301.8000000000008,
          "velocity": 0.7874015748031497,
          "duration": 0.10000000000002274
        },
        {
          "name": "F2",
          "midi": 41,
          "time": 302.00000000000085,
          "velocity": 0.7874015748031497,
          "duration": 0.10000000000002274
        },
        {
          "name": "F2",
          "midi": 41,
          "time": 302.2000000000009,
          "velocity": 0.7874015748031497,
          "duration": 0.10000000000002274
        },
        {
          "name": "F2",
          "midi": 41,
          "time": 302.40000000000094,
          "velocity": 0.7874015748031497,
          "duration": 0.10000000000002274
        },
        {
          "name": "F2",
          "midi": 41,
          "time": 302.600000000001,
          "velocity": 0.7874015748031497,
          "duration": 0.10000000000002274
        },
        {
          "name": "F2",
          "midi": 41,
          "time": 302.80000000000103,
          "velocity": 0.7874015748031497,
          "duration": 0.10000000000002274
        },
        {
          "name": "F2",
          "midi": 41,
          "time": 303.0000000000011,
          "velocity": 0.7874015748031497,
          "duration": 0.10000000000002274
        },
        {
          "name": "C3",
          "midi": 48,
          "time": 303.2000000000011,
          "velocity": 0.7874015748031497,
          "duration": 0.10000000000002274
        },
        {
          "name": "G3",
          "midi": 55,
          "time": 303.2000000000011,
          "velocity": 0.7874015748031497,
          "duration": 0.20000000000004547
        },
        {
          "name": "C3",
          "midi": 48,
          "time": 303.40000000000117,
          "velocity": 0.7874015748031497,
          "duration": 0.10000000000002274
        },
        {
          "name": "C3",
          "midi": 48,
          "time": 303.6000000000012,
          "velocity": 0.7874015748031497,
          "duration": 0.10000000000002274
        },
        {
          "name": "C3",
          "midi": 48,
          "time": 303.80000000000126,
          "velocity": 0.7874015748031497,
          "duration": 0.10000000000002274
        },
        {
          "name": "C3",
          "midi": 48,
          "time": 304.0000000000013,
          "velocity": 0.7874015748031497,
          "duration": 0.10000000000002274
        },
        {
          "name": "C3",
          "midi": 48,
          "time": 304.20000000000135,
          "velocity": 0.7874015748031497,
          "duration": 0.10000000000002274
        },
        {
          "name": "C3",
          "midi": 48,
          "time": 304.4000000000014,
          "velocity": 0.7874015748031497,
          "duration": 0.10000000000002274
        },
        {
          "name": "C3",
          "midi": 48,
          "time": 304.60000000000144,
          "velocity": 0.7874015748031497,
          "duration": 0.10000000000002274
        },
        {
          "name": "C#3",
          "midi": 49,
          "time": 304.8000000000015,
          "velocity": 0.7874015748031497,
          "duration": 0.10000000000002274
        },
        {
          "name": "G#3",
          "midi": 56,
          "time": 304.8000000000015,
          "velocity": 0.7874015748031497,
          "duration": 0.20000000000004547
        },
        {
          "name": "C#3",
          "midi": 49,
          "time": 305.00000000000153,
          "velocity": 0.7874015748031497,
          "duration": 0.10000000000002274
        },
        {
          "name": "C#3",
          "midi": 49,
          "time": 305.2000000000016,
          "velocity": 0.7874015748031497,
          "duration": 0.10000000000002274
        },
        {
          "name": "C#3",
          "midi": 49,
          "time": 305.4000000000016,
          "velocity": 0.7874015748031497,
          "duration": 0.10000000000002274
        },
        {
          "name": "C#3",
          "midi": 49,
          "time": 305.60000000000167,
          "velocity": 0.7874015748031497,
          "duration": 0.10000000000002274
        },
        {
          "name": "C#3",
          "midi": 49,
          "time": 305.8000000000017,
          "velocity": 0.7874015748031497,
          "duration": 0.10000000000002274
        },
        {
          "name": "C#3",
          "midi": 49,
          "time": 306.00000000000176,
          "velocity": 0.7874015748031497,
          "duration": 0.10000000000002274
        },
        {
          "name": "C#3",
          "midi": 49,
          "time": 306.2000000000018,
          "velocity": 0.7874015748031497,
          "duration": 0.10000000000002274
        },
        {
          "name": "G#2",
          "midi": 44,
          "time": 306.40000000000185,
          "velocity": 0.7874015748031497,
          "duration": 0.10000000000002274
        },
        {
          "name": "D#3",
          "midi": 51,
          "time": 306.40000000000185,
          "velocity": 0.7874015748031497,
          "duration": 0.20000000000004547
        },
        {
          "name": "G#2",
          "midi": 44,
          "time": 306.6000000000019,
          "velocity": 0.7874015748031497,
          "duration": 0.10000000000002274
        },
        {
          "name": "G#2",
          "midi": 44,
          "time": 306.80000000000194,
          "velocity": 0.7874015748031497,
          "duration": 0.10000000000002274
        },
        {
          "name": "G#2",
          "midi": 44,
          "time": 307.000000000002,
          "velocity": 0.7874015748031497,
          "duration": 0.10000000000002274
        },
        {
          "name": "G#2",
          "midi": 44,
          "time": 307.20000000000203,
          "velocity": 0.7874015748031497,
          "duration": 0.10000000000002274
        },
        {
          "name": "G#2",
          "midi": 44,
          "time": 307.4000000000021,
          "velocity": 0.7874015748031497,
          "duration": 0.10000000000002274
        },
        {
          "name": "G#2",
          "midi": 44,
          "time": 307.6000000000021,
          "velocity": 0.7874015748031497,
          "duration": 0.10000000000002274
        },
        {
          "name": "G#2",
          "midi": 44,
          "time": 307.80000000000217,
          "velocity": 0.7874015748031497,
          "duration": 0.10000000000002274
        },
        {
          "name": "C#3",
          "midi": 49,
          "time": 308.0000000000022,
          "velocity": 0.7874015748031497,
          "duration": 0.10000000000002274
        },
        {
          "name": "G#3",
          "midi": 56,
          "time": 308.0000000000022,
          "velocity": 0.7874015748031497,
          "duration": 0.20000000000004547
        },
        {
          "name": "C#3",
          "midi": 49,
          "time": 308.20000000000226,
          "velocity": 0.7874015748031497,
          "duration": 0.10000000000002274
        },
        {
          "name": "C#3",
          "midi": 49,
          "time": 308.4000000000023,
          "velocity": 0.7874015748031497,
          "duration": 0.10000000000002274
        },
        {
          "name": "C#3",
          "midi": 49,
          "time": 308.60000000000235,
          "velocity": 0.7874015748031497,
          "duration": 0.10000000000002274
        },
        {
          "name": "C#3",
          "midi": 49,
          "time": 308.8000000000024,
          "velocity": 0.7874015748031497,
          "duration": 0.10000000000002274
        },
        {
          "name": "C#3",
          "midi": 49,
          "time": 309.00000000000244,
          "velocity": 0.7874015748031497,
          "duration": 0.10000000000002274
        },
        {
          "name": "C#3",
          "midi": 49,
          "time": 309.2000000000025,
          "velocity": 0.7874015748031497,
          "duration": 0.10000000000002274
        },
        {
          "name": "C#3",
          "midi": 49,
          "time": 309.40000000000254,
          "velocity": 0.7874015748031497,
          "duration": 0.10000000000002274
        },
        {
          "name": "G#2",
          "midi": 44,
          "time": 309.6000000000026,
          "velocity": 0.7874015748031497,
          "duration": 0.10000000000002274
        },
        {
          "name": "D#3",
          "midi": 51,
          "time": 309.6000000000026,
          "velocity": 0.7874015748031497,
          "duration": 0.20000000000004547
        },
        {
          "name": "G#2",
          "midi": 44,
          "time": 309.8000000000026,
          "velocity": 0.7874015748031497,
          "duration": 0.10000000000002274
        },
        {
          "name": "G#2",
          "midi": 44,
          "time": 310.0000000000027,
          "velocity": 0.7874015748031497,
          "duration": 0.10000000000002274
        },
        {
          "name": "G#2",
          "midi": 44,
          "time": 310.2000000000027,
          "velocity": 0.7874015748031497,
          "duration": 0.10000000000002274
        },
        {
          "name": "G#2",
          "midi": 44,
          "time": 310.40000000000276,
          "velocity": 0.7874015748031497,
          "duration": 0.10000000000002274
        },
        {
          "name": "G#2",
          "midi": 44,
          "time": 310.6000000000028,
          "velocity": 0.7874015748031497,
          "duration": 0.10000000000002274
        },
        {
          "name": "G#2",
          "midi": 44,
          "time": 310.80000000000285,
          "velocity": 0.7874015748031497,
          "duration": 0.10000000000002274
        },
        {
          "name": "G#2",
          "midi": 44,
          "time": 311.0000000000029,
          "velocity": 0.7874015748031497,
          "duration": 0.10000000000002274
        },
        {
          "name": "D#3",
          "midi": 51,
          "time": 311.20000000000294,
          "velocity": 0.7874015748031497,
          "duration": 0.19999999999998863
        },
        {
          "name": "A#3",
          "midi": 58,
          "time": 311.20000000000294,
          "velocity": 0.7874015748031497,
          "duration": 0.5999999999999659
        },
        {
          "name": "A#3",
          "midi": 58,
          "time": 311.8000000000029,
          "velocity": 0.7874015748031497,
          "duration": 0.6000000000000227
        },
        {
          "name": "A#3",
          "midi": 58,
          "time": 312.40000000000293,
          "velocity": 0.7874015748031497,
          "duration": 0.19999999999998863
        },
        {
          "name": "A#3",
          "midi": 58,
          "time": 312.6000000000029,
          "velocity": 0.7874015748031497,
          "duration": 0.19999999999998863
        },
        {
          "name": "D#3",
          "midi": 51,
          "time": 312.8000000000029,
          "velocity": 0.7874015748031497,
          "duration": 0.19999999999998863
        },
        {
          "name": "A#3",
          "midi": 58,
          "time": 312.8000000000029,
          "velocity": 0.7874015748031497,
          "duration": 0.5999999999999659
        },
        {
          "name": "A#3",
          "midi": 58,
          "time": 313.4000000000029,
          "velocity": 0.7874015748031497,
          "duration": 0.6000000000000227
        },
        {
          "name": "A#3",
          "midi": 58,
          "time": 314.0000000000029,
          "velocity": 0.7874015748031497,
          "duration": 0.19999999999998863
        },
        {
          "name": "A#3",
          "midi": 58,
          "time": 314.2000000000029,
          "velocity": 0.7874015748031497,
          "duration": 0.19999999999998863
        },
        {
          "name": "C#3",
          "midi": 49,
          "time": 314.4000000000029,
          "velocity": 0.7874015748031497,
          "duration": 0.19999999999998863
        },
        {
          "name": "G#3",
          "midi": 56,
          "time": 314.4000000000029,
          "velocity": 0.7874015748031497,
          "duration": 0.5999999999999659
        },
        {
          "name": "G#3",
          "midi": 56,
          "time": 315.00000000000284,
          "velocity": 0.7874015748031497,
          "duration": 0.6000000000000227
        },
        {
          "name": "G#3",
          "midi": 56,
          "time": 315.60000000000286,
          "velocity": 0.7874015748031497,
          "duration": 0.19999999999998863
        },
        {
          "name": "G#3",
          "midi": 56,
          "time": 315.80000000000285,
          "velocity": 0.7874015748031497,
          "duration": 0.19999999999998863
        },
        {
          "name": "G#2",
          "midi": 44,
          "time": 316.00000000000284,
          "velocity": 0.7874015748031497,
          "duration": 0.19999999999998863
        },
        {
          "name": "D#3",
          "midi": 51,
          "time": 316.00000000000284,
          "velocity": 0.7874015748031497,
          "duration": 0.5999999999999659
        },
        {
          "name": "D#3",
          "midi": 51,
          "time": 316.6000000000028,
          "velocity": 0.7874015748031497,
          "duration": 0.6000000000000227
        },
        {
          "name": "D#3",
          "midi": 51,
          "time": 317.20000000000283,
          "velocity": 0.7874015748031497,
          "duration": 0.19999999999998863
        },
        {
          "name": "D#3",
          "midi": 51,
          "time": 317.4000000000028,
          "velocity": 0.7874015748031497,
          "duration": 0.19999999999998863
        },
        {
          "name": "D#3",
          "midi": 51,
          "time": 317.6000000000028,
          "velocity": 0.7874015748031497,
          "duration": 0.19999999999998863
        },
        {
          "name": "A#3",
          "midi": 58,
          "time": 317.6000000000028,
          "velocity": 0.7874015748031497,
          "duration": 0.5999999999999659
        },
        {
          "name": "A#3",
          "midi": 58,
          "time": 318.2000000000028,
          "velocity": 0.7874015748031497,
          "duration": 0.6000000000000227
        },
        {
          "name": "A#3",
          "midi": 58,
          "time": 318.8000000000028,
          "velocity": 0.7874015748031497,
          "duration": 0.19999999999998863
        },
        {
          "name": "A#3",
          "midi": 58,
          "time": 319.0000000000028,
          "velocity": 0.7874015748031497,
          "duration": 0.19999999999998863
        },
        {
          "name": "D#3",
          "midi": 51,
          "time": 319.2000000000028,
          "velocity": 0.7874015748031497,
          "duration": 0.19999999999998863
        },
        {
          "name": "A#3",
          "midi": 58,
          "time": 319.2000000000028,
          "velocity": 0.7874015748031497,
          "duration": 0.5999999999999659
        },
        {
          "name": "A#3",
          "midi": 58,
          "time": 319.80000000000274,
          "velocity": 0.7874015748031497,
          "duration": 0.6000000000000227
        },
        {
          "name": "A#3",
          "midi": 58,
          "time": 320.40000000000276,
          "velocity": 0.7874015748031497,
          "duration": 0.39999999999997726
        },
        {
          "name": "A#2",
          "midi": 46,
          "time": 320.80000000000274,
          "velocity": 0.7874015748031497,
          "duration": 1.6000000000000227
        },
        {
          "name": "F3",
          "midi": 53,
          "time": 320.80000000000274,
          "velocity": 0.7874015748031497,
          "duration": 1.6000000000000227
        },
        {
          "name": "D#3",
          "midi": 51,
          "time": 322.40000000000276,
          "velocity": 0.7874015748031497,
          "duration": 1.6000000000000227
        },
        {
          "name": "A#3",
          "midi": 58,
          "time": 322.40000000000276,
          "velocity": 0.7874015748031497,
          "duration": 1.6000000000000227
        },
        {
          "name": "C3",
          "midi": 48,
          "time": 324.0000000000028,
          "velocity": 0.7874015748031497,
          "duration": 0.19999999999998863
        },
        {
          "name": "F2",
          "midi": 41,
          "time": 324.39916666666943,
          "velocity": 0.7874015748031497,
          "duration": 0.2041666666666515
        },
        {
          "name": "C3",
          "midi": 48,
          "time": 324.60000000000275,
          "velocity": 0.7874015748031497,
          "duration": 0.2008333333333212
        },
        {
          "name": "C3",
          "midi": 48,
          "time": 325.2000000000027,
          "velocity": 0.7874015748031497,
          "duration": 0.19999999999998863
        },
        {
          "name": "C#3",
          "midi": 49,
          "time": 325.4000000000027,
          "velocity": 0.7874015748031497,
          "duration": 0.19999999999998863
        },
        {
          "name": "C3",
          "midi": 48,
          "time": 325.6000000000027,
          "velocity": 0.7874015748031497,
          "duration": 0.19999999999998863
        },
        {
          "name": "F2",
          "midi": 41,
          "time": 326.0000000000027,
          "velocity": 0.7874015748031497,
          "duration": 0.19999999999998863
        },
        {
          "name": "C3",
          "midi": 48,
          "time": 326.20000000000266,
          "velocity": 0.7874015748031497,
          "duration": 0.19999999999998863
        },
        {
          "name": "F3",
          "midi": 53,
          "time": 326.8000000000026,
          "velocity": 0.7874015748031497,
          "duration": 0.19999999999998863
        },
        {
          "name": "C#3",
          "midi": 49,
          "time": 327.0000000000026,
          "velocity": 0.7874015748031497,
          "duration": 0.19999999999998863
        },
        {
          "name": "C3",
          "midi": 48,
          "time": 327.20416666666927,
          "velocity": 0.7874015748031497,
          "duration": 0.19999999999998863
        },
        {
          "name": "F2",
          "midi": 41,
          "time": 327.6000000000026,
          "velocity": 0.7874015748031497,
          "duration": 0.19999999999998863
        },
        {
          "name": "C3",
          "midi": 48,
          "time": 327.80000000000257,
          "velocity": 0.7874015748031497,
          "duration": 0.19999999999998863
        },
        {
          "name": "C3",
          "midi": 48,
          "time": 328.40000000000254,
          "velocity": 0.7874015748031497,
          "duration": 0.19999999999998863
        },
        {
          "name": "F2",
          "midi": 41,
          "time": 328.6000000000025,
          "velocity": 0.7874015748031497,
          "duration": 0.19999999999998863
        },
        {
          "name": "D#3",
          "midi": 51,
          "time": 328.8000000000025,
          "velocity": 0.7874015748031497,
          "duration": 0.10000000000002274
        },
        {
          "name": "C#3",
          "midi": 49,
          "time": 329.20000000000255,
          "velocity": 0.7874015748031497,
          "duration": 0.10000000000002274
        },
        {
          "name": "C3",
          "midi": 48,
          "time": 329.6000000000026,
          "velocity": 0.7874015748031497,
          "duration": 0.10000000000002274
        },
        {
          "name": "A#2",
          "midi": 46,
          "time": 330.0000000000026,
          "velocity": 0.7874015748031497,
          "duration": 0.10000000000002274
        },
        {
          "name": "G#2",
          "midi": 44,
          "time": 330.40000000000265,
          "velocity": 0.7874015748031497,
          "duration": 2.3999999999999773
        },
        {
          "name": "C3",
          "midi": 48,
          "time": 330.40000000000265,
          "velocity": 0.7874015748031497,
          "duration": 2.3999999999999773
        },
        {
          "name": "D#3",
          "midi": 51,
          "time": 330.40000000000265,
          "velocity": 0.7874015748031497,
          "duration": 2.3999999999999773
        }
      ],
      "controlChanges": {},
      "id": 1,
      "name": "Midi Intermediate JITU",
      "channelNumber": 0,
      "isPercussion": false
    }
  ]
}